M48
; DRILL file {KiCad (6.0.7)} date Sat Nov 19 11:38:50 2022
; FORMAT={-:-/ absolute / inch / decimal}
; #@! TF.CreationDate,2022-11-19T11:38:50+01:00
; #@! TF.GenerationSoftware,Kicad,Pcbnew,(6.0.7)
; #@! TF.FileFunction,Plated,1,2,PTH
FMAT,2
INCH
; #@! TA.AperFunction,Plated,PTH,ViaDrill
T1C0.0157
; #@! TA.AperFunction,Plated,PTH,ComponentDrill
T2C0.0270
; #@! TA.AperFunction,Plated,PTH,ComponentDrill
T3C0.0433
; #@! TA.AperFunction,Plated,PTH,ComponentDrill
T4C0.0512
; #@! TA.AperFunction,Plated,PTH,ComponentDrill
T5C0.1260
%
G90
G05
T1
X1.731Y-2.263
X1.935Y-1.926
X2.121Y-1.456
X2.3599Y-1.7503
X2.4642Y-1.8074
X2.543Y-3.696
X2.847Y-3.072
X2.932Y-3.695
X2.963Y-2.431
X2.9785Y-1.8079
X3.1276Y-2.1775
X3.1669Y-1.7402
X3.3362Y-1.7992
X3.3362Y-1.926
X3.6434Y-2.4787
X3.644Y-2.437
X3.646Y-2.518
X3.682Y-2.543
X3.7502Y-2.9754
X3.784Y-3.194
X3.8488Y-2.5787
X3.9114Y-2.863
X3.923Y-2.16
X3.926Y-2.567
X3.9827Y-2.8331
X4.035Y-2.8731
X4.055Y-3.195
X4.0831Y-2.8339
X4.122Y-2.868
X4.189Y-2.718
X4.1965Y-2.4386
X4.2185Y-2.514
X4.2472Y-2.6087
X4.279Y-2.808
X4.343Y-2.16
X4.346Y-3.0256
X4.346Y-3.065
X4.4027Y-2.6394
X4.4148Y-2.7974
X4.4273Y-2.3254
X4.4313Y-2.4527
X4.4327Y-2.3874
X4.434Y-2.876
X4.4452Y-2.274
X4.4613Y-2.7334
X4.6035Y-2.2012
X4.604Y-2.392
X4.6123Y-2.8215
X4.6173Y-2.6754
X4.623Y-2.56
X4.639Y-2.369
X4.64Y-2.14
X4.6496Y-2.8559
X4.6654Y-2.7425
X4.6752Y-2.3209
X4.694Y-2.658
X4.716Y-2.8776
X4.717Y-2.961
X4.721Y-1.759
X4.733Y-2.565
X4.7363Y-2.9113
X4.7402Y-2.2736
X4.773Y-1.983
X5.0284Y-2.269
X5.0505Y-2.3219
X5.135Y-2.844
X5.135Y-2.888
X5.222Y-2.955
X5.3Y-2.27
X5.302Y-2.802
X5.303Y-2.71
X5.306Y-1.666
X5.323Y-1.391
X5.328Y-2.319
X5.421Y-2.455
X5.986Y-2.661
X5.986Y-2.735
X6.015Y-2.2277
X6.016Y-2.267
T2
X4.0633Y-1.9834
X4.2554Y-1.9834
X5.1437Y-1.8114
X5.1437Y-2.0035
X5.1496Y-2.7642
X5.1496Y-2.9563
T3
X1.733Y-3.1821
X1.833Y-3.1821
X1.933Y-3.1821
X2.0203Y-3.8238
X2.1203Y-3.8238
X2.198Y-3.182
X2.298Y-3.182
X2.3892Y-3.8238
X2.398Y-3.182
X2.4892Y-3.8238
X2.66Y-3.181
X2.7585Y-3.8238
X2.76Y-3.181
X2.8585Y-3.8238
X2.86Y-3.181
X2.96Y-3.181
X3.1272Y-3.8229
X3.2272Y-3.8229
X3.231Y-3.182
X3.3272Y-3.8229
X3.331Y-3.182
X3.4272Y-3.8229
X3.431Y-3.182
X3.7839Y-3.8049
X3.784Y-3.401
X3.8839Y-3.8049
X3.884Y-3.401
X3.9839Y-3.8049
X3.984Y-3.401
X4.0839Y-3.8049
X4.1839Y-3.8049
X4.2589Y-3.4009
X4.3589Y-3.4009
X4.4529Y-3.8059
X4.4589Y-3.4009
X4.5529Y-3.8059
X4.6529Y-3.8059
X4.7359Y-3.3979
X4.7529Y-3.8059
X4.8359Y-3.3979
X4.8529Y-3.8059
X4.9359Y-3.3979
X4.9529Y-3.8059
X5.212Y-3.398
X5.2229Y-3.8059
X5.312Y-3.398
X5.3229Y-3.8059
X5.412Y-3.398
X5.4229Y-3.8059
X5.69Y-3.398
X5.6919Y-3.8059
X5.79Y-3.398
X5.7919Y-3.8059
X5.82Y-1.559
X5.89Y-3.398
X5.8919Y-3.8059
X5.92Y-1.559
T4
X1.7205Y-1.6713
X1.7205Y-1.8697
X1.7205Y-2.0681
X1.7205Y-2.6689
X2.0157Y-1.6713
X2.0157Y-1.8697
X2.0157Y-2.0681
X2.0157Y-2.6689
X2.263Y-1.6713
X2.263Y-1.8697
X2.263Y-2.0681
X2.263Y-2.6689
X2.5582Y-1.6713
X2.5582Y-1.8697
X2.5582Y-2.0681
X2.5582Y-2.6689
X2.8067Y-1.6713
X2.8067Y-1.8697
X2.8067Y-2.0681
X2.8067Y-2.6689
X3.102Y-1.6713
X3.102Y-1.8697
X3.102Y-2.0681
X3.102Y-2.6689
T5
X1.728Y-3.892
X3.739Y-1.529
X5.123Y-1.53
X5.8594Y-3.0075
T0
M30
