%TF.GenerationSoftware,KiCad,Pcbnew,(6.0.7)*%
%TF.CreationDate,2022-11-19T11:38:31+01:00*%
%TF.ProjectId,placamaster,706c6163-616d-4617-9374-65722e6b6963,v01*%
%TF.SameCoordinates,Original*%
%TF.FileFunction,Legend,Bot*%
%TF.FilePolarity,Positive*%
%FSLAX46Y46*%
G04 Gerber Fmt 4.6, Leading zero omitted, Abs format (unit mm)*
G04 Created by KiCad (PCBNEW (6.0.7)) date 2022-11-19 11:38:31*
%MOMM*%
%LPD*%
G01*
G04 APERTURE LIST*
%ADD10C,0.150000*%
%ADD11C,0.120000*%
%ADD12C,0.010000*%
G04 APERTURE END LIST*
D10*
X121055400Y-44063666D02*
X120579209Y-44063666D01*
X121150638Y-44349380D02*
X120817304Y-43349380D01*
X120483971Y-44349380D01*
X120150638Y-44349380D02*
X120150638Y-43349380D01*
X119817304Y-44063666D01*
X119483971Y-43349380D01*
X119483971Y-44349380D01*
X119055400Y-44301761D02*
X118912542Y-44349380D01*
X118674447Y-44349380D01*
X118579209Y-44301761D01*
X118531590Y-44254142D01*
X118483971Y-44158904D01*
X118483971Y-44063666D01*
X118531590Y-43968428D01*
X118579209Y-43920809D01*
X118674447Y-43873190D01*
X118864923Y-43825571D01*
X118960161Y-43777952D01*
X119007780Y-43730333D01*
X119055400Y-43635095D01*
X119055400Y-43539857D01*
X119007780Y-43444619D01*
X118960161Y-43397000D01*
X118864923Y-43349380D01*
X118626828Y-43349380D01*
X118483971Y-43397000D01*
X117388733Y-43682714D02*
X117150638Y-44349380D01*
X116912542Y-43682714D01*
X116007780Y-44349380D02*
X116579209Y-44349380D01*
X116293495Y-44349380D02*
X116293495Y-43349380D01*
X116388733Y-43492238D01*
X116483971Y-43587476D01*
X116579209Y-43635095D01*
X115579209Y-44254142D02*
X115531590Y-44301761D01*
X115579209Y-44349380D01*
X115626828Y-44301761D01*
X115579209Y-44254142D01*
X115579209Y-44349380D01*
X114912542Y-43349380D02*
X114817304Y-43349380D01*
X114722066Y-43397000D01*
X114674447Y-43444619D01*
X114626828Y-43539857D01*
X114579209Y-43730333D01*
X114579209Y-43968428D01*
X114626828Y-44158904D01*
X114674447Y-44254142D01*
X114722066Y-44301761D01*
X114817304Y-44349380D01*
X114912542Y-44349380D01*
X115007780Y-44301761D01*
X115055400Y-44254142D01*
X115103019Y-44158904D01*
X115150638Y-43968428D01*
X115150638Y-43730333D01*
X115103019Y-43539857D01*
X115055400Y-43444619D01*
X115007780Y-43397000D01*
X114912542Y-43349380D01*
X113388733Y-43968428D02*
X112626828Y-43968428D01*
X110864923Y-44349380D02*
X111436352Y-44349380D01*
X111150638Y-44349380D02*
X111150638Y-43349380D01*
X111245876Y-43492238D01*
X111341114Y-43587476D01*
X111436352Y-43635095D01*
X109912542Y-44349380D02*
X110483971Y-44349380D01*
X110198257Y-44349380D02*
X110198257Y-43349380D01*
X110293495Y-43492238D01*
X110388733Y-43587476D01*
X110483971Y-43635095D01*
X108769685Y-43301761D02*
X109626828Y-44587476D01*
X108483971Y-43444619D02*
X108436352Y-43397000D01*
X108341114Y-43349380D01*
X108103019Y-43349380D01*
X108007780Y-43397000D01*
X107960161Y-43444619D01*
X107912542Y-43539857D01*
X107912542Y-43635095D01*
X107960161Y-43777952D01*
X108531590Y-44349380D01*
X107912542Y-44349380D01*
X107293495Y-43349380D02*
X107198257Y-43349380D01*
X107103019Y-43397000D01*
X107055400Y-43444619D01*
X107007780Y-43539857D01*
X106960161Y-43730333D01*
X106960161Y-43968428D01*
X107007780Y-44158904D01*
X107055400Y-44254142D01*
X107103019Y-44301761D01*
X107198257Y-44349380D01*
X107293495Y-44349380D01*
X107388733Y-44301761D01*
X107436352Y-44254142D01*
X107483971Y-44158904D01*
X107531590Y-43968428D01*
X107531590Y-43730333D01*
X107483971Y-43539857D01*
X107436352Y-43444619D01*
X107388733Y-43397000D01*
X107293495Y-43349380D01*
X106579209Y-43444619D02*
X106531590Y-43397000D01*
X106436352Y-43349380D01*
X106198257Y-43349380D01*
X106103019Y-43397000D01*
X106055400Y-43444619D01*
X106007780Y-43539857D01*
X106007780Y-43635095D01*
X106055400Y-43777952D01*
X106626828Y-44349380D01*
X106007780Y-44349380D01*
X105626828Y-43444619D02*
X105579209Y-43397000D01*
X105483971Y-43349380D01*
X105245876Y-43349380D01*
X105150638Y-43397000D01*
X105103019Y-43444619D01*
X105055400Y-43539857D01*
X105055400Y-43635095D01*
X105103019Y-43777952D01*
X105674447Y-44349380D01*
X105055400Y-44349380D01*
X117888733Y-45959380D02*
X118364923Y-45959380D01*
X118364923Y-44959380D01*
X117555400Y-45864142D02*
X117507780Y-45911761D01*
X117555400Y-45959380D01*
X117603019Y-45911761D01*
X117555400Y-45864142D01*
X117555400Y-45959380D01*
X115888733Y-45959380D02*
X115888733Y-44959380D01*
X115888733Y-45911761D02*
X115983971Y-45959380D01*
X116174447Y-45959380D01*
X116269685Y-45911761D01*
X116317304Y-45864142D01*
X116364923Y-45768904D01*
X116364923Y-45483190D01*
X116317304Y-45387952D01*
X116269685Y-45340333D01*
X116174447Y-45292714D01*
X115983971Y-45292714D01*
X115888733Y-45340333D01*
X115031590Y-45911761D02*
X115126828Y-45959380D01*
X115317304Y-45959380D01*
X115412542Y-45911761D01*
X115460161Y-45816523D01*
X115460161Y-45435571D01*
X115412542Y-45340333D01*
X115317304Y-45292714D01*
X115126828Y-45292714D01*
X115031590Y-45340333D01*
X114983971Y-45435571D01*
X114983971Y-45530809D01*
X115460161Y-45626047D01*
X113650638Y-45959380D02*
X113745876Y-45911761D01*
X113793495Y-45816523D01*
X113793495Y-44959380D01*
X112841114Y-45959380D02*
X112841114Y-45435571D01*
X112888733Y-45340333D01*
X112983971Y-45292714D01*
X113174447Y-45292714D01*
X113269685Y-45340333D01*
X112841114Y-45911761D02*
X112936352Y-45959380D01*
X113174447Y-45959380D01*
X113269685Y-45911761D01*
X113317304Y-45816523D01*
X113317304Y-45721285D01*
X113269685Y-45626047D01*
X113174447Y-45578428D01*
X112936352Y-45578428D01*
X112841114Y-45530809D01*
X111269685Y-45435571D02*
X111126828Y-45483190D01*
X111079209Y-45530809D01*
X111031590Y-45626047D01*
X111031590Y-45768904D01*
X111079209Y-45864142D01*
X111126828Y-45911761D01*
X111222066Y-45959380D01*
X111603019Y-45959380D01*
X111603019Y-44959380D01*
X111269685Y-44959380D01*
X111174447Y-45007000D01*
X111126828Y-45054619D01*
X111079209Y-45149857D01*
X111079209Y-45245095D01*
X111126828Y-45340333D01*
X111174447Y-45387952D01*
X111269685Y-45435571D01*
X111603019Y-45435571D01*
X110174447Y-45959380D02*
X110174447Y-45435571D01*
X110222066Y-45340333D01*
X110317304Y-45292714D01*
X110507780Y-45292714D01*
X110603019Y-45340333D01*
X110174447Y-45911761D02*
X110269685Y-45959380D01*
X110507780Y-45959380D01*
X110603019Y-45911761D01*
X110650638Y-45816523D01*
X110650638Y-45721285D01*
X110603019Y-45626047D01*
X110507780Y-45578428D01*
X110269685Y-45578428D01*
X110174447Y-45530809D01*
X109698257Y-45959380D02*
X109698257Y-45292714D01*
X109698257Y-45483190D02*
X109650638Y-45387952D01*
X109603019Y-45340333D01*
X109507780Y-45292714D01*
X109412542Y-45292714D01*
X109079209Y-45959380D02*
X109079209Y-44959380D01*
X109079209Y-45340333D02*
X108983971Y-45292714D01*
X108793495Y-45292714D01*
X108698257Y-45340333D01*
X108650638Y-45387952D01*
X108603019Y-45483190D01*
X108603019Y-45768904D01*
X108650638Y-45864142D01*
X108698257Y-45911761D01*
X108793495Y-45959380D01*
X108983971Y-45959380D01*
X109079209Y-45911761D01*
X107745876Y-45959380D02*
X107745876Y-45435571D01*
X107793495Y-45340333D01*
X107888733Y-45292714D01*
X108079209Y-45292714D01*
X108174447Y-45340333D01*
X107745876Y-45911761D02*
X107841114Y-45959380D01*
X108079209Y-45959380D01*
X108174447Y-45911761D01*
X108222066Y-45816523D01*
X108222066Y-45721285D01*
X108174447Y-45626047D01*
X108079209Y-45578428D01*
X107841114Y-45578428D01*
X107745876Y-45530809D01*
X116745876Y-46569380D02*
X116745876Y-47283666D01*
X116793495Y-47426523D01*
X116888733Y-47521761D01*
X117031590Y-47569380D01*
X117126828Y-47569380D01*
X116269685Y-47474142D02*
X116222066Y-47521761D01*
X116269685Y-47569380D01*
X116317304Y-47521761D01*
X116269685Y-47474142D01*
X116269685Y-47569380D01*
X115222066Y-47569380D02*
X115555400Y-47093190D01*
X115793495Y-47569380D02*
X115793495Y-46569380D01*
X115412542Y-46569380D01*
X115317304Y-46617000D01*
X115269685Y-46664619D01*
X115222066Y-46759857D01*
X115222066Y-46902714D01*
X115269685Y-46997952D01*
X115317304Y-47045571D01*
X115412542Y-47093190D01*
X115793495Y-47093190D01*
X114793495Y-47474142D02*
X114745876Y-47521761D01*
X114793495Y-47569380D01*
X114841114Y-47521761D01*
X114793495Y-47474142D01*
X114793495Y-47569380D01*
X113269685Y-46569380D02*
X113269685Y-47283666D01*
X113317304Y-47426523D01*
X113412542Y-47521761D01*
X113555400Y-47569380D01*
X113650638Y-47569380D01*
X112364923Y-46902714D02*
X112364923Y-47569380D01*
X112793495Y-46902714D02*
X112793495Y-47426523D01*
X112745876Y-47521761D01*
X112650638Y-47569380D01*
X112507780Y-47569380D01*
X112412542Y-47521761D01*
X112364923Y-47474142D01*
X111745876Y-47569380D02*
X111841114Y-47521761D01*
X111888733Y-47426523D01*
X111888733Y-46569380D01*
X111364923Y-47569380D02*
X111364923Y-46902714D01*
X111364923Y-46569380D02*
X111412542Y-46617000D01*
X111364923Y-46664619D01*
X111317304Y-46617000D01*
X111364923Y-46569380D01*
X111364923Y-46664619D01*
X110460161Y-47569380D02*
X110460161Y-47045571D01*
X110507780Y-46950333D01*
X110603019Y-46902714D01*
X110793495Y-46902714D01*
X110888733Y-46950333D01*
X110460161Y-47521761D02*
X110555400Y-47569380D01*
X110793495Y-47569380D01*
X110888733Y-47521761D01*
X110936352Y-47426523D01*
X110936352Y-47331285D01*
X110888733Y-47236047D01*
X110793495Y-47188428D01*
X110555400Y-47188428D01*
X110460161Y-47140809D01*
X109983971Y-46902714D02*
X109983971Y-47569380D01*
X109983971Y-46997952D02*
X109936352Y-46950333D01*
X109841114Y-46902714D01*
X109698257Y-46902714D01*
X109603019Y-46950333D01*
X109555400Y-47045571D01*
X109555400Y-47569380D01*
X109079209Y-47569380D02*
X109079209Y-46902714D01*
X109079209Y-46569380D02*
X109126828Y-46617000D01*
X109079209Y-46664619D01*
X109031590Y-46617000D01*
X109079209Y-46569380D01*
X109079209Y-46664619D01*
X116150638Y-48655571D02*
X116483971Y-48655571D01*
X116483971Y-49179380D02*
X116483971Y-48179380D01*
X116007780Y-48179380D01*
X115626828Y-49084142D02*
X115579209Y-49131761D01*
X115626828Y-49179380D01*
X115674447Y-49131761D01*
X115626828Y-49084142D01*
X115626828Y-49179380D01*
X113960161Y-49179380D02*
X113960161Y-48179380D01*
X113960161Y-49131761D02*
X114055400Y-49179380D01*
X114245876Y-49179380D01*
X114341114Y-49131761D01*
X114388733Y-49084142D01*
X114436352Y-48988904D01*
X114436352Y-48703190D01*
X114388733Y-48607952D01*
X114341114Y-48560333D01*
X114245876Y-48512714D01*
X114055400Y-48512714D01*
X113960161Y-48560333D01*
X113103019Y-49131761D02*
X113198257Y-49179380D01*
X113388733Y-49179380D01*
X113483971Y-49131761D01*
X113531590Y-49036523D01*
X113531590Y-48655571D01*
X113483971Y-48560333D01*
X113388733Y-48512714D01*
X113198257Y-48512714D01*
X113103019Y-48560333D01*
X113055400Y-48655571D01*
X113055400Y-48750809D01*
X113531590Y-48846047D01*
X111864923Y-49179380D02*
X111864923Y-48179380D01*
X111483971Y-48179380D01*
X111388733Y-48227000D01*
X111341114Y-48274619D01*
X111293495Y-48369857D01*
X111293495Y-48512714D01*
X111341114Y-48607952D01*
X111388733Y-48655571D01*
X111483971Y-48703190D01*
X111864923Y-48703190D01*
X110436352Y-49179380D02*
X110436352Y-48655571D01*
X110483971Y-48560333D01*
X110579209Y-48512714D01*
X110769685Y-48512714D01*
X110864923Y-48560333D01*
X110436352Y-49131761D02*
X110531590Y-49179380D01*
X110769685Y-49179380D01*
X110864923Y-49131761D01*
X110912542Y-49036523D01*
X110912542Y-48941285D01*
X110864923Y-48846047D01*
X110769685Y-48798428D01*
X110531590Y-48798428D01*
X110436352Y-48750809D01*
X110055400Y-48512714D02*
X109531590Y-48512714D01*
X110055400Y-49179380D01*
X109531590Y-49179380D01*
X115603019Y-50789380D02*
X115936352Y-50313190D01*
X116174447Y-50789380D02*
X116174447Y-49789380D01*
X115793495Y-49789380D01*
X115698257Y-49837000D01*
X115650638Y-49884619D01*
X115603019Y-49979857D01*
X115603019Y-50122714D01*
X115650638Y-50217952D01*
X115698257Y-50265571D01*
X115793495Y-50313190D01*
X116174447Y-50313190D01*
X115174447Y-50694142D02*
X115126828Y-50741761D01*
X115174447Y-50789380D01*
X115222066Y-50741761D01*
X115174447Y-50694142D01*
X115174447Y-50789380D01*
X113936352Y-50789380D02*
X113936352Y-49789380D01*
X113603019Y-50503666D01*
X113269685Y-49789380D01*
X113269685Y-50789380D01*
X112650638Y-50789380D02*
X112745876Y-50741761D01*
X112793495Y-50694142D01*
X112841114Y-50598904D01*
X112841114Y-50313190D01*
X112793495Y-50217952D01*
X112745876Y-50170333D01*
X112650638Y-50122714D01*
X112507780Y-50122714D01*
X112412542Y-50170333D01*
X112364923Y-50217952D01*
X112317304Y-50313190D01*
X112317304Y-50598904D01*
X112364923Y-50694142D01*
X112412542Y-50741761D01*
X112507780Y-50789380D01*
X112650638Y-50789380D01*
X111888733Y-50789380D02*
X111888733Y-50122714D01*
X111888733Y-50313190D02*
X111841114Y-50217952D01*
X111793495Y-50170333D01*
X111698257Y-50122714D01*
X111603019Y-50122714D01*
X110841114Y-50789380D02*
X110841114Y-50265571D01*
X110888733Y-50170333D01*
X110983971Y-50122714D01*
X111174447Y-50122714D01*
X111269685Y-50170333D01*
X110841114Y-50741761D02*
X110936352Y-50789380D01*
X111174447Y-50789380D01*
X111269685Y-50741761D01*
X111317304Y-50646523D01*
X111317304Y-50551285D01*
X111269685Y-50456047D01*
X111174447Y-50408428D01*
X110936352Y-50408428D01*
X110841114Y-50360809D01*
X110983971Y-49741761D02*
X111126828Y-49884619D01*
X110364923Y-50122714D02*
X110364923Y-50789380D01*
X110364923Y-50217952D02*
X110317304Y-50170333D01*
X110222066Y-50122714D01*
X110079209Y-50122714D01*
X109983971Y-50170333D01*
X109936352Y-50265571D01*
X109936352Y-50789380D01*
%TO.C,R5*%
X123693466Y-61564780D02*
X124026800Y-61088590D01*
X124264895Y-61564780D02*
X124264895Y-60564780D01*
X123883942Y-60564780D01*
X123788704Y-60612400D01*
X123741085Y-60660019D01*
X123693466Y-60755257D01*
X123693466Y-60898114D01*
X123741085Y-60993352D01*
X123788704Y-61040971D01*
X123883942Y-61088590D01*
X124264895Y-61088590D01*
X122788704Y-60564780D02*
X123264895Y-60564780D01*
X123312514Y-61040971D01*
X123264895Y-60993352D01*
X123169657Y-60945733D01*
X122931561Y-60945733D01*
X122836323Y-60993352D01*
X122788704Y-61040971D01*
X122741085Y-61136209D01*
X122741085Y-61374304D01*
X122788704Y-61469542D01*
X122836323Y-61517161D01*
X122931561Y-61564780D01*
X123169657Y-61564780D01*
X123264895Y-61517161D01*
X123312514Y-61469542D01*
%TO.C,C1*%
X112561666Y-79554342D02*
X112609285Y-79601961D01*
X112752142Y-79649580D01*
X112847380Y-79649580D01*
X112990238Y-79601961D01*
X113085476Y-79506723D01*
X113133095Y-79411485D01*
X113180714Y-79221009D01*
X113180714Y-79078152D01*
X113133095Y-78887676D01*
X113085476Y-78792438D01*
X112990238Y-78697200D01*
X112847380Y-78649580D01*
X112752142Y-78649580D01*
X112609285Y-78697200D01*
X112561666Y-78744819D01*
X111609285Y-79649580D02*
X112180714Y-79649580D01*
X111895000Y-79649580D02*
X111895000Y-78649580D01*
X111990238Y-78792438D01*
X112085476Y-78887676D01*
X112180714Y-78935295D01*
%TO.C,R4*%
X124836466Y-77795380D02*
X125169800Y-77319190D01*
X125407895Y-77795380D02*
X125407895Y-76795380D01*
X125026942Y-76795380D01*
X124931704Y-76843000D01*
X124884085Y-76890619D01*
X124836466Y-76985857D01*
X124836466Y-77128714D01*
X124884085Y-77223952D01*
X124931704Y-77271571D01*
X125026942Y-77319190D01*
X125407895Y-77319190D01*
X123979323Y-77128714D02*
X123979323Y-77795380D01*
X124217419Y-76747761D02*
X124455514Y-77462047D01*
X123836466Y-77462047D01*
D11*
%TO.C,R5*%
X120235736Y-60377400D02*
X120689864Y-60377400D01*
X120235736Y-61847400D02*
X120689864Y-61847400D01*
%TO.C,G\u002A\u002A\u002A*%
G36*
X111648926Y-41419197D02*
G01*
X111648976Y-41563395D01*
X111677186Y-41513125D01*
X111679246Y-41509447D01*
X111693261Y-41484225D01*
X111710019Y-41453810D01*
X111727593Y-41421705D01*
X111744058Y-41391416D01*
X111749737Y-41380933D01*
X111764225Y-41354268D01*
X111777515Y-41329917D01*
X111788330Y-41310213D01*
X111795396Y-41297489D01*
X111808072Y-41275000D01*
X111934625Y-41275000D01*
X111934625Y-41793583D01*
X111818376Y-41793583D01*
X111816970Y-41648250D01*
X111815563Y-41502917D01*
X111657079Y-41793583D01*
X111527167Y-41793583D01*
X111527167Y-41275000D01*
X111648875Y-41275000D01*
X111648926Y-41419197D01*
G37*
D12*
X111648926Y-41419197D02*
X111648976Y-41563395D01*
X111677186Y-41513125D01*
X111679246Y-41509447D01*
X111693261Y-41484225D01*
X111710019Y-41453810D01*
X111727593Y-41421705D01*
X111744058Y-41391416D01*
X111749737Y-41380933D01*
X111764225Y-41354268D01*
X111777515Y-41329917D01*
X111788330Y-41310213D01*
X111795396Y-41297489D01*
X111808072Y-41275000D01*
X111934625Y-41275000D01*
X111934625Y-41793583D01*
X111818376Y-41793583D01*
X111816970Y-41648250D01*
X111815563Y-41502917D01*
X111657079Y-41793583D01*
X111527167Y-41793583D01*
X111527167Y-41275000D01*
X111648875Y-41275000D01*
X111648926Y-41419197D01*
G36*
X115892792Y-39997062D02*
G01*
X115890146Y-39999708D01*
X115887500Y-39997062D01*
X115890146Y-39994416D01*
X115892792Y-39997062D01*
G37*
X115892792Y-39997062D02*
X115890146Y-39999708D01*
X115887500Y-39997062D01*
X115890146Y-39994416D01*
X115892792Y-39997062D01*
G36*
X111294334Y-40798036D02*
G01*
X111294340Y-40827456D01*
X111294409Y-40869267D01*
X111294609Y-40902335D01*
X111295008Y-40927814D01*
X111295674Y-40946859D01*
X111296674Y-40960626D01*
X111298078Y-40970268D01*
X111299952Y-40976940D01*
X111302365Y-40981798D01*
X111305384Y-40985996D01*
X111323903Y-41003357D01*
X111347290Y-41014113D01*
X111371953Y-41016560D01*
X111395735Y-41010873D01*
X111416480Y-40997224D01*
X111432030Y-40975788D01*
X111434795Y-40969556D01*
X111437171Y-40962243D01*
X111439005Y-40953068D01*
X111440364Y-40940785D01*
X111441320Y-40924147D01*
X111441941Y-40901910D01*
X111442298Y-40872827D01*
X111442462Y-40835653D01*
X111442500Y-40789141D01*
X111442500Y-40624125D01*
X111564834Y-40624125D01*
X111563198Y-40808010D01*
X111561563Y-40991895D01*
X111546354Y-41024822D01*
X111537938Y-41040889D01*
X111511992Y-41075585D01*
X111479213Y-41104215D01*
X111441525Y-41125290D01*
X111400852Y-41137324D01*
X111388244Y-41139403D01*
X111373059Y-41141301D01*
X111360412Y-41141304D01*
X111346010Y-41139286D01*
X111325562Y-41135122D01*
X111321676Y-41134261D01*
X111278870Y-41119140D01*
X111241421Y-41095014D01*
X111209769Y-41062236D01*
X111184352Y-41021160D01*
X111169980Y-40991895D01*
X111166600Y-40624125D01*
X111294334Y-40624125D01*
X111294334Y-40798036D01*
G37*
X111294334Y-40798036D02*
X111294340Y-40827456D01*
X111294409Y-40869267D01*
X111294609Y-40902335D01*
X111295008Y-40927814D01*
X111295674Y-40946859D01*
X111296674Y-40960626D01*
X111298078Y-40970268D01*
X111299952Y-40976940D01*
X111302365Y-40981798D01*
X111305384Y-40985996D01*
X111323903Y-41003357D01*
X111347290Y-41014113D01*
X111371953Y-41016560D01*
X111395735Y-41010873D01*
X111416480Y-40997224D01*
X111432030Y-40975788D01*
X111434795Y-40969556D01*
X111437171Y-40962243D01*
X111439005Y-40953068D01*
X111440364Y-40940785D01*
X111441320Y-40924147D01*
X111441941Y-40901910D01*
X111442298Y-40872827D01*
X111442462Y-40835653D01*
X111442500Y-40789141D01*
X111442500Y-40624125D01*
X111564834Y-40624125D01*
X111563198Y-40808010D01*
X111561563Y-40991895D01*
X111546354Y-41024822D01*
X111537938Y-41040889D01*
X111511992Y-41075585D01*
X111479213Y-41104215D01*
X111441525Y-41125290D01*
X111400852Y-41137324D01*
X111388244Y-41139403D01*
X111373059Y-41141301D01*
X111360412Y-41141304D01*
X111346010Y-41139286D01*
X111325562Y-41135122D01*
X111321676Y-41134261D01*
X111278870Y-41119140D01*
X111241421Y-41095014D01*
X111209769Y-41062236D01*
X111184352Y-41021160D01*
X111169980Y-40991895D01*
X111166600Y-40624125D01*
X111294334Y-40624125D01*
X111294334Y-40798036D01*
G36*
X108606167Y-41142708D02*
G01*
X108267500Y-41142708D01*
X108267500Y-41021000D01*
X108479167Y-41021000D01*
X108479167Y-40941625D01*
X108309834Y-40941625D01*
X108309834Y-40819916D01*
X108479167Y-40819916D01*
X108479167Y-40745833D01*
X108267500Y-40745833D01*
X108267500Y-40624125D01*
X108606167Y-40624125D01*
X108606167Y-41142708D01*
G37*
X108606167Y-41142708D02*
X108267500Y-41142708D01*
X108267500Y-41021000D01*
X108479167Y-41021000D01*
X108479167Y-40941625D01*
X108309834Y-40941625D01*
X108309834Y-40819916D01*
X108479167Y-40819916D01*
X108479167Y-40745833D01*
X108267500Y-40745833D01*
X108267500Y-40624125D01*
X108606167Y-40624125D01*
X108606167Y-41142708D01*
G36*
X108932928Y-41142668D02*
G01*
X108914981Y-41142444D01*
X108885897Y-41141345D01*
X108859205Y-41139540D01*
X108839000Y-41137264D01*
X108835770Y-41136736D01*
X108789074Y-41123645D01*
X108745414Y-41101559D01*
X108706241Y-41071784D01*
X108673006Y-41035624D01*
X108647159Y-40994387D01*
X108630154Y-40949377D01*
X108628162Y-40941184D01*
X108622215Y-40892988D01*
X108745664Y-40892988D01*
X108752688Y-40927074D01*
X108768849Y-40957945D01*
X108793533Y-40984275D01*
X108826124Y-41004735D01*
X108833995Y-41008488D01*
X108845543Y-41013796D01*
X108854387Y-41016553D01*
X108860885Y-41015756D01*
X108865398Y-41010400D01*
X108868283Y-40999482D01*
X108869902Y-40981998D01*
X108870613Y-40956944D01*
X108870776Y-40923315D01*
X108870750Y-40880109D01*
X108870750Y-40744510D01*
X108854453Y-40747769D01*
X108851945Y-40748300D01*
X108819125Y-40760795D01*
X108790398Y-40781958D01*
X108767407Y-40810244D01*
X108751800Y-40844110D01*
X108748391Y-40857017D01*
X108745664Y-40892988D01*
X108622215Y-40892988D01*
X108621958Y-40890905D01*
X108625621Y-40841342D01*
X108638558Y-40793759D01*
X108660178Y-40749419D01*
X108689888Y-40709587D01*
X108727095Y-40675525D01*
X108771207Y-40648498D01*
X108789685Y-40640224D01*
X108819428Y-40630226D01*
X108851971Y-40623639D01*
X108889844Y-40620006D01*
X108935573Y-40618873D01*
X108992459Y-40618833D01*
X108992459Y-41142708D01*
X108932928Y-41142668D01*
G37*
X108932928Y-41142668D02*
X108914981Y-41142444D01*
X108885897Y-41141345D01*
X108859205Y-41139540D01*
X108839000Y-41137264D01*
X108835770Y-41136736D01*
X108789074Y-41123645D01*
X108745414Y-41101559D01*
X108706241Y-41071784D01*
X108673006Y-41035624D01*
X108647159Y-40994387D01*
X108630154Y-40949377D01*
X108628162Y-40941184D01*
X108622215Y-40892988D01*
X108745664Y-40892988D01*
X108752688Y-40927074D01*
X108768849Y-40957945D01*
X108793533Y-40984275D01*
X108826124Y-41004735D01*
X108833995Y-41008488D01*
X108845543Y-41013796D01*
X108854387Y-41016553D01*
X108860885Y-41015756D01*
X108865398Y-41010400D01*
X108868283Y-40999482D01*
X108869902Y-40981998D01*
X108870613Y-40956944D01*
X108870776Y-40923315D01*
X108870750Y-40880109D01*
X108870750Y-40744510D01*
X108854453Y-40747769D01*
X108851945Y-40748300D01*
X108819125Y-40760795D01*
X108790398Y-40781958D01*
X108767407Y-40810244D01*
X108751800Y-40844110D01*
X108748391Y-40857017D01*
X108745664Y-40892988D01*
X108622215Y-40892988D01*
X108621958Y-40890905D01*
X108625621Y-40841342D01*
X108638558Y-40793759D01*
X108660178Y-40749419D01*
X108689888Y-40709587D01*
X108727095Y-40675525D01*
X108771207Y-40648498D01*
X108789685Y-40640224D01*
X108819428Y-40630226D01*
X108851971Y-40623639D01*
X108889844Y-40620006D01*
X108935573Y-40618873D01*
X108992459Y-40618833D01*
X108992459Y-41142708D01*
X108932928Y-41142668D01*
G36*
X110553500Y-41793583D02*
G01*
X110225417Y-41793583D01*
X110225417Y-41671875D01*
X110431792Y-41671875D01*
X110431792Y-41597791D01*
X110267750Y-41597791D01*
X110267750Y-41470791D01*
X110431792Y-41470791D01*
X110431792Y-41396708D01*
X110225417Y-41396708D01*
X110225417Y-41275000D01*
X110553500Y-41275000D01*
X110553500Y-41793583D01*
G37*
X110553500Y-41793583D02*
X110225417Y-41793583D01*
X110225417Y-41671875D01*
X110431792Y-41671875D01*
X110431792Y-41597791D01*
X110267750Y-41597791D01*
X110267750Y-41470791D01*
X110431792Y-41470791D01*
X110431792Y-41396708D01*
X110225417Y-41396708D01*
X110225417Y-41275000D01*
X110553500Y-41275000D01*
X110553500Y-41793583D01*
G36*
X110735733Y-41010146D02*
G01*
X110746239Y-41040822D01*
X110747237Y-41043740D01*
X110757229Y-41073513D01*
X110765650Y-41099606D01*
X110772017Y-41120443D01*
X110775846Y-41134447D01*
X110776654Y-41140041D01*
X110770994Y-41141050D01*
X110756826Y-41141911D01*
X110736369Y-41142494D01*
X110711810Y-41142708D01*
X110649632Y-41142708D01*
X110629360Y-41081854D01*
X110549583Y-41080396D01*
X110469806Y-41078937D01*
X110459627Y-41109500D01*
X110449448Y-41140062D01*
X110385058Y-41141548D01*
X110383633Y-41141580D01*
X110359129Y-41141782D01*
X110339114Y-41141320D01*
X110325617Y-41140282D01*
X110320667Y-41138755D01*
X110320841Y-41137533D01*
X110323290Y-41128105D01*
X110328024Y-41112142D01*
X110334271Y-41092290D01*
X110338104Y-41080409D01*
X110348457Y-41048378D01*
X110360397Y-41011498D01*
X110373520Y-40971013D01*
X110379192Y-40953531D01*
X110511224Y-40953531D01*
X110511272Y-40953738D01*
X110516988Y-40955641D01*
X110530373Y-40956988D01*
X110548775Y-40957500D01*
X110555120Y-40957466D01*
X110573139Y-40956644D01*
X110582314Y-40954534D01*
X110583987Y-40950885D01*
X110582516Y-40946711D01*
X110578023Y-40933768D01*
X110571519Y-40914939D01*
X110563857Y-40892682D01*
X110546123Y-40841093D01*
X110528702Y-40895328D01*
X110523022Y-40913216D01*
X110516936Y-40932955D01*
X110512777Y-40947146D01*
X110511224Y-40953531D01*
X110379192Y-40953531D01*
X110387421Y-40928166D01*
X110401696Y-40884199D01*
X110415942Y-40840355D01*
X110429754Y-40797878D01*
X110442728Y-40758010D01*
X110454459Y-40721995D01*
X110464545Y-40691076D01*
X110472580Y-40666495D01*
X110478161Y-40649496D01*
X110480884Y-40641322D01*
X110486835Y-40624125D01*
X110545303Y-40624133D01*
X110603771Y-40624142D01*
X110658464Y-40784206D01*
X110660140Y-40789110D01*
X110675644Y-40834474D01*
X110691763Y-40881619D01*
X110707688Y-40928185D01*
X110715454Y-40950885D01*
X110722614Y-40971814D01*
X110735733Y-41010146D01*
G37*
X110735733Y-41010146D02*
X110746239Y-41040822D01*
X110747237Y-41043740D01*
X110757229Y-41073513D01*
X110765650Y-41099606D01*
X110772017Y-41120443D01*
X110775846Y-41134447D01*
X110776654Y-41140041D01*
X110770994Y-41141050D01*
X110756826Y-41141911D01*
X110736369Y-41142494D01*
X110711810Y-41142708D01*
X110649632Y-41142708D01*
X110629360Y-41081854D01*
X110549583Y-41080396D01*
X110469806Y-41078937D01*
X110459627Y-41109500D01*
X110449448Y-41140062D01*
X110385058Y-41141548D01*
X110383633Y-41141580D01*
X110359129Y-41141782D01*
X110339114Y-41141320D01*
X110325617Y-41140282D01*
X110320667Y-41138755D01*
X110320841Y-41137533D01*
X110323290Y-41128105D01*
X110328024Y-41112142D01*
X110334271Y-41092290D01*
X110338104Y-41080409D01*
X110348457Y-41048378D01*
X110360397Y-41011498D01*
X110373520Y-40971013D01*
X110379192Y-40953531D01*
X110511224Y-40953531D01*
X110511272Y-40953738D01*
X110516988Y-40955641D01*
X110530373Y-40956988D01*
X110548775Y-40957500D01*
X110555120Y-40957466D01*
X110573139Y-40956644D01*
X110582314Y-40954534D01*
X110583987Y-40950885D01*
X110582516Y-40946711D01*
X110578023Y-40933768D01*
X110571519Y-40914939D01*
X110563857Y-40892682D01*
X110546123Y-40841093D01*
X110528702Y-40895328D01*
X110523022Y-40913216D01*
X110516936Y-40932955D01*
X110512777Y-40947146D01*
X110511224Y-40953531D01*
X110379192Y-40953531D01*
X110387421Y-40928166D01*
X110401696Y-40884199D01*
X110415942Y-40840355D01*
X110429754Y-40797878D01*
X110442728Y-40758010D01*
X110454459Y-40721995D01*
X110464545Y-40691076D01*
X110472580Y-40666495D01*
X110478161Y-40649496D01*
X110480884Y-40641322D01*
X110486835Y-40624125D01*
X110545303Y-40624133D01*
X110603771Y-40624142D01*
X110658464Y-40784206D01*
X110660140Y-40789110D01*
X110675644Y-40834474D01*
X110691763Y-40881619D01*
X110707688Y-40928185D01*
X110715454Y-40950885D01*
X110722614Y-40971814D01*
X110735733Y-41010146D01*
G36*
X112362940Y-41277724D02*
G01*
X112410303Y-41289642D01*
X112455042Y-41311280D01*
X112496103Y-41342513D01*
X112513584Y-41360319D01*
X112543250Y-41400913D01*
X112564182Y-41445487D01*
X112576350Y-41492665D01*
X112579722Y-41541072D01*
X112574268Y-41589333D01*
X112559955Y-41636073D01*
X112536753Y-41679917D01*
X112504631Y-41719490D01*
X112478664Y-41742958D01*
X112442657Y-41766423D01*
X112401363Y-41783366D01*
X112372477Y-41789839D01*
X112334577Y-41792949D01*
X112295535Y-41791498D01*
X112259852Y-41785421D01*
X112235889Y-41777381D01*
X112206596Y-41763562D01*
X112179903Y-41747104D01*
X112159734Y-41730170D01*
X112147105Y-41716854D01*
X112188420Y-41673277D01*
X112229735Y-41629701D01*
X112243206Y-41640297D01*
X112251602Y-41646476D01*
X112284831Y-41663547D01*
X112319272Y-41670614D01*
X112353602Y-41667737D01*
X112386494Y-41654977D01*
X112416626Y-41632394D01*
X112434203Y-41613050D01*
X112447138Y-41591136D01*
X112453902Y-41566016D01*
X112455855Y-41534291D01*
X112455282Y-41516715D01*
X112450145Y-41486444D01*
X112438771Y-41461338D01*
X112420068Y-41438464D01*
X112412837Y-41431734D01*
X112382460Y-41411913D01*
X112348841Y-41401256D01*
X112313830Y-41399902D01*
X112279281Y-41407986D01*
X112247044Y-41425646D01*
X112228733Y-41439166D01*
X112187933Y-41395447D01*
X112147133Y-41351729D01*
X112160521Y-41337605D01*
X112169259Y-41329938D01*
X112185749Y-41318279D01*
X112204188Y-41307343D01*
X112215618Y-41301567D01*
X112264544Y-41283560D01*
X112314002Y-41275655D01*
X112362940Y-41277724D01*
G37*
X112362940Y-41277724D02*
X112410303Y-41289642D01*
X112455042Y-41311280D01*
X112496103Y-41342513D01*
X112513584Y-41360319D01*
X112543250Y-41400913D01*
X112564182Y-41445487D01*
X112576350Y-41492665D01*
X112579722Y-41541072D01*
X112574268Y-41589333D01*
X112559955Y-41636073D01*
X112536753Y-41679917D01*
X112504631Y-41719490D01*
X112478664Y-41742958D01*
X112442657Y-41766423D01*
X112401363Y-41783366D01*
X112372477Y-41789839D01*
X112334577Y-41792949D01*
X112295535Y-41791498D01*
X112259852Y-41785421D01*
X112235889Y-41777381D01*
X112206596Y-41763562D01*
X112179903Y-41747104D01*
X112159734Y-41730170D01*
X112147105Y-41716854D01*
X112188420Y-41673277D01*
X112229735Y-41629701D01*
X112243206Y-41640297D01*
X112251602Y-41646476D01*
X112284831Y-41663547D01*
X112319272Y-41670614D01*
X112353602Y-41667737D01*
X112386494Y-41654977D01*
X112416626Y-41632394D01*
X112434203Y-41613050D01*
X112447138Y-41591136D01*
X112453902Y-41566016D01*
X112455855Y-41534291D01*
X112455282Y-41516715D01*
X112450145Y-41486444D01*
X112438771Y-41461338D01*
X112420068Y-41438464D01*
X112412837Y-41431734D01*
X112382460Y-41411913D01*
X112348841Y-41401256D01*
X112313830Y-41399902D01*
X112279281Y-41407986D01*
X112247044Y-41425646D01*
X112228733Y-41439166D01*
X112187933Y-41395447D01*
X112147133Y-41351729D01*
X112160521Y-41337605D01*
X112169259Y-41329938D01*
X112185749Y-41318279D01*
X112204188Y-41307343D01*
X112215618Y-41301567D01*
X112264544Y-41283560D01*
X112314002Y-41275655D01*
X112362940Y-41277724D01*
G36*
X116596584Y-39975895D02*
G01*
X116593938Y-39978541D01*
X116591292Y-39975895D01*
X116593938Y-39973250D01*
X116596584Y-39975895D01*
G37*
X116596584Y-39975895D02*
X116593938Y-39978541D01*
X116591292Y-39975895D01*
X116593938Y-39973250D01*
X116596584Y-39975895D01*
G36*
X111762162Y-40646614D02*
G01*
X111763021Y-40648963D01*
X111767931Y-40662798D01*
X111775188Y-40683613D01*
X111784264Y-40709863D01*
X111794632Y-40740004D01*
X111805766Y-40772491D01*
X111817138Y-40805782D01*
X111828222Y-40838331D01*
X111838491Y-40868595D01*
X111847418Y-40895030D01*
X111854476Y-40916092D01*
X111859138Y-40930236D01*
X111860878Y-40935919D01*
X111861971Y-40934815D01*
X111866151Y-40925281D01*
X111873120Y-40907396D01*
X111882533Y-40882117D01*
X111894042Y-40850403D01*
X111907301Y-40813212D01*
X111921962Y-40771503D01*
X111937678Y-40726235D01*
X111954103Y-40678364D01*
X111972605Y-40624125D01*
X112035788Y-40624125D01*
X112060256Y-40624230D01*
X112080377Y-40624514D01*
X112094072Y-40624934D01*
X112099263Y-40625447D01*
X112099842Y-40630241D01*
X112101018Y-40644477D01*
X112102673Y-40666877D01*
X112104728Y-40696194D01*
X112107104Y-40731180D01*
X112109722Y-40770585D01*
X112112502Y-40813161D01*
X112115366Y-40857661D01*
X112118235Y-40902836D01*
X112121028Y-40947437D01*
X112123668Y-40990217D01*
X112126073Y-41029927D01*
X112128167Y-41065319D01*
X112129868Y-41095144D01*
X112131099Y-41118155D01*
X112131780Y-41133103D01*
X112131831Y-41138739D01*
X112127113Y-41140160D01*
X112113747Y-41141481D01*
X112093968Y-41142378D01*
X112069978Y-41142708D01*
X112010164Y-41142708D01*
X112006891Y-41099052D01*
X112005878Y-41085059D01*
X112003928Y-41056437D01*
X112001881Y-41024750D01*
X112000041Y-40994651D01*
X111996466Y-40933906D01*
X111984931Y-40965547D01*
X111983870Y-40968467D01*
X111977187Y-40987146D01*
X111968303Y-41012265D01*
X111958252Y-41040895D01*
X111948066Y-41070110D01*
X111922736Y-41143032D01*
X111861892Y-41141547D01*
X111801047Y-41140062D01*
X111768004Y-41044820D01*
X111761608Y-41026389D01*
X111751191Y-40996940D01*
X111743330Y-40976824D01*
X111737584Y-40966218D01*
X111733512Y-40965297D01*
X111730674Y-40974239D01*
X111728629Y-40993220D01*
X111726936Y-41022419D01*
X111725154Y-41062010D01*
X111721604Y-41142708D01*
X111595116Y-41142708D01*
X111598201Y-41109635D01*
X111599070Y-41098577D01*
X111600500Y-41077433D01*
X111602325Y-41048466D01*
X111604459Y-41013128D01*
X111606814Y-40972872D01*
X111609301Y-40929151D01*
X111611834Y-40883416D01*
X111614088Y-40842658D01*
X111616584Y-40798643D01*
X111618958Y-40757933D01*
X111621120Y-40721980D01*
X111622984Y-40692239D01*
X111624462Y-40670160D01*
X111625467Y-40657197D01*
X111628551Y-40624125D01*
X111753834Y-40624125D01*
X111762162Y-40646614D01*
G37*
X111762162Y-40646614D02*
X111763021Y-40648963D01*
X111767931Y-40662798D01*
X111775188Y-40683613D01*
X111784264Y-40709863D01*
X111794632Y-40740004D01*
X111805766Y-40772491D01*
X111817138Y-40805782D01*
X111828222Y-40838331D01*
X111838491Y-40868595D01*
X111847418Y-40895030D01*
X111854476Y-40916092D01*
X111859138Y-40930236D01*
X111860878Y-40935919D01*
X111861971Y-40934815D01*
X111866151Y-40925281D01*
X111873120Y-40907396D01*
X111882533Y-40882117D01*
X111894042Y-40850403D01*
X111907301Y-40813212D01*
X111921962Y-40771503D01*
X111937678Y-40726235D01*
X111954103Y-40678364D01*
X111972605Y-40624125D01*
X112035788Y-40624125D01*
X112060256Y-40624230D01*
X112080377Y-40624514D01*
X112094072Y-40624934D01*
X112099263Y-40625447D01*
X112099842Y-40630241D01*
X112101018Y-40644477D01*
X112102673Y-40666877D01*
X112104728Y-40696194D01*
X112107104Y-40731180D01*
X112109722Y-40770585D01*
X112112502Y-40813161D01*
X112115366Y-40857661D01*
X112118235Y-40902836D01*
X112121028Y-40947437D01*
X112123668Y-40990217D01*
X112126073Y-41029927D01*
X112128167Y-41065319D01*
X112129868Y-41095144D01*
X112131099Y-41118155D01*
X112131780Y-41133103D01*
X112131831Y-41138739D01*
X112127113Y-41140160D01*
X112113747Y-41141481D01*
X112093968Y-41142378D01*
X112069978Y-41142708D01*
X112010164Y-41142708D01*
X112006891Y-41099052D01*
X112005878Y-41085059D01*
X112003928Y-41056437D01*
X112001881Y-41024750D01*
X112000041Y-40994651D01*
X111996466Y-40933906D01*
X111984931Y-40965547D01*
X111983870Y-40968467D01*
X111977187Y-40987146D01*
X111968303Y-41012265D01*
X111958252Y-41040895D01*
X111948066Y-41070110D01*
X111922736Y-41143032D01*
X111861892Y-41141547D01*
X111801047Y-41140062D01*
X111768004Y-41044820D01*
X111761608Y-41026389D01*
X111751191Y-40996940D01*
X111743330Y-40976824D01*
X111737584Y-40966218D01*
X111733512Y-40965297D01*
X111730674Y-40974239D01*
X111728629Y-40993220D01*
X111726936Y-41022419D01*
X111725154Y-41062010D01*
X111721604Y-41142708D01*
X111595116Y-41142708D01*
X111598201Y-41109635D01*
X111599070Y-41098577D01*
X111600500Y-41077433D01*
X111602325Y-41048466D01*
X111604459Y-41013128D01*
X111606814Y-40972872D01*
X111609301Y-40929151D01*
X111611834Y-40883416D01*
X111614088Y-40842658D01*
X111616584Y-40798643D01*
X111618958Y-40757933D01*
X111621120Y-40721980D01*
X111622984Y-40692239D01*
X111624462Y-40670160D01*
X111625467Y-40657197D01*
X111628551Y-40624125D01*
X111753834Y-40624125D01*
X111762162Y-40646614D01*
G36*
X112980502Y-41662956D02*
G01*
X112990979Y-41694524D01*
X113024033Y-41793903D01*
X112895959Y-41790937D01*
X112887123Y-41764479D01*
X112878287Y-41738020D01*
X112799331Y-41736567D01*
X112720375Y-41735113D01*
X112704499Y-41790937D01*
X112640001Y-41792420D01*
X112575503Y-41793904D01*
X112585493Y-41763316D01*
X112589141Y-41751954D01*
X112595635Y-41731488D01*
X112604446Y-41703586D01*
X112615145Y-41669611D01*
X112627302Y-41630926D01*
X112634377Y-41608375D01*
X112761376Y-41608375D01*
X112798358Y-41608375D01*
X112804154Y-41608346D01*
X112822134Y-41607538D01*
X112831248Y-41605429D01*
X112832846Y-41601760D01*
X112831952Y-41599238D01*
X112828069Y-41587710D01*
X112822229Y-41570023D01*
X112815314Y-41548843D01*
X112811694Y-41537979D01*
X112805143Y-41519782D01*
X112799945Y-41507224D01*
X112796986Y-41502541D01*
X112795122Y-41505250D01*
X112790608Y-41516216D01*
X112784488Y-41533654D01*
X112777536Y-41555458D01*
X112761376Y-41608375D01*
X112634377Y-41608375D01*
X112640489Y-41588893D01*
X112654276Y-41544875D01*
X112667022Y-41504189D01*
X112680606Y-41460913D01*
X112693330Y-41420462D01*
X112704735Y-41384290D01*
X112714363Y-41353854D01*
X112721753Y-41330609D01*
X112726448Y-41316010D01*
X112739828Y-41275000D01*
X112796279Y-41275031D01*
X112852730Y-41275063D01*
X112905327Y-41435104D01*
X112906560Y-41438856D01*
X112921563Y-41484455D01*
X112937256Y-41532082D01*
X112952842Y-41579318D01*
X112960258Y-41601760D01*
X112967523Y-41623749D01*
X112980502Y-41662956D01*
G37*
X112980502Y-41662956D02*
X112990979Y-41694524D01*
X113024033Y-41793903D01*
X112895959Y-41790937D01*
X112887123Y-41764479D01*
X112878287Y-41738020D01*
X112799331Y-41736567D01*
X112720375Y-41735113D01*
X112704499Y-41790937D01*
X112640001Y-41792420D01*
X112575503Y-41793904D01*
X112585493Y-41763316D01*
X112589141Y-41751954D01*
X112595635Y-41731488D01*
X112604446Y-41703586D01*
X112615145Y-41669611D01*
X112627302Y-41630926D01*
X112634377Y-41608375D01*
X112761376Y-41608375D01*
X112798358Y-41608375D01*
X112804154Y-41608346D01*
X112822134Y-41607538D01*
X112831248Y-41605429D01*
X112832846Y-41601760D01*
X112831952Y-41599238D01*
X112828069Y-41587710D01*
X112822229Y-41570023D01*
X112815314Y-41548843D01*
X112811694Y-41537979D01*
X112805143Y-41519782D01*
X112799945Y-41507224D01*
X112796986Y-41502541D01*
X112795122Y-41505250D01*
X112790608Y-41516216D01*
X112784488Y-41533654D01*
X112777536Y-41555458D01*
X112761376Y-41608375D01*
X112634377Y-41608375D01*
X112640489Y-41588893D01*
X112654276Y-41544875D01*
X112667022Y-41504189D01*
X112680606Y-41460913D01*
X112693330Y-41420462D01*
X112704735Y-41384290D01*
X112714363Y-41353854D01*
X112721753Y-41330609D01*
X112726448Y-41316010D01*
X112739828Y-41275000D01*
X112796279Y-41275031D01*
X112852730Y-41275063D01*
X112905327Y-41435104D01*
X112906560Y-41438856D01*
X112921563Y-41484455D01*
X112937256Y-41532082D01*
X112952842Y-41579318D01*
X112960258Y-41601760D01*
X112967523Y-41623749D01*
X112980502Y-41662956D01*
G36*
X116902641Y-40726171D02*
G01*
X116898209Y-40730153D01*
X116897725Y-40731572D01*
X116891594Y-40733394D01*
X116888308Y-40733398D01*
X116876135Y-40735371D01*
X116860774Y-40739299D01*
X116845611Y-40744143D01*
X116834030Y-40748868D01*
X116829417Y-40752437D01*
X116829175Y-40753742D01*
X116824712Y-40754133D01*
X116821629Y-40753465D01*
X116810107Y-40753985D01*
X116794285Y-40756510D01*
X116784170Y-40758310D01*
X116760688Y-40761323D01*
X116737846Y-40763075D01*
X116736980Y-40763111D01*
X116719817Y-40764259D01*
X116709549Y-40767120D01*
X116702630Y-40773575D01*
X116695513Y-40785500D01*
X116692304Y-40791213D01*
X116684288Y-40804486D01*
X116678605Y-40812546D01*
X116676612Y-40814857D01*
X116668475Y-40824773D01*
X116658164Y-40837715D01*
X116644733Y-40853820D01*
X116605060Y-40892957D01*
X116556069Y-40930903D01*
X116545685Y-40938222D01*
X116528997Y-40950321D01*
X116516845Y-40959580D01*
X116511326Y-40964428D01*
X116510532Y-40965421D01*
X116504761Y-40968645D01*
X116503686Y-40968834D01*
X116494992Y-40972002D01*
X116479999Y-40978280D01*
X116461176Y-40986651D01*
X116457549Y-40988288D01*
X116435456Y-40997710D01*
X116414792Y-41005721D01*
X116399613Y-41010734D01*
X116396519Y-41011586D01*
X116378859Y-41017005D01*
X116364415Y-41022208D01*
X116353058Y-41025721D01*
X116341730Y-41026865D01*
X116337112Y-41026972D01*
X116329818Y-41030833D01*
X116326281Y-41033214D01*
X116316552Y-41033228D01*
X116310118Y-41032504D01*
X116298414Y-41035047D01*
X116296899Y-41035679D01*
X116285015Y-41037601D01*
X116265383Y-41038654D01*
X116240234Y-41038896D01*
X116211797Y-41038388D01*
X116182301Y-41037189D01*
X116153975Y-41035358D01*
X116129048Y-41032953D01*
X116109750Y-41030035D01*
X116106002Y-41029298D01*
X116087097Y-41026036D01*
X116072847Y-41024316D01*
X116066094Y-41024498D01*
X116064980Y-41024967D01*
X116062125Y-41021732D01*
X116062068Y-41021296D01*
X116056597Y-41016769D01*
X116044928Y-41012928D01*
X116041990Y-41012238D01*
X116024055Y-41006373D01*
X116000854Y-40996968D01*
X115974540Y-40985097D01*
X115947266Y-40971836D01*
X115921185Y-40958259D01*
X115898449Y-40945442D01*
X115881211Y-40934460D01*
X115871625Y-40926388D01*
X115867248Y-40922324D01*
X115856714Y-40913416D01*
X115842642Y-40901937D01*
X115827371Y-40889267D01*
X115799321Y-40862805D01*
X115778407Y-40837588D01*
X115769412Y-40825552D01*
X115760500Y-40814612D01*
X115758508Y-40812172D01*
X115750126Y-40799986D01*
X115741199Y-40784991D01*
X115733861Y-40773358D01*
X115724735Y-40765780D01*
X115712095Y-40763201D01*
X115702495Y-40762354D01*
X115683655Y-40760256D01*
X115661141Y-40757472D01*
X115638502Y-40754461D01*
X115619286Y-40751682D01*
X115607042Y-40749596D01*
X115600246Y-40747617D01*
X115585895Y-40742707D01*
X115568288Y-40736228D01*
X115553476Y-40731245D01*
X115539378Y-40727958D01*
X115531752Y-40728058D01*
X115529187Y-40729135D01*
X115529808Y-40725484D01*
X115528919Y-40721118D01*
X115522485Y-40718853D01*
X115515383Y-40720697D01*
X115511992Y-40719283D01*
X115504373Y-40712711D01*
X115503680Y-40712225D01*
X115960006Y-40712225D01*
X115965833Y-40720565D01*
X115967862Y-40723065D01*
X116001962Y-40756577D01*
X116044225Y-40784878D01*
X116093278Y-40807198D01*
X116147747Y-40822763D01*
X116172562Y-40826958D01*
X116229150Y-40829611D01*
X116285943Y-40823422D01*
X116340458Y-40808768D01*
X116390209Y-40786026D01*
X116398480Y-40781074D01*
X116416355Y-40769275D01*
X116434055Y-40756435D01*
X116449399Y-40744245D01*
X116460205Y-40734397D01*
X116464292Y-40728583D01*
X116465528Y-40724822D01*
X116472380Y-40717273D01*
X116472583Y-40717123D01*
X116476063Y-40712679D01*
X116472475Y-40707868D01*
X116460473Y-40700828D01*
X116456267Y-40698551D01*
X116442489Y-40690278D01*
X116433487Y-40683669D01*
X116429321Y-40680273D01*
X116422391Y-40677041D01*
X116422305Y-40677039D01*
X116415644Y-40673764D01*
X116405571Y-40666133D01*
X116399498Y-40660932D01*
X116385338Y-40648832D01*
X116369953Y-40635706D01*
X116365508Y-40631727D01*
X116350028Y-40616220D01*
X116332290Y-40596719D01*
X116315318Y-40576500D01*
X116307797Y-40567096D01*
X116293810Y-40549624D01*
X116282605Y-40535647D01*
X116276095Y-40527552D01*
X116272226Y-40521633D01*
X116272521Y-40518210D01*
X116273655Y-40517787D01*
X116270757Y-40514241D01*
X116269229Y-40512564D01*
X116263384Y-40502750D01*
X116255358Y-40486666D01*
X116246418Y-40466783D01*
X116242101Y-40457024D01*
X116233973Y-40440444D01*
X116227584Y-40429760D01*
X116224038Y-40426934D01*
X116222512Y-40427525D01*
X116223602Y-40422092D01*
X116224562Y-40417243D01*
X116221791Y-40410378D01*
X116220356Y-40409841D01*
X116215145Y-40412957D01*
X116212056Y-40420820D01*
X116213233Y-40428810D01*
X116213910Y-40430453D01*
X116210604Y-40433625D01*
X116209005Y-40433801D01*
X116206095Y-40437593D01*
X116205051Y-40441586D01*
X116200173Y-40453190D01*
X116192430Y-40469847D01*
X116183020Y-40489151D01*
X116173141Y-40508698D01*
X116163993Y-40526084D01*
X116156774Y-40538902D01*
X116152682Y-40544750D01*
X116144220Y-40553229D01*
X116135877Y-40565110D01*
X116130123Y-40576514D01*
X116129192Y-40583736D01*
X116130296Y-40586083D01*
X116128391Y-40585913D01*
X116127426Y-40585690D01*
X116120312Y-40589518D01*
X116108660Y-40599129D01*
X116094445Y-40612950D01*
X116087641Y-40619681D01*
X116068747Y-40636454D01*
X116046393Y-40654482D01*
X116022849Y-40672100D01*
X116000383Y-40687646D01*
X115981262Y-40699456D01*
X115967754Y-40705866D01*
X115961584Y-40708207D01*
X115960006Y-40712225D01*
X115503680Y-40712225D01*
X115496970Y-40707518D01*
X115489381Y-40706914D01*
X115487037Y-40707943D01*
X115487239Y-40704698D01*
X115486762Y-40700102D01*
X115478898Y-40695199D01*
X115472126Y-40692473D01*
X115452241Y-40680762D01*
X115425523Y-40661166D01*
X115424341Y-40660215D01*
X115414570Y-40651646D01*
X115400393Y-40638578D01*
X115384449Y-40623434D01*
X115379765Y-40618997D01*
X115365703Y-40606678D01*
X115355043Y-40598825D01*
X115349797Y-40596976D01*
X115348527Y-40597866D01*
X115349128Y-40594883D01*
X115349184Y-40594769D01*
X115347354Y-40588050D01*
X115340055Y-40576049D01*
X115328809Y-40561285D01*
X115328552Y-40560974D01*
X115316888Y-40546215D01*
X115308582Y-40534391D01*
X115305417Y-40528037D01*
X115304764Y-40526163D01*
X115299308Y-40526734D01*
X115296425Y-40528009D01*
X115296853Y-40524597D01*
X115297317Y-40521644D01*
X115294292Y-40511104D01*
X115287087Y-40497426D01*
X115283123Y-40490802D01*
X115276347Y-40477304D01*
X115273667Y-40468438D01*
X115273280Y-40465073D01*
X115269160Y-40457922D01*
X115268168Y-40456727D01*
X115264083Y-40447494D01*
X115258641Y-40431503D01*
X115252741Y-40411307D01*
X115250778Y-40404117D01*
X115245179Y-40383929D01*
X115240657Y-40368092D01*
X115238047Y-40359541D01*
X115237715Y-40358571D01*
X115235365Y-40349299D01*
X115233738Y-40336812D01*
X115232722Y-40319268D01*
X115232203Y-40294826D01*
X115232117Y-40273275D01*
X115424063Y-40273275D01*
X115424599Y-40285944D01*
X115426128Y-40290782D01*
X115427350Y-40292148D01*
X115429374Y-40301126D01*
X115430488Y-40315715D01*
X115431016Y-40323647D01*
X115433498Y-40336601D01*
X115437136Y-40342593D01*
X115439084Y-40343643D01*
X115440075Y-40349410D01*
X115439212Y-40352041D01*
X115441284Y-40360864D01*
X115443050Y-40363834D01*
X115445825Y-40370125D01*
X115446018Y-40371389D01*
X115449264Y-40382310D01*
X115454103Y-40392245D01*
X115458350Y-40396583D01*
X115459959Y-40397163D01*
X115462403Y-40403608D01*
X115462415Y-40403986D01*
X115466188Y-40414182D01*
X115475533Y-40429486D01*
X115488742Y-40447554D01*
X115504107Y-40466040D01*
X115519920Y-40482597D01*
X115528689Y-40490571D01*
X115564241Y-40517082D01*
X115604240Y-40539746D01*
X115644003Y-40555800D01*
X115645020Y-40556114D01*
X115700021Y-40567708D01*
X115754729Y-40568988D01*
X115808200Y-40560200D01*
X115859493Y-40541588D01*
X115907666Y-40513398D01*
X115951776Y-40475873D01*
X115969706Y-40456261D01*
X115992417Y-40426614D01*
X116011261Y-40396354D01*
X116024780Y-40367899D01*
X116031515Y-40343666D01*
X116033484Y-40334081D01*
X116037304Y-40324036D01*
X116037380Y-40323912D01*
X116040030Y-40314252D01*
X116040872Y-40300224D01*
X116041508Y-40284527D01*
X116043937Y-40268348D01*
X116044627Y-40262245D01*
X116397826Y-40262245D01*
X116398734Y-40283026D01*
X116400487Y-40303177D01*
X116403017Y-40319854D01*
X116415803Y-40364414D01*
X116439751Y-40414510D01*
X116472177Y-40459348D01*
X116512277Y-40498030D01*
X116559246Y-40529659D01*
X116612280Y-40553338D01*
X116651532Y-40563911D01*
X116705522Y-40569249D01*
X116759941Y-40564634D01*
X116813437Y-40550211D01*
X116864655Y-40526128D01*
X116887182Y-40510300D01*
X116912663Y-40487911D01*
X116937948Y-40462027D01*
X116960254Y-40435500D01*
X116976800Y-40411182D01*
X116983869Y-40397537D01*
X116995139Y-40370678D01*
X117004760Y-40341870D01*
X117011546Y-40314833D01*
X117014314Y-40293291D01*
X117014982Y-40279933D01*
X117016554Y-40264291D01*
X117017127Y-40254760D01*
X117015662Y-40246167D01*
X117014847Y-40243825D01*
X117013142Y-40232688D01*
X117012130Y-40217063D01*
X117011058Y-40205015D01*
X117007658Y-40186086D01*
X117002755Y-40166562D01*
X116997158Y-40149200D01*
X116991680Y-40136759D01*
X116987130Y-40132000D01*
X116985738Y-40131760D01*
X116985137Y-40127330D01*
X116985262Y-40127094D01*
X116983966Y-40119823D01*
X116977512Y-40109297D01*
X116977241Y-40108951D01*
X116969999Y-40098305D01*
X116967000Y-40091166D01*
X116966997Y-40091062D01*
X116963180Y-40084297D01*
X116953433Y-40072388D01*
X116939611Y-40057243D01*
X116923572Y-40040771D01*
X116907170Y-40024878D01*
X116892262Y-40011472D01*
X116880703Y-40002461D01*
X116858538Y-39988632D01*
X116837017Y-39977305D01*
X116820283Y-39970882D01*
X116810108Y-39970174D01*
X116806503Y-39971025D01*
X116805293Y-39968462D01*
X116805318Y-39968420D01*
X116803153Y-39964227D01*
X116794789Y-39960545D01*
X116784538Y-39958670D01*
X116776709Y-39959891D01*
X116774680Y-39960488D01*
X116769970Y-39956303D01*
X116769060Y-39955040D01*
X116760549Y-39952085D01*
X116742845Y-39950318D01*
X116715278Y-39949656D01*
X116689247Y-39950335D01*
X116663659Y-39952444D01*
X116641051Y-39955646D01*
X116623321Y-39959603D01*
X116612371Y-39963974D01*
X116610100Y-39968422D01*
X116610560Y-39970412D01*
X116605689Y-39970320D01*
X116602764Y-39969763D01*
X116590265Y-39972297D01*
X116573057Y-39979965D01*
X116552892Y-39991493D01*
X116531521Y-40005610D01*
X116510696Y-40021042D01*
X116492167Y-40036516D01*
X116477687Y-40050761D01*
X116469005Y-40062503D01*
X116467874Y-40070470D01*
X116468971Y-40072799D01*
X116467084Y-40072648D01*
X116466943Y-40072532D01*
X116461030Y-40073804D01*
X116452884Y-40081575D01*
X116449049Y-40087001D01*
X116439550Y-40103302D01*
X116429318Y-40123581D01*
X116419870Y-40144560D01*
X116412725Y-40162959D01*
X116409401Y-40175498D01*
X116407890Y-40184179D01*
X116404587Y-40193640D01*
X116402987Y-40198898D01*
X116403270Y-40210503D01*
X116403617Y-40217772D01*
X116400675Y-40224676D01*
X116398831Y-40230179D01*
X116397835Y-40243681D01*
X116397828Y-40256590D01*
X116397826Y-40262245D01*
X116044627Y-40262245D01*
X116045266Y-40256590D01*
X116043497Y-40244536D01*
X116043094Y-40243462D01*
X116040938Y-40231088D01*
X116040656Y-40215343D01*
X116040767Y-40211772D01*
X116039542Y-40200160D01*
X116036238Y-40195500D01*
X116033918Y-40194568D01*
X116033548Y-40188097D01*
X116034209Y-40184424D01*
X116030650Y-40177148D01*
X116028681Y-40175478D01*
X116027625Y-40169211D01*
X116028052Y-40168007D01*
X116026938Y-40159572D01*
X116022614Y-40147726D01*
X116016699Y-40135836D01*
X116010812Y-40127274D01*
X116006573Y-40125408D01*
X116004900Y-40126504D01*
X116005959Y-40122848D01*
X116007154Y-40116241D01*
X116004274Y-40106553D01*
X115998553Y-40099213D01*
X115992251Y-40098273D01*
X115989475Y-40099423D01*
X115990322Y-40095549D01*
X115990634Y-40093920D01*
X115987378Y-40085002D01*
X115979404Y-40071871D01*
X115968581Y-40057138D01*
X115956775Y-40043416D01*
X115945851Y-40033316D01*
X115944999Y-40032667D01*
X115934961Y-40024561D01*
X115922685Y-40014168D01*
X115916878Y-40009650D01*
X115901367Y-39999458D01*
X115882278Y-39988310D01*
X115862715Y-39977898D01*
X115845782Y-39969919D01*
X115834584Y-39966066D01*
X115833710Y-39965905D01*
X115822659Y-39963055D01*
X115808125Y-39958541D01*
X115805740Y-39957747D01*
X115796461Y-39954907D01*
X115787689Y-39953115D01*
X115776651Y-39952085D01*
X115760575Y-39951531D01*
X115736688Y-39951167D01*
X115697587Y-39952168D01*
X115663694Y-39956772D01*
X115639408Y-39964994D01*
X115637443Y-39965998D01*
X115626743Y-39971007D01*
X115621650Y-39972576D01*
X115617735Y-39973739D01*
X115606658Y-39978443D01*
X115591167Y-39985633D01*
X115583342Y-39989599D01*
X115562162Y-40002200D01*
X115541601Y-40016717D01*
X115523356Y-40031688D01*
X115509122Y-40045650D01*
X115500598Y-40057138D01*
X115499480Y-40064691D01*
X115500412Y-40066740D01*
X115497516Y-40066842D01*
X115495758Y-40066713D01*
X115488889Y-40072137D01*
X115479599Y-40083860D01*
X115469293Y-40099508D01*
X115459378Y-40116702D01*
X115451261Y-40133068D01*
X115446347Y-40146229D01*
X115446044Y-40153809D01*
X115446680Y-40155489D01*
X115443000Y-40158458D01*
X115441050Y-40158800D01*
X115440129Y-40163384D01*
X115440853Y-40165526D01*
X115437434Y-40171857D01*
X115435220Y-40174118D01*
X115434471Y-40182636D01*
X115435179Y-40186084D01*
X115432267Y-40192946D01*
X115429268Y-40197058D01*
X115427060Y-40207668D01*
X115426687Y-40217546D01*
X115425816Y-40234861D01*
X115424659Y-40255031D01*
X115424631Y-40255491D01*
X115424063Y-40273275D01*
X115232117Y-40273275D01*
X115232070Y-40261645D01*
X115232100Y-40250460D01*
X115232791Y-40212823D01*
X115234782Y-40182125D01*
X115238585Y-40155489D01*
X115244714Y-40130033D01*
X115253680Y-40102879D01*
X115265999Y-40071145D01*
X115271819Y-40057044D01*
X115285636Y-40026589D01*
X115300063Y-40000253D01*
X115317366Y-39974144D01*
X115339812Y-39944369D01*
X115368192Y-39911063D01*
X115417414Y-39865060D01*
X115472695Y-39826775D01*
X115534928Y-39795624D01*
X115605010Y-39771022D01*
X115620940Y-39766714D01*
X115637066Y-39763355D01*
X115654347Y-39761139D01*
X115675141Y-39759857D01*
X115701803Y-39759298D01*
X115736688Y-39759252D01*
X115748605Y-39759304D01*
X115779872Y-39759657D01*
X115803730Y-39760495D01*
X115822584Y-39762077D01*
X115838842Y-39764658D01*
X115854908Y-39768497D01*
X115873190Y-39773850D01*
X115925532Y-39792789D01*
X115984033Y-39821302D01*
X116036584Y-39855214D01*
X116081082Y-39893317D01*
X116102684Y-39914932D01*
X116102248Y-39400372D01*
X116101813Y-38885812D01*
X115751240Y-38885151D01*
X115724218Y-38885098D01*
X115665519Y-38884969D01*
X115610334Y-38884830D01*
X115559545Y-38884683D01*
X115514036Y-38884531D01*
X115474692Y-38884379D01*
X115442396Y-38884230D01*
X115418032Y-38884085D01*
X115402484Y-38883950D01*
X115396635Y-38883828D01*
X115396247Y-38881790D01*
X115395656Y-38870742D01*
X115395117Y-38851284D01*
X115394635Y-38824759D01*
X115394215Y-38792509D01*
X115393864Y-38755878D01*
X115393588Y-38716208D01*
X115393391Y-38674842D01*
X115393281Y-38633122D01*
X115393263Y-38592391D01*
X115393343Y-38553993D01*
X115393526Y-38519269D01*
X115393818Y-38489562D01*
X115394226Y-38466216D01*
X115394755Y-38450572D01*
X115395375Y-38438666D01*
X115686417Y-38438666D01*
X115687022Y-38453218D01*
X115687083Y-38455123D01*
X115687312Y-38467555D01*
X115687576Y-38488212D01*
X115687856Y-38515296D01*
X115688133Y-38547005D01*
X115688387Y-38581541D01*
X115689147Y-38695312D01*
X115842565Y-38698226D01*
X115843281Y-38590936D01*
X115843307Y-38587149D01*
X115843560Y-38553059D01*
X115843835Y-38521388D01*
X115844111Y-38494176D01*
X115844367Y-38473466D01*
X115844582Y-38461297D01*
X115845167Y-38438949D01*
X115923219Y-38437485D01*
X116001271Y-38436020D01*
X116001640Y-38360381D01*
X116002009Y-38284741D01*
X115926576Y-38285498D01*
X115916469Y-38285575D01*
X115890247Y-38285527D01*
X115868529Y-38285135D01*
X115853341Y-38284447D01*
X115846709Y-38283515D01*
X115845751Y-38279757D01*
X115844659Y-38266640D01*
X115843751Y-38245545D01*
X115843071Y-38217931D01*
X115842665Y-38185258D01*
X115842577Y-38148984D01*
X115842880Y-38017193D01*
X115765972Y-38017586D01*
X115689063Y-38017979D01*
X115688979Y-38147625D01*
X115688891Y-38174103D01*
X115688556Y-38207905D01*
X115688010Y-38237166D01*
X115687291Y-38260376D01*
X115686439Y-38276025D01*
X115685492Y-38282601D01*
X115684269Y-38283151D01*
X115674543Y-38284370D01*
X115656612Y-38285404D01*
X115632166Y-38286244D01*
X115602891Y-38286883D01*
X115570478Y-38287314D01*
X115536613Y-38287530D01*
X115502985Y-38287522D01*
X115471283Y-38287283D01*
X115443195Y-38286807D01*
X115420409Y-38286084D01*
X115404614Y-38285109D01*
X115397498Y-38283874D01*
X115397121Y-38282653D01*
X115396309Y-38272825D01*
X115395578Y-38254254D01*
X115394936Y-38228221D01*
X115394390Y-38196006D01*
X115393947Y-38158892D01*
X115393614Y-38118160D01*
X115393399Y-38075092D01*
X115393309Y-38030969D01*
X115393351Y-37987072D01*
X115393533Y-37944684D01*
X115393861Y-37905086D01*
X115394342Y-37869559D01*
X115394985Y-37839385D01*
X115395375Y-37824833D01*
X115951000Y-37824833D01*
X115951530Y-37849968D01*
X115951726Y-37862043D01*
X115951940Y-37885243D01*
X115951997Y-37908177D01*
X115951936Y-37941250D01*
X116104459Y-37941250D01*
X116104459Y-37740166D01*
X116326709Y-37740166D01*
X116327091Y-37760010D01*
X116327111Y-37762320D01*
X116327152Y-37774619D01*
X116327195Y-37796736D01*
X116327240Y-37828160D01*
X116327286Y-37868381D01*
X116327333Y-37916890D01*
X116327382Y-37973175D01*
X116327430Y-38036727D01*
X116327479Y-38107036D01*
X116327528Y-38183591D01*
X116327576Y-38265882D01*
X116327623Y-38353399D01*
X116327669Y-38445632D01*
X116327713Y-38542070D01*
X116327755Y-38642204D01*
X116327795Y-38745522D01*
X116327833Y-38851516D01*
X116328191Y-39923179D01*
X116360523Y-39892238D01*
X116392466Y-39864254D01*
X116451272Y-39823839D01*
X116515994Y-39791977D01*
X116586000Y-39769016D01*
X116603937Y-39765037D01*
X116623749Y-39762121D01*
X116646931Y-39760316D01*
X116675881Y-39759438D01*
X116713000Y-39759303D01*
X116718254Y-39759327D01*
X116750754Y-39759662D01*
X116775505Y-39760472D01*
X116794995Y-39762027D01*
X116811713Y-39764600D01*
X116828146Y-39768461D01*
X116846784Y-39773881D01*
X116894110Y-39790715D01*
X116959782Y-39822785D01*
X117019480Y-39862851D01*
X117072317Y-39910286D01*
X117117408Y-39964469D01*
X117122745Y-39972199D01*
X117143425Y-40006386D01*
X117163157Y-40044965D01*
X117179947Y-40083804D01*
X117191805Y-40118770D01*
X117196005Y-40133698D01*
X117200604Y-40149319D01*
X117203553Y-40158458D01*
X117204367Y-40161199D01*
X117206616Y-40175431D01*
X117208470Y-40196587D01*
X117209866Y-40222169D01*
X117210743Y-40249682D01*
X117210799Y-40254760D01*
X117211037Y-40276629D01*
X117210688Y-40300514D01*
X117209632Y-40318841D01*
X117207807Y-40329114D01*
X117206277Y-40334793D01*
X117206841Y-40345795D01*
X117207744Y-40349330D01*
X117206372Y-40356531D01*
X117205402Y-40357703D01*
X117201754Y-40366309D01*
X117196983Y-40386874D01*
X117189683Y-40408933D01*
X117186483Y-40420832D01*
X117186879Y-40428777D01*
X117187617Y-40430374D01*
X117185431Y-40433625D01*
X117184054Y-40434073D01*
X117178901Y-40440845D01*
X117174092Y-40452384D01*
X117171178Y-40464313D01*
X117171714Y-40472259D01*
X117172608Y-40474237D01*
X117169640Y-40474274D01*
X117167410Y-40474388D01*
X117161242Y-40480799D01*
X117154412Y-40493300D01*
X117149656Y-40502663D01*
X117140040Y-40518977D01*
X117128028Y-40537763D01*
X117115193Y-40556717D01*
X117103107Y-40573529D01*
X117093343Y-40585894D01*
X117087473Y-40591504D01*
X117086348Y-40592299D01*
X117086423Y-40598249D01*
X117087230Y-40599966D01*
X117084941Y-40601766D01*
X117084046Y-40601721D01*
X117076835Y-40605664D01*
X117066126Y-40614636D01*
X117054235Y-40626263D01*
X117043477Y-40638173D01*
X117036166Y-40647991D01*
X117034620Y-40653346D01*
X117035704Y-40654916D01*
X117032445Y-40654149D01*
X117028198Y-40654104D01*
X117017535Y-40658638D01*
X117004800Y-40666896D01*
X116993459Y-40676859D01*
X116992256Y-40678008D01*
X116981712Y-40685094D01*
X116962459Y-40695432D01*
X116933928Y-40709332D01*
X116930966Y-40710747D01*
X116927186Y-40712679D01*
X116914352Y-40719240D01*
X116902641Y-40726171D01*
G37*
X116902641Y-40726171D02*
X116898209Y-40730153D01*
X116897725Y-40731572D01*
X116891594Y-40733394D01*
X116888308Y-40733398D01*
X116876135Y-40735371D01*
X116860774Y-40739299D01*
X116845611Y-40744143D01*
X116834030Y-40748868D01*
X116829417Y-40752437D01*
X116829175Y-40753742D01*
X116824712Y-40754133D01*
X116821629Y-40753465D01*
X116810107Y-40753985D01*
X116794285Y-40756510D01*
X116784170Y-40758310D01*
X116760688Y-40761323D01*
X116737846Y-40763075D01*
X116736980Y-40763111D01*
X116719817Y-40764259D01*
X116709549Y-40767120D01*
X116702630Y-40773575D01*
X116695513Y-40785500D01*
X116692304Y-40791213D01*
X116684288Y-40804486D01*
X116678605Y-40812546D01*
X116676612Y-40814857D01*
X116668475Y-40824773D01*
X116658164Y-40837715D01*
X116644733Y-40853820D01*
X116605060Y-40892957D01*
X116556069Y-40930903D01*
X116545685Y-40938222D01*
X116528997Y-40950321D01*
X116516845Y-40959580D01*
X116511326Y-40964428D01*
X116510532Y-40965421D01*
X116504761Y-40968645D01*
X116503686Y-40968834D01*
X116494992Y-40972002D01*
X116479999Y-40978280D01*
X116461176Y-40986651D01*
X116457549Y-40988288D01*
X116435456Y-40997710D01*
X116414792Y-41005721D01*
X116399613Y-41010734D01*
X116396519Y-41011586D01*
X116378859Y-41017005D01*
X116364415Y-41022208D01*
X116353058Y-41025721D01*
X116341730Y-41026865D01*
X116337112Y-41026972D01*
X116329818Y-41030833D01*
X116326281Y-41033214D01*
X116316552Y-41033228D01*
X116310118Y-41032504D01*
X116298414Y-41035047D01*
X116296899Y-41035679D01*
X116285015Y-41037601D01*
X116265383Y-41038654D01*
X116240234Y-41038896D01*
X116211797Y-41038388D01*
X116182301Y-41037189D01*
X116153975Y-41035358D01*
X116129048Y-41032953D01*
X116109750Y-41030035D01*
X116106002Y-41029298D01*
X116087097Y-41026036D01*
X116072847Y-41024316D01*
X116066094Y-41024498D01*
X116064980Y-41024967D01*
X116062125Y-41021732D01*
X116062068Y-41021296D01*
X116056597Y-41016769D01*
X116044928Y-41012928D01*
X116041990Y-41012238D01*
X116024055Y-41006373D01*
X116000854Y-40996968D01*
X115974540Y-40985097D01*
X115947266Y-40971836D01*
X115921185Y-40958259D01*
X115898449Y-40945442D01*
X115881211Y-40934460D01*
X115871625Y-40926388D01*
X115867248Y-40922324D01*
X115856714Y-40913416D01*
X115842642Y-40901937D01*
X115827371Y-40889267D01*
X115799321Y-40862805D01*
X115778407Y-40837588D01*
X115769412Y-40825552D01*
X115760500Y-40814612D01*
X115758508Y-40812172D01*
X115750126Y-40799986D01*
X115741199Y-40784991D01*
X115733861Y-40773358D01*
X115724735Y-40765780D01*
X115712095Y-40763201D01*
X115702495Y-40762354D01*
X115683655Y-40760256D01*
X115661141Y-40757472D01*
X115638502Y-40754461D01*
X115619286Y-40751682D01*
X115607042Y-40749596D01*
X115600246Y-40747617D01*
X115585895Y-40742707D01*
X115568288Y-40736228D01*
X115553476Y-40731245D01*
X115539378Y-40727958D01*
X115531752Y-40728058D01*
X115529187Y-40729135D01*
X115529808Y-40725484D01*
X115528919Y-40721118D01*
X115522485Y-40718853D01*
X115515383Y-40720697D01*
X115511992Y-40719283D01*
X115504373Y-40712711D01*
X115503680Y-40712225D01*
X115960006Y-40712225D01*
X115965833Y-40720565D01*
X115967862Y-40723065D01*
X116001962Y-40756577D01*
X116044225Y-40784878D01*
X116093278Y-40807198D01*
X116147747Y-40822763D01*
X116172562Y-40826958D01*
X116229150Y-40829611D01*
X116285943Y-40823422D01*
X116340458Y-40808768D01*
X116390209Y-40786026D01*
X116398480Y-40781074D01*
X116416355Y-40769275D01*
X116434055Y-40756435D01*
X116449399Y-40744245D01*
X116460205Y-40734397D01*
X116464292Y-40728583D01*
X116465528Y-40724822D01*
X116472380Y-40717273D01*
X116472583Y-40717123D01*
X116476063Y-40712679D01*
X116472475Y-40707868D01*
X116460473Y-40700828D01*
X116456267Y-40698551D01*
X116442489Y-40690278D01*
X116433487Y-40683669D01*
X116429321Y-40680273D01*
X116422391Y-40677041D01*
X116422305Y-40677039D01*
X116415644Y-40673764D01*
X116405571Y-40666133D01*
X116399498Y-40660932D01*
X116385338Y-40648832D01*
X116369953Y-40635706D01*
X116365508Y-40631727D01*
X116350028Y-40616220D01*
X116332290Y-40596719D01*
X116315318Y-40576500D01*
X116307797Y-40567096D01*
X116293810Y-40549624D01*
X116282605Y-40535647D01*
X116276095Y-40527552D01*
X116272226Y-40521633D01*
X116272521Y-40518210D01*
X116273655Y-40517787D01*
X116270757Y-40514241D01*
X116269229Y-40512564D01*
X116263384Y-40502750D01*
X116255358Y-40486666D01*
X116246418Y-40466783D01*
X116242101Y-40457024D01*
X116233973Y-40440444D01*
X116227584Y-40429760D01*
X116224038Y-40426934D01*
X116222512Y-40427525D01*
X116223602Y-40422092D01*
X116224562Y-40417243D01*
X116221791Y-40410378D01*
X116220356Y-40409841D01*
X116215145Y-40412957D01*
X116212056Y-40420820D01*
X116213233Y-40428810D01*
X116213910Y-40430453D01*
X116210604Y-40433625D01*
X116209005Y-40433801D01*
X116206095Y-40437593D01*
X116205051Y-40441586D01*
X116200173Y-40453190D01*
X116192430Y-40469847D01*
X116183020Y-40489151D01*
X116173141Y-40508698D01*
X116163993Y-40526084D01*
X116156774Y-40538902D01*
X116152682Y-40544750D01*
X116144220Y-40553229D01*
X116135877Y-40565110D01*
X116130123Y-40576514D01*
X116129192Y-40583736D01*
X116130296Y-40586083D01*
X116128391Y-40585913D01*
X116127426Y-40585690D01*
X116120312Y-40589518D01*
X116108660Y-40599129D01*
X116094445Y-40612950D01*
X116087641Y-40619681D01*
X116068747Y-40636454D01*
X116046393Y-40654482D01*
X116022849Y-40672100D01*
X116000383Y-40687646D01*
X115981262Y-40699456D01*
X115967754Y-40705866D01*
X115961584Y-40708207D01*
X115960006Y-40712225D01*
X115503680Y-40712225D01*
X115496970Y-40707518D01*
X115489381Y-40706914D01*
X115487037Y-40707943D01*
X115487239Y-40704698D01*
X115486762Y-40700102D01*
X115478898Y-40695199D01*
X115472126Y-40692473D01*
X115452241Y-40680762D01*
X115425523Y-40661166D01*
X115424341Y-40660215D01*
X115414570Y-40651646D01*
X115400393Y-40638578D01*
X115384449Y-40623434D01*
X115379765Y-40618997D01*
X115365703Y-40606678D01*
X115355043Y-40598825D01*
X115349797Y-40596976D01*
X115348527Y-40597866D01*
X115349128Y-40594883D01*
X115349184Y-40594769D01*
X115347354Y-40588050D01*
X115340055Y-40576049D01*
X115328809Y-40561285D01*
X115328552Y-40560974D01*
X115316888Y-40546215D01*
X115308582Y-40534391D01*
X115305417Y-40528037D01*
X115304764Y-40526163D01*
X115299308Y-40526734D01*
X115296425Y-40528009D01*
X115296853Y-40524597D01*
X115297317Y-40521644D01*
X115294292Y-40511104D01*
X115287087Y-40497426D01*
X115283123Y-40490802D01*
X115276347Y-40477304D01*
X115273667Y-40468438D01*
X115273280Y-40465073D01*
X115269160Y-40457922D01*
X115268168Y-40456727D01*
X115264083Y-40447494D01*
X115258641Y-40431503D01*
X115252741Y-40411307D01*
X115250778Y-40404117D01*
X115245179Y-40383929D01*
X115240657Y-40368092D01*
X115238047Y-40359541D01*
X115237715Y-40358571D01*
X115235365Y-40349299D01*
X115233738Y-40336812D01*
X115232722Y-40319268D01*
X115232203Y-40294826D01*
X115232117Y-40273275D01*
X115424063Y-40273275D01*
X115424599Y-40285944D01*
X115426128Y-40290782D01*
X115427350Y-40292148D01*
X115429374Y-40301126D01*
X115430488Y-40315715D01*
X115431016Y-40323647D01*
X115433498Y-40336601D01*
X115437136Y-40342593D01*
X115439084Y-40343643D01*
X115440075Y-40349410D01*
X115439212Y-40352041D01*
X115441284Y-40360864D01*
X115443050Y-40363834D01*
X115445825Y-40370125D01*
X115446018Y-40371389D01*
X115449264Y-40382310D01*
X115454103Y-40392245D01*
X115458350Y-40396583D01*
X115459959Y-40397163D01*
X115462403Y-40403608D01*
X115462415Y-40403986D01*
X115466188Y-40414182D01*
X115475533Y-40429486D01*
X115488742Y-40447554D01*
X115504107Y-40466040D01*
X115519920Y-40482597D01*
X115528689Y-40490571D01*
X115564241Y-40517082D01*
X115604240Y-40539746D01*
X115644003Y-40555800D01*
X115645020Y-40556114D01*
X115700021Y-40567708D01*
X115754729Y-40568988D01*
X115808200Y-40560200D01*
X115859493Y-40541588D01*
X115907666Y-40513398D01*
X115951776Y-40475873D01*
X115969706Y-40456261D01*
X115992417Y-40426614D01*
X116011261Y-40396354D01*
X116024780Y-40367899D01*
X116031515Y-40343666D01*
X116033484Y-40334081D01*
X116037304Y-40324036D01*
X116037380Y-40323912D01*
X116040030Y-40314252D01*
X116040872Y-40300224D01*
X116041508Y-40284527D01*
X116043937Y-40268348D01*
X116044627Y-40262245D01*
X116397826Y-40262245D01*
X116398734Y-40283026D01*
X116400487Y-40303177D01*
X116403017Y-40319854D01*
X116415803Y-40364414D01*
X116439751Y-40414510D01*
X116472177Y-40459348D01*
X116512277Y-40498030D01*
X116559246Y-40529659D01*
X116612280Y-40553338D01*
X116651532Y-40563911D01*
X116705522Y-40569249D01*
X116759941Y-40564634D01*
X116813437Y-40550211D01*
X116864655Y-40526128D01*
X116887182Y-40510300D01*
X116912663Y-40487911D01*
X116937948Y-40462027D01*
X116960254Y-40435500D01*
X116976800Y-40411182D01*
X116983869Y-40397537D01*
X116995139Y-40370678D01*
X117004760Y-40341870D01*
X117011546Y-40314833D01*
X117014314Y-40293291D01*
X117014982Y-40279933D01*
X117016554Y-40264291D01*
X117017127Y-40254760D01*
X117015662Y-40246167D01*
X117014847Y-40243825D01*
X117013142Y-40232688D01*
X117012130Y-40217063D01*
X117011058Y-40205015D01*
X117007658Y-40186086D01*
X117002755Y-40166562D01*
X116997158Y-40149200D01*
X116991680Y-40136759D01*
X116987130Y-40132000D01*
X116985738Y-40131760D01*
X116985137Y-40127330D01*
X116985262Y-40127094D01*
X116983966Y-40119823D01*
X116977512Y-40109297D01*
X116977241Y-40108951D01*
X116969999Y-40098305D01*
X116967000Y-40091166D01*
X116966997Y-40091062D01*
X116963180Y-40084297D01*
X116953433Y-40072388D01*
X116939611Y-40057243D01*
X116923572Y-40040771D01*
X116907170Y-40024878D01*
X116892262Y-40011472D01*
X116880703Y-40002461D01*
X116858538Y-39988632D01*
X116837017Y-39977305D01*
X116820283Y-39970882D01*
X116810108Y-39970174D01*
X116806503Y-39971025D01*
X116805293Y-39968462D01*
X116805318Y-39968420D01*
X116803153Y-39964227D01*
X116794789Y-39960545D01*
X116784538Y-39958670D01*
X116776709Y-39959891D01*
X116774680Y-39960488D01*
X116769970Y-39956303D01*
X116769060Y-39955040D01*
X116760549Y-39952085D01*
X116742845Y-39950318D01*
X116715278Y-39949656D01*
X116689247Y-39950335D01*
X116663659Y-39952444D01*
X116641051Y-39955646D01*
X116623321Y-39959603D01*
X116612371Y-39963974D01*
X116610100Y-39968422D01*
X116610560Y-39970412D01*
X116605689Y-39970320D01*
X116602764Y-39969763D01*
X116590265Y-39972297D01*
X116573057Y-39979965D01*
X116552892Y-39991493D01*
X116531521Y-40005610D01*
X116510696Y-40021042D01*
X116492167Y-40036516D01*
X116477687Y-40050761D01*
X116469005Y-40062503D01*
X116467874Y-40070470D01*
X116468971Y-40072799D01*
X116467084Y-40072648D01*
X116466943Y-40072532D01*
X116461030Y-40073804D01*
X116452884Y-40081575D01*
X116449049Y-40087001D01*
X116439550Y-40103302D01*
X116429318Y-40123581D01*
X116419870Y-40144560D01*
X116412725Y-40162959D01*
X116409401Y-40175498D01*
X116407890Y-40184179D01*
X116404587Y-40193640D01*
X116402987Y-40198898D01*
X116403270Y-40210503D01*
X116403617Y-40217772D01*
X116400675Y-40224676D01*
X116398831Y-40230179D01*
X116397835Y-40243681D01*
X116397828Y-40256590D01*
X116397826Y-40262245D01*
X116044627Y-40262245D01*
X116045266Y-40256590D01*
X116043497Y-40244536D01*
X116043094Y-40243462D01*
X116040938Y-40231088D01*
X116040656Y-40215343D01*
X116040767Y-40211772D01*
X116039542Y-40200160D01*
X116036238Y-40195500D01*
X116033918Y-40194568D01*
X116033548Y-40188097D01*
X116034209Y-40184424D01*
X116030650Y-40177148D01*
X116028681Y-40175478D01*
X116027625Y-40169211D01*
X116028052Y-40168007D01*
X116026938Y-40159572D01*
X116022614Y-40147726D01*
X116016699Y-40135836D01*
X116010812Y-40127274D01*
X116006573Y-40125408D01*
X116004900Y-40126504D01*
X116005959Y-40122848D01*
X116007154Y-40116241D01*
X116004274Y-40106553D01*
X115998553Y-40099213D01*
X115992251Y-40098273D01*
X115989475Y-40099423D01*
X115990322Y-40095549D01*
X115990634Y-40093920D01*
X115987378Y-40085002D01*
X115979404Y-40071871D01*
X115968581Y-40057138D01*
X115956775Y-40043416D01*
X115945851Y-40033316D01*
X115944999Y-40032667D01*
X115934961Y-40024561D01*
X115922685Y-40014168D01*
X115916878Y-40009650D01*
X115901367Y-39999458D01*
X115882278Y-39988310D01*
X115862715Y-39977898D01*
X115845782Y-39969919D01*
X115834584Y-39966066D01*
X115833710Y-39965905D01*
X115822659Y-39963055D01*
X115808125Y-39958541D01*
X115805740Y-39957747D01*
X115796461Y-39954907D01*
X115787689Y-39953115D01*
X115776651Y-39952085D01*
X115760575Y-39951531D01*
X115736688Y-39951167D01*
X115697587Y-39952168D01*
X115663694Y-39956772D01*
X115639408Y-39964994D01*
X115637443Y-39965998D01*
X115626743Y-39971007D01*
X115621650Y-39972576D01*
X115617735Y-39973739D01*
X115606658Y-39978443D01*
X115591167Y-39985633D01*
X115583342Y-39989599D01*
X115562162Y-40002200D01*
X115541601Y-40016717D01*
X115523356Y-40031688D01*
X115509122Y-40045650D01*
X115500598Y-40057138D01*
X115499480Y-40064691D01*
X115500412Y-40066740D01*
X115497516Y-40066842D01*
X115495758Y-40066713D01*
X115488889Y-40072137D01*
X115479599Y-40083860D01*
X115469293Y-40099508D01*
X115459378Y-40116702D01*
X115451261Y-40133068D01*
X115446347Y-40146229D01*
X115446044Y-40153809D01*
X115446680Y-40155489D01*
X115443000Y-40158458D01*
X115441050Y-40158800D01*
X115440129Y-40163384D01*
X115440853Y-40165526D01*
X115437434Y-40171857D01*
X115435220Y-40174118D01*
X115434471Y-40182636D01*
X115435179Y-40186084D01*
X115432267Y-40192946D01*
X115429268Y-40197058D01*
X115427060Y-40207668D01*
X115426687Y-40217546D01*
X115425816Y-40234861D01*
X115424659Y-40255031D01*
X115424631Y-40255491D01*
X115424063Y-40273275D01*
X115232117Y-40273275D01*
X115232070Y-40261645D01*
X115232100Y-40250460D01*
X115232791Y-40212823D01*
X115234782Y-40182125D01*
X115238585Y-40155489D01*
X115244714Y-40130033D01*
X115253680Y-40102879D01*
X115265999Y-40071145D01*
X115271819Y-40057044D01*
X115285636Y-40026589D01*
X115300063Y-40000253D01*
X115317366Y-39974144D01*
X115339812Y-39944369D01*
X115368192Y-39911063D01*
X115417414Y-39865060D01*
X115472695Y-39826775D01*
X115534928Y-39795624D01*
X115605010Y-39771022D01*
X115620940Y-39766714D01*
X115637066Y-39763355D01*
X115654347Y-39761139D01*
X115675141Y-39759857D01*
X115701803Y-39759298D01*
X115736688Y-39759252D01*
X115748605Y-39759304D01*
X115779872Y-39759657D01*
X115803730Y-39760495D01*
X115822584Y-39762077D01*
X115838842Y-39764658D01*
X115854908Y-39768497D01*
X115873190Y-39773850D01*
X115925532Y-39792789D01*
X115984033Y-39821302D01*
X116036584Y-39855214D01*
X116081082Y-39893317D01*
X116102684Y-39914932D01*
X116102248Y-39400372D01*
X116101813Y-38885812D01*
X115751240Y-38885151D01*
X115724218Y-38885098D01*
X115665519Y-38884969D01*
X115610334Y-38884830D01*
X115559545Y-38884683D01*
X115514036Y-38884531D01*
X115474692Y-38884379D01*
X115442396Y-38884230D01*
X115418032Y-38884085D01*
X115402484Y-38883950D01*
X115396635Y-38883828D01*
X115396247Y-38881790D01*
X115395656Y-38870742D01*
X115395117Y-38851284D01*
X115394635Y-38824759D01*
X115394215Y-38792509D01*
X115393864Y-38755878D01*
X115393588Y-38716208D01*
X115393391Y-38674842D01*
X115393281Y-38633122D01*
X115393263Y-38592391D01*
X115393343Y-38553993D01*
X115393526Y-38519269D01*
X115393818Y-38489562D01*
X115394226Y-38466216D01*
X115394755Y-38450572D01*
X115395375Y-38438666D01*
X115686417Y-38438666D01*
X115687022Y-38453218D01*
X115687083Y-38455123D01*
X115687312Y-38467555D01*
X115687576Y-38488212D01*
X115687856Y-38515296D01*
X115688133Y-38547005D01*
X115688387Y-38581541D01*
X115689147Y-38695312D01*
X115842565Y-38698226D01*
X115843281Y-38590936D01*
X115843307Y-38587149D01*
X115843560Y-38553059D01*
X115843835Y-38521388D01*
X115844111Y-38494176D01*
X115844367Y-38473466D01*
X115844582Y-38461297D01*
X115845167Y-38438949D01*
X115923219Y-38437485D01*
X116001271Y-38436020D01*
X116001640Y-38360381D01*
X116002009Y-38284741D01*
X115926576Y-38285498D01*
X115916469Y-38285575D01*
X115890247Y-38285527D01*
X115868529Y-38285135D01*
X115853341Y-38284447D01*
X115846709Y-38283515D01*
X115845751Y-38279757D01*
X115844659Y-38266640D01*
X115843751Y-38245545D01*
X115843071Y-38217931D01*
X115842665Y-38185258D01*
X115842577Y-38148984D01*
X115842880Y-38017193D01*
X115765972Y-38017586D01*
X115689063Y-38017979D01*
X115688979Y-38147625D01*
X115688891Y-38174103D01*
X115688556Y-38207905D01*
X115688010Y-38237166D01*
X115687291Y-38260376D01*
X115686439Y-38276025D01*
X115685492Y-38282601D01*
X115684269Y-38283151D01*
X115674543Y-38284370D01*
X115656612Y-38285404D01*
X115632166Y-38286244D01*
X115602891Y-38286883D01*
X115570478Y-38287314D01*
X115536613Y-38287530D01*
X115502985Y-38287522D01*
X115471283Y-38287283D01*
X115443195Y-38286807D01*
X115420409Y-38286084D01*
X115404614Y-38285109D01*
X115397498Y-38283874D01*
X115397121Y-38282653D01*
X115396309Y-38272825D01*
X115395578Y-38254254D01*
X115394936Y-38228221D01*
X115394390Y-38196006D01*
X115393947Y-38158892D01*
X115393614Y-38118160D01*
X115393399Y-38075092D01*
X115393309Y-38030969D01*
X115393351Y-37987072D01*
X115393533Y-37944684D01*
X115393861Y-37905086D01*
X115394342Y-37869559D01*
X115394985Y-37839385D01*
X115395375Y-37824833D01*
X115951000Y-37824833D01*
X115951530Y-37849968D01*
X115951726Y-37862043D01*
X115951940Y-37885243D01*
X115951997Y-37908177D01*
X115951936Y-37941250D01*
X116104459Y-37941250D01*
X116104459Y-37740166D01*
X116326709Y-37740166D01*
X116327091Y-37760010D01*
X116327111Y-37762320D01*
X116327152Y-37774619D01*
X116327195Y-37796736D01*
X116327240Y-37828160D01*
X116327286Y-37868381D01*
X116327333Y-37916890D01*
X116327382Y-37973175D01*
X116327430Y-38036727D01*
X116327479Y-38107036D01*
X116327528Y-38183591D01*
X116327576Y-38265882D01*
X116327623Y-38353399D01*
X116327669Y-38445632D01*
X116327713Y-38542070D01*
X116327755Y-38642204D01*
X116327795Y-38745522D01*
X116327833Y-38851516D01*
X116328191Y-39923179D01*
X116360523Y-39892238D01*
X116392466Y-39864254D01*
X116451272Y-39823839D01*
X116515994Y-39791977D01*
X116586000Y-39769016D01*
X116603937Y-39765037D01*
X116623749Y-39762121D01*
X116646931Y-39760316D01*
X116675881Y-39759438D01*
X116713000Y-39759303D01*
X116718254Y-39759327D01*
X116750754Y-39759662D01*
X116775505Y-39760472D01*
X116794995Y-39762027D01*
X116811713Y-39764600D01*
X116828146Y-39768461D01*
X116846784Y-39773881D01*
X116894110Y-39790715D01*
X116959782Y-39822785D01*
X117019480Y-39862851D01*
X117072317Y-39910286D01*
X117117408Y-39964469D01*
X117122745Y-39972199D01*
X117143425Y-40006386D01*
X117163157Y-40044965D01*
X117179947Y-40083804D01*
X117191805Y-40118770D01*
X117196005Y-40133698D01*
X117200604Y-40149319D01*
X117203553Y-40158458D01*
X117204367Y-40161199D01*
X117206616Y-40175431D01*
X117208470Y-40196587D01*
X117209866Y-40222169D01*
X117210743Y-40249682D01*
X117210799Y-40254760D01*
X117211037Y-40276629D01*
X117210688Y-40300514D01*
X117209632Y-40318841D01*
X117207807Y-40329114D01*
X117206277Y-40334793D01*
X117206841Y-40345795D01*
X117207744Y-40349330D01*
X117206372Y-40356531D01*
X117205402Y-40357703D01*
X117201754Y-40366309D01*
X117196983Y-40386874D01*
X117189683Y-40408933D01*
X117186483Y-40420832D01*
X117186879Y-40428777D01*
X117187617Y-40430374D01*
X117185431Y-40433625D01*
X117184054Y-40434073D01*
X117178901Y-40440845D01*
X117174092Y-40452384D01*
X117171178Y-40464313D01*
X117171714Y-40472259D01*
X117172608Y-40474237D01*
X117169640Y-40474274D01*
X117167410Y-40474388D01*
X117161242Y-40480799D01*
X117154412Y-40493300D01*
X117149656Y-40502663D01*
X117140040Y-40518977D01*
X117128028Y-40537763D01*
X117115193Y-40556717D01*
X117103107Y-40573529D01*
X117093343Y-40585894D01*
X117087473Y-40591504D01*
X117086348Y-40592299D01*
X117086423Y-40598249D01*
X117087230Y-40599966D01*
X117084941Y-40601766D01*
X117084046Y-40601721D01*
X117076835Y-40605664D01*
X117066126Y-40614636D01*
X117054235Y-40626263D01*
X117043477Y-40638173D01*
X117036166Y-40647991D01*
X117034620Y-40653346D01*
X117035704Y-40654916D01*
X117032445Y-40654149D01*
X117028198Y-40654104D01*
X117017535Y-40658638D01*
X117004800Y-40666896D01*
X116993459Y-40676859D01*
X116992256Y-40678008D01*
X116981712Y-40685094D01*
X116962459Y-40695432D01*
X116933928Y-40709332D01*
X116930966Y-40710747D01*
X116927186Y-40712679D01*
X116914352Y-40719240D01*
X116902641Y-40726171D01*
G36*
X113405709Y-41142708D02*
G01*
X113284000Y-41142708D01*
X113284000Y-40941625D01*
X113130542Y-40941625D01*
X113130542Y-40819916D01*
X113284000Y-40819916D01*
X113284000Y-40745833D01*
X113093500Y-40745833D01*
X113093500Y-40624125D01*
X113405709Y-40624125D01*
X113405709Y-41142708D01*
G37*
X113405709Y-41142708D02*
X113284000Y-41142708D01*
X113284000Y-40941625D01*
X113130542Y-40941625D01*
X113130542Y-40819916D01*
X113284000Y-40819916D01*
X113284000Y-40745833D01*
X113093500Y-40745833D01*
X113093500Y-40624125D01*
X113405709Y-40624125D01*
X113405709Y-41142708D01*
G36*
X113389834Y-40375416D02*
G01*
X112649000Y-40375416D01*
X112649000Y-36946416D01*
X113389834Y-36946416D01*
X113389834Y-40375416D01*
G37*
X113389834Y-40375416D02*
X112649000Y-40375416D01*
X112649000Y-36946416D01*
X113389834Y-36946416D01*
X113389834Y-40375416D01*
G36*
X113289292Y-41793583D02*
G01*
X113289292Y-41730083D01*
X113289281Y-41723789D01*
X113288846Y-41696960D01*
X113287683Y-41679270D01*
X113285669Y-41669520D01*
X113282678Y-41666511D01*
X113277456Y-41666028D01*
X113265480Y-41663622D01*
X113263331Y-41663311D01*
X113258122Y-41664984D01*
X113251690Y-41670973D01*
X113243058Y-41682514D01*
X113231251Y-41700843D01*
X113215293Y-41727194D01*
X113175690Y-41793583D01*
X113105491Y-41793583D01*
X113099210Y-41793574D01*
X113074163Y-41793361D01*
X113053865Y-41792902D01*
X113040260Y-41792256D01*
X113035292Y-41791482D01*
X113037869Y-41786575D01*
X113045105Y-41774069D01*
X113056142Y-41755419D01*
X113070121Y-41732077D01*
X113086182Y-41705492D01*
X113101901Y-41679469D01*
X113116398Y-41655242D01*
X113128135Y-41635386D01*
X113136196Y-41621455D01*
X113139660Y-41615003D01*
X113139520Y-41611628D01*
X113134537Y-41601407D01*
X113125023Y-41588786D01*
X113124786Y-41588515D01*
X113100357Y-41553146D01*
X113085794Y-41514027D01*
X113080968Y-41470816D01*
X113080969Y-41470791D01*
X113199334Y-41470791D01*
X113200963Y-41481208D01*
X113210157Y-41499958D01*
X113225275Y-41517162D01*
X113243808Y-41529508D01*
X113249129Y-41531782D01*
X113265198Y-41537231D01*
X113277386Y-41539467D01*
X113278442Y-41539472D01*
X113282962Y-41538944D01*
X113286011Y-41536248D01*
X113287880Y-41529702D01*
X113288857Y-41517622D01*
X113289232Y-41498326D01*
X113289292Y-41470130D01*
X113289292Y-41400677D01*
X113272995Y-41403936D01*
X113265278Y-41405745D01*
X113239060Y-41416325D01*
X113218160Y-41431754D01*
X113204333Y-41450441D01*
X113199334Y-41470791D01*
X113080969Y-41470791D01*
X113081330Y-41452893D01*
X113083583Y-41433972D01*
X113088971Y-41416413D01*
X113098709Y-41395034D01*
X113103677Y-41385518D01*
X113127842Y-41351115D01*
X113159279Y-41322834D01*
X113199334Y-41299396D01*
X113209586Y-41294580D01*
X113221246Y-41289761D01*
X113232709Y-41286415D01*
X113246133Y-41284216D01*
X113263672Y-41282840D01*
X113287482Y-41281962D01*
X113319719Y-41281258D01*
X113405709Y-41279579D01*
X113405709Y-41793583D01*
X113289292Y-41793583D01*
G37*
X113289292Y-41793583D02*
X113289292Y-41730083D01*
X113289281Y-41723789D01*
X113288846Y-41696960D01*
X113287683Y-41679270D01*
X113285669Y-41669520D01*
X113282678Y-41666511D01*
X113277456Y-41666028D01*
X113265480Y-41663622D01*
X113263331Y-41663311D01*
X113258122Y-41664984D01*
X113251690Y-41670973D01*
X113243058Y-41682514D01*
X113231251Y-41700843D01*
X113215293Y-41727194D01*
X113175690Y-41793583D01*
X113105491Y-41793583D01*
X113099210Y-41793574D01*
X113074163Y-41793361D01*
X113053865Y-41792902D01*
X113040260Y-41792256D01*
X113035292Y-41791482D01*
X113037869Y-41786575D01*
X113045105Y-41774069D01*
X113056142Y-41755419D01*
X113070121Y-41732077D01*
X113086182Y-41705492D01*
X113101901Y-41679469D01*
X113116398Y-41655242D01*
X113128135Y-41635386D01*
X113136196Y-41621455D01*
X113139660Y-41615003D01*
X113139520Y-41611628D01*
X113134537Y-41601407D01*
X113125023Y-41588786D01*
X113124786Y-41588515D01*
X113100357Y-41553146D01*
X113085794Y-41514027D01*
X113080968Y-41470816D01*
X113080969Y-41470791D01*
X113199334Y-41470791D01*
X113200963Y-41481208D01*
X113210157Y-41499958D01*
X113225275Y-41517162D01*
X113243808Y-41529508D01*
X113249129Y-41531782D01*
X113265198Y-41537231D01*
X113277386Y-41539467D01*
X113278442Y-41539472D01*
X113282962Y-41538944D01*
X113286011Y-41536248D01*
X113287880Y-41529702D01*
X113288857Y-41517622D01*
X113289232Y-41498326D01*
X113289292Y-41470130D01*
X113289292Y-41400677D01*
X113272995Y-41403936D01*
X113265278Y-41405745D01*
X113239060Y-41416325D01*
X113218160Y-41431754D01*
X113204333Y-41450441D01*
X113199334Y-41470791D01*
X113080969Y-41470791D01*
X113081330Y-41452893D01*
X113083583Y-41433972D01*
X113088971Y-41416413D01*
X113098709Y-41395034D01*
X113103677Y-41385518D01*
X113127842Y-41351115D01*
X113159279Y-41322834D01*
X113199334Y-41299396D01*
X113209586Y-41294580D01*
X113221246Y-41289761D01*
X113232709Y-41286415D01*
X113246133Y-41284216D01*
X113263672Y-41282840D01*
X113287482Y-41281962D01*
X113319719Y-41281258D01*
X113405709Y-41279579D01*
X113405709Y-41793583D01*
X113289292Y-41793583D01*
G36*
X107748917Y-40745833D02*
G01*
X107653667Y-40745833D01*
X107653667Y-41142708D01*
X107526667Y-41142708D01*
X107526667Y-40745833D01*
X107431417Y-40745833D01*
X107431417Y-40618833D01*
X107748917Y-40618833D01*
X107748917Y-40745833D01*
G37*
X107748917Y-40745833D02*
X107653667Y-40745833D01*
X107653667Y-41142708D01*
X107526667Y-41142708D01*
X107526667Y-40745833D01*
X107431417Y-40745833D01*
X107431417Y-40618833D01*
X107748917Y-40618833D01*
X107748917Y-40745833D01*
G36*
X110902750Y-41396708D02*
G01*
X110807500Y-41396708D01*
X110807500Y-41793583D01*
X110685792Y-41793583D01*
X110685792Y-41396708D01*
X110590542Y-41396708D01*
X110590542Y-41275000D01*
X110902750Y-41275000D01*
X110902750Y-41396708D01*
G37*
X110902750Y-41396708D02*
X110807500Y-41396708D01*
X110807500Y-41793583D01*
X110685792Y-41793583D01*
X110685792Y-41396708D01*
X110590542Y-41396708D01*
X110590542Y-41275000D01*
X110902750Y-41275000D01*
X110902750Y-41396708D01*
G36*
X112119834Y-41793583D02*
G01*
X111998125Y-41793583D01*
X111998125Y-41275000D01*
X112119834Y-41275000D01*
X112119834Y-41793583D01*
G37*
X112119834Y-41793583D02*
X111998125Y-41793583D01*
X111998125Y-41275000D01*
X112119834Y-41275000D01*
X112119834Y-41793583D01*
G36*
X109807375Y-40745833D02*
G01*
X109706834Y-40745833D01*
X109706834Y-41142708D01*
X109585125Y-41142708D01*
X109585125Y-40745833D01*
X109484584Y-40745833D01*
X109484584Y-40618833D01*
X109807375Y-40618833D01*
X109807375Y-40745833D01*
G37*
X109807375Y-40745833D02*
X109706834Y-40745833D01*
X109706834Y-41142708D01*
X109585125Y-41142708D01*
X109585125Y-40745833D01*
X109484584Y-40745833D01*
X109484584Y-40618833D01*
X109807375Y-40618833D01*
X109807375Y-40745833D01*
G36*
X109167104Y-40794781D02*
G01*
X109167105Y-40803228D01*
X109167158Y-40848865D01*
X109167333Y-40885301D01*
X109167695Y-40913721D01*
X109168308Y-40935313D01*
X109169240Y-40951263D01*
X109170555Y-40962758D01*
X109172318Y-40970984D01*
X109174596Y-40977129D01*
X109177453Y-40982378D01*
X109190674Y-40998131D01*
X109213378Y-41011205D01*
X109241411Y-41015708D01*
X109256541Y-41014334D01*
X109281512Y-41004379D01*
X109302021Y-40984834D01*
X109303041Y-40983434D01*
X109305754Y-40978875D01*
X109307922Y-40972988D01*
X109309620Y-40964617D01*
X109310924Y-40952604D01*
X109311907Y-40935794D01*
X109312644Y-40913027D01*
X109313212Y-40883149D01*
X109313683Y-40845001D01*
X109314133Y-40797427D01*
X109315661Y-40624125D01*
X109436959Y-40624125D01*
X109436902Y-40800072D01*
X109436894Y-40813680D01*
X109436768Y-40863410D01*
X109436360Y-40904107D01*
X109435504Y-40937019D01*
X109434036Y-40963392D01*
X109431787Y-40984474D01*
X109428592Y-41001511D01*
X109424284Y-41015751D01*
X109418698Y-41028440D01*
X109411667Y-41040825D01*
X109403024Y-41054154D01*
X109388807Y-41072942D01*
X109356283Y-41103052D01*
X109317638Y-41124720D01*
X109273602Y-41137475D01*
X109260909Y-41139219D01*
X109218234Y-41138525D01*
X109176403Y-41128487D01*
X109137357Y-41109952D01*
X109103036Y-41083770D01*
X109075383Y-41050791D01*
X109070418Y-41043191D01*
X109063082Y-41031408D01*
X109057191Y-41020292D01*
X109052574Y-41008592D01*
X109049055Y-40995059D01*
X109046461Y-40978443D01*
X109044619Y-40957493D01*
X109043354Y-40930960D01*
X109042494Y-40897594D01*
X109041865Y-40856146D01*
X109041293Y-40805364D01*
X109039341Y-40624125D01*
X109167084Y-40624125D01*
X109167104Y-40794781D01*
G37*
X109167104Y-40794781D02*
X109167105Y-40803228D01*
X109167158Y-40848865D01*
X109167333Y-40885301D01*
X109167695Y-40913721D01*
X109168308Y-40935313D01*
X109169240Y-40951263D01*
X109170555Y-40962758D01*
X109172318Y-40970984D01*
X109174596Y-40977129D01*
X109177453Y-40982378D01*
X109190674Y-40998131D01*
X109213378Y-41011205D01*
X109241411Y-41015708D01*
X109256541Y-41014334D01*
X109281512Y-41004379D01*
X109302021Y-40984834D01*
X109303041Y-40983434D01*
X109305754Y-40978875D01*
X109307922Y-40972988D01*
X109309620Y-40964617D01*
X109310924Y-40952604D01*
X109311907Y-40935794D01*
X109312644Y-40913027D01*
X109313212Y-40883149D01*
X109313683Y-40845001D01*
X109314133Y-40797427D01*
X109315661Y-40624125D01*
X109436959Y-40624125D01*
X109436902Y-40800072D01*
X109436894Y-40813680D01*
X109436768Y-40863410D01*
X109436360Y-40904107D01*
X109435504Y-40937019D01*
X109434036Y-40963392D01*
X109431787Y-40984474D01*
X109428592Y-41001511D01*
X109424284Y-41015751D01*
X109418698Y-41028440D01*
X109411667Y-41040825D01*
X109403024Y-41054154D01*
X109388807Y-41072942D01*
X109356283Y-41103052D01*
X109317638Y-41124720D01*
X109273602Y-41137475D01*
X109260909Y-41139219D01*
X109218234Y-41138525D01*
X109176403Y-41128487D01*
X109137357Y-41109952D01*
X109103036Y-41083770D01*
X109075383Y-41050791D01*
X109070418Y-41043191D01*
X109063082Y-41031408D01*
X109057191Y-41020292D01*
X109052574Y-41008592D01*
X109049055Y-40995059D01*
X109046461Y-40978443D01*
X109044619Y-40957493D01*
X109043354Y-40930960D01*
X109042494Y-40897594D01*
X109041865Y-40856146D01*
X109041293Y-40805364D01*
X109039341Y-40624125D01*
X109167084Y-40624125D01*
X109167104Y-40794781D01*
G36*
X110165579Y-41675204D02*
G01*
X110177743Y-41711759D01*
X110187884Y-41742195D01*
X110195675Y-41765529D01*
X110200788Y-41780781D01*
X110202898Y-41786968D01*
X110202982Y-41788323D01*
X110199078Y-41790828D01*
X110188385Y-41792449D01*
X110169642Y-41793322D01*
X110141587Y-41793583D01*
X110077791Y-41793583D01*
X110068575Y-41764346D01*
X110059359Y-41735110D01*
X109979711Y-41736565D01*
X109900062Y-41738020D01*
X109892641Y-41765802D01*
X109885219Y-41793583D01*
X109639108Y-41793583D01*
X109635290Y-41726114D01*
X109633666Y-41699168D01*
X109631699Y-41669801D01*
X109629775Y-41643935D01*
X109628142Y-41625106D01*
X109624813Y-41591566D01*
X109591296Y-41692739D01*
X109557779Y-41793911D01*
X109435179Y-41790937D01*
X109369787Y-41595145D01*
X109366111Y-41671875D01*
X109365702Y-41680171D01*
X109364093Y-41709459D01*
X109362387Y-41736148D01*
X109360766Y-41757579D01*
X109359408Y-41771093D01*
X109356382Y-41793583D01*
X109241167Y-41793583D01*
X109241215Y-41765802D01*
X109241291Y-41761702D01*
X109241888Y-41745911D01*
X109243022Y-41721431D01*
X109244626Y-41689532D01*
X109246636Y-41651481D01*
X109248983Y-41608550D01*
X109251603Y-41562008D01*
X109254427Y-41513125D01*
X109256004Y-41486152D01*
X109258694Y-41439886D01*
X109261148Y-41397423D01*
X109263300Y-41359892D01*
X109265086Y-41328419D01*
X109266442Y-41304130D01*
X109267305Y-41288153D01*
X109267609Y-41281614D01*
X109267676Y-41281083D01*
X109271605Y-41278236D01*
X109282460Y-41276381D01*
X109301455Y-41275389D01*
X109329803Y-41275136D01*
X109391980Y-41275272D01*
X109444532Y-41434470D01*
X109497085Y-41593669D01*
X109536232Y-41477991D01*
X109540484Y-41465425D01*
X109552714Y-41429288D01*
X109564484Y-41394508D01*
X109575062Y-41363251D01*
X109583714Y-41337686D01*
X109589708Y-41319979D01*
X109604037Y-41277645D01*
X109665552Y-41276159D01*
X109727067Y-41274672D01*
X109730324Y-41313200D01*
X109730484Y-41315148D01*
X109731654Y-41330947D01*
X109733359Y-41355626D01*
X109735507Y-41387777D01*
X109738005Y-41425993D01*
X109740761Y-41468868D01*
X109743684Y-41514996D01*
X109746680Y-41562968D01*
X109747678Y-41578973D01*
X109750552Y-41624121D01*
X109753273Y-41665499D01*
X109755761Y-41701974D01*
X109757935Y-41732415D01*
X109759716Y-41755688D01*
X109761022Y-41770662D01*
X109761775Y-41776204D01*
X109764228Y-41773293D01*
X109767362Y-41763402D01*
X109767490Y-41762895D01*
X109770307Y-41753063D01*
X109775819Y-41734751D01*
X109783578Y-41709411D01*
X109793139Y-41678494D01*
X109804054Y-41643449D01*
X109815878Y-41605729D01*
X109816690Y-41603146D01*
X109944959Y-41603146D01*
X109949289Y-41605704D01*
X109961644Y-41607639D01*
X109979355Y-41608375D01*
X109996295Y-41607830D01*
X110008924Y-41606327D01*
X110013750Y-41604203D01*
X110012865Y-41600277D01*
X110009194Y-41587896D01*
X110003330Y-41569480D01*
X109995989Y-41547318D01*
X109978228Y-41494604D01*
X109961594Y-41546261D01*
X109956713Y-41561647D01*
X109950649Y-41581546D01*
X109946498Y-41596176D01*
X109944959Y-41603146D01*
X109816690Y-41603146D01*
X109838608Y-41533422D01*
X109858277Y-41470809D01*
X109874925Y-41417766D01*
X109888634Y-41374029D01*
X109899485Y-41339336D01*
X109907562Y-41313426D01*
X109912945Y-41296037D01*
X109915718Y-41286906D01*
X109916494Y-41284482D01*
X109919121Y-41280024D01*
X109924400Y-41277238D01*
X109934313Y-41275733D01*
X109950845Y-41275118D01*
X109975976Y-41275000D01*
X110032739Y-41275000D01*
X110116576Y-41527677D01*
X110120212Y-41538635D01*
X110136487Y-41587660D01*
X110141983Y-41604203D01*
X110151718Y-41633511D01*
X110165579Y-41675204D01*
G37*
X110165579Y-41675204D02*
X110177743Y-41711759D01*
X110187884Y-41742195D01*
X110195675Y-41765529D01*
X110200788Y-41780781D01*
X110202898Y-41786968D01*
X110202982Y-41788323D01*
X110199078Y-41790828D01*
X110188385Y-41792449D01*
X110169642Y-41793322D01*
X110141587Y-41793583D01*
X110077791Y-41793583D01*
X110068575Y-41764346D01*
X110059359Y-41735110D01*
X109979711Y-41736565D01*
X109900062Y-41738020D01*
X109892641Y-41765802D01*
X109885219Y-41793583D01*
X109639108Y-41793583D01*
X109635290Y-41726114D01*
X109633666Y-41699168D01*
X109631699Y-41669801D01*
X109629775Y-41643935D01*
X109628142Y-41625106D01*
X109624813Y-41591566D01*
X109591296Y-41692739D01*
X109557779Y-41793911D01*
X109435179Y-41790937D01*
X109369787Y-41595145D01*
X109366111Y-41671875D01*
X109365702Y-41680171D01*
X109364093Y-41709459D01*
X109362387Y-41736148D01*
X109360766Y-41757579D01*
X109359408Y-41771093D01*
X109356382Y-41793583D01*
X109241167Y-41793583D01*
X109241215Y-41765802D01*
X109241291Y-41761702D01*
X109241888Y-41745911D01*
X109243022Y-41721431D01*
X109244626Y-41689532D01*
X109246636Y-41651481D01*
X109248983Y-41608550D01*
X109251603Y-41562008D01*
X109254427Y-41513125D01*
X109256004Y-41486152D01*
X109258694Y-41439886D01*
X109261148Y-41397423D01*
X109263300Y-41359892D01*
X109265086Y-41328419D01*
X109266442Y-41304130D01*
X109267305Y-41288153D01*
X109267609Y-41281614D01*
X109267676Y-41281083D01*
X109271605Y-41278236D01*
X109282460Y-41276381D01*
X109301455Y-41275389D01*
X109329803Y-41275136D01*
X109391980Y-41275272D01*
X109444532Y-41434470D01*
X109497085Y-41593669D01*
X109536232Y-41477991D01*
X109540484Y-41465425D01*
X109552714Y-41429288D01*
X109564484Y-41394508D01*
X109575062Y-41363251D01*
X109583714Y-41337686D01*
X109589708Y-41319979D01*
X109604037Y-41277645D01*
X109665552Y-41276159D01*
X109727067Y-41274672D01*
X109730324Y-41313200D01*
X109730484Y-41315148D01*
X109731654Y-41330947D01*
X109733359Y-41355626D01*
X109735507Y-41387777D01*
X109738005Y-41425993D01*
X109740761Y-41468868D01*
X109743684Y-41514996D01*
X109746680Y-41562968D01*
X109747678Y-41578973D01*
X109750552Y-41624121D01*
X109753273Y-41665499D01*
X109755761Y-41701974D01*
X109757935Y-41732415D01*
X109759716Y-41755688D01*
X109761022Y-41770662D01*
X109761775Y-41776204D01*
X109764228Y-41773293D01*
X109767362Y-41763402D01*
X109767490Y-41762895D01*
X109770307Y-41753063D01*
X109775819Y-41734751D01*
X109783578Y-41709411D01*
X109793139Y-41678494D01*
X109804054Y-41643449D01*
X109815878Y-41605729D01*
X109816690Y-41603146D01*
X109944959Y-41603146D01*
X109949289Y-41605704D01*
X109961644Y-41607639D01*
X109979355Y-41608375D01*
X109996295Y-41607830D01*
X110008924Y-41606327D01*
X110013750Y-41604203D01*
X110012865Y-41600277D01*
X110009194Y-41587896D01*
X110003330Y-41569480D01*
X109995989Y-41547318D01*
X109978228Y-41494604D01*
X109961594Y-41546261D01*
X109956713Y-41561647D01*
X109950649Y-41581546D01*
X109946498Y-41596176D01*
X109944959Y-41603146D01*
X109816690Y-41603146D01*
X109838608Y-41533422D01*
X109858277Y-41470809D01*
X109874925Y-41417766D01*
X109888634Y-41374029D01*
X109899485Y-41339336D01*
X109907562Y-41313426D01*
X109912945Y-41296037D01*
X109915718Y-41286906D01*
X109916494Y-41284482D01*
X109919121Y-41280024D01*
X109924400Y-41277238D01*
X109934313Y-41275733D01*
X109950845Y-41275118D01*
X109975976Y-41275000D01*
X110032739Y-41275000D01*
X110116576Y-41527677D01*
X110120212Y-41538635D01*
X110136487Y-41587660D01*
X110141983Y-41604203D01*
X110151718Y-41633511D01*
X110165579Y-41675204D01*
G36*
X118237000Y-40732604D02*
G01*
X118234355Y-40735250D01*
X118231709Y-40732604D01*
X118234355Y-40729958D01*
X118237000Y-40732604D01*
G37*
X118237000Y-40732604D02*
X118234355Y-40735250D01*
X118231709Y-40732604D01*
X118234355Y-40729958D01*
X118237000Y-40732604D01*
G36*
X112405584Y-41142708D02*
G01*
X112405584Y-41010416D01*
X112388386Y-41010448D01*
X112386952Y-41010462D01*
X112380140Y-41011236D01*
X112373932Y-41014191D01*
X112367109Y-41020700D01*
X112358450Y-41032134D01*
X112346734Y-41049867D01*
X112330741Y-41075271D01*
X112290294Y-41140062D01*
X112218293Y-41141534D01*
X112210450Y-41141678D01*
X112185260Y-41141900D01*
X112164891Y-41141714D01*
X112151262Y-41141152D01*
X112146292Y-41140250D01*
X112146389Y-41139934D01*
X112150016Y-41133296D01*
X112158273Y-41119350D01*
X112170313Y-41099492D01*
X112185294Y-41075116D01*
X112202370Y-41047616D01*
X112258447Y-40957739D01*
X112239436Y-40935530D01*
X112236050Y-40931521D01*
X112216777Y-40905257D01*
X112204660Y-40879908D01*
X112198365Y-40851803D01*
X112196563Y-40817270D01*
X112196566Y-40816746D01*
X112318223Y-40816746D01*
X112322495Y-40837919D01*
X112335731Y-40857417D01*
X112357959Y-40873383D01*
X112359676Y-40874240D01*
X112376298Y-40881448D01*
X112391032Y-40886324D01*
X112405584Y-40889855D01*
X112405584Y-40820490D01*
X112405583Y-40814469D01*
X112405486Y-40788085D01*
X112405020Y-40770285D01*
X112403895Y-40759385D01*
X112401823Y-40753700D01*
X112398514Y-40751547D01*
X112393678Y-40751241D01*
X112390102Y-40751573D01*
X112375914Y-40755157D01*
X112359694Y-40761381D01*
X112358901Y-40761745D01*
X112336455Y-40776802D01*
X112322886Y-40795754D01*
X112318223Y-40816746D01*
X112196566Y-40816746D01*
X112196626Y-40805068D01*
X112197450Y-40784680D01*
X112199815Y-40769680D01*
X112204448Y-40756517D01*
X112212077Y-40741643D01*
X112218067Y-40731437D01*
X112247529Y-40693647D01*
X112283773Y-40663772D01*
X112326107Y-40642292D01*
X112373834Y-40629690D01*
X112387514Y-40627993D01*
X112412627Y-40626027D01*
X112441560Y-40624676D01*
X112470407Y-40624164D01*
X112532584Y-40624125D01*
X112532584Y-41142708D01*
X112405584Y-41142708D01*
G37*
X112405584Y-41142708D02*
X112405584Y-41010416D01*
X112388386Y-41010448D01*
X112386952Y-41010462D01*
X112380140Y-41011236D01*
X112373932Y-41014191D01*
X112367109Y-41020700D01*
X112358450Y-41032134D01*
X112346734Y-41049867D01*
X112330741Y-41075271D01*
X112290294Y-41140062D01*
X112218293Y-41141534D01*
X112210450Y-41141678D01*
X112185260Y-41141900D01*
X112164891Y-41141714D01*
X112151262Y-41141152D01*
X112146292Y-41140250D01*
X112146389Y-41139934D01*
X112150016Y-41133296D01*
X112158273Y-41119350D01*
X112170313Y-41099492D01*
X112185294Y-41075116D01*
X112202370Y-41047616D01*
X112258447Y-40957739D01*
X112239436Y-40935530D01*
X112236050Y-40931521D01*
X112216777Y-40905257D01*
X112204660Y-40879908D01*
X112198365Y-40851803D01*
X112196563Y-40817270D01*
X112196566Y-40816746D01*
X112318223Y-40816746D01*
X112322495Y-40837919D01*
X112335731Y-40857417D01*
X112357959Y-40873383D01*
X112359676Y-40874240D01*
X112376298Y-40881448D01*
X112391032Y-40886324D01*
X112405584Y-40889855D01*
X112405584Y-40820490D01*
X112405583Y-40814469D01*
X112405486Y-40788085D01*
X112405020Y-40770285D01*
X112403895Y-40759385D01*
X112401823Y-40753700D01*
X112398514Y-40751547D01*
X112393678Y-40751241D01*
X112390102Y-40751573D01*
X112375914Y-40755157D01*
X112359694Y-40761381D01*
X112358901Y-40761745D01*
X112336455Y-40776802D01*
X112322886Y-40795754D01*
X112318223Y-40816746D01*
X112196566Y-40816746D01*
X112196626Y-40805068D01*
X112197450Y-40784680D01*
X112199815Y-40769680D01*
X112204448Y-40756517D01*
X112212077Y-40741643D01*
X112218067Y-40731437D01*
X112247529Y-40693647D01*
X112283773Y-40663772D01*
X112326107Y-40642292D01*
X112373834Y-40629690D01*
X112387514Y-40627993D01*
X112412627Y-40626027D01*
X112441560Y-40624676D01*
X112470407Y-40624164D01*
X112532584Y-40624125D01*
X112532584Y-41142708D01*
X112405584Y-41142708D01*
G36*
X111103834Y-41142708D02*
G01*
X110791625Y-41142708D01*
X110791625Y-41021000D01*
X110976834Y-41021000D01*
X110976834Y-40624125D01*
X111103834Y-40624125D01*
X111103834Y-41142708D01*
G37*
X111103834Y-41142708D02*
X110791625Y-41142708D01*
X110791625Y-41021000D01*
X110976834Y-41021000D01*
X110976834Y-40624125D01*
X111103834Y-40624125D01*
X111103834Y-41142708D01*
G36*
X110029782Y-40616100D02*
G01*
X110058294Y-40620171D01*
X110080513Y-40627878D01*
X110109882Y-40646476D01*
X110131933Y-40668058D01*
X110148548Y-40694803D01*
X110161268Y-40728776D01*
X110165880Y-40766879D01*
X110160042Y-40804818D01*
X110149593Y-40832510D01*
X110130970Y-40861763D01*
X110105139Y-40886091D01*
X110071042Y-40906444D01*
X110027625Y-40923770D01*
X110010297Y-40930117D01*
X109982180Y-40944187D01*
X109964044Y-40959523D01*
X109956037Y-40975894D01*
X109958310Y-40993070D01*
X109971010Y-41010823D01*
X109976216Y-41015687D01*
X109990416Y-41024060D01*
X110008459Y-41026291D01*
X110015611Y-41026050D01*
X110031610Y-41021950D01*
X110045908Y-41010823D01*
X110048881Y-41007645D01*
X110057790Y-40994967D01*
X110061375Y-40984365D01*
X110061614Y-40980860D01*
X110063610Y-40977348D01*
X110069138Y-40975149D01*
X110079961Y-40973959D01*
X110097842Y-40973469D01*
X110124543Y-40973375D01*
X110187710Y-40973375D01*
X110184948Y-40993218D01*
X110179192Y-41020773D01*
X110162813Y-41060651D01*
X110138234Y-41094519D01*
X110106159Y-41121493D01*
X110067290Y-41140694D01*
X110066025Y-41141118D01*
X110050350Y-41144402D01*
X110028859Y-41146781D01*
X110005813Y-41147763D01*
X109986366Y-41147502D01*
X109967277Y-41145559D01*
X109950589Y-41140950D01*
X109931730Y-41132748D01*
X109905317Y-41117290D01*
X109873217Y-41088478D01*
X109848838Y-41052750D01*
X109840472Y-41028850D01*
X109836041Y-40998284D01*
X109835936Y-40965664D01*
X109840162Y-40934864D01*
X109848722Y-40909757D01*
X109860308Y-40889542D01*
X109879985Y-40864687D01*
X109904415Y-40844541D01*
X109935539Y-40827610D01*
X109975302Y-40812400D01*
X109982000Y-40810115D01*
X110002889Y-40802217D01*
X110020018Y-40794643D01*
X110030203Y-40788763D01*
X110037815Y-40779681D01*
X110041426Y-40764921D01*
X110037823Y-40750516D01*
X110028009Y-40739586D01*
X110012988Y-40735250D01*
X110011090Y-40735306D01*
X109995433Y-40739150D01*
X109981539Y-40747277D01*
X109973808Y-40757219D01*
X109973413Y-40758335D01*
X109970624Y-40762209D01*
X109964698Y-40764729D01*
X109953774Y-40766179D01*
X109935990Y-40766842D01*
X109909487Y-40767000D01*
X109848270Y-40767000D01*
X109851536Y-40743170D01*
X109851728Y-40741826D01*
X109861990Y-40706849D01*
X109881098Y-40674663D01*
X109907387Y-40647464D01*
X109939194Y-40627446D01*
X109943003Y-40625814D01*
X109968486Y-40618910D01*
X109998630Y-40615676D01*
X110029782Y-40616100D01*
G37*
X110029782Y-40616100D02*
X110058294Y-40620171D01*
X110080513Y-40627878D01*
X110109882Y-40646476D01*
X110131933Y-40668058D01*
X110148548Y-40694803D01*
X110161268Y-40728776D01*
X110165880Y-40766879D01*
X110160042Y-40804818D01*
X110149593Y-40832510D01*
X110130970Y-40861763D01*
X110105139Y-40886091D01*
X110071042Y-40906444D01*
X110027625Y-40923770D01*
X110010297Y-40930117D01*
X109982180Y-40944187D01*
X109964044Y-40959523D01*
X109956037Y-40975894D01*
X109958310Y-40993070D01*
X109971010Y-41010823D01*
X109976216Y-41015687D01*
X109990416Y-41024060D01*
X110008459Y-41026291D01*
X110015611Y-41026050D01*
X110031610Y-41021950D01*
X110045908Y-41010823D01*
X110048881Y-41007645D01*
X110057790Y-40994967D01*
X110061375Y-40984365D01*
X110061614Y-40980860D01*
X110063610Y-40977348D01*
X110069138Y-40975149D01*
X110079961Y-40973959D01*
X110097842Y-40973469D01*
X110124543Y-40973375D01*
X110187710Y-40973375D01*
X110184948Y-40993218D01*
X110179192Y-41020773D01*
X110162813Y-41060651D01*
X110138234Y-41094519D01*
X110106159Y-41121493D01*
X110067290Y-41140694D01*
X110066025Y-41141118D01*
X110050350Y-41144402D01*
X110028859Y-41146781D01*
X110005813Y-41147763D01*
X109986366Y-41147502D01*
X109967277Y-41145559D01*
X109950589Y-41140950D01*
X109931730Y-41132748D01*
X109905317Y-41117290D01*
X109873217Y-41088478D01*
X109848838Y-41052750D01*
X109840472Y-41028850D01*
X109836041Y-40998284D01*
X109835936Y-40965664D01*
X109840162Y-40934864D01*
X109848722Y-40909757D01*
X109860308Y-40889542D01*
X109879985Y-40864687D01*
X109904415Y-40844541D01*
X109935539Y-40827610D01*
X109975302Y-40812400D01*
X109982000Y-40810115D01*
X110002889Y-40802217D01*
X110020018Y-40794643D01*
X110030203Y-40788763D01*
X110037815Y-40779681D01*
X110041426Y-40764921D01*
X110037823Y-40750516D01*
X110028009Y-40739586D01*
X110012988Y-40735250D01*
X110011090Y-40735306D01*
X109995433Y-40739150D01*
X109981539Y-40747277D01*
X109973808Y-40757219D01*
X109973413Y-40758335D01*
X109970624Y-40762209D01*
X109964698Y-40764729D01*
X109953774Y-40766179D01*
X109935990Y-40766842D01*
X109909487Y-40767000D01*
X109848270Y-40767000D01*
X109851536Y-40743170D01*
X109851728Y-40741826D01*
X109861990Y-40706849D01*
X109881098Y-40674663D01*
X109907387Y-40647464D01*
X109939194Y-40627446D01*
X109943003Y-40625814D01*
X109968486Y-40618910D01*
X109998630Y-40615676D01*
X110029782Y-40616100D01*
G36*
X111582045Y-36949211D02*
G01*
X111630854Y-36951130D01*
X111673986Y-36954303D01*
X111709029Y-36958746D01*
X111791728Y-36975568D01*
X111884720Y-37002521D01*
X111970917Y-37037037D01*
X112050927Y-37079404D01*
X112125357Y-37129907D01*
X112194814Y-37188837D01*
X112248209Y-37244697D01*
X112302490Y-37315328D01*
X112350058Y-37393276D01*
X112390575Y-37477822D01*
X112423702Y-37568250D01*
X112449100Y-37663844D01*
X112466433Y-37763888D01*
X112467640Y-37774125D01*
X112470787Y-37811898D01*
X112472994Y-37856414D01*
X112474235Y-37904798D01*
X112474487Y-37954175D01*
X112473726Y-38001668D01*
X112471929Y-38044401D01*
X112469070Y-38079500D01*
X112460381Y-38143036D01*
X112442583Y-38229318D01*
X112418201Y-38309213D01*
X112386651Y-38384262D01*
X112347349Y-38456004D01*
X112299711Y-38525979D01*
X112286266Y-38543667D01*
X112246372Y-38592059D01*
X112205832Y-38634391D01*
X112162246Y-38672843D01*
X112113213Y-38709590D01*
X112056334Y-38746812D01*
X112039561Y-38757069D01*
X112002958Y-38778466D01*
X111964550Y-38799492D01*
X111923311Y-38820622D01*
X111878212Y-38842328D01*
X111828229Y-38865084D01*
X111772334Y-38889362D01*
X111709502Y-38915636D01*
X111638705Y-38944378D01*
X111558917Y-38976062D01*
X111554148Y-38977943D01*
X111488404Y-39004567D01*
X111431791Y-39029067D01*
X111383301Y-39052065D01*
X111341923Y-39074184D01*
X111306648Y-39096046D01*
X111276465Y-39118275D01*
X111250365Y-39141491D01*
X111227339Y-39166318D01*
X111206376Y-39193377D01*
X111188093Y-39222825D01*
X111166673Y-39272729D01*
X111153116Y-39327568D01*
X111147788Y-39385672D01*
X111151055Y-39445371D01*
X111152878Y-39458200D01*
X111167111Y-39519762D01*
X111189342Y-39574611D01*
X111219219Y-39622414D01*
X111256386Y-39662842D01*
X111300489Y-39695564D01*
X111351175Y-39720248D01*
X111408089Y-39736564D01*
X111470878Y-39744182D01*
X111532548Y-39743428D01*
X111593117Y-39734159D01*
X111647834Y-39716228D01*
X111696529Y-39689729D01*
X111739034Y-39654756D01*
X111775180Y-39611400D01*
X111804798Y-39559756D01*
X111816202Y-39533945D01*
X111827468Y-39502092D01*
X111835234Y-39469484D01*
X111840230Y-39432873D01*
X111843188Y-39389009D01*
X111846256Y-39320705D01*
X112000243Y-39324176D01*
X112006170Y-39324307D01*
X112053575Y-39325196D01*
X112108086Y-39325996D01*
X112166657Y-39326673D01*
X112226241Y-39327197D01*
X112283790Y-39327535D01*
X112336257Y-39327656D01*
X112518284Y-39327666D01*
X112515177Y-39424239D01*
X112513352Y-39466881D01*
X112509246Y-39520762D01*
X112502903Y-39570405D01*
X112493824Y-39619471D01*
X112481512Y-39671625D01*
X112462687Y-39735804D01*
X112426948Y-39827634D01*
X112382539Y-39913961D01*
X112329901Y-39994315D01*
X112269477Y-40068228D01*
X112201708Y-40135231D01*
X112127035Y-40194856D01*
X112045900Y-40246633D01*
X111958745Y-40290095D01*
X111866011Y-40324773D01*
X111843915Y-40331214D01*
X111807511Y-40340465D01*
X111766783Y-40349673D01*
X111725282Y-40358089D01*
X111686560Y-40364962D01*
X111654167Y-40369540D01*
X111635947Y-40371125D01*
X111604713Y-40372741D01*
X111567149Y-40373854D01*
X111525652Y-40374461D01*
X111482620Y-40374560D01*
X111440449Y-40374150D01*
X111401536Y-40373227D01*
X111368278Y-40371790D01*
X111343073Y-40369836D01*
X111277934Y-40361049D01*
X111174315Y-40339406D01*
X111076415Y-40308991D01*
X110984404Y-40269850D01*
X110905023Y-40226489D01*
X110824973Y-40171830D01*
X110752693Y-40110060D01*
X110688311Y-40041354D01*
X110631957Y-39965888D01*
X110583760Y-39883837D01*
X110543850Y-39795375D01*
X110512356Y-39700679D01*
X110489406Y-39599922D01*
X110488090Y-39592373D01*
X110484009Y-39564882D01*
X110480868Y-39535429D01*
X110478506Y-39501860D01*
X110476761Y-39462019D01*
X110475473Y-39413753D01*
X110475446Y-39319146D01*
X110479747Y-39231863D01*
X110488634Y-39151811D01*
X110502343Y-39077726D01*
X110521108Y-39008340D01*
X110545165Y-38942389D01*
X110574747Y-38878607D01*
X110594839Y-38841778D01*
X110641835Y-38769166D01*
X110695179Y-38702525D01*
X110753675Y-38643270D01*
X110816128Y-38592817D01*
X110822131Y-38588657D01*
X110850469Y-38570855D01*
X110886251Y-38550522D01*
X110927544Y-38528633D01*
X110972413Y-38506164D01*
X111018922Y-38484091D01*
X111065138Y-38463390D01*
X111109125Y-38445037D01*
X111134033Y-38435413D01*
X111167405Y-38423050D01*
X111205032Y-38409508D01*
X111243929Y-38395863D01*
X111281105Y-38383189D01*
X111310313Y-38373319D01*
X111384333Y-38347325D01*
X111449159Y-38322878D01*
X111505649Y-38299536D01*
X111554662Y-38276855D01*
X111597055Y-38254393D01*
X111633687Y-38231705D01*
X111665416Y-38208350D01*
X111693100Y-38183884D01*
X111717598Y-38157865D01*
X111723660Y-38150619D01*
X111756572Y-38101863D01*
X111780415Y-38047818D01*
X111795121Y-37988739D01*
X111800626Y-37924876D01*
X111796861Y-37856483D01*
X111795530Y-37846146D01*
X111782725Y-37783659D01*
X111762618Y-37728749D01*
X111735154Y-37681292D01*
X111700276Y-37641161D01*
X111679647Y-37623301D01*
X111646164Y-37601511D01*
X111609690Y-37586896D01*
X111568090Y-37578690D01*
X111519230Y-37576125D01*
X111497412Y-37576690D01*
X111444153Y-37583742D01*
X111397098Y-37599040D01*
X111355658Y-37622818D01*
X111319247Y-37655308D01*
X111291755Y-37689545D01*
X111269695Y-37728215D01*
X111253747Y-37771590D01*
X111243310Y-37821324D01*
X111237780Y-37879072D01*
X111234510Y-37941250D01*
X110562432Y-37941250D01*
X110565703Y-37852614D01*
X110565771Y-37850804D01*
X110572656Y-37757146D01*
X110585829Y-37667182D01*
X110604953Y-37582738D01*
X110629690Y-37505641D01*
X110631797Y-37500220D01*
X110642089Y-37476138D01*
X110655491Y-37447192D01*
X110670555Y-37416304D01*
X110685833Y-37386394D01*
X110699875Y-37360385D01*
X110711233Y-37341197D01*
X110750244Y-37285473D01*
X110809739Y-37215680D01*
X110876044Y-37153827D01*
X110949257Y-37099852D01*
X111029476Y-37053692D01*
X111116799Y-37015287D01*
X111211322Y-36984574D01*
X111313145Y-36961493D01*
X111337259Y-36957845D01*
X111378276Y-36953744D01*
X111425674Y-36950813D01*
X111477043Y-36949069D01*
X111529971Y-36948530D01*
X111582045Y-36949211D01*
G37*
X111582045Y-36949211D02*
X111630854Y-36951130D01*
X111673986Y-36954303D01*
X111709029Y-36958746D01*
X111791728Y-36975568D01*
X111884720Y-37002521D01*
X111970917Y-37037037D01*
X112050927Y-37079404D01*
X112125357Y-37129907D01*
X112194814Y-37188837D01*
X112248209Y-37244697D01*
X112302490Y-37315328D01*
X112350058Y-37393276D01*
X112390575Y-37477822D01*
X112423702Y-37568250D01*
X112449100Y-37663844D01*
X112466433Y-37763888D01*
X112467640Y-37774125D01*
X112470787Y-37811898D01*
X112472994Y-37856414D01*
X112474235Y-37904798D01*
X112474487Y-37954175D01*
X112473726Y-38001668D01*
X112471929Y-38044401D01*
X112469070Y-38079500D01*
X112460381Y-38143036D01*
X112442583Y-38229318D01*
X112418201Y-38309213D01*
X112386651Y-38384262D01*
X112347349Y-38456004D01*
X112299711Y-38525979D01*
X112286266Y-38543667D01*
X112246372Y-38592059D01*
X112205832Y-38634391D01*
X112162246Y-38672843D01*
X112113213Y-38709590D01*
X112056334Y-38746812D01*
X112039561Y-38757069D01*
X112002958Y-38778466D01*
X111964550Y-38799492D01*
X111923311Y-38820622D01*
X111878212Y-38842328D01*
X111828229Y-38865084D01*
X111772334Y-38889362D01*
X111709502Y-38915636D01*
X111638705Y-38944378D01*
X111558917Y-38976062D01*
X111554148Y-38977943D01*
X111488404Y-39004567D01*
X111431791Y-39029067D01*
X111383301Y-39052065D01*
X111341923Y-39074184D01*
X111306648Y-39096046D01*
X111276465Y-39118275D01*
X111250365Y-39141491D01*
X111227339Y-39166318D01*
X111206376Y-39193377D01*
X111188093Y-39222825D01*
X111166673Y-39272729D01*
X111153116Y-39327568D01*
X111147788Y-39385672D01*
X111151055Y-39445371D01*
X111152878Y-39458200D01*
X111167111Y-39519762D01*
X111189342Y-39574611D01*
X111219219Y-39622414D01*
X111256386Y-39662842D01*
X111300489Y-39695564D01*
X111351175Y-39720248D01*
X111408089Y-39736564D01*
X111470878Y-39744182D01*
X111532548Y-39743428D01*
X111593117Y-39734159D01*
X111647834Y-39716228D01*
X111696529Y-39689729D01*
X111739034Y-39654756D01*
X111775180Y-39611400D01*
X111804798Y-39559756D01*
X111816202Y-39533945D01*
X111827468Y-39502092D01*
X111835234Y-39469484D01*
X111840230Y-39432873D01*
X111843188Y-39389009D01*
X111846256Y-39320705D01*
X112000243Y-39324176D01*
X112006170Y-39324307D01*
X112053575Y-39325196D01*
X112108086Y-39325996D01*
X112166657Y-39326673D01*
X112226241Y-39327197D01*
X112283790Y-39327535D01*
X112336257Y-39327656D01*
X112518284Y-39327666D01*
X112515177Y-39424239D01*
X112513352Y-39466881D01*
X112509246Y-39520762D01*
X112502903Y-39570405D01*
X112493824Y-39619471D01*
X112481512Y-39671625D01*
X112462687Y-39735804D01*
X112426948Y-39827634D01*
X112382539Y-39913961D01*
X112329901Y-39994315D01*
X112269477Y-40068228D01*
X112201708Y-40135231D01*
X112127035Y-40194856D01*
X112045900Y-40246633D01*
X111958745Y-40290095D01*
X111866011Y-40324773D01*
X111843915Y-40331214D01*
X111807511Y-40340465D01*
X111766783Y-40349673D01*
X111725282Y-40358089D01*
X111686560Y-40364962D01*
X111654167Y-40369540D01*
X111635947Y-40371125D01*
X111604713Y-40372741D01*
X111567149Y-40373854D01*
X111525652Y-40374461D01*
X111482620Y-40374560D01*
X111440449Y-40374150D01*
X111401536Y-40373227D01*
X111368278Y-40371790D01*
X111343073Y-40369836D01*
X111277934Y-40361049D01*
X111174315Y-40339406D01*
X111076415Y-40308991D01*
X110984404Y-40269850D01*
X110905023Y-40226489D01*
X110824973Y-40171830D01*
X110752693Y-40110060D01*
X110688311Y-40041354D01*
X110631957Y-39965888D01*
X110583760Y-39883837D01*
X110543850Y-39795375D01*
X110512356Y-39700679D01*
X110489406Y-39599922D01*
X110488090Y-39592373D01*
X110484009Y-39564882D01*
X110480868Y-39535429D01*
X110478506Y-39501860D01*
X110476761Y-39462019D01*
X110475473Y-39413753D01*
X110475446Y-39319146D01*
X110479747Y-39231863D01*
X110488634Y-39151811D01*
X110502343Y-39077726D01*
X110521108Y-39008340D01*
X110545165Y-38942389D01*
X110574747Y-38878607D01*
X110594839Y-38841778D01*
X110641835Y-38769166D01*
X110695179Y-38702525D01*
X110753675Y-38643270D01*
X110816128Y-38592817D01*
X110822131Y-38588657D01*
X110850469Y-38570855D01*
X110886251Y-38550522D01*
X110927544Y-38528633D01*
X110972413Y-38506164D01*
X111018922Y-38484091D01*
X111065138Y-38463390D01*
X111109125Y-38445037D01*
X111134033Y-38435413D01*
X111167405Y-38423050D01*
X111205032Y-38409508D01*
X111243929Y-38395863D01*
X111281105Y-38383189D01*
X111310313Y-38373319D01*
X111384333Y-38347325D01*
X111449159Y-38322878D01*
X111505649Y-38299536D01*
X111554662Y-38276855D01*
X111597055Y-38254393D01*
X111633687Y-38231705D01*
X111665416Y-38208350D01*
X111693100Y-38183884D01*
X111717598Y-38157865D01*
X111723660Y-38150619D01*
X111756572Y-38101863D01*
X111780415Y-38047818D01*
X111795121Y-37988739D01*
X111800626Y-37924876D01*
X111796861Y-37856483D01*
X111795530Y-37846146D01*
X111782725Y-37783659D01*
X111762618Y-37728749D01*
X111735154Y-37681292D01*
X111700276Y-37641161D01*
X111679647Y-37623301D01*
X111646164Y-37601511D01*
X111609690Y-37586896D01*
X111568090Y-37578690D01*
X111519230Y-37576125D01*
X111497412Y-37576690D01*
X111444153Y-37583742D01*
X111397098Y-37599040D01*
X111355658Y-37622818D01*
X111319247Y-37655308D01*
X111291755Y-37689545D01*
X111269695Y-37728215D01*
X111253747Y-37771590D01*
X111243310Y-37821324D01*
X111237780Y-37879072D01*
X111234510Y-37941250D01*
X110562432Y-37941250D01*
X110565703Y-37852614D01*
X110565771Y-37850804D01*
X110572656Y-37757146D01*
X110585829Y-37667182D01*
X110604953Y-37582738D01*
X110629690Y-37505641D01*
X110631797Y-37500220D01*
X110642089Y-37476138D01*
X110655491Y-37447192D01*
X110670555Y-37416304D01*
X110685833Y-37386394D01*
X110699875Y-37360385D01*
X110711233Y-37341197D01*
X110750244Y-37285473D01*
X110809739Y-37215680D01*
X110876044Y-37153827D01*
X110949257Y-37099852D01*
X111029476Y-37053692D01*
X111116799Y-37015287D01*
X111211322Y-36984574D01*
X111313145Y-36961493D01*
X111337259Y-36957845D01*
X111378276Y-36953744D01*
X111425674Y-36950813D01*
X111477043Y-36949069D01*
X111529971Y-36948530D01*
X111582045Y-36949211D01*
G36*
X111318666Y-41285148D02*
G01*
X111363020Y-41302557D01*
X111403180Y-41327963D01*
X111438124Y-41360722D01*
X111466831Y-41400192D01*
X111488279Y-41445730D01*
X111501447Y-41496696D01*
X111504531Y-41527733D01*
X111501294Y-41578123D01*
X111488100Y-41626880D01*
X111465333Y-41672774D01*
X111433377Y-41714571D01*
X111428973Y-41719256D01*
X111399227Y-41746562D01*
X111367792Y-41766901D01*
X111330516Y-41783040D01*
X111324187Y-41785031D01*
X111299731Y-41789862D01*
X111270232Y-41792794D01*
X111239521Y-41793672D01*
X111211430Y-41792346D01*
X111189788Y-41788661D01*
X111189371Y-41788542D01*
X111177121Y-41786385D01*
X111172625Y-41788661D01*
X111168560Y-41790456D01*
X111155761Y-41792086D01*
X111136168Y-41793182D01*
X111111771Y-41793583D01*
X111050917Y-41793583D01*
X111050917Y-41502541D01*
X111273167Y-41502541D01*
X111273167Y-41624250D01*
X111222896Y-41624250D01*
X111216067Y-41624252D01*
X111195144Y-41624447D01*
X111182320Y-41625311D01*
X111175613Y-41627341D01*
X111173042Y-41631036D01*
X111172625Y-41636896D01*
X111176944Y-41648279D01*
X111189638Y-41658284D01*
X111208557Y-41665728D01*
X111231530Y-41670200D01*
X111256389Y-41671288D01*
X111280962Y-41668580D01*
X111303082Y-41661663D01*
X111320547Y-41651680D01*
X111345701Y-41629267D01*
X111365885Y-41601263D01*
X111379323Y-41570349D01*
X111384240Y-41539203D01*
X111381524Y-41512873D01*
X111370761Y-41480018D01*
X111353205Y-41450297D01*
X111330347Y-41426108D01*
X111303681Y-41409847D01*
X111281335Y-41403497D01*
X111249059Y-41401316D01*
X111216190Y-41405533D01*
X111186053Y-41415650D01*
X111161973Y-41431166D01*
X111161599Y-41431497D01*
X111157134Y-41433820D01*
X111151461Y-41432568D01*
X111143069Y-41426708D01*
X111130449Y-41415206D01*
X111112089Y-41397028D01*
X111102395Y-41387074D01*
X111085717Y-41368493D01*
X111075886Y-41355075D01*
X111073538Y-41347634D01*
X111079676Y-41340063D01*
X111093180Y-41329183D01*
X111111404Y-41316936D01*
X111131828Y-41304899D01*
X111151930Y-41294650D01*
X111169190Y-41287766D01*
X111170649Y-41287316D01*
X111221459Y-41276885D01*
X111271139Y-41276376D01*
X111318666Y-41285148D01*
G37*
X111318666Y-41285148D02*
X111363020Y-41302557D01*
X111403180Y-41327963D01*
X111438124Y-41360722D01*
X111466831Y-41400192D01*
X111488279Y-41445730D01*
X111501447Y-41496696D01*
X111504531Y-41527733D01*
X111501294Y-41578123D01*
X111488100Y-41626880D01*
X111465333Y-41672774D01*
X111433377Y-41714571D01*
X111428973Y-41719256D01*
X111399227Y-41746562D01*
X111367792Y-41766901D01*
X111330516Y-41783040D01*
X111324187Y-41785031D01*
X111299731Y-41789862D01*
X111270232Y-41792794D01*
X111239521Y-41793672D01*
X111211430Y-41792346D01*
X111189788Y-41788661D01*
X111189371Y-41788542D01*
X111177121Y-41786385D01*
X111172625Y-41788661D01*
X111168560Y-41790456D01*
X111155761Y-41792086D01*
X111136168Y-41793182D01*
X111111771Y-41793583D01*
X111050917Y-41793583D01*
X111050917Y-41502541D01*
X111273167Y-41502541D01*
X111273167Y-41624250D01*
X111222896Y-41624250D01*
X111216067Y-41624252D01*
X111195144Y-41624447D01*
X111182320Y-41625311D01*
X111175613Y-41627341D01*
X111173042Y-41631036D01*
X111172625Y-41636896D01*
X111176944Y-41648279D01*
X111189638Y-41658284D01*
X111208557Y-41665728D01*
X111231530Y-41670200D01*
X111256389Y-41671288D01*
X111280962Y-41668580D01*
X111303082Y-41661663D01*
X111320547Y-41651680D01*
X111345701Y-41629267D01*
X111365885Y-41601263D01*
X111379323Y-41570349D01*
X111384240Y-41539203D01*
X111381524Y-41512873D01*
X111370761Y-41480018D01*
X111353205Y-41450297D01*
X111330347Y-41426108D01*
X111303681Y-41409847D01*
X111281335Y-41403497D01*
X111249059Y-41401316D01*
X111216190Y-41405533D01*
X111186053Y-41415650D01*
X111161973Y-41431166D01*
X111161599Y-41431497D01*
X111157134Y-41433820D01*
X111151461Y-41432568D01*
X111143069Y-41426708D01*
X111130449Y-41415206D01*
X111112089Y-41397028D01*
X111102395Y-41387074D01*
X111085717Y-41368493D01*
X111075886Y-41355075D01*
X111073538Y-41347634D01*
X111079676Y-41340063D01*
X111093180Y-41329183D01*
X111111404Y-41316936D01*
X111131828Y-41304899D01*
X111151930Y-41294650D01*
X111169190Y-41287766D01*
X111170649Y-41287316D01*
X111221459Y-41276885D01*
X111271139Y-41276376D01*
X111318666Y-41285148D01*
G36*
X118643230Y-39404062D02*
G01*
X118643147Y-39443048D01*
X118642848Y-39475148D01*
X118642271Y-39502376D01*
X118641355Y-39526746D01*
X118640039Y-39550269D01*
X118638263Y-39574960D01*
X118635965Y-39602833D01*
X118633701Y-39629107D01*
X118631811Y-39650173D01*
X118630371Y-39664526D01*
X118629155Y-39674184D01*
X118627936Y-39681169D01*
X118626488Y-39687500D01*
X118625727Y-39690925D01*
X118623036Y-39706591D01*
X118620719Y-39724541D01*
X118620662Y-39725060D01*
X118618596Y-39739924D01*
X118614994Y-39762106D01*
X118610348Y-39788697D01*
X118605149Y-39816783D01*
X118604176Y-39821936D01*
X118599697Y-39847090D01*
X118596399Y-39868057D01*
X118594585Y-39882774D01*
X118594556Y-39889178D01*
X118595054Y-39890936D01*
X118591268Y-39896690D01*
X118589053Y-39898951D01*
X118588304Y-39907469D01*
X118588969Y-39910944D01*
X118585659Y-39918053D01*
X118583582Y-39920229D01*
X118583013Y-39928636D01*
X118583677Y-39932110D01*
X118580367Y-39939219D01*
X118578290Y-39941396D01*
X118577721Y-39949803D01*
X118578385Y-39953277D01*
X118575075Y-39960386D01*
X118572999Y-39962562D01*
X118572429Y-39970969D01*
X118573116Y-39974430D01*
X118570004Y-39981417D01*
X118568525Y-39982630D01*
X118565778Y-39990846D01*
X118565903Y-39994151D01*
X118563675Y-40005000D01*
X118563455Y-40005569D01*
X118558451Y-40019939D01*
X118553086Y-40037200D01*
X118548636Y-40053055D01*
X118546380Y-40063208D01*
X118545786Y-40066758D01*
X118542339Y-40079083D01*
X118541831Y-40080413D01*
X118534208Y-40101452D01*
X118526578Y-40124233D01*
X118519648Y-40146411D01*
X118514125Y-40165644D01*
X118510716Y-40179587D01*
X118510127Y-40185895D01*
X118510675Y-40187042D01*
X118508348Y-40190208D01*
X118507061Y-40190646D01*
X118501988Y-40197347D01*
X118497039Y-40208739D01*
X118493867Y-40220429D01*
X118494126Y-40228025D01*
X118494733Y-40229525D01*
X118491313Y-40232541D01*
X118489711Y-40232718D01*
X118486833Y-40236510D01*
X118486068Y-40241717D01*
X118481569Y-40251985D01*
X118477381Y-40260772D01*
X118473286Y-40273152D01*
X118471935Y-40277977D01*
X118466837Y-40291642D01*
X118459755Y-40308008D01*
X118455747Y-40317720D01*
X118451817Y-40331561D01*
X118451887Y-40339758D01*
X118453179Y-40342511D01*
X118451224Y-40342287D01*
X118449743Y-40342144D01*
X118444440Y-40347729D01*
X118437541Y-40359257D01*
X118430364Y-40373907D01*
X118424225Y-40388861D01*
X118420442Y-40401301D01*
X118420331Y-40408409D01*
X118421366Y-40410637D01*
X118418756Y-40410948D01*
X118416781Y-40411459D01*
X118410731Y-40418659D01*
X118402573Y-40431904D01*
X118393522Y-40448758D01*
X118384789Y-40466785D01*
X118377589Y-40483550D01*
X118373134Y-40496616D01*
X118372638Y-40503549D01*
X118373702Y-40505858D01*
X118371037Y-40506141D01*
X118369291Y-40506384D01*
X118363358Y-40512547D01*
X118355843Y-40523784D01*
X118348551Y-40536966D01*
X118343290Y-40548966D01*
X118341865Y-40556656D01*
X118341904Y-40557811D01*
X118337230Y-40560625D01*
X118335316Y-40561040D01*
X118334896Y-40565916D01*
X118335780Y-40567913D01*
X118333457Y-40571208D01*
X118333413Y-40571208D01*
X118327936Y-40575527D01*
X118321400Y-40585760D01*
X118318629Y-40590940D01*
X118309538Y-40606388D01*
X118299055Y-40622846D01*
X118294078Y-40631059D01*
X118288374Y-40644016D01*
X118287835Y-40651950D01*
X118289143Y-40654721D01*
X118287261Y-40654575D01*
X118286962Y-40654362D01*
X118281588Y-40656664D01*
X118273546Y-40665456D01*
X118264643Y-40677974D01*
X118256687Y-40691455D01*
X118251486Y-40703134D01*
X118250848Y-40710247D01*
X118252140Y-40712962D01*
X118250376Y-40712939D01*
X118249931Y-40712640D01*
X118244034Y-40714572D01*
X118236198Y-40721994D01*
X118229350Y-40731591D01*
X118226417Y-40740053D01*
X118226250Y-40741711D01*
X118222448Y-40745842D01*
X118219418Y-40748089D01*
X118212052Y-40757219D01*
X118202833Y-40770978D01*
X118196233Y-40781364D01*
X118188365Y-40793107D01*
X118184009Y-40798750D01*
X118181211Y-40801955D01*
X118173034Y-40812229D01*
X118161090Y-40827662D01*
X118146846Y-40846375D01*
X118146368Y-40847007D01*
X118127932Y-40871351D01*
X118114585Y-40888780D01*
X118105099Y-40900814D01*
X118098244Y-40908973D01*
X118092791Y-40914776D01*
X118087511Y-40919744D01*
X118081764Y-40925845D01*
X118078250Y-40932311D01*
X118077478Y-40934331D01*
X118071331Y-40942629D01*
X118061053Y-40953792D01*
X118056688Y-40958276D01*
X118043175Y-40972711D01*
X118026553Y-40990962D01*
X118009459Y-41010147D01*
X118000674Y-41020059D01*
X117985594Y-41036757D01*
X117973382Y-41049881D01*
X117966074Y-41057224D01*
X117961206Y-41063399D01*
X117960307Y-41070891D01*
X117961322Y-41073011D01*
X117959659Y-41073097D01*
X117957530Y-41073087D01*
X117949206Y-41078123D01*
X117936937Y-41088134D01*
X117922715Y-41101178D01*
X117908531Y-41115312D01*
X117896378Y-41128593D01*
X117888247Y-41139078D01*
X117886130Y-41144823D01*
X117887172Y-41147045D01*
X117885227Y-41146833D01*
X117882017Y-41146090D01*
X117873104Y-41149363D01*
X117863004Y-41156135D01*
X117855327Y-41163787D01*
X117853686Y-41169702D01*
X117854508Y-41171456D01*
X117852225Y-41173266D01*
X117851535Y-41173188D01*
X117844244Y-41176644D01*
X117834123Y-41185041D01*
X117830266Y-41188688D01*
X117815737Y-41201438D01*
X117800116Y-41214145D01*
X117785070Y-41226072D01*
X117759895Y-41246789D01*
X117736209Y-41267062D01*
X117735027Y-41268097D01*
X117713958Y-41285334D01*
X117697521Y-41296021D01*
X117691153Y-41301225D01*
X117690013Y-41308338D01*
X117691251Y-41310951D01*
X117689436Y-41310875D01*
X117689154Y-41310683D01*
X117682386Y-41311781D01*
X117671158Y-41317182D01*
X117659047Y-41324902D01*
X117649625Y-41332959D01*
X117648134Y-41334163D01*
X117639325Y-41340475D01*
X117624106Y-41351043D01*
X117604077Y-41364761D01*
X117580834Y-41380524D01*
X117569375Y-41388298D01*
X117547360Y-41403466D01*
X117529287Y-41416228D01*
X117516776Y-41425430D01*
X117511451Y-41429917D01*
X117510548Y-41431058D01*
X117504691Y-41433944D01*
X117504549Y-41433919D01*
X117496770Y-41435871D01*
X117485450Y-41441816D01*
X117473844Y-41449580D01*
X117465210Y-41456991D01*
X117462804Y-41461879D01*
X117463651Y-41463891D01*
X117460315Y-41463589D01*
X117455492Y-41463789D01*
X117443885Y-41468052D01*
X117429064Y-41475263D01*
X117414148Y-41483749D01*
X117402253Y-41491835D01*
X117396496Y-41497849D01*
X117395974Y-41498892D01*
X117390800Y-41500183D01*
X117388200Y-41500427D01*
X117377811Y-41504495D01*
X117361781Y-41512274D01*
X117342304Y-41522742D01*
X117333503Y-41527595D01*
X117310296Y-41539766D01*
X117288734Y-41550298D01*
X117272560Y-41557334D01*
X117264064Y-41560935D01*
X117253248Y-41567483D01*
X117250888Y-41572601D01*
X117251887Y-41574808D01*
X117249016Y-41574941D01*
X117245802Y-41574744D01*
X117235012Y-41577478D01*
X117219463Y-41583050D01*
X117201606Y-41590384D01*
X117183890Y-41598402D01*
X117168766Y-41606027D01*
X117158685Y-41612182D01*
X117156097Y-41615790D01*
X117156539Y-41617309D01*
X117150725Y-41616026D01*
X117145481Y-41614997D01*
X117141625Y-41618704D01*
X117141226Y-41620849D01*
X117136549Y-41621737D01*
X117131988Y-41620895D01*
X117121997Y-41623878D01*
X117116191Y-41626625D01*
X117100534Y-41632979D01*
X117078556Y-41641283D01*
X117052499Y-41650730D01*
X117024608Y-41660510D01*
X116997124Y-41669815D01*
X116972292Y-41677836D01*
X116967717Y-41679278D01*
X116949404Y-41685321D01*
X116935937Y-41690197D01*
X116929959Y-41692961D01*
X116928130Y-41694176D01*
X116919375Y-41696552D01*
X116918507Y-41696674D01*
X116908371Y-41698898D01*
X116891743Y-41703141D01*
X116871750Y-41708611D01*
X116869864Y-41709141D01*
X116848153Y-41715015D01*
X116828506Y-41719967D01*
X116814970Y-41722974D01*
X116813531Y-41723260D01*
X116803358Y-41727020D01*
X116801236Y-41731576D01*
X116802164Y-41733991D01*
X116798126Y-41733012D01*
X116791737Y-41732434D01*
X116777499Y-41733775D01*
X116758539Y-41736696D01*
X116737765Y-41740687D01*
X116718088Y-41745235D01*
X116702417Y-41749830D01*
X116696952Y-41751408D01*
X116683896Y-41753876D01*
X116682028Y-41754114D01*
X116668553Y-41756120D01*
X116652146Y-41758852D01*
X116634311Y-41761961D01*
X116596223Y-41768442D01*
X116566956Y-41773131D01*
X116545386Y-41776194D01*
X116530391Y-41777793D01*
X116520849Y-41778095D01*
X116509367Y-41778680D01*
X116499682Y-41781377D01*
X116499193Y-41781654D01*
X116489216Y-41784517D01*
X116474875Y-41786225D01*
X116439706Y-41788084D01*
X116409261Y-41789797D01*
X116387305Y-41791190D01*
X116372735Y-41792340D01*
X116364449Y-41793326D01*
X116361345Y-41794225D01*
X116359368Y-41794626D01*
X116348452Y-41795200D01*
X116329472Y-41795581D01*
X116304057Y-41795782D01*
X116273834Y-41795817D01*
X116240429Y-41795699D01*
X116205470Y-41795442D01*
X116170583Y-41795058D01*
X116137396Y-41794561D01*
X116107536Y-41793964D01*
X116082630Y-41793281D01*
X116064305Y-41792525D01*
X116054188Y-41791709D01*
X116052989Y-41791530D01*
X116036370Y-41789484D01*
X116014113Y-41787246D01*
X115990688Y-41785270D01*
X115972799Y-41783912D01*
X115946772Y-41781848D01*
X115928584Y-41780219D01*
X115916467Y-41778841D01*
X115908653Y-41777528D01*
X115903375Y-41776094D01*
X115897964Y-41774801D01*
X115883317Y-41772196D01*
X115863185Y-41769072D01*
X115840528Y-41765845D01*
X115818299Y-41762931D01*
X115799458Y-41760746D01*
X115786959Y-41759707D01*
X115777847Y-41758654D01*
X115771084Y-41756122D01*
X115765730Y-41753748D01*
X115752477Y-41750224D01*
X115734478Y-41746345D01*
X115714742Y-41742668D01*
X115696278Y-41739749D01*
X115682097Y-41738143D01*
X115675208Y-41738407D01*
X115673749Y-41739072D01*
X115670542Y-41736596D01*
X115669526Y-41735038D01*
X115661319Y-41730997D01*
X115647846Y-41726848D01*
X115632711Y-41723460D01*
X115619513Y-41721701D01*
X115611856Y-41722441D01*
X115609988Y-41723105D01*
X115607042Y-41719195D01*
X115605128Y-41715980D01*
X115596713Y-41715675D01*
X115590442Y-41716563D01*
X115584806Y-41714744D01*
X115582641Y-41713034D01*
X115572465Y-41708684D01*
X115556807Y-41703383D01*
X115538752Y-41698023D01*
X115521382Y-41693495D01*
X115507780Y-41690692D01*
X115501030Y-41690506D01*
X115499449Y-41691045D01*
X115494884Y-41687295D01*
X115489810Y-41683164D01*
X115478560Y-41680647D01*
X115468749Y-41678852D01*
X115464171Y-41675277D01*
X115463060Y-41673398D01*
X115456230Y-41673788D01*
X115452148Y-41674539D01*
X115448292Y-41671142D01*
X115447285Y-41668705D01*
X115440697Y-41668365D01*
X115436849Y-41669061D01*
X115431201Y-41665581D01*
X115431164Y-41665477D01*
X115424918Y-41661337D01*
X115412859Y-41659264D01*
X115411807Y-41659216D01*
X115401669Y-41657562D01*
X115398854Y-41654677D01*
X115399263Y-41653854D01*
X115397011Y-41650303D01*
X115392809Y-41649733D01*
X115381932Y-41646974D01*
X115366376Y-41641424D01*
X115343682Y-41632251D01*
X115326263Y-41625848D01*
X115312112Y-41622197D01*
X115304500Y-41622171D01*
X115301874Y-41623357D01*
X115301917Y-41620340D01*
X115301389Y-41616090D01*
X115292874Y-41611868D01*
X115275014Y-41607335D01*
X115271916Y-41605869D01*
X115264029Y-41599492D01*
X115259482Y-41595992D01*
X115249291Y-41592500D01*
X115240743Y-41590309D01*
X115228735Y-41584106D01*
X115218170Y-41579413D01*
X115209582Y-41579632D01*
X115206674Y-41580978D01*
X115206556Y-41578187D01*
X115206797Y-41577544D01*
X115203172Y-41572549D01*
X115193307Y-41566745D01*
X115180675Y-41561591D01*
X115168746Y-41558543D01*
X115160994Y-41559060D01*
X115158757Y-41559958D01*
X115159391Y-41556275D01*
X115160036Y-41555111D01*
X115158893Y-41550678D01*
X115148582Y-41550618D01*
X115147535Y-41550549D01*
X115141967Y-41546020D01*
X115137685Y-41542308D01*
X115126369Y-41535219D01*
X115111424Y-41527003D01*
X115096025Y-41519307D01*
X115083343Y-41513779D01*
X115076553Y-41512066D01*
X115075773Y-41512181D01*
X115072584Y-41508350D01*
X115072574Y-41508179D01*
X115067769Y-41503245D01*
X115056823Y-41498082D01*
X115044043Y-41492663D01*
X115034333Y-41486790D01*
X115029443Y-41483143D01*
X115016437Y-41474704D01*
X114998778Y-41463973D01*
X114978745Y-41452253D01*
X114958617Y-41440851D01*
X114940672Y-41431069D01*
X114927189Y-41424214D01*
X114920448Y-41421590D01*
X114917989Y-41421287D01*
X114916446Y-41418790D01*
X114916472Y-41418763D01*
X114915346Y-41414205D01*
X114908267Y-41408753D01*
X114899305Y-41404798D01*
X114892527Y-41404732D01*
X114890397Y-41405595D01*
X114888567Y-41402259D01*
X114888632Y-41401575D01*
X114884394Y-41394925D01*
X114874146Y-41387313D01*
X114872751Y-41386507D01*
X114861627Y-41379720D01*
X114855625Y-41375440D01*
X114853359Y-41373610D01*
X114843719Y-41366341D01*
X114827973Y-41354681D01*
X114807627Y-41339742D01*
X114784188Y-41322639D01*
X114770971Y-41312979D01*
X114746921Y-41295181D01*
X114725720Y-41279220D01*
X114709282Y-41266542D01*
X114699521Y-41258597D01*
X114691130Y-41251282D01*
X114675705Y-41237960D01*
X114656553Y-41221501D01*
X114636021Y-41203925D01*
X114630330Y-41199018D01*
X114607108Y-41178412D01*
X114580140Y-41153799D01*
X114552327Y-41127848D01*
X114526574Y-41103231D01*
X114511974Y-41089248D01*
X114492712Y-41071438D01*
X114476961Y-41057635D01*
X114466050Y-41048992D01*
X114461310Y-41046662D01*
X114460178Y-41047542D01*
X114459632Y-41044695D01*
X114458959Y-41041325D01*
X114453154Y-41031639D01*
X114443327Y-41018727D01*
X114431532Y-41004944D01*
X114419822Y-40992644D01*
X114410250Y-40984181D01*
X114404869Y-40981908D01*
X114403425Y-40982562D01*
X114401734Y-40979683D01*
X114401311Y-40976638D01*
X114396138Y-40967362D01*
X114387305Y-40955678D01*
X114377203Y-40944381D01*
X114368227Y-40936269D01*
X114362768Y-40934139D01*
X114360899Y-40934462D01*
X114361237Y-40929307D01*
X114359773Y-40921242D01*
X114351635Y-40911835D01*
X114342232Y-40902627D01*
X114335475Y-40892341D01*
X114332252Y-40887307D01*
X114325173Y-40886575D01*
X114322327Y-40887936D01*
X114322281Y-40886237D01*
X114322430Y-40886015D01*
X114320791Y-40879515D01*
X114313912Y-40867474D01*
X114303159Y-40852316D01*
X114295639Y-40842391D01*
X114280126Y-40821434D01*
X114262669Y-40797428D01*
X114245809Y-40773847D01*
X114233158Y-40756364D01*
X114221242Y-40740761D01*
X114212733Y-40730611D01*
X114208928Y-40727545D01*
X114207927Y-40727932D01*
X114206514Y-40723188D01*
X114206258Y-40721799D01*
X114202046Y-40712324D01*
X114193736Y-40697383D01*
X114182721Y-40679532D01*
X114171812Y-40662508D01*
X114139994Y-40611187D01*
X114112081Y-40563270D01*
X114105492Y-40552052D01*
X114097419Y-40539683D01*
X114092309Y-40533575D01*
X114091066Y-40532616D01*
X114088068Y-40526867D01*
X114086630Y-40521557D01*
X114081283Y-40509111D01*
X114073021Y-40491794D01*
X114062917Y-40471665D01*
X114052045Y-40450782D01*
X114041477Y-40431200D01*
X114032287Y-40414979D01*
X114025548Y-40404176D01*
X114022333Y-40400847D01*
X114021039Y-40401081D01*
X114022474Y-40395099D01*
X114023571Y-40389963D01*
X114020990Y-40386000D01*
X114019160Y-40385542D01*
X114015766Y-40379385D01*
X114015169Y-40375660D01*
X114011331Y-40363747D01*
X114005030Y-40348333D01*
X113997532Y-40332089D01*
X113990105Y-40317683D01*
X113984013Y-40307788D01*
X113980524Y-40305073D01*
X113978917Y-40305598D01*
X113980141Y-40299849D01*
X113981170Y-40294605D01*
X113977463Y-40290750D01*
X113975316Y-40290339D01*
X113974495Y-40285567D01*
X113974973Y-40279244D01*
X113971093Y-40268369D01*
X113966590Y-40259452D01*
X113963289Y-40251062D01*
X113962007Y-40246326D01*
X113957347Y-40232279D01*
X113950974Y-40214948D01*
X113944173Y-40197658D01*
X113938231Y-40183731D01*
X113934435Y-40176492D01*
X113932747Y-40173711D01*
X113933158Y-40167231D01*
X113934013Y-40165794D01*
X113930153Y-40163750D01*
X113927775Y-40163379D01*
X113926365Y-40159386D01*
X113926754Y-40157325D01*
X113925323Y-40147363D01*
X113921411Y-40132126D01*
X113915892Y-40114197D01*
X113909638Y-40096158D01*
X113903523Y-40080591D01*
X113898418Y-40070077D01*
X113895198Y-40067200D01*
X113893522Y-40068286D01*
X113894627Y-40064571D01*
X113894939Y-40058398D01*
X113892975Y-40044336D01*
X113889167Y-40025449D01*
X113884145Y-40004549D01*
X113878540Y-39984447D01*
X113872981Y-39967958D01*
X113871751Y-39964405D01*
X113868825Y-39952083D01*
X113867824Y-39945721D01*
X113864626Y-39928912D01*
X113860209Y-39908000D01*
X113855135Y-39885396D01*
X113849966Y-39863511D01*
X113845263Y-39844755D01*
X113841589Y-39831540D01*
X113839506Y-39826277D01*
X113839498Y-39826273D01*
X113837853Y-39820613D01*
X113838516Y-39809079D01*
X113838567Y-39808721D01*
X113838611Y-39797841D01*
X113835668Y-39793333D01*
X113832873Y-39789927D01*
X113833039Y-39780104D01*
X113833549Y-39771277D01*
X113830982Y-39766875D01*
X113830148Y-39766553D01*
X113827221Y-39759797D01*
X113825677Y-39747031D01*
X113825187Y-39736484D01*
X113823548Y-39713541D01*
X113821309Y-39690909D01*
X113818778Y-39671151D01*
X113816263Y-39656831D01*
X113814073Y-39650512D01*
X113812734Y-39647922D01*
X113810453Y-39637094D01*
X113808819Y-39621354D01*
X113808766Y-39619931D01*
X113808600Y-39608835D01*
X113808419Y-39587772D01*
X113808224Y-39557202D01*
X113808018Y-39517585D01*
X113807802Y-39469381D01*
X113807577Y-39413049D01*
X113807344Y-39349049D01*
X113807105Y-39277841D01*
X113806861Y-39199885D01*
X113806614Y-39115641D01*
X113806364Y-39025568D01*
X113806115Y-38930126D01*
X113805866Y-38829776D01*
X113805619Y-38724977D01*
X113805377Y-38616188D01*
X113805139Y-38503870D01*
X113804908Y-38388482D01*
X113804685Y-38270485D01*
X113803049Y-37379965D01*
X114236500Y-37379965D01*
X114236602Y-38389534D01*
X114236603Y-38403430D01*
X114236632Y-38532458D01*
X114236691Y-38651418D01*
X114236788Y-38760775D01*
X114236928Y-38860996D01*
X114237120Y-38952548D01*
X114237369Y-39035898D01*
X114237682Y-39111511D01*
X114238067Y-39179855D01*
X114238529Y-39241395D01*
X114239076Y-39296598D01*
X114239715Y-39345932D01*
X114240452Y-39389861D01*
X114241295Y-39428854D01*
X114242249Y-39463376D01*
X114243322Y-39493893D01*
X114244520Y-39520873D01*
X114245851Y-39544781D01*
X114247321Y-39566085D01*
X114248937Y-39585251D01*
X114250705Y-39602744D01*
X114252633Y-39619033D01*
X114254727Y-39634583D01*
X114255431Y-39639494D01*
X114260292Y-39671682D01*
X114265497Y-39703626D01*
X114270676Y-39733281D01*
X114275460Y-39758600D01*
X114279482Y-39777535D01*
X114282371Y-39788041D01*
X114284095Y-39793497D01*
X114286599Y-39806562D01*
X114288895Y-39822760D01*
X114292558Y-39839731D01*
X114296553Y-39852068D01*
X114300094Y-39856833D01*
X114302062Y-39858967D01*
X114301534Y-39867416D01*
X114301018Y-39873827D01*
X114304987Y-39878000D01*
X114307156Y-39878321D01*
X114308580Y-39882253D01*
X114308496Y-39882402D01*
X114308244Y-39890059D01*
X114310532Y-39903661D01*
X114314477Y-39919937D01*
X114319196Y-39935614D01*
X114323805Y-39947420D01*
X114327422Y-39952083D01*
X114329119Y-39952549D01*
X114328961Y-39957606D01*
X114328139Y-39961841D01*
X114331943Y-39970835D01*
X114335074Y-39975258D01*
X114335380Y-39978541D01*
X114335207Y-39981424D01*
X114337936Y-39992369D01*
X114343302Y-40009639D01*
X114350594Y-40031268D01*
X114359099Y-40055292D01*
X114368104Y-40079747D01*
X114376897Y-40102668D01*
X114384765Y-40122091D01*
X114390996Y-40136051D01*
X114394877Y-40142583D01*
X114396292Y-40144433D01*
X114399464Y-40153166D01*
X114401491Y-40159710D01*
X114408178Y-40175977D01*
X114418547Y-40198725D01*
X114431767Y-40226287D01*
X114447009Y-40256999D01*
X114463443Y-40289198D01*
X114480239Y-40321217D01*
X114496566Y-40351394D01*
X114511595Y-40378062D01*
X114515632Y-40384964D01*
X114542480Y-40428405D01*
X114574266Y-40476448D01*
X114609100Y-40526374D01*
X114645092Y-40575461D01*
X114680353Y-40620990D01*
X114698620Y-40643084D01*
X114730847Y-40679767D01*
X114767736Y-40719684D01*
X114807404Y-40760924D01*
X114847965Y-40801573D01*
X114887536Y-40839721D01*
X114924231Y-40873455D01*
X114956167Y-40900863D01*
X115062573Y-40982443D01*
X115184612Y-41063835D01*
X115310585Y-41135406D01*
X115440544Y-41197176D01*
X115574540Y-41249169D01*
X115712626Y-41291406D01*
X115854852Y-41323909D01*
X116001271Y-41346701D01*
X116013811Y-41348028D01*
X116043500Y-41350361D01*
X116079848Y-41352490D01*
X116120702Y-41354353D01*
X116163911Y-41355886D01*
X116207322Y-41357030D01*
X116248783Y-41357720D01*
X116286141Y-41357897D01*
X116317243Y-41357497D01*
X116339938Y-41356458D01*
X116428392Y-41348088D01*
X116561227Y-41329234D01*
X116688553Y-41303002D01*
X116812005Y-41268978D01*
X116933220Y-41226748D01*
X117053837Y-41175897D01*
X117134521Y-41136369D01*
X117242329Y-41075568D01*
X117348020Y-41007044D01*
X117449924Y-40932049D01*
X117546366Y-40851834D01*
X117635673Y-40767649D01*
X117716172Y-40680745D01*
X117736734Y-40656481D01*
X117759440Y-40628971D01*
X117781455Y-40601641D01*
X117801757Y-40575808D01*
X117819326Y-40552793D01*
X117833140Y-40533914D01*
X117842178Y-40520491D01*
X117845417Y-40513841D01*
X117845487Y-40512877D01*
X117849753Y-40506826D01*
X117853195Y-40503600D01*
X117860728Y-40494090D01*
X117870299Y-40480791D01*
X117880245Y-40466162D01*
X117888899Y-40452666D01*
X117894599Y-40442764D01*
X117895679Y-40438916D01*
X117896392Y-40435873D01*
X117902618Y-40428195D01*
X117905187Y-40425224D01*
X117916538Y-40409172D01*
X117931108Y-40385334D01*
X117948137Y-40355207D01*
X117966865Y-40320286D01*
X117986531Y-40282070D01*
X118006376Y-40242054D01*
X118025639Y-40201736D01*
X118043562Y-40162613D01*
X118059382Y-40126180D01*
X118072342Y-40093936D01*
X118081130Y-40070461D01*
X118095963Y-40029176D01*
X118109784Y-39988703D01*
X118122204Y-39950342D01*
X118132834Y-39915390D01*
X118141286Y-39885147D01*
X118147170Y-39860910D01*
X118150097Y-39843980D01*
X118149680Y-39835653D01*
X118148901Y-39833573D01*
X118152639Y-39830375D01*
X118155853Y-39828461D01*
X118156159Y-39820045D01*
X118155356Y-39813760D01*
X118157551Y-39808139D01*
X118157586Y-39808124D01*
X118160160Y-39802359D01*
X118163832Y-39788353D01*
X118168209Y-39768298D01*
X118172893Y-39744388D01*
X118177492Y-39718817D01*
X118181610Y-39693778D01*
X118184853Y-39671465D01*
X118186824Y-39654071D01*
X118187131Y-39643791D01*
X118187344Y-39633801D01*
X118190269Y-39629291D01*
X118190624Y-39629243D01*
X118193761Y-39623803D01*
X118195111Y-39612093D01*
X118195394Y-39602787D01*
X118196521Y-39583735D01*
X118198193Y-39563145D01*
X118198447Y-39560287D01*
X118199942Y-39538058D01*
X118201170Y-39511269D01*
X118201884Y-39485093D01*
X118202100Y-39475638D01*
X118203016Y-39456764D01*
X118204348Y-39443683D01*
X118205889Y-39438791D01*
X118206229Y-39438414D01*
X118207433Y-39430925D01*
X118208468Y-39415300D01*
X118209233Y-39393467D01*
X118209628Y-39367354D01*
X118209654Y-39360006D01*
X118209395Y-39334858D01*
X118208652Y-39314509D01*
X118207519Y-39300886D01*
X118206093Y-39295916D01*
X118205542Y-39295482D01*
X118204136Y-39288024D01*
X118203585Y-39273225D01*
X118204014Y-39253583D01*
X118204241Y-39247531D01*
X118204290Y-39229039D01*
X118203314Y-39216113D01*
X118201464Y-39211250D01*
X118199699Y-39209078D01*
X118197541Y-39198994D01*
X118196485Y-39183468D01*
X118196240Y-39175335D01*
X118194864Y-39152255D01*
X118192851Y-39131875D01*
X118192251Y-39126967D01*
X118190452Y-39107359D01*
X118189721Y-39090864D01*
X118189703Y-39089557D01*
X118187868Y-39078291D01*
X118183937Y-39073666D01*
X118181937Y-39073235D01*
X118181464Y-39068333D01*
X118182242Y-39063291D01*
X118181629Y-39050885D01*
X118179694Y-39034423D01*
X118176909Y-39016823D01*
X118173747Y-39001002D01*
X118170681Y-38989878D01*
X118168184Y-38986369D01*
X118167957Y-38986474D01*
X118166502Y-38982694D01*
X118167231Y-38972093D01*
X118167435Y-38970634D01*
X118167522Y-38960340D01*
X118163689Y-38959418D01*
X118160498Y-38960349D01*
X118160898Y-38954879D01*
X118161945Y-38949518D01*
X118160130Y-38937406D01*
X118159991Y-38937069D01*
X118156642Y-38925146D01*
X118154003Y-38909771D01*
X118153762Y-38907909D01*
X118151158Y-38895276D01*
X118148096Y-38888604D01*
X118147565Y-38888150D01*
X118144218Y-38880520D01*
X118143970Y-38876523D01*
X118141742Y-38861560D01*
X118138090Y-38846513D01*
X118133983Y-38834902D01*
X118130390Y-38830250D01*
X118128808Y-38829949D01*
X118128279Y-38825350D01*
X118128836Y-38823032D01*
X118127791Y-38812367D01*
X118124000Y-38797568D01*
X118119028Y-38781979D01*
X118112030Y-38760015D01*
X118104909Y-38737645D01*
X118103558Y-38733442D01*
X118094828Y-38707799D01*
X118084751Y-38680191D01*
X118074028Y-38652320D01*
X118063363Y-38625891D01*
X118053456Y-38602609D01*
X118045010Y-38584178D01*
X118038728Y-38572303D01*
X118035310Y-38568687D01*
X118033414Y-38569138D01*
X118033494Y-38564348D01*
X118033614Y-38563569D01*
X118031494Y-38554692D01*
X118025488Y-38538808D01*
X118016398Y-38517902D01*
X118005028Y-38493958D01*
X118002479Y-38488815D01*
X117933504Y-38361721D01*
X117856237Y-38240871D01*
X117771101Y-38126585D01*
X117678520Y-38019182D01*
X117578914Y-37918982D01*
X117472707Y-37826305D01*
X117360321Y-37741470D01*
X117242178Y-37664797D01*
X117118700Y-37596607D01*
X116990311Y-37537218D01*
X116857431Y-37486951D01*
X116720484Y-37446125D01*
X116579892Y-37415060D01*
X116574618Y-37414091D01*
X116555522Y-37410558D01*
X116537868Y-37407307D01*
X116521175Y-37404327D01*
X116504962Y-37401605D01*
X116488748Y-37399129D01*
X116472052Y-37396886D01*
X116454393Y-37394863D01*
X116435290Y-37393048D01*
X116414262Y-37391429D01*
X116390828Y-37389993D01*
X116364507Y-37388727D01*
X116334818Y-37387619D01*
X116301280Y-37386658D01*
X116263412Y-37385829D01*
X116220733Y-37385120D01*
X116172761Y-37384520D01*
X116119017Y-37384016D01*
X116059018Y-37383594D01*
X115992284Y-37383243D01*
X115918334Y-37382951D01*
X115836687Y-37382704D01*
X115746861Y-37382490D01*
X115648376Y-37382296D01*
X115540751Y-37382111D01*
X115423505Y-37381922D01*
X115296157Y-37381715D01*
X114236500Y-37379965D01*
X113803049Y-37379965D01*
X113802252Y-36946075D01*
X115108137Y-36947998D01*
X115119498Y-36948015D01*
X115270779Y-36948256D01*
X115411737Y-36948513D01*
X115542616Y-36948787D01*
X115663659Y-36949082D01*
X115775109Y-36949397D01*
X115877209Y-36949734D01*
X115970203Y-36950095D01*
X116054333Y-36950481D01*
X116129843Y-36950894D01*
X116196976Y-36951335D01*
X116255975Y-36951805D01*
X116307083Y-36952306D01*
X116350544Y-36952840D01*
X116386600Y-36953407D01*
X116415495Y-36954010D01*
X116437473Y-36954649D01*
X116452775Y-36955327D01*
X116461646Y-36956044D01*
X116471700Y-36957347D01*
X116591534Y-36974704D01*
X116702817Y-36994520D01*
X116807267Y-37017287D01*
X116906602Y-37043498D01*
X117002540Y-37073644D01*
X117096798Y-37108220D01*
X117191094Y-37147715D01*
X117287146Y-37192624D01*
X117353943Y-37226480D01*
X117481956Y-37298410D01*
X117602831Y-37376405D01*
X117718136Y-37461586D01*
X117829438Y-37555073D01*
X117938307Y-37657987D01*
X118024709Y-37748638D01*
X118114679Y-37854189D01*
X118197967Y-37964901D01*
X118275821Y-38082441D01*
X118349486Y-38208479D01*
X118357374Y-38222505D01*
X118368192Y-38240715D01*
X118376773Y-38253937D01*
X118381751Y-38259991D01*
X118384095Y-38261755D01*
X118384190Y-38263960D01*
X118383977Y-38264351D01*
X118385953Y-38271261D01*
X118391615Y-38285470D01*
X118400245Y-38305249D01*
X118411125Y-38328864D01*
X118422635Y-38353780D01*
X118438615Y-38389539D01*
X118454264Y-38425651D01*
X118467419Y-38457187D01*
X118469016Y-38461118D01*
X118478726Y-38484649D01*
X118487025Y-38504150D01*
X118493078Y-38517690D01*
X118496047Y-38523333D01*
X118496471Y-38523778D01*
X118499012Y-38531270D01*
X118499887Y-38535224D01*
X118503555Y-38548054D01*
X118509583Y-38567851D01*
X118517424Y-38592836D01*
X118526536Y-38621229D01*
X118545013Y-38680445D01*
X118562860Y-38742240D01*
X118578826Y-38802315D01*
X118592398Y-38858643D01*
X118603062Y-38909200D01*
X118610306Y-38951958D01*
X118611487Y-38959903D01*
X118614606Y-38979223D01*
X118618118Y-38999583D01*
X118619477Y-39007246D01*
X118622197Y-39023602D01*
X118624392Y-39039156D01*
X118626398Y-39056745D01*
X118628553Y-39079209D01*
X118631196Y-39109385D01*
X118632312Y-39121271D01*
X118634575Y-39140314D01*
X118636790Y-39153441D01*
X118638603Y-39158333D01*
X118639448Y-39158778D01*
X118640345Y-39161126D01*
X118641071Y-39166364D01*
X118641648Y-39175452D01*
X118642098Y-39189352D01*
X118642441Y-39209028D01*
X118642699Y-39235439D01*
X118642894Y-39269548D01*
X118643046Y-39312317D01*
X118643167Y-39360006D01*
X118643178Y-39364708D01*
X118643230Y-39404062D01*
G37*
X118643230Y-39404062D02*
X118643147Y-39443048D01*
X118642848Y-39475148D01*
X118642271Y-39502376D01*
X118641355Y-39526746D01*
X118640039Y-39550269D01*
X118638263Y-39574960D01*
X118635965Y-39602833D01*
X118633701Y-39629107D01*
X118631811Y-39650173D01*
X118630371Y-39664526D01*
X118629155Y-39674184D01*
X118627936Y-39681169D01*
X118626488Y-39687500D01*
X118625727Y-39690925D01*
X118623036Y-39706591D01*
X118620719Y-39724541D01*
X118620662Y-39725060D01*
X118618596Y-39739924D01*
X118614994Y-39762106D01*
X118610348Y-39788697D01*
X118605149Y-39816783D01*
X118604176Y-39821936D01*
X118599697Y-39847090D01*
X118596399Y-39868057D01*
X118594585Y-39882774D01*
X118594556Y-39889178D01*
X118595054Y-39890936D01*
X118591268Y-39896690D01*
X118589053Y-39898951D01*
X118588304Y-39907469D01*
X118588969Y-39910944D01*
X118585659Y-39918053D01*
X118583582Y-39920229D01*
X118583013Y-39928636D01*
X118583677Y-39932110D01*
X118580367Y-39939219D01*
X118578290Y-39941396D01*
X118577721Y-39949803D01*
X118578385Y-39953277D01*
X118575075Y-39960386D01*
X118572999Y-39962562D01*
X118572429Y-39970969D01*
X118573116Y-39974430D01*
X118570004Y-39981417D01*
X118568525Y-39982630D01*
X118565778Y-39990846D01*
X118565903Y-39994151D01*
X118563675Y-40005000D01*
X118563455Y-40005569D01*
X118558451Y-40019939D01*
X118553086Y-40037200D01*
X118548636Y-40053055D01*
X118546380Y-40063208D01*
X118545786Y-40066758D01*
X118542339Y-40079083D01*
X118541831Y-40080413D01*
X118534208Y-40101452D01*
X118526578Y-40124233D01*
X118519648Y-40146411D01*
X118514125Y-40165644D01*
X118510716Y-40179587D01*
X118510127Y-40185895D01*
X118510675Y-40187042D01*
X118508348Y-40190208D01*
X118507061Y-40190646D01*
X118501988Y-40197347D01*
X118497039Y-40208739D01*
X118493867Y-40220429D01*
X118494126Y-40228025D01*
X118494733Y-40229525D01*
X118491313Y-40232541D01*
X118489711Y-40232718D01*
X118486833Y-40236510D01*
X118486068Y-40241717D01*
X118481569Y-40251985D01*
X118477381Y-40260772D01*
X118473286Y-40273152D01*
X118471935Y-40277977D01*
X118466837Y-40291642D01*
X118459755Y-40308008D01*
X118455747Y-40317720D01*
X118451817Y-40331561D01*
X118451887Y-40339758D01*
X118453179Y-40342511D01*
X118451224Y-40342287D01*
X118449743Y-40342144D01*
X118444440Y-40347729D01*
X118437541Y-40359257D01*
X118430364Y-40373907D01*
X118424225Y-40388861D01*
X118420442Y-40401301D01*
X118420331Y-40408409D01*
X118421366Y-40410637D01*
X118418756Y-40410948D01*
X118416781Y-40411459D01*
X118410731Y-40418659D01*
X118402573Y-40431904D01*
X118393522Y-40448758D01*
X118384789Y-40466785D01*
X118377589Y-40483550D01*
X118373134Y-40496616D01*
X118372638Y-40503549D01*
X118373702Y-40505858D01*
X118371037Y-40506141D01*
X118369291Y-40506384D01*
X118363358Y-40512547D01*
X118355843Y-40523784D01*
X118348551Y-40536966D01*
X118343290Y-40548966D01*
X118341865Y-40556656D01*
X118341904Y-40557811D01*
X118337230Y-40560625D01*
X118335316Y-40561040D01*
X118334896Y-40565916D01*
X118335780Y-40567913D01*
X118333457Y-40571208D01*
X118333413Y-40571208D01*
X118327936Y-40575527D01*
X118321400Y-40585760D01*
X118318629Y-40590940D01*
X118309538Y-40606388D01*
X118299055Y-40622846D01*
X118294078Y-40631059D01*
X118288374Y-40644016D01*
X118287835Y-40651950D01*
X118289143Y-40654721D01*
X118287261Y-40654575D01*
X118286962Y-40654362D01*
X118281588Y-40656664D01*
X118273546Y-40665456D01*
X118264643Y-40677974D01*
X118256687Y-40691455D01*
X118251486Y-40703134D01*
X118250848Y-40710247D01*
X118252140Y-40712962D01*
X118250376Y-40712939D01*
X118249931Y-40712640D01*
X118244034Y-40714572D01*
X118236198Y-40721994D01*
X118229350Y-40731591D01*
X118226417Y-40740053D01*
X118226250Y-40741711D01*
X118222448Y-40745842D01*
X118219418Y-40748089D01*
X118212052Y-40757219D01*
X118202833Y-40770978D01*
X118196233Y-40781364D01*
X118188365Y-40793107D01*
X118184009Y-40798750D01*
X118181211Y-40801955D01*
X118173034Y-40812229D01*
X118161090Y-40827662D01*
X118146846Y-40846375D01*
X118146368Y-40847007D01*
X118127932Y-40871351D01*
X118114585Y-40888780D01*
X118105099Y-40900814D01*
X118098244Y-40908973D01*
X118092791Y-40914776D01*
X118087511Y-40919744D01*
X118081764Y-40925845D01*
X118078250Y-40932311D01*
X118077478Y-40934331D01*
X118071331Y-40942629D01*
X118061053Y-40953792D01*
X118056688Y-40958276D01*
X118043175Y-40972711D01*
X118026553Y-40990962D01*
X118009459Y-41010147D01*
X118000674Y-41020059D01*
X117985594Y-41036757D01*
X117973382Y-41049881D01*
X117966074Y-41057224D01*
X117961206Y-41063399D01*
X117960307Y-41070891D01*
X117961322Y-41073011D01*
X117959659Y-41073097D01*
X117957530Y-41073087D01*
X117949206Y-41078123D01*
X117936937Y-41088134D01*
X117922715Y-41101178D01*
X117908531Y-41115312D01*
X117896378Y-41128593D01*
X117888247Y-41139078D01*
X117886130Y-41144823D01*
X117887172Y-41147045D01*
X117885227Y-41146833D01*
X117882017Y-41146090D01*
X117873104Y-41149363D01*
X117863004Y-41156135D01*
X117855327Y-41163787D01*
X117853686Y-41169702D01*
X117854508Y-41171456D01*
X117852225Y-41173266D01*
X117851535Y-41173188D01*
X117844244Y-41176644D01*
X117834123Y-41185041D01*
X117830266Y-41188688D01*
X117815737Y-41201438D01*
X117800116Y-41214145D01*
X117785070Y-41226072D01*
X117759895Y-41246789D01*
X117736209Y-41267062D01*
X117735027Y-41268097D01*
X117713958Y-41285334D01*
X117697521Y-41296021D01*
X117691153Y-41301225D01*
X117690013Y-41308338D01*
X117691251Y-41310951D01*
X117689436Y-41310875D01*
X117689154Y-41310683D01*
X117682386Y-41311781D01*
X117671158Y-41317182D01*
X117659047Y-41324902D01*
X117649625Y-41332959D01*
X117648134Y-41334163D01*
X117639325Y-41340475D01*
X117624106Y-41351043D01*
X117604077Y-41364761D01*
X117580834Y-41380524D01*
X117569375Y-41388298D01*
X117547360Y-41403466D01*
X117529287Y-41416228D01*
X117516776Y-41425430D01*
X117511451Y-41429917D01*
X117510548Y-41431058D01*
X117504691Y-41433944D01*
X117504549Y-41433919D01*
X117496770Y-41435871D01*
X117485450Y-41441816D01*
X117473844Y-41449580D01*
X117465210Y-41456991D01*
X117462804Y-41461879D01*
X117463651Y-41463891D01*
X117460315Y-41463589D01*
X117455492Y-41463789D01*
X117443885Y-41468052D01*
X117429064Y-41475263D01*
X117414148Y-41483749D01*
X117402253Y-41491835D01*
X117396496Y-41497849D01*
X117395974Y-41498892D01*
X117390800Y-41500183D01*
X117388200Y-41500427D01*
X117377811Y-41504495D01*
X117361781Y-41512274D01*
X117342304Y-41522742D01*
X117333503Y-41527595D01*
X117310296Y-41539766D01*
X117288734Y-41550298D01*
X117272560Y-41557334D01*
X117264064Y-41560935D01*
X117253248Y-41567483D01*
X117250888Y-41572601D01*
X117251887Y-41574808D01*
X117249016Y-41574941D01*
X117245802Y-41574744D01*
X117235012Y-41577478D01*
X117219463Y-41583050D01*
X117201606Y-41590384D01*
X117183890Y-41598402D01*
X117168766Y-41606027D01*
X117158685Y-41612182D01*
X117156097Y-41615790D01*
X117156539Y-41617309D01*
X117150725Y-41616026D01*
X117145481Y-41614997D01*
X117141625Y-41618704D01*
X117141226Y-41620849D01*
X117136549Y-41621737D01*
X117131988Y-41620895D01*
X117121997Y-41623878D01*
X117116191Y-41626625D01*
X117100534Y-41632979D01*
X117078556Y-41641283D01*
X117052499Y-41650730D01*
X117024608Y-41660510D01*
X116997124Y-41669815D01*
X116972292Y-41677836D01*
X116967717Y-41679278D01*
X116949404Y-41685321D01*
X116935937Y-41690197D01*
X116929959Y-41692961D01*
X116928130Y-41694176D01*
X116919375Y-41696552D01*
X116918507Y-41696674D01*
X116908371Y-41698898D01*
X116891743Y-41703141D01*
X116871750Y-41708611D01*
X116869864Y-41709141D01*
X116848153Y-41715015D01*
X116828506Y-41719967D01*
X116814970Y-41722974D01*
X116813531Y-41723260D01*
X116803358Y-41727020D01*
X116801236Y-41731576D01*
X116802164Y-41733991D01*
X116798126Y-41733012D01*
X116791737Y-41732434D01*
X116777499Y-41733775D01*
X116758539Y-41736696D01*
X116737765Y-41740687D01*
X116718088Y-41745235D01*
X116702417Y-41749830D01*
X116696952Y-41751408D01*
X116683896Y-41753876D01*
X116682028Y-41754114D01*
X116668553Y-41756120D01*
X116652146Y-41758852D01*
X116634311Y-41761961D01*
X116596223Y-41768442D01*
X116566956Y-41773131D01*
X116545386Y-41776194D01*
X116530391Y-41777793D01*
X116520849Y-41778095D01*
X116509367Y-41778680D01*
X116499682Y-41781377D01*
X116499193Y-41781654D01*
X116489216Y-41784517D01*
X116474875Y-41786225D01*
X116439706Y-41788084D01*
X116409261Y-41789797D01*
X116387305Y-41791190D01*
X116372735Y-41792340D01*
X116364449Y-41793326D01*
X116361345Y-41794225D01*
X116359368Y-41794626D01*
X116348452Y-41795200D01*
X116329472Y-41795581D01*
X116304057Y-41795782D01*
X116273834Y-41795817D01*
X116240429Y-41795699D01*
X116205470Y-41795442D01*
X116170583Y-41795058D01*
X116137396Y-41794561D01*
X116107536Y-41793964D01*
X116082630Y-41793281D01*
X116064305Y-41792525D01*
X116054188Y-41791709D01*
X116052989Y-41791530D01*
X116036370Y-41789484D01*
X116014113Y-41787246D01*
X115990688Y-41785270D01*
X115972799Y-41783912D01*
X115946772Y-41781848D01*
X115928584Y-41780219D01*
X115916467Y-41778841D01*
X115908653Y-41777528D01*
X115903375Y-41776094D01*
X115897964Y-41774801D01*
X115883317Y-41772196D01*
X115863185Y-41769072D01*
X115840528Y-41765845D01*
X115818299Y-41762931D01*
X115799458Y-41760746D01*
X115786959Y-41759707D01*
X115777847Y-41758654D01*
X115771084Y-41756122D01*
X115765730Y-41753748D01*
X115752477Y-41750224D01*
X115734478Y-41746345D01*
X115714742Y-41742668D01*
X115696278Y-41739749D01*
X115682097Y-41738143D01*
X115675208Y-41738407D01*
X115673749Y-41739072D01*
X115670542Y-41736596D01*
X115669526Y-41735038D01*
X115661319Y-41730997D01*
X115647846Y-41726848D01*
X115632711Y-41723460D01*
X115619513Y-41721701D01*
X115611856Y-41722441D01*
X115609988Y-41723105D01*
X115607042Y-41719195D01*
X115605128Y-41715980D01*
X115596713Y-41715675D01*
X115590442Y-41716563D01*
X115584806Y-41714744D01*
X115582641Y-41713034D01*
X115572465Y-41708684D01*
X115556807Y-41703383D01*
X115538752Y-41698023D01*
X115521382Y-41693495D01*
X115507780Y-41690692D01*
X115501030Y-41690506D01*
X115499449Y-41691045D01*
X115494884Y-41687295D01*
X115489810Y-41683164D01*
X115478560Y-41680647D01*
X115468749Y-41678852D01*
X115464171Y-41675277D01*
X115463060Y-41673398D01*
X115456230Y-41673788D01*
X115452148Y-41674539D01*
X115448292Y-41671142D01*
X115447285Y-41668705D01*
X115440697Y-41668365D01*
X115436849Y-41669061D01*
X115431201Y-41665581D01*
X115431164Y-41665477D01*
X115424918Y-41661337D01*
X115412859Y-41659264D01*
X115411807Y-41659216D01*
X115401669Y-41657562D01*
X115398854Y-41654677D01*
X115399263Y-41653854D01*
X115397011Y-41650303D01*
X115392809Y-41649733D01*
X115381932Y-41646974D01*
X115366376Y-41641424D01*
X115343682Y-41632251D01*
X115326263Y-41625848D01*
X115312112Y-41622197D01*
X115304500Y-41622171D01*
X115301874Y-41623357D01*
X115301917Y-41620340D01*
X115301389Y-41616090D01*
X115292874Y-41611868D01*
X115275014Y-41607335D01*
X115271916Y-41605869D01*
X115264029Y-41599492D01*
X115259482Y-41595992D01*
X115249291Y-41592500D01*
X115240743Y-41590309D01*
X115228735Y-41584106D01*
X115218170Y-41579413D01*
X115209582Y-41579632D01*
X115206674Y-41580978D01*
X115206556Y-41578187D01*
X115206797Y-41577544D01*
X115203172Y-41572549D01*
X115193307Y-41566745D01*
X115180675Y-41561591D01*
X115168746Y-41558543D01*
X115160994Y-41559060D01*
X115158757Y-41559958D01*
X115159391Y-41556275D01*
X115160036Y-41555111D01*
X115158893Y-41550678D01*
X115148582Y-41550618D01*
X115147535Y-41550549D01*
X115141967Y-41546020D01*
X115137685Y-41542308D01*
X115126369Y-41535219D01*
X115111424Y-41527003D01*
X115096025Y-41519307D01*
X115083343Y-41513779D01*
X115076553Y-41512066D01*
X115075773Y-41512181D01*
X115072584Y-41508350D01*
X115072574Y-41508179D01*
X115067769Y-41503245D01*
X115056823Y-41498082D01*
X115044043Y-41492663D01*
X115034333Y-41486790D01*
X115029443Y-41483143D01*
X115016437Y-41474704D01*
X114998778Y-41463973D01*
X114978745Y-41452253D01*
X114958617Y-41440851D01*
X114940672Y-41431069D01*
X114927189Y-41424214D01*
X114920448Y-41421590D01*
X114917989Y-41421287D01*
X114916446Y-41418790D01*
X114916472Y-41418763D01*
X114915346Y-41414205D01*
X114908267Y-41408753D01*
X114899305Y-41404798D01*
X114892527Y-41404732D01*
X114890397Y-41405595D01*
X114888567Y-41402259D01*
X114888632Y-41401575D01*
X114884394Y-41394925D01*
X114874146Y-41387313D01*
X114872751Y-41386507D01*
X114861627Y-41379720D01*
X114855625Y-41375440D01*
X114853359Y-41373610D01*
X114843719Y-41366341D01*
X114827973Y-41354681D01*
X114807627Y-41339742D01*
X114784188Y-41322639D01*
X114770971Y-41312979D01*
X114746921Y-41295181D01*
X114725720Y-41279220D01*
X114709282Y-41266542D01*
X114699521Y-41258597D01*
X114691130Y-41251282D01*
X114675705Y-41237960D01*
X114656553Y-41221501D01*
X114636021Y-41203925D01*
X114630330Y-41199018D01*
X114607108Y-41178412D01*
X114580140Y-41153799D01*
X114552327Y-41127848D01*
X114526574Y-41103231D01*
X114511974Y-41089248D01*
X114492712Y-41071438D01*
X114476961Y-41057635D01*
X114466050Y-41048992D01*
X114461310Y-41046662D01*
X114460178Y-41047542D01*
X114459632Y-41044695D01*
X114458959Y-41041325D01*
X114453154Y-41031639D01*
X114443327Y-41018727D01*
X114431532Y-41004944D01*
X114419822Y-40992644D01*
X114410250Y-40984181D01*
X114404869Y-40981908D01*
X114403425Y-40982562D01*
X114401734Y-40979683D01*
X114401311Y-40976638D01*
X114396138Y-40967362D01*
X114387305Y-40955678D01*
X114377203Y-40944381D01*
X114368227Y-40936269D01*
X114362768Y-40934139D01*
X114360899Y-40934462D01*
X114361237Y-40929307D01*
X114359773Y-40921242D01*
X114351635Y-40911835D01*
X114342232Y-40902627D01*
X114335475Y-40892341D01*
X114332252Y-40887307D01*
X114325173Y-40886575D01*
X114322327Y-40887936D01*
X114322281Y-40886237D01*
X114322430Y-40886015D01*
X114320791Y-40879515D01*
X114313912Y-40867474D01*
X114303159Y-40852316D01*
X114295639Y-40842391D01*
X114280126Y-40821434D01*
X114262669Y-40797428D01*
X114245809Y-40773847D01*
X114233158Y-40756364D01*
X114221242Y-40740761D01*
X114212733Y-40730611D01*
X114208928Y-40727545D01*
X114207927Y-40727932D01*
X114206514Y-40723188D01*
X114206258Y-40721799D01*
X114202046Y-40712324D01*
X114193736Y-40697383D01*
X114182721Y-40679532D01*
X114171812Y-40662508D01*
X114139994Y-40611187D01*
X114112081Y-40563270D01*
X114105492Y-40552052D01*
X114097419Y-40539683D01*
X114092309Y-40533575D01*
X114091066Y-40532616D01*
X114088068Y-40526867D01*
X114086630Y-40521557D01*
X114081283Y-40509111D01*
X114073021Y-40491794D01*
X114062917Y-40471665D01*
X114052045Y-40450782D01*
X114041477Y-40431200D01*
X114032287Y-40414979D01*
X114025548Y-40404176D01*
X114022333Y-40400847D01*
X114021039Y-40401081D01*
X114022474Y-40395099D01*
X114023571Y-40389963D01*
X114020990Y-40386000D01*
X114019160Y-40385542D01*
X114015766Y-40379385D01*
X114015169Y-40375660D01*
X114011331Y-40363747D01*
X114005030Y-40348333D01*
X113997532Y-40332089D01*
X113990105Y-40317683D01*
X113984013Y-40307788D01*
X113980524Y-40305073D01*
X113978917Y-40305598D01*
X113980141Y-40299849D01*
X113981170Y-40294605D01*
X113977463Y-40290750D01*
X113975316Y-40290339D01*
X113974495Y-40285567D01*
X113974973Y-40279244D01*
X113971093Y-40268369D01*
X113966590Y-40259452D01*
X113963289Y-40251062D01*
X113962007Y-40246326D01*
X113957347Y-40232279D01*
X113950974Y-40214948D01*
X113944173Y-40197658D01*
X113938231Y-40183731D01*
X113934435Y-40176492D01*
X113932747Y-40173711D01*
X113933158Y-40167231D01*
X113934013Y-40165794D01*
X113930153Y-40163750D01*
X113927775Y-40163379D01*
X113926365Y-40159386D01*
X113926754Y-40157325D01*
X113925323Y-40147363D01*
X113921411Y-40132126D01*
X113915892Y-40114197D01*
X113909638Y-40096158D01*
X113903523Y-40080591D01*
X113898418Y-40070077D01*
X113895198Y-40067200D01*
X113893522Y-40068286D01*
X113894627Y-40064571D01*
X113894939Y-40058398D01*
X113892975Y-40044336D01*
X113889167Y-40025449D01*
X113884145Y-40004549D01*
X113878540Y-39984447D01*
X113872981Y-39967958D01*
X113871751Y-39964405D01*
X113868825Y-39952083D01*
X113867824Y-39945721D01*
X113864626Y-39928912D01*
X113860209Y-39908000D01*
X113855135Y-39885396D01*
X113849966Y-39863511D01*
X113845263Y-39844755D01*
X113841589Y-39831540D01*
X113839506Y-39826277D01*
X113839498Y-39826273D01*
X113837853Y-39820613D01*
X113838516Y-39809079D01*
X113838567Y-39808721D01*
X113838611Y-39797841D01*
X113835668Y-39793333D01*
X113832873Y-39789927D01*
X113833039Y-39780104D01*
X113833549Y-39771277D01*
X113830982Y-39766875D01*
X113830148Y-39766553D01*
X113827221Y-39759797D01*
X113825677Y-39747031D01*
X113825187Y-39736484D01*
X113823548Y-39713541D01*
X113821309Y-39690909D01*
X113818778Y-39671151D01*
X113816263Y-39656831D01*
X113814073Y-39650512D01*
X113812734Y-39647922D01*
X113810453Y-39637094D01*
X113808819Y-39621354D01*
X113808766Y-39619931D01*
X113808600Y-39608835D01*
X113808419Y-39587772D01*
X113808224Y-39557202D01*
X113808018Y-39517585D01*
X113807802Y-39469381D01*
X113807577Y-39413049D01*
X113807344Y-39349049D01*
X113807105Y-39277841D01*
X113806861Y-39199885D01*
X113806614Y-39115641D01*
X113806364Y-39025568D01*
X113806115Y-38930126D01*
X113805866Y-38829776D01*
X113805619Y-38724977D01*
X113805377Y-38616188D01*
X113805139Y-38503870D01*
X113804908Y-38388482D01*
X113804685Y-38270485D01*
X113803049Y-37379965D01*
X114236500Y-37379965D01*
X114236602Y-38389534D01*
X114236603Y-38403430D01*
X114236632Y-38532458D01*
X114236691Y-38651418D01*
X114236788Y-38760775D01*
X114236928Y-38860996D01*
X114237120Y-38952548D01*
X114237369Y-39035898D01*
X114237682Y-39111511D01*
X114238067Y-39179855D01*
X114238529Y-39241395D01*
X114239076Y-39296598D01*
X114239715Y-39345932D01*
X114240452Y-39389861D01*
X114241295Y-39428854D01*
X114242249Y-39463376D01*
X114243322Y-39493893D01*
X114244520Y-39520873D01*
X114245851Y-39544781D01*
X114247321Y-39566085D01*
X114248937Y-39585251D01*
X114250705Y-39602744D01*
X114252633Y-39619033D01*
X114254727Y-39634583D01*
X114255431Y-39639494D01*
X114260292Y-39671682D01*
X114265497Y-39703626D01*
X114270676Y-39733281D01*
X114275460Y-39758600D01*
X114279482Y-39777535D01*
X114282371Y-39788041D01*
X114284095Y-39793497D01*
X114286599Y-39806562D01*
X114288895Y-39822760D01*
X114292558Y-39839731D01*
X114296553Y-39852068D01*
X114300094Y-39856833D01*
X114302062Y-39858967D01*
X114301534Y-39867416D01*
X114301018Y-39873827D01*
X114304987Y-39878000D01*
X114307156Y-39878321D01*
X114308580Y-39882253D01*
X114308496Y-39882402D01*
X114308244Y-39890059D01*
X114310532Y-39903661D01*
X114314477Y-39919937D01*
X114319196Y-39935614D01*
X114323805Y-39947420D01*
X114327422Y-39952083D01*
X114329119Y-39952549D01*
X114328961Y-39957606D01*
X114328139Y-39961841D01*
X114331943Y-39970835D01*
X114335074Y-39975258D01*
X114335380Y-39978541D01*
X114335207Y-39981424D01*
X114337936Y-39992369D01*
X114343302Y-40009639D01*
X114350594Y-40031268D01*
X114359099Y-40055292D01*
X114368104Y-40079747D01*
X114376897Y-40102668D01*
X114384765Y-40122091D01*
X114390996Y-40136051D01*
X114394877Y-40142583D01*
X114396292Y-40144433D01*
X114399464Y-40153166D01*
X114401491Y-40159710D01*
X114408178Y-40175977D01*
X114418547Y-40198725D01*
X114431767Y-40226287D01*
X114447009Y-40256999D01*
X114463443Y-40289198D01*
X114480239Y-40321217D01*
X114496566Y-40351394D01*
X114511595Y-40378062D01*
X114515632Y-40384964D01*
X114542480Y-40428405D01*
X114574266Y-40476448D01*
X114609100Y-40526374D01*
X114645092Y-40575461D01*
X114680353Y-40620990D01*
X114698620Y-40643084D01*
X114730847Y-40679767D01*
X114767736Y-40719684D01*
X114807404Y-40760924D01*
X114847965Y-40801573D01*
X114887536Y-40839721D01*
X114924231Y-40873455D01*
X114956167Y-40900863D01*
X115062573Y-40982443D01*
X115184612Y-41063835D01*
X115310585Y-41135406D01*
X115440544Y-41197176D01*
X115574540Y-41249169D01*
X115712626Y-41291406D01*
X115854852Y-41323909D01*
X116001271Y-41346701D01*
X116013811Y-41348028D01*
X116043500Y-41350361D01*
X116079848Y-41352490D01*
X116120702Y-41354353D01*
X116163911Y-41355886D01*
X116207322Y-41357030D01*
X116248783Y-41357720D01*
X116286141Y-41357897D01*
X116317243Y-41357497D01*
X116339938Y-41356458D01*
X116428392Y-41348088D01*
X116561227Y-41329234D01*
X116688553Y-41303002D01*
X116812005Y-41268978D01*
X116933220Y-41226748D01*
X117053837Y-41175897D01*
X117134521Y-41136369D01*
X117242329Y-41075568D01*
X117348020Y-41007044D01*
X117449924Y-40932049D01*
X117546366Y-40851834D01*
X117635673Y-40767649D01*
X117716172Y-40680745D01*
X117736734Y-40656481D01*
X117759440Y-40628971D01*
X117781455Y-40601641D01*
X117801757Y-40575808D01*
X117819326Y-40552793D01*
X117833140Y-40533914D01*
X117842178Y-40520491D01*
X117845417Y-40513841D01*
X117845487Y-40512877D01*
X117849753Y-40506826D01*
X117853195Y-40503600D01*
X117860728Y-40494090D01*
X117870299Y-40480791D01*
X117880245Y-40466162D01*
X117888899Y-40452666D01*
X117894599Y-40442764D01*
X117895679Y-40438916D01*
X117896392Y-40435873D01*
X117902618Y-40428195D01*
X117905187Y-40425224D01*
X117916538Y-40409172D01*
X117931108Y-40385334D01*
X117948137Y-40355207D01*
X117966865Y-40320286D01*
X117986531Y-40282070D01*
X118006376Y-40242054D01*
X118025639Y-40201736D01*
X118043562Y-40162613D01*
X118059382Y-40126180D01*
X118072342Y-40093936D01*
X118081130Y-40070461D01*
X118095963Y-40029176D01*
X118109784Y-39988703D01*
X118122204Y-39950342D01*
X118132834Y-39915390D01*
X118141286Y-39885147D01*
X118147170Y-39860910D01*
X118150097Y-39843980D01*
X118149680Y-39835653D01*
X118148901Y-39833573D01*
X118152639Y-39830375D01*
X118155853Y-39828461D01*
X118156159Y-39820045D01*
X118155356Y-39813760D01*
X118157551Y-39808139D01*
X118157586Y-39808124D01*
X118160160Y-39802359D01*
X118163832Y-39788353D01*
X118168209Y-39768298D01*
X118172893Y-39744388D01*
X118177492Y-39718817D01*
X118181610Y-39693778D01*
X118184853Y-39671465D01*
X118186824Y-39654071D01*
X118187131Y-39643791D01*
X118187344Y-39633801D01*
X118190269Y-39629291D01*
X118190624Y-39629243D01*
X118193761Y-39623803D01*
X118195111Y-39612093D01*
X118195394Y-39602787D01*
X118196521Y-39583735D01*
X118198193Y-39563145D01*
X118198447Y-39560287D01*
X118199942Y-39538058D01*
X118201170Y-39511269D01*
X118201884Y-39485093D01*
X118202100Y-39475638D01*
X118203016Y-39456764D01*
X118204348Y-39443683D01*
X118205889Y-39438791D01*
X118206229Y-39438414D01*
X118207433Y-39430925D01*
X118208468Y-39415300D01*
X118209233Y-39393467D01*
X118209628Y-39367354D01*
X118209654Y-39360006D01*
X118209395Y-39334858D01*
X118208652Y-39314509D01*
X118207519Y-39300886D01*
X118206093Y-39295916D01*
X118205542Y-39295482D01*
X118204136Y-39288024D01*
X118203585Y-39273225D01*
X118204014Y-39253583D01*
X118204241Y-39247531D01*
X118204290Y-39229039D01*
X118203314Y-39216113D01*
X118201464Y-39211250D01*
X118199699Y-39209078D01*
X118197541Y-39198994D01*
X118196485Y-39183468D01*
X118196240Y-39175335D01*
X118194864Y-39152255D01*
X118192851Y-39131875D01*
X118192251Y-39126967D01*
X118190452Y-39107359D01*
X118189721Y-39090864D01*
X118189703Y-39089557D01*
X118187868Y-39078291D01*
X118183937Y-39073666D01*
X118181937Y-39073235D01*
X118181464Y-39068333D01*
X118182242Y-39063291D01*
X118181629Y-39050885D01*
X118179694Y-39034423D01*
X118176909Y-39016823D01*
X118173747Y-39001002D01*
X118170681Y-38989878D01*
X118168184Y-38986369D01*
X118167957Y-38986474D01*
X118166502Y-38982694D01*
X118167231Y-38972093D01*
X118167435Y-38970634D01*
X118167522Y-38960340D01*
X118163689Y-38959418D01*
X118160498Y-38960349D01*
X118160898Y-38954879D01*
X118161945Y-38949518D01*
X118160130Y-38937406D01*
X118159991Y-38937069D01*
X118156642Y-38925146D01*
X118154003Y-38909771D01*
X118153762Y-38907909D01*
X118151158Y-38895276D01*
X118148096Y-38888604D01*
X118147565Y-38888150D01*
X118144218Y-38880520D01*
X118143970Y-38876523D01*
X118141742Y-38861560D01*
X118138090Y-38846513D01*
X118133983Y-38834902D01*
X118130390Y-38830250D01*
X118128808Y-38829949D01*
X118128279Y-38825350D01*
X118128836Y-38823032D01*
X118127791Y-38812367D01*
X118124000Y-38797568D01*
X118119028Y-38781979D01*
X118112030Y-38760015D01*
X118104909Y-38737645D01*
X118103558Y-38733442D01*
X118094828Y-38707799D01*
X118084751Y-38680191D01*
X118074028Y-38652320D01*
X118063363Y-38625891D01*
X118053456Y-38602609D01*
X118045010Y-38584178D01*
X118038728Y-38572303D01*
X118035310Y-38568687D01*
X118033414Y-38569138D01*
X118033494Y-38564348D01*
X118033614Y-38563569D01*
X118031494Y-38554692D01*
X118025488Y-38538808D01*
X118016398Y-38517902D01*
X118005028Y-38493958D01*
X118002479Y-38488815D01*
X117933504Y-38361721D01*
X117856237Y-38240871D01*
X117771101Y-38126585D01*
X117678520Y-38019182D01*
X117578914Y-37918982D01*
X117472707Y-37826305D01*
X117360321Y-37741470D01*
X117242178Y-37664797D01*
X117118700Y-37596607D01*
X116990311Y-37537218D01*
X116857431Y-37486951D01*
X116720484Y-37446125D01*
X116579892Y-37415060D01*
X116574618Y-37414091D01*
X116555522Y-37410558D01*
X116537868Y-37407307D01*
X116521175Y-37404327D01*
X116504962Y-37401605D01*
X116488748Y-37399129D01*
X116472052Y-37396886D01*
X116454393Y-37394863D01*
X116435290Y-37393048D01*
X116414262Y-37391429D01*
X116390828Y-37389993D01*
X116364507Y-37388727D01*
X116334818Y-37387619D01*
X116301280Y-37386658D01*
X116263412Y-37385829D01*
X116220733Y-37385120D01*
X116172761Y-37384520D01*
X116119017Y-37384016D01*
X116059018Y-37383594D01*
X115992284Y-37383243D01*
X115918334Y-37382951D01*
X115836687Y-37382704D01*
X115746861Y-37382490D01*
X115648376Y-37382296D01*
X115540751Y-37382111D01*
X115423505Y-37381922D01*
X115296157Y-37381715D01*
X114236500Y-37379965D01*
X113803049Y-37379965D01*
X113802252Y-36946075D01*
X115108137Y-36947998D01*
X115119498Y-36948015D01*
X115270779Y-36948256D01*
X115411737Y-36948513D01*
X115542616Y-36948787D01*
X115663659Y-36949082D01*
X115775109Y-36949397D01*
X115877209Y-36949734D01*
X115970203Y-36950095D01*
X116054333Y-36950481D01*
X116129843Y-36950894D01*
X116196976Y-36951335D01*
X116255975Y-36951805D01*
X116307083Y-36952306D01*
X116350544Y-36952840D01*
X116386600Y-36953407D01*
X116415495Y-36954010D01*
X116437473Y-36954649D01*
X116452775Y-36955327D01*
X116461646Y-36956044D01*
X116471700Y-36957347D01*
X116591534Y-36974704D01*
X116702817Y-36994520D01*
X116807267Y-37017287D01*
X116906602Y-37043498D01*
X117002540Y-37073644D01*
X117096798Y-37108220D01*
X117191094Y-37147715D01*
X117287146Y-37192624D01*
X117353943Y-37226480D01*
X117481956Y-37298410D01*
X117602831Y-37376405D01*
X117718136Y-37461586D01*
X117829438Y-37555073D01*
X117938307Y-37657987D01*
X118024709Y-37748638D01*
X118114679Y-37854189D01*
X118197967Y-37964901D01*
X118275821Y-38082441D01*
X118349486Y-38208479D01*
X118357374Y-38222505D01*
X118368192Y-38240715D01*
X118376773Y-38253937D01*
X118381751Y-38259991D01*
X118384095Y-38261755D01*
X118384190Y-38263960D01*
X118383977Y-38264351D01*
X118385953Y-38271261D01*
X118391615Y-38285470D01*
X118400245Y-38305249D01*
X118411125Y-38328864D01*
X118422635Y-38353780D01*
X118438615Y-38389539D01*
X118454264Y-38425651D01*
X118467419Y-38457187D01*
X118469016Y-38461118D01*
X118478726Y-38484649D01*
X118487025Y-38504150D01*
X118493078Y-38517690D01*
X118496047Y-38523333D01*
X118496471Y-38523778D01*
X118499012Y-38531270D01*
X118499887Y-38535224D01*
X118503555Y-38548054D01*
X118509583Y-38567851D01*
X118517424Y-38592836D01*
X118526536Y-38621229D01*
X118545013Y-38680445D01*
X118562860Y-38742240D01*
X118578826Y-38802315D01*
X118592398Y-38858643D01*
X118603062Y-38909200D01*
X118610306Y-38951958D01*
X118611487Y-38959903D01*
X118614606Y-38979223D01*
X118618118Y-38999583D01*
X118619477Y-39007246D01*
X118622197Y-39023602D01*
X118624392Y-39039156D01*
X118626398Y-39056745D01*
X118628553Y-39079209D01*
X118631196Y-39109385D01*
X118632312Y-39121271D01*
X118634575Y-39140314D01*
X118636790Y-39153441D01*
X118638603Y-39158333D01*
X118639448Y-39158778D01*
X118640345Y-39161126D01*
X118641071Y-39166364D01*
X118641648Y-39175452D01*
X118642098Y-39189352D01*
X118642441Y-39209028D01*
X118642699Y-39235439D01*
X118642894Y-39269548D01*
X118643046Y-39312317D01*
X118643167Y-39360006D01*
X118643178Y-39364708D01*
X118643230Y-39404062D01*
G36*
X113072770Y-40946520D02*
G01*
X113055136Y-40993229D01*
X113046303Y-41009385D01*
X113018543Y-41047130D01*
X112984115Y-41080201D01*
X112944997Y-41107140D01*
X112903167Y-41126486D01*
X112860602Y-41136781D01*
X112823381Y-41139325D01*
X112771613Y-41134880D01*
X112723541Y-41120549D01*
X112678877Y-41096236D01*
X112637332Y-41061844D01*
X112628760Y-41052942D01*
X112598963Y-41012871D01*
X112576863Y-40966923D01*
X112563502Y-40917145D01*
X112560669Y-40880770D01*
X112686210Y-40880770D01*
X112686456Y-40889894D01*
X112693465Y-40926708D01*
X112709745Y-40958824D01*
X112734782Y-40985459D01*
X112768063Y-41005826D01*
X112769863Y-41006625D01*
X112800977Y-41014761D01*
X112834644Y-41014694D01*
X112867990Y-41007059D01*
X112898138Y-40992496D01*
X112922215Y-40971640D01*
X112941980Y-40941465D01*
X112953492Y-40907773D01*
X112956107Y-40873345D01*
X112950131Y-40839847D01*
X112935868Y-40808945D01*
X112913625Y-40782307D01*
X112883707Y-40761598D01*
X112880841Y-40760198D01*
X112852569Y-40751237D01*
X112820840Y-40747940D01*
X112789721Y-40750405D01*
X112763282Y-40758727D01*
X112760158Y-40760322D01*
X112729061Y-40782166D01*
X112705839Y-40810364D01*
X112691289Y-40843653D01*
X112686210Y-40880770D01*
X112560669Y-40880770D01*
X112560465Y-40878145D01*
X112565729Y-40831439D01*
X112579912Y-40786347D01*
X112602121Y-40744207D01*
X112631463Y-40706360D01*
X112667047Y-40674146D01*
X112707981Y-40648905D01*
X112753372Y-40631976D01*
X112772905Y-40628194D01*
X112798734Y-40625251D01*
X112823777Y-40624125D01*
X112871389Y-40628522D01*
X112917743Y-40641944D01*
X112959664Y-40663335D01*
X112996482Y-40691627D01*
X113027529Y-40725752D01*
X113052135Y-40764644D01*
X113069632Y-40807234D01*
X113079349Y-40852455D01*
X113079916Y-40873345D01*
X113080618Y-40899240D01*
X113072770Y-40946520D01*
G37*
X113072770Y-40946520D02*
X113055136Y-40993229D01*
X113046303Y-41009385D01*
X113018543Y-41047130D01*
X112984115Y-41080201D01*
X112944997Y-41107140D01*
X112903167Y-41126486D01*
X112860602Y-41136781D01*
X112823381Y-41139325D01*
X112771613Y-41134880D01*
X112723541Y-41120549D01*
X112678877Y-41096236D01*
X112637332Y-41061844D01*
X112628760Y-41052942D01*
X112598963Y-41012871D01*
X112576863Y-40966923D01*
X112563502Y-40917145D01*
X112560669Y-40880770D01*
X112686210Y-40880770D01*
X112686456Y-40889894D01*
X112693465Y-40926708D01*
X112709745Y-40958824D01*
X112734782Y-40985459D01*
X112768063Y-41005826D01*
X112769863Y-41006625D01*
X112800977Y-41014761D01*
X112834644Y-41014694D01*
X112867990Y-41007059D01*
X112898138Y-40992496D01*
X112922215Y-40971640D01*
X112941980Y-40941465D01*
X112953492Y-40907773D01*
X112956107Y-40873345D01*
X112950131Y-40839847D01*
X112935868Y-40808945D01*
X112913625Y-40782307D01*
X112883707Y-40761598D01*
X112880841Y-40760198D01*
X112852569Y-40751237D01*
X112820840Y-40747940D01*
X112789721Y-40750405D01*
X112763282Y-40758727D01*
X112760158Y-40760322D01*
X112729061Y-40782166D01*
X112705839Y-40810364D01*
X112691289Y-40843653D01*
X112686210Y-40880770D01*
X112560669Y-40880770D01*
X112560465Y-40878145D01*
X112565729Y-40831439D01*
X112579912Y-40786347D01*
X112602121Y-40744207D01*
X112631463Y-40706360D01*
X112667047Y-40674146D01*
X112707981Y-40648905D01*
X112753372Y-40631976D01*
X112772905Y-40628194D01*
X112798734Y-40625251D01*
X112823777Y-40624125D01*
X112871389Y-40628522D01*
X112917743Y-40641944D01*
X112959664Y-40663335D01*
X112996482Y-40691627D01*
X113027529Y-40725752D01*
X113052135Y-40764644D01*
X113069632Y-40807234D01*
X113079349Y-40852455D01*
X113079916Y-40873345D01*
X113080618Y-40899240D01*
X113072770Y-40946520D01*
G36*
X107915605Y-40914239D02*
G01*
X108078447Y-40624125D01*
X108214584Y-40624125D01*
X108214584Y-41142708D01*
X108087754Y-41142708D01*
X108086346Y-40998559D01*
X108084938Y-40854411D01*
X108003727Y-40998559D01*
X107922516Y-41142708D01*
X107791250Y-41142708D01*
X107791250Y-40624125D01*
X107912791Y-40624125D01*
X107915605Y-40914239D01*
G37*
X107915605Y-40914239D02*
X108078447Y-40624125D01*
X108214584Y-40624125D01*
X108214584Y-41142708D01*
X108087754Y-41142708D01*
X108086346Y-40998559D01*
X108084938Y-40854411D01*
X108003727Y-40998559D01*
X107922516Y-41142708D01*
X107791250Y-41142708D01*
X107791250Y-40624125D01*
X107912791Y-40624125D01*
X107915605Y-40914239D01*
G36*
X108663678Y-36949073D02*
G01*
X108716742Y-36950151D01*
X108766039Y-36952135D01*
X108809308Y-36955025D01*
X108844292Y-36958821D01*
X108962493Y-36979049D01*
X109095461Y-37010980D01*
X109223083Y-37051946D01*
X109345622Y-37102055D01*
X109463336Y-37161415D01*
X109576487Y-37230135D01*
X109685333Y-37308322D01*
X109690976Y-37312742D01*
X109740900Y-37354542D01*
X109793891Y-37403195D01*
X109847977Y-37456627D01*
X109901185Y-37512764D01*
X109951541Y-37569533D01*
X109997071Y-37624858D01*
X110035803Y-37676666D01*
X110052061Y-37700272D01*
X110117623Y-37805941D01*
X110175825Y-37917445D01*
X110226054Y-38033254D01*
X110267695Y-38151842D01*
X110300136Y-38271679D01*
X110322762Y-38391239D01*
X110327319Y-38424322D01*
X110339404Y-38555613D01*
X110342269Y-38687797D01*
X110335922Y-38818830D01*
X110320374Y-38946666D01*
X110311971Y-38994464D01*
X110282556Y-39120990D01*
X110243490Y-39244444D01*
X110195199Y-39364287D01*
X110138108Y-39479976D01*
X110072642Y-39590973D01*
X109999226Y-39696736D01*
X109918286Y-39796725D01*
X109830248Y-39890400D01*
X109735536Y-39977221D01*
X109634575Y-40056646D01*
X109527792Y-40128135D01*
X109415611Y-40191149D01*
X109298458Y-40245146D01*
X109272201Y-40255677D01*
X109181785Y-40287901D01*
X109086684Y-40316178D01*
X108990032Y-40339721D01*
X108894961Y-40357740D01*
X108804605Y-40369447D01*
X108780348Y-40371209D01*
X108744999Y-40372761D01*
X108703575Y-40373836D01*
X108658456Y-40374430D01*
X108612019Y-40374538D01*
X108566641Y-40374157D01*
X108524701Y-40373283D01*
X108488577Y-40371911D01*
X108460646Y-40370037D01*
X108389834Y-40361991D01*
X108261292Y-40339603D01*
X108135051Y-40307612D01*
X108011957Y-40266354D01*
X107892858Y-40216166D01*
X107778599Y-40157383D01*
X107670028Y-40090343D01*
X107567990Y-40015382D01*
X107544693Y-39996412D01*
X107517900Y-39973895D01*
X107491813Y-39951320D01*
X107467676Y-39929815D01*
X107446735Y-39910511D01*
X107430236Y-39894537D01*
X107419423Y-39883022D01*
X107415542Y-39877097D01*
X107419190Y-39872593D01*
X107429737Y-39861200D01*
X107446602Y-39843512D01*
X107469203Y-39820127D01*
X107496958Y-39791638D01*
X107529285Y-39758642D01*
X107565602Y-39721733D01*
X107605328Y-39681508D01*
X107647880Y-39638562D01*
X107692676Y-39593491D01*
X107969810Y-39315076D01*
X108006207Y-39346936D01*
X108023661Y-39361910D01*
X108102130Y-39421895D01*
X108183444Y-39472100D01*
X108268408Y-39512872D01*
X108357826Y-39544555D01*
X108452505Y-39567497D01*
X108553250Y-39582044D01*
X108562517Y-39582908D01*
X108641178Y-39585328D01*
X108723555Y-39579817D01*
X108807273Y-39566835D01*
X108889957Y-39546839D01*
X108969234Y-39520287D01*
X109042730Y-39487637D01*
X109094921Y-39458809D01*
X109174766Y-39405172D01*
X109248544Y-39343462D01*
X109315715Y-39274390D01*
X109375736Y-39198666D01*
X109428066Y-39117003D01*
X109472163Y-39030110D01*
X109507486Y-38938698D01*
X109533494Y-38843479D01*
X109537002Y-38826408D01*
X109539997Y-38808406D01*
X109542171Y-38789508D01*
X109543655Y-38767776D01*
X109544577Y-38741274D01*
X109545065Y-38708063D01*
X109545247Y-38666208D01*
X109545257Y-38657659D01*
X109545172Y-38618127D01*
X109544756Y-38586820D01*
X109543876Y-38561757D01*
X109542399Y-38540954D01*
X109540193Y-38522429D01*
X109537125Y-38504200D01*
X109533062Y-38484285D01*
X109528324Y-38463338D01*
X109500576Y-38367879D01*
X109463994Y-38277035D01*
X109419070Y-38191365D01*
X109366299Y-38111425D01*
X109306171Y-38037770D01*
X109239181Y-37970959D01*
X109165821Y-37911547D01*
X109086583Y-37860091D01*
X109001961Y-37817147D01*
X108912447Y-37783273D01*
X108901707Y-37779888D01*
X108862024Y-37768040D01*
X108826802Y-37758980D01*
X108793539Y-37752352D01*
X108759730Y-37747798D01*
X108722869Y-37744961D01*
X108680454Y-37743484D01*
X108629980Y-37743011D01*
X108626470Y-37743006D01*
X108586271Y-37743066D01*
X108554461Y-37743458D01*
X108529008Y-37744322D01*
X108507876Y-37745796D01*
X108489031Y-37748018D01*
X108470438Y-37751128D01*
X108450063Y-37755263D01*
X108449214Y-37755445D01*
X108348791Y-37782143D01*
X108253701Y-37817979D01*
X108163892Y-37862977D01*
X108079312Y-37917165D01*
X107999909Y-37980567D01*
X107970440Y-38006656D01*
X107412896Y-37448452D01*
X107452584Y-37411136D01*
X107552426Y-37324028D01*
X107659668Y-37244082D01*
X107772110Y-37173342D01*
X107889698Y-37111835D01*
X108012374Y-37059587D01*
X108140082Y-37016625D01*
X108272768Y-36982975D01*
X108410375Y-36958663D01*
X108420904Y-36957316D01*
X108458923Y-36953847D01*
X108504469Y-36951289D01*
X108555282Y-36949642D01*
X108609105Y-36948903D01*
X108663678Y-36949073D01*
G37*
X108663678Y-36949073D02*
X108716742Y-36950151D01*
X108766039Y-36952135D01*
X108809308Y-36955025D01*
X108844292Y-36958821D01*
X108962493Y-36979049D01*
X109095461Y-37010980D01*
X109223083Y-37051946D01*
X109345622Y-37102055D01*
X109463336Y-37161415D01*
X109576487Y-37230135D01*
X109685333Y-37308322D01*
X109690976Y-37312742D01*
X109740900Y-37354542D01*
X109793891Y-37403195D01*
X109847977Y-37456627D01*
X109901185Y-37512764D01*
X109951541Y-37569533D01*
X109997071Y-37624858D01*
X110035803Y-37676666D01*
X110052061Y-37700272D01*
X110117623Y-37805941D01*
X110175825Y-37917445D01*
X110226054Y-38033254D01*
X110267695Y-38151842D01*
X110300136Y-38271679D01*
X110322762Y-38391239D01*
X110327319Y-38424322D01*
X110339404Y-38555613D01*
X110342269Y-38687797D01*
X110335922Y-38818830D01*
X110320374Y-38946666D01*
X110311971Y-38994464D01*
X110282556Y-39120990D01*
X110243490Y-39244444D01*
X110195199Y-39364287D01*
X110138108Y-39479976D01*
X110072642Y-39590973D01*
X109999226Y-39696736D01*
X109918286Y-39796725D01*
X109830248Y-39890400D01*
X109735536Y-39977221D01*
X109634575Y-40056646D01*
X109527792Y-40128135D01*
X109415611Y-40191149D01*
X109298458Y-40245146D01*
X109272201Y-40255677D01*
X109181785Y-40287901D01*
X109086684Y-40316178D01*
X108990032Y-40339721D01*
X108894961Y-40357740D01*
X108804605Y-40369447D01*
X108780348Y-40371209D01*
X108744999Y-40372761D01*
X108703575Y-40373836D01*
X108658456Y-40374430D01*
X108612019Y-40374538D01*
X108566641Y-40374157D01*
X108524701Y-40373283D01*
X108488577Y-40371911D01*
X108460646Y-40370037D01*
X108389834Y-40361991D01*
X108261292Y-40339603D01*
X108135051Y-40307612D01*
X108011957Y-40266354D01*
X107892858Y-40216166D01*
X107778599Y-40157383D01*
X107670028Y-40090343D01*
X107567990Y-40015382D01*
X107544693Y-39996412D01*
X107517900Y-39973895D01*
X107491813Y-39951320D01*
X107467676Y-39929815D01*
X107446735Y-39910511D01*
X107430236Y-39894537D01*
X107419423Y-39883022D01*
X107415542Y-39877097D01*
X107419190Y-39872593D01*
X107429737Y-39861200D01*
X107446602Y-39843512D01*
X107469203Y-39820127D01*
X107496958Y-39791638D01*
X107529285Y-39758642D01*
X107565602Y-39721733D01*
X107605328Y-39681508D01*
X107647880Y-39638562D01*
X107692676Y-39593491D01*
X107969810Y-39315076D01*
X108006207Y-39346936D01*
X108023661Y-39361910D01*
X108102130Y-39421895D01*
X108183444Y-39472100D01*
X108268408Y-39512872D01*
X108357826Y-39544555D01*
X108452505Y-39567497D01*
X108553250Y-39582044D01*
X108562517Y-39582908D01*
X108641178Y-39585328D01*
X108723555Y-39579817D01*
X108807273Y-39566835D01*
X108889957Y-39546839D01*
X108969234Y-39520287D01*
X109042730Y-39487637D01*
X109094921Y-39458809D01*
X109174766Y-39405172D01*
X109248544Y-39343462D01*
X109315715Y-39274390D01*
X109375736Y-39198666D01*
X109428066Y-39117003D01*
X109472163Y-39030110D01*
X109507486Y-38938698D01*
X109533494Y-38843479D01*
X109537002Y-38826408D01*
X109539997Y-38808406D01*
X109542171Y-38789508D01*
X109543655Y-38767776D01*
X109544577Y-38741274D01*
X109545065Y-38708063D01*
X109545247Y-38666208D01*
X109545257Y-38657659D01*
X109545172Y-38618127D01*
X109544756Y-38586820D01*
X109543876Y-38561757D01*
X109542399Y-38540954D01*
X109540193Y-38522429D01*
X109537125Y-38504200D01*
X109533062Y-38484285D01*
X109528324Y-38463338D01*
X109500576Y-38367879D01*
X109463994Y-38277035D01*
X109419070Y-38191365D01*
X109366299Y-38111425D01*
X109306171Y-38037770D01*
X109239181Y-37970959D01*
X109165821Y-37911547D01*
X109086583Y-37860091D01*
X109001961Y-37817147D01*
X108912447Y-37783273D01*
X108901707Y-37779888D01*
X108862024Y-37768040D01*
X108826802Y-37758980D01*
X108793539Y-37752352D01*
X108759730Y-37747798D01*
X108722869Y-37744961D01*
X108680454Y-37743484D01*
X108629980Y-37743011D01*
X108626470Y-37743006D01*
X108586271Y-37743066D01*
X108554461Y-37743458D01*
X108529008Y-37744322D01*
X108507876Y-37745796D01*
X108489031Y-37748018D01*
X108470438Y-37751128D01*
X108450063Y-37755263D01*
X108449214Y-37755445D01*
X108348791Y-37782143D01*
X108253701Y-37817979D01*
X108163892Y-37862977D01*
X108079312Y-37917165D01*
X107999909Y-37980567D01*
X107970440Y-38006656D01*
X107412896Y-37448452D01*
X107452584Y-37411136D01*
X107552426Y-37324028D01*
X107659668Y-37244082D01*
X107772110Y-37173342D01*
X107889698Y-37111835D01*
X108012374Y-37059587D01*
X108140082Y-37016625D01*
X108272768Y-36982975D01*
X108410375Y-36958663D01*
X108420904Y-36957316D01*
X108458923Y-36953847D01*
X108504469Y-36951289D01*
X108555282Y-36949642D01*
X108609105Y-36948903D01*
X108663678Y-36949073D01*
D11*
%TO.C,C1*%
X111634600Y-76736752D02*
X111634600Y-76214248D01*
X113104600Y-76736752D02*
X113104600Y-76214248D01*
%TO.C,R4*%
X121124736Y-76506400D02*
X121578864Y-76506400D01*
X121124736Y-77976400D02*
X121578864Y-77976400D01*
%TD*%
M02*
