%TF.GenerationSoftware,KiCad,Pcbnew,(6.0.7)*%
%TF.CreationDate,2022-11-19T11:38:31+01:00*%
%TF.ProjectId,placamaster,706c6163-616d-4617-9374-65722e6b6963,v01*%
%TF.SameCoordinates,Original*%
%TF.FileFunction,Soldermask,Top*%
%TF.FilePolarity,Negative*%
%FSLAX46Y46*%
G04 Gerber Fmt 4.6, Leading zero omitted, Abs format (unit mm)*
G04 Created by KiCad (PCBNEW (6.0.7)) date 2022-11-19 11:38:31*
%MOMM*%
%LPD*%
G01*
G04 APERTURE LIST*
G04 Aperture macros list*
%AMRoundRect*
0 Rectangle with rounded corners*
0 $1 Rounding radius*
0 $2 $3 $4 $5 $6 $7 $8 $9 X,Y pos of 4 corners*
0 Add a 4 corners polygon primitive as box body*
4,1,4,$2,$3,$4,$5,$6,$7,$8,$9,$2,$3,0*
0 Add four circle primitives for the rounded corners*
1,1,$1+$1,$2,$3*
1,1,$1+$1,$4,$5*
1,1,$1+$1,$6,$7*
1,1,$1+$1,$8,$9*
0 Add four rect primitives between the rounded corners*
20,1,$1+$1,$2,$3,$4,$5,0*
20,1,$1+$1,$4,$5,$6,$7,0*
20,1,$1+$1,$6,$7,$8,$9,0*
20,1,$1+$1,$8,$9,$2,$3,0*%
G04 Aperture macros list end*
%ADD10C,3.600000*%
%ADD11C,5.600000*%
%ADD12C,1.650000*%
%ADD13R,1.650000X1.650000*%
%ADD14RoundRect,0.250000X-0.337500X-0.475000X0.337500X-0.475000X0.337500X0.475000X-0.337500X0.475000X0*%
%ADD15RoundRect,0.250000X0.350000X0.450000X-0.350000X0.450000X-0.350000X-0.450000X0.350000X-0.450000X0*%
%ADD16RoundRect,0.250000X0.475000X-0.337500X0.475000X0.337500X-0.475000X0.337500X-0.475000X-0.337500X0*%
%ADD17RoundRect,0.162500X-1.012500X-0.162500X1.012500X-0.162500X1.012500X0.162500X-1.012500X0.162500X0*%
%ADD18RoundRect,0.250000X-0.325000X-0.450000X0.325000X-0.450000X0.325000X0.450000X-0.325000X0.450000X0*%
%ADD19O,3.000000X2.000000*%
%ADD20R,2.000000X3.000000*%
%ADD21O,2.000000X3.000000*%
%ADD22RoundRect,0.250000X-0.375000X-0.625000X0.375000X-0.625000X0.375000X0.625000X-0.375000X0.625000X0*%
%ADD23RoundRect,0.250000X-0.450000X0.350000X-0.450000X-0.350000X0.450000X-0.350000X0.450000X0.350000X0*%
%ADD24RoundRect,0.150000X-0.587500X-0.150000X0.587500X-0.150000X0.587500X0.150000X-0.587500X0.150000X0*%
%ADD25RoundRect,0.250000X0.450000X-0.350000X0.450000X0.350000X-0.450000X0.350000X-0.450000X-0.350000X0*%
%ADD26RoundRect,0.150000X0.150000X-0.587500X0.150000X0.587500X-0.150000X0.587500X-0.150000X-0.587500X0*%
%ADD27RoundRect,0.250000X0.625000X-0.375000X0.625000X0.375000X-0.625000X0.375000X-0.625000X-0.375000X0*%
%ADD28RoundRect,0.250000X0.337500X0.475000X-0.337500X0.475000X-0.337500X-0.475000X0.337500X-0.475000X0*%
%ADD29C,1.193800*%
%ADD30R,2.100000X1.400000*%
%ADD31RoundRect,0.250000X0.450000X-0.325000X0.450000X0.325000X-0.450000X0.325000X-0.450000X-0.325000X0*%
%ADD32RoundRect,0.075000X0.662500X0.075000X-0.662500X0.075000X-0.662500X-0.075000X0.662500X-0.075000X0*%
%ADD33RoundRect,0.075000X0.075000X0.662500X-0.075000X0.662500X-0.075000X-0.662500X0.075000X-0.662500X0*%
%ADD34RoundRect,0.250000X-0.350000X-0.450000X0.350000X-0.450000X0.350000X0.450000X-0.350000X0.450000X0*%
%ADD35R,1.850000X0.650000*%
%ADD36R,1.200000X2.200000*%
%ADD37R,5.800000X6.400000*%
G04 APERTURE END LIST*
D10*
%TO.C,H3*%
X130124200Y-38862000D03*
D11*
X130124200Y-38862000D03*
%TD*%
D12*
%TO.C,J5*%
X70066248Y-97125200D03*
D13*
X72606248Y-97125200D03*
%TD*%
%TO.C,J13*%
X137742600Y-96670000D03*
D12*
X135202600Y-96670000D03*
X132662600Y-96670000D03*
%TD*%
D13*
%TO.C,J12*%
X149655200Y-96670000D03*
D12*
X147115200Y-96670000D03*
X144575200Y-96670000D03*
%TD*%
%TO.C,J16*%
X120292800Y-86306800D03*
X122832800Y-86306800D03*
D13*
X125372800Y-86306800D03*
%TD*%
D14*
%TO.C,C10*%
X129592600Y-56257400D03*
X131667600Y-56257400D03*
%TD*%
D15*
%TO.C,R22*%
X84850000Y-61560000D03*
X82850000Y-61560000D03*
%TD*%
%TO.C,R2*%
X147523200Y-48285400D03*
X145523200Y-48285400D03*
%TD*%
D16*
%TO.C,C6*%
X105950000Y-43000000D03*
X105950000Y-40925000D03*
%TD*%
D13*
%TO.C,J18*%
X149606000Y-86309200D03*
D12*
X147066000Y-86309200D03*
X144526000Y-86309200D03*
%TD*%
D14*
%TO.C,C11*%
X129575000Y-61850000D03*
X131650000Y-61850000D03*
%TD*%
D15*
%TO.C,R14*%
X59317600Y-39333000D03*
X57317600Y-39333000D03*
%TD*%
D17*
%TO.C,U5*%
X138300000Y-52770000D03*
X138300000Y-55310000D03*
X138300000Y-57850000D03*
X138300000Y-60390000D03*
X147350000Y-60390000D03*
X147350000Y-57850000D03*
X147350000Y-55310000D03*
X147350000Y-52770000D03*
%TD*%
D13*
%TO.C,J15*%
X113257000Y-86383000D03*
D12*
X110717000Y-86383000D03*
X108177000Y-86383000D03*
%TD*%
D13*
%TO.C,J10*%
X106272000Y-96644600D03*
D12*
X103732000Y-96644600D03*
X101192000Y-96644600D03*
X98652000Y-96644600D03*
X96112000Y-96644600D03*
%TD*%
D15*
%TO.C,R10*%
X72399400Y-87630000D03*
X70399400Y-87630000D03*
%TD*%
D18*
%TO.C,D6*%
X50688700Y-90985800D03*
X52738700Y-90985800D03*
%TD*%
D19*
%TO.C,K1*%
X51200000Y-47490000D03*
X51200000Y-52530000D03*
X51200000Y-42450000D03*
X43700000Y-47490000D03*
X43700000Y-52530000D03*
X43700000Y-42450000D03*
D20*
X51200000Y-67790000D03*
D21*
X43700000Y-67790000D03*
%TD*%
D22*
%TO.C,D3*%
X149864000Y-46554000D03*
X152664000Y-46554000D03*
%TD*%
D23*
%TO.C,R9*%
X68063700Y-89344200D03*
X68063700Y-91344200D03*
%TD*%
D15*
%TO.C,R12*%
X47015400Y-75468400D03*
X45015400Y-75468400D03*
%TD*%
D14*
%TO.C,C8*%
X129592600Y-58949800D03*
X131667600Y-58949800D03*
%TD*%
D19*
%TO.C,K2*%
X64979200Y-47489800D03*
X64979200Y-52529800D03*
X64979200Y-42449800D03*
X57479200Y-47489800D03*
X57479200Y-52529800D03*
X57479200Y-42449800D03*
D20*
X64979200Y-67789800D03*
D21*
X57479200Y-67789800D03*
%TD*%
D15*
%TO.C,R19*%
X72862400Y-39079000D03*
X70862400Y-39079000D03*
%TD*%
D18*
%TO.C,D7*%
X49410400Y-72776000D03*
X51460400Y-72776000D03*
%TD*%
D16*
%TO.C,C2*%
X97459800Y-54838600D03*
X97459800Y-52763600D03*
%TD*%
D24*
%TO.C,Q7*%
X72237600Y-71882000D03*
X72237600Y-73782000D03*
X74112600Y-72832000D03*
%TD*%
D17*
%TO.C,U6*%
X138325000Y-64340000D03*
X138325000Y-66880000D03*
X138325000Y-69420000D03*
X138325000Y-71960000D03*
X147375000Y-71960000D03*
X147375000Y-69420000D03*
X147375000Y-66880000D03*
X147375000Y-64340000D03*
%TD*%
D15*
%TO.C,R25*%
X74161400Y-75590400D03*
X72161400Y-75590400D03*
%TD*%
D23*
%TO.C,R20*%
X86499600Y-48643400D03*
X86499600Y-50643400D03*
%TD*%
D25*
%TO.C,R11*%
X42621200Y-73861600D03*
X42621200Y-71861600D03*
%TD*%
D13*
%TO.C,J8*%
X67564000Y-80797400D03*
D12*
X70104000Y-80797400D03*
X72644000Y-80797400D03*
X75184000Y-80797400D03*
%TD*%
D26*
%TO.C,Q6*%
X82850000Y-59227500D03*
X84750000Y-59227500D03*
X83800000Y-57352500D03*
%TD*%
D27*
%TO.C,D2*%
X95156000Y-50810500D03*
X95156000Y-48010500D03*
%TD*%
D10*
%TO.C,H4*%
X148830000Y-76390000D03*
D11*
X148830000Y-76390000D03*
%TD*%
D28*
%TO.C,C14*%
X105689400Y-77520800D03*
X103614400Y-77520800D03*
%TD*%
D15*
%TO.C,R21*%
X84756200Y-55258800D03*
X82756200Y-55258800D03*
%TD*%
D22*
%TO.C,D11*%
X75701200Y-39079000D03*
X78501200Y-39079000D03*
%TD*%
D19*
%TO.C,K3*%
X78790000Y-47490000D03*
X78790000Y-52530000D03*
X78790000Y-42450000D03*
X71290000Y-47490000D03*
X71290000Y-52530000D03*
X71290000Y-42450000D03*
D20*
X78790000Y-67790000D03*
D21*
X71290000Y-67790000D03*
%TD*%
D29*
%TO.C,Y1*%
X108086600Y-50377800D03*
X103206600Y-50377800D03*
%TD*%
D30*
%TO.C,SW1*%
X124986000Y-45612100D03*
X114986000Y-45612100D03*
X124986000Y-41112100D03*
X114986000Y-41112100D03*
%TD*%
D15*
%TO.C,R15*%
X62338700Y-87344200D03*
X60338700Y-87344200D03*
%TD*%
D22*
%TO.C,D9*%
X62169000Y-39307600D03*
X64969000Y-39307600D03*
%TD*%
D18*
%TO.C,D10*%
X62932200Y-72863200D03*
X64982200Y-72863200D03*
%TD*%
D25*
%TO.C,R3*%
X110554400Y-42961700D03*
X110554400Y-40961700D03*
%TD*%
D26*
%TO.C,D1*%
X93700000Y-54837500D03*
X95600000Y-54837500D03*
X94650000Y-52962500D03*
%TD*%
D13*
%TO.C,J11*%
X125804600Y-96670000D03*
D12*
X123264600Y-96670000D03*
X120724600Y-96670000D03*
X118184600Y-96670000D03*
X115644600Y-96670000D03*
X113104600Y-96670000D03*
%TD*%
D10*
%TO.C,H2*%
X94970600Y-38836600D03*
D11*
X94970600Y-38836600D03*
%TD*%
D31*
%TO.C,D5*%
X74613700Y-91269200D03*
X74613700Y-89219200D03*
%TD*%
D32*
%TO.C,U1*%
X110239500Y-73505700D03*
X110239500Y-73005700D03*
X110239500Y-72505700D03*
X110239500Y-72005700D03*
X110239500Y-71505700D03*
X110239500Y-71005700D03*
X110239500Y-70505700D03*
X110239500Y-70005700D03*
X110239500Y-69505700D03*
X110239500Y-69005700D03*
X110239500Y-68505700D03*
X110239500Y-68005700D03*
X110239500Y-67505700D03*
X110239500Y-67005700D03*
X110239500Y-66505700D03*
X110239500Y-66005700D03*
X110239500Y-65505700D03*
X110239500Y-65005700D03*
X110239500Y-64505700D03*
X110239500Y-64005700D03*
X110239500Y-63505700D03*
X110239500Y-63005700D03*
X110239500Y-62505700D03*
X110239500Y-62005700D03*
X110239500Y-61505700D03*
D33*
X108577000Y-59843200D03*
X108077000Y-59843200D03*
X107577000Y-59843200D03*
X107077000Y-59843200D03*
X106577000Y-59843200D03*
X106077000Y-59843200D03*
X105577000Y-59843200D03*
X105077000Y-59843200D03*
X104577000Y-59843200D03*
X104077000Y-59843200D03*
X103577000Y-59843200D03*
X103077000Y-59843200D03*
X102577000Y-59843200D03*
X102077000Y-59843200D03*
X101577000Y-59843200D03*
X101077000Y-59843200D03*
X100577000Y-59843200D03*
X100077000Y-59843200D03*
X99577000Y-59843200D03*
X99077000Y-59843200D03*
X98577000Y-59843200D03*
X98077000Y-59843200D03*
X97577000Y-59843200D03*
X97077000Y-59843200D03*
X96577000Y-59843200D03*
D32*
X94914500Y-61505700D03*
X94914500Y-62005700D03*
X94914500Y-62505700D03*
X94914500Y-63005700D03*
X94914500Y-63505700D03*
X94914500Y-64005700D03*
X94914500Y-64505700D03*
X94914500Y-65005700D03*
X94914500Y-65505700D03*
X94914500Y-66005700D03*
X94914500Y-66505700D03*
X94914500Y-67005700D03*
X94914500Y-67505700D03*
X94914500Y-68005700D03*
X94914500Y-68505700D03*
X94914500Y-69005700D03*
X94914500Y-69505700D03*
X94914500Y-70005700D03*
X94914500Y-70505700D03*
X94914500Y-71005700D03*
X94914500Y-71505700D03*
X94914500Y-72005700D03*
X94914500Y-72505700D03*
X94914500Y-73005700D03*
X94914500Y-73505700D03*
D33*
X96577000Y-75168200D03*
X97077000Y-75168200D03*
X97577000Y-75168200D03*
X98077000Y-75168200D03*
X98577000Y-75168200D03*
X99077000Y-75168200D03*
X99577000Y-75168200D03*
X100077000Y-75168200D03*
X100577000Y-75168200D03*
X101077000Y-75168200D03*
X101577000Y-75168200D03*
X102077000Y-75168200D03*
X102577000Y-75168200D03*
X103077000Y-75168200D03*
X103577000Y-75168200D03*
X104077000Y-75168200D03*
X104577000Y-75168200D03*
X105077000Y-75168200D03*
X105577000Y-75168200D03*
X106077000Y-75168200D03*
X106577000Y-75168200D03*
X107077000Y-75168200D03*
X107577000Y-75168200D03*
X108077000Y-75168200D03*
X108577000Y-75168200D03*
%TD*%
D15*
%TO.C,R18*%
X84791200Y-52758200D03*
X82791200Y-52758200D03*
%TD*%
D24*
%TO.C,Q2*%
X45034200Y-71861600D03*
X45034200Y-73761600D03*
X46909200Y-72811600D03*
%TD*%
D16*
%TO.C,C7*%
X108250000Y-43050000D03*
X108250000Y-40975000D03*
%TD*%
D23*
%TO.C,R24*%
X69733200Y-71868200D03*
X69733200Y-73868200D03*
%TD*%
D31*
%TO.C,D8*%
X64638700Y-91119200D03*
X64638700Y-89069200D03*
%TD*%
D22*
%TO.C,D4*%
X48275200Y-39307600D03*
X51075200Y-39307600D03*
%TD*%
D28*
%TO.C,C5*%
X147550000Y-46228000D03*
X145475000Y-46228000D03*
%TD*%
D13*
%TO.C,J2*%
X55829200Y-80822800D03*
D12*
X58369200Y-80822800D03*
X60909200Y-80822800D03*
%TD*%
D34*
%TO.C,R1*%
X93847400Y-57123500D03*
X95847400Y-57123500D03*
%TD*%
D15*
%TO.C,R17*%
X60521600Y-75682600D03*
X58521600Y-75682600D03*
%TD*%
D35*
%TO.C,U4*%
X124668100Y-75213700D03*
X124668100Y-73943700D03*
X124668100Y-72673700D03*
X124668100Y-71403700D03*
X124668100Y-70133700D03*
X124668100Y-68863700D03*
X124668100Y-67593700D03*
X124668100Y-66323700D03*
X124668100Y-65053700D03*
X115318100Y-65053700D03*
X115318100Y-66323700D03*
X115318100Y-67593700D03*
X115318100Y-68863700D03*
X115318100Y-70133700D03*
X115318100Y-71403700D03*
X115318100Y-72673700D03*
X115318100Y-73943700D03*
X115318100Y-75213700D03*
%TD*%
D36*
%TO.C,U2*%
X140785200Y-38377200D03*
D37*
X138505200Y-44677200D03*
D36*
X136225200Y-38377200D03*
%TD*%
D25*
%TO.C,R16*%
X56032400Y-73872600D03*
X56032400Y-71872600D03*
%TD*%
D23*
%TO.C,R13*%
X57988700Y-89194200D03*
X57988700Y-91194200D03*
%TD*%
D14*
%TO.C,C4*%
X101967400Y-56532900D03*
X104042400Y-56532900D03*
%TD*%
D13*
%TO.C,J4*%
X147828000Y-39598600D03*
D12*
X150368000Y-39598600D03*
%TD*%
D35*
%TO.C,U3*%
X124515700Y-58912200D03*
X124515700Y-57642200D03*
X124515700Y-56372200D03*
X124515700Y-55102200D03*
X124515700Y-53832200D03*
X124515700Y-52562200D03*
X124515700Y-51292200D03*
X124515700Y-50022200D03*
X124515700Y-48752200D03*
X115165700Y-48752200D03*
X115165700Y-50022200D03*
X115165700Y-51292200D03*
X115165700Y-52562200D03*
X115165700Y-53832200D03*
X115165700Y-55102200D03*
X115165700Y-56372200D03*
X115165700Y-57642200D03*
X115165700Y-58912200D03*
%TD*%
D26*
%TO.C,Q5*%
X82816600Y-50548400D03*
X84716600Y-50548400D03*
X83766600Y-48673400D03*
%TD*%
D14*
%TO.C,C9*%
X129575000Y-64593200D03*
X131650000Y-64593200D03*
%TD*%
D23*
%TO.C,R7*%
X150418800Y-67081400D03*
X150418800Y-69081400D03*
%TD*%
D13*
%TO.C,J14*%
X101193600Y-86385400D03*
D12*
X98653600Y-86385400D03*
X96113600Y-86385400D03*
%TD*%
D11*
%TO.C,H1*%
X43891200Y-98856800D03*
D10*
X43891200Y-98856800D03*
%TD*%
D14*
%TO.C,C3*%
X101967400Y-53992900D03*
X104042400Y-53992900D03*
%TD*%
D24*
%TO.C,Q3*%
X60363700Y-89463800D03*
X60363700Y-91363800D03*
X62238700Y-90413800D03*
%TD*%
D29*
%TO.C,Y2*%
X130650000Y-46010000D03*
X130650000Y-50890000D03*
%TD*%
D15*
%TO.C,R8*%
X45913000Y-39307600D03*
X43913000Y-39307600D03*
%TD*%
D13*
%TO.C,J1*%
X82067400Y-80822800D03*
D12*
X84607400Y-80822800D03*
X87147400Y-80822800D03*
%TD*%
D18*
%TO.C,D12*%
X76403200Y-72898000D03*
X78453200Y-72898000D03*
%TD*%
D13*
%TO.C,J3*%
X44018200Y-80825200D03*
D12*
X46558200Y-80825200D03*
X49098200Y-80825200D03*
%TD*%
D29*
%TO.C,Y3*%
X130800000Y-75090000D03*
X130800000Y-70210000D03*
%TD*%
D13*
%TO.C,J7*%
X63226248Y-97125200D03*
D12*
X60686248Y-97125200D03*
%TD*%
D23*
%TO.C,R23*%
X86690200Y-57327800D03*
X86690200Y-59327800D03*
%TD*%
D24*
%TO.C,Q1*%
X70313700Y-89544200D03*
X70313700Y-91444200D03*
X72188700Y-90494200D03*
%TD*%
D13*
%TO.C,J9*%
X87049848Y-97101800D03*
D12*
X84509848Y-97101800D03*
X81969848Y-97101800D03*
X79429848Y-97101800D03*
%TD*%
D28*
%TO.C,C12*%
X96875600Y-77546200D03*
X94800600Y-77546200D03*
%TD*%
D13*
%TO.C,J17*%
X137464800Y-86309200D03*
D12*
X134924800Y-86309200D03*
X132384800Y-86309200D03*
%TD*%
D23*
%TO.C,R6*%
X150139400Y-55549800D03*
X150139400Y-57549800D03*
%TD*%
D13*
%TO.C,J6*%
X53856248Y-97125200D03*
D12*
X51316248Y-97125200D03*
%TD*%
D28*
%TO.C,C13*%
X101287400Y-77520800D03*
X99212400Y-77520800D03*
%TD*%
D24*
%TO.C,Q4*%
X58623200Y-71872600D03*
X58623200Y-73772600D03*
X60498200Y-72822600D03*
%TD*%
M02*
