%TF.GenerationSoftware,KiCad,Pcbnew,(6.0.7)*%
%TF.CreationDate,2022-11-19T11:38:31+01:00*%
%TF.ProjectId,placamaster,706c6163-616d-4617-9374-65722e6b6963,v01*%
%TF.SameCoordinates,Original*%
%TF.FileFunction,Soldermask,Bot*%
%TF.FilePolarity,Negative*%
%FSLAX46Y46*%
G04 Gerber Fmt 4.6, Leading zero omitted, Abs format (unit mm)*
G04 Created by KiCad (PCBNEW (6.0.7)) date 2022-11-19 11:38:31*
%MOMM*%
%LPD*%
G01*
G04 APERTURE LIST*
G04 Aperture macros list*
%AMRoundRect*
0 Rectangle with rounded corners*
0 $1 Rounding radius*
0 $2 $3 $4 $5 $6 $7 $8 $9 X,Y pos of 4 corners*
0 Add a 4 corners polygon primitive as box body*
4,1,4,$2,$3,$4,$5,$6,$7,$8,$9,$2,$3,0*
0 Add four circle primitives for the rounded corners*
1,1,$1+$1,$2,$3*
1,1,$1+$1,$4,$5*
1,1,$1+$1,$6,$7*
1,1,$1+$1,$8,$9*
0 Add four rect primitives between the rounded corners*
20,1,$1+$1,$2,$3,$4,$5,0*
20,1,$1+$1,$4,$5,$6,$7,0*
20,1,$1+$1,$6,$7,$8,$9,0*
20,1,$1+$1,$8,$9,$2,$3,0*%
G04 Aperture macros list end*
%ADD10C,5.600000*%
%ADD11C,3.600000*%
%ADD12C,1.650000*%
%ADD13R,1.650000X1.650000*%
%ADD14O,3.000000X2.000000*%
%ADD15R,2.000000X3.000000*%
%ADD16O,2.000000X3.000000*%
%ADD17C,1.193800*%
%ADD18RoundRect,0.250000X-0.350000X-0.450000X0.350000X-0.450000X0.350000X0.450000X-0.350000X0.450000X0*%
%ADD19RoundRect,0.250000X0.475000X-0.337500X0.475000X0.337500X-0.475000X0.337500X-0.475000X-0.337500X0*%
G04 APERTURE END LIST*
D10*
%TO.C,H3*%
X130124200Y-38862000D03*
D11*
X130124200Y-38862000D03*
%TD*%
D12*
%TO.C,J5*%
X70066248Y-97125200D03*
D13*
X72606248Y-97125200D03*
%TD*%
%TO.C,J13*%
X137742600Y-96670000D03*
D12*
X135202600Y-96670000D03*
X132662600Y-96670000D03*
%TD*%
D13*
%TO.C,J12*%
X149655200Y-96670000D03*
D12*
X147115200Y-96670000D03*
X144575200Y-96670000D03*
%TD*%
%TO.C,J16*%
X120292800Y-86306800D03*
X122832800Y-86306800D03*
D13*
X125372800Y-86306800D03*
%TD*%
%TO.C,J18*%
X149606000Y-86309200D03*
D12*
X147066000Y-86309200D03*
X144526000Y-86309200D03*
%TD*%
D13*
%TO.C,J15*%
X113257000Y-86383000D03*
D12*
X110717000Y-86383000D03*
X108177000Y-86383000D03*
%TD*%
D13*
%TO.C,J10*%
X106272000Y-96644600D03*
D12*
X103732000Y-96644600D03*
X101192000Y-96644600D03*
X98652000Y-96644600D03*
X96112000Y-96644600D03*
%TD*%
D14*
%TO.C,K1*%
X51200000Y-47490000D03*
X51200000Y-52530000D03*
X51200000Y-42450000D03*
X43700000Y-47490000D03*
X43700000Y-52530000D03*
X43700000Y-42450000D03*
D15*
X51200000Y-67790000D03*
D16*
X43700000Y-67790000D03*
%TD*%
D14*
%TO.C,K2*%
X64979200Y-47489800D03*
X64979200Y-52529800D03*
X64979200Y-42449800D03*
X57479200Y-47489800D03*
X57479200Y-52529800D03*
X57479200Y-42449800D03*
D15*
X64979200Y-67789800D03*
D16*
X57479200Y-67789800D03*
%TD*%
D13*
%TO.C,J8*%
X67564000Y-80797400D03*
D12*
X70104000Y-80797400D03*
X72644000Y-80797400D03*
X75184000Y-80797400D03*
%TD*%
D10*
%TO.C,H4*%
X148830000Y-76390000D03*
D11*
X148830000Y-76390000D03*
%TD*%
D14*
%TO.C,K3*%
X78790000Y-47490000D03*
X78790000Y-52530000D03*
X78790000Y-42450000D03*
X71290000Y-47490000D03*
X71290000Y-52530000D03*
X71290000Y-42450000D03*
D15*
X78790000Y-67790000D03*
D16*
X71290000Y-67790000D03*
%TD*%
D17*
%TO.C,Y1*%
X108086600Y-50377800D03*
X103206600Y-50377800D03*
%TD*%
D13*
%TO.C,J11*%
X125804600Y-96670000D03*
D12*
X123264600Y-96670000D03*
X120724600Y-96670000D03*
X118184600Y-96670000D03*
X115644600Y-96670000D03*
X113104600Y-96670000D03*
%TD*%
D11*
%TO.C,H2*%
X94970600Y-38836600D03*
D10*
X94970600Y-38836600D03*
%TD*%
D13*
%TO.C,J2*%
X55829200Y-80822800D03*
D12*
X58369200Y-80822800D03*
X60909200Y-80822800D03*
%TD*%
D13*
%TO.C,J4*%
X147828000Y-39598600D03*
D12*
X150368000Y-39598600D03*
%TD*%
D13*
%TO.C,J14*%
X101193600Y-86385400D03*
D12*
X98653600Y-86385400D03*
X96113600Y-86385400D03*
%TD*%
D10*
%TO.C,H1*%
X43891200Y-98856800D03*
D11*
X43891200Y-98856800D03*
%TD*%
D17*
%TO.C,Y2*%
X130650000Y-46010000D03*
X130650000Y-50890000D03*
%TD*%
D13*
%TO.C,J1*%
X82067400Y-80822800D03*
D12*
X84607400Y-80822800D03*
X87147400Y-80822800D03*
%TD*%
D13*
%TO.C,J3*%
X44018200Y-80825200D03*
D12*
X46558200Y-80825200D03*
X49098200Y-80825200D03*
%TD*%
D17*
%TO.C,Y3*%
X130800000Y-75090000D03*
X130800000Y-70210000D03*
%TD*%
D13*
%TO.C,J7*%
X63226248Y-97125200D03*
D12*
X60686248Y-97125200D03*
%TD*%
D13*
%TO.C,J9*%
X87049848Y-97101800D03*
D12*
X84509848Y-97101800D03*
X81969848Y-97101800D03*
X79429848Y-97101800D03*
%TD*%
D13*
%TO.C,J17*%
X137464800Y-86309200D03*
D12*
X134924800Y-86309200D03*
X132384800Y-86309200D03*
%TD*%
D13*
%TO.C,J6*%
X53856248Y-97125200D03*
D12*
X51316248Y-97125200D03*
%TD*%
D18*
%TO.C,R5*%
X119462800Y-61112400D03*
X121462800Y-61112400D03*
%TD*%
D19*
%TO.C,C1*%
X112369600Y-77513000D03*
X112369600Y-75438000D03*
%TD*%
D18*
%TO.C,R4*%
X120351800Y-77241400D03*
X122351800Y-77241400D03*
%TD*%
M02*
