%TF.GenerationSoftware,KiCad,Pcbnew,(6.0.10)*%
%TF.CreationDate,2023-01-23T12:48:01+01:00*%
%TF.ProjectId,BMS12v3,424d5331-3276-4332-9e6b-696361645f70,rev?*%
%TF.SameCoordinates,Original*%
%TF.FileFunction,Legend,Bot*%
%TF.FilePolarity,Positive*%
%FSLAX46Y46*%
G04 Gerber Fmt 4.6, Leading zero omitted, Abs format (unit mm)*
G04 Created by KiCad (PCBNEW (6.0.10)) date 2023-01-23 12:48:01*
%MOMM*%
%LPD*%
G01*
G04 APERTURE LIST*
%ADD10C,0.150000*%
%ADD11C,0.010000*%
G04 APERTURE END LIST*
D10*
X150891428Y-116417380D02*
X150224761Y-116417380D01*
X150891428Y-117417380D01*
X150224761Y-117417380D01*
X149843809Y-116893571D02*
X149510476Y-116893571D01*
X149367619Y-117417380D02*
X149843809Y-117417380D01*
X149843809Y-116417380D01*
X149367619Y-116417380D01*
X149081904Y-116417380D02*
X148748571Y-117417380D01*
X148415238Y-116417380D01*
X148129523Y-117131666D02*
X147653333Y-117131666D01*
X148224761Y-117417380D02*
X147891428Y-116417380D01*
X147558095Y-117417380D01*
X146129523Y-116893571D02*
X145986666Y-116941190D01*
X145939047Y-116988809D01*
X145891428Y-117084047D01*
X145891428Y-117226904D01*
X145939047Y-117322142D01*
X145986666Y-117369761D01*
X146081904Y-117417380D01*
X146462857Y-117417380D01*
X146462857Y-116417380D01*
X146129523Y-116417380D01*
X146034285Y-116465000D01*
X145986666Y-116512619D01*
X145939047Y-116607857D01*
X145939047Y-116703095D01*
X145986666Y-116798333D01*
X146034285Y-116845952D01*
X146129523Y-116893571D01*
X146462857Y-116893571D01*
X145462857Y-117417380D02*
X145462857Y-116417380D01*
X145129523Y-117131666D01*
X144796190Y-116417380D01*
X144796190Y-117417380D01*
X144367619Y-117369761D02*
X144224761Y-117417380D01*
X143986666Y-117417380D01*
X143891428Y-117369761D01*
X143843809Y-117322142D01*
X143796190Y-117226904D01*
X143796190Y-117131666D01*
X143843809Y-117036428D01*
X143891428Y-116988809D01*
X143986666Y-116941190D01*
X144177142Y-116893571D01*
X144272380Y-116845952D01*
X144320000Y-116798333D01*
X144367619Y-116703095D01*
X144367619Y-116607857D01*
X144320000Y-116512619D01*
X144272380Y-116465000D01*
X144177142Y-116417380D01*
X143939047Y-116417380D01*
X143796190Y-116465000D01*
X149320000Y-118027380D02*
X149224761Y-118027380D01*
X149129523Y-118075000D01*
X149081904Y-118122619D01*
X149034285Y-118217857D01*
X148986666Y-118408333D01*
X148986666Y-118646428D01*
X149034285Y-118836904D01*
X149081904Y-118932142D01*
X149129523Y-118979761D01*
X149224761Y-119027380D01*
X149320000Y-119027380D01*
X149415238Y-118979761D01*
X149462857Y-118932142D01*
X149510476Y-118836904D01*
X149558095Y-118646428D01*
X149558095Y-118408333D01*
X149510476Y-118217857D01*
X149462857Y-118122619D01*
X149415238Y-118075000D01*
X149320000Y-118027380D01*
X148034285Y-119027380D02*
X148605714Y-119027380D01*
X148320000Y-119027380D02*
X148320000Y-118027380D01*
X148415238Y-118170238D01*
X148510476Y-118265476D01*
X148605714Y-118313095D01*
X146891428Y-117979761D02*
X147748571Y-119265476D01*
X146605714Y-118122619D02*
X146558095Y-118075000D01*
X146462857Y-118027380D01*
X146224761Y-118027380D01*
X146129523Y-118075000D01*
X146081904Y-118122619D01*
X146034285Y-118217857D01*
X146034285Y-118313095D01*
X146081904Y-118455952D01*
X146653333Y-119027380D01*
X146034285Y-119027380D01*
X145700952Y-118027380D02*
X145081904Y-118027380D01*
X145415238Y-118408333D01*
X145272380Y-118408333D01*
X145177142Y-118455952D01*
X145129523Y-118503571D01*
X145081904Y-118598809D01*
X145081904Y-118836904D01*
X145129523Y-118932142D01*
X145177142Y-118979761D01*
X145272380Y-119027380D01*
X145558095Y-119027380D01*
X145653333Y-118979761D01*
X145700952Y-118932142D01*
X150415238Y-120113571D02*
X150748571Y-120113571D01*
X150748571Y-120637380D02*
X150748571Y-119637380D01*
X150272380Y-119637380D01*
X149891428Y-120542142D02*
X149843809Y-120589761D01*
X149891428Y-120637380D01*
X149939047Y-120589761D01*
X149891428Y-120542142D01*
X149891428Y-120637380D01*
X148224761Y-120637380D02*
X148224761Y-119637380D01*
X148224761Y-120589761D02*
X148320000Y-120637380D01*
X148510476Y-120637380D01*
X148605714Y-120589761D01*
X148653333Y-120542142D01*
X148700952Y-120446904D01*
X148700952Y-120161190D01*
X148653333Y-120065952D01*
X148605714Y-120018333D01*
X148510476Y-119970714D01*
X148320000Y-119970714D01*
X148224761Y-120018333D01*
X147367619Y-120589761D02*
X147462857Y-120637380D01*
X147653333Y-120637380D01*
X147748571Y-120589761D01*
X147796190Y-120494523D01*
X147796190Y-120113571D01*
X147748571Y-120018333D01*
X147653333Y-119970714D01*
X147462857Y-119970714D01*
X147367619Y-120018333D01*
X147320000Y-120113571D01*
X147320000Y-120208809D01*
X147796190Y-120304047D01*
X146129523Y-120637380D02*
X146129523Y-119637380D01*
X145748571Y-119637380D01*
X145653333Y-119685000D01*
X145605714Y-119732619D01*
X145558095Y-119827857D01*
X145558095Y-119970714D01*
X145605714Y-120065952D01*
X145653333Y-120113571D01*
X145748571Y-120161190D01*
X146129523Y-120161190D01*
X144700952Y-120637380D02*
X144700952Y-120113571D01*
X144748571Y-120018333D01*
X144843809Y-119970714D01*
X145034285Y-119970714D01*
X145129523Y-120018333D01*
X144700952Y-120589761D02*
X144796190Y-120637380D01*
X145034285Y-120637380D01*
X145129523Y-120589761D01*
X145177142Y-120494523D01*
X145177142Y-120399285D01*
X145129523Y-120304047D01*
X145034285Y-120256428D01*
X144796190Y-120256428D01*
X144700952Y-120208809D01*
X144320000Y-119970714D02*
X143796190Y-119970714D01*
X144320000Y-120637380D01*
X143796190Y-120637380D01*
X149867619Y-122247380D02*
X150200952Y-121771190D01*
X150439047Y-122247380D02*
X150439047Y-121247380D01*
X150058095Y-121247380D01*
X149962857Y-121295000D01*
X149915238Y-121342619D01*
X149867619Y-121437857D01*
X149867619Y-121580714D01*
X149915238Y-121675952D01*
X149962857Y-121723571D01*
X150058095Y-121771190D01*
X150439047Y-121771190D01*
X149439047Y-122152142D02*
X149391428Y-122199761D01*
X149439047Y-122247380D01*
X149486666Y-122199761D01*
X149439047Y-122152142D01*
X149439047Y-122247380D01*
X148200952Y-122247380D02*
X148200952Y-121247380D01*
X147867619Y-121961666D01*
X147534285Y-121247380D01*
X147534285Y-122247380D01*
X146915238Y-122247380D02*
X147010476Y-122199761D01*
X147058095Y-122152142D01*
X147105714Y-122056904D01*
X147105714Y-121771190D01*
X147058095Y-121675952D01*
X147010476Y-121628333D01*
X146915238Y-121580714D01*
X146772380Y-121580714D01*
X146677142Y-121628333D01*
X146629523Y-121675952D01*
X146581904Y-121771190D01*
X146581904Y-122056904D01*
X146629523Y-122152142D01*
X146677142Y-122199761D01*
X146772380Y-122247380D01*
X146915238Y-122247380D01*
X146153333Y-122247380D02*
X146153333Y-121580714D01*
X146153333Y-121771190D02*
X146105714Y-121675952D01*
X146058095Y-121628333D01*
X145962857Y-121580714D01*
X145867619Y-121580714D01*
X145105714Y-122247380D02*
X145105714Y-121723571D01*
X145153333Y-121628333D01*
X145248571Y-121580714D01*
X145439047Y-121580714D01*
X145534285Y-121628333D01*
X145105714Y-122199761D02*
X145200952Y-122247380D01*
X145439047Y-122247380D01*
X145534285Y-122199761D01*
X145581904Y-122104523D01*
X145581904Y-122009285D01*
X145534285Y-121914047D01*
X145439047Y-121866428D01*
X145200952Y-121866428D01*
X145105714Y-121818809D01*
X145248571Y-121199761D02*
X145391428Y-121342619D01*
X144629523Y-121580714D02*
X144629523Y-122247380D01*
X144629523Y-121675952D02*
X144581904Y-121628333D01*
X144486666Y-121580714D01*
X144343809Y-121580714D01*
X144248571Y-121628333D01*
X144200952Y-121723571D01*
X144200952Y-122247380D01*
%TO.C,G\u002A\u002A\u002A*%
G36*
X145938926Y-113809197D02*
G01*
X145938976Y-113953395D01*
X145967186Y-113903125D01*
X145969246Y-113899447D01*
X145983261Y-113874225D01*
X146000019Y-113843810D01*
X146017593Y-113811705D01*
X146034058Y-113781416D01*
X146039737Y-113770933D01*
X146054225Y-113744268D01*
X146067515Y-113719917D01*
X146078330Y-113700213D01*
X146085396Y-113687489D01*
X146098072Y-113665000D01*
X146224625Y-113665000D01*
X146224625Y-114183583D01*
X146108376Y-114183583D01*
X146106970Y-114038250D01*
X146105563Y-113892917D01*
X145947079Y-114183583D01*
X145817167Y-114183583D01*
X145817167Y-113665000D01*
X145938875Y-113665000D01*
X145938926Y-113809197D01*
G37*
D11*
X145938926Y-113809197D02*
X145938976Y-113953395D01*
X145967186Y-113903125D01*
X145969246Y-113899447D01*
X145983261Y-113874225D01*
X146000019Y-113843810D01*
X146017593Y-113811705D01*
X146034058Y-113781416D01*
X146039737Y-113770933D01*
X146054225Y-113744268D01*
X146067515Y-113719917D01*
X146078330Y-113700213D01*
X146085396Y-113687489D01*
X146098072Y-113665000D01*
X146224625Y-113665000D01*
X146224625Y-114183583D01*
X146108376Y-114183583D01*
X146106970Y-114038250D01*
X146105563Y-113892917D01*
X145947079Y-114183583D01*
X145817167Y-114183583D01*
X145817167Y-113665000D01*
X145938875Y-113665000D01*
X145938926Y-113809197D01*
G36*
X150182792Y-112387062D02*
G01*
X150180146Y-112389708D01*
X150177500Y-112387062D01*
X150180146Y-112384416D01*
X150182792Y-112387062D01*
G37*
X150182792Y-112387062D02*
X150180146Y-112389708D01*
X150177500Y-112387062D01*
X150180146Y-112384416D01*
X150182792Y-112387062D01*
G36*
X145584334Y-113188036D02*
G01*
X145584340Y-113217456D01*
X145584409Y-113259267D01*
X145584609Y-113292335D01*
X145585008Y-113317814D01*
X145585674Y-113336859D01*
X145586674Y-113350626D01*
X145588078Y-113360268D01*
X145589952Y-113366940D01*
X145592365Y-113371798D01*
X145595384Y-113375996D01*
X145613903Y-113393357D01*
X145637290Y-113404113D01*
X145661953Y-113406560D01*
X145685735Y-113400873D01*
X145706480Y-113387224D01*
X145722030Y-113365788D01*
X145724795Y-113359556D01*
X145727171Y-113352243D01*
X145729005Y-113343068D01*
X145730364Y-113330785D01*
X145731320Y-113314147D01*
X145731941Y-113291910D01*
X145732298Y-113262827D01*
X145732462Y-113225653D01*
X145732500Y-113179141D01*
X145732500Y-113014125D01*
X145854834Y-113014125D01*
X145853198Y-113198010D01*
X145851563Y-113381895D01*
X145836354Y-113414822D01*
X145827938Y-113430889D01*
X145801992Y-113465585D01*
X145769213Y-113494215D01*
X145731525Y-113515290D01*
X145690852Y-113527324D01*
X145678244Y-113529403D01*
X145663059Y-113531301D01*
X145650412Y-113531304D01*
X145636010Y-113529286D01*
X145615562Y-113525122D01*
X145611676Y-113524261D01*
X145568870Y-113509140D01*
X145531421Y-113485014D01*
X145499769Y-113452236D01*
X145474352Y-113411160D01*
X145459980Y-113381895D01*
X145456600Y-113014125D01*
X145584334Y-113014125D01*
X145584334Y-113188036D01*
G37*
X145584334Y-113188036D02*
X145584340Y-113217456D01*
X145584409Y-113259267D01*
X145584609Y-113292335D01*
X145585008Y-113317814D01*
X145585674Y-113336859D01*
X145586674Y-113350626D01*
X145588078Y-113360268D01*
X145589952Y-113366940D01*
X145592365Y-113371798D01*
X145595384Y-113375996D01*
X145613903Y-113393357D01*
X145637290Y-113404113D01*
X145661953Y-113406560D01*
X145685735Y-113400873D01*
X145706480Y-113387224D01*
X145722030Y-113365788D01*
X145724795Y-113359556D01*
X145727171Y-113352243D01*
X145729005Y-113343068D01*
X145730364Y-113330785D01*
X145731320Y-113314147D01*
X145731941Y-113291910D01*
X145732298Y-113262827D01*
X145732462Y-113225653D01*
X145732500Y-113179141D01*
X145732500Y-113014125D01*
X145854834Y-113014125D01*
X145853198Y-113198010D01*
X145851563Y-113381895D01*
X145836354Y-113414822D01*
X145827938Y-113430889D01*
X145801992Y-113465585D01*
X145769213Y-113494215D01*
X145731525Y-113515290D01*
X145690852Y-113527324D01*
X145678244Y-113529403D01*
X145663059Y-113531301D01*
X145650412Y-113531304D01*
X145636010Y-113529286D01*
X145615562Y-113525122D01*
X145611676Y-113524261D01*
X145568870Y-113509140D01*
X145531421Y-113485014D01*
X145499769Y-113452236D01*
X145474352Y-113411160D01*
X145459980Y-113381895D01*
X145456600Y-113014125D01*
X145584334Y-113014125D01*
X145584334Y-113188036D01*
G36*
X142896167Y-113532708D02*
G01*
X142557500Y-113532708D01*
X142557500Y-113411000D01*
X142769167Y-113411000D01*
X142769167Y-113331625D01*
X142599834Y-113331625D01*
X142599834Y-113209916D01*
X142769167Y-113209916D01*
X142769167Y-113135833D01*
X142557500Y-113135833D01*
X142557500Y-113014125D01*
X142896167Y-113014125D01*
X142896167Y-113532708D01*
G37*
X142896167Y-113532708D02*
X142557500Y-113532708D01*
X142557500Y-113411000D01*
X142769167Y-113411000D01*
X142769167Y-113331625D01*
X142599834Y-113331625D01*
X142599834Y-113209916D01*
X142769167Y-113209916D01*
X142769167Y-113135833D01*
X142557500Y-113135833D01*
X142557500Y-113014125D01*
X142896167Y-113014125D01*
X142896167Y-113532708D01*
G36*
X143222928Y-113532668D02*
G01*
X143204981Y-113532444D01*
X143175897Y-113531345D01*
X143149205Y-113529540D01*
X143129000Y-113527264D01*
X143125770Y-113526736D01*
X143079074Y-113513645D01*
X143035414Y-113491559D01*
X142996241Y-113461784D01*
X142963006Y-113425624D01*
X142937159Y-113384387D01*
X142920154Y-113339377D01*
X142918162Y-113331184D01*
X142912215Y-113282988D01*
X143035664Y-113282988D01*
X143042688Y-113317074D01*
X143058849Y-113347945D01*
X143083533Y-113374275D01*
X143116124Y-113394735D01*
X143123995Y-113398488D01*
X143135543Y-113403796D01*
X143144387Y-113406553D01*
X143150885Y-113405756D01*
X143155398Y-113400400D01*
X143158283Y-113389482D01*
X143159902Y-113371998D01*
X143160613Y-113346944D01*
X143160776Y-113313315D01*
X143160750Y-113270109D01*
X143160750Y-113134510D01*
X143144453Y-113137769D01*
X143141945Y-113138300D01*
X143109125Y-113150795D01*
X143080398Y-113171958D01*
X143057407Y-113200244D01*
X143041800Y-113234110D01*
X143038391Y-113247017D01*
X143035664Y-113282988D01*
X142912215Y-113282988D01*
X142911958Y-113280905D01*
X142915621Y-113231342D01*
X142928558Y-113183759D01*
X142950178Y-113139419D01*
X142979888Y-113099587D01*
X143017095Y-113065525D01*
X143061207Y-113038498D01*
X143079685Y-113030224D01*
X143109428Y-113020226D01*
X143141971Y-113013639D01*
X143179844Y-113010006D01*
X143225573Y-113008873D01*
X143282459Y-113008833D01*
X143282459Y-113532708D01*
X143222928Y-113532668D01*
G37*
X143222928Y-113532668D02*
X143204981Y-113532444D01*
X143175897Y-113531345D01*
X143149205Y-113529540D01*
X143129000Y-113527264D01*
X143125770Y-113526736D01*
X143079074Y-113513645D01*
X143035414Y-113491559D01*
X142996241Y-113461784D01*
X142963006Y-113425624D01*
X142937159Y-113384387D01*
X142920154Y-113339377D01*
X142918162Y-113331184D01*
X142912215Y-113282988D01*
X143035664Y-113282988D01*
X143042688Y-113317074D01*
X143058849Y-113347945D01*
X143083533Y-113374275D01*
X143116124Y-113394735D01*
X143123995Y-113398488D01*
X143135543Y-113403796D01*
X143144387Y-113406553D01*
X143150885Y-113405756D01*
X143155398Y-113400400D01*
X143158283Y-113389482D01*
X143159902Y-113371998D01*
X143160613Y-113346944D01*
X143160776Y-113313315D01*
X143160750Y-113270109D01*
X143160750Y-113134510D01*
X143144453Y-113137769D01*
X143141945Y-113138300D01*
X143109125Y-113150795D01*
X143080398Y-113171958D01*
X143057407Y-113200244D01*
X143041800Y-113234110D01*
X143038391Y-113247017D01*
X143035664Y-113282988D01*
X142912215Y-113282988D01*
X142911958Y-113280905D01*
X142915621Y-113231342D01*
X142928558Y-113183759D01*
X142950178Y-113139419D01*
X142979888Y-113099587D01*
X143017095Y-113065525D01*
X143061207Y-113038498D01*
X143079685Y-113030224D01*
X143109428Y-113020226D01*
X143141971Y-113013639D01*
X143179844Y-113010006D01*
X143225573Y-113008873D01*
X143282459Y-113008833D01*
X143282459Y-113532708D01*
X143222928Y-113532668D01*
G36*
X144843500Y-114183583D02*
G01*
X144515417Y-114183583D01*
X144515417Y-114061875D01*
X144721792Y-114061875D01*
X144721792Y-113987791D01*
X144557750Y-113987791D01*
X144557750Y-113860791D01*
X144721792Y-113860791D01*
X144721792Y-113786708D01*
X144515417Y-113786708D01*
X144515417Y-113665000D01*
X144843500Y-113665000D01*
X144843500Y-114183583D01*
G37*
X144843500Y-114183583D02*
X144515417Y-114183583D01*
X144515417Y-114061875D01*
X144721792Y-114061875D01*
X144721792Y-113987791D01*
X144557750Y-113987791D01*
X144557750Y-113860791D01*
X144721792Y-113860791D01*
X144721792Y-113786708D01*
X144515417Y-113786708D01*
X144515417Y-113665000D01*
X144843500Y-113665000D01*
X144843500Y-114183583D01*
G36*
X145025733Y-113400146D02*
G01*
X145036239Y-113430822D01*
X145037237Y-113433740D01*
X145047229Y-113463513D01*
X145055650Y-113489606D01*
X145062017Y-113510443D01*
X145065846Y-113524447D01*
X145066654Y-113530041D01*
X145060994Y-113531050D01*
X145046826Y-113531911D01*
X145026369Y-113532494D01*
X145001810Y-113532708D01*
X144939632Y-113532708D01*
X144919360Y-113471854D01*
X144839583Y-113470396D01*
X144759806Y-113468937D01*
X144749627Y-113499500D01*
X144739448Y-113530062D01*
X144675058Y-113531548D01*
X144673633Y-113531580D01*
X144649129Y-113531782D01*
X144629114Y-113531320D01*
X144615617Y-113530282D01*
X144610667Y-113528755D01*
X144610841Y-113527533D01*
X144613290Y-113518105D01*
X144618024Y-113502142D01*
X144624271Y-113482290D01*
X144628104Y-113470409D01*
X144638457Y-113438378D01*
X144650397Y-113401498D01*
X144663520Y-113361013D01*
X144669192Y-113343531D01*
X144801224Y-113343531D01*
X144801272Y-113343738D01*
X144806988Y-113345641D01*
X144820373Y-113346988D01*
X144838775Y-113347500D01*
X144845120Y-113347466D01*
X144863139Y-113346644D01*
X144872314Y-113344534D01*
X144873987Y-113340885D01*
X144872516Y-113336711D01*
X144868023Y-113323768D01*
X144861519Y-113304939D01*
X144853857Y-113282682D01*
X144836123Y-113231093D01*
X144818702Y-113285328D01*
X144813022Y-113303216D01*
X144806936Y-113322955D01*
X144802777Y-113337146D01*
X144801224Y-113343531D01*
X144669192Y-113343531D01*
X144677421Y-113318166D01*
X144691696Y-113274199D01*
X144705942Y-113230355D01*
X144719754Y-113187878D01*
X144732728Y-113148010D01*
X144744459Y-113111995D01*
X144754545Y-113081076D01*
X144762580Y-113056495D01*
X144768161Y-113039496D01*
X144770884Y-113031322D01*
X144776835Y-113014125D01*
X144835303Y-113014133D01*
X144893771Y-113014142D01*
X144948464Y-113174206D01*
X144950140Y-113179110D01*
X144965644Y-113224474D01*
X144981763Y-113271619D01*
X144997688Y-113318185D01*
X145005454Y-113340885D01*
X145012614Y-113361814D01*
X145025733Y-113400146D01*
G37*
X145025733Y-113400146D02*
X145036239Y-113430822D01*
X145037237Y-113433740D01*
X145047229Y-113463513D01*
X145055650Y-113489606D01*
X145062017Y-113510443D01*
X145065846Y-113524447D01*
X145066654Y-113530041D01*
X145060994Y-113531050D01*
X145046826Y-113531911D01*
X145026369Y-113532494D01*
X145001810Y-113532708D01*
X144939632Y-113532708D01*
X144919360Y-113471854D01*
X144839583Y-113470396D01*
X144759806Y-113468937D01*
X144749627Y-113499500D01*
X144739448Y-113530062D01*
X144675058Y-113531548D01*
X144673633Y-113531580D01*
X144649129Y-113531782D01*
X144629114Y-113531320D01*
X144615617Y-113530282D01*
X144610667Y-113528755D01*
X144610841Y-113527533D01*
X144613290Y-113518105D01*
X144618024Y-113502142D01*
X144624271Y-113482290D01*
X144628104Y-113470409D01*
X144638457Y-113438378D01*
X144650397Y-113401498D01*
X144663520Y-113361013D01*
X144669192Y-113343531D01*
X144801224Y-113343531D01*
X144801272Y-113343738D01*
X144806988Y-113345641D01*
X144820373Y-113346988D01*
X144838775Y-113347500D01*
X144845120Y-113347466D01*
X144863139Y-113346644D01*
X144872314Y-113344534D01*
X144873987Y-113340885D01*
X144872516Y-113336711D01*
X144868023Y-113323768D01*
X144861519Y-113304939D01*
X144853857Y-113282682D01*
X144836123Y-113231093D01*
X144818702Y-113285328D01*
X144813022Y-113303216D01*
X144806936Y-113322955D01*
X144802777Y-113337146D01*
X144801224Y-113343531D01*
X144669192Y-113343531D01*
X144677421Y-113318166D01*
X144691696Y-113274199D01*
X144705942Y-113230355D01*
X144719754Y-113187878D01*
X144732728Y-113148010D01*
X144744459Y-113111995D01*
X144754545Y-113081076D01*
X144762580Y-113056495D01*
X144768161Y-113039496D01*
X144770884Y-113031322D01*
X144776835Y-113014125D01*
X144835303Y-113014133D01*
X144893771Y-113014142D01*
X144948464Y-113174206D01*
X144950140Y-113179110D01*
X144965644Y-113224474D01*
X144981763Y-113271619D01*
X144997688Y-113318185D01*
X145005454Y-113340885D01*
X145012614Y-113361814D01*
X145025733Y-113400146D01*
G36*
X146652940Y-113667724D02*
G01*
X146700303Y-113679642D01*
X146745042Y-113701280D01*
X146786103Y-113732513D01*
X146803584Y-113750319D01*
X146833250Y-113790913D01*
X146854182Y-113835487D01*
X146866350Y-113882665D01*
X146869722Y-113931072D01*
X146864268Y-113979333D01*
X146849955Y-114026073D01*
X146826753Y-114069917D01*
X146794631Y-114109490D01*
X146768664Y-114132958D01*
X146732657Y-114156423D01*
X146691363Y-114173366D01*
X146662477Y-114179839D01*
X146624577Y-114182949D01*
X146585535Y-114181498D01*
X146549852Y-114175421D01*
X146525889Y-114167381D01*
X146496596Y-114153562D01*
X146469903Y-114137104D01*
X146449734Y-114120170D01*
X146437105Y-114106854D01*
X146478420Y-114063277D01*
X146519735Y-114019701D01*
X146533206Y-114030297D01*
X146541602Y-114036476D01*
X146574831Y-114053547D01*
X146609272Y-114060614D01*
X146643602Y-114057737D01*
X146676494Y-114044977D01*
X146706626Y-114022394D01*
X146724203Y-114003050D01*
X146737138Y-113981136D01*
X146743902Y-113956016D01*
X146745855Y-113924291D01*
X146745282Y-113906715D01*
X146740145Y-113876444D01*
X146728771Y-113851338D01*
X146710068Y-113828464D01*
X146702837Y-113821734D01*
X146672460Y-113801913D01*
X146638841Y-113791256D01*
X146603830Y-113789902D01*
X146569281Y-113797986D01*
X146537044Y-113815646D01*
X146518733Y-113829166D01*
X146477933Y-113785447D01*
X146437133Y-113741729D01*
X146450521Y-113727605D01*
X146459259Y-113719938D01*
X146475749Y-113708279D01*
X146494188Y-113697343D01*
X146505618Y-113691567D01*
X146554544Y-113673560D01*
X146604002Y-113665655D01*
X146652940Y-113667724D01*
G37*
X146652940Y-113667724D02*
X146700303Y-113679642D01*
X146745042Y-113701280D01*
X146786103Y-113732513D01*
X146803584Y-113750319D01*
X146833250Y-113790913D01*
X146854182Y-113835487D01*
X146866350Y-113882665D01*
X146869722Y-113931072D01*
X146864268Y-113979333D01*
X146849955Y-114026073D01*
X146826753Y-114069917D01*
X146794631Y-114109490D01*
X146768664Y-114132958D01*
X146732657Y-114156423D01*
X146691363Y-114173366D01*
X146662477Y-114179839D01*
X146624577Y-114182949D01*
X146585535Y-114181498D01*
X146549852Y-114175421D01*
X146525889Y-114167381D01*
X146496596Y-114153562D01*
X146469903Y-114137104D01*
X146449734Y-114120170D01*
X146437105Y-114106854D01*
X146478420Y-114063277D01*
X146519735Y-114019701D01*
X146533206Y-114030297D01*
X146541602Y-114036476D01*
X146574831Y-114053547D01*
X146609272Y-114060614D01*
X146643602Y-114057737D01*
X146676494Y-114044977D01*
X146706626Y-114022394D01*
X146724203Y-114003050D01*
X146737138Y-113981136D01*
X146743902Y-113956016D01*
X146745855Y-113924291D01*
X146745282Y-113906715D01*
X146740145Y-113876444D01*
X146728771Y-113851338D01*
X146710068Y-113828464D01*
X146702837Y-113821734D01*
X146672460Y-113801913D01*
X146638841Y-113791256D01*
X146603830Y-113789902D01*
X146569281Y-113797986D01*
X146537044Y-113815646D01*
X146518733Y-113829166D01*
X146477933Y-113785447D01*
X146437133Y-113741729D01*
X146450521Y-113727605D01*
X146459259Y-113719938D01*
X146475749Y-113708279D01*
X146494188Y-113697343D01*
X146505618Y-113691567D01*
X146554544Y-113673560D01*
X146604002Y-113665655D01*
X146652940Y-113667724D01*
G36*
X150886584Y-112365895D02*
G01*
X150883938Y-112368541D01*
X150881292Y-112365895D01*
X150883938Y-112363250D01*
X150886584Y-112365895D01*
G37*
X150886584Y-112365895D02*
X150883938Y-112368541D01*
X150881292Y-112365895D01*
X150883938Y-112363250D01*
X150886584Y-112365895D01*
G36*
X146052162Y-113036614D02*
G01*
X146053021Y-113038963D01*
X146057931Y-113052798D01*
X146065188Y-113073613D01*
X146074264Y-113099863D01*
X146084632Y-113130004D01*
X146095766Y-113162491D01*
X146107138Y-113195782D01*
X146118222Y-113228331D01*
X146128491Y-113258595D01*
X146137418Y-113285030D01*
X146144476Y-113306092D01*
X146149138Y-113320236D01*
X146150878Y-113325919D01*
X146151971Y-113324815D01*
X146156151Y-113315281D01*
X146163120Y-113297396D01*
X146172533Y-113272117D01*
X146184042Y-113240403D01*
X146197301Y-113203212D01*
X146211962Y-113161503D01*
X146227678Y-113116235D01*
X146244103Y-113068364D01*
X146262605Y-113014125D01*
X146325788Y-113014125D01*
X146350256Y-113014230D01*
X146370377Y-113014514D01*
X146384072Y-113014934D01*
X146389263Y-113015447D01*
X146389842Y-113020241D01*
X146391018Y-113034477D01*
X146392673Y-113056877D01*
X146394728Y-113086194D01*
X146397104Y-113121180D01*
X146399722Y-113160585D01*
X146402502Y-113203161D01*
X146405366Y-113247661D01*
X146408235Y-113292836D01*
X146411028Y-113337437D01*
X146413668Y-113380217D01*
X146416073Y-113419927D01*
X146418167Y-113455319D01*
X146419868Y-113485144D01*
X146421099Y-113508155D01*
X146421780Y-113523103D01*
X146421831Y-113528739D01*
X146417113Y-113530160D01*
X146403747Y-113531481D01*
X146383968Y-113532378D01*
X146359978Y-113532708D01*
X146300164Y-113532708D01*
X146296891Y-113489052D01*
X146295878Y-113475059D01*
X146293928Y-113446437D01*
X146291881Y-113414750D01*
X146290041Y-113384651D01*
X146286466Y-113323906D01*
X146274931Y-113355547D01*
X146273870Y-113358467D01*
X146267187Y-113377146D01*
X146258303Y-113402265D01*
X146248252Y-113430895D01*
X146238066Y-113460110D01*
X146212736Y-113533032D01*
X146151892Y-113531547D01*
X146091047Y-113530062D01*
X146058004Y-113434820D01*
X146051608Y-113416389D01*
X146041191Y-113386940D01*
X146033330Y-113366824D01*
X146027584Y-113356218D01*
X146023512Y-113355297D01*
X146020674Y-113364239D01*
X146018629Y-113383220D01*
X146016936Y-113412419D01*
X146015154Y-113452010D01*
X146011604Y-113532708D01*
X145885116Y-113532708D01*
X145888201Y-113499635D01*
X145889070Y-113488577D01*
X145890500Y-113467433D01*
X145892325Y-113438466D01*
X145894459Y-113403128D01*
X145896814Y-113362872D01*
X145899301Y-113319151D01*
X145901834Y-113273416D01*
X145904088Y-113232658D01*
X145906584Y-113188643D01*
X145908958Y-113147933D01*
X145911120Y-113111980D01*
X145912984Y-113082239D01*
X145914462Y-113060160D01*
X145915467Y-113047197D01*
X145918551Y-113014125D01*
X146043834Y-113014125D01*
X146052162Y-113036614D01*
G37*
X146052162Y-113036614D02*
X146053021Y-113038963D01*
X146057931Y-113052798D01*
X146065188Y-113073613D01*
X146074264Y-113099863D01*
X146084632Y-113130004D01*
X146095766Y-113162491D01*
X146107138Y-113195782D01*
X146118222Y-113228331D01*
X146128491Y-113258595D01*
X146137418Y-113285030D01*
X146144476Y-113306092D01*
X146149138Y-113320236D01*
X146150878Y-113325919D01*
X146151971Y-113324815D01*
X146156151Y-113315281D01*
X146163120Y-113297396D01*
X146172533Y-113272117D01*
X146184042Y-113240403D01*
X146197301Y-113203212D01*
X146211962Y-113161503D01*
X146227678Y-113116235D01*
X146244103Y-113068364D01*
X146262605Y-113014125D01*
X146325788Y-113014125D01*
X146350256Y-113014230D01*
X146370377Y-113014514D01*
X146384072Y-113014934D01*
X146389263Y-113015447D01*
X146389842Y-113020241D01*
X146391018Y-113034477D01*
X146392673Y-113056877D01*
X146394728Y-113086194D01*
X146397104Y-113121180D01*
X146399722Y-113160585D01*
X146402502Y-113203161D01*
X146405366Y-113247661D01*
X146408235Y-113292836D01*
X146411028Y-113337437D01*
X146413668Y-113380217D01*
X146416073Y-113419927D01*
X146418167Y-113455319D01*
X146419868Y-113485144D01*
X146421099Y-113508155D01*
X146421780Y-113523103D01*
X146421831Y-113528739D01*
X146417113Y-113530160D01*
X146403747Y-113531481D01*
X146383968Y-113532378D01*
X146359978Y-113532708D01*
X146300164Y-113532708D01*
X146296891Y-113489052D01*
X146295878Y-113475059D01*
X146293928Y-113446437D01*
X146291881Y-113414750D01*
X146290041Y-113384651D01*
X146286466Y-113323906D01*
X146274931Y-113355547D01*
X146273870Y-113358467D01*
X146267187Y-113377146D01*
X146258303Y-113402265D01*
X146248252Y-113430895D01*
X146238066Y-113460110D01*
X146212736Y-113533032D01*
X146151892Y-113531547D01*
X146091047Y-113530062D01*
X146058004Y-113434820D01*
X146051608Y-113416389D01*
X146041191Y-113386940D01*
X146033330Y-113366824D01*
X146027584Y-113356218D01*
X146023512Y-113355297D01*
X146020674Y-113364239D01*
X146018629Y-113383220D01*
X146016936Y-113412419D01*
X146015154Y-113452010D01*
X146011604Y-113532708D01*
X145885116Y-113532708D01*
X145888201Y-113499635D01*
X145889070Y-113488577D01*
X145890500Y-113467433D01*
X145892325Y-113438466D01*
X145894459Y-113403128D01*
X145896814Y-113362872D01*
X145899301Y-113319151D01*
X145901834Y-113273416D01*
X145904088Y-113232658D01*
X145906584Y-113188643D01*
X145908958Y-113147933D01*
X145911120Y-113111980D01*
X145912984Y-113082239D01*
X145914462Y-113060160D01*
X145915467Y-113047197D01*
X145918551Y-113014125D01*
X146043834Y-113014125D01*
X146052162Y-113036614D01*
G36*
X147270502Y-114052956D02*
G01*
X147280979Y-114084524D01*
X147314033Y-114183903D01*
X147185959Y-114180937D01*
X147177123Y-114154479D01*
X147168287Y-114128020D01*
X147089331Y-114126567D01*
X147010375Y-114125113D01*
X146994499Y-114180937D01*
X146930001Y-114182420D01*
X146865503Y-114183904D01*
X146875493Y-114153316D01*
X146879141Y-114141954D01*
X146885635Y-114121488D01*
X146894446Y-114093586D01*
X146905145Y-114059611D01*
X146917302Y-114020926D01*
X146924377Y-113998375D01*
X147051376Y-113998375D01*
X147088358Y-113998375D01*
X147094154Y-113998346D01*
X147112134Y-113997538D01*
X147121248Y-113995429D01*
X147122846Y-113991760D01*
X147121952Y-113989238D01*
X147118069Y-113977710D01*
X147112229Y-113960023D01*
X147105314Y-113938843D01*
X147101694Y-113927979D01*
X147095143Y-113909782D01*
X147089945Y-113897224D01*
X147086986Y-113892541D01*
X147085122Y-113895250D01*
X147080608Y-113906216D01*
X147074488Y-113923654D01*
X147067536Y-113945458D01*
X147051376Y-113998375D01*
X146924377Y-113998375D01*
X146930489Y-113978893D01*
X146944276Y-113934875D01*
X146957022Y-113894189D01*
X146970606Y-113850913D01*
X146983330Y-113810462D01*
X146994735Y-113774290D01*
X147004363Y-113743854D01*
X147011753Y-113720609D01*
X147016448Y-113706010D01*
X147029828Y-113665000D01*
X147086279Y-113665031D01*
X147142730Y-113665063D01*
X147195327Y-113825104D01*
X147196560Y-113828856D01*
X147211563Y-113874455D01*
X147227256Y-113922082D01*
X147242842Y-113969318D01*
X147250258Y-113991760D01*
X147257523Y-114013749D01*
X147270502Y-114052956D01*
G37*
X147270502Y-114052956D02*
X147280979Y-114084524D01*
X147314033Y-114183903D01*
X147185959Y-114180937D01*
X147177123Y-114154479D01*
X147168287Y-114128020D01*
X147089331Y-114126567D01*
X147010375Y-114125113D01*
X146994499Y-114180937D01*
X146930001Y-114182420D01*
X146865503Y-114183904D01*
X146875493Y-114153316D01*
X146879141Y-114141954D01*
X146885635Y-114121488D01*
X146894446Y-114093586D01*
X146905145Y-114059611D01*
X146917302Y-114020926D01*
X146924377Y-113998375D01*
X147051376Y-113998375D01*
X147088358Y-113998375D01*
X147094154Y-113998346D01*
X147112134Y-113997538D01*
X147121248Y-113995429D01*
X147122846Y-113991760D01*
X147121952Y-113989238D01*
X147118069Y-113977710D01*
X147112229Y-113960023D01*
X147105314Y-113938843D01*
X147101694Y-113927979D01*
X147095143Y-113909782D01*
X147089945Y-113897224D01*
X147086986Y-113892541D01*
X147085122Y-113895250D01*
X147080608Y-113906216D01*
X147074488Y-113923654D01*
X147067536Y-113945458D01*
X147051376Y-113998375D01*
X146924377Y-113998375D01*
X146930489Y-113978893D01*
X146944276Y-113934875D01*
X146957022Y-113894189D01*
X146970606Y-113850913D01*
X146983330Y-113810462D01*
X146994735Y-113774290D01*
X147004363Y-113743854D01*
X147011753Y-113720609D01*
X147016448Y-113706010D01*
X147029828Y-113665000D01*
X147086279Y-113665031D01*
X147142730Y-113665063D01*
X147195327Y-113825104D01*
X147196560Y-113828856D01*
X147211563Y-113874455D01*
X147227256Y-113922082D01*
X147242842Y-113969318D01*
X147250258Y-113991760D01*
X147257523Y-114013749D01*
X147270502Y-114052956D01*
G36*
X151192641Y-113116171D02*
G01*
X151188209Y-113120153D01*
X151187725Y-113121572D01*
X151181594Y-113123394D01*
X151178308Y-113123398D01*
X151166135Y-113125371D01*
X151150774Y-113129299D01*
X151135611Y-113134143D01*
X151124030Y-113138868D01*
X151119417Y-113142437D01*
X151119175Y-113143742D01*
X151114712Y-113144133D01*
X151111629Y-113143465D01*
X151100107Y-113143985D01*
X151084285Y-113146510D01*
X151074170Y-113148310D01*
X151050688Y-113151323D01*
X151027846Y-113153075D01*
X151026980Y-113153111D01*
X151009817Y-113154259D01*
X150999549Y-113157120D01*
X150992630Y-113163575D01*
X150985513Y-113175500D01*
X150982304Y-113181213D01*
X150974288Y-113194486D01*
X150968605Y-113202546D01*
X150966612Y-113204857D01*
X150958475Y-113214773D01*
X150948164Y-113227715D01*
X150934733Y-113243820D01*
X150895060Y-113282957D01*
X150846069Y-113320903D01*
X150835685Y-113328222D01*
X150818997Y-113340321D01*
X150806845Y-113349580D01*
X150801326Y-113354428D01*
X150800532Y-113355421D01*
X150794761Y-113358645D01*
X150793686Y-113358834D01*
X150784992Y-113362002D01*
X150769999Y-113368280D01*
X150751176Y-113376651D01*
X150747549Y-113378288D01*
X150725456Y-113387710D01*
X150704792Y-113395721D01*
X150689613Y-113400734D01*
X150686519Y-113401586D01*
X150668859Y-113407005D01*
X150654415Y-113412208D01*
X150643058Y-113415721D01*
X150631730Y-113416865D01*
X150627112Y-113416972D01*
X150619818Y-113420833D01*
X150616281Y-113423214D01*
X150606552Y-113423228D01*
X150600118Y-113422504D01*
X150588414Y-113425047D01*
X150586899Y-113425679D01*
X150575015Y-113427601D01*
X150555383Y-113428654D01*
X150530234Y-113428896D01*
X150501797Y-113428388D01*
X150472301Y-113427189D01*
X150443975Y-113425358D01*
X150419048Y-113422953D01*
X150399750Y-113420035D01*
X150396002Y-113419298D01*
X150377097Y-113416036D01*
X150362847Y-113414316D01*
X150356094Y-113414498D01*
X150354980Y-113414967D01*
X150352125Y-113411732D01*
X150352068Y-113411296D01*
X150346597Y-113406769D01*
X150334928Y-113402928D01*
X150331990Y-113402238D01*
X150314055Y-113396373D01*
X150290854Y-113386968D01*
X150264540Y-113375097D01*
X150237266Y-113361836D01*
X150211185Y-113348259D01*
X150188449Y-113335442D01*
X150171211Y-113324460D01*
X150161625Y-113316388D01*
X150157248Y-113312324D01*
X150146714Y-113303416D01*
X150132642Y-113291937D01*
X150117371Y-113279267D01*
X150089321Y-113252805D01*
X150068407Y-113227588D01*
X150059412Y-113215552D01*
X150050500Y-113204612D01*
X150048508Y-113202172D01*
X150040126Y-113189986D01*
X150031199Y-113174991D01*
X150023861Y-113163358D01*
X150014735Y-113155780D01*
X150002095Y-113153201D01*
X149992495Y-113152354D01*
X149973655Y-113150256D01*
X149951141Y-113147472D01*
X149928502Y-113144461D01*
X149909286Y-113141682D01*
X149897042Y-113139596D01*
X149890246Y-113137617D01*
X149875895Y-113132707D01*
X149858288Y-113126228D01*
X149843476Y-113121245D01*
X149829378Y-113117958D01*
X149821752Y-113118058D01*
X149819187Y-113119135D01*
X149819808Y-113115484D01*
X149818919Y-113111118D01*
X149812485Y-113108853D01*
X149805383Y-113110697D01*
X149801992Y-113109283D01*
X149794373Y-113102711D01*
X149793680Y-113102225D01*
X150250006Y-113102225D01*
X150255833Y-113110565D01*
X150257862Y-113113065D01*
X150291962Y-113146577D01*
X150334225Y-113174878D01*
X150383278Y-113197198D01*
X150437747Y-113212763D01*
X150462562Y-113216958D01*
X150519150Y-113219611D01*
X150575943Y-113213422D01*
X150630458Y-113198768D01*
X150680209Y-113176026D01*
X150688480Y-113171074D01*
X150706355Y-113159275D01*
X150724055Y-113146435D01*
X150739399Y-113134245D01*
X150750205Y-113124397D01*
X150754292Y-113118583D01*
X150755528Y-113114822D01*
X150762380Y-113107273D01*
X150762583Y-113107123D01*
X150766063Y-113102679D01*
X150762475Y-113097868D01*
X150750473Y-113090828D01*
X150746267Y-113088551D01*
X150732489Y-113080278D01*
X150723487Y-113073669D01*
X150719321Y-113070273D01*
X150712391Y-113067041D01*
X150712305Y-113067039D01*
X150705644Y-113063764D01*
X150695571Y-113056133D01*
X150689498Y-113050932D01*
X150675338Y-113038832D01*
X150659953Y-113025706D01*
X150655508Y-113021727D01*
X150640028Y-113006220D01*
X150622290Y-112986719D01*
X150605318Y-112966500D01*
X150597797Y-112957096D01*
X150583810Y-112939624D01*
X150572605Y-112925647D01*
X150566095Y-112917552D01*
X150562226Y-112911633D01*
X150562521Y-112908210D01*
X150563655Y-112907787D01*
X150560757Y-112904241D01*
X150559229Y-112902564D01*
X150553384Y-112892750D01*
X150545358Y-112876666D01*
X150536418Y-112856783D01*
X150532101Y-112847024D01*
X150523973Y-112830444D01*
X150517584Y-112819760D01*
X150514038Y-112816934D01*
X150512512Y-112817525D01*
X150513602Y-112812092D01*
X150514562Y-112807243D01*
X150511791Y-112800378D01*
X150510356Y-112799841D01*
X150505145Y-112802957D01*
X150502056Y-112810820D01*
X150503233Y-112818810D01*
X150503910Y-112820453D01*
X150500604Y-112823625D01*
X150499005Y-112823801D01*
X150496095Y-112827593D01*
X150495051Y-112831586D01*
X150490173Y-112843190D01*
X150482430Y-112859847D01*
X150473020Y-112879151D01*
X150463141Y-112898698D01*
X150453993Y-112916084D01*
X150446774Y-112928902D01*
X150442682Y-112934750D01*
X150434220Y-112943229D01*
X150425877Y-112955110D01*
X150420123Y-112966514D01*
X150419192Y-112973736D01*
X150420296Y-112976083D01*
X150418391Y-112975913D01*
X150417426Y-112975690D01*
X150410312Y-112979518D01*
X150398660Y-112989129D01*
X150384445Y-113002950D01*
X150377641Y-113009681D01*
X150358747Y-113026454D01*
X150336393Y-113044482D01*
X150312849Y-113062100D01*
X150290383Y-113077646D01*
X150271262Y-113089456D01*
X150257754Y-113095866D01*
X150251584Y-113098207D01*
X150250006Y-113102225D01*
X149793680Y-113102225D01*
X149786970Y-113097518D01*
X149779381Y-113096914D01*
X149777037Y-113097943D01*
X149777239Y-113094698D01*
X149776762Y-113090102D01*
X149768898Y-113085199D01*
X149762126Y-113082473D01*
X149742241Y-113070762D01*
X149715523Y-113051166D01*
X149714341Y-113050215D01*
X149704570Y-113041646D01*
X149690393Y-113028578D01*
X149674449Y-113013434D01*
X149669765Y-113008997D01*
X149655703Y-112996678D01*
X149645043Y-112988825D01*
X149639797Y-112986976D01*
X149638527Y-112987866D01*
X149639128Y-112984883D01*
X149639184Y-112984769D01*
X149637354Y-112978050D01*
X149630055Y-112966049D01*
X149618809Y-112951285D01*
X149618552Y-112950974D01*
X149606888Y-112936215D01*
X149598582Y-112924391D01*
X149595417Y-112918037D01*
X149594764Y-112916163D01*
X149589308Y-112916734D01*
X149586425Y-112918009D01*
X149586853Y-112914597D01*
X149587317Y-112911644D01*
X149584292Y-112901104D01*
X149577087Y-112887426D01*
X149573123Y-112880802D01*
X149566347Y-112867304D01*
X149563667Y-112858438D01*
X149563280Y-112855073D01*
X149559160Y-112847922D01*
X149558168Y-112846727D01*
X149554083Y-112837494D01*
X149548641Y-112821503D01*
X149542741Y-112801307D01*
X149540778Y-112794117D01*
X149535179Y-112773929D01*
X149530657Y-112758092D01*
X149528047Y-112749541D01*
X149527715Y-112748571D01*
X149525365Y-112739299D01*
X149523738Y-112726812D01*
X149522722Y-112709268D01*
X149522203Y-112684826D01*
X149522117Y-112663275D01*
X149714063Y-112663275D01*
X149714599Y-112675944D01*
X149716128Y-112680782D01*
X149717350Y-112682148D01*
X149719374Y-112691126D01*
X149720488Y-112705715D01*
X149721016Y-112713647D01*
X149723498Y-112726601D01*
X149727136Y-112732593D01*
X149729084Y-112733643D01*
X149730075Y-112739410D01*
X149729212Y-112742041D01*
X149731284Y-112750864D01*
X149733050Y-112753834D01*
X149735825Y-112760125D01*
X149736018Y-112761389D01*
X149739264Y-112772310D01*
X149744103Y-112782245D01*
X149748350Y-112786583D01*
X149749959Y-112787163D01*
X149752403Y-112793608D01*
X149752415Y-112793986D01*
X149756188Y-112804182D01*
X149765533Y-112819486D01*
X149778742Y-112837554D01*
X149794107Y-112856040D01*
X149809920Y-112872597D01*
X149818689Y-112880571D01*
X149854241Y-112907082D01*
X149894240Y-112929746D01*
X149934003Y-112945800D01*
X149935020Y-112946114D01*
X149990021Y-112957708D01*
X150044729Y-112958988D01*
X150098200Y-112950200D01*
X150149493Y-112931588D01*
X150197666Y-112903398D01*
X150241776Y-112865873D01*
X150259706Y-112846261D01*
X150282417Y-112816614D01*
X150301261Y-112786354D01*
X150314780Y-112757899D01*
X150321515Y-112733666D01*
X150323484Y-112724081D01*
X150327304Y-112714036D01*
X150327380Y-112713912D01*
X150330030Y-112704252D01*
X150330872Y-112690224D01*
X150331508Y-112674527D01*
X150333937Y-112658348D01*
X150334627Y-112652245D01*
X150687826Y-112652245D01*
X150688734Y-112673026D01*
X150690487Y-112693177D01*
X150693017Y-112709854D01*
X150705803Y-112754414D01*
X150729751Y-112804510D01*
X150762177Y-112849348D01*
X150802277Y-112888030D01*
X150849246Y-112919659D01*
X150902280Y-112943338D01*
X150941532Y-112953911D01*
X150995522Y-112959249D01*
X151049941Y-112954634D01*
X151103437Y-112940211D01*
X151154655Y-112916128D01*
X151177182Y-112900300D01*
X151202663Y-112877911D01*
X151227948Y-112852027D01*
X151250254Y-112825500D01*
X151266800Y-112801182D01*
X151273869Y-112787537D01*
X151285139Y-112760678D01*
X151294760Y-112731870D01*
X151301546Y-112704833D01*
X151304314Y-112683291D01*
X151304982Y-112669933D01*
X151306554Y-112654291D01*
X151307127Y-112644760D01*
X151305662Y-112636167D01*
X151304847Y-112633825D01*
X151303142Y-112622688D01*
X151302130Y-112607063D01*
X151301058Y-112595015D01*
X151297658Y-112576086D01*
X151292755Y-112556562D01*
X151287158Y-112539200D01*
X151281680Y-112526759D01*
X151277130Y-112522000D01*
X151275738Y-112521760D01*
X151275137Y-112517330D01*
X151275262Y-112517094D01*
X151273966Y-112509823D01*
X151267512Y-112499297D01*
X151267241Y-112498951D01*
X151259999Y-112488305D01*
X151257000Y-112481166D01*
X151256997Y-112481062D01*
X151253180Y-112474297D01*
X151243433Y-112462388D01*
X151229611Y-112447243D01*
X151213572Y-112430771D01*
X151197170Y-112414878D01*
X151182262Y-112401472D01*
X151170703Y-112392461D01*
X151148538Y-112378632D01*
X151127017Y-112367305D01*
X151110283Y-112360882D01*
X151100108Y-112360174D01*
X151096503Y-112361025D01*
X151095293Y-112358462D01*
X151095318Y-112358420D01*
X151093153Y-112354227D01*
X151084789Y-112350545D01*
X151074538Y-112348670D01*
X151066709Y-112349891D01*
X151064680Y-112350488D01*
X151059970Y-112346303D01*
X151059060Y-112345040D01*
X151050549Y-112342085D01*
X151032845Y-112340318D01*
X151005278Y-112339656D01*
X150979247Y-112340335D01*
X150953659Y-112342444D01*
X150931051Y-112345646D01*
X150913321Y-112349603D01*
X150902371Y-112353974D01*
X150900100Y-112358422D01*
X150900560Y-112360412D01*
X150895689Y-112360320D01*
X150892764Y-112359763D01*
X150880265Y-112362297D01*
X150863057Y-112369965D01*
X150842892Y-112381493D01*
X150821521Y-112395610D01*
X150800696Y-112411042D01*
X150782167Y-112426516D01*
X150767687Y-112440761D01*
X150759005Y-112452503D01*
X150757874Y-112460470D01*
X150758971Y-112462799D01*
X150757084Y-112462648D01*
X150756943Y-112462532D01*
X150751030Y-112463804D01*
X150742884Y-112471575D01*
X150739049Y-112477001D01*
X150729550Y-112493302D01*
X150719318Y-112513581D01*
X150709870Y-112534560D01*
X150702725Y-112552959D01*
X150699401Y-112565498D01*
X150697890Y-112574179D01*
X150694587Y-112583640D01*
X150692987Y-112588898D01*
X150693270Y-112600503D01*
X150693617Y-112607772D01*
X150690675Y-112614676D01*
X150688831Y-112620179D01*
X150687835Y-112633681D01*
X150687828Y-112646590D01*
X150687826Y-112652245D01*
X150334627Y-112652245D01*
X150335266Y-112646590D01*
X150333497Y-112634536D01*
X150333094Y-112633462D01*
X150330938Y-112621088D01*
X150330656Y-112605343D01*
X150330767Y-112601772D01*
X150329542Y-112590160D01*
X150326238Y-112585500D01*
X150323918Y-112584568D01*
X150323548Y-112578097D01*
X150324209Y-112574424D01*
X150320650Y-112567148D01*
X150318681Y-112565478D01*
X150317625Y-112559211D01*
X150318052Y-112558007D01*
X150316938Y-112549572D01*
X150312614Y-112537726D01*
X150306699Y-112525836D01*
X150300812Y-112517274D01*
X150296573Y-112515408D01*
X150294900Y-112516504D01*
X150295959Y-112512848D01*
X150297154Y-112506241D01*
X150294274Y-112496553D01*
X150288553Y-112489213D01*
X150282251Y-112488273D01*
X150279475Y-112489423D01*
X150280322Y-112485549D01*
X150280634Y-112483920D01*
X150277378Y-112475002D01*
X150269404Y-112461871D01*
X150258581Y-112447138D01*
X150246775Y-112433416D01*
X150235851Y-112423316D01*
X150234999Y-112422667D01*
X150224961Y-112414561D01*
X150212685Y-112404168D01*
X150206878Y-112399650D01*
X150191367Y-112389458D01*
X150172278Y-112378310D01*
X150152715Y-112367898D01*
X150135782Y-112359919D01*
X150124584Y-112356066D01*
X150123710Y-112355905D01*
X150112659Y-112353055D01*
X150098125Y-112348541D01*
X150095740Y-112347747D01*
X150086461Y-112344907D01*
X150077689Y-112343115D01*
X150066651Y-112342085D01*
X150050575Y-112341531D01*
X150026688Y-112341167D01*
X149987587Y-112342168D01*
X149953694Y-112346772D01*
X149929408Y-112354994D01*
X149927443Y-112355998D01*
X149916743Y-112361007D01*
X149911650Y-112362576D01*
X149907735Y-112363739D01*
X149896658Y-112368443D01*
X149881167Y-112375633D01*
X149873342Y-112379599D01*
X149852162Y-112392200D01*
X149831601Y-112406717D01*
X149813356Y-112421688D01*
X149799122Y-112435650D01*
X149790598Y-112447138D01*
X149789480Y-112454691D01*
X149790412Y-112456740D01*
X149787516Y-112456842D01*
X149785758Y-112456713D01*
X149778889Y-112462137D01*
X149769599Y-112473860D01*
X149759293Y-112489508D01*
X149749378Y-112506702D01*
X149741261Y-112523068D01*
X149736347Y-112536229D01*
X149736044Y-112543809D01*
X149736680Y-112545489D01*
X149733000Y-112548458D01*
X149731050Y-112548800D01*
X149730129Y-112553384D01*
X149730853Y-112555526D01*
X149727434Y-112561857D01*
X149725220Y-112564118D01*
X149724471Y-112572636D01*
X149725179Y-112576084D01*
X149722267Y-112582946D01*
X149719268Y-112587058D01*
X149717060Y-112597668D01*
X149716687Y-112607546D01*
X149715816Y-112624861D01*
X149714659Y-112645031D01*
X149714631Y-112645491D01*
X149714063Y-112663275D01*
X149522117Y-112663275D01*
X149522070Y-112651645D01*
X149522100Y-112640460D01*
X149522791Y-112602823D01*
X149524782Y-112572125D01*
X149528585Y-112545489D01*
X149534714Y-112520033D01*
X149543680Y-112492879D01*
X149555999Y-112461145D01*
X149561819Y-112447044D01*
X149575636Y-112416589D01*
X149590063Y-112390253D01*
X149607366Y-112364144D01*
X149629812Y-112334369D01*
X149658192Y-112301063D01*
X149707414Y-112255060D01*
X149762695Y-112216775D01*
X149824928Y-112185624D01*
X149895010Y-112161022D01*
X149910940Y-112156714D01*
X149927066Y-112153355D01*
X149944347Y-112151139D01*
X149965141Y-112149857D01*
X149991803Y-112149298D01*
X150026688Y-112149252D01*
X150038605Y-112149304D01*
X150069872Y-112149657D01*
X150093730Y-112150495D01*
X150112584Y-112152077D01*
X150128842Y-112154658D01*
X150144908Y-112158497D01*
X150163190Y-112163850D01*
X150215532Y-112182789D01*
X150274033Y-112211302D01*
X150326584Y-112245214D01*
X150371082Y-112283317D01*
X150392684Y-112304932D01*
X150392248Y-111790372D01*
X150391813Y-111275812D01*
X150041240Y-111275151D01*
X150014218Y-111275098D01*
X149955519Y-111274969D01*
X149900334Y-111274830D01*
X149849545Y-111274683D01*
X149804036Y-111274531D01*
X149764692Y-111274379D01*
X149732396Y-111274230D01*
X149708032Y-111274085D01*
X149692484Y-111273950D01*
X149686635Y-111273828D01*
X149686247Y-111271790D01*
X149685656Y-111260742D01*
X149685117Y-111241284D01*
X149684635Y-111214759D01*
X149684215Y-111182509D01*
X149683864Y-111145878D01*
X149683588Y-111106208D01*
X149683391Y-111064842D01*
X149683281Y-111023122D01*
X149683263Y-110982391D01*
X149683343Y-110943993D01*
X149683526Y-110909269D01*
X149683818Y-110879562D01*
X149684226Y-110856216D01*
X149684755Y-110840572D01*
X149685375Y-110828666D01*
X149976417Y-110828666D01*
X149977022Y-110843218D01*
X149977083Y-110845123D01*
X149977312Y-110857555D01*
X149977576Y-110878212D01*
X149977856Y-110905296D01*
X149978133Y-110937005D01*
X149978387Y-110971541D01*
X149979147Y-111085312D01*
X150132565Y-111088226D01*
X150133281Y-110980936D01*
X150133307Y-110977149D01*
X150133560Y-110943059D01*
X150133835Y-110911388D01*
X150134111Y-110884176D01*
X150134367Y-110863466D01*
X150134582Y-110851297D01*
X150135167Y-110828949D01*
X150213219Y-110827485D01*
X150291271Y-110826020D01*
X150291640Y-110750381D01*
X150292009Y-110674741D01*
X150216576Y-110675498D01*
X150206469Y-110675575D01*
X150180247Y-110675527D01*
X150158529Y-110675135D01*
X150143341Y-110674447D01*
X150136709Y-110673515D01*
X150135751Y-110669757D01*
X150134659Y-110656640D01*
X150133751Y-110635545D01*
X150133071Y-110607931D01*
X150132665Y-110575258D01*
X150132577Y-110538984D01*
X150132880Y-110407193D01*
X150055972Y-110407586D01*
X149979063Y-110407979D01*
X149978979Y-110537625D01*
X149978891Y-110564103D01*
X149978556Y-110597905D01*
X149978010Y-110627166D01*
X149977291Y-110650376D01*
X149976439Y-110666025D01*
X149975492Y-110672601D01*
X149974269Y-110673151D01*
X149964543Y-110674370D01*
X149946612Y-110675404D01*
X149922166Y-110676244D01*
X149892891Y-110676883D01*
X149860478Y-110677314D01*
X149826613Y-110677530D01*
X149792985Y-110677522D01*
X149761283Y-110677283D01*
X149733195Y-110676807D01*
X149710409Y-110676084D01*
X149694614Y-110675109D01*
X149687498Y-110673874D01*
X149687121Y-110672653D01*
X149686309Y-110662825D01*
X149685578Y-110644254D01*
X149684936Y-110618221D01*
X149684390Y-110586006D01*
X149683947Y-110548892D01*
X149683614Y-110508160D01*
X149683399Y-110465092D01*
X149683309Y-110420969D01*
X149683351Y-110377072D01*
X149683533Y-110334684D01*
X149683861Y-110295086D01*
X149684342Y-110259559D01*
X149684985Y-110229385D01*
X149685375Y-110214833D01*
X150241000Y-110214833D01*
X150241530Y-110239968D01*
X150241726Y-110252043D01*
X150241940Y-110275243D01*
X150241997Y-110298177D01*
X150241936Y-110331250D01*
X150394459Y-110331250D01*
X150394459Y-110130166D01*
X150616709Y-110130166D01*
X150617091Y-110150010D01*
X150617111Y-110152320D01*
X150617152Y-110164619D01*
X150617195Y-110186736D01*
X150617240Y-110218160D01*
X150617286Y-110258381D01*
X150617333Y-110306890D01*
X150617382Y-110363175D01*
X150617430Y-110426727D01*
X150617479Y-110497036D01*
X150617528Y-110573591D01*
X150617576Y-110655882D01*
X150617623Y-110743399D01*
X150617669Y-110835632D01*
X150617713Y-110932070D01*
X150617755Y-111032204D01*
X150617795Y-111135522D01*
X150617833Y-111241516D01*
X150618191Y-112313179D01*
X150650523Y-112282238D01*
X150682466Y-112254254D01*
X150741272Y-112213839D01*
X150805994Y-112181977D01*
X150876000Y-112159016D01*
X150893937Y-112155037D01*
X150913749Y-112152121D01*
X150936931Y-112150316D01*
X150965881Y-112149438D01*
X151003000Y-112149303D01*
X151008254Y-112149327D01*
X151040754Y-112149662D01*
X151065505Y-112150472D01*
X151084995Y-112152027D01*
X151101713Y-112154600D01*
X151118146Y-112158461D01*
X151136784Y-112163881D01*
X151184110Y-112180715D01*
X151249782Y-112212785D01*
X151309480Y-112252851D01*
X151362317Y-112300286D01*
X151407408Y-112354469D01*
X151412745Y-112362199D01*
X151433425Y-112396386D01*
X151453157Y-112434965D01*
X151469947Y-112473804D01*
X151481805Y-112508770D01*
X151486005Y-112523698D01*
X151490604Y-112539319D01*
X151493553Y-112548458D01*
X151494367Y-112551199D01*
X151496616Y-112565431D01*
X151498470Y-112586587D01*
X151499866Y-112612169D01*
X151500743Y-112639682D01*
X151500799Y-112644760D01*
X151501037Y-112666629D01*
X151500688Y-112690514D01*
X151499632Y-112708841D01*
X151497807Y-112719114D01*
X151496277Y-112724793D01*
X151496841Y-112735795D01*
X151497744Y-112739330D01*
X151496372Y-112746531D01*
X151495402Y-112747703D01*
X151491754Y-112756309D01*
X151486983Y-112776874D01*
X151479683Y-112798933D01*
X151476483Y-112810832D01*
X151476879Y-112818777D01*
X151477617Y-112820374D01*
X151475431Y-112823625D01*
X151474054Y-112824073D01*
X151468901Y-112830845D01*
X151464092Y-112842384D01*
X151461178Y-112854313D01*
X151461714Y-112862259D01*
X151462608Y-112864237D01*
X151459640Y-112864274D01*
X151457410Y-112864388D01*
X151451242Y-112870799D01*
X151444412Y-112883300D01*
X151439656Y-112892663D01*
X151430040Y-112908977D01*
X151418028Y-112927763D01*
X151405193Y-112946717D01*
X151393107Y-112963529D01*
X151383343Y-112975894D01*
X151377473Y-112981504D01*
X151376348Y-112982299D01*
X151376423Y-112988249D01*
X151377230Y-112989966D01*
X151374941Y-112991766D01*
X151374046Y-112991721D01*
X151366835Y-112995664D01*
X151356126Y-113004636D01*
X151344235Y-113016263D01*
X151333477Y-113028173D01*
X151326166Y-113037991D01*
X151324620Y-113043346D01*
X151325704Y-113044916D01*
X151322445Y-113044149D01*
X151318198Y-113044104D01*
X151307535Y-113048638D01*
X151294800Y-113056896D01*
X151283459Y-113066859D01*
X151282256Y-113068008D01*
X151271712Y-113075094D01*
X151252459Y-113085432D01*
X151223928Y-113099332D01*
X151220966Y-113100747D01*
X151217186Y-113102679D01*
X151204352Y-113109240D01*
X151192641Y-113116171D01*
G37*
X151192641Y-113116171D02*
X151188209Y-113120153D01*
X151187725Y-113121572D01*
X151181594Y-113123394D01*
X151178308Y-113123398D01*
X151166135Y-113125371D01*
X151150774Y-113129299D01*
X151135611Y-113134143D01*
X151124030Y-113138868D01*
X151119417Y-113142437D01*
X151119175Y-113143742D01*
X151114712Y-113144133D01*
X151111629Y-113143465D01*
X151100107Y-113143985D01*
X151084285Y-113146510D01*
X151074170Y-113148310D01*
X151050688Y-113151323D01*
X151027846Y-113153075D01*
X151026980Y-113153111D01*
X151009817Y-113154259D01*
X150999549Y-113157120D01*
X150992630Y-113163575D01*
X150985513Y-113175500D01*
X150982304Y-113181213D01*
X150974288Y-113194486D01*
X150968605Y-113202546D01*
X150966612Y-113204857D01*
X150958475Y-113214773D01*
X150948164Y-113227715D01*
X150934733Y-113243820D01*
X150895060Y-113282957D01*
X150846069Y-113320903D01*
X150835685Y-113328222D01*
X150818997Y-113340321D01*
X150806845Y-113349580D01*
X150801326Y-113354428D01*
X150800532Y-113355421D01*
X150794761Y-113358645D01*
X150793686Y-113358834D01*
X150784992Y-113362002D01*
X150769999Y-113368280D01*
X150751176Y-113376651D01*
X150747549Y-113378288D01*
X150725456Y-113387710D01*
X150704792Y-113395721D01*
X150689613Y-113400734D01*
X150686519Y-113401586D01*
X150668859Y-113407005D01*
X150654415Y-113412208D01*
X150643058Y-113415721D01*
X150631730Y-113416865D01*
X150627112Y-113416972D01*
X150619818Y-113420833D01*
X150616281Y-113423214D01*
X150606552Y-113423228D01*
X150600118Y-113422504D01*
X150588414Y-113425047D01*
X150586899Y-113425679D01*
X150575015Y-113427601D01*
X150555383Y-113428654D01*
X150530234Y-113428896D01*
X150501797Y-113428388D01*
X150472301Y-113427189D01*
X150443975Y-113425358D01*
X150419048Y-113422953D01*
X150399750Y-113420035D01*
X150396002Y-113419298D01*
X150377097Y-113416036D01*
X150362847Y-113414316D01*
X150356094Y-113414498D01*
X150354980Y-113414967D01*
X150352125Y-113411732D01*
X150352068Y-113411296D01*
X150346597Y-113406769D01*
X150334928Y-113402928D01*
X150331990Y-113402238D01*
X150314055Y-113396373D01*
X150290854Y-113386968D01*
X150264540Y-113375097D01*
X150237266Y-113361836D01*
X150211185Y-113348259D01*
X150188449Y-113335442D01*
X150171211Y-113324460D01*
X150161625Y-113316388D01*
X150157248Y-113312324D01*
X150146714Y-113303416D01*
X150132642Y-113291937D01*
X150117371Y-113279267D01*
X150089321Y-113252805D01*
X150068407Y-113227588D01*
X150059412Y-113215552D01*
X150050500Y-113204612D01*
X150048508Y-113202172D01*
X150040126Y-113189986D01*
X150031199Y-113174991D01*
X150023861Y-113163358D01*
X150014735Y-113155780D01*
X150002095Y-113153201D01*
X149992495Y-113152354D01*
X149973655Y-113150256D01*
X149951141Y-113147472D01*
X149928502Y-113144461D01*
X149909286Y-113141682D01*
X149897042Y-113139596D01*
X149890246Y-113137617D01*
X149875895Y-113132707D01*
X149858288Y-113126228D01*
X149843476Y-113121245D01*
X149829378Y-113117958D01*
X149821752Y-113118058D01*
X149819187Y-113119135D01*
X149819808Y-113115484D01*
X149818919Y-113111118D01*
X149812485Y-113108853D01*
X149805383Y-113110697D01*
X149801992Y-113109283D01*
X149794373Y-113102711D01*
X149793680Y-113102225D01*
X150250006Y-113102225D01*
X150255833Y-113110565D01*
X150257862Y-113113065D01*
X150291962Y-113146577D01*
X150334225Y-113174878D01*
X150383278Y-113197198D01*
X150437747Y-113212763D01*
X150462562Y-113216958D01*
X150519150Y-113219611D01*
X150575943Y-113213422D01*
X150630458Y-113198768D01*
X150680209Y-113176026D01*
X150688480Y-113171074D01*
X150706355Y-113159275D01*
X150724055Y-113146435D01*
X150739399Y-113134245D01*
X150750205Y-113124397D01*
X150754292Y-113118583D01*
X150755528Y-113114822D01*
X150762380Y-113107273D01*
X150762583Y-113107123D01*
X150766063Y-113102679D01*
X150762475Y-113097868D01*
X150750473Y-113090828D01*
X150746267Y-113088551D01*
X150732489Y-113080278D01*
X150723487Y-113073669D01*
X150719321Y-113070273D01*
X150712391Y-113067041D01*
X150712305Y-113067039D01*
X150705644Y-113063764D01*
X150695571Y-113056133D01*
X150689498Y-113050932D01*
X150675338Y-113038832D01*
X150659953Y-113025706D01*
X150655508Y-113021727D01*
X150640028Y-113006220D01*
X150622290Y-112986719D01*
X150605318Y-112966500D01*
X150597797Y-112957096D01*
X150583810Y-112939624D01*
X150572605Y-112925647D01*
X150566095Y-112917552D01*
X150562226Y-112911633D01*
X150562521Y-112908210D01*
X150563655Y-112907787D01*
X150560757Y-112904241D01*
X150559229Y-112902564D01*
X150553384Y-112892750D01*
X150545358Y-112876666D01*
X150536418Y-112856783D01*
X150532101Y-112847024D01*
X150523973Y-112830444D01*
X150517584Y-112819760D01*
X150514038Y-112816934D01*
X150512512Y-112817525D01*
X150513602Y-112812092D01*
X150514562Y-112807243D01*
X150511791Y-112800378D01*
X150510356Y-112799841D01*
X150505145Y-112802957D01*
X150502056Y-112810820D01*
X150503233Y-112818810D01*
X150503910Y-112820453D01*
X150500604Y-112823625D01*
X150499005Y-112823801D01*
X150496095Y-112827593D01*
X150495051Y-112831586D01*
X150490173Y-112843190D01*
X150482430Y-112859847D01*
X150473020Y-112879151D01*
X150463141Y-112898698D01*
X150453993Y-112916084D01*
X150446774Y-112928902D01*
X150442682Y-112934750D01*
X150434220Y-112943229D01*
X150425877Y-112955110D01*
X150420123Y-112966514D01*
X150419192Y-112973736D01*
X150420296Y-112976083D01*
X150418391Y-112975913D01*
X150417426Y-112975690D01*
X150410312Y-112979518D01*
X150398660Y-112989129D01*
X150384445Y-113002950D01*
X150377641Y-113009681D01*
X150358747Y-113026454D01*
X150336393Y-113044482D01*
X150312849Y-113062100D01*
X150290383Y-113077646D01*
X150271262Y-113089456D01*
X150257754Y-113095866D01*
X150251584Y-113098207D01*
X150250006Y-113102225D01*
X149793680Y-113102225D01*
X149786970Y-113097518D01*
X149779381Y-113096914D01*
X149777037Y-113097943D01*
X149777239Y-113094698D01*
X149776762Y-113090102D01*
X149768898Y-113085199D01*
X149762126Y-113082473D01*
X149742241Y-113070762D01*
X149715523Y-113051166D01*
X149714341Y-113050215D01*
X149704570Y-113041646D01*
X149690393Y-113028578D01*
X149674449Y-113013434D01*
X149669765Y-113008997D01*
X149655703Y-112996678D01*
X149645043Y-112988825D01*
X149639797Y-112986976D01*
X149638527Y-112987866D01*
X149639128Y-112984883D01*
X149639184Y-112984769D01*
X149637354Y-112978050D01*
X149630055Y-112966049D01*
X149618809Y-112951285D01*
X149618552Y-112950974D01*
X149606888Y-112936215D01*
X149598582Y-112924391D01*
X149595417Y-112918037D01*
X149594764Y-112916163D01*
X149589308Y-112916734D01*
X149586425Y-112918009D01*
X149586853Y-112914597D01*
X149587317Y-112911644D01*
X149584292Y-112901104D01*
X149577087Y-112887426D01*
X149573123Y-112880802D01*
X149566347Y-112867304D01*
X149563667Y-112858438D01*
X149563280Y-112855073D01*
X149559160Y-112847922D01*
X149558168Y-112846727D01*
X149554083Y-112837494D01*
X149548641Y-112821503D01*
X149542741Y-112801307D01*
X149540778Y-112794117D01*
X149535179Y-112773929D01*
X149530657Y-112758092D01*
X149528047Y-112749541D01*
X149527715Y-112748571D01*
X149525365Y-112739299D01*
X149523738Y-112726812D01*
X149522722Y-112709268D01*
X149522203Y-112684826D01*
X149522117Y-112663275D01*
X149714063Y-112663275D01*
X149714599Y-112675944D01*
X149716128Y-112680782D01*
X149717350Y-112682148D01*
X149719374Y-112691126D01*
X149720488Y-112705715D01*
X149721016Y-112713647D01*
X149723498Y-112726601D01*
X149727136Y-112732593D01*
X149729084Y-112733643D01*
X149730075Y-112739410D01*
X149729212Y-112742041D01*
X149731284Y-112750864D01*
X149733050Y-112753834D01*
X149735825Y-112760125D01*
X149736018Y-112761389D01*
X149739264Y-112772310D01*
X149744103Y-112782245D01*
X149748350Y-112786583D01*
X149749959Y-112787163D01*
X149752403Y-112793608D01*
X149752415Y-112793986D01*
X149756188Y-112804182D01*
X149765533Y-112819486D01*
X149778742Y-112837554D01*
X149794107Y-112856040D01*
X149809920Y-112872597D01*
X149818689Y-112880571D01*
X149854241Y-112907082D01*
X149894240Y-112929746D01*
X149934003Y-112945800D01*
X149935020Y-112946114D01*
X149990021Y-112957708D01*
X150044729Y-112958988D01*
X150098200Y-112950200D01*
X150149493Y-112931588D01*
X150197666Y-112903398D01*
X150241776Y-112865873D01*
X150259706Y-112846261D01*
X150282417Y-112816614D01*
X150301261Y-112786354D01*
X150314780Y-112757899D01*
X150321515Y-112733666D01*
X150323484Y-112724081D01*
X150327304Y-112714036D01*
X150327380Y-112713912D01*
X150330030Y-112704252D01*
X150330872Y-112690224D01*
X150331508Y-112674527D01*
X150333937Y-112658348D01*
X150334627Y-112652245D01*
X150687826Y-112652245D01*
X150688734Y-112673026D01*
X150690487Y-112693177D01*
X150693017Y-112709854D01*
X150705803Y-112754414D01*
X150729751Y-112804510D01*
X150762177Y-112849348D01*
X150802277Y-112888030D01*
X150849246Y-112919659D01*
X150902280Y-112943338D01*
X150941532Y-112953911D01*
X150995522Y-112959249D01*
X151049941Y-112954634D01*
X151103437Y-112940211D01*
X151154655Y-112916128D01*
X151177182Y-112900300D01*
X151202663Y-112877911D01*
X151227948Y-112852027D01*
X151250254Y-112825500D01*
X151266800Y-112801182D01*
X151273869Y-112787537D01*
X151285139Y-112760678D01*
X151294760Y-112731870D01*
X151301546Y-112704833D01*
X151304314Y-112683291D01*
X151304982Y-112669933D01*
X151306554Y-112654291D01*
X151307127Y-112644760D01*
X151305662Y-112636167D01*
X151304847Y-112633825D01*
X151303142Y-112622688D01*
X151302130Y-112607063D01*
X151301058Y-112595015D01*
X151297658Y-112576086D01*
X151292755Y-112556562D01*
X151287158Y-112539200D01*
X151281680Y-112526759D01*
X151277130Y-112522000D01*
X151275738Y-112521760D01*
X151275137Y-112517330D01*
X151275262Y-112517094D01*
X151273966Y-112509823D01*
X151267512Y-112499297D01*
X151267241Y-112498951D01*
X151259999Y-112488305D01*
X151257000Y-112481166D01*
X151256997Y-112481062D01*
X151253180Y-112474297D01*
X151243433Y-112462388D01*
X151229611Y-112447243D01*
X151213572Y-112430771D01*
X151197170Y-112414878D01*
X151182262Y-112401472D01*
X151170703Y-112392461D01*
X151148538Y-112378632D01*
X151127017Y-112367305D01*
X151110283Y-112360882D01*
X151100108Y-112360174D01*
X151096503Y-112361025D01*
X151095293Y-112358462D01*
X151095318Y-112358420D01*
X151093153Y-112354227D01*
X151084789Y-112350545D01*
X151074538Y-112348670D01*
X151066709Y-112349891D01*
X151064680Y-112350488D01*
X151059970Y-112346303D01*
X151059060Y-112345040D01*
X151050549Y-112342085D01*
X151032845Y-112340318D01*
X151005278Y-112339656D01*
X150979247Y-112340335D01*
X150953659Y-112342444D01*
X150931051Y-112345646D01*
X150913321Y-112349603D01*
X150902371Y-112353974D01*
X150900100Y-112358422D01*
X150900560Y-112360412D01*
X150895689Y-112360320D01*
X150892764Y-112359763D01*
X150880265Y-112362297D01*
X150863057Y-112369965D01*
X150842892Y-112381493D01*
X150821521Y-112395610D01*
X150800696Y-112411042D01*
X150782167Y-112426516D01*
X150767687Y-112440761D01*
X150759005Y-112452503D01*
X150757874Y-112460470D01*
X150758971Y-112462799D01*
X150757084Y-112462648D01*
X150756943Y-112462532D01*
X150751030Y-112463804D01*
X150742884Y-112471575D01*
X150739049Y-112477001D01*
X150729550Y-112493302D01*
X150719318Y-112513581D01*
X150709870Y-112534560D01*
X150702725Y-112552959D01*
X150699401Y-112565498D01*
X150697890Y-112574179D01*
X150694587Y-112583640D01*
X150692987Y-112588898D01*
X150693270Y-112600503D01*
X150693617Y-112607772D01*
X150690675Y-112614676D01*
X150688831Y-112620179D01*
X150687835Y-112633681D01*
X150687828Y-112646590D01*
X150687826Y-112652245D01*
X150334627Y-112652245D01*
X150335266Y-112646590D01*
X150333497Y-112634536D01*
X150333094Y-112633462D01*
X150330938Y-112621088D01*
X150330656Y-112605343D01*
X150330767Y-112601772D01*
X150329542Y-112590160D01*
X150326238Y-112585500D01*
X150323918Y-112584568D01*
X150323548Y-112578097D01*
X150324209Y-112574424D01*
X150320650Y-112567148D01*
X150318681Y-112565478D01*
X150317625Y-112559211D01*
X150318052Y-112558007D01*
X150316938Y-112549572D01*
X150312614Y-112537726D01*
X150306699Y-112525836D01*
X150300812Y-112517274D01*
X150296573Y-112515408D01*
X150294900Y-112516504D01*
X150295959Y-112512848D01*
X150297154Y-112506241D01*
X150294274Y-112496553D01*
X150288553Y-112489213D01*
X150282251Y-112488273D01*
X150279475Y-112489423D01*
X150280322Y-112485549D01*
X150280634Y-112483920D01*
X150277378Y-112475002D01*
X150269404Y-112461871D01*
X150258581Y-112447138D01*
X150246775Y-112433416D01*
X150235851Y-112423316D01*
X150234999Y-112422667D01*
X150224961Y-112414561D01*
X150212685Y-112404168D01*
X150206878Y-112399650D01*
X150191367Y-112389458D01*
X150172278Y-112378310D01*
X150152715Y-112367898D01*
X150135782Y-112359919D01*
X150124584Y-112356066D01*
X150123710Y-112355905D01*
X150112659Y-112353055D01*
X150098125Y-112348541D01*
X150095740Y-112347747D01*
X150086461Y-112344907D01*
X150077689Y-112343115D01*
X150066651Y-112342085D01*
X150050575Y-112341531D01*
X150026688Y-112341167D01*
X149987587Y-112342168D01*
X149953694Y-112346772D01*
X149929408Y-112354994D01*
X149927443Y-112355998D01*
X149916743Y-112361007D01*
X149911650Y-112362576D01*
X149907735Y-112363739D01*
X149896658Y-112368443D01*
X149881167Y-112375633D01*
X149873342Y-112379599D01*
X149852162Y-112392200D01*
X149831601Y-112406717D01*
X149813356Y-112421688D01*
X149799122Y-112435650D01*
X149790598Y-112447138D01*
X149789480Y-112454691D01*
X149790412Y-112456740D01*
X149787516Y-112456842D01*
X149785758Y-112456713D01*
X149778889Y-112462137D01*
X149769599Y-112473860D01*
X149759293Y-112489508D01*
X149749378Y-112506702D01*
X149741261Y-112523068D01*
X149736347Y-112536229D01*
X149736044Y-112543809D01*
X149736680Y-112545489D01*
X149733000Y-112548458D01*
X149731050Y-112548800D01*
X149730129Y-112553384D01*
X149730853Y-112555526D01*
X149727434Y-112561857D01*
X149725220Y-112564118D01*
X149724471Y-112572636D01*
X149725179Y-112576084D01*
X149722267Y-112582946D01*
X149719268Y-112587058D01*
X149717060Y-112597668D01*
X149716687Y-112607546D01*
X149715816Y-112624861D01*
X149714659Y-112645031D01*
X149714631Y-112645491D01*
X149714063Y-112663275D01*
X149522117Y-112663275D01*
X149522070Y-112651645D01*
X149522100Y-112640460D01*
X149522791Y-112602823D01*
X149524782Y-112572125D01*
X149528585Y-112545489D01*
X149534714Y-112520033D01*
X149543680Y-112492879D01*
X149555999Y-112461145D01*
X149561819Y-112447044D01*
X149575636Y-112416589D01*
X149590063Y-112390253D01*
X149607366Y-112364144D01*
X149629812Y-112334369D01*
X149658192Y-112301063D01*
X149707414Y-112255060D01*
X149762695Y-112216775D01*
X149824928Y-112185624D01*
X149895010Y-112161022D01*
X149910940Y-112156714D01*
X149927066Y-112153355D01*
X149944347Y-112151139D01*
X149965141Y-112149857D01*
X149991803Y-112149298D01*
X150026688Y-112149252D01*
X150038605Y-112149304D01*
X150069872Y-112149657D01*
X150093730Y-112150495D01*
X150112584Y-112152077D01*
X150128842Y-112154658D01*
X150144908Y-112158497D01*
X150163190Y-112163850D01*
X150215532Y-112182789D01*
X150274033Y-112211302D01*
X150326584Y-112245214D01*
X150371082Y-112283317D01*
X150392684Y-112304932D01*
X150392248Y-111790372D01*
X150391813Y-111275812D01*
X150041240Y-111275151D01*
X150014218Y-111275098D01*
X149955519Y-111274969D01*
X149900334Y-111274830D01*
X149849545Y-111274683D01*
X149804036Y-111274531D01*
X149764692Y-111274379D01*
X149732396Y-111274230D01*
X149708032Y-111274085D01*
X149692484Y-111273950D01*
X149686635Y-111273828D01*
X149686247Y-111271790D01*
X149685656Y-111260742D01*
X149685117Y-111241284D01*
X149684635Y-111214759D01*
X149684215Y-111182509D01*
X149683864Y-111145878D01*
X149683588Y-111106208D01*
X149683391Y-111064842D01*
X149683281Y-111023122D01*
X149683263Y-110982391D01*
X149683343Y-110943993D01*
X149683526Y-110909269D01*
X149683818Y-110879562D01*
X149684226Y-110856216D01*
X149684755Y-110840572D01*
X149685375Y-110828666D01*
X149976417Y-110828666D01*
X149977022Y-110843218D01*
X149977083Y-110845123D01*
X149977312Y-110857555D01*
X149977576Y-110878212D01*
X149977856Y-110905296D01*
X149978133Y-110937005D01*
X149978387Y-110971541D01*
X149979147Y-111085312D01*
X150132565Y-111088226D01*
X150133281Y-110980936D01*
X150133307Y-110977149D01*
X150133560Y-110943059D01*
X150133835Y-110911388D01*
X150134111Y-110884176D01*
X150134367Y-110863466D01*
X150134582Y-110851297D01*
X150135167Y-110828949D01*
X150213219Y-110827485D01*
X150291271Y-110826020D01*
X150291640Y-110750381D01*
X150292009Y-110674741D01*
X150216576Y-110675498D01*
X150206469Y-110675575D01*
X150180247Y-110675527D01*
X150158529Y-110675135D01*
X150143341Y-110674447D01*
X150136709Y-110673515D01*
X150135751Y-110669757D01*
X150134659Y-110656640D01*
X150133751Y-110635545D01*
X150133071Y-110607931D01*
X150132665Y-110575258D01*
X150132577Y-110538984D01*
X150132880Y-110407193D01*
X150055972Y-110407586D01*
X149979063Y-110407979D01*
X149978979Y-110537625D01*
X149978891Y-110564103D01*
X149978556Y-110597905D01*
X149978010Y-110627166D01*
X149977291Y-110650376D01*
X149976439Y-110666025D01*
X149975492Y-110672601D01*
X149974269Y-110673151D01*
X149964543Y-110674370D01*
X149946612Y-110675404D01*
X149922166Y-110676244D01*
X149892891Y-110676883D01*
X149860478Y-110677314D01*
X149826613Y-110677530D01*
X149792985Y-110677522D01*
X149761283Y-110677283D01*
X149733195Y-110676807D01*
X149710409Y-110676084D01*
X149694614Y-110675109D01*
X149687498Y-110673874D01*
X149687121Y-110672653D01*
X149686309Y-110662825D01*
X149685578Y-110644254D01*
X149684936Y-110618221D01*
X149684390Y-110586006D01*
X149683947Y-110548892D01*
X149683614Y-110508160D01*
X149683399Y-110465092D01*
X149683309Y-110420969D01*
X149683351Y-110377072D01*
X149683533Y-110334684D01*
X149683861Y-110295086D01*
X149684342Y-110259559D01*
X149684985Y-110229385D01*
X149685375Y-110214833D01*
X150241000Y-110214833D01*
X150241530Y-110239968D01*
X150241726Y-110252043D01*
X150241940Y-110275243D01*
X150241997Y-110298177D01*
X150241936Y-110331250D01*
X150394459Y-110331250D01*
X150394459Y-110130166D01*
X150616709Y-110130166D01*
X150617091Y-110150010D01*
X150617111Y-110152320D01*
X150617152Y-110164619D01*
X150617195Y-110186736D01*
X150617240Y-110218160D01*
X150617286Y-110258381D01*
X150617333Y-110306890D01*
X150617382Y-110363175D01*
X150617430Y-110426727D01*
X150617479Y-110497036D01*
X150617528Y-110573591D01*
X150617576Y-110655882D01*
X150617623Y-110743399D01*
X150617669Y-110835632D01*
X150617713Y-110932070D01*
X150617755Y-111032204D01*
X150617795Y-111135522D01*
X150617833Y-111241516D01*
X150618191Y-112313179D01*
X150650523Y-112282238D01*
X150682466Y-112254254D01*
X150741272Y-112213839D01*
X150805994Y-112181977D01*
X150876000Y-112159016D01*
X150893937Y-112155037D01*
X150913749Y-112152121D01*
X150936931Y-112150316D01*
X150965881Y-112149438D01*
X151003000Y-112149303D01*
X151008254Y-112149327D01*
X151040754Y-112149662D01*
X151065505Y-112150472D01*
X151084995Y-112152027D01*
X151101713Y-112154600D01*
X151118146Y-112158461D01*
X151136784Y-112163881D01*
X151184110Y-112180715D01*
X151249782Y-112212785D01*
X151309480Y-112252851D01*
X151362317Y-112300286D01*
X151407408Y-112354469D01*
X151412745Y-112362199D01*
X151433425Y-112396386D01*
X151453157Y-112434965D01*
X151469947Y-112473804D01*
X151481805Y-112508770D01*
X151486005Y-112523698D01*
X151490604Y-112539319D01*
X151493553Y-112548458D01*
X151494367Y-112551199D01*
X151496616Y-112565431D01*
X151498470Y-112586587D01*
X151499866Y-112612169D01*
X151500743Y-112639682D01*
X151500799Y-112644760D01*
X151501037Y-112666629D01*
X151500688Y-112690514D01*
X151499632Y-112708841D01*
X151497807Y-112719114D01*
X151496277Y-112724793D01*
X151496841Y-112735795D01*
X151497744Y-112739330D01*
X151496372Y-112746531D01*
X151495402Y-112747703D01*
X151491754Y-112756309D01*
X151486983Y-112776874D01*
X151479683Y-112798933D01*
X151476483Y-112810832D01*
X151476879Y-112818777D01*
X151477617Y-112820374D01*
X151475431Y-112823625D01*
X151474054Y-112824073D01*
X151468901Y-112830845D01*
X151464092Y-112842384D01*
X151461178Y-112854313D01*
X151461714Y-112862259D01*
X151462608Y-112864237D01*
X151459640Y-112864274D01*
X151457410Y-112864388D01*
X151451242Y-112870799D01*
X151444412Y-112883300D01*
X151439656Y-112892663D01*
X151430040Y-112908977D01*
X151418028Y-112927763D01*
X151405193Y-112946717D01*
X151393107Y-112963529D01*
X151383343Y-112975894D01*
X151377473Y-112981504D01*
X151376348Y-112982299D01*
X151376423Y-112988249D01*
X151377230Y-112989966D01*
X151374941Y-112991766D01*
X151374046Y-112991721D01*
X151366835Y-112995664D01*
X151356126Y-113004636D01*
X151344235Y-113016263D01*
X151333477Y-113028173D01*
X151326166Y-113037991D01*
X151324620Y-113043346D01*
X151325704Y-113044916D01*
X151322445Y-113044149D01*
X151318198Y-113044104D01*
X151307535Y-113048638D01*
X151294800Y-113056896D01*
X151283459Y-113066859D01*
X151282256Y-113068008D01*
X151271712Y-113075094D01*
X151252459Y-113085432D01*
X151223928Y-113099332D01*
X151220966Y-113100747D01*
X151217186Y-113102679D01*
X151204352Y-113109240D01*
X151192641Y-113116171D01*
G36*
X147695709Y-113532708D02*
G01*
X147574000Y-113532708D01*
X147574000Y-113331625D01*
X147420542Y-113331625D01*
X147420542Y-113209916D01*
X147574000Y-113209916D01*
X147574000Y-113135833D01*
X147383500Y-113135833D01*
X147383500Y-113014125D01*
X147695709Y-113014125D01*
X147695709Y-113532708D01*
G37*
X147695709Y-113532708D02*
X147574000Y-113532708D01*
X147574000Y-113331625D01*
X147420542Y-113331625D01*
X147420542Y-113209916D01*
X147574000Y-113209916D01*
X147574000Y-113135833D01*
X147383500Y-113135833D01*
X147383500Y-113014125D01*
X147695709Y-113014125D01*
X147695709Y-113532708D01*
G36*
X147679834Y-112765416D02*
G01*
X146939000Y-112765416D01*
X146939000Y-109336416D01*
X147679834Y-109336416D01*
X147679834Y-112765416D01*
G37*
X147679834Y-112765416D02*
X146939000Y-112765416D01*
X146939000Y-109336416D01*
X147679834Y-109336416D01*
X147679834Y-112765416D01*
G36*
X147579292Y-114183583D02*
G01*
X147579292Y-114120083D01*
X147579281Y-114113789D01*
X147578846Y-114086960D01*
X147577683Y-114069270D01*
X147575669Y-114059520D01*
X147572678Y-114056511D01*
X147567456Y-114056028D01*
X147555480Y-114053622D01*
X147553331Y-114053311D01*
X147548122Y-114054984D01*
X147541690Y-114060973D01*
X147533058Y-114072514D01*
X147521251Y-114090843D01*
X147505293Y-114117194D01*
X147465690Y-114183583D01*
X147395491Y-114183583D01*
X147389210Y-114183574D01*
X147364163Y-114183361D01*
X147343865Y-114182902D01*
X147330260Y-114182256D01*
X147325292Y-114181482D01*
X147327869Y-114176575D01*
X147335105Y-114164069D01*
X147346142Y-114145419D01*
X147360121Y-114122077D01*
X147376182Y-114095492D01*
X147391901Y-114069469D01*
X147406398Y-114045242D01*
X147418135Y-114025386D01*
X147426196Y-114011455D01*
X147429660Y-114005003D01*
X147429520Y-114001628D01*
X147424537Y-113991407D01*
X147415023Y-113978786D01*
X147414786Y-113978515D01*
X147390357Y-113943146D01*
X147375794Y-113904027D01*
X147370968Y-113860816D01*
X147370969Y-113860791D01*
X147489334Y-113860791D01*
X147490963Y-113871208D01*
X147500157Y-113889958D01*
X147515275Y-113907162D01*
X147533808Y-113919508D01*
X147539129Y-113921782D01*
X147555198Y-113927231D01*
X147567386Y-113929467D01*
X147568442Y-113929472D01*
X147572962Y-113928944D01*
X147576011Y-113926248D01*
X147577880Y-113919702D01*
X147578857Y-113907622D01*
X147579232Y-113888326D01*
X147579292Y-113860130D01*
X147579292Y-113790677D01*
X147562995Y-113793936D01*
X147555278Y-113795745D01*
X147529060Y-113806325D01*
X147508160Y-113821754D01*
X147494333Y-113840441D01*
X147489334Y-113860791D01*
X147370969Y-113860791D01*
X147371330Y-113842893D01*
X147373583Y-113823972D01*
X147378971Y-113806413D01*
X147388709Y-113785034D01*
X147393677Y-113775518D01*
X147417842Y-113741115D01*
X147449279Y-113712834D01*
X147489334Y-113689396D01*
X147499586Y-113684580D01*
X147511246Y-113679761D01*
X147522709Y-113676415D01*
X147536133Y-113674216D01*
X147553672Y-113672840D01*
X147577482Y-113671962D01*
X147609719Y-113671258D01*
X147695709Y-113669579D01*
X147695709Y-114183583D01*
X147579292Y-114183583D01*
G37*
X147579292Y-114183583D02*
X147579292Y-114120083D01*
X147579281Y-114113789D01*
X147578846Y-114086960D01*
X147577683Y-114069270D01*
X147575669Y-114059520D01*
X147572678Y-114056511D01*
X147567456Y-114056028D01*
X147555480Y-114053622D01*
X147553331Y-114053311D01*
X147548122Y-114054984D01*
X147541690Y-114060973D01*
X147533058Y-114072514D01*
X147521251Y-114090843D01*
X147505293Y-114117194D01*
X147465690Y-114183583D01*
X147395491Y-114183583D01*
X147389210Y-114183574D01*
X147364163Y-114183361D01*
X147343865Y-114182902D01*
X147330260Y-114182256D01*
X147325292Y-114181482D01*
X147327869Y-114176575D01*
X147335105Y-114164069D01*
X147346142Y-114145419D01*
X147360121Y-114122077D01*
X147376182Y-114095492D01*
X147391901Y-114069469D01*
X147406398Y-114045242D01*
X147418135Y-114025386D01*
X147426196Y-114011455D01*
X147429660Y-114005003D01*
X147429520Y-114001628D01*
X147424537Y-113991407D01*
X147415023Y-113978786D01*
X147414786Y-113978515D01*
X147390357Y-113943146D01*
X147375794Y-113904027D01*
X147370968Y-113860816D01*
X147370969Y-113860791D01*
X147489334Y-113860791D01*
X147490963Y-113871208D01*
X147500157Y-113889958D01*
X147515275Y-113907162D01*
X147533808Y-113919508D01*
X147539129Y-113921782D01*
X147555198Y-113927231D01*
X147567386Y-113929467D01*
X147568442Y-113929472D01*
X147572962Y-113928944D01*
X147576011Y-113926248D01*
X147577880Y-113919702D01*
X147578857Y-113907622D01*
X147579232Y-113888326D01*
X147579292Y-113860130D01*
X147579292Y-113790677D01*
X147562995Y-113793936D01*
X147555278Y-113795745D01*
X147529060Y-113806325D01*
X147508160Y-113821754D01*
X147494333Y-113840441D01*
X147489334Y-113860791D01*
X147370969Y-113860791D01*
X147371330Y-113842893D01*
X147373583Y-113823972D01*
X147378971Y-113806413D01*
X147388709Y-113785034D01*
X147393677Y-113775518D01*
X147417842Y-113741115D01*
X147449279Y-113712834D01*
X147489334Y-113689396D01*
X147499586Y-113684580D01*
X147511246Y-113679761D01*
X147522709Y-113676415D01*
X147536133Y-113674216D01*
X147553672Y-113672840D01*
X147577482Y-113671962D01*
X147609719Y-113671258D01*
X147695709Y-113669579D01*
X147695709Y-114183583D01*
X147579292Y-114183583D01*
G36*
X142038917Y-113135833D02*
G01*
X141943667Y-113135833D01*
X141943667Y-113532708D01*
X141816667Y-113532708D01*
X141816667Y-113135833D01*
X141721417Y-113135833D01*
X141721417Y-113008833D01*
X142038917Y-113008833D01*
X142038917Y-113135833D01*
G37*
X142038917Y-113135833D02*
X141943667Y-113135833D01*
X141943667Y-113532708D01*
X141816667Y-113532708D01*
X141816667Y-113135833D01*
X141721417Y-113135833D01*
X141721417Y-113008833D01*
X142038917Y-113008833D01*
X142038917Y-113135833D01*
G36*
X145192750Y-113786708D02*
G01*
X145097500Y-113786708D01*
X145097500Y-114183583D01*
X144975792Y-114183583D01*
X144975792Y-113786708D01*
X144880542Y-113786708D01*
X144880542Y-113665000D01*
X145192750Y-113665000D01*
X145192750Y-113786708D01*
G37*
X145192750Y-113786708D02*
X145097500Y-113786708D01*
X145097500Y-114183583D01*
X144975792Y-114183583D01*
X144975792Y-113786708D01*
X144880542Y-113786708D01*
X144880542Y-113665000D01*
X145192750Y-113665000D01*
X145192750Y-113786708D01*
G36*
X146409834Y-114183583D02*
G01*
X146288125Y-114183583D01*
X146288125Y-113665000D01*
X146409834Y-113665000D01*
X146409834Y-114183583D01*
G37*
X146409834Y-114183583D02*
X146288125Y-114183583D01*
X146288125Y-113665000D01*
X146409834Y-113665000D01*
X146409834Y-114183583D01*
G36*
X144097375Y-113135833D02*
G01*
X143996834Y-113135833D01*
X143996834Y-113532708D01*
X143875125Y-113532708D01*
X143875125Y-113135833D01*
X143774584Y-113135833D01*
X143774584Y-113008833D01*
X144097375Y-113008833D01*
X144097375Y-113135833D01*
G37*
X144097375Y-113135833D02*
X143996834Y-113135833D01*
X143996834Y-113532708D01*
X143875125Y-113532708D01*
X143875125Y-113135833D01*
X143774584Y-113135833D01*
X143774584Y-113008833D01*
X144097375Y-113008833D01*
X144097375Y-113135833D01*
G36*
X143457104Y-113184781D02*
G01*
X143457105Y-113193228D01*
X143457158Y-113238865D01*
X143457333Y-113275301D01*
X143457695Y-113303721D01*
X143458308Y-113325313D01*
X143459240Y-113341263D01*
X143460555Y-113352758D01*
X143462318Y-113360984D01*
X143464596Y-113367129D01*
X143467453Y-113372378D01*
X143480674Y-113388131D01*
X143503378Y-113401205D01*
X143531411Y-113405708D01*
X143546541Y-113404334D01*
X143571512Y-113394379D01*
X143592021Y-113374834D01*
X143593041Y-113373434D01*
X143595754Y-113368875D01*
X143597922Y-113362988D01*
X143599620Y-113354617D01*
X143600924Y-113342604D01*
X143601907Y-113325794D01*
X143602644Y-113303027D01*
X143603212Y-113273149D01*
X143603683Y-113235001D01*
X143604133Y-113187427D01*
X143605661Y-113014125D01*
X143726959Y-113014125D01*
X143726902Y-113190072D01*
X143726894Y-113203680D01*
X143726768Y-113253410D01*
X143726360Y-113294107D01*
X143725504Y-113327019D01*
X143724036Y-113353392D01*
X143721787Y-113374474D01*
X143718592Y-113391511D01*
X143714284Y-113405751D01*
X143708698Y-113418440D01*
X143701667Y-113430825D01*
X143693024Y-113444154D01*
X143678807Y-113462942D01*
X143646283Y-113493052D01*
X143607638Y-113514720D01*
X143563602Y-113527475D01*
X143550909Y-113529219D01*
X143508234Y-113528525D01*
X143466403Y-113518487D01*
X143427357Y-113499952D01*
X143393036Y-113473770D01*
X143365383Y-113440791D01*
X143360418Y-113433191D01*
X143353082Y-113421408D01*
X143347191Y-113410292D01*
X143342574Y-113398592D01*
X143339055Y-113385059D01*
X143336461Y-113368443D01*
X143334619Y-113347493D01*
X143333354Y-113320960D01*
X143332494Y-113287594D01*
X143331865Y-113246146D01*
X143331293Y-113195364D01*
X143329341Y-113014125D01*
X143457084Y-113014125D01*
X143457104Y-113184781D01*
G37*
X143457104Y-113184781D02*
X143457105Y-113193228D01*
X143457158Y-113238865D01*
X143457333Y-113275301D01*
X143457695Y-113303721D01*
X143458308Y-113325313D01*
X143459240Y-113341263D01*
X143460555Y-113352758D01*
X143462318Y-113360984D01*
X143464596Y-113367129D01*
X143467453Y-113372378D01*
X143480674Y-113388131D01*
X143503378Y-113401205D01*
X143531411Y-113405708D01*
X143546541Y-113404334D01*
X143571512Y-113394379D01*
X143592021Y-113374834D01*
X143593041Y-113373434D01*
X143595754Y-113368875D01*
X143597922Y-113362988D01*
X143599620Y-113354617D01*
X143600924Y-113342604D01*
X143601907Y-113325794D01*
X143602644Y-113303027D01*
X143603212Y-113273149D01*
X143603683Y-113235001D01*
X143604133Y-113187427D01*
X143605661Y-113014125D01*
X143726959Y-113014125D01*
X143726902Y-113190072D01*
X143726894Y-113203680D01*
X143726768Y-113253410D01*
X143726360Y-113294107D01*
X143725504Y-113327019D01*
X143724036Y-113353392D01*
X143721787Y-113374474D01*
X143718592Y-113391511D01*
X143714284Y-113405751D01*
X143708698Y-113418440D01*
X143701667Y-113430825D01*
X143693024Y-113444154D01*
X143678807Y-113462942D01*
X143646283Y-113493052D01*
X143607638Y-113514720D01*
X143563602Y-113527475D01*
X143550909Y-113529219D01*
X143508234Y-113528525D01*
X143466403Y-113518487D01*
X143427357Y-113499952D01*
X143393036Y-113473770D01*
X143365383Y-113440791D01*
X143360418Y-113433191D01*
X143353082Y-113421408D01*
X143347191Y-113410292D01*
X143342574Y-113398592D01*
X143339055Y-113385059D01*
X143336461Y-113368443D01*
X143334619Y-113347493D01*
X143333354Y-113320960D01*
X143332494Y-113287594D01*
X143331865Y-113246146D01*
X143331293Y-113195364D01*
X143329341Y-113014125D01*
X143457084Y-113014125D01*
X143457104Y-113184781D01*
G36*
X144455579Y-114065204D02*
G01*
X144467743Y-114101759D01*
X144477884Y-114132195D01*
X144485675Y-114155529D01*
X144490788Y-114170781D01*
X144492898Y-114176968D01*
X144492982Y-114178323D01*
X144489078Y-114180828D01*
X144478385Y-114182449D01*
X144459642Y-114183322D01*
X144431587Y-114183583D01*
X144367791Y-114183583D01*
X144358575Y-114154346D01*
X144349359Y-114125110D01*
X144269711Y-114126565D01*
X144190062Y-114128020D01*
X144182641Y-114155802D01*
X144175219Y-114183583D01*
X143929108Y-114183583D01*
X143925290Y-114116114D01*
X143923666Y-114089168D01*
X143921699Y-114059801D01*
X143919775Y-114033935D01*
X143918142Y-114015106D01*
X143914813Y-113981566D01*
X143881296Y-114082739D01*
X143847779Y-114183911D01*
X143725179Y-114180937D01*
X143659787Y-113985145D01*
X143656111Y-114061875D01*
X143655702Y-114070171D01*
X143654093Y-114099459D01*
X143652387Y-114126148D01*
X143650766Y-114147579D01*
X143649408Y-114161093D01*
X143646382Y-114183583D01*
X143531167Y-114183583D01*
X143531215Y-114155802D01*
X143531291Y-114151702D01*
X143531888Y-114135911D01*
X143533022Y-114111431D01*
X143534626Y-114079532D01*
X143536636Y-114041481D01*
X143538983Y-113998550D01*
X143541603Y-113952008D01*
X143544427Y-113903125D01*
X143546004Y-113876152D01*
X143548694Y-113829886D01*
X143551148Y-113787423D01*
X143553300Y-113749892D01*
X143555086Y-113718419D01*
X143556442Y-113694130D01*
X143557305Y-113678153D01*
X143557609Y-113671614D01*
X143557676Y-113671083D01*
X143561605Y-113668236D01*
X143572460Y-113666381D01*
X143591455Y-113665389D01*
X143619803Y-113665136D01*
X143681980Y-113665272D01*
X143734532Y-113824470D01*
X143787085Y-113983669D01*
X143826232Y-113867991D01*
X143830484Y-113855425D01*
X143842714Y-113819288D01*
X143854484Y-113784508D01*
X143865062Y-113753251D01*
X143873714Y-113727686D01*
X143879708Y-113709979D01*
X143894037Y-113667645D01*
X143955552Y-113666159D01*
X144017067Y-113664672D01*
X144020324Y-113703200D01*
X144020484Y-113705148D01*
X144021654Y-113720947D01*
X144023359Y-113745626D01*
X144025507Y-113777777D01*
X144028005Y-113815993D01*
X144030761Y-113858868D01*
X144033684Y-113904996D01*
X144036680Y-113952968D01*
X144037678Y-113968973D01*
X144040552Y-114014121D01*
X144043273Y-114055499D01*
X144045761Y-114091974D01*
X144047935Y-114122415D01*
X144049716Y-114145688D01*
X144051022Y-114160662D01*
X144051775Y-114166204D01*
X144054228Y-114163293D01*
X144057362Y-114153402D01*
X144057490Y-114152895D01*
X144060307Y-114143063D01*
X144065819Y-114124751D01*
X144073578Y-114099411D01*
X144083139Y-114068494D01*
X144094054Y-114033449D01*
X144105878Y-113995729D01*
X144106690Y-113993146D01*
X144234959Y-113993146D01*
X144239289Y-113995704D01*
X144251644Y-113997639D01*
X144269355Y-113998375D01*
X144286295Y-113997830D01*
X144298924Y-113996327D01*
X144303750Y-113994203D01*
X144302865Y-113990277D01*
X144299194Y-113977896D01*
X144293330Y-113959480D01*
X144285989Y-113937318D01*
X144268228Y-113884604D01*
X144251594Y-113936261D01*
X144246713Y-113951647D01*
X144240649Y-113971546D01*
X144236498Y-113986176D01*
X144234959Y-113993146D01*
X144106690Y-113993146D01*
X144128608Y-113923422D01*
X144148277Y-113860809D01*
X144164925Y-113807766D01*
X144178634Y-113764029D01*
X144189485Y-113729336D01*
X144197562Y-113703426D01*
X144202945Y-113686037D01*
X144205718Y-113676906D01*
X144206494Y-113674482D01*
X144209121Y-113670024D01*
X144214400Y-113667238D01*
X144224313Y-113665733D01*
X144240845Y-113665118D01*
X144265976Y-113665000D01*
X144322739Y-113665000D01*
X144406576Y-113917677D01*
X144410212Y-113928635D01*
X144426487Y-113977660D01*
X144431983Y-113994203D01*
X144441718Y-114023511D01*
X144455579Y-114065204D01*
G37*
X144455579Y-114065204D02*
X144467743Y-114101759D01*
X144477884Y-114132195D01*
X144485675Y-114155529D01*
X144490788Y-114170781D01*
X144492898Y-114176968D01*
X144492982Y-114178323D01*
X144489078Y-114180828D01*
X144478385Y-114182449D01*
X144459642Y-114183322D01*
X144431587Y-114183583D01*
X144367791Y-114183583D01*
X144358575Y-114154346D01*
X144349359Y-114125110D01*
X144269711Y-114126565D01*
X144190062Y-114128020D01*
X144182641Y-114155802D01*
X144175219Y-114183583D01*
X143929108Y-114183583D01*
X143925290Y-114116114D01*
X143923666Y-114089168D01*
X143921699Y-114059801D01*
X143919775Y-114033935D01*
X143918142Y-114015106D01*
X143914813Y-113981566D01*
X143881296Y-114082739D01*
X143847779Y-114183911D01*
X143725179Y-114180937D01*
X143659787Y-113985145D01*
X143656111Y-114061875D01*
X143655702Y-114070171D01*
X143654093Y-114099459D01*
X143652387Y-114126148D01*
X143650766Y-114147579D01*
X143649408Y-114161093D01*
X143646382Y-114183583D01*
X143531167Y-114183583D01*
X143531215Y-114155802D01*
X143531291Y-114151702D01*
X143531888Y-114135911D01*
X143533022Y-114111431D01*
X143534626Y-114079532D01*
X143536636Y-114041481D01*
X143538983Y-113998550D01*
X143541603Y-113952008D01*
X143544427Y-113903125D01*
X143546004Y-113876152D01*
X143548694Y-113829886D01*
X143551148Y-113787423D01*
X143553300Y-113749892D01*
X143555086Y-113718419D01*
X143556442Y-113694130D01*
X143557305Y-113678153D01*
X143557609Y-113671614D01*
X143557676Y-113671083D01*
X143561605Y-113668236D01*
X143572460Y-113666381D01*
X143591455Y-113665389D01*
X143619803Y-113665136D01*
X143681980Y-113665272D01*
X143734532Y-113824470D01*
X143787085Y-113983669D01*
X143826232Y-113867991D01*
X143830484Y-113855425D01*
X143842714Y-113819288D01*
X143854484Y-113784508D01*
X143865062Y-113753251D01*
X143873714Y-113727686D01*
X143879708Y-113709979D01*
X143894037Y-113667645D01*
X143955552Y-113666159D01*
X144017067Y-113664672D01*
X144020324Y-113703200D01*
X144020484Y-113705148D01*
X144021654Y-113720947D01*
X144023359Y-113745626D01*
X144025507Y-113777777D01*
X144028005Y-113815993D01*
X144030761Y-113858868D01*
X144033684Y-113904996D01*
X144036680Y-113952968D01*
X144037678Y-113968973D01*
X144040552Y-114014121D01*
X144043273Y-114055499D01*
X144045761Y-114091974D01*
X144047935Y-114122415D01*
X144049716Y-114145688D01*
X144051022Y-114160662D01*
X144051775Y-114166204D01*
X144054228Y-114163293D01*
X144057362Y-114153402D01*
X144057490Y-114152895D01*
X144060307Y-114143063D01*
X144065819Y-114124751D01*
X144073578Y-114099411D01*
X144083139Y-114068494D01*
X144094054Y-114033449D01*
X144105878Y-113995729D01*
X144106690Y-113993146D01*
X144234959Y-113993146D01*
X144239289Y-113995704D01*
X144251644Y-113997639D01*
X144269355Y-113998375D01*
X144286295Y-113997830D01*
X144298924Y-113996327D01*
X144303750Y-113994203D01*
X144302865Y-113990277D01*
X144299194Y-113977896D01*
X144293330Y-113959480D01*
X144285989Y-113937318D01*
X144268228Y-113884604D01*
X144251594Y-113936261D01*
X144246713Y-113951647D01*
X144240649Y-113971546D01*
X144236498Y-113986176D01*
X144234959Y-113993146D01*
X144106690Y-113993146D01*
X144128608Y-113923422D01*
X144148277Y-113860809D01*
X144164925Y-113807766D01*
X144178634Y-113764029D01*
X144189485Y-113729336D01*
X144197562Y-113703426D01*
X144202945Y-113686037D01*
X144205718Y-113676906D01*
X144206494Y-113674482D01*
X144209121Y-113670024D01*
X144214400Y-113667238D01*
X144224313Y-113665733D01*
X144240845Y-113665118D01*
X144265976Y-113665000D01*
X144322739Y-113665000D01*
X144406576Y-113917677D01*
X144410212Y-113928635D01*
X144426487Y-113977660D01*
X144431983Y-113994203D01*
X144441718Y-114023511D01*
X144455579Y-114065204D01*
G36*
X152527000Y-113122604D02*
G01*
X152524355Y-113125250D01*
X152521709Y-113122604D01*
X152524355Y-113119958D01*
X152527000Y-113122604D01*
G37*
X152527000Y-113122604D02*
X152524355Y-113125250D01*
X152521709Y-113122604D01*
X152524355Y-113119958D01*
X152527000Y-113122604D01*
G36*
X146695584Y-113532708D02*
G01*
X146695584Y-113400416D01*
X146678386Y-113400448D01*
X146676952Y-113400462D01*
X146670140Y-113401236D01*
X146663932Y-113404191D01*
X146657109Y-113410700D01*
X146648450Y-113422134D01*
X146636734Y-113439867D01*
X146620741Y-113465271D01*
X146580294Y-113530062D01*
X146508293Y-113531534D01*
X146500450Y-113531678D01*
X146475260Y-113531900D01*
X146454891Y-113531714D01*
X146441262Y-113531152D01*
X146436292Y-113530250D01*
X146436389Y-113529934D01*
X146440016Y-113523296D01*
X146448273Y-113509350D01*
X146460313Y-113489492D01*
X146475294Y-113465116D01*
X146492370Y-113437616D01*
X146548447Y-113347739D01*
X146529436Y-113325530D01*
X146526050Y-113321521D01*
X146506777Y-113295257D01*
X146494660Y-113269908D01*
X146488365Y-113241803D01*
X146486563Y-113207270D01*
X146486566Y-113206746D01*
X146608223Y-113206746D01*
X146612495Y-113227919D01*
X146625731Y-113247417D01*
X146647959Y-113263383D01*
X146649676Y-113264240D01*
X146666298Y-113271448D01*
X146681032Y-113276324D01*
X146695584Y-113279855D01*
X146695584Y-113210490D01*
X146695583Y-113204469D01*
X146695486Y-113178085D01*
X146695020Y-113160285D01*
X146693895Y-113149385D01*
X146691823Y-113143700D01*
X146688514Y-113141547D01*
X146683678Y-113141241D01*
X146680102Y-113141573D01*
X146665914Y-113145157D01*
X146649694Y-113151381D01*
X146648901Y-113151745D01*
X146626455Y-113166802D01*
X146612886Y-113185754D01*
X146608223Y-113206746D01*
X146486566Y-113206746D01*
X146486626Y-113195068D01*
X146487450Y-113174680D01*
X146489815Y-113159680D01*
X146494448Y-113146517D01*
X146502077Y-113131643D01*
X146508067Y-113121437D01*
X146537529Y-113083647D01*
X146573773Y-113053772D01*
X146616107Y-113032292D01*
X146663834Y-113019690D01*
X146677514Y-113017993D01*
X146702627Y-113016027D01*
X146731560Y-113014676D01*
X146760407Y-113014164D01*
X146822584Y-113014125D01*
X146822584Y-113532708D01*
X146695584Y-113532708D01*
G37*
X146695584Y-113532708D02*
X146695584Y-113400416D01*
X146678386Y-113400448D01*
X146676952Y-113400462D01*
X146670140Y-113401236D01*
X146663932Y-113404191D01*
X146657109Y-113410700D01*
X146648450Y-113422134D01*
X146636734Y-113439867D01*
X146620741Y-113465271D01*
X146580294Y-113530062D01*
X146508293Y-113531534D01*
X146500450Y-113531678D01*
X146475260Y-113531900D01*
X146454891Y-113531714D01*
X146441262Y-113531152D01*
X146436292Y-113530250D01*
X146436389Y-113529934D01*
X146440016Y-113523296D01*
X146448273Y-113509350D01*
X146460313Y-113489492D01*
X146475294Y-113465116D01*
X146492370Y-113437616D01*
X146548447Y-113347739D01*
X146529436Y-113325530D01*
X146526050Y-113321521D01*
X146506777Y-113295257D01*
X146494660Y-113269908D01*
X146488365Y-113241803D01*
X146486563Y-113207270D01*
X146486566Y-113206746D01*
X146608223Y-113206746D01*
X146612495Y-113227919D01*
X146625731Y-113247417D01*
X146647959Y-113263383D01*
X146649676Y-113264240D01*
X146666298Y-113271448D01*
X146681032Y-113276324D01*
X146695584Y-113279855D01*
X146695584Y-113210490D01*
X146695583Y-113204469D01*
X146695486Y-113178085D01*
X146695020Y-113160285D01*
X146693895Y-113149385D01*
X146691823Y-113143700D01*
X146688514Y-113141547D01*
X146683678Y-113141241D01*
X146680102Y-113141573D01*
X146665914Y-113145157D01*
X146649694Y-113151381D01*
X146648901Y-113151745D01*
X146626455Y-113166802D01*
X146612886Y-113185754D01*
X146608223Y-113206746D01*
X146486566Y-113206746D01*
X146486626Y-113195068D01*
X146487450Y-113174680D01*
X146489815Y-113159680D01*
X146494448Y-113146517D01*
X146502077Y-113131643D01*
X146508067Y-113121437D01*
X146537529Y-113083647D01*
X146573773Y-113053772D01*
X146616107Y-113032292D01*
X146663834Y-113019690D01*
X146677514Y-113017993D01*
X146702627Y-113016027D01*
X146731560Y-113014676D01*
X146760407Y-113014164D01*
X146822584Y-113014125D01*
X146822584Y-113532708D01*
X146695584Y-113532708D01*
G36*
X145393834Y-113532708D02*
G01*
X145081625Y-113532708D01*
X145081625Y-113411000D01*
X145266834Y-113411000D01*
X145266834Y-113014125D01*
X145393834Y-113014125D01*
X145393834Y-113532708D01*
G37*
X145393834Y-113532708D02*
X145081625Y-113532708D01*
X145081625Y-113411000D01*
X145266834Y-113411000D01*
X145266834Y-113014125D01*
X145393834Y-113014125D01*
X145393834Y-113532708D01*
G36*
X144319782Y-113006100D02*
G01*
X144348294Y-113010171D01*
X144370513Y-113017878D01*
X144399882Y-113036476D01*
X144421933Y-113058058D01*
X144438548Y-113084803D01*
X144451268Y-113118776D01*
X144455880Y-113156879D01*
X144450042Y-113194818D01*
X144439593Y-113222510D01*
X144420970Y-113251763D01*
X144395139Y-113276091D01*
X144361042Y-113296444D01*
X144317625Y-113313770D01*
X144300297Y-113320117D01*
X144272180Y-113334187D01*
X144254044Y-113349523D01*
X144246037Y-113365894D01*
X144248310Y-113383070D01*
X144261010Y-113400823D01*
X144266216Y-113405687D01*
X144280416Y-113414060D01*
X144298459Y-113416291D01*
X144305611Y-113416050D01*
X144321610Y-113411950D01*
X144335908Y-113400823D01*
X144338881Y-113397645D01*
X144347790Y-113384967D01*
X144351375Y-113374365D01*
X144351614Y-113370860D01*
X144353610Y-113367348D01*
X144359138Y-113365149D01*
X144369961Y-113363959D01*
X144387842Y-113363469D01*
X144414543Y-113363375D01*
X144477710Y-113363375D01*
X144474948Y-113383218D01*
X144469192Y-113410773D01*
X144452813Y-113450651D01*
X144428234Y-113484519D01*
X144396159Y-113511493D01*
X144357290Y-113530694D01*
X144356025Y-113531118D01*
X144340350Y-113534402D01*
X144318859Y-113536781D01*
X144295813Y-113537763D01*
X144276366Y-113537502D01*
X144257277Y-113535559D01*
X144240589Y-113530950D01*
X144221730Y-113522748D01*
X144195317Y-113507290D01*
X144163217Y-113478478D01*
X144138838Y-113442750D01*
X144130472Y-113418850D01*
X144126041Y-113388284D01*
X144125936Y-113355664D01*
X144130162Y-113324864D01*
X144138722Y-113299757D01*
X144150308Y-113279542D01*
X144169985Y-113254687D01*
X144194415Y-113234541D01*
X144225539Y-113217610D01*
X144265302Y-113202400D01*
X144272000Y-113200115D01*
X144292889Y-113192217D01*
X144310018Y-113184643D01*
X144320203Y-113178763D01*
X144327815Y-113169681D01*
X144331426Y-113154921D01*
X144327823Y-113140516D01*
X144318009Y-113129586D01*
X144302988Y-113125250D01*
X144301090Y-113125306D01*
X144285433Y-113129150D01*
X144271539Y-113137277D01*
X144263808Y-113147219D01*
X144263413Y-113148335D01*
X144260624Y-113152209D01*
X144254698Y-113154729D01*
X144243774Y-113156179D01*
X144225990Y-113156842D01*
X144199487Y-113157000D01*
X144138270Y-113157000D01*
X144141536Y-113133170D01*
X144141728Y-113131826D01*
X144151990Y-113096849D01*
X144171098Y-113064663D01*
X144197387Y-113037464D01*
X144229194Y-113017446D01*
X144233003Y-113015814D01*
X144258486Y-113008910D01*
X144288630Y-113005676D01*
X144319782Y-113006100D01*
G37*
X144319782Y-113006100D02*
X144348294Y-113010171D01*
X144370513Y-113017878D01*
X144399882Y-113036476D01*
X144421933Y-113058058D01*
X144438548Y-113084803D01*
X144451268Y-113118776D01*
X144455880Y-113156879D01*
X144450042Y-113194818D01*
X144439593Y-113222510D01*
X144420970Y-113251763D01*
X144395139Y-113276091D01*
X144361042Y-113296444D01*
X144317625Y-113313770D01*
X144300297Y-113320117D01*
X144272180Y-113334187D01*
X144254044Y-113349523D01*
X144246037Y-113365894D01*
X144248310Y-113383070D01*
X144261010Y-113400823D01*
X144266216Y-113405687D01*
X144280416Y-113414060D01*
X144298459Y-113416291D01*
X144305611Y-113416050D01*
X144321610Y-113411950D01*
X144335908Y-113400823D01*
X144338881Y-113397645D01*
X144347790Y-113384967D01*
X144351375Y-113374365D01*
X144351614Y-113370860D01*
X144353610Y-113367348D01*
X144359138Y-113365149D01*
X144369961Y-113363959D01*
X144387842Y-113363469D01*
X144414543Y-113363375D01*
X144477710Y-113363375D01*
X144474948Y-113383218D01*
X144469192Y-113410773D01*
X144452813Y-113450651D01*
X144428234Y-113484519D01*
X144396159Y-113511493D01*
X144357290Y-113530694D01*
X144356025Y-113531118D01*
X144340350Y-113534402D01*
X144318859Y-113536781D01*
X144295813Y-113537763D01*
X144276366Y-113537502D01*
X144257277Y-113535559D01*
X144240589Y-113530950D01*
X144221730Y-113522748D01*
X144195317Y-113507290D01*
X144163217Y-113478478D01*
X144138838Y-113442750D01*
X144130472Y-113418850D01*
X144126041Y-113388284D01*
X144125936Y-113355664D01*
X144130162Y-113324864D01*
X144138722Y-113299757D01*
X144150308Y-113279542D01*
X144169985Y-113254687D01*
X144194415Y-113234541D01*
X144225539Y-113217610D01*
X144265302Y-113202400D01*
X144272000Y-113200115D01*
X144292889Y-113192217D01*
X144310018Y-113184643D01*
X144320203Y-113178763D01*
X144327815Y-113169681D01*
X144331426Y-113154921D01*
X144327823Y-113140516D01*
X144318009Y-113129586D01*
X144302988Y-113125250D01*
X144301090Y-113125306D01*
X144285433Y-113129150D01*
X144271539Y-113137277D01*
X144263808Y-113147219D01*
X144263413Y-113148335D01*
X144260624Y-113152209D01*
X144254698Y-113154729D01*
X144243774Y-113156179D01*
X144225990Y-113156842D01*
X144199487Y-113157000D01*
X144138270Y-113157000D01*
X144141536Y-113133170D01*
X144141728Y-113131826D01*
X144151990Y-113096849D01*
X144171098Y-113064663D01*
X144197387Y-113037464D01*
X144229194Y-113017446D01*
X144233003Y-113015814D01*
X144258486Y-113008910D01*
X144288630Y-113005676D01*
X144319782Y-113006100D01*
G36*
X145872045Y-109339211D02*
G01*
X145920854Y-109341130D01*
X145963986Y-109344303D01*
X145999029Y-109348746D01*
X146081728Y-109365568D01*
X146174720Y-109392521D01*
X146260917Y-109427037D01*
X146340927Y-109469404D01*
X146415357Y-109519907D01*
X146484814Y-109578837D01*
X146538209Y-109634697D01*
X146592490Y-109705328D01*
X146640058Y-109783276D01*
X146680575Y-109867822D01*
X146713702Y-109958250D01*
X146739100Y-110053844D01*
X146756433Y-110153888D01*
X146757640Y-110164125D01*
X146760787Y-110201898D01*
X146762994Y-110246414D01*
X146764235Y-110294798D01*
X146764487Y-110344175D01*
X146763726Y-110391668D01*
X146761929Y-110434401D01*
X146759070Y-110469500D01*
X146750381Y-110533036D01*
X146732583Y-110619318D01*
X146708201Y-110699213D01*
X146676651Y-110774262D01*
X146637349Y-110846004D01*
X146589711Y-110915979D01*
X146576266Y-110933667D01*
X146536372Y-110982059D01*
X146495832Y-111024391D01*
X146452246Y-111062843D01*
X146403213Y-111099590D01*
X146346334Y-111136812D01*
X146329561Y-111147069D01*
X146292958Y-111168466D01*
X146254550Y-111189492D01*
X146213311Y-111210622D01*
X146168212Y-111232328D01*
X146118229Y-111255084D01*
X146062334Y-111279362D01*
X145999502Y-111305636D01*
X145928705Y-111334378D01*
X145848917Y-111366062D01*
X145844148Y-111367943D01*
X145778404Y-111394567D01*
X145721791Y-111419067D01*
X145673301Y-111442065D01*
X145631923Y-111464184D01*
X145596648Y-111486046D01*
X145566465Y-111508275D01*
X145540365Y-111531491D01*
X145517339Y-111556318D01*
X145496376Y-111583377D01*
X145478093Y-111612825D01*
X145456673Y-111662729D01*
X145443116Y-111717568D01*
X145437788Y-111775672D01*
X145441055Y-111835371D01*
X145442878Y-111848200D01*
X145457111Y-111909762D01*
X145479342Y-111964611D01*
X145509219Y-112012414D01*
X145546386Y-112052842D01*
X145590489Y-112085564D01*
X145641175Y-112110248D01*
X145698089Y-112126564D01*
X145760878Y-112134182D01*
X145822548Y-112133428D01*
X145883117Y-112124159D01*
X145937834Y-112106228D01*
X145986529Y-112079729D01*
X146029034Y-112044756D01*
X146065180Y-112001400D01*
X146094798Y-111949756D01*
X146106202Y-111923945D01*
X146117468Y-111892092D01*
X146125234Y-111859484D01*
X146130230Y-111822873D01*
X146133188Y-111779009D01*
X146136256Y-111710705D01*
X146290243Y-111714176D01*
X146296170Y-111714307D01*
X146343575Y-111715196D01*
X146398086Y-111715996D01*
X146456657Y-111716673D01*
X146516241Y-111717197D01*
X146573790Y-111717535D01*
X146626257Y-111717656D01*
X146808284Y-111717666D01*
X146805177Y-111814239D01*
X146803352Y-111856881D01*
X146799246Y-111910762D01*
X146792903Y-111960405D01*
X146783824Y-112009471D01*
X146771512Y-112061625D01*
X146752687Y-112125804D01*
X146716948Y-112217634D01*
X146672539Y-112303961D01*
X146619901Y-112384315D01*
X146559477Y-112458228D01*
X146491708Y-112525231D01*
X146417035Y-112584856D01*
X146335900Y-112636633D01*
X146248745Y-112680095D01*
X146156011Y-112714773D01*
X146133915Y-112721214D01*
X146097511Y-112730465D01*
X146056783Y-112739673D01*
X146015282Y-112748089D01*
X145976560Y-112754962D01*
X145944167Y-112759540D01*
X145925947Y-112761125D01*
X145894713Y-112762741D01*
X145857149Y-112763854D01*
X145815652Y-112764461D01*
X145772620Y-112764560D01*
X145730449Y-112764150D01*
X145691536Y-112763227D01*
X145658278Y-112761790D01*
X145633073Y-112759836D01*
X145567934Y-112751049D01*
X145464315Y-112729406D01*
X145366415Y-112698991D01*
X145274404Y-112659850D01*
X145195023Y-112616489D01*
X145114973Y-112561830D01*
X145042693Y-112500060D01*
X144978311Y-112431354D01*
X144921957Y-112355888D01*
X144873760Y-112273837D01*
X144833850Y-112185375D01*
X144802356Y-112090679D01*
X144779406Y-111989922D01*
X144778090Y-111982373D01*
X144774009Y-111954882D01*
X144770868Y-111925429D01*
X144768506Y-111891860D01*
X144766761Y-111852019D01*
X144765473Y-111803753D01*
X144765446Y-111709146D01*
X144769747Y-111621863D01*
X144778634Y-111541811D01*
X144792343Y-111467726D01*
X144811108Y-111398340D01*
X144835165Y-111332389D01*
X144864747Y-111268607D01*
X144884839Y-111231778D01*
X144931835Y-111159166D01*
X144985179Y-111092525D01*
X145043675Y-111033270D01*
X145106128Y-110982817D01*
X145112131Y-110978657D01*
X145140469Y-110960855D01*
X145176251Y-110940522D01*
X145217544Y-110918633D01*
X145262413Y-110896164D01*
X145308922Y-110874091D01*
X145355138Y-110853390D01*
X145399125Y-110835037D01*
X145424033Y-110825413D01*
X145457405Y-110813050D01*
X145495032Y-110799508D01*
X145533929Y-110785863D01*
X145571105Y-110773189D01*
X145600313Y-110763319D01*
X145674333Y-110737325D01*
X145739159Y-110712878D01*
X145795649Y-110689536D01*
X145844662Y-110666855D01*
X145887055Y-110644393D01*
X145923687Y-110621705D01*
X145955416Y-110598350D01*
X145983100Y-110573884D01*
X146007598Y-110547865D01*
X146013660Y-110540619D01*
X146046572Y-110491863D01*
X146070415Y-110437818D01*
X146085121Y-110378739D01*
X146090626Y-110314876D01*
X146086861Y-110246483D01*
X146085530Y-110236146D01*
X146072725Y-110173659D01*
X146052618Y-110118749D01*
X146025154Y-110071292D01*
X145990276Y-110031161D01*
X145969647Y-110013301D01*
X145936164Y-109991511D01*
X145899690Y-109976896D01*
X145858090Y-109968690D01*
X145809230Y-109966125D01*
X145787412Y-109966690D01*
X145734153Y-109973742D01*
X145687098Y-109989040D01*
X145645658Y-110012818D01*
X145609247Y-110045308D01*
X145581755Y-110079545D01*
X145559695Y-110118215D01*
X145543747Y-110161590D01*
X145533310Y-110211324D01*
X145527780Y-110269072D01*
X145524510Y-110331250D01*
X144852432Y-110331250D01*
X144855703Y-110242614D01*
X144855771Y-110240804D01*
X144862656Y-110147146D01*
X144875829Y-110057182D01*
X144894953Y-109972738D01*
X144919690Y-109895641D01*
X144921797Y-109890220D01*
X144932089Y-109866138D01*
X144945491Y-109837192D01*
X144960555Y-109806304D01*
X144975833Y-109776394D01*
X144989875Y-109750385D01*
X145001233Y-109731197D01*
X145040244Y-109675473D01*
X145099739Y-109605680D01*
X145166044Y-109543827D01*
X145239257Y-109489852D01*
X145319476Y-109443692D01*
X145406799Y-109405287D01*
X145501322Y-109374574D01*
X145603145Y-109351493D01*
X145627259Y-109347845D01*
X145668276Y-109343744D01*
X145715674Y-109340813D01*
X145767043Y-109339069D01*
X145819971Y-109338530D01*
X145872045Y-109339211D01*
G37*
X145872045Y-109339211D02*
X145920854Y-109341130D01*
X145963986Y-109344303D01*
X145999029Y-109348746D01*
X146081728Y-109365568D01*
X146174720Y-109392521D01*
X146260917Y-109427037D01*
X146340927Y-109469404D01*
X146415357Y-109519907D01*
X146484814Y-109578837D01*
X146538209Y-109634697D01*
X146592490Y-109705328D01*
X146640058Y-109783276D01*
X146680575Y-109867822D01*
X146713702Y-109958250D01*
X146739100Y-110053844D01*
X146756433Y-110153888D01*
X146757640Y-110164125D01*
X146760787Y-110201898D01*
X146762994Y-110246414D01*
X146764235Y-110294798D01*
X146764487Y-110344175D01*
X146763726Y-110391668D01*
X146761929Y-110434401D01*
X146759070Y-110469500D01*
X146750381Y-110533036D01*
X146732583Y-110619318D01*
X146708201Y-110699213D01*
X146676651Y-110774262D01*
X146637349Y-110846004D01*
X146589711Y-110915979D01*
X146576266Y-110933667D01*
X146536372Y-110982059D01*
X146495832Y-111024391D01*
X146452246Y-111062843D01*
X146403213Y-111099590D01*
X146346334Y-111136812D01*
X146329561Y-111147069D01*
X146292958Y-111168466D01*
X146254550Y-111189492D01*
X146213311Y-111210622D01*
X146168212Y-111232328D01*
X146118229Y-111255084D01*
X146062334Y-111279362D01*
X145999502Y-111305636D01*
X145928705Y-111334378D01*
X145848917Y-111366062D01*
X145844148Y-111367943D01*
X145778404Y-111394567D01*
X145721791Y-111419067D01*
X145673301Y-111442065D01*
X145631923Y-111464184D01*
X145596648Y-111486046D01*
X145566465Y-111508275D01*
X145540365Y-111531491D01*
X145517339Y-111556318D01*
X145496376Y-111583377D01*
X145478093Y-111612825D01*
X145456673Y-111662729D01*
X145443116Y-111717568D01*
X145437788Y-111775672D01*
X145441055Y-111835371D01*
X145442878Y-111848200D01*
X145457111Y-111909762D01*
X145479342Y-111964611D01*
X145509219Y-112012414D01*
X145546386Y-112052842D01*
X145590489Y-112085564D01*
X145641175Y-112110248D01*
X145698089Y-112126564D01*
X145760878Y-112134182D01*
X145822548Y-112133428D01*
X145883117Y-112124159D01*
X145937834Y-112106228D01*
X145986529Y-112079729D01*
X146029034Y-112044756D01*
X146065180Y-112001400D01*
X146094798Y-111949756D01*
X146106202Y-111923945D01*
X146117468Y-111892092D01*
X146125234Y-111859484D01*
X146130230Y-111822873D01*
X146133188Y-111779009D01*
X146136256Y-111710705D01*
X146290243Y-111714176D01*
X146296170Y-111714307D01*
X146343575Y-111715196D01*
X146398086Y-111715996D01*
X146456657Y-111716673D01*
X146516241Y-111717197D01*
X146573790Y-111717535D01*
X146626257Y-111717656D01*
X146808284Y-111717666D01*
X146805177Y-111814239D01*
X146803352Y-111856881D01*
X146799246Y-111910762D01*
X146792903Y-111960405D01*
X146783824Y-112009471D01*
X146771512Y-112061625D01*
X146752687Y-112125804D01*
X146716948Y-112217634D01*
X146672539Y-112303961D01*
X146619901Y-112384315D01*
X146559477Y-112458228D01*
X146491708Y-112525231D01*
X146417035Y-112584856D01*
X146335900Y-112636633D01*
X146248745Y-112680095D01*
X146156011Y-112714773D01*
X146133915Y-112721214D01*
X146097511Y-112730465D01*
X146056783Y-112739673D01*
X146015282Y-112748089D01*
X145976560Y-112754962D01*
X145944167Y-112759540D01*
X145925947Y-112761125D01*
X145894713Y-112762741D01*
X145857149Y-112763854D01*
X145815652Y-112764461D01*
X145772620Y-112764560D01*
X145730449Y-112764150D01*
X145691536Y-112763227D01*
X145658278Y-112761790D01*
X145633073Y-112759836D01*
X145567934Y-112751049D01*
X145464315Y-112729406D01*
X145366415Y-112698991D01*
X145274404Y-112659850D01*
X145195023Y-112616489D01*
X145114973Y-112561830D01*
X145042693Y-112500060D01*
X144978311Y-112431354D01*
X144921957Y-112355888D01*
X144873760Y-112273837D01*
X144833850Y-112185375D01*
X144802356Y-112090679D01*
X144779406Y-111989922D01*
X144778090Y-111982373D01*
X144774009Y-111954882D01*
X144770868Y-111925429D01*
X144768506Y-111891860D01*
X144766761Y-111852019D01*
X144765473Y-111803753D01*
X144765446Y-111709146D01*
X144769747Y-111621863D01*
X144778634Y-111541811D01*
X144792343Y-111467726D01*
X144811108Y-111398340D01*
X144835165Y-111332389D01*
X144864747Y-111268607D01*
X144884839Y-111231778D01*
X144931835Y-111159166D01*
X144985179Y-111092525D01*
X145043675Y-111033270D01*
X145106128Y-110982817D01*
X145112131Y-110978657D01*
X145140469Y-110960855D01*
X145176251Y-110940522D01*
X145217544Y-110918633D01*
X145262413Y-110896164D01*
X145308922Y-110874091D01*
X145355138Y-110853390D01*
X145399125Y-110835037D01*
X145424033Y-110825413D01*
X145457405Y-110813050D01*
X145495032Y-110799508D01*
X145533929Y-110785863D01*
X145571105Y-110773189D01*
X145600313Y-110763319D01*
X145674333Y-110737325D01*
X145739159Y-110712878D01*
X145795649Y-110689536D01*
X145844662Y-110666855D01*
X145887055Y-110644393D01*
X145923687Y-110621705D01*
X145955416Y-110598350D01*
X145983100Y-110573884D01*
X146007598Y-110547865D01*
X146013660Y-110540619D01*
X146046572Y-110491863D01*
X146070415Y-110437818D01*
X146085121Y-110378739D01*
X146090626Y-110314876D01*
X146086861Y-110246483D01*
X146085530Y-110236146D01*
X146072725Y-110173659D01*
X146052618Y-110118749D01*
X146025154Y-110071292D01*
X145990276Y-110031161D01*
X145969647Y-110013301D01*
X145936164Y-109991511D01*
X145899690Y-109976896D01*
X145858090Y-109968690D01*
X145809230Y-109966125D01*
X145787412Y-109966690D01*
X145734153Y-109973742D01*
X145687098Y-109989040D01*
X145645658Y-110012818D01*
X145609247Y-110045308D01*
X145581755Y-110079545D01*
X145559695Y-110118215D01*
X145543747Y-110161590D01*
X145533310Y-110211324D01*
X145527780Y-110269072D01*
X145524510Y-110331250D01*
X144852432Y-110331250D01*
X144855703Y-110242614D01*
X144855771Y-110240804D01*
X144862656Y-110147146D01*
X144875829Y-110057182D01*
X144894953Y-109972738D01*
X144919690Y-109895641D01*
X144921797Y-109890220D01*
X144932089Y-109866138D01*
X144945491Y-109837192D01*
X144960555Y-109806304D01*
X144975833Y-109776394D01*
X144989875Y-109750385D01*
X145001233Y-109731197D01*
X145040244Y-109675473D01*
X145099739Y-109605680D01*
X145166044Y-109543827D01*
X145239257Y-109489852D01*
X145319476Y-109443692D01*
X145406799Y-109405287D01*
X145501322Y-109374574D01*
X145603145Y-109351493D01*
X145627259Y-109347845D01*
X145668276Y-109343744D01*
X145715674Y-109340813D01*
X145767043Y-109339069D01*
X145819971Y-109338530D01*
X145872045Y-109339211D01*
G36*
X145608666Y-113675148D02*
G01*
X145653020Y-113692557D01*
X145693180Y-113717963D01*
X145728124Y-113750722D01*
X145756831Y-113790192D01*
X145778279Y-113835730D01*
X145791447Y-113886696D01*
X145794531Y-113917733D01*
X145791294Y-113968123D01*
X145778100Y-114016880D01*
X145755333Y-114062774D01*
X145723377Y-114104571D01*
X145718973Y-114109256D01*
X145689227Y-114136562D01*
X145657792Y-114156901D01*
X145620516Y-114173040D01*
X145614187Y-114175031D01*
X145589731Y-114179862D01*
X145560232Y-114182794D01*
X145529521Y-114183672D01*
X145501430Y-114182346D01*
X145479788Y-114178661D01*
X145479371Y-114178542D01*
X145467121Y-114176385D01*
X145462625Y-114178661D01*
X145458560Y-114180456D01*
X145445761Y-114182086D01*
X145426168Y-114183182D01*
X145401771Y-114183583D01*
X145340917Y-114183583D01*
X145340917Y-113892541D01*
X145563167Y-113892541D01*
X145563167Y-114014250D01*
X145512896Y-114014250D01*
X145506067Y-114014252D01*
X145485144Y-114014447D01*
X145472320Y-114015311D01*
X145465613Y-114017341D01*
X145463042Y-114021036D01*
X145462625Y-114026896D01*
X145466944Y-114038279D01*
X145479638Y-114048284D01*
X145498557Y-114055728D01*
X145521530Y-114060200D01*
X145546389Y-114061288D01*
X145570962Y-114058580D01*
X145593082Y-114051663D01*
X145610547Y-114041680D01*
X145635701Y-114019267D01*
X145655885Y-113991263D01*
X145669323Y-113960349D01*
X145674240Y-113929203D01*
X145671524Y-113902873D01*
X145660761Y-113870018D01*
X145643205Y-113840297D01*
X145620347Y-113816108D01*
X145593681Y-113799847D01*
X145571335Y-113793497D01*
X145539059Y-113791316D01*
X145506190Y-113795533D01*
X145476053Y-113805650D01*
X145451973Y-113821166D01*
X145451599Y-113821497D01*
X145447134Y-113823820D01*
X145441461Y-113822568D01*
X145433069Y-113816708D01*
X145420449Y-113805206D01*
X145402089Y-113787028D01*
X145392395Y-113777074D01*
X145375717Y-113758493D01*
X145365886Y-113745075D01*
X145363538Y-113737634D01*
X145369676Y-113730063D01*
X145383180Y-113719183D01*
X145401404Y-113706936D01*
X145421828Y-113694899D01*
X145441930Y-113684650D01*
X145459190Y-113677766D01*
X145460649Y-113677316D01*
X145511459Y-113666885D01*
X145561139Y-113666376D01*
X145608666Y-113675148D01*
G37*
X145608666Y-113675148D02*
X145653020Y-113692557D01*
X145693180Y-113717963D01*
X145728124Y-113750722D01*
X145756831Y-113790192D01*
X145778279Y-113835730D01*
X145791447Y-113886696D01*
X145794531Y-113917733D01*
X145791294Y-113968123D01*
X145778100Y-114016880D01*
X145755333Y-114062774D01*
X145723377Y-114104571D01*
X145718973Y-114109256D01*
X145689227Y-114136562D01*
X145657792Y-114156901D01*
X145620516Y-114173040D01*
X145614187Y-114175031D01*
X145589731Y-114179862D01*
X145560232Y-114182794D01*
X145529521Y-114183672D01*
X145501430Y-114182346D01*
X145479788Y-114178661D01*
X145479371Y-114178542D01*
X145467121Y-114176385D01*
X145462625Y-114178661D01*
X145458560Y-114180456D01*
X145445761Y-114182086D01*
X145426168Y-114183182D01*
X145401771Y-114183583D01*
X145340917Y-114183583D01*
X145340917Y-113892541D01*
X145563167Y-113892541D01*
X145563167Y-114014250D01*
X145512896Y-114014250D01*
X145506067Y-114014252D01*
X145485144Y-114014447D01*
X145472320Y-114015311D01*
X145465613Y-114017341D01*
X145463042Y-114021036D01*
X145462625Y-114026896D01*
X145466944Y-114038279D01*
X145479638Y-114048284D01*
X145498557Y-114055728D01*
X145521530Y-114060200D01*
X145546389Y-114061288D01*
X145570962Y-114058580D01*
X145593082Y-114051663D01*
X145610547Y-114041680D01*
X145635701Y-114019267D01*
X145655885Y-113991263D01*
X145669323Y-113960349D01*
X145674240Y-113929203D01*
X145671524Y-113902873D01*
X145660761Y-113870018D01*
X145643205Y-113840297D01*
X145620347Y-113816108D01*
X145593681Y-113799847D01*
X145571335Y-113793497D01*
X145539059Y-113791316D01*
X145506190Y-113795533D01*
X145476053Y-113805650D01*
X145451973Y-113821166D01*
X145451599Y-113821497D01*
X145447134Y-113823820D01*
X145441461Y-113822568D01*
X145433069Y-113816708D01*
X145420449Y-113805206D01*
X145402089Y-113787028D01*
X145392395Y-113777074D01*
X145375717Y-113758493D01*
X145365886Y-113745075D01*
X145363538Y-113737634D01*
X145369676Y-113730063D01*
X145383180Y-113719183D01*
X145401404Y-113706936D01*
X145421828Y-113694899D01*
X145441930Y-113684650D01*
X145459190Y-113677766D01*
X145460649Y-113677316D01*
X145511459Y-113666885D01*
X145561139Y-113666376D01*
X145608666Y-113675148D01*
G36*
X152933230Y-111794062D02*
G01*
X152933147Y-111833048D01*
X152932848Y-111865148D01*
X152932271Y-111892376D01*
X152931355Y-111916746D01*
X152930039Y-111940269D01*
X152928263Y-111964960D01*
X152925965Y-111992833D01*
X152923701Y-112019107D01*
X152921811Y-112040173D01*
X152920371Y-112054526D01*
X152919155Y-112064184D01*
X152917936Y-112071169D01*
X152916488Y-112077500D01*
X152915727Y-112080925D01*
X152913036Y-112096591D01*
X152910719Y-112114541D01*
X152910662Y-112115060D01*
X152908596Y-112129924D01*
X152904994Y-112152106D01*
X152900348Y-112178697D01*
X152895149Y-112206783D01*
X152894176Y-112211936D01*
X152889697Y-112237090D01*
X152886399Y-112258057D01*
X152884585Y-112272774D01*
X152884556Y-112279178D01*
X152885054Y-112280936D01*
X152881268Y-112286690D01*
X152879053Y-112288951D01*
X152878304Y-112297469D01*
X152878969Y-112300944D01*
X152875659Y-112308053D01*
X152873582Y-112310229D01*
X152873013Y-112318636D01*
X152873677Y-112322110D01*
X152870367Y-112329219D01*
X152868290Y-112331396D01*
X152867721Y-112339803D01*
X152868385Y-112343277D01*
X152865075Y-112350386D01*
X152862999Y-112352562D01*
X152862429Y-112360969D01*
X152863116Y-112364430D01*
X152860004Y-112371417D01*
X152858525Y-112372630D01*
X152855778Y-112380846D01*
X152855903Y-112384151D01*
X152853675Y-112395000D01*
X152853455Y-112395569D01*
X152848451Y-112409939D01*
X152843086Y-112427200D01*
X152838636Y-112443055D01*
X152836380Y-112453208D01*
X152835786Y-112456758D01*
X152832339Y-112469083D01*
X152831831Y-112470413D01*
X152824208Y-112491452D01*
X152816578Y-112514233D01*
X152809648Y-112536411D01*
X152804125Y-112555644D01*
X152800716Y-112569587D01*
X152800127Y-112575895D01*
X152800675Y-112577042D01*
X152798348Y-112580208D01*
X152797061Y-112580646D01*
X152791988Y-112587347D01*
X152787039Y-112598739D01*
X152783867Y-112610429D01*
X152784126Y-112618025D01*
X152784733Y-112619525D01*
X152781313Y-112622541D01*
X152779711Y-112622718D01*
X152776833Y-112626510D01*
X152776068Y-112631717D01*
X152771569Y-112641985D01*
X152767381Y-112650772D01*
X152763286Y-112663152D01*
X152761935Y-112667977D01*
X152756837Y-112681642D01*
X152749755Y-112698008D01*
X152745747Y-112707720D01*
X152741817Y-112721561D01*
X152741887Y-112729758D01*
X152743179Y-112732511D01*
X152741224Y-112732287D01*
X152739743Y-112732144D01*
X152734440Y-112737729D01*
X152727541Y-112749257D01*
X152720364Y-112763907D01*
X152714225Y-112778861D01*
X152710442Y-112791301D01*
X152710331Y-112798409D01*
X152711366Y-112800637D01*
X152708756Y-112800948D01*
X152706781Y-112801459D01*
X152700731Y-112808659D01*
X152692573Y-112821904D01*
X152683522Y-112838758D01*
X152674789Y-112856785D01*
X152667589Y-112873550D01*
X152663134Y-112886616D01*
X152662638Y-112893549D01*
X152663702Y-112895858D01*
X152661037Y-112896141D01*
X152659291Y-112896384D01*
X152653358Y-112902547D01*
X152645843Y-112913784D01*
X152638551Y-112926966D01*
X152633290Y-112938966D01*
X152631865Y-112946656D01*
X152631904Y-112947811D01*
X152627230Y-112950625D01*
X152625316Y-112951040D01*
X152624896Y-112955916D01*
X152625780Y-112957913D01*
X152623457Y-112961208D01*
X152623413Y-112961208D01*
X152617936Y-112965527D01*
X152611400Y-112975760D01*
X152608629Y-112980940D01*
X152599538Y-112996388D01*
X152589055Y-113012846D01*
X152584078Y-113021059D01*
X152578374Y-113034016D01*
X152577835Y-113041950D01*
X152579143Y-113044721D01*
X152577261Y-113044575D01*
X152576962Y-113044362D01*
X152571588Y-113046664D01*
X152563546Y-113055456D01*
X152554643Y-113067974D01*
X152546687Y-113081455D01*
X152541486Y-113093134D01*
X152540848Y-113100247D01*
X152542140Y-113102962D01*
X152540376Y-113102939D01*
X152539931Y-113102640D01*
X152534034Y-113104572D01*
X152526198Y-113111994D01*
X152519350Y-113121591D01*
X152516417Y-113130053D01*
X152516250Y-113131711D01*
X152512448Y-113135842D01*
X152509418Y-113138089D01*
X152502052Y-113147219D01*
X152492833Y-113160978D01*
X152486233Y-113171364D01*
X152478365Y-113183107D01*
X152474009Y-113188750D01*
X152471211Y-113191955D01*
X152463034Y-113202229D01*
X152451090Y-113217662D01*
X152436846Y-113236375D01*
X152436368Y-113237007D01*
X152417932Y-113261351D01*
X152404585Y-113278780D01*
X152395099Y-113290814D01*
X152388244Y-113298973D01*
X152382791Y-113304776D01*
X152377511Y-113309744D01*
X152371764Y-113315845D01*
X152368250Y-113322311D01*
X152367478Y-113324331D01*
X152361331Y-113332629D01*
X152351053Y-113343792D01*
X152346688Y-113348276D01*
X152333175Y-113362711D01*
X152316553Y-113380962D01*
X152299459Y-113400147D01*
X152290674Y-113410059D01*
X152275594Y-113426757D01*
X152263382Y-113439881D01*
X152256074Y-113447224D01*
X152251206Y-113453399D01*
X152250307Y-113460891D01*
X152251322Y-113463011D01*
X152249659Y-113463097D01*
X152247530Y-113463087D01*
X152239206Y-113468123D01*
X152226937Y-113478134D01*
X152212715Y-113491178D01*
X152198531Y-113505312D01*
X152186378Y-113518593D01*
X152178247Y-113529078D01*
X152176130Y-113534823D01*
X152177172Y-113537045D01*
X152175227Y-113536833D01*
X152172017Y-113536090D01*
X152163104Y-113539363D01*
X152153004Y-113546135D01*
X152145327Y-113553787D01*
X152143686Y-113559702D01*
X152144508Y-113561456D01*
X152142225Y-113563266D01*
X152141535Y-113563188D01*
X152134244Y-113566644D01*
X152124123Y-113575041D01*
X152120266Y-113578688D01*
X152105737Y-113591438D01*
X152090116Y-113604145D01*
X152075070Y-113616072D01*
X152049895Y-113636789D01*
X152026209Y-113657062D01*
X152025027Y-113658097D01*
X152003958Y-113675334D01*
X151987521Y-113686021D01*
X151981153Y-113691225D01*
X151980013Y-113698338D01*
X151981251Y-113700951D01*
X151979436Y-113700875D01*
X151979154Y-113700683D01*
X151972386Y-113701781D01*
X151961158Y-113707182D01*
X151949047Y-113714902D01*
X151939625Y-113722959D01*
X151938134Y-113724163D01*
X151929325Y-113730475D01*
X151914106Y-113741043D01*
X151894077Y-113754761D01*
X151870834Y-113770524D01*
X151859375Y-113778298D01*
X151837360Y-113793466D01*
X151819287Y-113806228D01*
X151806776Y-113815430D01*
X151801451Y-113819917D01*
X151800548Y-113821058D01*
X151794691Y-113823944D01*
X151794549Y-113823919D01*
X151786770Y-113825871D01*
X151775450Y-113831816D01*
X151763844Y-113839580D01*
X151755210Y-113846991D01*
X151752804Y-113851879D01*
X151753651Y-113853891D01*
X151750315Y-113853589D01*
X151745492Y-113853789D01*
X151733885Y-113858052D01*
X151719064Y-113865263D01*
X151704148Y-113873749D01*
X151692253Y-113881835D01*
X151686496Y-113887849D01*
X151685974Y-113888892D01*
X151680800Y-113890183D01*
X151678200Y-113890427D01*
X151667811Y-113894495D01*
X151651781Y-113902274D01*
X151632304Y-113912742D01*
X151623503Y-113917595D01*
X151600296Y-113929766D01*
X151578734Y-113940298D01*
X151562560Y-113947334D01*
X151554064Y-113950935D01*
X151543248Y-113957483D01*
X151540888Y-113962601D01*
X151541887Y-113964808D01*
X151539016Y-113964941D01*
X151535802Y-113964744D01*
X151525012Y-113967478D01*
X151509463Y-113973050D01*
X151491606Y-113980384D01*
X151473890Y-113988402D01*
X151458766Y-113996027D01*
X151448685Y-114002182D01*
X151446097Y-114005790D01*
X151446539Y-114007309D01*
X151440725Y-114006026D01*
X151435481Y-114004997D01*
X151431625Y-114008704D01*
X151431226Y-114010849D01*
X151426549Y-114011737D01*
X151421988Y-114010895D01*
X151411997Y-114013878D01*
X151406191Y-114016625D01*
X151390534Y-114022979D01*
X151368556Y-114031283D01*
X151342499Y-114040730D01*
X151314608Y-114050510D01*
X151287124Y-114059815D01*
X151262292Y-114067836D01*
X151257717Y-114069278D01*
X151239404Y-114075321D01*
X151225937Y-114080197D01*
X151219959Y-114082961D01*
X151218130Y-114084176D01*
X151209375Y-114086552D01*
X151208507Y-114086674D01*
X151198371Y-114088898D01*
X151181743Y-114093141D01*
X151161750Y-114098611D01*
X151159864Y-114099141D01*
X151138153Y-114105015D01*
X151118506Y-114109967D01*
X151104970Y-114112974D01*
X151103531Y-114113260D01*
X151093358Y-114117020D01*
X151091236Y-114121576D01*
X151092164Y-114123991D01*
X151088126Y-114123012D01*
X151081737Y-114122434D01*
X151067499Y-114123775D01*
X151048539Y-114126696D01*
X151027765Y-114130687D01*
X151008088Y-114135235D01*
X150992417Y-114139830D01*
X150986952Y-114141408D01*
X150973896Y-114143876D01*
X150972028Y-114144114D01*
X150958553Y-114146120D01*
X150942146Y-114148852D01*
X150924311Y-114151961D01*
X150886223Y-114158442D01*
X150856956Y-114163131D01*
X150835386Y-114166194D01*
X150820391Y-114167793D01*
X150810849Y-114168095D01*
X150799367Y-114168680D01*
X150789682Y-114171377D01*
X150789193Y-114171654D01*
X150779216Y-114174517D01*
X150764875Y-114176225D01*
X150729706Y-114178084D01*
X150699261Y-114179797D01*
X150677305Y-114181190D01*
X150662735Y-114182340D01*
X150654449Y-114183326D01*
X150651345Y-114184225D01*
X150649368Y-114184626D01*
X150638452Y-114185200D01*
X150619472Y-114185581D01*
X150594057Y-114185782D01*
X150563834Y-114185817D01*
X150530429Y-114185699D01*
X150495470Y-114185442D01*
X150460583Y-114185058D01*
X150427396Y-114184561D01*
X150397536Y-114183964D01*
X150372630Y-114183281D01*
X150354305Y-114182525D01*
X150344188Y-114181709D01*
X150342989Y-114181530D01*
X150326370Y-114179484D01*
X150304113Y-114177246D01*
X150280688Y-114175270D01*
X150262799Y-114173912D01*
X150236772Y-114171848D01*
X150218584Y-114170219D01*
X150206467Y-114168841D01*
X150198653Y-114167528D01*
X150193375Y-114166094D01*
X150187964Y-114164801D01*
X150173317Y-114162196D01*
X150153185Y-114159072D01*
X150130528Y-114155845D01*
X150108299Y-114152931D01*
X150089458Y-114150746D01*
X150076959Y-114149707D01*
X150067847Y-114148654D01*
X150061084Y-114146122D01*
X150055730Y-114143748D01*
X150042477Y-114140224D01*
X150024478Y-114136345D01*
X150004742Y-114132668D01*
X149986278Y-114129749D01*
X149972097Y-114128143D01*
X149965208Y-114128407D01*
X149963749Y-114129072D01*
X149960542Y-114126596D01*
X149959526Y-114125038D01*
X149951319Y-114120997D01*
X149937846Y-114116848D01*
X149922711Y-114113460D01*
X149909513Y-114111701D01*
X149901856Y-114112441D01*
X149899988Y-114113105D01*
X149897042Y-114109195D01*
X149895128Y-114105980D01*
X149886713Y-114105675D01*
X149880442Y-114106563D01*
X149874806Y-114104744D01*
X149872641Y-114103034D01*
X149862465Y-114098684D01*
X149846807Y-114093383D01*
X149828752Y-114088023D01*
X149811382Y-114083495D01*
X149797780Y-114080692D01*
X149791030Y-114080506D01*
X149789449Y-114081045D01*
X149784884Y-114077295D01*
X149779810Y-114073164D01*
X149768560Y-114070647D01*
X149758749Y-114068852D01*
X149754171Y-114065277D01*
X149753060Y-114063398D01*
X149746230Y-114063788D01*
X149742148Y-114064539D01*
X149738292Y-114061142D01*
X149737285Y-114058705D01*
X149730697Y-114058365D01*
X149726849Y-114059061D01*
X149721201Y-114055581D01*
X149721164Y-114055477D01*
X149714918Y-114051337D01*
X149702859Y-114049264D01*
X149701807Y-114049216D01*
X149691669Y-114047562D01*
X149688854Y-114044677D01*
X149689263Y-114043854D01*
X149687011Y-114040303D01*
X149682809Y-114039733D01*
X149671932Y-114036974D01*
X149656376Y-114031424D01*
X149633682Y-114022251D01*
X149616263Y-114015848D01*
X149602112Y-114012197D01*
X149594500Y-114012171D01*
X149591874Y-114013357D01*
X149591917Y-114010340D01*
X149591389Y-114006090D01*
X149582874Y-114001868D01*
X149565014Y-113997335D01*
X149561916Y-113995869D01*
X149554029Y-113989492D01*
X149549482Y-113985992D01*
X149539291Y-113982500D01*
X149530743Y-113980309D01*
X149518735Y-113974106D01*
X149508170Y-113969413D01*
X149499582Y-113969632D01*
X149496674Y-113970978D01*
X149496556Y-113968187D01*
X149496797Y-113967544D01*
X149493172Y-113962549D01*
X149483307Y-113956745D01*
X149470675Y-113951591D01*
X149458746Y-113948543D01*
X149450994Y-113949060D01*
X149448757Y-113949958D01*
X149449391Y-113946275D01*
X149450036Y-113945111D01*
X149448893Y-113940678D01*
X149438582Y-113940618D01*
X149437535Y-113940549D01*
X149431967Y-113936020D01*
X149427685Y-113932308D01*
X149416369Y-113925219D01*
X149401424Y-113917003D01*
X149386025Y-113909307D01*
X149373343Y-113903779D01*
X149366553Y-113902066D01*
X149365773Y-113902181D01*
X149362584Y-113898350D01*
X149362574Y-113898179D01*
X149357769Y-113893245D01*
X149346823Y-113888082D01*
X149334043Y-113882663D01*
X149324333Y-113876790D01*
X149319443Y-113873143D01*
X149306437Y-113864704D01*
X149288778Y-113853973D01*
X149268745Y-113842253D01*
X149248617Y-113830851D01*
X149230672Y-113821069D01*
X149217189Y-113814214D01*
X149210448Y-113811590D01*
X149207989Y-113811287D01*
X149206446Y-113808790D01*
X149206472Y-113808763D01*
X149205346Y-113804205D01*
X149198267Y-113798753D01*
X149189305Y-113794798D01*
X149182527Y-113794732D01*
X149180397Y-113795595D01*
X149178567Y-113792259D01*
X149178632Y-113791575D01*
X149174394Y-113784925D01*
X149164146Y-113777313D01*
X149162751Y-113776507D01*
X149151627Y-113769720D01*
X149145625Y-113765440D01*
X149143359Y-113763610D01*
X149133719Y-113756341D01*
X149117973Y-113744681D01*
X149097627Y-113729742D01*
X149074188Y-113712639D01*
X149060971Y-113702979D01*
X149036921Y-113685181D01*
X149015720Y-113669220D01*
X148999282Y-113656542D01*
X148989521Y-113648597D01*
X148981130Y-113641282D01*
X148965705Y-113627960D01*
X148946553Y-113611501D01*
X148926021Y-113593925D01*
X148920330Y-113589018D01*
X148897108Y-113568412D01*
X148870140Y-113543799D01*
X148842327Y-113517848D01*
X148816574Y-113493231D01*
X148801974Y-113479248D01*
X148782712Y-113461438D01*
X148766961Y-113447635D01*
X148756050Y-113438992D01*
X148751310Y-113436662D01*
X148750178Y-113437542D01*
X148749632Y-113434695D01*
X148748959Y-113431325D01*
X148743154Y-113421639D01*
X148733327Y-113408727D01*
X148721532Y-113394944D01*
X148709822Y-113382644D01*
X148700250Y-113374181D01*
X148694869Y-113371908D01*
X148693425Y-113372562D01*
X148691734Y-113369683D01*
X148691311Y-113366638D01*
X148686138Y-113357362D01*
X148677305Y-113345678D01*
X148667203Y-113334381D01*
X148658227Y-113326269D01*
X148652768Y-113324139D01*
X148650899Y-113324462D01*
X148651237Y-113319307D01*
X148649773Y-113311242D01*
X148641635Y-113301835D01*
X148632232Y-113292627D01*
X148625475Y-113282341D01*
X148622252Y-113277307D01*
X148615173Y-113276575D01*
X148612327Y-113277936D01*
X148612281Y-113276237D01*
X148612430Y-113276015D01*
X148610791Y-113269515D01*
X148603912Y-113257474D01*
X148593159Y-113242316D01*
X148585639Y-113232391D01*
X148570126Y-113211434D01*
X148552669Y-113187428D01*
X148535809Y-113163847D01*
X148523158Y-113146364D01*
X148511242Y-113130761D01*
X148502733Y-113120611D01*
X148498928Y-113117545D01*
X148497927Y-113117932D01*
X148496514Y-113113188D01*
X148496258Y-113111799D01*
X148492046Y-113102324D01*
X148483736Y-113087383D01*
X148472721Y-113069532D01*
X148461812Y-113052508D01*
X148429994Y-113001187D01*
X148402081Y-112953270D01*
X148395492Y-112942052D01*
X148387419Y-112929683D01*
X148382309Y-112923575D01*
X148381066Y-112922616D01*
X148378068Y-112916867D01*
X148376630Y-112911557D01*
X148371283Y-112899111D01*
X148363021Y-112881794D01*
X148352917Y-112861665D01*
X148342045Y-112840782D01*
X148331477Y-112821200D01*
X148322287Y-112804979D01*
X148315548Y-112794176D01*
X148312333Y-112790847D01*
X148311039Y-112791081D01*
X148312474Y-112785099D01*
X148313571Y-112779963D01*
X148310990Y-112776000D01*
X148309160Y-112775542D01*
X148305766Y-112769385D01*
X148305169Y-112765660D01*
X148301331Y-112753747D01*
X148295030Y-112738333D01*
X148287532Y-112722089D01*
X148280105Y-112707683D01*
X148274013Y-112697788D01*
X148270524Y-112695073D01*
X148268917Y-112695598D01*
X148270141Y-112689849D01*
X148271170Y-112684605D01*
X148267463Y-112680750D01*
X148265316Y-112680339D01*
X148264495Y-112675567D01*
X148264973Y-112669244D01*
X148261093Y-112658369D01*
X148256590Y-112649452D01*
X148253289Y-112641062D01*
X148252007Y-112636326D01*
X148247347Y-112622279D01*
X148240974Y-112604948D01*
X148234173Y-112587658D01*
X148228231Y-112573731D01*
X148224435Y-112566492D01*
X148222747Y-112563711D01*
X148223158Y-112557231D01*
X148224013Y-112555794D01*
X148220153Y-112553750D01*
X148217775Y-112553379D01*
X148216365Y-112549386D01*
X148216754Y-112547325D01*
X148215323Y-112537363D01*
X148211411Y-112522126D01*
X148205892Y-112504197D01*
X148199638Y-112486158D01*
X148193523Y-112470591D01*
X148188418Y-112460077D01*
X148185198Y-112457200D01*
X148183522Y-112458286D01*
X148184627Y-112454571D01*
X148184939Y-112448398D01*
X148182975Y-112434336D01*
X148179167Y-112415449D01*
X148174145Y-112394549D01*
X148168540Y-112374447D01*
X148162981Y-112357958D01*
X148161751Y-112354405D01*
X148158825Y-112342083D01*
X148157824Y-112335721D01*
X148154626Y-112318912D01*
X148150209Y-112298000D01*
X148145135Y-112275396D01*
X148139966Y-112253511D01*
X148135263Y-112234755D01*
X148131589Y-112221540D01*
X148129506Y-112216277D01*
X148129498Y-112216273D01*
X148127853Y-112210613D01*
X148128516Y-112199079D01*
X148128567Y-112198721D01*
X148128611Y-112187841D01*
X148125668Y-112183333D01*
X148122873Y-112179927D01*
X148123039Y-112170104D01*
X148123549Y-112161277D01*
X148120982Y-112156875D01*
X148120148Y-112156553D01*
X148117221Y-112149797D01*
X148115677Y-112137031D01*
X148115187Y-112126484D01*
X148113548Y-112103541D01*
X148111309Y-112080909D01*
X148108778Y-112061151D01*
X148106263Y-112046831D01*
X148104073Y-112040512D01*
X148102734Y-112037922D01*
X148100453Y-112027094D01*
X148098819Y-112011354D01*
X148098766Y-112009931D01*
X148098600Y-111998835D01*
X148098419Y-111977772D01*
X148098224Y-111947202D01*
X148098018Y-111907585D01*
X148097802Y-111859381D01*
X148097577Y-111803049D01*
X148097344Y-111739049D01*
X148097105Y-111667841D01*
X148096861Y-111589885D01*
X148096614Y-111505641D01*
X148096364Y-111415568D01*
X148096115Y-111320126D01*
X148095866Y-111219776D01*
X148095619Y-111114977D01*
X148095377Y-111006188D01*
X148095139Y-110893870D01*
X148094908Y-110778482D01*
X148094685Y-110660485D01*
X148093049Y-109769965D01*
X148526500Y-109769965D01*
X148526602Y-110779534D01*
X148526603Y-110793430D01*
X148526632Y-110922458D01*
X148526691Y-111041418D01*
X148526788Y-111150775D01*
X148526928Y-111250996D01*
X148527120Y-111342548D01*
X148527369Y-111425898D01*
X148527682Y-111501511D01*
X148528067Y-111569855D01*
X148528529Y-111631395D01*
X148529076Y-111686598D01*
X148529715Y-111735932D01*
X148530452Y-111779861D01*
X148531295Y-111818854D01*
X148532249Y-111853376D01*
X148533322Y-111883893D01*
X148534520Y-111910873D01*
X148535851Y-111934781D01*
X148537321Y-111956085D01*
X148538937Y-111975251D01*
X148540705Y-111992744D01*
X148542633Y-112009033D01*
X148544727Y-112024583D01*
X148545431Y-112029494D01*
X148550292Y-112061682D01*
X148555497Y-112093626D01*
X148560676Y-112123281D01*
X148565460Y-112148600D01*
X148569482Y-112167535D01*
X148572371Y-112178041D01*
X148574095Y-112183497D01*
X148576599Y-112196562D01*
X148578895Y-112212760D01*
X148582558Y-112229731D01*
X148586553Y-112242068D01*
X148590094Y-112246833D01*
X148592062Y-112248967D01*
X148591534Y-112257416D01*
X148591018Y-112263827D01*
X148594987Y-112268000D01*
X148597156Y-112268321D01*
X148598580Y-112272253D01*
X148598496Y-112272402D01*
X148598244Y-112280059D01*
X148600532Y-112293661D01*
X148604477Y-112309937D01*
X148609196Y-112325614D01*
X148613805Y-112337420D01*
X148617422Y-112342083D01*
X148619119Y-112342549D01*
X148618961Y-112347606D01*
X148618139Y-112351841D01*
X148621943Y-112360835D01*
X148625074Y-112365258D01*
X148625380Y-112368541D01*
X148625207Y-112371424D01*
X148627936Y-112382369D01*
X148633302Y-112399639D01*
X148640594Y-112421268D01*
X148649099Y-112445292D01*
X148658104Y-112469747D01*
X148666897Y-112492668D01*
X148674765Y-112512091D01*
X148680996Y-112526051D01*
X148684877Y-112532583D01*
X148686292Y-112534433D01*
X148689464Y-112543166D01*
X148691491Y-112549710D01*
X148698178Y-112565977D01*
X148708547Y-112588725D01*
X148721767Y-112616287D01*
X148737009Y-112646999D01*
X148753443Y-112679198D01*
X148770239Y-112711217D01*
X148786566Y-112741394D01*
X148801595Y-112768062D01*
X148805632Y-112774964D01*
X148832480Y-112818405D01*
X148864266Y-112866448D01*
X148899100Y-112916374D01*
X148935092Y-112965461D01*
X148970353Y-113010990D01*
X148988620Y-113033084D01*
X149020847Y-113069767D01*
X149057736Y-113109684D01*
X149097404Y-113150924D01*
X149137965Y-113191573D01*
X149177536Y-113229721D01*
X149214231Y-113263455D01*
X149246167Y-113290863D01*
X149352573Y-113372443D01*
X149474612Y-113453835D01*
X149600585Y-113525406D01*
X149730544Y-113587176D01*
X149864540Y-113639169D01*
X150002626Y-113681406D01*
X150144852Y-113713909D01*
X150291271Y-113736701D01*
X150303811Y-113738028D01*
X150333500Y-113740361D01*
X150369848Y-113742490D01*
X150410702Y-113744353D01*
X150453911Y-113745886D01*
X150497322Y-113747030D01*
X150538783Y-113747720D01*
X150576141Y-113747897D01*
X150607243Y-113747497D01*
X150629938Y-113746458D01*
X150718392Y-113738088D01*
X150851227Y-113719234D01*
X150978553Y-113693002D01*
X151102005Y-113658978D01*
X151223220Y-113616748D01*
X151343837Y-113565897D01*
X151424521Y-113526369D01*
X151532329Y-113465568D01*
X151638020Y-113397044D01*
X151739924Y-113322049D01*
X151836366Y-113241834D01*
X151925673Y-113157649D01*
X152006172Y-113070745D01*
X152026734Y-113046481D01*
X152049440Y-113018971D01*
X152071455Y-112991641D01*
X152091757Y-112965808D01*
X152109326Y-112942793D01*
X152123140Y-112923914D01*
X152132178Y-112910491D01*
X152135417Y-112903841D01*
X152135487Y-112902877D01*
X152139753Y-112896826D01*
X152143195Y-112893600D01*
X152150728Y-112884090D01*
X152160299Y-112870791D01*
X152170245Y-112856162D01*
X152178899Y-112842666D01*
X152184599Y-112832764D01*
X152185679Y-112828916D01*
X152186392Y-112825873D01*
X152192618Y-112818195D01*
X152195187Y-112815224D01*
X152206538Y-112799172D01*
X152221108Y-112775334D01*
X152238137Y-112745207D01*
X152256865Y-112710286D01*
X152276531Y-112672070D01*
X152296376Y-112632054D01*
X152315639Y-112591736D01*
X152333562Y-112552613D01*
X152349382Y-112516180D01*
X152362342Y-112483936D01*
X152371130Y-112460461D01*
X152385963Y-112419176D01*
X152399784Y-112378703D01*
X152412204Y-112340342D01*
X152422834Y-112305390D01*
X152431286Y-112275147D01*
X152437170Y-112250910D01*
X152440097Y-112233980D01*
X152439680Y-112225653D01*
X152438901Y-112223573D01*
X152442639Y-112220375D01*
X152445853Y-112218461D01*
X152446159Y-112210045D01*
X152445356Y-112203760D01*
X152447551Y-112198139D01*
X152447586Y-112198124D01*
X152450160Y-112192359D01*
X152453832Y-112178353D01*
X152458209Y-112158298D01*
X152462893Y-112134388D01*
X152467492Y-112108817D01*
X152471610Y-112083778D01*
X152474853Y-112061465D01*
X152476824Y-112044071D01*
X152477131Y-112033791D01*
X152477344Y-112023801D01*
X152480269Y-112019291D01*
X152480624Y-112019243D01*
X152483761Y-112013803D01*
X152485111Y-112002093D01*
X152485394Y-111992787D01*
X152486521Y-111973735D01*
X152488193Y-111953145D01*
X152488447Y-111950287D01*
X152489942Y-111928058D01*
X152491170Y-111901269D01*
X152491884Y-111875093D01*
X152492100Y-111865638D01*
X152493016Y-111846764D01*
X152494348Y-111833683D01*
X152495889Y-111828791D01*
X152496229Y-111828414D01*
X152497433Y-111820925D01*
X152498468Y-111805300D01*
X152499233Y-111783467D01*
X152499628Y-111757354D01*
X152499654Y-111750006D01*
X152499395Y-111724858D01*
X152498652Y-111704509D01*
X152497519Y-111690886D01*
X152496093Y-111685916D01*
X152495542Y-111685482D01*
X152494136Y-111678024D01*
X152493585Y-111663225D01*
X152494014Y-111643583D01*
X152494241Y-111637531D01*
X152494290Y-111619039D01*
X152493314Y-111606113D01*
X152491464Y-111601250D01*
X152489699Y-111599078D01*
X152487541Y-111588994D01*
X152486485Y-111573468D01*
X152486240Y-111565335D01*
X152484864Y-111542255D01*
X152482851Y-111521875D01*
X152482251Y-111516967D01*
X152480452Y-111497359D01*
X152479721Y-111480864D01*
X152479703Y-111479557D01*
X152477868Y-111468291D01*
X152473937Y-111463666D01*
X152471937Y-111463235D01*
X152471464Y-111458333D01*
X152472242Y-111453291D01*
X152471629Y-111440885D01*
X152469694Y-111424423D01*
X152466909Y-111406823D01*
X152463747Y-111391002D01*
X152460681Y-111379878D01*
X152458184Y-111376369D01*
X152457957Y-111376474D01*
X152456502Y-111372694D01*
X152457231Y-111362093D01*
X152457435Y-111360634D01*
X152457522Y-111350340D01*
X152453689Y-111349418D01*
X152450498Y-111350349D01*
X152450898Y-111344879D01*
X152451945Y-111339518D01*
X152450130Y-111327406D01*
X152449991Y-111327069D01*
X152446642Y-111315146D01*
X152444003Y-111299771D01*
X152443762Y-111297909D01*
X152441158Y-111285276D01*
X152438096Y-111278604D01*
X152437565Y-111278150D01*
X152434218Y-111270520D01*
X152433970Y-111266523D01*
X152431742Y-111251560D01*
X152428090Y-111236513D01*
X152423983Y-111224902D01*
X152420390Y-111220250D01*
X152418808Y-111219949D01*
X152418279Y-111215350D01*
X152418836Y-111213032D01*
X152417791Y-111202367D01*
X152414000Y-111187568D01*
X152409028Y-111171979D01*
X152402030Y-111150015D01*
X152394909Y-111127645D01*
X152393558Y-111123442D01*
X152384828Y-111097799D01*
X152374751Y-111070191D01*
X152364028Y-111042320D01*
X152353363Y-111015891D01*
X152343456Y-110992609D01*
X152335010Y-110974178D01*
X152328728Y-110962303D01*
X152325310Y-110958687D01*
X152323414Y-110959138D01*
X152323494Y-110954348D01*
X152323614Y-110953569D01*
X152321494Y-110944692D01*
X152315488Y-110928808D01*
X152306398Y-110907902D01*
X152295028Y-110883958D01*
X152292479Y-110878815D01*
X152223504Y-110751721D01*
X152146237Y-110630871D01*
X152061101Y-110516585D01*
X151968520Y-110409182D01*
X151868914Y-110308982D01*
X151762707Y-110216305D01*
X151650321Y-110131470D01*
X151532178Y-110054797D01*
X151408700Y-109986607D01*
X151280311Y-109927218D01*
X151147431Y-109876951D01*
X151010484Y-109836125D01*
X150869892Y-109805060D01*
X150864618Y-109804091D01*
X150845522Y-109800558D01*
X150827868Y-109797307D01*
X150811175Y-109794327D01*
X150794962Y-109791605D01*
X150778748Y-109789129D01*
X150762052Y-109786886D01*
X150744393Y-109784863D01*
X150725290Y-109783048D01*
X150704262Y-109781429D01*
X150680828Y-109779993D01*
X150654507Y-109778727D01*
X150624818Y-109777619D01*
X150591280Y-109776658D01*
X150553412Y-109775829D01*
X150510733Y-109775120D01*
X150462761Y-109774520D01*
X150409017Y-109774016D01*
X150349018Y-109773594D01*
X150282284Y-109773243D01*
X150208334Y-109772951D01*
X150126687Y-109772704D01*
X150036861Y-109772490D01*
X149938376Y-109772296D01*
X149830751Y-109772111D01*
X149713505Y-109771922D01*
X149586157Y-109771715D01*
X148526500Y-109769965D01*
X148093049Y-109769965D01*
X148092252Y-109336075D01*
X149398137Y-109337998D01*
X149409498Y-109338015D01*
X149560779Y-109338256D01*
X149701737Y-109338513D01*
X149832616Y-109338787D01*
X149953659Y-109339082D01*
X150065109Y-109339397D01*
X150167209Y-109339734D01*
X150260203Y-109340095D01*
X150344333Y-109340481D01*
X150419843Y-109340894D01*
X150486976Y-109341335D01*
X150545975Y-109341805D01*
X150597083Y-109342306D01*
X150640544Y-109342840D01*
X150676600Y-109343407D01*
X150705495Y-109344010D01*
X150727473Y-109344649D01*
X150742775Y-109345327D01*
X150751646Y-109346044D01*
X150761700Y-109347347D01*
X150881534Y-109364704D01*
X150992817Y-109384520D01*
X151097267Y-109407287D01*
X151196602Y-109433498D01*
X151292540Y-109463644D01*
X151386798Y-109498220D01*
X151481094Y-109537715D01*
X151577146Y-109582624D01*
X151643943Y-109616480D01*
X151771956Y-109688410D01*
X151892831Y-109766405D01*
X152008136Y-109851586D01*
X152119438Y-109945073D01*
X152228307Y-110047987D01*
X152314709Y-110138638D01*
X152404679Y-110244189D01*
X152487967Y-110354901D01*
X152565821Y-110472441D01*
X152639486Y-110598479D01*
X152647374Y-110612505D01*
X152658192Y-110630715D01*
X152666773Y-110643937D01*
X152671751Y-110649991D01*
X152674095Y-110651755D01*
X152674190Y-110653960D01*
X152673977Y-110654351D01*
X152675953Y-110661261D01*
X152681615Y-110675470D01*
X152690245Y-110695249D01*
X152701125Y-110718864D01*
X152712635Y-110743780D01*
X152728615Y-110779539D01*
X152744264Y-110815651D01*
X152757419Y-110847187D01*
X152759016Y-110851118D01*
X152768726Y-110874649D01*
X152777025Y-110894150D01*
X152783078Y-110907690D01*
X152786047Y-110913333D01*
X152786471Y-110913778D01*
X152789012Y-110921270D01*
X152789887Y-110925224D01*
X152793555Y-110938054D01*
X152799583Y-110957851D01*
X152807424Y-110982836D01*
X152816536Y-111011229D01*
X152835013Y-111070445D01*
X152852860Y-111132240D01*
X152868826Y-111192315D01*
X152882398Y-111248643D01*
X152893062Y-111299200D01*
X152900306Y-111341958D01*
X152901487Y-111349903D01*
X152904606Y-111369223D01*
X152908118Y-111389583D01*
X152909477Y-111397246D01*
X152912197Y-111413602D01*
X152914392Y-111429156D01*
X152916398Y-111446745D01*
X152918553Y-111469209D01*
X152921196Y-111499385D01*
X152922312Y-111511271D01*
X152924575Y-111530314D01*
X152926790Y-111543441D01*
X152928603Y-111548333D01*
X152929448Y-111548778D01*
X152930345Y-111551126D01*
X152931071Y-111556364D01*
X152931648Y-111565452D01*
X152932098Y-111579352D01*
X152932441Y-111599028D01*
X152932699Y-111625439D01*
X152932894Y-111659548D01*
X152933046Y-111702317D01*
X152933167Y-111750006D01*
X152933178Y-111754708D01*
X152933230Y-111794062D01*
G37*
X152933230Y-111794062D02*
X152933147Y-111833048D01*
X152932848Y-111865148D01*
X152932271Y-111892376D01*
X152931355Y-111916746D01*
X152930039Y-111940269D01*
X152928263Y-111964960D01*
X152925965Y-111992833D01*
X152923701Y-112019107D01*
X152921811Y-112040173D01*
X152920371Y-112054526D01*
X152919155Y-112064184D01*
X152917936Y-112071169D01*
X152916488Y-112077500D01*
X152915727Y-112080925D01*
X152913036Y-112096591D01*
X152910719Y-112114541D01*
X152910662Y-112115060D01*
X152908596Y-112129924D01*
X152904994Y-112152106D01*
X152900348Y-112178697D01*
X152895149Y-112206783D01*
X152894176Y-112211936D01*
X152889697Y-112237090D01*
X152886399Y-112258057D01*
X152884585Y-112272774D01*
X152884556Y-112279178D01*
X152885054Y-112280936D01*
X152881268Y-112286690D01*
X152879053Y-112288951D01*
X152878304Y-112297469D01*
X152878969Y-112300944D01*
X152875659Y-112308053D01*
X152873582Y-112310229D01*
X152873013Y-112318636D01*
X152873677Y-112322110D01*
X152870367Y-112329219D01*
X152868290Y-112331396D01*
X152867721Y-112339803D01*
X152868385Y-112343277D01*
X152865075Y-112350386D01*
X152862999Y-112352562D01*
X152862429Y-112360969D01*
X152863116Y-112364430D01*
X152860004Y-112371417D01*
X152858525Y-112372630D01*
X152855778Y-112380846D01*
X152855903Y-112384151D01*
X152853675Y-112395000D01*
X152853455Y-112395569D01*
X152848451Y-112409939D01*
X152843086Y-112427200D01*
X152838636Y-112443055D01*
X152836380Y-112453208D01*
X152835786Y-112456758D01*
X152832339Y-112469083D01*
X152831831Y-112470413D01*
X152824208Y-112491452D01*
X152816578Y-112514233D01*
X152809648Y-112536411D01*
X152804125Y-112555644D01*
X152800716Y-112569587D01*
X152800127Y-112575895D01*
X152800675Y-112577042D01*
X152798348Y-112580208D01*
X152797061Y-112580646D01*
X152791988Y-112587347D01*
X152787039Y-112598739D01*
X152783867Y-112610429D01*
X152784126Y-112618025D01*
X152784733Y-112619525D01*
X152781313Y-112622541D01*
X152779711Y-112622718D01*
X152776833Y-112626510D01*
X152776068Y-112631717D01*
X152771569Y-112641985D01*
X152767381Y-112650772D01*
X152763286Y-112663152D01*
X152761935Y-112667977D01*
X152756837Y-112681642D01*
X152749755Y-112698008D01*
X152745747Y-112707720D01*
X152741817Y-112721561D01*
X152741887Y-112729758D01*
X152743179Y-112732511D01*
X152741224Y-112732287D01*
X152739743Y-112732144D01*
X152734440Y-112737729D01*
X152727541Y-112749257D01*
X152720364Y-112763907D01*
X152714225Y-112778861D01*
X152710442Y-112791301D01*
X152710331Y-112798409D01*
X152711366Y-112800637D01*
X152708756Y-112800948D01*
X152706781Y-112801459D01*
X152700731Y-112808659D01*
X152692573Y-112821904D01*
X152683522Y-112838758D01*
X152674789Y-112856785D01*
X152667589Y-112873550D01*
X152663134Y-112886616D01*
X152662638Y-112893549D01*
X152663702Y-112895858D01*
X152661037Y-112896141D01*
X152659291Y-112896384D01*
X152653358Y-112902547D01*
X152645843Y-112913784D01*
X152638551Y-112926966D01*
X152633290Y-112938966D01*
X152631865Y-112946656D01*
X152631904Y-112947811D01*
X152627230Y-112950625D01*
X152625316Y-112951040D01*
X152624896Y-112955916D01*
X152625780Y-112957913D01*
X152623457Y-112961208D01*
X152623413Y-112961208D01*
X152617936Y-112965527D01*
X152611400Y-112975760D01*
X152608629Y-112980940D01*
X152599538Y-112996388D01*
X152589055Y-113012846D01*
X152584078Y-113021059D01*
X152578374Y-113034016D01*
X152577835Y-113041950D01*
X152579143Y-113044721D01*
X152577261Y-113044575D01*
X152576962Y-113044362D01*
X152571588Y-113046664D01*
X152563546Y-113055456D01*
X152554643Y-113067974D01*
X152546687Y-113081455D01*
X152541486Y-113093134D01*
X152540848Y-113100247D01*
X152542140Y-113102962D01*
X152540376Y-113102939D01*
X152539931Y-113102640D01*
X152534034Y-113104572D01*
X152526198Y-113111994D01*
X152519350Y-113121591D01*
X152516417Y-113130053D01*
X152516250Y-113131711D01*
X152512448Y-113135842D01*
X152509418Y-113138089D01*
X152502052Y-113147219D01*
X152492833Y-113160978D01*
X152486233Y-113171364D01*
X152478365Y-113183107D01*
X152474009Y-113188750D01*
X152471211Y-113191955D01*
X152463034Y-113202229D01*
X152451090Y-113217662D01*
X152436846Y-113236375D01*
X152436368Y-113237007D01*
X152417932Y-113261351D01*
X152404585Y-113278780D01*
X152395099Y-113290814D01*
X152388244Y-113298973D01*
X152382791Y-113304776D01*
X152377511Y-113309744D01*
X152371764Y-113315845D01*
X152368250Y-113322311D01*
X152367478Y-113324331D01*
X152361331Y-113332629D01*
X152351053Y-113343792D01*
X152346688Y-113348276D01*
X152333175Y-113362711D01*
X152316553Y-113380962D01*
X152299459Y-113400147D01*
X152290674Y-113410059D01*
X152275594Y-113426757D01*
X152263382Y-113439881D01*
X152256074Y-113447224D01*
X152251206Y-113453399D01*
X152250307Y-113460891D01*
X152251322Y-113463011D01*
X152249659Y-113463097D01*
X152247530Y-113463087D01*
X152239206Y-113468123D01*
X152226937Y-113478134D01*
X152212715Y-113491178D01*
X152198531Y-113505312D01*
X152186378Y-113518593D01*
X152178247Y-113529078D01*
X152176130Y-113534823D01*
X152177172Y-113537045D01*
X152175227Y-113536833D01*
X152172017Y-113536090D01*
X152163104Y-113539363D01*
X152153004Y-113546135D01*
X152145327Y-113553787D01*
X152143686Y-113559702D01*
X152144508Y-113561456D01*
X152142225Y-113563266D01*
X152141535Y-113563188D01*
X152134244Y-113566644D01*
X152124123Y-113575041D01*
X152120266Y-113578688D01*
X152105737Y-113591438D01*
X152090116Y-113604145D01*
X152075070Y-113616072D01*
X152049895Y-113636789D01*
X152026209Y-113657062D01*
X152025027Y-113658097D01*
X152003958Y-113675334D01*
X151987521Y-113686021D01*
X151981153Y-113691225D01*
X151980013Y-113698338D01*
X151981251Y-113700951D01*
X151979436Y-113700875D01*
X151979154Y-113700683D01*
X151972386Y-113701781D01*
X151961158Y-113707182D01*
X151949047Y-113714902D01*
X151939625Y-113722959D01*
X151938134Y-113724163D01*
X151929325Y-113730475D01*
X151914106Y-113741043D01*
X151894077Y-113754761D01*
X151870834Y-113770524D01*
X151859375Y-113778298D01*
X151837360Y-113793466D01*
X151819287Y-113806228D01*
X151806776Y-113815430D01*
X151801451Y-113819917D01*
X151800548Y-113821058D01*
X151794691Y-113823944D01*
X151794549Y-113823919D01*
X151786770Y-113825871D01*
X151775450Y-113831816D01*
X151763844Y-113839580D01*
X151755210Y-113846991D01*
X151752804Y-113851879D01*
X151753651Y-113853891D01*
X151750315Y-113853589D01*
X151745492Y-113853789D01*
X151733885Y-113858052D01*
X151719064Y-113865263D01*
X151704148Y-113873749D01*
X151692253Y-113881835D01*
X151686496Y-113887849D01*
X151685974Y-113888892D01*
X151680800Y-113890183D01*
X151678200Y-113890427D01*
X151667811Y-113894495D01*
X151651781Y-113902274D01*
X151632304Y-113912742D01*
X151623503Y-113917595D01*
X151600296Y-113929766D01*
X151578734Y-113940298D01*
X151562560Y-113947334D01*
X151554064Y-113950935D01*
X151543248Y-113957483D01*
X151540888Y-113962601D01*
X151541887Y-113964808D01*
X151539016Y-113964941D01*
X151535802Y-113964744D01*
X151525012Y-113967478D01*
X151509463Y-113973050D01*
X151491606Y-113980384D01*
X151473890Y-113988402D01*
X151458766Y-113996027D01*
X151448685Y-114002182D01*
X151446097Y-114005790D01*
X151446539Y-114007309D01*
X151440725Y-114006026D01*
X151435481Y-114004997D01*
X151431625Y-114008704D01*
X151431226Y-114010849D01*
X151426549Y-114011737D01*
X151421988Y-114010895D01*
X151411997Y-114013878D01*
X151406191Y-114016625D01*
X151390534Y-114022979D01*
X151368556Y-114031283D01*
X151342499Y-114040730D01*
X151314608Y-114050510D01*
X151287124Y-114059815D01*
X151262292Y-114067836D01*
X151257717Y-114069278D01*
X151239404Y-114075321D01*
X151225937Y-114080197D01*
X151219959Y-114082961D01*
X151218130Y-114084176D01*
X151209375Y-114086552D01*
X151208507Y-114086674D01*
X151198371Y-114088898D01*
X151181743Y-114093141D01*
X151161750Y-114098611D01*
X151159864Y-114099141D01*
X151138153Y-114105015D01*
X151118506Y-114109967D01*
X151104970Y-114112974D01*
X151103531Y-114113260D01*
X151093358Y-114117020D01*
X151091236Y-114121576D01*
X151092164Y-114123991D01*
X151088126Y-114123012D01*
X151081737Y-114122434D01*
X151067499Y-114123775D01*
X151048539Y-114126696D01*
X151027765Y-114130687D01*
X151008088Y-114135235D01*
X150992417Y-114139830D01*
X150986952Y-114141408D01*
X150973896Y-114143876D01*
X150972028Y-114144114D01*
X150958553Y-114146120D01*
X150942146Y-114148852D01*
X150924311Y-114151961D01*
X150886223Y-114158442D01*
X150856956Y-114163131D01*
X150835386Y-114166194D01*
X150820391Y-114167793D01*
X150810849Y-114168095D01*
X150799367Y-114168680D01*
X150789682Y-114171377D01*
X150789193Y-114171654D01*
X150779216Y-114174517D01*
X150764875Y-114176225D01*
X150729706Y-114178084D01*
X150699261Y-114179797D01*
X150677305Y-114181190D01*
X150662735Y-114182340D01*
X150654449Y-114183326D01*
X150651345Y-114184225D01*
X150649368Y-114184626D01*
X150638452Y-114185200D01*
X150619472Y-114185581D01*
X150594057Y-114185782D01*
X150563834Y-114185817D01*
X150530429Y-114185699D01*
X150495470Y-114185442D01*
X150460583Y-114185058D01*
X150427396Y-114184561D01*
X150397536Y-114183964D01*
X150372630Y-114183281D01*
X150354305Y-114182525D01*
X150344188Y-114181709D01*
X150342989Y-114181530D01*
X150326370Y-114179484D01*
X150304113Y-114177246D01*
X150280688Y-114175270D01*
X150262799Y-114173912D01*
X150236772Y-114171848D01*
X150218584Y-114170219D01*
X150206467Y-114168841D01*
X150198653Y-114167528D01*
X150193375Y-114166094D01*
X150187964Y-114164801D01*
X150173317Y-114162196D01*
X150153185Y-114159072D01*
X150130528Y-114155845D01*
X150108299Y-114152931D01*
X150089458Y-114150746D01*
X150076959Y-114149707D01*
X150067847Y-114148654D01*
X150061084Y-114146122D01*
X150055730Y-114143748D01*
X150042477Y-114140224D01*
X150024478Y-114136345D01*
X150004742Y-114132668D01*
X149986278Y-114129749D01*
X149972097Y-114128143D01*
X149965208Y-114128407D01*
X149963749Y-114129072D01*
X149960542Y-114126596D01*
X149959526Y-114125038D01*
X149951319Y-114120997D01*
X149937846Y-114116848D01*
X149922711Y-114113460D01*
X149909513Y-114111701D01*
X149901856Y-114112441D01*
X149899988Y-114113105D01*
X149897042Y-114109195D01*
X149895128Y-114105980D01*
X149886713Y-114105675D01*
X149880442Y-114106563D01*
X149874806Y-114104744D01*
X149872641Y-114103034D01*
X149862465Y-114098684D01*
X149846807Y-114093383D01*
X149828752Y-114088023D01*
X149811382Y-114083495D01*
X149797780Y-114080692D01*
X149791030Y-114080506D01*
X149789449Y-114081045D01*
X149784884Y-114077295D01*
X149779810Y-114073164D01*
X149768560Y-114070647D01*
X149758749Y-114068852D01*
X149754171Y-114065277D01*
X149753060Y-114063398D01*
X149746230Y-114063788D01*
X149742148Y-114064539D01*
X149738292Y-114061142D01*
X149737285Y-114058705D01*
X149730697Y-114058365D01*
X149726849Y-114059061D01*
X149721201Y-114055581D01*
X149721164Y-114055477D01*
X149714918Y-114051337D01*
X149702859Y-114049264D01*
X149701807Y-114049216D01*
X149691669Y-114047562D01*
X149688854Y-114044677D01*
X149689263Y-114043854D01*
X149687011Y-114040303D01*
X149682809Y-114039733D01*
X149671932Y-114036974D01*
X149656376Y-114031424D01*
X149633682Y-114022251D01*
X149616263Y-114015848D01*
X149602112Y-114012197D01*
X149594500Y-114012171D01*
X149591874Y-114013357D01*
X149591917Y-114010340D01*
X149591389Y-114006090D01*
X149582874Y-114001868D01*
X149565014Y-113997335D01*
X149561916Y-113995869D01*
X149554029Y-113989492D01*
X149549482Y-113985992D01*
X149539291Y-113982500D01*
X149530743Y-113980309D01*
X149518735Y-113974106D01*
X149508170Y-113969413D01*
X149499582Y-113969632D01*
X149496674Y-113970978D01*
X149496556Y-113968187D01*
X149496797Y-113967544D01*
X149493172Y-113962549D01*
X149483307Y-113956745D01*
X149470675Y-113951591D01*
X149458746Y-113948543D01*
X149450994Y-113949060D01*
X149448757Y-113949958D01*
X149449391Y-113946275D01*
X149450036Y-113945111D01*
X149448893Y-113940678D01*
X149438582Y-113940618D01*
X149437535Y-113940549D01*
X149431967Y-113936020D01*
X149427685Y-113932308D01*
X149416369Y-113925219D01*
X149401424Y-113917003D01*
X149386025Y-113909307D01*
X149373343Y-113903779D01*
X149366553Y-113902066D01*
X149365773Y-113902181D01*
X149362584Y-113898350D01*
X149362574Y-113898179D01*
X149357769Y-113893245D01*
X149346823Y-113888082D01*
X149334043Y-113882663D01*
X149324333Y-113876790D01*
X149319443Y-113873143D01*
X149306437Y-113864704D01*
X149288778Y-113853973D01*
X149268745Y-113842253D01*
X149248617Y-113830851D01*
X149230672Y-113821069D01*
X149217189Y-113814214D01*
X149210448Y-113811590D01*
X149207989Y-113811287D01*
X149206446Y-113808790D01*
X149206472Y-113808763D01*
X149205346Y-113804205D01*
X149198267Y-113798753D01*
X149189305Y-113794798D01*
X149182527Y-113794732D01*
X149180397Y-113795595D01*
X149178567Y-113792259D01*
X149178632Y-113791575D01*
X149174394Y-113784925D01*
X149164146Y-113777313D01*
X149162751Y-113776507D01*
X149151627Y-113769720D01*
X149145625Y-113765440D01*
X149143359Y-113763610D01*
X149133719Y-113756341D01*
X149117973Y-113744681D01*
X149097627Y-113729742D01*
X149074188Y-113712639D01*
X149060971Y-113702979D01*
X149036921Y-113685181D01*
X149015720Y-113669220D01*
X148999282Y-113656542D01*
X148989521Y-113648597D01*
X148981130Y-113641282D01*
X148965705Y-113627960D01*
X148946553Y-113611501D01*
X148926021Y-113593925D01*
X148920330Y-113589018D01*
X148897108Y-113568412D01*
X148870140Y-113543799D01*
X148842327Y-113517848D01*
X148816574Y-113493231D01*
X148801974Y-113479248D01*
X148782712Y-113461438D01*
X148766961Y-113447635D01*
X148756050Y-113438992D01*
X148751310Y-113436662D01*
X148750178Y-113437542D01*
X148749632Y-113434695D01*
X148748959Y-113431325D01*
X148743154Y-113421639D01*
X148733327Y-113408727D01*
X148721532Y-113394944D01*
X148709822Y-113382644D01*
X148700250Y-113374181D01*
X148694869Y-113371908D01*
X148693425Y-113372562D01*
X148691734Y-113369683D01*
X148691311Y-113366638D01*
X148686138Y-113357362D01*
X148677305Y-113345678D01*
X148667203Y-113334381D01*
X148658227Y-113326269D01*
X148652768Y-113324139D01*
X148650899Y-113324462D01*
X148651237Y-113319307D01*
X148649773Y-113311242D01*
X148641635Y-113301835D01*
X148632232Y-113292627D01*
X148625475Y-113282341D01*
X148622252Y-113277307D01*
X148615173Y-113276575D01*
X148612327Y-113277936D01*
X148612281Y-113276237D01*
X148612430Y-113276015D01*
X148610791Y-113269515D01*
X148603912Y-113257474D01*
X148593159Y-113242316D01*
X148585639Y-113232391D01*
X148570126Y-113211434D01*
X148552669Y-113187428D01*
X148535809Y-113163847D01*
X148523158Y-113146364D01*
X148511242Y-113130761D01*
X148502733Y-113120611D01*
X148498928Y-113117545D01*
X148497927Y-113117932D01*
X148496514Y-113113188D01*
X148496258Y-113111799D01*
X148492046Y-113102324D01*
X148483736Y-113087383D01*
X148472721Y-113069532D01*
X148461812Y-113052508D01*
X148429994Y-113001187D01*
X148402081Y-112953270D01*
X148395492Y-112942052D01*
X148387419Y-112929683D01*
X148382309Y-112923575D01*
X148381066Y-112922616D01*
X148378068Y-112916867D01*
X148376630Y-112911557D01*
X148371283Y-112899111D01*
X148363021Y-112881794D01*
X148352917Y-112861665D01*
X148342045Y-112840782D01*
X148331477Y-112821200D01*
X148322287Y-112804979D01*
X148315548Y-112794176D01*
X148312333Y-112790847D01*
X148311039Y-112791081D01*
X148312474Y-112785099D01*
X148313571Y-112779963D01*
X148310990Y-112776000D01*
X148309160Y-112775542D01*
X148305766Y-112769385D01*
X148305169Y-112765660D01*
X148301331Y-112753747D01*
X148295030Y-112738333D01*
X148287532Y-112722089D01*
X148280105Y-112707683D01*
X148274013Y-112697788D01*
X148270524Y-112695073D01*
X148268917Y-112695598D01*
X148270141Y-112689849D01*
X148271170Y-112684605D01*
X148267463Y-112680750D01*
X148265316Y-112680339D01*
X148264495Y-112675567D01*
X148264973Y-112669244D01*
X148261093Y-112658369D01*
X148256590Y-112649452D01*
X148253289Y-112641062D01*
X148252007Y-112636326D01*
X148247347Y-112622279D01*
X148240974Y-112604948D01*
X148234173Y-112587658D01*
X148228231Y-112573731D01*
X148224435Y-112566492D01*
X148222747Y-112563711D01*
X148223158Y-112557231D01*
X148224013Y-112555794D01*
X148220153Y-112553750D01*
X148217775Y-112553379D01*
X148216365Y-112549386D01*
X148216754Y-112547325D01*
X148215323Y-112537363D01*
X148211411Y-112522126D01*
X148205892Y-112504197D01*
X148199638Y-112486158D01*
X148193523Y-112470591D01*
X148188418Y-112460077D01*
X148185198Y-112457200D01*
X148183522Y-112458286D01*
X148184627Y-112454571D01*
X148184939Y-112448398D01*
X148182975Y-112434336D01*
X148179167Y-112415449D01*
X148174145Y-112394549D01*
X148168540Y-112374447D01*
X148162981Y-112357958D01*
X148161751Y-112354405D01*
X148158825Y-112342083D01*
X148157824Y-112335721D01*
X148154626Y-112318912D01*
X148150209Y-112298000D01*
X148145135Y-112275396D01*
X148139966Y-112253511D01*
X148135263Y-112234755D01*
X148131589Y-112221540D01*
X148129506Y-112216277D01*
X148129498Y-112216273D01*
X148127853Y-112210613D01*
X148128516Y-112199079D01*
X148128567Y-112198721D01*
X148128611Y-112187841D01*
X148125668Y-112183333D01*
X148122873Y-112179927D01*
X148123039Y-112170104D01*
X148123549Y-112161277D01*
X148120982Y-112156875D01*
X148120148Y-112156553D01*
X148117221Y-112149797D01*
X148115677Y-112137031D01*
X148115187Y-112126484D01*
X148113548Y-112103541D01*
X148111309Y-112080909D01*
X148108778Y-112061151D01*
X148106263Y-112046831D01*
X148104073Y-112040512D01*
X148102734Y-112037922D01*
X148100453Y-112027094D01*
X148098819Y-112011354D01*
X148098766Y-112009931D01*
X148098600Y-111998835D01*
X148098419Y-111977772D01*
X148098224Y-111947202D01*
X148098018Y-111907585D01*
X148097802Y-111859381D01*
X148097577Y-111803049D01*
X148097344Y-111739049D01*
X148097105Y-111667841D01*
X148096861Y-111589885D01*
X148096614Y-111505641D01*
X148096364Y-111415568D01*
X148096115Y-111320126D01*
X148095866Y-111219776D01*
X148095619Y-111114977D01*
X148095377Y-111006188D01*
X148095139Y-110893870D01*
X148094908Y-110778482D01*
X148094685Y-110660485D01*
X148093049Y-109769965D01*
X148526500Y-109769965D01*
X148526602Y-110779534D01*
X148526603Y-110793430D01*
X148526632Y-110922458D01*
X148526691Y-111041418D01*
X148526788Y-111150775D01*
X148526928Y-111250996D01*
X148527120Y-111342548D01*
X148527369Y-111425898D01*
X148527682Y-111501511D01*
X148528067Y-111569855D01*
X148528529Y-111631395D01*
X148529076Y-111686598D01*
X148529715Y-111735932D01*
X148530452Y-111779861D01*
X148531295Y-111818854D01*
X148532249Y-111853376D01*
X148533322Y-111883893D01*
X148534520Y-111910873D01*
X148535851Y-111934781D01*
X148537321Y-111956085D01*
X148538937Y-111975251D01*
X148540705Y-111992744D01*
X148542633Y-112009033D01*
X148544727Y-112024583D01*
X148545431Y-112029494D01*
X148550292Y-112061682D01*
X148555497Y-112093626D01*
X148560676Y-112123281D01*
X148565460Y-112148600D01*
X148569482Y-112167535D01*
X148572371Y-112178041D01*
X148574095Y-112183497D01*
X148576599Y-112196562D01*
X148578895Y-112212760D01*
X148582558Y-112229731D01*
X148586553Y-112242068D01*
X148590094Y-112246833D01*
X148592062Y-112248967D01*
X148591534Y-112257416D01*
X148591018Y-112263827D01*
X148594987Y-112268000D01*
X148597156Y-112268321D01*
X148598580Y-112272253D01*
X148598496Y-112272402D01*
X148598244Y-112280059D01*
X148600532Y-112293661D01*
X148604477Y-112309937D01*
X148609196Y-112325614D01*
X148613805Y-112337420D01*
X148617422Y-112342083D01*
X148619119Y-112342549D01*
X148618961Y-112347606D01*
X148618139Y-112351841D01*
X148621943Y-112360835D01*
X148625074Y-112365258D01*
X148625380Y-112368541D01*
X148625207Y-112371424D01*
X148627936Y-112382369D01*
X148633302Y-112399639D01*
X148640594Y-112421268D01*
X148649099Y-112445292D01*
X148658104Y-112469747D01*
X148666897Y-112492668D01*
X148674765Y-112512091D01*
X148680996Y-112526051D01*
X148684877Y-112532583D01*
X148686292Y-112534433D01*
X148689464Y-112543166D01*
X148691491Y-112549710D01*
X148698178Y-112565977D01*
X148708547Y-112588725D01*
X148721767Y-112616287D01*
X148737009Y-112646999D01*
X148753443Y-112679198D01*
X148770239Y-112711217D01*
X148786566Y-112741394D01*
X148801595Y-112768062D01*
X148805632Y-112774964D01*
X148832480Y-112818405D01*
X148864266Y-112866448D01*
X148899100Y-112916374D01*
X148935092Y-112965461D01*
X148970353Y-113010990D01*
X148988620Y-113033084D01*
X149020847Y-113069767D01*
X149057736Y-113109684D01*
X149097404Y-113150924D01*
X149137965Y-113191573D01*
X149177536Y-113229721D01*
X149214231Y-113263455D01*
X149246167Y-113290863D01*
X149352573Y-113372443D01*
X149474612Y-113453835D01*
X149600585Y-113525406D01*
X149730544Y-113587176D01*
X149864540Y-113639169D01*
X150002626Y-113681406D01*
X150144852Y-113713909D01*
X150291271Y-113736701D01*
X150303811Y-113738028D01*
X150333500Y-113740361D01*
X150369848Y-113742490D01*
X150410702Y-113744353D01*
X150453911Y-113745886D01*
X150497322Y-113747030D01*
X150538783Y-113747720D01*
X150576141Y-113747897D01*
X150607243Y-113747497D01*
X150629938Y-113746458D01*
X150718392Y-113738088D01*
X150851227Y-113719234D01*
X150978553Y-113693002D01*
X151102005Y-113658978D01*
X151223220Y-113616748D01*
X151343837Y-113565897D01*
X151424521Y-113526369D01*
X151532329Y-113465568D01*
X151638020Y-113397044D01*
X151739924Y-113322049D01*
X151836366Y-113241834D01*
X151925673Y-113157649D01*
X152006172Y-113070745D01*
X152026734Y-113046481D01*
X152049440Y-113018971D01*
X152071455Y-112991641D01*
X152091757Y-112965808D01*
X152109326Y-112942793D01*
X152123140Y-112923914D01*
X152132178Y-112910491D01*
X152135417Y-112903841D01*
X152135487Y-112902877D01*
X152139753Y-112896826D01*
X152143195Y-112893600D01*
X152150728Y-112884090D01*
X152160299Y-112870791D01*
X152170245Y-112856162D01*
X152178899Y-112842666D01*
X152184599Y-112832764D01*
X152185679Y-112828916D01*
X152186392Y-112825873D01*
X152192618Y-112818195D01*
X152195187Y-112815224D01*
X152206538Y-112799172D01*
X152221108Y-112775334D01*
X152238137Y-112745207D01*
X152256865Y-112710286D01*
X152276531Y-112672070D01*
X152296376Y-112632054D01*
X152315639Y-112591736D01*
X152333562Y-112552613D01*
X152349382Y-112516180D01*
X152362342Y-112483936D01*
X152371130Y-112460461D01*
X152385963Y-112419176D01*
X152399784Y-112378703D01*
X152412204Y-112340342D01*
X152422834Y-112305390D01*
X152431286Y-112275147D01*
X152437170Y-112250910D01*
X152440097Y-112233980D01*
X152439680Y-112225653D01*
X152438901Y-112223573D01*
X152442639Y-112220375D01*
X152445853Y-112218461D01*
X152446159Y-112210045D01*
X152445356Y-112203760D01*
X152447551Y-112198139D01*
X152447586Y-112198124D01*
X152450160Y-112192359D01*
X152453832Y-112178353D01*
X152458209Y-112158298D01*
X152462893Y-112134388D01*
X152467492Y-112108817D01*
X152471610Y-112083778D01*
X152474853Y-112061465D01*
X152476824Y-112044071D01*
X152477131Y-112033791D01*
X152477344Y-112023801D01*
X152480269Y-112019291D01*
X152480624Y-112019243D01*
X152483761Y-112013803D01*
X152485111Y-112002093D01*
X152485394Y-111992787D01*
X152486521Y-111973735D01*
X152488193Y-111953145D01*
X152488447Y-111950287D01*
X152489942Y-111928058D01*
X152491170Y-111901269D01*
X152491884Y-111875093D01*
X152492100Y-111865638D01*
X152493016Y-111846764D01*
X152494348Y-111833683D01*
X152495889Y-111828791D01*
X152496229Y-111828414D01*
X152497433Y-111820925D01*
X152498468Y-111805300D01*
X152499233Y-111783467D01*
X152499628Y-111757354D01*
X152499654Y-111750006D01*
X152499395Y-111724858D01*
X152498652Y-111704509D01*
X152497519Y-111690886D01*
X152496093Y-111685916D01*
X152495542Y-111685482D01*
X152494136Y-111678024D01*
X152493585Y-111663225D01*
X152494014Y-111643583D01*
X152494241Y-111637531D01*
X152494290Y-111619039D01*
X152493314Y-111606113D01*
X152491464Y-111601250D01*
X152489699Y-111599078D01*
X152487541Y-111588994D01*
X152486485Y-111573468D01*
X152486240Y-111565335D01*
X152484864Y-111542255D01*
X152482851Y-111521875D01*
X152482251Y-111516967D01*
X152480452Y-111497359D01*
X152479721Y-111480864D01*
X152479703Y-111479557D01*
X152477868Y-111468291D01*
X152473937Y-111463666D01*
X152471937Y-111463235D01*
X152471464Y-111458333D01*
X152472242Y-111453291D01*
X152471629Y-111440885D01*
X152469694Y-111424423D01*
X152466909Y-111406823D01*
X152463747Y-111391002D01*
X152460681Y-111379878D01*
X152458184Y-111376369D01*
X152457957Y-111376474D01*
X152456502Y-111372694D01*
X152457231Y-111362093D01*
X152457435Y-111360634D01*
X152457522Y-111350340D01*
X152453689Y-111349418D01*
X152450498Y-111350349D01*
X152450898Y-111344879D01*
X152451945Y-111339518D01*
X152450130Y-111327406D01*
X152449991Y-111327069D01*
X152446642Y-111315146D01*
X152444003Y-111299771D01*
X152443762Y-111297909D01*
X152441158Y-111285276D01*
X152438096Y-111278604D01*
X152437565Y-111278150D01*
X152434218Y-111270520D01*
X152433970Y-111266523D01*
X152431742Y-111251560D01*
X152428090Y-111236513D01*
X152423983Y-111224902D01*
X152420390Y-111220250D01*
X152418808Y-111219949D01*
X152418279Y-111215350D01*
X152418836Y-111213032D01*
X152417791Y-111202367D01*
X152414000Y-111187568D01*
X152409028Y-111171979D01*
X152402030Y-111150015D01*
X152394909Y-111127645D01*
X152393558Y-111123442D01*
X152384828Y-111097799D01*
X152374751Y-111070191D01*
X152364028Y-111042320D01*
X152353363Y-111015891D01*
X152343456Y-110992609D01*
X152335010Y-110974178D01*
X152328728Y-110962303D01*
X152325310Y-110958687D01*
X152323414Y-110959138D01*
X152323494Y-110954348D01*
X152323614Y-110953569D01*
X152321494Y-110944692D01*
X152315488Y-110928808D01*
X152306398Y-110907902D01*
X152295028Y-110883958D01*
X152292479Y-110878815D01*
X152223504Y-110751721D01*
X152146237Y-110630871D01*
X152061101Y-110516585D01*
X151968520Y-110409182D01*
X151868914Y-110308982D01*
X151762707Y-110216305D01*
X151650321Y-110131470D01*
X151532178Y-110054797D01*
X151408700Y-109986607D01*
X151280311Y-109927218D01*
X151147431Y-109876951D01*
X151010484Y-109836125D01*
X150869892Y-109805060D01*
X150864618Y-109804091D01*
X150845522Y-109800558D01*
X150827868Y-109797307D01*
X150811175Y-109794327D01*
X150794962Y-109791605D01*
X150778748Y-109789129D01*
X150762052Y-109786886D01*
X150744393Y-109784863D01*
X150725290Y-109783048D01*
X150704262Y-109781429D01*
X150680828Y-109779993D01*
X150654507Y-109778727D01*
X150624818Y-109777619D01*
X150591280Y-109776658D01*
X150553412Y-109775829D01*
X150510733Y-109775120D01*
X150462761Y-109774520D01*
X150409017Y-109774016D01*
X150349018Y-109773594D01*
X150282284Y-109773243D01*
X150208334Y-109772951D01*
X150126687Y-109772704D01*
X150036861Y-109772490D01*
X149938376Y-109772296D01*
X149830751Y-109772111D01*
X149713505Y-109771922D01*
X149586157Y-109771715D01*
X148526500Y-109769965D01*
X148093049Y-109769965D01*
X148092252Y-109336075D01*
X149398137Y-109337998D01*
X149409498Y-109338015D01*
X149560779Y-109338256D01*
X149701737Y-109338513D01*
X149832616Y-109338787D01*
X149953659Y-109339082D01*
X150065109Y-109339397D01*
X150167209Y-109339734D01*
X150260203Y-109340095D01*
X150344333Y-109340481D01*
X150419843Y-109340894D01*
X150486976Y-109341335D01*
X150545975Y-109341805D01*
X150597083Y-109342306D01*
X150640544Y-109342840D01*
X150676600Y-109343407D01*
X150705495Y-109344010D01*
X150727473Y-109344649D01*
X150742775Y-109345327D01*
X150751646Y-109346044D01*
X150761700Y-109347347D01*
X150881534Y-109364704D01*
X150992817Y-109384520D01*
X151097267Y-109407287D01*
X151196602Y-109433498D01*
X151292540Y-109463644D01*
X151386798Y-109498220D01*
X151481094Y-109537715D01*
X151577146Y-109582624D01*
X151643943Y-109616480D01*
X151771956Y-109688410D01*
X151892831Y-109766405D01*
X152008136Y-109851586D01*
X152119438Y-109945073D01*
X152228307Y-110047987D01*
X152314709Y-110138638D01*
X152404679Y-110244189D01*
X152487967Y-110354901D01*
X152565821Y-110472441D01*
X152639486Y-110598479D01*
X152647374Y-110612505D01*
X152658192Y-110630715D01*
X152666773Y-110643937D01*
X152671751Y-110649991D01*
X152674095Y-110651755D01*
X152674190Y-110653960D01*
X152673977Y-110654351D01*
X152675953Y-110661261D01*
X152681615Y-110675470D01*
X152690245Y-110695249D01*
X152701125Y-110718864D01*
X152712635Y-110743780D01*
X152728615Y-110779539D01*
X152744264Y-110815651D01*
X152757419Y-110847187D01*
X152759016Y-110851118D01*
X152768726Y-110874649D01*
X152777025Y-110894150D01*
X152783078Y-110907690D01*
X152786047Y-110913333D01*
X152786471Y-110913778D01*
X152789012Y-110921270D01*
X152789887Y-110925224D01*
X152793555Y-110938054D01*
X152799583Y-110957851D01*
X152807424Y-110982836D01*
X152816536Y-111011229D01*
X152835013Y-111070445D01*
X152852860Y-111132240D01*
X152868826Y-111192315D01*
X152882398Y-111248643D01*
X152893062Y-111299200D01*
X152900306Y-111341958D01*
X152901487Y-111349903D01*
X152904606Y-111369223D01*
X152908118Y-111389583D01*
X152909477Y-111397246D01*
X152912197Y-111413602D01*
X152914392Y-111429156D01*
X152916398Y-111446745D01*
X152918553Y-111469209D01*
X152921196Y-111499385D01*
X152922312Y-111511271D01*
X152924575Y-111530314D01*
X152926790Y-111543441D01*
X152928603Y-111548333D01*
X152929448Y-111548778D01*
X152930345Y-111551126D01*
X152931071Y-111556364D01*
X152931648Y-111565452D01*
X152932098Y-111579352D01*
X152932441Y-111599028D01*
X152932699Y-111625439D01*
X152932894Y-111659548D01*
X152933046Y-111702317D01*
X152933167Y-111750006D01*
X152933178Y-111754708D01*
X152933230Y-111794062D01*
G36*
X147362770Y-113336520D02*
G01*
X147345136Y-113383229D01*
X147336303Y-113399385D01*
X147308543Y-113437130D01*
X147274115Y-113470201D01*
X147234997Y-113497140D01*
X147193167Y-113516486D01*
X147150602Y-113526781D01*
X147113381Y-113529325D01*
X147061613Y-113524880D01*
X147013541Y-113510549D01*
X146968877Y-113486236D01*
X146927332Y-113451844D01*
X146918760Y-113442942D01*
X146888963Y-113402871D01*
X146866863Y-113356923D01*
X146853502Y-113307145D01*
X146850669Y-113270770D01*
X146976210Y-113270770D01*
X146976456Y-113279894D01*
X146983465Y-113316708D01*
X146999745Y-113348824D01*
X147024782Y-113375459D01*
X147058063Y-113395826D01*
X147059863Y-113396625D01*
X147090977Y-113404761D01*
X147124644Y-113404694D01*
X147157990Y-113397059D01*
X147188138Y-113382496D01*
X147212215Y-113361640D01*
X147231980Y-113331465D01*
X147243492Y-113297773D01*
X147246107Y-113263345D01*
X147240131Y-113229847D01*
X147225868Y-113198945D01*
X147203625Y-113172307D01*
X147173707Y-113151598D01*
X147170841Y-113150198D01*
X147142569Y-113141237D01*
X147110840Y-113137940D01*
X147079721Y-113140405D01*
X147053282Y-113148727D01*
X147050158Y-113150322D01*
X147019061Y-113172166D01*
X146995839Y-113200364D01*
X146981289Y-113233653D01*
X146976210Y-113270770D01*
X146850669Y-113270770D01*
X146850465Y-113268145D01*
X146855729Y-113221439D01*
X146869912Y-113176347D01*
X146892121Y-113134207D01*
X146921463Y-113096360D01*
X146957047Y-113064146D01*
X146997981Y-113038905D01*
X147043372Y-113021976D01*
X147062905Y-113018194D01*
X147088734Y-113015251D01*
X147113777Y-113014125D01*
X147161389Y-113018522D01*
X147207743Y-113031944D01*
X147249664Y-113053335D01*
X147286482Y-113081627D01*
X147317529Y-113115752D01*
X147342135Y-113154644D01*
X147359632Y-113197234D01*
X147369349Y-113242455D01*
X147369916Y-113263345D01*
X147370618Y-113289240D01*
X147362770Y-113336520D01*
G37*
X147362770Y-113336520D02*
X147345136Y-113383229D01*
X147336303Y-113399385D01*
X147308543Y-113437130D01*
X147274115Y-113470201D01*
X147234997Y-113497140D01*
X147193167Y-113516486D01*
X147150602Y-113526781D01*
X147113381Y-113529325D01*
X147061613Y-113524880D01*
X147013541Y-113510549D01*
X146968877Y-113486236D01*
X146927332Y-113451844D01*
X146918760Y-113442942D01*
X146888963Y-113402871D01*
X146866863Y-113356923D01*
X146853502Y-113307145D01*
X146850669Y-113270770D01*
X146976210Y-113270770D01*
X146976456Y-113279894D01*
X146983465Y-113316708D01*
X146999745Y-113348824D01*
X147024782Y-113375459D01*
X147058063Y-113395826D01*
X147059863Y-113396625D01*
X147090977Y-113404761D01*
X147124644Y-113404694D01*
X147157990Y-113397059D01*
X147188138Y-113382496D01*
X147212215Y-113361640D01*
X147231980Y-113331465D01*
X147243492Y-113297773D01*
X147246107Y-113263345D01*
X147240131Y-113229847D01*
X147225868Y-113198945D01*
X147203625Y-113172307D01*
X147173707Y-113151598D01*
X147170841Y-113150198D01*
X147142569Y-113141237D01*
X147110840Y-113137940D01*
X147079721Y-113140405D01*
X147053282Y-113148727D01*
X147050158Y-113150322D01*
X147019061Y-113172166D01*
X146995839Y-113200364D01*
X146981289Y-113233653D01*
X146976210Y-113270770D01*
X146850669Y-113270770D01*
X146850465Y-113268145D01*
X146855729Y-113221439D01*
X146869912Y-113176347D01*
X146892121Y-113134207D01*
X146921463Y-113096360D01*
X146957047Y-113064146D01*
X146997981Y-113038905D01*
X147043372Y-113021976D01*
X147062905Y-113018194D01*
X147088734Y-113015251D01*
X147113777Y-113014125D01*
X147161389Y-113018522D01*
X147207743Y-113031944D01*
X147249664Y-113053335D01*
X147286482Y-113081627D01*
X147317529Y-113115752D01*
X147342135Y-113154644D01*
X147359632Y-113197234D01*
X147369349Y-113242455D01*
X147369916Y-113263345D01*
X147370618Y-113289240D01*
X147362770Y-113336520D01*
G36*
X142205605Y-113304239D02*
G01*
X142368447Y-113014125D01*
X142504584Y-113014125D01*
X142504584Y-113532708D01*
X142377754Y-113532708D01*
X142376346Y-113388559D01*
X142374938Y-113244411D01*
X142293727Y-113388559D01*
X142212516Y-113532708D01*
X142081250Y-113532708D01*
X142081250Y-113014125D01*
X142202791Y-113014125D01*
X142205605Y-113304239D01*
G37*
X142205605Y-113304239D02*
X142368447Y-113014125D01*
X142504584Y-113014125D01*
X142504584Y-113532708D01*
X142377754Y-113532708D01*
X142376346Y-113388559D01*
X142374938Y-113244411D01*
X142293727Y-113388559D01*
X142212516Y-113532708D01*
X142081250Y-113532708D01*
X142081250Y-113014125D01*
X142202791Y-113014125D01*
X142205605Y-113304239D01*
G36*
X142953678Y-109339073D02*
G01*
X143006742Y-109340151D01*
X143056039Y-109342135D01*
X143099308Y-109345025D01*
X143134292Y-109348821D01*
X143252493Y-109369049D01*
X143385461Y-109400980D01*
X143513083Y-109441946D01*
X143635622Y-109492055D01*
X143753336Y-109551415D01*
X143866487Y-109620135D01*
X143975333Y-109698322D01*
X143980976Y-109702742D01*
X144030900Y-109744542D01*
X144083891Y-109793195D01*
X144137977Y-109846627D01*
X144191185Y-109902764D01*
X144241541Y-109959533D01*
X144287071Y-110014858D01*
X144325803Y-110066666D01*
X144342061Y-110090272D01*
X144407623Y-110195941D01*
X144465825Y-110307445D01*
X144516054Y-110423254D01*
X144557695Y-110541842D01*
X144590136Y-110661679D01*
X144612762Y-110781239D01*
X144617319Y-110814322D01*
X144629404Y-110945613D01*
X144632269Y-111077797D01*
X144625922Y-111208830D01*
X144610374Y-111336666D01*
X144601971Y-111384464D01*
X144572556Y-111510990D01*
X144533490Y-111634444D01*
X144485199Y-111754287D01*
X144428108Y-111869976D01*
X144362642Y-111980973D01*
X144289226Y-112086736D01*
X144208286Y-112186725D01*
X144120248Y-112280400D01*
X144025536Y-112367221D01*
X143924575Y-112446646D01*
X143817792Y-112518135D01*
X143705611Y-112581149D01*
X143588458Y-112635146D01*
X143562201Y-112645677D01*
X143471785Y-112677901D01*
X143376684Y-112706178D01*
X143280032Y-112729721D01*
X143184961Y-112747740D01*
X143094605Y-112759447D01*
X143070348Y-112761209D01*
X143034999Y-112762761D01*
X142993575Y-112763836D01*
X142948456Y-112764430D01*
X142902019Y-112764538D01*
X142856641Y-112764157D01*
X142814701Y-112763283D01*
X142778577Y-112761911D01*
X142750646Y-112760037D01*
X142679834Y-112751991D01*
X142551292Y-112729603D01*
X142425051Y-112697612D01*
X142301957Y-112656354D01*
X142182858Y-112606166D01*
X142068599Y-112547383D01*
X141960028Y-112480343D01*
X141857990Y-112405382D01*
X141834693Y-112386412D01*
X141807900Y-112363895D01*
X141781813Y-112341320D01*
X141757676Y-112319815D01*
X141736735Y-112300511D01*
X141720236Y-112284537D01*
X141709423Y-112273022D01*
X141705542Y-112267097D01*
X141709190Y-112262593D01*
X141719737Y-112251200D01*
X141736602Y-112233512D01*
X141759203Y-112210127D01*
X141786958Y-112181638D01*
X141819285Y-112148642D01*
X141855602Y-112111733D01*
X141895328Y-112071508D01*
X141937880Y-112028562D01*
X141982676Y-111983491D01*
X142259810Y-111705076D01*
X142296207Y-111736936D01*
X142313661Y-111751910D01*
X142392130Y-111811895D01*
X142473444Y-111862100D01*
X142558408Y-111902872D01*
X142647826Y-111934555D01*
X142742505Y-111957497D01*
X142843250Y-111972044D01*
X142852517Y-111972908D01*
X142931178Y-111975328D01*
X143013555Y-111969817D01*
X143097273Y-111956835D01*
X143179957Y-111936839D01*
X143259234Y-111910287D01*
X143332730Y-111877637D01*
X143384921Y-111848809D01*
X143464766Y-111795172D01*
X143538544Y-111733462D01*
X143605715Y-111664390D01*
X143665736Y-111588666D01*
X143718066Y-111507003D01*
X143762163Y-111420110D01*
X143797486Y-111328698D01*
X143823494Y-111233479D01*
X143827002Y-111216408D01*
X143829997Y-111198406D01*
X143832171Y-111179508D01*
X143833655Y-111157776D01*
X143834577Y-111131274D01*
X143835065Y-111098063D01*
X143835247Y-111056208D01*
X143835257Y-111047659D01*
X143835172Y-111008127D01*
X143834756Y-110976820D01*
X143833876Y-110951757D01*
X143832399Y-110930954D01*
X143830193Y-110912429D01*
X143827125Y-110894200D01*
X143823062Y-110874285D01*
X143818324Y-110853338D01*
X143790576Y-110757879D01*
X143753994Y-110667035D01*
X143709070Y-110581365D01*
X143656299Y-110501425D01*
X143596171Y-110427770D01*
X143529181Y-110360959D01*
X143455821Y-110301547D01*
X143376583Y-110250091D01*
X143291961Y-110207147D01*
X143202447Y-110173273D01*
X143191707Y-110169888D01*
X143152024Y-110158040D01*
X143116802Y-110148980D01*
X143083539Y-110142352D01*
X143049730Y-110137798D01*
X143012869Y-110134961D01*
X142970454Y-110133484D01*
X142919980Y-110133011D01*
X142916470Y-110133006D01*
X142876271Y-110133066D01*
X142844461Y-110133458D01*
X142819008Y-110134322D01*
X142797876Y-110135796D01*
X142779031Y-110138018D01*
X142760438Y-110141128D01*
X142740063Y-110145263D01*
X142739214Y-110145445D01*
X142638791Y-110172143D01*
X142543701Y-110207979D01*
X142453892Y-110252977D01*
X142369312Y-110307165D01*
X142289909Y-110370567D01*
X142260440Y-110396656D01*
X141702896Y-109838452D01*
X141742584Y-109801136D01*
X141842426Y-109714028D01*
X141949668Y-109634082D01*
X142062110Y-109563342D01*
X142179698Y-109501835D01*
X142302374Y-109449587D01*
X142430082Y-109406625D01*
X142562768Y-109372975D01*
X142700375Y-109348663D01*
X142710904Y-109347316D01*
X142748923Y-109343847D01*
X142794469Y-109341289D01*
X142845282Y-109339642D01*
X142899105Y-109338903D01*
X142953678Y-109339073D01*
G37*
X142953678Y-109339073D02*
X143006742Y-109340151D01*
X143056039Y-109342135D01*
X143099308Y-109345025D01*
X143134292Y-109348821D01*
X143252493Y-109369049D01*
X143385461Y-109400980D01*
X143513083Y-109441946D01*
X143635622Y-109492055D01*
X143753336Y-109551415D01*
X143866487Y-109620135D01*
X143975333Y-109698322D01*
X143980976Y-109702742D01*
X144030900Y-109744542D01*
X144083891Y-109793195D01*
X144137977Y-109846627D01*
X144191185Y-109902764D01*
X144241541Y-109959533D01*
X144287071Y-110014858D01*
X144325803Y-110066666D01*
X144342061Y-110090272D01*
X144407623Y-110195941D01*
X144465825Y-110307445D01*
X144516054Y-110423254D01*
X144557695Y-110541842D01*
X144590136Y-110661679D01*
X144612762Y-110781239D01*
X144617319Y-110814322D01*
X144629404Y-110945613D01*
X144632269Y-111077797D01*
X144625922Y-111208830D01*
X144610374Y-111336666D01*
X144601971Y-111384464D01*
X144572556Y-111510990D01*
X144533490Y-111634444D01*
X144485199Y-111754287D01*
X144428108Y-111869976D01*
X144362642Y-111980973D01*
X144289226Y-112086736D01*
X144208286Y-112186725D01*
X144120248Y-112280400D01*
X144025536Y-112367221D01*
X143924575Y-112446646D01*
X143817792Y-112518135D01*
X143705611Y-112581149D01*
X143588458Y-112635146D01*
X143562201Y-112645677D01*
X143471785Y-112677901D01*
X143376684Y-112706178D01*
X143280032Y-112729721D01*
X143184961Y-112747740D01*
X143094605Y-112759447D01*
X143070348Y-112761209D01*
X143034999Y-112762761D01*
X142993575Y-112763836D01*
X142948456Y-112764430D01*
X142902019Y-112764538D01*
X142856641Y-112764157D01*
X142814701Y-112763283D01*
X142778577Y-112761911D01*
X142750646Y-112760037D01*
X142679834Y-112751991D01*
X142551292Y-112729603D01*
X142425051Y-112697612D01*
X142301957Y-112656354D01*
X142182858Y-112606166D01*
X142068599Y-112547383D01*
X141960028Y-112480343D01*
X141857990Y-112405382D01*
X141834693Y-112386412D01*
X141807900Y-112363895D01*
X141781813Y-112341320D01*
X141757676Y-112319815D01*
X141736735Y-112300511D01*
X141720236Y-112284537D01*
X141709423Y-112273022D01*
X141705542Y-112267097D01*
X141709190Y-112262593D01*
X141719737Y-112251200D01*
X141736602Y-112233512D01*
X141759203Y-112210127D01*
X141786958Y-112181638D01*
X141819285Y-112148642D01*
X141855602Y-112111733D01*
X141895328Y-112071508D01*
X141937880Y-112028562D01*
X141982676Y-111983491D01*
X142259810Y-111705076D01*
X142296207Y-111736936D01*
X142313661Y-111751910D01*
X142392130Y-111811895D01*
X142473444Y-111862100D01*
X142558408Y-111902872D01*
X142647826Y-111934555D01*
X142742505Y-111957497D01*
X142843250Y-111972044D01*
X142852517Y-111972908D01*
X142931178Y-111975328D01*
X143013555Y-111969817D01*
X143097273Y-111956835D01*
X143179957Y-111936839D01*
X143259234Y-111910287D01*
X143332730Y-111877637D01*
X143384921Y-111848809D01*
X143464766Y-111795172D01*
X143538544Y-111733462D01*
X143605715Y-111664390D01*
X143665736Y-111588666D01*
X143718066Y-111507003D01*
X143762163Y-111420110D01*
X143797486Y-111328698D01*
X143823494Y-111233479D01*
X143827002Y-111216408D01*
X143829997Y-111198406D01*
X143832171Y-111179508D01*
X143833655Y-111157776D01*
X143834577Y-111131274D01*
X143835065Y-111098063D01*
X143835247Y-111056208D01*
X143835257Y-111047659D01*
X143835172Y-111008127D01*
X143834756Y-110976820D01*
X143833876Y-110951757D01*
X143832399Y-110930954D01*
X143830193Y-110912429D01*
X143827125Y-110894200D01*
X143823062Y-110874285D01*
X143818324Y-110853338D01*
X143790576Y-110757879D01*
X143753994Y-110667035D01*
X143709070Y-110581365D01*
X143656299Y-110501425D01*
X143596171Y-110427770D01*
X143529181Y-110360959D01*
X143455821Y-110301547D01*
X143376583Y-110250091D01*
X143291961Y-110207147D01*
X143202447Y-110173273D01*
X143191707Y-110169888D01*
X143152024Y-110158040D01*
X143116802Y-110148980D01*
X143083539Y-110142352D01*
X143049730Y-110137798D01*
X143012869Y-110134961D01*
X142970454Y-110133484D01*
X142919980Y-110133011D01*
X142916470Y-110133006D01*
X142876271Y-110133066D01*
X142844461Y-110133458D01*
X142819008Y-110134322D01*
X142797876Y-110135796D01*
X142779031Y-110138018D01*
X142760438Y-110141128D01*
X142740063Y-110145263D01*
X142739214Y-110145445D01*
X142638791Y-110172143D01*
X142543701Y-110207979D01*
X142453892Y-110252977D01*
X142369312Y-110307165D01*
X142289909Y-110370567D01*
X142260440Y-110396656D01*
X141702896Y-109838452D01*
X141742584Y-109801136D01*
X141842426Y-109714028D01*
X141949668Y-109634082D01*
X142062110Y-109563342D01*
X142179698Y-109501835D01*
X142302374Y-109449587D01*
X142430082Y-109406625D01*
X142562768Y-109372975D01*
X142700375Y-109348663D01*
X142710904Y-109347316D01*
X142748923Y-109343847D01*
X142794469Y-109341289D01*
X142845282Y-109339642D01*
X142899105Y-109338903D01*
X142953678Y-109339073D01*
%TD*%
M02*
