%TF.GenerationSoftware,KiCad,Pcbnew,(6.0.10)*%
%TF.CreationDate,2023-01-23T12:48:01+01:00*%
%TF.ProjectId,BMS12v3,424d5331-3276-4332-9e6b-696361645f70,rev?*%
%TF.SameCoordinates,Original*%
%TF.FileFunction,Legend,Top*%
%TF.FilePolarity,Positive*%
%FSLAX46Y46*%
G04 Gerber Fmt 4.6, Leading zero omitted, Abs format (unit mm)*
G04 Created by KiCad (PCBNEW (6.0.10)) date 2023-01-23 12:48:01*
%MOMM*%
%LPD*%
G01*
G04 APERTURE LIST*
%ADD10C,0.304800*%
%ADD11C,0.101600*%
%ADD12C,0.121920*%
%ADD13C,0.081280*%
%ADD14C,0.093472*%
%ADD15C,0.114300*%
%ADD16C,0.150000*%
%ADD17C,0.059822*%
%ADD18C,0.127000*%
%ADD19C,0.152400*%
%ADD20C,0.254000*%
%ADD21C,0.203200*%
%ADD22C,0.182000*%
G04 APERTURE END LIST*
D10*
X122609791Y-131695371D02*
X125280420Y-131695371D01*
X123945105Y-133030685D02*
X123945105Y-130360057D01*
D11*
X127359349Y-113837961D02*
X126691692Y-113837961D01*
X127025520Y-113837961D02*
X127025520Y-112669561D01*
X126914244Y-112836476D01*
X126802968Y-112947752D01*
X126691692Y-113003390D01*
X127804454Y-112780838D02*
X127860092Y-112725200D01*
X127971368Y-112669561D01*
X128249559Y-112669561D01*
X128360835Y-112725200D01*
X128416473Y-112780838D01*
X128472111Y-112892114D01*
X128472111Y-113003390D01*
X128416473Y-113170304D01*
X127748816Y-113837961D01*
X128472111Y-113837961D01*
X128972854Y-113392857D02*
X129863063Y-113392857D01*
X130920187Y-113782323D02*
X130808911Y-113837961D01*
X130586359Y-113837961D01*
X130475082Y-113782323D01*
X130419444Y-113726685D01*
X130363806Y-113615409D01*
X130363806Y-113281580D01*
X130419444Y-113170304D01*
X130475082Y-113114666D01*
X130586359Y-113059028D01*
X130808911Y-113059028D01*
X130920187Y-113114666D01*
X131866035Y-113782323D02*
X131754759Y-113837961D01*
X131532206Y-113837961D01*
X131420930Y-113782323D01*
X131365292Y-113671047D01*
X131365292Y-113225942D01*
X131420930Y-113114666D01*
X131532206Y-113059028D01*
X131754759Y-113059028D01*
X131866035Y-113114666D01*
X131921673Y-113225942D01*
X131921673Y-113337219D01*
X131365292Y-113448495D01*
X132589330Y-113837961D02*
X132478054Y-113782323D01*
X132422416Y-113671047D01*
X132422416Y-112669561D01*
X133201349Y-113837961D02*
X133090073Y-113782323D01*
X133034435Y-113671047D01*
X133034435Y-112669561D01*
X135093044Y-113837961D02*
X134536663Y-113837961D01*
X134536663Y-112669561D01*
X135482511Y-113837961D02*
X135482511Y-113059028D01*
X135482511Y-112669561D02*
X135426873Y-112725200D01*
X135482511Y-112780838D01*
X135538149Y-112725200D01*
X135482511Y-112669561D01*
X135482511Y-112780838D01*
X135871978Y-113059028D02*
X136317082Y-113059028D01*
X136038892Y-112669561D02*
X136038892Y-113671047D01*
X136094530Y-113782323D01*
X136205806Y-113837961D01*
X136317082Y-113837961D01*
X136706549Y-113837961D02*
X136706549Y-112669561D01*
X137207292Y-113837961D02*
X137207292Y-113225942D01*
X137151654Y-113114666D01*
X137040378Y-113059028D01*
X136873463Y-113059028D01*
X136762187Y-113114666D01*
X136706549Y-113170304D01*
X137763673Y-113837961D02*
X137763673Y-113059028D01*
X137763673Y-112669561D02*
X137708035Y-112725200D01*
X137763673Y-112780838D01*
X137819311Y-112725200D01*
X137763673Y-112669561D01*
X137763673Y-112780838D01*
X138820797Y-113059028D02*
X138820797Y-113837961D01*
X138320054Y-113059028D02*
X138320054Y-113671047D01*
X138375692Y-113782323D01*
X138486968Y-113837961D01*
X138653882Y-113837961D01*
X138765159Y-113782323D01*
X138820797Y-113726685D01*
X139377178Y-113837961D02*
X139377178Y-113059028D01*
X139377178Y-113170304D02*
X139432816Y-113114666D01*
X139544092Y-113059028D01*
X139711006Y-113059028D01*
X139822282Y-113114666D01*
X139877920Y-113225942D01*
X139877920Y-113837961D01*
X139877920Y-113225942D02*
X139933559Y-113114666D01*
X140044835Y-113059028D01*
X140211749Y-113059028D01*
X140323025Y-113114666D01*
X140378663Y-113225942D01*
X140378663Y-113837961D01*
X142214720Y-113225942D02*
X142381635Y-113281580D01*
X142437273Y-113337219D01*
X142492911Y-113448495D01*
X142492911Y-113615409D01*
X142437273Y-113726685D01*
X142381635Y-113782323D01*
X142270359Y-113837961D01*
X141825254Y-113837961D01*
X141825254Y-112669561D01*
X142214720Y-112669561D01*
X142325997Y-112725200D01*
X142381635Y-112780838D01*
X142437273Y-112892114D01*
X142437273Y-113003390D01*
X142381635Y-113114666D01*
X142325997Y-113170304D01*
X142214720Y-113225942D01*
X141825254Y-113225942D01*
X143494397Y-113837961D02*
X143494397Y-113225942D01*
X143438759Y-113114666D01*
X143327482Y-113059028D01*
X143104930Y-113059028D01*
X142993654Y-113114666D01*
X143494397Y-113782323D02*
X143383120Y-113837961D01*
X143104930Y-113837961D01*
X142993654Y-113782323D01*
X142938016Y-113671047D01*
X142938016Y-113559771D01*
X142993654Y-113448495D01*
X143104930Y-113392857D01*
X143383120Y-113392857D01*
X143494397Y-113337219D01*
X143883863Y-113059028D02*
X144328968Y-113059028D01*
X144050778Y-112669561D02*
X144050778Y-113671047D01*
X144106416Y-113782323D01*
X144217692Y-113837961D01*
X144328968Y-113837961D01*
X144551520Y-113059028D02*
X144996625Y-113059028D01*
X144718435Y-112669561D02*
X144718435Y-113671047D01*
X144774073Y-113782323D01*
X144885349Y-113837961D01*
X144996625Y-113837961D01*
X145831197Y-113782323D02*
X145719920Y-113837961D01*
X145497368Y-113837961D01*
X145386092Y-113782323D01*
X145330454Y-113671047D01*
X145330454Y-113225942D01*
X145386092Y-113114666D01*
X145497368Y-113059028D01*
X145719920Y-113059028D01*
X145831197Y-113114666D01*
X145886835Y-113225942D01*
X145886835Y-113337219D01*
X145330454Y-113448495D01*
X146387578Y-113837961D02*
X146387578Y-113059028D01*
X146387578Y-113281580D02*
X146443216Y-113170304D01*
X146498854Y-113114666D01*
X146610130Y-113059028D01*
X146721406Y-113059028D01*
X146999597Y-113059028D02*
X147277787Y-113837961D01*
X147555978Y-113059028D02*
X147277787Y-113837961D01*
X147166511Y-114116152D01*
X147110873Y-114171790D01*
X146999597Y-114227428D01*
X148891292Y-113837961D02*
X148891292Y-112669561D01*
X149280759Y-113504133D01*
X149670225Y-112669561D01*
X149670225Y-113837961D01*
X150727349Y-113837961D02*
X150727349Y-113225942D01*
X150671711Y-113114666D01*
X150560435Y-113059028D01*
X150337882Y-113059028D01*
X150226606Y-113114666D01*
X150727349Y-113782323D02*
X150616073Y-113837961D01*
X150337882Y-113837961D01*
X150226606Y-113782323D01*
X150170968Y-113671047D01*
X150170968Y-113559771D01*
X150226606Y-113448495D01*
X150337882Y-113392857D01*
X150616073Y-113392857D01*
X150727349Y-113337219D01*
X151283730Y-113059028D02*
X151283730Y-113837961D01*
X151283730Y-113170304D02*
X151339368Y-113114666D01*
X151450644Y-113059028D01*
X151617559Y-113059028D01*
X151728835Y-113114666D01*
X151784473Y-113225942D01*
X151784473Y-113837961D01*
X152841597Y-113837961D02*
X152841597Y-113225942D01*
X152785959Y-113114666D01*
X152674682Y-113059028D01*
X152452130Y-113059028D01*
X152340854Y-113114666D01*
X152841597Y-113782323D02*
X152730320Y-113837961D01*
X152452130Y-113837961D01*
X152340854Y-113782323D01*
X152285216Y-113671047D01*
X152285216Y-113559771D01*
X152340854Y-113448495D01*
X152452130Y-113392857D01*
X152730320Y-113392857D01*
X152841597Y-113337219D01*
X153898720Y-113059028D02*
X153898720Y-114004876D01*
X153843082Y-114116152D01*
X153787444Y-114171790D01*
X153676168Y-114227428D01*
X153509254Y-114227428D01*
X153397978Y-114171790D01*
X153898720Y-113782323D02*
X153787444Y-113837961D01*
X153564892Y-113837961D01*
X153453616Y-113782323D01*
X153397978Y-113726685D01*
X153342340Y-113615409D01*
X153342340Y-113281580D01*
X153397978Y-113170304D01*
X153453616Y-113114666D01*
X153564892Y-113059028D01*
X153787444Y-113059028D01*
X153898720Y-113114666D01*
X154900206Y-113782323D02*
X154788930Y-113837961D01*
X154566378Y-113837961D01*
X154455101Y-113782323D01*
X154399463Y-113671047D01*
X154399463Y-113225942D01*
X154455101Y-113114666D01*
X154566378Y-113059028D01*
X154788930Y-113059028D01*
X154900206Y-113114666D01*
X154955844Y-113225942D01*
X154955844Y-113337219D01*
X154399463Y-113448495D01*
X155456587Y-113837961D02*
X155456587Y-113059028D01*
X155456587Y-113170304D02*
X155512225Y-113114666D01*
X155623501Y-113059028D01*
X155790416Y-113059028D01*
X155901692Y-113114666D01*
X155957330Y-113225942D01*
X155957330Y-113837961D01*
X155957330Y-113225942D02*
X156012968Y-113114666D01*
X156124244Y-113059028D01*
X156291159Y-113059028D01*
X156402435Y-113114666D01*
X156458073Y-113225942D01*
X156458073Y-113837961D01*
X157459559Y-113782323D02*
X157348282Y-113837961D01*
X157125730Y-113837961D01*
X157014454Y-113782323D01*
X156958816Y-113671047D01*
X156958816Y-113225942D01*
X157014454Y-113114666D01*
X157125730Y-113059028D01*
X157348282Y-113059028D01*
X157459559Y-113114666D01*
X157515197Y-113225942D01*
X157515197Y-113337219D01*
X156958816Y-113448495D01*
X158015940Y-113059028D02*
X158015940Y-113837961D01*
X158015940Y-113170304D02*
X158071578Y-113114666D01*
X158182854Y-113059028D01*
X158349768Y-113059028D01*
X158461044Y-113114666D01*
X158516682Y-113225942D01*
X158516682Y-113837961D01*
X158906149Y-113059028D02*
X159351254Y-113059028D01*
X159073063Y-112669561D02*
X159073063Y-113671047D01*
X159128701Y-113782323D01*
X159239978Y-113837961D01*
X159351254Y-113837961D01*
X160630930Y-113837961D02*
X160630930Y-112669561D01*
X161020397Y-113504133D01*
X161409863Y-112669561D01*
X161409863Y-113837961D01*
X162133159Y-113837961D02*
X162021882Y-113782323D01*
X161966244Y-113726685D01*
X161910606Y-113615409D01*
X161910606Y-113281580D01*
X161966244Y-113170304D01*
X162021882Y-113114666D01*
X162133159Y-113059028D01*
X162300073Y-113059028D01*
X162411349Y-113114666D01*
X162466987Y-113170304D01*
X162522625Y-113281580D01*
X162522625Y-113615409D01*
X162466987Y-113726685D01*
X162411349Y-113782323D01*
X162300073Y-113837961D01*
X162133159Y-113837961D01*
X163524111Y-113837961D02*
X163524111Y-112669561D01*
X163524111Y-113782323D02*
X163412835Y-113837961D01*
X163190282Y-113837961D01*
X163079006Y-113782323D01*
X163023368Y-113726685D01*
X162967730Y-113615409D01*
X162967730Y-113281580D01*
X163023368Y-113170304D01*
X163079006Y-113114666D01*
X163190282Y-113059028D01*
X163412835Y-113059028D01*
X163524111Y-113114666D01*
X164581235Y-113059028D02*
X164581235Y-113837961D01*
X164080492Y-113059028D02*
X164080492Y-113671047D01*
X164136130Y-113782323D01*
X164247406Y-113837961D01*
X164414320Y-113837961D01*
X164525597Y-113782323D01*
X164581235Y-113726685D01*
X165304530Y-113837961D02*
X165193254Y-113782323D01*
X165137616Y-113671047D01*
X165137616Y-112669561D01*
X166194739Y-113782323D02*
X166083463Y-113837961D01*
X165860911Y-113837961D01*
X165749635Y-113782323D01*
X165693997Y-113671047D01*
X165693997Y-113225942D01*
X165749635Y-113114666D01*
X165860911Y-113059028D01*
X166083463Y-113059028D01*
X166194739Y-113114666D01*
X166250378Y-113225942D01*
X166250378Y-113337219D01*
X165693997Y-113448495D01*
D10*
X173790791Y-131695371D02*
X176461420Y-131695371D01*
D12*
X130873645Y-110646754D02*
X131808365Y-110646754D01*
X130873645Y-112048834D01*
X131808365Y-112048834D01*
X132342490Y-111314411D02*
X132809850Y-111314411D01*
X133010148Y-112048834D02*
X132342490Y-112048834D01*
X132342490Y-110646754D01*
X133010148Y-110646754D01*
X133410742Y-110646754D02*
X133878102Y-112048834D01*
X134345462Y-110646754D01*
X134746056Y-111648240D02*
X135413713Y-111648240D01*
X134612525Y-112048834D02*
X135079885Y-110646754D01*
X135547245Y-112048834D01*
X137550216Y-111314411D02*
X137750513Y-111381177D01*
X137817279Y-111447942D01*
X137884045Y-111581474D01*
X137884045Y-111781771D01*
X137817279Y-111915302D01*
X137750513Y-111982068D01*
X137616982Y-112048834D01*
X137082856Y-112048834D01*
X137082856Y-110646754D01*
X137550216Y-110646754D01*
X137683748Y-110713520D01*
X137750513Y-110780285D01*
X137817279Y-110913817D01*
X137817279Y-111047348D01*
X137750513Y-111180880D01*
X137683748Y-111247645D01*
X137550216Y-111314411D01*
X137082856Y-111314411D01*
X138484936Y-112048834D02*
X138484936Y-110646754D01*
X138952296Y-111648240D01*
X139419656Y-110646754D01*
X139419656Y-112048834D01*
X140020548Y-111982068D02*
X140220845Y-112048834D01*
X140554673Y-112048834D01*
X140688205Y-111982068D01*
X140754970Y-111915302D01*
X140821736Y-111781771D01*
X140821736Y-111648240D01*
X140754970Y-111514708D01*
X140688205Y-111447942D01*
X140554673Y-111381177D01*
X140287610Y-111314411D01*
X140154079Y-111247645D01*
X140087313Y-111180880D01*
X140020548Y-111047348D01*
X140020548Y-110913817D01*
X140087313Y-110780285D01*
X140154079Y-110713520D01*
X140287610Y-110646754D01*
X140621439Y-110646754D01*
X140821736Y-110713520D01*
X142157050Y-112048834D02*
X141355862Y-112048834D01*
X141756456Y-112048834D02*
X141756456Y-110646754D01*
X141622925Y-110847051D01*
X141489393Y-110980582D01*
X141355862Y-111047348D01*
X142691176Y-110780285D02*
X142757942Y-110713520D01*
X142891473Y-110646754D01*
X143225302Y-110646754D01*
X143358833Y-110713520D01*
X143425599Y-110780285D01*
X143492365Y-110913817D01*
X143492365Y-111047348D01*
X143425599Y-111247645D01*
X142624410Y-112048834D01*
X143492365Y-112048834D01*
X145027976Y-111114114D02*
X145361805Y-112048834D01*
X145695633Y-111114114D01*
X146096228Y-110646754D02*
X146964182Y-110646754D01*
X146496822Y-111180880D01*
X146697119Y-111180880D01*
X146830650Y-111247645D01*
X146897416Y-111314411D01*
X146964182Y-111447942D01*
X146964182Y-111781771D01*
X146897416Y-111915302D01*
X146830650Y-111982068D01*
X146697119Y-112048834D01*
X146296525Y-112048834D01*
X146162993Y-111982068D01*
X146096228Y-111915302D01*
X147565073Y-111915302D02*
X147631839Y-111982068D01*
X147565073Y-112048834D01*
X147498308Y-111982068D01*
X147565073Y-111915302D01*
X147565073Y-112048834D01*
X148967153Y-112048834D02*
X148165965Y-112048834D01*
X148566559Y-112048834D02*
X148566559Y-110646754D01*
X148433028Y-110847051D01*
X148299496Y-110980582D01*
X148165965Y-111047348D01*
X151036890Y-112582960D02*
X150970125Y-112516194D01*
X150836593Y-112315897D01*
X150769828Y-112182365D01*
X150703062Y-111982068D01*
X150636296Y-111648240D01*
X150636296Y-111381177D01*
X150703062Y-111047348D01*
X150769828Y-110847051D01*
X150836593Y-110713520D01*
X150970125Y-110513222D01*
X151036890Y-110446457D01*
X151838079Y-110646754D02*
X152105142Y-110646754D01*
X152238673Y-110713520D01*
X152372205Y-110847051D01*
X152438970Y-111114114D01*
X152438970Y-111581474D01*
X152372205Y-111848537D01*
X152238673Y-111982068D01*
X152105142Y-112048834D01*
X151838079Y-112048834D01*
X151704548Y-111982068D01*
X151571016Y-111848537D01*
X151504250Y-111581474D01*
X151504250Y-111114114D01*
X151571016Y-110847051D01*
X151704548Y-110713520D01*
X151838079Y-110646754D01*
X152973096Y-111982068D02*
X153173393Y-112048834D01*
X153507222Y-112048834D01*
X153640753Y-111982068D01*
X153707519Y-111915302D01*
X153774285Y-111781771D01*
X153774285Y-111648240D01*
X153707519Y-111514708D01*
X153640753Y-111447942D01*
X153507222Y-111381177D01*
X153240159Y-111314411D01*
X153106628Y-111247645D01*
X153039862Y-111180880D01*
X152973096Y-111047348D01*
X152973096Y-110913817D01*
X153039862Y-110780285D01*
X153106628Y-110713520D01*
X153240159Y-110646754D01*
X153573988Y-110646754D01*
X153774285Y-110713520D01*
X155443428Y-111314411D02*
X155910788Y-111314411D01*
X156111085Y-112048834D02*
X155443428Y-112048834D01*
X155443428Y-110646754D01*
X156111085Y-110646754D01*
X157312868Y-112048834D02*
X157312868Y-110646754D01*
X157312868Y-111982068D02*
X157179336Y-112048834D01*
X156912273Y-112048834D01*
X156778742Y-111982068D01*
X156711976Y-111915302D01*
X156645210Y-111781771D01*
X156645210Y-111381177D01*
X156711976Y-111247645D01*
X156778742Y-111180880D01*
X156912273Y-111114114D01*
X157179336Y-111114114D01*
X157312868Y-111180880D01*
X157980525Y-112048834D02*
X157980525Y-111114114D01*
X157980525Y-110646754D02*
X157913759Y-110713520D01*
X157980525Y-110780285D01*
X158047290Y-110713520D01*
X157980525Y-110646754D01*
X157980525Y-110780285D01*
X158447885Y-111114114D02*
X158982010Y-111114114D01*
X158648182Y-110646754D02*
X158648182Y-111848537D01*
X158714948Y-111982068D01*
X158848479Y-112048834D01*
X158982010Y-112048834D01*
X159449370Y-112048834D02*
X159449370Y-111114114D01*
X159449370Y-110646754D02*
X159382605Y-110713520D01*
X159449370Y-110780285D01*
X159516136Y-110713520D01*
X159449370Y-110646754D01*
X159449370Y-110780285D01*
X160317325Y-112048834D02*
X160183793Y-111982068D01*
X160117028Y-111915302D01*
X160050262Y-111781771D01*
X160050262Y-111381177D01*
X160117028Y-111247645D01*
X160183793Y-111180880D01*
X160317325Y-111114114D01*
X160517622Y-111114114D01*
X160651153Y-111180880D01*
X160717919Y-111247645D01*
X160784685Y-111381177D01*
X160784685Y-111781771D01*
X160717919Y-111915302D01*
X160651153Y-111982068D01*
X160517622Y-112048834D01*
X160317325Y-112048834D01*
X161385576Y-111114114D02*
X161385576Y-112048834D01*
X161385576Y-111247645D02*
X161452342Y-111180880D01*
X161585873Y-111114114D01*
X161786170Y-111114114D01*
X161919702Y-111180880D01*
X161986468Y-111314411D01*
X161986468Y-112048834D01*
X162520593Y-112582960D02*
X162587359Y-112516194D01*
X162720890Y-112315897D01*
X162787656Y-112182365D01*
X162854422Y-111982068D01*
X162921188Y-111648240D01*
X162921188Y-111381177D01*
X162854422Y-111047348D01*
X162787656Y-110847051D01*
X162720890Y-110713520D01*
X162587359Y-110513222D01*
X162520593Y-110446457D01*
D13*
X142789099Y-92130880D02*
X142700078Y-92086369D01*
X142566547Y-92086369D01*
X142433015Y-92130880D01*
X142343994Y-92219900D01*
X142299484Y-92308921D01*
X142254973Y-92486963D01*
X142254973Y-92620495D01*
X142299484Y-92798537D01*
X142343994Y-92887558D01*
X142433015Y-92976579D01*
X142566547Y-93021089D01*
X142655568Y-93021089D01*
X142789099Y-92976579D01*
X142833610Y-92932068D01*
X142833610Y-92620495D01*
X142655568Y-92620495D01*
X143234204Y-93021089D02*
X143234204Y-92086369D01*
X143768330Y-93021089D01*
X143768330Y-92086369D01*
X144213434Y-93021089D02*
X144213434Y-92086369D01*
X144435987Y-92086369D01*
X144569518Y-92130880D01*
X144658539Y-92219900D01*
X144703050Y-92308921D01*
X144747560Y-92486963D01*
X144747560Y-92620495D01*
X144703050Y-92798537D01*
X144658539Y-92887558D01*
X144569518Y-92976579D01*
X144435987Y-93021089D01*
X144213434Y-93021089D01*
D11*
X159965692Y-81524323D02*
X160132606Y-81579961D01*
X160410797Y-81579961D01*
X160522073Y-81524323D01*
X160577711Y-81468685D01*
X160633349Y-81357409D01*
X160633349Y-81246133D01*
X160577711Y-81134857D01*
X160522073Y-81079219D01*
X160410797Y-81023580D01*
X160188244Y-80967942D01*
X160076968Y-80912304D01*
X160021330Y-80856666D01*
X159965692Y-80745390D01*
X159965692Y-80634114D01*
X160021330Y-80522838D01*
X160076968Y-80467200D01*
X160188244Y-80411561D01*
X160466435Y-80411561D01*
X160633349Y-80467200D01*
X160967178Y-80411561D02*
X161634835Y-80411561D01*
X161301006Y-81579961D02*
X161301006Y-80411561D01*
X161968663Y-81246133D02*
X162525044Y-81246133D01*
X161857387Y-81579961D02*
X162246854Y-80411561D01*
X162636320Y-81579961D01*
X162858873Y-80411561D02*
X163526530Y-80411561D01*
X163192701Y-81579961D02*
X163192701Y-80411561D01*
X163915997Y-80411561D02*
X163915997Y-81357409D01*
X163971635Y-81468685D01*
X164027273Y-81524323D01*
X164138549Y-81579961D01*
X164361101Y-81579961D01*
X164472378Y-81524323D01*
X164528016Y-81468685D01*
X164583654Y-81357409D01*
X164583654Y-80411561D01*
X165084397Y-81524323D02*
X165251311Y-81579961D01*
X165529501Y-81579961D01*
X165640778Y-81524323D01*
X165696416Y-81468685D01*
X165752054Y-81357409D01*
X165752054Y-81246133D01*
X165696416Y-81134857D01*
X165640778Y-81079219D01*
X165529501Y-81023580D01*
X165306949Y-80967942D01*
X165195673Y-80912304D01*
X165140035Y-80856666D01*
X165084397Y-80745390D01*
X165084397Y-80634114D01*
X165140035Y-80522838D01*
X165195673Y-80467200D01*
X165306949Y-80411561D01*
X165585140Y-80411561D01*
X165752054Y-80467200D01*
X130811330Y-79801961D02*
X130811330Y-78633561D01*
X131200797Y-79468133D01*
X131590263Y-78633561D01*
X131590263Y-79801961D01*
X132369197Y-78633561D02*
X132591749Y-78633561D01*
X132703025Y-78689200D01*
X132814301Y-78800476D01*
X132869940Y-79023028D01*
X132869940Y-79412495D01*
X132814301Y-79635047D01*
X132703025Y-79746323D01*
X132591749Y-79801961D01*
X132369197Y-79801961D01*
X132257920Y-79746323D01*
X132146644Y-79635047D01*
X132091006Y-79412495D01*
X132091006Y-79023028D01*
X132146644Y-78800476D01*
X132257920Y-78689200D01*
X132369197Y-78633561D01*
X133370682Y-79801961D02*
X133370682Y-78633561D01*
X133648873Y-78633561D01*
X133815787Y-78689200D01*
X133927063Y-78800476D01*
X133982701Y-78911752D01*
X134038340Y-79134304D01*
X134038340Y-79301219D01*
X133982701Y-79523771D01*
X133927063Y-79635047D01*
X133815787Y-79746323D01*
X133648873Y-79801961D01*
X133370682Y-79801961D01*
X134539082Y-78633561D02*
X134539082Y-79579409D01*
X134594720Y-79690685D01*
X134650359Y-79746323D01*
X134761635Y-79801961D01*
X134984187Y-79801961D01*
X135095463Y-79746323D01*
X135151101Y-79690685D01*
X135206740Y-79579409D01*
X135206740Y-78633561D01*
X136319501Y-79801961D02*
X135763120Y-79801961D01*
X135763120Y-78633561D01*
X136708968Y-79189942D02*
X137098435Y-79189942D01*
X137265349Y-79801961D02*
X136708968Y-79801961D01*
X136708968Y-78633561D01*
X137265349Y-78633561D01*
X138656301Y-79801961D02*
X138656301Y-78633561D01*
X139212682Y-79801961D02*
X139212682Y-78633561D01*
X139490873Y-78633561D01*
X139657787Y-78689200D01*
X139769063Y-78800476D01*
X139824701Y-78911752D01*
X139880340Y-79134304D01*
X139880340Y-79301219D01*
X139824701Y-79523771D01*
X139769063Y-79635047D01*
X139657787Y-79746323D01*
X139490873Y-79801961D01*
X139212682Y-79801961D01*
D14*
%TO.C,R5*%
X135444338Y-115801415D02*
X134884087Y-116193591D01*
X135444338Y-116473717D02*
X134267810Y-116473717D01*
X134267810Y-116025516D01*
X134323836Y-115913466D01*
X134379861Y-115857440D01*
X134491911Y-115801415D01*
X134659986Y-115801415D01*
X134772037Y-115857440D01*
X134828062Y-115913466D01*
X134884087Y-116025516D01*
X134884087Y-116473717D01*
X134267810Y-114736938D02*
X134267810Y-115297189D01*
X134828062Y-115353214D01*
X134772037Y-115297189D01*
X134716012Y-115185139D01*
X134716012Y-114905013D01*
X134772037Y-114792963D01*
X134828062Y-114736938D01*
X134940112Y-114680912D01*
X135220238Y-114680912D01*
X135332288Y-114736938D01*
X135388313Y-114792963D01*
X135444338Y-114905013D01*
X135444338Y-115185139D01*
X135388313Y-115297189D01*
X135332288Y-115353214D01*
%TO.C,U$11*%
X152047810Y-122205292D02*
X153000238Y-122205292D01*
X153112288Y-122149267D01*
X153168313Y-122093242D01*
X153224338Y-121981192D01*
X153224338Y-121757091D01*
X153168313Y-121645041D01*
X153112288Y-121589016D01*
X153000238Y-121532991D01*
X152047810Y-121532991D01*
X153168313Y-121028764D02*
X153224338Y-120860689D01*
X153224338Y-120580563D01*
X153168313Y-120468513D01*
X153112288Y-120412488D01*
X153000238Y-120356463D01*
X152888188Y-120356463D01*
X152776137Y-120412488D01*
X152720112Y-120468513D01*
X152664087Y-120580563D01*
X152608062Y-120804664D01*
X152552037Y-120916714D01*
X152496012Y-120972739D01*
X152383961Y-121028764D01*
X152271911Y-121028764D01*
X152159861Y-120972739D01*
X152103836Y-120916714D01*
X152047810Y-120804664D01*
X152047810Y-120524538D01*
X152103836Y-120356463D01*
X151879735Y-120692613D02*
X153392414Y-120692613D01*
X153224338Y-119235960D02*
X153224338Y-119908261D01*
X153224338Y-119572111D02*
X152047810Y-119572111D01*
X152215886Y-119684161D01*
X152327936Y-119796211D01*
X152383961Y-119908261D01*
X153224338Y-118115457D02*
X153224338Y-118787759D01*
X153224338Y-118451608D02*
X152047810Y-118451608D01*
X152215886Y-118563658D01*
X152327936Y-118675708D01*
X152383961Y-118787759D01*
%TO.C,R9*%
X144588338Y-115801415D02*
X144028087Y-116193591D01*
X144588338Y-116473717D02*
X143411810Y-116473717D01*
X143411810Y-116025516D01*
X143467836Y-115913466D01*
X143523861Y-115857440D01*
X143635911Y-115801415D01*
X143803986Y-115801415D01*
X143916037Y-115857440D01*
X143972062Y-115913466D01*
X144028087Y-116025516D01*
X144028087Y-116473717D01*
X144588338Y-115241164D02*
X144588338Y-115017063D01*
X144532313Y-114905013D01*
X144476288Y-114848988D01*
X144308213Y-114736938D01*
X144084112Y-114680912D01*
X143635911Y-114680912D01*
X143523861Y-114736938D01*
X143467836Y-114792963D01*
X143411810Y-114905013D01*
X143411810Y-115129114D01*
X143467836Y-115241164D01*
X143523861Y-115297189D01*
X143635911Y-115353214D01*
X143916037Y-115353214D01*
X144028087Y-115297189D01*
X144084112Y-115241164D01*
X144140137Y-115129114D01*
X144140137Y-114905013D01*
X144084112Y-114792963D01*
X144028087Y-114736938D01*
X143916037Y-114680912D01*
%TO.C,R35*%
X153986338Y-127231415D02*
X153426087Y-127623591D01*
X153986338Y-127903717D02*
X152809810Y-127903717D01*
X152809810Y-127455516D01*
X152865836Y-127343466D01*
X152921861Y-127287440D01*
X153033911Y-127231415D01*
X153201986Y-127231415D01*
X153314037Y-127287440D01*
X153370062Y-127343466D01*
X153426087Y-127455516D01*
X153426087Y-127903717D01*
X152809810Y-126839239D02*
X152809810Y-126110912D01*
X153258012Y-126503088D01*
X153258012Y-126335013D01*
X153314037Y-126222963D01*
X153370062Y-126166938D01*
X153482112Y-126110912D01*
X153762238Y-126110912D01*
X153874288Y-126166938D01*
X153930313Y-126222963D01*
X153986338Y-126335013D01*
X153986338Y-126671164D01*
X153930313Y-126783214D01*
X153874288Y-126839239D01*
X152809810Y-125046435D02*
X152809810Y-125606686D01*
X153370062Y-125662711D01*
X153314037Y-125606686D01*
X153258012Y-125494636D01*
X153258012Y-125214510D01*
X153314037Y-125102460D01*
X153370062Y-125046435D01*
X153482112Y-124990410D01*
X153762238Y-124990410D01*
X153874288Y-125046435D01*
X153930313Y-125102460D01*
X153986338Y-125214510D01*
X153986338Y-125494636D01*
X153930313Y-125606686D01*
X153874288Y-125662711D01*
%TO.C,R14*%
X156880284Y-86739838D02*
X156488108Y-86179587D01*
X156207982Y-86739838D02*
X156207982Y-85563310D01*
X156656183Y-85563310D01*
X156768233Y-85619336D01*
X156824259Y-85675361D01*
X156880284Y-85787411D01*
X156880284Y-85955486D01*
X156824259Y-86067537D01*
X156768233Y-86123562D01*
X156656183Y-86179587D01*
X156207982Y-86179587D01*
X158000787Y-86739838D02*
X157328485Y-86739838D01*
X157664636Y-86739838D02*
X157664636Y-85563310D01*
X157552585Y-85731386D01*
X157440535Y-85843436D01*
X157328485Y-85899461D01*
X159009239Y-85955486D02*
X159009239Y-86739838D01*
X158729113Y-85507285D02*
X158448988Y-86347662D01*
X159177315Y-86347662D01*
D15*
%TO.C,PROG1*%
X142424361Y-93537616D02*
X142424361Y-92381916D01*
X142864628Y-92381916D01*
X142974695Y-92436950D01*
X143029728Y-92491983D01*
X143084761Y-92602050D01*
X143084761Y-92767150D01*
X143029728Y-92877216D01*
X142974695Y-92932250D01*
X142864628Y-92987283D01*
X142424361Y-92987283D01*
X144240461Y-93537616D02*
X143855228Y-92987283D01*
X143580061Y-93537616D02*
X143580061Y-92381916D01*
X144020328Y-92381916D01*
X144130395Y-92436950D01*
X144185428Y-92491983D01*
X144240461Y-92602050D01*
X144240461Y-92767150D01*
X144185428Y-92877216D01*
X144130395Y-92932250D01*
X144020328Y-92987283D01*
X143580061Y-92987283D01*
X144955895Y-92381916D02*
X145176028Y-92381916D01*
X145286095Y-92436950D01*
X145396161Y-92547016D01*
X145451195Y-92767150D01*
X145451195Y-93152383D01*
X145396161Y-93372516D01*
X145286095Y-93482583D01*
X145176028Y-93537616D01*
X144955895Y-93537616D01*
X144845828Y-93482583D01*
X144735761Y-93372516D01*
X144680728Y-93152383D01*
X144680728Y-92767150D01*
X144735761Y-92547016D01*
X144845828Y-92436950D01*
X144955895Y-92381916D01*
X146551861Y-92436950D02*
X146441795Y-92381916D01*
X146276695Y-92381916D01*
X146111595Y-92436950D01*
X146001528Y-92547016D01*
X145946495Y-92657083D01*
X145891461Y-92877216D01*
X145891461Y-93042316D01*
X145946495Y-93262450D01*
X146001528Y-93372516D01*
X146111595Y-93482583D01*
X146276695Y-93537616D01*
X146386761Y-93537616D01*
X146551861Y-93482583D01*
X146606895Y-93427550D01*
X146606895Y-93042316D01*
X146386761Y-93042316D01*
X147707561Y-93537616D02*
X147047161Y-93537616D01*
X147377361Y-93537616D02*
X147377361Y-92381916D01*
X147267295Y-92547016D01*
X147157228Y-92657083D01*
X147047161Y-92712116D01*
D16*
%TO.C,@HOLE0*%
D15*
%TO.C,LD1*%
X164771916Y-91950328D02*
X164771916Y-92500661D01*
X163616216Y-92500661D01*
X164771916Y-91565095D02*
X163616216Y-91565095D01*
X163616216Y-91289928D01*
X163671250Y-91124828D01*
X163781316Y-91014761D01*
X163891383Y-90959728D01*
X164111516Y-90904695D01*
X164276616Y-90904695D01*
X164496750Y-90959728D01*
X164606816Y-91014761D01*
X164716883Y-91124828D01*
X164771916Y-91289928D01*
X164771916Y-91565095D01*
X164771916Y-89804028D02*
X164771916Y-90464428D01*
X164771916Y-90134228D02*
X163616216Y-90134228D01*
X163781316Y-90244295D01*
X163891383Y-90354361D01*
X163946416Y-90464428D01*
D14*
%TO.C,IC2*%
X159082982Y-90126838D02*
X159082982Y-88950310D01*
X160315535Y-90014788D02*
X160259510Y-90070813D01*
X160091435Y-90126838D01*
X159979384Y-90126838D01*
X159811309Y-90070813D01*
X159699259Y-89958763D01*
X159643233Y-89846713D01*
X159587208Y-89622612D01*
X159587208Y-89454537D01*
X159643233Y-89230436D01*
X159699259Y-89118386D01*
X159811309Y-89006336D01*
X159979384Y-88950310D01*
X160091435Y-88950310D01*
X160259510Y-89006336D01*
X160315535Y-89062361D01*
X160763736Y-89062361D02*
X160819761Y-89006336D01*
X160931812Y-88950310D01*
X161211937Y-88950310D01*
X161323988Y-89006336D01*
X161380013Y-89062361D01*
X161436038Y-89174411D01*
X161436038Y-89286461D01*
X161380013Y-89454537D01*
X160707711Y-90126838D01*
X161436038Y-90126838D01*
%TO.C,R4*%
X130872338Y-115801415D02*
X130312087Y-116193591D01*
X130872338Y-116473717D02*
X129695810Y-116473717D01*
X129695810Y-116025516D01*
X129751836Y-115913466D01*
X129807861Y-115857440D01*
X129919911Y-115801415D01*
X130087986Y-115801415D01*
X130200037Y-115857440D01*
X130256062Y-115913466D01*
X130312087Y-116025516D01*
X130312087Y-116473717D01*
X130087986Y-114792963D02*
X130872338Y-114792963D01*
X129639785Y-115073088D02*
X130480162Y-115353214D01*
X130480162Y-114624887D01*
%TO.C,C14*%
X157134284Y-103137788D02*
X157078259Y-103193813D01*
X156910183Y-103249838D01*
X156798133Y-103249838D01*
X156630057Y-103193813D01*
X156518007Y-103081763D01*
X156461982Y-102969713D01*
X156405957Y-102745612D01*
X156405957Y-102577537D01*
X156461982Y-102353436D01*
X156518007Y-102241386D01*
X156630057Y-102129336D01*
X156798133Y-102073310D01*
X156910183Y-102073310D01*
X157078259Y-102129336D01*
X157134284Y-102185361D01*
X158254787Y-103249838D02*
X157582485Y-103249838D01*
X157918636Y-103249838D02*
X157918636Y-102073310D01*
X157806585Y-102241386D01*
X157694535Y-102353436D01*
X157582485Y-102409461D01*
X159263239Y-102465486D02*
X159263239Y-103249838D01*
X158983113Y-102017285D02*
X158702988Y-102857662D01*
X159431315Y-102857662D01*
%TO.C,R41*%
X129973236Y-108837838D02*
X129581060Y-108277587D01*
X129300935Y-108837838D02*
X129300935Y-107661310D01*
X129749136Y-107661310D01*
X129861186Y-107717336D01*
X129917211Y-107773361D01*
X129973236Y-107885411D01*
X129973236Y-108053486D01*
X129917211Y-108165537D01*
X129861186Y-108221562D01*
X129749136Y-108277587D01*
X129300935Y-108277587D01*
X130981689Y-108053486D02*
X130981689Y-108837838D01*
X130701563Y-107605285D02*
X130421438Y-108445662D01*
X131149764Y-108445662D01*
X132214242Y-108837838D02*
X131541940Y-108837838D01*
X131878091Y-108837838D02*
X131878091Y-107661310D01*
X131766041Y-107829386D01*
X131653991Y-107941436D01*
X131541940Y-107997461D01*
%TO.C,U$13*%
X161191810Y-122205292D02*
X162144238Y-122205292D01*
X162256288Y-122149267D01*
X162312313Y-122093242D01*
X162368338Y-121981192D01*
X162368338Y-121757091D01*
X162312313Y-121645041D01*
X162256288Y-121589016D01*
X162144238Y-121532991D01*
X161191810Y-121532991D01*
X162312313Y-121028764D02*
X162368338Y-120860689D01*
X162368338Y-120580563D01*
X162312313Y-120468513D01*
X162256288Y-120412488D01*
X162144238Y-120356463D01*
X162032188Y-120356463D01*
X161920137Y-120412488D01*
X161864112Y-120468513D01*
X161808087Y-120580563D01*
X161752062Y-120804664D01*
X161696037Y-120916714D01*
X161640012Y-120972739D01*
X161527961Y-121028764D01*
X161415911Y-121028764D01*
X161303861Y-120972739D01*
X161247836Y-120916714D01*
X161191810Y-120804664D01*
X161191810Y-120524538D01*
X161247836Y-120356463D01*
X161023735Y-120692613D02*
X162536414Y-120692613D01*
X162368338Y-119235960D02*
X162368338Y-119908261D01*
X162368338Y-119572111D02*
X161191810Y-119572111D01*
X161359886Y-119684161D01*
X161471936Y-119796211D01*
X161527961Y-119908261D01*
X161191810Y-118843784D02*
X161191810Y-118115457D01*
X161640012Y-118507633D01*
X161640012Y-118339557D01*
X161696037Y-118227507D01*
X161752062Y-118171482D01*
X161864112Y-118115457D01*
X162144238Y-118115457D01*
X162256288Y-118171482D01*
X162312313Y-118227507D01*
X162368338Y-118339557D01*
X162368338Y-118675708D01*
X162312313Y-118787759D01*
X162256288Y-118843784D01*
%TO.C,R31*%
X135698338Y-127231415D02*
X135138087Y-127623591D01*
X135698338Y-127903717D02*
X134521810Y-127903717D01*
X134521810Y-127455516D01*
X134577836Y-127343466D01*
X134633861Y-127287440D01*
X134745911Y-127231415D01*
X134913986Y-127231415D01*
X135026037Y-127287440D01*
X135082062Y-127343466D01*
X135138087Y-127455516D01*
X135138087Y-127903717D01*
X134521810Y-126839239D02*
X134521810Y-126110912D01*
X134970012Y-126503088D01*
X134970012Y-126335013D01*
X135026037Y-126222963D01*
X135082062Y-126166938D01*
X135194112Y-126110912D01*
X135474238Y-126110912D01*
X135586288Y-126166938D01*
X135642313Y-126222963D01*
X135698338Y-126335013D01*
X135698338Y-126671164D01*
X135642313Y-126783214D01*
X135586288Y-126839239D01*
X135698338Y-124990410D02*
X135698338Y-125662711D01*
X135698338Y-125326560D02*
X134521810Y-125326560D01*
X134689886Y-125438611D01*
X134801936Y-125550661D01*
X134857961Y-125662711D01*
%TO.C,R24*%
X165162338Y-115801415D02*
X164602087Y-116193591D01*
X165162338Y-116473717D02*
X163985810Y-116473717D01*
X163985810Y-116025516D01*
X164041836Y-115913466D01*
X164097861Y-115857440D01*
X164209911Y-115801415D01*
X164377986Y-115801415D01*
X164490037Y-115857440D01*
X164546062Y-115913466D01*
X164602087Y-116025516D01*
X164602087Y-116473717D01*
X164097861Y-115353214D02*
X164041836Y-115297189D01*
X163985810Y-115185139D01*
X163985810Y-114905013D01*
X164041836Y-114792963D01*
X164097861Y-114736938D01*
X164209911Y-114680912D01*
X164321961Y-114680912D01*
X164490037Y-114736938D01*
X165162338Y-115409239D01*
X165162338Y-114680912D01*
X164377986Y-113672460D02*
X165162338Y-113672460D01*
X163929785Y-113952586D02*
X164770162Y-114232711D01*
X164770162Y-113504384D01*
%TO.C,R30*%
X131126338Y-127231415D02*
X130566087Y-127623591D01*
X131126338Y-127903717D02*
X129949810Y-127903717D01*
X129949810Y-127455516D01*
X130005836Y-127343466D01*
X130061861Y-127287440D01*
X130173911Y-127231415D01*
X130341986Y-127231415D01*
X130454037Y-127287440D01*
X130510062Y-127343466D01*
X130566087Y-127455516D01*
X130566087Y-127903717D01*
X129949810Y-126839239D02*
X129949810Y-126110912D01*
X130398012Y-126503088D01*
X130398012Y-126335013D01*
X130454037Y-126222963D01*
X130510062Y-126166938D01*
X130622112Y-126110912D01*
X130902238Y-126110912D01*
X131014288Y-126166938D01*
X131070313Y-126222963D01*
X131126338Y-126335013D01*
X131126338Y-126671164D01*
X131070313Y-126783214D01*
X131014288Y-126839239D01*
X129949810Y-125382586D02*
X129949810Y-125270535D01*
X130005836Y-125158485D01*
X130061861Y-125102460D01*
X130173911Y-125046435D01*
X130398012Y-124990410D01*
X130678137Y-124990410D01*
X130902238Y-125046435D01*
X131014288Y-125102460D01*
X131070313Y-125158485D01*
X131126338Y-125270535D01*
X131126338Y-125382586D01*
X131070313Y-125494636D01*
X131014288Y-125550661D01*
X130902238Y-125606686D01*
X130678137Y-125662711D01*
X130398012Y-125662711D01*
X130173911Y-125606686D01*
X130061861Y-125550661D01*
X130005836Y-125494636D01*
X129949810Y-125382586D01*
%TO.C,U$9*%
X142903810Y-121084789D02*
X143856238Y-121084789D01*
X143968288Y-121028764D01*
X144024313Y-120972739D01*
X144080338Y-120860689D01*
X144080338Y-120636588D01*
X144024313Y-120524538D01*
X143968288Y-120468513D01*
X143856238Y-120412488D01*
X142903810Y-120412488D01*
X144024313Y-119908261D02*
X144080338Y-119740186D01*
X144080338Y-119460060D01*
X144024313Y-119348010D01*
X143968288Y-119291985D01*
X143856238Y-119235960D01*
X143744188Y-119235960D01*
X143632137Y-119291985D01*
X143576112Y-119348010D01*
X143520087Y-119460060D01*
X143464062Y-119684161D01*
X143408037Y-119796211D01*
X143352012Y-119852236D01*
X143239961Y-119908261D01*
X143127911Y-119908261D01*
X143015861Y-119852236D01*
X142959836Y-119796211D01*
X142903810Y-119684161D01*
X142903810Y-119404035D01*
X142959836Y-119235960D01*
X142735735Y-119572111D02*
X144248414Y-119572111D01*
X144080338Y-118675708D02*
X144080338Y-118451608D01*
X144024313Y-118339557D01*
X143968288Y-118283532D01*
X143800213Y-118171482D01*
X143576112Y-118115457D01*
X143127911Y-118115457D01*
X143015861Y-118171482D01*
X142959836Y-118227507D01*
X142903810Y-118339557D01*
X142903810Y-118563658D01*
X142959836Y-118675708D01*
X143015861Y-118731733D01*
X143127911Y-118787759D01*
X143408037Y-118787759D01*
X143520087Y-118731733D01*
X143576112Y-118675708D01*
X143632137Y-118563658D01*
X143632137Y-118339557D01*
X143576112Y-118227507D01*
X143520087Y-118171482D01*
X143408037Y-118115457D01*
%TO.C,R40*%
X163247236Y-105535838D02*
X162855060Y-104975587D01*
X162574935Y-105535838D02*
X162574935Y-104359310D01*
X163023136Y-104359310D01*
X163135186Y-104415336D01*
X163191211Y-104471361D01*
X163247236Y-104583411D01*
X163247236Y-104751486D01*
X163191211Y-104863537D01*
X163135186Y-104919562D01*
X163023136Y-104975587D01*
X162574935Y-104975587D01*
X164255689Y-104751486D02*
X164255689Y-105535838D01*
X163975563Y-104303285D02*
X163695438Y-105143662D01*
X164423764Y-105143662D01*
X165096066Y-104359310D02*
X165208116Y-104359310D01*
X165320167Y-104415336D01*
X165376192Y-104471361D01*
X165432217Y-104583411D01*
X165488242Y-104807512D01*
X165488242Y-105087637D01*
X165432217Y-105311738D01*
X165376192Y-105423788D01*
X165320167Y-105479813D01*
X165208116Y-105535838D01*
X165096066Y-105535838D01*
X164984016Y-105479813D01*
X164927991Y-105423788D01*
X164871966Y-105311738D01*
X164815940Y-105087637D01*
X164815940Y-104807512D01*
X164871966Y-104583411D01*
X164927991Y-104471361D01*
X164984016Y-104415336D01*
X165096066Y-104359310D01*
%TO.C,R15*%
X135544284Y-106805838D02*
X135152108Y-106245587D01*
X134871982Y-106805838D02*
X134871982Y-105629310D01*
X135320183Y-105629310D01*
X135432233Y-105685336D01*
X135488259Y-105741361D01*
X135544284Y-105853411D01*
X135544284Y-106021486D01*
X135488259Y-106133537D01*
X135432233Y-106189562D01*
X135320183Y-106245587D01*
X134871982Y-106245587D01*
X136664787Y-106805838D02*
X135992485Y-106805838D01*
X136328636Y-106805838D02*
X136328636Y-105629310D01*
X136216585Y-105797386D01*
X136104535Y-105909436D01*
X135992485Y-105965461D01*
X137729264Y-105629310D02*
X137169013Y-105629310D01*
X137112988Y-106189562D01*
X137169013Y-106133537D01*
X137281063Y-106077512D01*
X137561189Y-106077512D01*
X137673239Y-106133537D01*
X137729264Y-106189562D01*
X137785289Y-106301612D01*
X137785289Y-106581738D01*
X137729264Y-106693788D01*
X137673239Y-106749813D01*
X137561189Y-106805838D01*
X137281063Y-106805838D01*
X137169013Y-106749813D01*
X137112988Y-106693788D01*
%TO.C,U$17*%
X174907810Y-122205292D02*
X175860238Y-122205292D01*
X175972288Y-122149267D01*
X176028313Y-122093242D01*
X176084338Y-121981192D01*
X176084338Y-121757091D01*
X176028313Y-121645041D01*
X175972288Y-121589016D01*
X175860238Y-121532991D01*
X174907810Y-121532991D01*
X176028313Y-121028764D02*
X176084338Y-120860689D01*
X176084338Y-120580563D01*
X176028313Y-120468513D01*
X175972288Y-120412488D01*
X175860238Y-120356463D01*
X175748188Y-120356463D01*
X175636137Y-120412488D01*
X175580112Y-120468513D01*
X175524087Y-120580563D01*
X175468062Y-120804664D01*
X175412037Y-120916714D01*
X175356012Y-120972739D01*
X175243961Y-121028764D01*
X175131911Y-121028764D01*
X175019861Y-120972739D01*
X174963836Y-120916714D01*
X174907810Y-120804664D01*
X174907810Y-120524538D01*
X174963836Y-120356463D01*
X174739735Y-120692613D02*
X176252414Y-120692613D01*
X176084338Y-119235960D02*
X176084338Y-119908261D01*
X176084338Y-119572111D02*
X174907810Y-119572111D01*
X175075886Y-119684161D01*
X175187936Y-119796211D01*
X175243961Y-119908261D01*
X174907810Y-118843784D02*
X174907810Y-118059432D01*
X176084338Y-118563658D01*
%TO.C,C5*%
X142063288Y-79733415D02*
X142119313Y-79789440D01*
X142175338Y-79957516D01*
X142175338Y-80069566D01*
X142119313Y-80237642D01*
X142007263Y-80349692D01*
X141895213Y-80405717D01*
X141671112Y-80461742D01*
X141503037Y-80461742D01*
X141278936Y-80405717D01*
X141166886Y-80349692D01*
X141054836Y-80237642D01*
X140998810Y-80069566D01*
X140998810Y-79957516D01*
X141054836Y-79789440D01*
X141110861Y-79733415D01*
X140998810Y-78668938D02*
X140998810Y-79229189D01*
X141559062Y-79285214D01*
X141503037Y-79229189D01*
X141447012Y-79117139D01*
X141447012Y-78837013D01*
X141503037Y-78724963D01*
X141559062Y-78668938D01*
X141671112Y-78612912D01*
X141951238Y-78612912D01*
X142063288Y-78668938D01*
X142119313Y-78724963D01*
X142175338Y-78837013D01*
X142175338Y-79117139D01*
X142119313Y-79229189D01*
X142063288Y-79285214D01*
%TO.C,R1*%
X126300338Y-115801415D02*
X125740087Y-116193591D01*
X126300338Y-116473717D02*
X125123810Y-116473717D01*
X125123810Y-116025516D01*
X125179836Y-115913466D01*
X125235861Y-115857440D01*
X125347911Y-115801415D01*
X125515986Y-115801415D01*
X125628037Y-115857440D01*
X125684062Y-115913466D01*
X125740087Y-116025516D01*
X125740087Y-116473717D01*
X126300338Y-114680912D02*
X126300338Y-115353214D01*
X126300338Y-115017063D02*
X125123810Y-115017063D01*
X125291886Y-115129114D01*
X125403936Y-115241164D01*
X125459961Y-115353214D01*
%TO.C,R8*%
X142302338Y-115801415D02*
X141742087Y-116193591D01*
X142302338Y-116473717D02*
X141125810Y-116473717D01*
X141125810Y-116025516D01*
X141181836Y-115913466D01*
X141237861Y-115857440D01*
X141349911Y-115801415D01*
X141517986Y-115801415D01*
X141630037Y-115857440D01*
X141686062Y-115913466D01*
X141742087Y-116025516D01*
X141742087Y-116473717D01*
X141630037Y-115129114D02*
X141574012Y-115241164D01*
X141517986Y-115297189D01*
X141405936Y-115353214D01*
X141349911Y-115353214D01*
X141237861Y-115297189D01*
X141181836Y-115241164D01*
X141125810Y-115129114D01*
X141125810Y-114905013D01*
X141181836Y-114792963D01*
X141237861Y-114736938D01*
X141349911Y-114680912D01*
X141405936Y-114680912D01*
X141517986Y-114736938D01*
X141574012Y-114792963D01*
X141630037Y-114905013D01*
X141630037Y-115129114D01*
X141686062Y-115241164D01*
X141742087Y-115297189D01*
X141854137Y-115353214D01*
X142078238Y-115353214D01*
X142190288Y-115297189D01*
X142246313Y-115241164D01*
X142302338Y-115129114D01*
X142302338Y-114905013D01*
X142246313Y-114792963D01*
X142190288Y-114736938D01*
X142078238Y-114680912D01*
X141854137Y-114680912D01*
X141742087Y-114736938D01*
X141686062Y-114792963D01*
X141630037Y-114905013D01*
%TO.C,R17*%
X121982338Y-127231415D02*
X121422087Y-127623591D01*
X121982338Y-127903717D02*
X120805810Y-127903717D01*
X120805810Y-127455516D01*
X120861836Y-127343466D01*
X120917861Y-127287440D01*
X121029911Y-127231415D01*
X121197986Y-127231415D01*
X121310037Y-127287440D01*
X121366062Y-127343466D01*
X121422087Y-127455516D01*
X121422087Y-127903717D01*
X121982338Y-126110912D02*
X121982338Y-126783214D01*
X121982338Y-126447063D02*
X120805810Y-126447063D01*
X120973886Y-126559114D01*
X121085936Y-126671164D01*
X121141961Y-126783214D01*
X120805810Y-125718736D02*
X120805810Y-124934384D01*
X121982338Y-125438611D01*
%TO.C,R29*%
X154865236Y-90803838D02*
X154473060Y-90243587D01*
X154192935Y-90803838D02*
X154192935Y-89627310D01*
X154641136Y-89627310D01*
X154753186Y-89683336D01*
X154809211Y-89739361D01*
X154865236Y-89851411D01*
X154865236Y-90019486D01*
X154809211Y-90131537D01*
X154753186Y-90187562D01*
X154641136Y-90243587D01*
X154192935Y-90243587D01*
X155313438Y-89739361D02*
X155369463Y-89683336D01*
X155481513Y-89627310D01*
X155761639Y-89627310D01*
X155873689Y-89683336D01*
X155929714Y-89739361D01*
X155985739Y-89851411D01*
X155985739Y-89963461D01*
X155929714Y-90131537D01*
X155257412Y-90803838D01*
X155985739Y-90803838D01*
X156545991Y-90803838D02*
X156770091Y-90803838D01*
X156882142Y-90747813D01*
X156938167Y-90691788D01*
X157050217Y-90523713D01*
X157106242Y-90299612D01*
X157106242Y-89851411D01*
X157050217Y-89739361D01*
X156994192Y-89683336D01*
X156882142Y-89627310D01*
X156658041Y-89627310D01*
X156545991Y-89683336D01*
X156489966Y-89739361D01*
X156433940Y-89851411D01*
X156433940Y-90131537D01*
X156489966Y-90243587D01*
X156545991Y-90299612D01*
X156658041Y-90355637D01*
X156882142Y-90355637D01*
X156994192Y-90299612D01*
X157050217Y-90243587D01*
X157106242Y-90131537D01*
%TO.C,U$5*%
X129187810Y-121084789D02*
X130140238Y-121084789D01*
X130252288Y-121028764D01*
X130308313Y-120972739D01*
X130364338Y-120860689D01*
X130364338Y-120636588D01*
X130308313Y-120524538D01*
X130252288Y-120468513D01*
X130140238Y-120412488D01*
X129187810Y-120412488D01*
X130308313Y-119908261D02*
X130364338Y-119740186D01*
X130364338Y-119460060D01*
X130308313Y-119348010D01*
X130252288Y-119291985D01*
X130140238Y-119235960D01*
X130028188Y-119235960D01*
X129916137Y-119291985D01*
X129860112Y-119348010D01*
X129804087Y-119460060D01*
X129748062Y-119684161D01*
X129692037Y-119796211D01*
X129636012Y-119852236D01*
X129523961Y-119908261D01*
X129411911Y-119908261D01*
X129299861Y-119852236D01*
X129243836Y-119796211D01*
X129187810Y-119684161D01*
X129187810Y-119404035D01*
X129243836Y-119235960D01*
X129019735Y-119572111D02*
X130532414Y-119572111D01*
X129187810Y-118171482D02*
X129187810Y-118731733D01*
X129748062Y-118787759D01*
X129692037Y-118731733D01*
X129636012Y-118619683D01*
X129636012Y-118339557D01*
X129692037Y-118227507D01*
X129748062Y-118171482D01*
X129860112Y-118115457D01*
X130140238Y-118115457D01*
X130252288Y-118171482D01*
X130308313Y-118227507D01*
X130364338Y-118339557D01*
X130364338Y-118619683D01*
X130308313Y-118731733D01*
X130252288Y-118787759D01*
%TO.C,R28*%
X174306338Y-115801415D02*
X173746087Y-116193591D01*
X174306338Y-116473717D02*
X173129810Y-116473717D01*
X173129810Y-116025516D01*
X173185836Y-115913466D01*
X173241861Y-115857440D01*
X173353911Y-115801415D01*
X173521986Y-115801415D01*
X173634037Y-115857440D01*
X173690062Y-115913466D01*
X173746087Y-116025516D01*
X173746087Y-116473717D01*
X173241861Y-115353214D02*
X173185836Y-115297189D01*
X173129810Y-115185139D01*
X173129810Y-114905013D01*
X173185836Y-114792963D01*
X173241861Y-114736938D01*
X173353911Y-114680912D01*
X173465961Y-114680912D01*
X173634037Y-114736938D01*
X174306338Y-115409239D01*
X174306338Y-114680912D01*
X173634037Y-114008611D02*
X173578012Y-114120661D01*
X173521986Y-114176686D01*
X173409936Y-114232711D01*
X173353911Y-114232711D01*
X173241861Y-114176686D01*
X173185836Y-114120661D01*
X173129810Y-114008611D01*
X173129810Y-113784510D01*
X173185836Y-113672460D01*
X173241861Y-113616435D01*
X173353911Y-113560410D01*
X173409936Y-113560410D01*
X173521986Y-113616435D01*
X173578012Y-113672460D01*
X173634037Y-113784510D01*
X173634037Y-114008611D01*
X173690062Y-114120661D01*
X173746087Y-114176686D01*
X173858137Y-114232711D01*
X174082238Y-114232711D01*
X174194288Y-114176686D01*
X174250313Y-114120661D01*
X174306338Y-114008611D01*
X174306338Y-113784510D01*
X174250313Y-113672460D01*
X174194288Y-113616435D01*
X174082238Y-113560410D01*
X173858137Y-113560410D01*
X173746087Y-113616435D01*
X173690062Y-113672460D01*
X173634037Y-113784510D01*
%TO.C,R36*%
X158558338Y-127231415D02*
X157998087Y-127623591D01*
X158558338Y-127903717D02*
X157381810Y-127903717D01*
X157381810Y-127455516D01*
X157437836Y-127343466D01*
X157493861Y-127287440D01*
X157605911Y-127231415D01*
X157773986Y-127231415D01*
X157886037Y-127287440D01*
X157942062Y-127343466D01*
X157998087Y-127455516D01*
X157998087Y-127903717D01*
X157381810Y-126839239D02*
X157381810Y-126110912D01*
X157830012Y-126503088D01*
X157830012Y-126335013D01*
X157886037Y-126222963D01*
X157942062Y-126166938D01*
X158054112Y-126110912D01*
X158334238Y-126110912D01*
X158446288Y-126166938D01*
X158502313Y-126222963D01*
X158558338Y-126335013D01*
X158558338Y-126671164D01*
X158502313Y-126783214D01*
X158446288Y-126839239D01*
X157381810Y-125102460D02*
X157381810Y-125326560D01*
X157437836Y-125438611D01*
X157493861Y-125494636D01*
X157661936Y-125606686D01*
X157886037Y-125662711D01*
X158334238Y-125662711D01*
X158446288Y-125606686D01*
X158502313Y-125550661D01*
X158558338Y-125438611D01*
X158558338Y-125214510D01*
X158502313Y-125102460D01*
X158446288Y-125046435D01*
X158334238Y-124990410D01*
X158054112Y-124990410D01*
X157942062Y-125046435D01*
X157886037Y-125102460D01*
X157830012Y-125214510D01*
X157830012Y-125438611D01*
X157886037Y-125550661D01*
X157942062Y-125606686D01*
X158054112Y-125662711D01*
%TO.C,C13*%
X133656236Y-110757788D02*
X133600211Y-110813813D01*
X133432136Y-110869838D01*
X133320086Y-110869838D01*
X133152010Y-110813813D01*
X133039960Y-110701763D01*
X132983935Y-110589713D01*
X132927910Y-110365612D01*
X132927910Y-110197537D01*
X132983935Y-109973436D01*
X133039960Y-109861386D01*
X133152010Y-109749336D01*
X133320086Y-109693310D01*
X133432136Y-109693310D01*
X133600211Y-109749336D01*
X133656236Y-109805361D01*
X134776739Y-110869838D02*
X134104438Y-110869838D01*
X134440588Y-110869838D02*
X134440588Y-109693310D01*
X134328538Y-109861386D01*
X134216488Y-109973436D01*
X134104438Y-110029461D01*
X135168915Y-109693310D02*
X135897242Y-109693310D01*
X135505066Y-110141512D01*
X135673142Y-110141512D01*
X135785192Y-110197537D01*
X135841217Y-110253562D01*
X135897242Y-110365612D01*
X135897242Y-110645738D01*
X135841217Y-110757788D01*
X135785192Y-110813813D01*
X135673142Y-110869838D01*
X135336991Y-110869838D01*
X135224940Y-110813813D01*
X135168915Y-110757788D01*
%TO.C,R52*%
X137847236Y-108837838D02*
X137455060Y-108277587D01*
X137174935Y-108837838D02*
X137174935Y-107661310D01*
X137623136Y-107661310D01*
X137735186Y-107717336D01*
X137791211Y-107773361D01*
X137847236Y-107885411D01*
X137847236Y-108053486D01*
X137791211Y-108165537D01*
X137735186Y-108221562D01*
X137623136Y-108277587D01*
X137174935Y-108277587D01*
X138911714Y-107661310D02*
X138351463Y-107661310D01*
X138295438Y-108221562D01*
X138351463Y-108165537D01*
X138463513Y-108109512D01*
X138743639Y-108109512D01*
X138855689Y-108165537D01*
X138911714Y-108221562D01*
X138967739Y-108333612D01*
X138967739Y-108613738D01*
X138911714Y-108725788D01*
X138855689Y-108781813D01*
X138743639Y-108837838D01*
X138463513Y-108837838D01*
X138351463Y-108781813D01*
X138295438Y-108725788D01*
X139415940Y-107773361D02*
X139471966Y-107717336D01*
X139584016Y-107661310D01*
X139864142Y-107661310D01*
X139976192Y-107717336D01*
X140032217Y-107773361D01*
X140088242Y-107885411D01*
X140088242Y-107997461D01*
X140032217Y-108165537D01*
X139359915Y-108837838D01*
X140088242Y-108837838D01*
%TO.C,U$12*%
X156619810Y-122205292D02*
X157572238Y-122205292D01*
X157684288Y-122149267D01*
X157740313Y-122093242D01*
X157796338Y-121981192D01*
X157796338Y-121757091D01*
X157740313Y-121645041D01*
X157684288Y-121589016D01*
X157572238Y-121532991D01*
X156619810Y-121532991D01*
X157740313Y-121028764D02*
X157796338Y-120860689D01*
X157796338Y-120580563D01*
X157740313Y-120468513D01*
X157684288Y-120412488D01*
X157572238Y-120356463D01*
X157460188Y-120356463D01*
X157348137Y-120412488D01*
X157292112Y-120468513D01*
X157236087Y-120580563D01*
X157180062Y-120804664D01*
X157124037Y-120916714D01*
X157068012Y-120972739D01*
X156955961Y-121028764D01*
X156843911Y-121028764D01*
X156731861Y-120972739D01*
X156675836Y-120916714D01*
X156619810Y-120804664D01*
X156619810Y-120524538D01*
X156675836Y-120356463D01*
X156451735Y-120692613D02*
X157964414Y-120692613D01*
X157796338Y-119235960D02*
X157796338Y-119908261D01*
X157796338Y-119572111D02*
X156619810Y-119572111D01*
X156787886Y-119684161D01*
X156899936Y-119796211D01*
X156955961Y-119908261D01*
X156731861Y-118787759D02*
X156675836Y-118731733D01*
X156619810Y-118619683D01*
X156619810Y-118339557D01*
X156675836Y-118227507D01*
X156731861Y-118171482D01*
X156843911Y-118115457D01*
X156955961Y-118115457D01*
X157124037Y-118171482D01*
X157796338Y-118843784D01*
X157796338Y-118115457D01*
%TO.C,U$10*%
X147475810Y-122205292D02*
X148428238Y-122205292D01*
X148540288Y-122149267D01*
X148596313Y-122093242D01*
X148652338Y-121981192D01*
X148652338Y-121757091D01*
X148596313Y-121645041D01*
X148540288Y-121589016D01*
X148428238Y-121532991D01*
X147475810Y-121532991D01*
X148596313Y-121028764D02*
X148652338Y-120860689D01*
X148652338Y-120580563D01*
X148596313Y-120468513D01*
X148540288Y-120412488D01*
X148428238Y-120356463D01*
X148316188Y-120356463D01*
X148204137Y-120412488D01*
X148148112Y-120468513D01*
X148092087Y-120580563D01*
X148036062Y-120804664D01*
X147980037Y-120916714D01*
X147924012Y-120972739D01*
X147811961Y-121028764D01*
X147699911Y-121028764D01*
X147587861Y-120972739D01*
X147531836Y-120916714D01*
X147475810Y-120804664D01*
X147475810Y-120524538D01*
X147531836Y-120356463D01*
X147307735Y-120692613D02*
X148820414Y-120692613D01*
X148652338Y-119235960D02*
X148652338Y-119908261D01*
X148652338Y-119572111D02*
X147475810Y-119572111D01*
X147643886Y-119684161D01*
X147755936Y-119796211D01*
X147811961Y-119908261D01*
X147475810Y-118507633D02*
X147475810Y-118395583D01*
X147531836Y-118283532D01*
X147587861Y-118227507D01*
X147699911Y-118171482D01*
X147924012Y-118115457D01*
X148204137Y-118115457D01*
X148428238Y-118171482D01*
X148540288Y-118227507D01*
X148596313Y-118283532D01*
X148652338Y-118395583D01*
X148652338Y-118507633D01*
X148596313Y-118619683D01*
X148540288Y-118675708D01*
X148428238Y-118731733D01*
X148204137Y-118787759D01*
X147924012Y-118787759D01*
X147699911Y-118731733D01*
X147587861Y-118675708D01*
X147531836Y-118619683D01*
X147475810Y-118507633D01*
%TO.C,U$16*%
X170335810Y-122205292D02*
X171288238Y-122205292D01*
X171400288Y-122149267D01*
X171456313Y-122093242D01*
X171512338Y-121981192D01*
X171512338Y-121757091D01*
X171456313Y-121645041D01*
X171400288Y-121589016D01*
X171288238Y-121532991D01*
X170335810Y-121532991D01*
X171456313Y-121028764D02*
X171512338Y-120860689D01*
X171512338Y-120580563D01*
X171456313Y-120468513D01*
X171400288Y-120412488D01*
X171288238Y-120356463D01*
X171176188Y-120356463D01*
X171064137Y-120412488D01*
X171008112Y-120468513D01*
X170952087Y-120580563D01*
X170896062Y-120804664D01*
X170840037Y-120916714D01*
X170784012Y-120972739D01*
X170671961Y-121028764D01*
X170559911Y-121028764D01*
X170447861Y-120972739D01*
X170391836Y-120916714D01*
X170335810Y-120804664D01*
X170335810Y-120524538D01*
X170391836Y-120356463D01*
X170167735Y-120692613D02*
X171680414Y-120692613D01*
X171512338Y-119235960D02*
X171512338Y-119908261D01*
X171512338Y-119572111D02*
X170335810Y-119572111D01*
X170503886Y-119684161D01*
X170615936Y-119796211D01*
X170671961Y-119908261D01*
X170335810Y-118227507D02*
X170335810Y-118451608D01*
X170391836Y-118563658D01*
X170447861Y-118619683D01*
X170615936Y-118731733D01*
X170840037Y-118787759D01*
X171288238Y-118787759D01*
X171400288Y-118731733D01*
X171456313Y-118675708D01*
X171512338Y-118563658D01*
X171512338Y-118339557D01*
X171456313Y-118227507D01*
X171400288Y-118171482D01*
X171288238Y-118115457D01*
X171008112Y-118115457D01*
X170896062Y-118171482D01*
X170840037Y-118227507D01*
X170784012Y-118339557D01*
X170784012Y-118563658D01*
X170840037Y-118675708D01*
X170896062Y-118731733D01*
X171008112Y-118787759D01*
%TO.C,R2*%
X128586338Y-115801415D02*
X128026087Y-116193591D01*
X128586338Y-116473717D02*
X127409810Y-116473717D01*
X127409810Y-116025516D01*
X127465836Y-115913466D01*
X127521861Y-115857440D01*
X127633911Y-115801415D01*
X127801986Y-115801415D01*
X127914037Y-115857440D01*
X127970062Y-115913466D01*
X128026087Y-116025516D01*
X128026087Y-116473717D01*
X127521861Y-115353214D02*
X127465836Y-115297189D01*
X127409810Y-115185139D01*
X127409810Y-114905013D01*
X127465836Y-114792963D01*
X127521861Y-114736938D01*
X127633911Y-114680912D01*
X127745961Y-114680912D01*
X127914037Y-114736938D01*
X128586338Y-115409239D01*
X128586338Y-114680912D01*
%TO.C,R33*%
X144842338Y-127231415D02*
X144282087Y-127623591D01*
X144842338Y-127903717D02*
X143665810Y-127903717D01*
X143665810Y-127455516D01*
X143721836Y-127343466D01*
X143777861Y-127287440D01*
X143889911Y-127231415D01*
X144057986Y-127231415D01*
X144170037Y-127287440D01*
X144226062Y-127343466D01*
X144282087Y-127455516D01*
X144282087Y-127903717D01*
X143665810Y-126839239D02*
X143665810Y-126110912D01*
X144114012Y-126503088D01*
X144114012Y-126335013D01*
X144170037Y-126222963D01*
X144226062Y-126166938D01*
X144338112Y-126110912D01*
X144618238Y-126110912D01*
X144730288Y-126166938D01*
X144786313Y-126222963D01*
X144842338Y-126335013D01*
X144842338Y-126671164D01*
X144786313Y-126783214D01*
X144730288Y-126839239D01*
X143665810Y-125718736D02*
X143665810Y-124990410D01*
X144114012Y-125382586D01*
X144114012Y-125214510D01*
X144170037Y-125102460D01*
X144226062Y-125046435D01*
X144338112Y-124990410D01*
X144618238Y-124990410D01*
X144730288Y-125046435D01*
X144786313Y-125102460D01*
X144842338Y-125214510D01*
X144842338Y-125550661D01*
X144786313Y-125662711D01*
X144730288Y-125718736D01*
%TO.C,R6*%
X137730338Y-115801415D02*
X137170087Y-116193591D01*
X137730338Y-116473717D02*
X136553810Y-116473717D01*
X136553810Y-116025516D01*
X136609836Y-115913466D01*
X136665861Y-115857440D01*
X136777911Y-115801415D01*
X136945986Y-115801415D01*
X137058037Y-115857440D01*
X137114062Y-115913466D01*
X137170087Y-116025516D01*
X137170087Y-116473717D01*
X136553810Y-114792963D02*
X136553810Y-115017063D01*
X136609836Y-115129114D01*
X136665861Y-115185139D01*
X136833936Y-115297189D01*
X137058037Y-115353214D01*
X137506238Y-115353214D01*
X137618288Y-115297189D01*
X137674313Y-115241164D01*
X137730338Y-115129114D01*
X137730338Y-114905013D01*
X137674313Y-114792963D01*
X137618288Y-114736938D01*
X137506238Y-114680912D01*
X137226112Y-114680912D01*
X137114062Y-114736938D01*
X137058037Y-114792963D01*
X137002012Y-114905013D01*
X137002012Y-115129114D01*
X137058037Y-115241164D01*
X137114062Y-115297189D01*
X137226112Y-115353214D01*
%TO.C,R26*%
X169734338Y-115801415D02*
X169174087Y-116193591D01*
X169734338Y-116473717D02*
X168557810Y-116473717D01*
X168557810Y-116025516D01*
X168613836Y-115913466D01*
X168669861Y-115857440D01*
X168781911Y-115801415D01*
X168949986Y-115801415D01*
X169062037Y-115857440D01*
X169118062Y-115913466D01*
X169174087Y-116025516D01*
X169174087Y-116473717D01*
X168669861Y-115353214D02*
X168613836Y-115297189D01*
X168557810Y-115185139D01*
X168557810Y-114905013D01*
X168613836Y-114792963D01*
X168669861Y-114736938D01*
X168781911Y-114680912D01*
X168893961Y-114680912D01*
X169062037Y-114736938D01*
X169734338Y-115409239D01*
X169734338Y-114680912D01*
X168557810Y-113672460D02*
X168557810Y-113896560D01*
X168613836Y-114008611D01*
X168669861Y-114064636D01*
X168837936Y-114176686D01*
X169062037Y-114232711D01*
X169510238Y-114232711D01*
X169622288Y-114176686D01*
X169678313Y-114120661D01*
X169734338Y-114008611D01*
X169734338Y-113784510D01*
X169678313Y-113672460D01*
X169622288Y-113616435D01*
X169510238Y-113560410D01*
X169230112Y-113560410D01*
X169118062Y-113616435D01*
X169062037Y-113672460D01*
X169006012Y-113784510D01*
X169006012Y-114008611D01*
X169062037Y-114120661D01*
X169118062Y-114176686D01*
X169230112Y-114232711D01*
%TO.C,R11*%
X149160338Y-115801415D02*
X148600087Y-116193591D01*
X149160338Y-116473717D02*
X147983810Y-116473717D01*
X147983810Y-116025516D01*
X148039836Y-115913466D01*
X148095861Y-115857440D01*
X148207911Y-115801415D01*
X148375986Y-115801415D01*
X148488037Y-115857440D01*
X148544062Y-115913466D01*
X148600087Y-116025516D01*
X148600087Y-116473717D01*
X149160338Y-114680912D02*
X149160338Y-115353214D01*
X149160338Y-115017063D02*
X147983810Y-115017063D01*
X148151886Y-115129114D01*
X148263936Y-115241164D01*
X148319961Y-115353214D01*
X149160338Y-113560410D02*
X149160338Y-114232711D01*
X149160338Y-113896560D02*
X147983810Y-113896560D01*
X148151886Y-114008611D01*
X148263936Y-114120661D01*
X148319961Y-114232711D01*
%TO.C,C1*%
X140285288Y-94719415D02*
X140341313Y-94775440D01*
X140397338Y-94943516D01*
X140397338Y-95055566D01*
X140341313Y-95223642D01*
X140229263Y-95335692D01*
X140117213Y-95391717D01*
X139893112Y-95447742D01*
X139725037Y-95447742D01*
X139500936Y-95391717D01*
X139388886Y-95335692D01*
X139276836Y-95223642D01*
X139220810Y-95055566D01*
X139220810Y-94943516D01*
X139276836Y-94775440D01*
X139332861Y-94719415D01*
X140397338Y-93598912D02*
X140397338Y-94271214D01*
X140397338Y-93935063D02*
X139220810Y-93935063D01*
X139388886Y-94047114D01*
X139500936Y-94159164D01*
X139556961Y-94271214D01*
D17*
%TO.C,SN65*%
X155190440Y-81305376D02*
X155298008Y-81341232D01*
X155477289Y-81341232D01*
X155549001Y-81305376D01*
X155584857Y-81269520D01*
X155620713Y-81197808D01*
X155620713Y-81126096D01*
X155584857Y-81054384D01*
X155549001Y-81018528D01*
X155477289Y-80982671D01*
X155333864Y-80946815D01*
X155262152Y-80910959D01*
X155226296Y-80875103D01*
X155190440Y-80803391D01*
X155190440Y-80731679D01*
X155226296Y-80659967D01*
X155262152Y-80624111D01*
X155333864Y-80588254D01*
X155513145Y-80588254D01*
X155620713Y-80624111D01*
X155943418Y-81341232D02*
X155943418Y-80588254D01*
X156373691Y-81341232D01*
X156373691Y-80588254D01*
X157054957Y-80588254D02*
X156911532Y-80588254D01*
X156839820Y-80624111D01*
X156803964Y-80659967D01*
X156732252Y-80767535D01*
X156696396Y-80910959D01*
X156696396Y-81197808D01*
X156732252Y-81269520D01*
X156768108Y-81305376D01*
X156839820Y-81341232D01*
X156983245Y-81341232D01*
X157054957Y-81305376D01*
X157090813Y-81269520D01*
X157126669Y-81197808D01*
X157126669Y-81018528D01*
X157090813Y-80946815D01*
X157054957Y-80910959D01*
X156983245Y-80875103D01*
X156839820Y-80875103D01*
X156768108Y-80910959D01*
X156732252Y-80946815D01*
X156696396Y-81018528D01*
X157807935Y-80588254D02*
X157449374Y-80588254D01*
X157413518Y-80946815D01*
X157449374Y-80910959D01*
X157521086Y-80875103D01*
X157700366Y-80875103D01*
X157772079Y-80910959D01*
X157807935Y-80946815D01*
X157843791Y-81018528D01*
X157843791Y-81197808D01*
X157807935Y-81269520D01*
X157772079Y-81305376D01*
X157700366Y-81341232D01*
X157521086Y-81341232D01*
X157449374Y-81305376D01*
X157413518Y-81269520D01*
D14*
%TO.C,R20*%
X133158338Y-115801415D02*
X132598087Y-116193591D01*
X133158338Y-116473717D02*
X131981810Y-116473717D01*
X131981810Y-116025516D01*
X132037836Y-115913466D01*
X132093861Y-115857440D01*
X132205911Y-115801415D01*
X132373986Y-115801415D01*
X132486037Y-115857440D01*
X132542062Y-115913466D01*
X132598087Y-116025516D01*
X132598087Y-116473717D01*
X132093861Y-115353214D02*
X132037836Y-115297189D01*
X131981810Y-115185139D01*
X131981810Y-114905013D01*
X132037836Y-114792963D01*
X132093861Y-114736938D01*
X132205911Y-114680912D01*
X132317961Y-114680912D01*
X132486037Y-114736938D01*
X133158338Y-115409239D01*
X133158338Y-114680912D01*
X131981810Y-113952586D02*
X131981810Y-113840535D01*
X132037836Y-113728485D01*
X132093861Y-113672460D01*
X132205911Y-113616435D01*
X132430012Y-113560410D01*
X132710137Y-113560410D01*
X132934238Y-113616435D01*
X133046288Y-113672460D01*
X133102313Y-113728485D01*
X133158338Y-113840535D01*
X133158338Y-113952586D01*
X133102313Y-114064636D01*
X133046288Y-114120661D01*
X132934238Y-114176686D01*
X132710137Y-114232711D01*
X132430012Y-114232711D01*
X132205911Y-114176686D01*
X132093861Y-114120661D01*
X132037836Y-114064636D01*
X131981810Y-113952586D01*
D16*
%TO.C,@HOLE1*%
D14*
%TO.C,U$7*%
X133759810Y-121084789D02*
X134712238Y-121084789D01*
X134824288Y-121028764D01*
X134880313Y-120972739D01*
X134936338Y-120860689D01*
X134936338Y-120636588D01*
X134880313Y-120524538D01*
X134824288Y-120468513D01*
X134712238Y-120412488D01*
X133759810Y-120412488D01*
X134880313Y-119908261D02*
X134936338Y-119740186D01*
X134936338Y-119460060D01*
X134880313Y-119348010D01*
X134824288Y-119291985D01*
X134712238Y-119235960D01*
X134600188Y-119235960D01*
X134488137Y-119291985D01*
X134432112Y-119348010D01*
X134376087Y-119460060D01*
X134320062Y-119684161D01*
X134264037Y-119796211D01*
X134208012Y-119852236D01*
X134095961Y-119908261D01*
X133983911Y-119908261D01*
X133871861Y-119852236D01*
X133815836Y-119796211D01*
X133759810Y-119684161D01*
X133759810Y-119404035D01*
X133815836Y-119235960D01*
X133591735Y-119572111D02*
X135104414Y-119572111D01*
X133759810Y-118843784D02*
X133759810Y-118059432D01*
X134936338Y-118563658D01*
%TO.C,R23*%
X162876338Y-115801415D02*
X162316087Y-116193591D01*
X162876338Y-116473717D02*
X161699810Y-116473717D01*
X161699810Y-116025516D01*
X161755836Y-115913466D01*
X161811861Y-115857440D01*
X161923911Y-115801415D01*
X162091986Y-115801415D01*
X162204037Y-115857440D01*
X162260062Y-115913466D01*
X162316087Y-116025516D01*
X162316087Y-116473717D01*
X161811861Y-115353214D02*
X161755836Y-115297189D01*
X161699810Y-115185139D01*
X161699810Y-114905013D01*
X161755836Y-114792963D01*
X161811861Y-114736938D01*
X161923911Y-114680912D01*
X162035961Y-114680912D01*
X162204037Y-114736938D01*
X162876338Y-115409239D01*
X162876338Y-114680912D01*
X161699810Y-114288736D02*
X161699810Y-113560410D01*
X162148012Y-113952586D01*
X162148012Y-113784510D01*
X162204037Y-113672460D01*
X162260062Y-113616435D01*
X162372112Y-113560410D01*
X162652238Y-113560410D01*
X162764288Y-113616435D01*
X162820313Y-113672460D01*
X162876338Y-113784510D01*
X162876338Y-114120661D01*
X162820313Y-114232711D01*
X162764288Y-114288736D01*
%TO.C,R37*%
X163130338Y-127231415D02*
X162570087Y-127623591D01*
X163130338Y-127903717D02*
X161953810Y-127903717D01*
X161953810Y-127455516D01*
X162009836Y-127343466D01*
X162065861Y-127287440D01*
X162177911Y-127231415D01*
X162345986Y-127231415D01*
X162458037Y-127287440D01*
X162514062Y-127343466D01*
X162570087Y-127455516D01*
X162570087Y-127903717D01*
X161953810Y-126839239D02*
X161953810Y-126110912D01*
X162402012Y-126503088D01*
X162402012Y-126335013D01*
X162458037Y-126222963D01*
X162514062Y-126166938D01*
X162626112Y-126110912D01*
X162906238Y-126110912D01*
X163018288Y-126166938D01*
X163074313Y-126222963D01*
X163130338Y-126335013D01*
X163130338Y-126671164D01*
X163074313Y-126783214D01*
X163018288Y-126839239D01*
X161953810Y-125718736D02*
X161953810Y-124934384D01*
X163130338Y-125438611D01*
%TO.C,U$4*%
X124615810Y-121084789D02*
X125568238Y-121084789D01*
X125680288Y-121028764D01*
X125736313Y-120972739D01*
X125792338Y-120860689D01*
X125792338Y-120636588D01*
X125736313Y-120524538D01*
X125680288Y-120468513D01*
X125568238Y-120412488D01*
X124615810Y-120412488D01*
X125736313Y-119908261D02*
X125792338Y-119740186D01*
X125792338Y-119460060D01*
X125736313Y-119348010D01*
X125680288Y-119291985D01*
X125568238Y-119235960D01*
X125456188Y-119235960D01*
X125344137Y-119291985D01*
X125288112Y-119348010D01*
X125232087Y-119460060D01*
X125176062Y-119684161D01*
X125120037Y-119796211D01*
X125064012Y-119852236D01*
X124951961Y-119908261D01*
X124839911Y-119908261D01*
X124727861Y-119852236D01*
X124671836Y-119796211D01*
X124615810Y-119684161D01*
X124615810Y-119404035D01*
X124671836Y-119235960D01*
X124447735Y-119572111D02*
X125960414Y-119572111D01*
X125007986Y-118227507D02*
X125792338Y-118227507D01*
X124559785Y-118507633D02*
X125400162Y-118787759D01*
X125400162Y-118059432D01*
%TO.C,R32*%
X140270338Y-127231415D02*
X139710087Y-127623591D01*
X140270338Y-127903717D02*
X139093810Y-127903717D01*
X139093810Y-127455516D01*
X139149836Y-127343466D01*
X139205861Y-127287440D01*
X139317911Y-127231415D01*
X139485986Y-127231415D01*
X139598037Y-127287440D01*
X139654062Y-127343466D01*
X139710087Y-127455516D01*
X139710087Y-127903717D01*
X139093810Y-126839239D02*
X139093810Y-126110912D01*
X139542012Y-126503088D01*
X139542012Y-126335013D01*
X139598037Y-126222963D01*
X139654062Y-126166938D01*
X139766112Y-126110912D01*
X140046238Y-126110912D01*
X140158288Y-126166938D01*
X140214313Y-126222963D01*
X140270338Y-126335013D01*
X140270338Y-126671164D01*
X140214313Y-126783214D01*
X140158288Y-126839239D01*
X139205861Y-125662711D02*
X139149836Y-125606686D01*
X139093810Y-125494636D01*
X139093810Y-125214510D01*
X139149836Y-125102460D01*
X139205861Y-125046435D01*
X139317911Y-124990410D01*
X139429961Y-124990410D01*
X139598037Y-125046435D01*
X140270338Y-125718736D01*
X140270338Y-124990410D01*
%TO.C,C18*%
X157134284Y-105677788D02*
X157078259Y-105733813D01*
X156910183Y-105789838D01*
X156798133Y-105789838D01*
X156630057Y-105733813D01*
X156518007Y-105621763D01*
X156461982Y-105509713D01*
X156405957Y-105285612D01*
X156405957Y-105117537D01*
X156461982Y-104893436D01*
X156518007Y-104781386D01*
X156630057Y-104669336D01*
X156798133Y-104613310D01*
X156910183Y-104613310D01*
X157078259Y-104669336D01*
X157134284Y-104725361D01*
X158254787Y-105789838D02*
X157582485Y-105789838D01*
X157918636Y-105789838D02*
X157918636Y-104613310D01*
X157806585Y-104781386D01*
X157694535Y-104893436D01*
X157582485Y-104949461D01*
X158927088Y-105117537D02*
X158815038Y-105061512D01*
X158759013Y-105005486D01*
X158702988Y-104893436D01*
X158702988Y-104837411D01*
X158759013Y-104725361D01*
X158815038Y-104669336D01*
X158927088Y-104613310D01*
X159151189Y-104613310D01*
X159263239Y-104669336D01*
X159319264Y-104725361D01*
X159375289Y-104837411D01*
X159375289Y-104893436D01*
X159319264Y-105005486D01*
X159263239Y-105061512D01*
X159151189Y-105117537D01*
X158927088Y-105117537D01*
X158815038Y-105173562D01*
X158759013Y-105229587D01*
X158702988Y-105341637D01*
X158702988Y-105565738D01*
X158759013Y-105677788D01*
X158815038Y-105733813D01*
X158927088Y-105789838D01*
X159151189Y-105789838D01*
X159263239Y-105733813D01*
X159319264Y-105677788D01*
X159375289Y-105565738D01*
X159375289Y-105341637D01*
X159319264Y-105229587D01*
X159263239Y-105173562D01*
X159151189Y-105117537D01*
%TO.C,C3*%
X131220739Y-110757788D02*
X131164714Y-110813813D01*
X130996639Y-110869838D01*
X130884588Y-110869838D01*
X130716513Y-110813813D01*
X130604463Y-110701763D01*
X130548438Y-110589713D01*
X130492412Y-110365612D01*
X130492412Y-110197537D01*
X130548438Y-109973436D01*
X130604463Y-109861386D01*
X130716513Y-109749336D01*
X130884588Y-109693310D01*
X130996639Y-109693310D01*
X131164714Y-109749336D01*
X131220739Y-109805361D01*
X131612915Y-109693310D02*
X132341242Y-109693310D01*
X131949066Y-110141512D01*
X132117142Y-110141512D01*
X132229192Y-110197537D01*
X132285217Y-110253562D01*
X132341242Y-110365612D01*
X132341242Y-110645738D01*
X132285217Y-110757788D01*
X132229192Y-110813813D01*
X132117142Y-110869838D01*
X131780991Y-110869838D01*
X131668940Y-110813813D01*
X131612915Y-110757788D01*
%TO.C,D1*%
X166575338Y-87220717D02*
X165398810Y-87220717D01*
X165398810Y-86940591D01*
X165454836Y-86772516D01*
X165566886Y-86660466D01*
X165678936Y-86604440D01*
X165903037Y-86548415D01*
X166071112Y-86548415D01*
X166295213Y-86604440D01*
X166407263Y-86660466D01*
X166519313Y-86772516D01*
X166575338Y-86940591D01*
X166575338Y-87220717D01*
X166575338Y-85427912D02*
X166575338Y-86100214D01*
X166575338Y-85764063D02*
X165398810Y-85764063D01*
X165566886Y-85876114D01*
X165678936Y-85988164D01*
X165734961Y-86100214D01*
%TO.C,U$15*%
X165763810Y-122205292D02*
X166716238Y-122205292D01*
X166828288Y-122149267D01*
X166884313Y-122093242D01*
X166940338Y-121981192D01*
X166940338Y-121757091D01*
X166884313Y-121645041D01*
X166828288Y-121589016D01*
X166716238Y-121532991D01*
X165763810Y-121532991D01*
X166884313Y-121028764D02*
X166940338Y-120860689D01*
X166940338Y-120580563D01*
X166884313Y-120468513D01*
X166828288Y-120412488D01*
X166716238Y-120356463D01*
X166604188Y-120356463D01*
X166492137Y-120412488D01*
X166436112Y-120468513D01*
X166380087Y-120580563D01*
X166324062Y-120804664D01*
X166268037Y-120916714D01*
X166212012Y-120972739D01*
X166099961Y-121028764D01*
X165987911Y-121028764D01*
X165875861Y-120972739D01*
X165819836Y-120916714D01*
X165763810Y-120804664D01*
X165763810Y-120524538D01*
X165819836Y-120356463D01*
X165595735Y-120692613D02*
X167108414Y-120692613D01*
X166940338Y-119235960D02*
X166940338Y-119908261D01*
X166940338Y-119572111D02*
X165763810Y-119572111D01*
X165931886Y-119684161D01*
X166043936Y-119796211D01*
X166099961Y-119908261D01*
X165763810Y-118171482D02*
X165763810Y-118731733D01*
X166324062Y-118787759D01*
X166268037Y-118731733D01*
X166212012Y-118619683D01*
X166212012Y-118339557D01*
X166268037Y-118227507D01*
X166324062Y-118171482D01*
X166436112Y-118115457D01*
X166716238Y-118115457D01*
X166828288Y-118171482D01*
X166884313Y-118227507D01*
X166940338Y-118339557D01*
X166940338Y-118619683D01*
X166884313Y-118731733D01*
X166828288Y-118787759D01*
%TO.C,R27*%
X172020338Y-115801415D02*
X171460087Y-116193591D01*
X172020338Y-116473717D02*
X170843810Y-116473717D01*
X170843810Y-116025516D01*
X170899836Y-115913466D01*
X170955861Y-115857440D01*
X171067911Y-115801415D01*
X171235986Y-115801415D01*
X171348037Y-115857440D01*
X171404062Y-115913466D01*
X171460087Y-116025516D01*
X171460087Y-116473717D01*
X170955861Y-115353214D02*
X170899836Y-115297189D01*
X170843810Y-115185139D01*
X170843810Y-114905013D01*
X170899836Y-114792963D01*
X170955861Y-114736938D01*
X171067911Y-114680912D01*
X171179961Y-114680912D01*
X171348037Y-114736938D01*
X172020338Y-115409239D01*
X172020338Y-114680912D01*
X170843810Y-114288736D02*
X170843810Y-113504384D01*
X172020338Y-114008611D01*
%TO.C,R12*%
X151446338Y-115801415D02*
X150886087Y-116193591D01*
X151446338Y-116473717D02*
X150269810Y-116473717D01*
X150269810Y-116025516D01*
X150325836Y-115913466D01*
X150381861Y-115857440D01*
X150493911Y-115801415D01*
X150661986Y-115801415D01*
X150774037Y-115857440D01*
X150830062Y-115913466D01*
X150886087Y-116025516D01*
X150886087Y-116473717D01*
X151446338Y-114680912D02*
X151446338Y-115353214D01*
X151446338Y-115017063D02*
X150269810Y-115017063D01*
X150437886Y-115129114D01*
X150549936Y-115241164D01*
X150605961Y-115353214D01*
X150381861Y-114232711D02*
X150325836Y-114176686D01*
X150269810Y-114064636D01*
X150269810Y-113784510D01*
X150325836Y-113672460D01*
X150381861Y-113616435D01*
X150493911Y-113560410D01*
X150605961Y-113560410D01*
X150774037Y-113616435D01*
X151446338Y-114288736D01*
X151446338Y-113560410D01*
%TO.C,R16*%
X121728338Y-115801415D02*
X121168087Y-116193591D01*
X121728338Y-116473717D02*
X120551810Y-116473717D01*
X120551810Y-116025516D01*
X120607836Y-115913466D01*
X120663861Y-115857440D01*
X120775911Y-115801415D01*
X120943986Y-115801415D01*
X121056037Y-115857440D01*
X121112062Y-115913466D01*
X121168087Y-116025516D01*
X121168087Y-116473717D01*
X121728338Y-114680912D02*
X121728338Y-115353214D01*
X121728338Y-115017063D02*
X120551810Y-115017063D01*
X120719886Y-115129114D01*
X120831936Y-115241164D01*
X120887961Y-115353214D01*
X120551810Y-113672460D02*
X120551810Y-113896560D01*
X120607836Y-114008611D01*
X120663861Y-114064636D01*
X120831936Y-114176686D01*
X121056037Y-114232711D01*
X121504238Y-114232711D01*
X121616288Y-114176686D01*
X121672313Y-114120661D01*
X121728338Y-114008611D01*
X121728338Y-113784510D01*
X121672313Y-113672460D01*
X121616288Y-113616435D01*
X121504238Y-113560410D01*
X121224112Y-113560410D01*
X121112062Y-113616435D01*
X121056037Y-113672460D01*
X121000012Y-113784510D01*
X121000012Y-114008611D01*
X121056037Y-114120661D01*
X121112062Y-114176686D01*
X121224112Y-114232711D01*
%TO.C,R39*%
X172274338Y-127231415D02*
X171714087Y-127623591D01*
X172274338Y-127903717D02*
X171097810Y-127903717D01*
X171097810Y-127455516D01*
X171153836Y-127343466D01*
X171209861Y-127287440D01*
X171321911Y-127231415D01*
X171489986Y-127231415D01*
X171602037Y-127287440D01*
X171658062Y-127343466D01*
X171714087Y-127455516D01*
X171714087Y-127903717D01*
X171097810Y-126839239D02*
X171097810Y-126110912D01*
X171546012Y-126503088D01*
X171546012Y-126335013D01*
X171602037Y-126222963D01*
X171658062Y-126166938D01*
X171770112Y-126110912D01*
X172050238Y-126110912D01*
X172162288Y-126166938D01*
X172218313Y-126222963D01*
X172274338Y-126335013D01*
X172274338Y-126671164D01*
X172218313Y-126783214D01*
X172162288Y-126839239D01*
X172274338Y-125550661D02*
X172274338Y-125326560D01*
X172218313Y-125214510D01*
X172162288Y-125158485D01*
X171994213Y-125046435D01*
X171770112Y-124990410D01*
X171321911Y-124990410D01*
X171209861Y-125046435D01*
X171153836Y-125102460D01*
X171097810Y-125214510D01*
X171097810Y-125438611D01*
X171153836Y-125550661D01*
X171209861Y-125606686D01*
X171321911Y-125662711D01*
X171602037Y-125662711D01*
X171714087Y-125606686D01*
X171770112Y-125550661D01*
X171826137Y-125438611D01*
X171826137Y-125214510D01*
X171770112Y-125102460D01*
X171714087Y-125046435D01*
X171602037Y-124990410D01*
%TO.C,Q1*%
X145562334Y-77961889D02*
X145450284Y-77905864D01*
X145338233Y-77793813D01*
X145170158Y-77625738D01*
X145058108Y-77569713D01*
X144946057Y-77569713D01*
X145002083Y-77849838D02*
X144890032Y-77793813D01*
X144777982Y-77681763D01*
X144721957Y-77457662D01*
X144721957Y-77065486D01*
X144777982Y-76841386D01*
X144890032Y-76729336D01*
X145002083Y-76673310D01*
X145226183Y-76673310D01*
X145338233Y-76729336D01*
X145450284Y-76841386D01*
X145506309Y-77065486D01*
X145506309Y-77457662D01*
X145450284Y-77681763D01*
X145338233Y-77793813D01*
X145226183Y-77849838D01*
X145002083Y-77849838D01*
X146626812Y-77849838D02*
X145954510Y-77849838D01*
X146290661Y-77849838D02*
X146290661Y-76673310D01*
X146178611Y-76841386D01*
X146066560Y-76953436D01*
X145954510Y-77009461D01*
%TO.C,C4*%
X152731288Y-80373960D02*
X152787313Y-80429985D01*
X152843338Y-80598060D01*
X152843338Y-80710111D01*
X152787313Y-80878186D01*
X152675263Y-80990236D01*
X152563213Y-81046261D01*
X152339112Y-81102287D01*
X152171037Y-81102287D01*
X151946936Y-81046261D01*
X151834886Y-80990236D01*
X151722836Y-80878186D01*
X151666810Y-80710111D01*
X151666810Y-80598060D01*
X151722836Y-80429985D01*
X151778861Y-80373960D01*
X152058986Y-79365507D02*
X152843338Y-79365507D01*
X151610785Y-79645633D02*
X152451162Y-79925759D01*
X152451162Y-79197432D01*
%TO.C,R7*%
X140016338Y-115801415D02*
X139456087Y-116193591D01*
X140016338Y-116473717D02*
X138839810Y-116473717D01*
X138839810Y-116025516D01*
X138895836Y-115913466D01*
X138951861Y-115857440D01*
X139063911Y-115801415D01*
X139231986Y-115801415D01*
X139344037Y-115857440D01*
X139400062Y-115913466D01*
X139456087Y-116025516D01*
X139456087Y-116473717D01*
X138839810Y-115409239D02*
X138839810Y-114624887D01*
X140016338Y-115129114D01*
%TO.C,C16*%
X156753284Y-90691788D02*
X156697259Y-90747813D01*
X156529183Y-90803838D01*
X156417133Y-90803838D01*
X156249057Y-90747813D01*
X156137007Y-90635763D01*
X156080982Y-90523713D01*
X156024957Y-90299612D01*
X156024957Y-90131537D01*
X156080982Y-89907436D01*
X156137007Y-89795386D01*
X156249057Y-89683336D01*
X156417133Y-89627310D01*
X156529183Y-89627310D01*
X156697259Y-89683336D01*
X156753284Y-89739361D01*
X157873787Y-90803838D02*
X157201485Y-90803838D01*
X157537636Y-90803838D02*
X157537636Y-89627310D01*
X157425585Y-89795386D01*
X157313535Y-89907436D01*
X157201485Y-89963461D01*
X158882239Y-89627310D02*
X158658139Y-89627310D01*
X158546088Y-89683336D01*
X158490063Y-89739361D01*
X158378013Y-89907436D01*
X158321988Y-90131537D01*
X158321988Y-90579738D01*
X158378013Y-90691788D01*
X158434038Y-90747813D01*
X158546088Y-90803838D01*
X158770189Y-90803838D01*
X158882239Y-90747813D01*
X158938264Y-90691788D01*
X158994289Y-90579738D01*
X158994289Y-90299612D01*
X158938264Y-90187562D01*
X158882239Y-90131537D01*
X158770189Y-90075512D01*
X158546088Y-90075512D01*
X158434038Y-90131537D01*
X158378013Y-90187562D01*
X158321988Y-90299612D01*
%TO.C,R25*%
X167448338Y-115801415D02*
X166888087Y-116193591D01*
X167448338Y-116473717D02*
X166271810Y-116473717D01*
X166271810Y-116025516D01*
X166327836Y-115913466D01*
X166383861Y-115857440D01*
X166495911Y-115801415D01*
X166663986Y-115801415D01*
X166776037Y-115857440D01*
X166832062Y-115913466D01*
X166888087Y-116025516D01*
X166888087Y-116473717D01*
X166383861Y-115353214D02*
X166327836Y-115297189D01*
X166271810Y-115185139D01*
X166271810Y-114905013D01*
X166327836Y-114792963D01*
X166383861Y-114736938D01*
X166495911Y-114680912D01*
X166607961Y-114680912D01*
X166776037Y-114736938D01*
X167448338Y-115409239D01*
X167448338Y-114680912D01*
X166271810Y-113616435D02*
X166271810Y-114176686D01*
X166832062Y-114232711D01*
X166776037Y-114176686D01*
X166720012Y-114064636D01*
X166720012Y-113784510D01*
X166776037Y-113672460D01*
X166832062Y-113616435D01*
X166944112Y-113560410D01*
X167224238Y-113560410D01*
X167336288Y-113616435D01*
X167392313Y-113672460D01*
X167448338Y-113784510D01*
X167448338Y-114064636D01*
X167392313Y-114176686D01*
X167336288Y-114232711D01*
%TO.C,U$8*%
X138331810Y-121084789D02*
X139284238Y-121084789D01*
X139396288Y-121028764D01*
X139452313Y-120972739D01*
X139508338Y-120860689D01*
X139508338Y-120636588D01*
X139452313Y-120524538D01*
X139396288Y-120468513D01*
X139284238Y-120412488D01*
X138331810Y-120412488D01*
X139452313Y-119908261D02*
X139508338Y-119740186D01*
X139508338Y-119460060D01*
X139452313Y-119348010D01*
X139396288Y-119291985D01*
X139284238Y-119235960D01*
X139172188Y-119235960D01*
X139060137Y-119291985D01*
X139004112Y-119348010D01*
X138948087Y-119460060D01*
X138892062Y-119684161D01*
X138836037Y-119796211D01*
X138780012Y-119852236D01*
X138667961Y-119908261D01*
X138555911Y-119908261D01*
X138443861Y-119852236D01*
X138387836Y-119796211D01*
X138331810Y-119684161D01*
X138331810Y-119404035D01*
X138387836Y-119235960D01*
X138163735Y-119572111D02*
X139676414Y-119572111D01*
X138836037Y-118563658D02*
X138780012Y-118675708D01*
X138723986Y-118731733D01*
X138611936Y-118787759D01*
X138555911Y-118787759D01*
X138443861Y-118731733D01*
X138387836Y-118675708D01*
X138331810Y-118563658D01*
X138331810Y-118339557D01*
X138387836Y-118227507D01*
X138443861Y-118171482D01*
X138555911Y-118115457D01*
X138611936Y-118115457D01*
X138723986Y-118171482D01*
X138780012Y-118227507D01*
X138836037Y-118339557D01*
X138836037Y-118563658D01*
X138892062Y-118675708D01*
X138948087Y-118731733D01*
X139060137Y-118787759D01*
X139284238Y-118787759D01*
X139396288Y-118731733D01*
X139452313Y-118675708D01*
X139508338Y-118563658D01*
X139508338Y-118339557D01*
X139452313Y-118227507D01*
X139396288Y-118171482D01*
X139284238Y-118115457D01*
X139060137Y-118115457D01*
X138948087Y-118171482D01*
X138892062Y-118227507D01*
X138836037Y-118339557D01*
%TO.C,R3*%
X126554338Y-127231415D02*
X125994087Y-127623591D01*
X126554338Y-127903717D02*
X125377810Y-127903717D01*
X125377810Y-127455516D01*
X125433836Y-127343466D01*
X125489861Y-127287440D01*
X125601911Y-127231415D01*
X125769986Y-127231415D01*
X125882037Y-127287440D01*
X125938062Y-127343466D01*
X125994087Y-127455516D01*
X125994087Y-127903717D01*
X125377810Y-126839239D02*
X125377810Y-126110912D01*
X125826012Y-126503088D01*
X125826012Y-126335013D01*
X125882037Y-126222963D01*
X125938062Y-126166938D01*
X126050112Y-126110912D01*
X126330238Y-126110912D01*
X126442288Y-126166938D01*
X126498313Y-126222963D01*
X126554338Y-126335013D01*
X126554338Y-126671164D01*
X126498313Y-126783214D01*
X126442288Y-126839239D01*
%TO.C,R55*%
X163247236Y-107567838D02*
X162855060Y-107007587D01*
X162574935Y-107567838D02*
X162574935Y-106391310D01*
X163023136Y-106391310D01*
X163135186Y-106447336D01*
X163191211Y-106503361D01*
X163247236Y-106615411D01*
X163247236Y-106783486D01*
X163191211Y-106895537D01*
X163135186Y-106951562D01*
X163023136Y-107007587D01*
X162574935Y-107007587D01*
X164311714Y-106391310D02*
X163751463Y-106391310D01*
X163695438Y-106951562D01*
X163751463Y-106895537D01*
X163863513Y-106839512D01*
X164143639Y-106839512D01*
X164255689Y-106895537D01*
X164311714Y-106951562D01*
X164367739Y-107063612D01*
X164367739Y-107343738D01*
X164311714Y-107455788D01*
X164255689Y-107511813D01*
X164143639Y-107567838D01*
X163863513Y-107567838D01*
X163751463Y-107511813D01*
X163695438Y-107455788D01*
X165432217Y-106391310D02*
X164871966Y-106391310D01*
X164815940Y-106951562D01*
X164871966Y-106895537D01*
X164984016Y-106839512D01*
X165264142Y-106839512D01*
X165376192Y-106895537D01*
X165432217Y-106951562D01*
X165488242Y-107063612D01*
X165488242Y-107343738D01*
X165432217Y-107455788D01*
X165376192Y-107511813D01*
X165264142Y-107567838D01*
X164984016Y-107567838D01*
X164871966Y-107511813D01*
X164815940Y-107455788D01*
%TO.C,R13*%
X124014338Y-115801415D02*
X123454087Y-116193591D01*
X124014338Y-116473717D02*
X122837810Y-116473717D01*
X122837810Y-116025516D01*
X122893836Y-115913466D01*
X122949861Y-115857440D01*
X123061911Y-115801415D01*
X123229986Y-115801415D01*
X123342037Y-115857440D01*
X123398062Y-115913466D01*
X123454087Y-116025516D01*
X123454087Y-116473717D01*
X124014338Y-114680912D02*
X124014338Y-115353214D01*
X124014338Y-115017063D02*
X122837810Y-115017063D01*
X123005886Y-115129114D01*
X123117936Y-115241164D01*
X123173961Y-115353214D01*
X122837810Y-114288736D02*
X122837810Y-113560410D01*
X123286012Y-113952586D01*
X123286012Y-113784510D01*
X123342037Y-113672460D01*
X123398062Y-113616435D01*
X123510112Y-113560410D01*
X123790238Y-113560410D01*
X123902288Y-113616435D01*
X123958313Y-113672460D01*
X124014338Y-113784510D01*
X124014338Y-114120661D01*
X123958313Y-114232711D01*
X123902288Y-114288736D01*
%TO.C,R34*%
X149414338Y-127231415D02*
X148854087Y-127623591D01*
X149414338Y-127903717D02*
X148237810Y-127903717D01*
X148237810Y-127455516D01*
X148293836Y-127343466D01*
X148349861Y-127287440D01*
X148461911Y-127231415D01*
X148629986Y-127231415D01*
X148742037Y-127287440D01*
X148798062Y-127343466D01*
X148854087Y-127455516D01*
X148854087Y-127903717D01*
X148237810Y-126839239D02*
X148237810Y-126110912D01*
X148686012Y-126503088D01*
X148686012Y-126335013D01*
X148742037Y-126222963D01*
X148798062Y-126166938D01*
X148910112Y-126110912D01*
X149190238Y-126110912D01*
X149302288Y-126166938D01*
X149358313Y-126222963D01*
X149414338Y-126335013D01*
X149414338Y-126671164D01*
X149358313Y-126783214D01*
X149302288Y-126839239D01*
X148629986Y-125102460D02*
X149414338Y-125102460D01*
X148181785Y-125382586D02*
X149022162Y-125662711D01*
X149022162Y-124934384D01*
%TO.C,R38*%
X167702338Y-127231415D02*
X167142087Y-127623591D01*
X167702338Y-127903717D02*
X166525810Y-127903717D01*
X166525810Y-127455516D01*
X166581836Y-127343466D01*
X166637861Y-127287440D01*
X166749911Y-127231415D01*
X166917986Y-127231415D01*
X167030037Y-127287440D01*
X167086062Y-127343466D01*
X167142087Y-127455516D01*
X167142087Y-127903717D01*
X166525810Y-126839239D02*
X166525810Y-126110912D01*
X166974012Y-126503088D01*
X166974012Y-126335013D01*
X167030037Y-126222963D01*
X167086062Y-126166938D01*
X167198112Y-126110912D01*
X167478238Y-126110912D01*
X167590288Y-126166938D01*
X167646313Y-126222963D01*
X167702338Y-126335013D01*
X167702338Y-126671164D01*
X167646313Y-126783214D01*
X167590288Y-126839239D01*
X167030037Y-125438611D02*
X166974012Y-125550661D01*
X166917986Y-125606686D01*
X166805936Y-125662711D01*
X166749911Y-125662711D01*
X166637861Y-125606686D01*
X166581836Y-125550661D01*
X166525810Y-125438611D01*
X166525810Y-125214510D01*
X166581836Y-125102460D01*
X166637861Y-125046435D01*
X166749911Y-124990410D01*
X166805936Y-124990410D01*
X166917986Y-125046435D01*
X166974012Y-125102460D01*
X167030037Y-125214510D01*
X167030037Y-125438611D01*
X167086062Y-125550661D01*
X167142087Y-125606686D01*
X167254137Y-125662711D01*
X167478238Y-125662711D01*
X167590288Y-125606686D01*
X167646313Y-125550661D01*
X167702338Y-125438611D01*
X167702338Y-125214510D01*
X167646313Y-125102460D01*
X167590288Y-125046435D01*
X167478238Y-124990410D01*
X167254137Y-124990410D01*
X167142087Y-125046435D01*
X167086062Y-125102460D01*
X167030037Y-125214510D01*
%TO.C,R19*%
X156018338Y-115801415D02*
X155458087Y-116193591D01*
X156018338Y-116473717D02*
X154841810Y-116473717D01*
X154841810Y-116025516D01*
X154897836Y-115913466D01*
X154953861Y-115857440D01*
X155065911Y-115801415D01*
X155233986Y-115801415D01*
X155346037Y-115857440D01*
X155402062Y-115913466D01*
X155458087Y-116025516D01*
X155458087Y-116473717D01*
X156018338Y-114680912D02*
X156018338Y-115353214D01*
X156018338Y-115017063D02*
X154841810Y-115017063D01*
X155009886Y-115129114D01*
X155121936Y-115241164D01*
X155177961Y-115353214D01*
X156018338Y-114120661D02*
X156018338Y-113896560D01*
X155962313Y-113784510D01*
X155906288Y-113728485D01*
X155738213Y-113616435D01*
X155514112Y-113560410D01*
X155065911Y-113560410D01*
X154953861Y-113616435D01*
X154897836Y-113672460D01*
X154841810Y-113784510D01*
X154841810Y-114008611D01*
X154897836Y-114120661D01*
X154953861Y-114176686D01*
X155065911Y-114232711D01*
X155346037Y-114232711D01*
X155458087Y-114176686D01*
X155514112Y-114120661D01*
X155570137Y-114008611D01*
X155570137Y-113784510D01*
X155514112Y-113672460D01*
X155458087Y-113616435D01*
X155346037Y-113560410D01*
%TO.C,R21*%
X158304338Y-115801415D02*
X157744087Y-116193591D01*
X158304338Y-116473717D02*
X157127810Y-116473717D01*
X157127810Y-116025516D01*
X157183836Y-115913466D01*
X157239861Y-115857440D01*
X157351911Y-115801415D01*
X157519986Y-115801415D01*
X157632037Y-115857440D01*
X157688062Y-115913466D01*
X157744087Y-116025516D01*
X157744087Y-116473717D01*
X157239861Y-115353214D02*
X157183836Y-115297189D01*
X157127810Y-115185139D01*
X157127810Y-114905013D01*
X157183836Y-114792963D01*
X157239861Y-114736938D01*
X157351911Y-114680912D01*
X157463961Y-114680912D01*
X157632037Y-114736938D01*
X158304338Y-115409239D01*
X158304338Y-114680912D01*
X158304338Y-113560410D02*
X158304338Y-114232711D01*
X158304338Y-113896560D02*
X157127810Y-113896560D01*
X157295886Y-114008611D01*
X157407936Y-114120661D01*
X157463961Y-114232711D01*
%TO.C,R18*%
X153732338Y-115801415D02*
X153172087Y-116193591D01*
X153732338Y-116473717D02*
X152555810Y-116473717D01*
X152555810Y-116025516D01*
X152611836Y-115913466D01*
X152667861Y-115857440D01*
X152779911Y-115801415D01*
X152947986Y-115801415D01*
X153060037Y-115857440D01*
X153116062Y-115913466D01*
X153172087Y-116025516D01*
X153172087Y-116473717D01*
X153732338Y-114680912D02*
X153732338Y-115353214D01*
X153732338Y-115017063D02*
X152555810Y-115017063D01*
X152723886Y-115129114D01*
X152835936Y-115241164D01*
X152891961Y-115353214D01*
X153060037Y-114008611D02*
X153004012Y-114120661D01*
X152947986Y-114176686D01*
X152835936Y-114232711D01*
X152779911Y-114232711D01*
X152667861Y-114176686D01*
X152611836Y-114120661D01*
X152555810Y-114008611D01*
X152555810Y-113784510D01*
X152611836Y-113672460D01*
X152667861Y-113616435D01*
X152779911Y-113560410D01*
X152835936Y-113560410D01*
X152947986Y-113616435D01*
X153004012Y-113672460D01*
X153060037Y-113784510D01*
X153060037Y-114008611D01*
X153116062Y-114120661D01*
X153172087Y-114176686D01*
X153284137Y-114232711D01*
X153508238Y-114232711D01*
X153620288Y-114176686D01*
X153676313Y-114120661D01*
X153732338Y-114008611D01*
X153732338Y-113784510D01*
X153676313Y-113672460D01*
X153620288Y-113616435D01*
X153508238Y-113560410D01*
X153284137Y-113560410D01*
X153172087Y-113616435D01*
X153116062Y-113672460D01*
X153060037Y-113784510D01*
%TO.C,C6*%
X164034288Y-92560415D02*
X164090313Y-92616440D01*
X164146338Y-92784516D01*
X164146338Y-92896566D01*
X164090313Y-93064642D01*
X163978263Y-93176692D01*
X163866213Y-93232717D01*
X163642112Y-93288742D01*
X163474037Y-93288742D01*
X163249936Y-93232717D01*
X163137886Y-93176692D01*
X163025836Y-93064642D01*
X162969810Y-92896566D01*
X162969810Y-92784516D01*
X163025836Y-92616440D01*
X163081861Y-92560415D01*
X162969810Y-91551963D02*
X162969810Y-91776063D01*
X163025836Y-91888114D01*
X163081861Y-91944139D01*
X163249936Y-92056189D01*
X163474037Y-92112214D01*
X163922238Y-92112214D01*
X164034288Y-92056189D01*
X164090313Y-92000164D01*
X164146338Y-91888114D01*
X164146338Y-91664013D01*
X164090313Y-91551963D01*
X164034288Y-91495938D01*
X163922238Y-91439912D01*
X163642112Y-91439912D01*
X163530062Y-91495938D01*
X163474037Y-91551963D01*
X163418012Y-91664013D01*
X163418012Y-91888114D01*
X163474037Y-92000164D01*
X163530062Y-92056189D01*
X163642112Y-92112214D01*
%TO.C,R22*%
X160590338Y-115801415D02*
X160030087Y-116193591D01*
X160590338Y-116473717D02*
X159413810Y-116473717D01*
X159413810Y-116025516D01*
X159469836Y-115913466D01*
X159525861Y-115857440D01*
X159637911Y-115801415D01*
X159805986Y-115801415D01*
X159918037Y-115857440D01*
X159974062Y-115913466D01*
X160030087Y-116025516D01*
X160030087Y-116473717D01*
X159525861Y-115353214D02*
X159469836Y-115297189D01*
X159413810Y-115185139D01*
X159413810Y-114905013D01*
X159469836Y-114792963D01*
X159525861Y-114736938D01*
X159637911Y-114680912D01*
X159749961Y-114680912D01*
X159918037Y-114736938D01*
X160590338Y-115409239D01*
X160590338Y-114680912D01*
X159525861Y-114232711D02*
X159469836Y-114176686D01*
X159413810Y-114064636D01*
X159413810Y-113784510D01*
X159469836Y-113672460D01*
X159525861Y-113616435D01*
X159637911Y-113560410D01*
X159749961Y-113560410D01*
X159918037Y-113616435D01*
X160590338Y-114288736D01*
X160590338Y-113560410D01*
%TO.C,R10*%
X146874338Y-115801415D02*
X146314087Y-116193591D01*
X146874338Y-116473717D02*
X145697810Y-116473717D01*
X145697810Y-116025516D01*
X145753836Y-115913466D01*
X145809861Y-115857440D01*
X145921911Y-115801415D01*
X146089986Y-115801415D01*
X146202037Y-115857440D01*
X146258062Y-115913466D01*
X146314087Y-116025516D01*
X146314087Y-116473717D01*
X146874338Y-114680912D02*
X146874338Y-115353214D01*
X146874338Y-115017063D02*
X145697810Y-115017063D01*
X145865886Y-115129114D01*
X145977936Y-115241164D01*
X146033961Y-115353214D01*
X145697810Y-113952586D02*
X145697810Y-113840535D01*
X145753836Y-113728485D01*
X145809861Y-113672460D01*
X145921911Y-113616435D01*
X146146012Y-113560410D01*
X146426137Y-113560410D01*
X146650238Y-113616435D01*
X146762288Y-113672460D01*
X146818313Y-113728485D01*
X146874338Y-113840535D01*
X146874338Y-113952586D01*
X146818313Y-114064636D01*
X146762288Y-114120661D01*
X146650238Y-114176686D01*
X146426137Y-114232711D01*
X146146012Y-114232711D01*
X145921911Y-114176686D01*
X145809861Y-114120661D01*
X145753836Y-114064636D01*
X145697810Y-113952586D01*
%TO.C,C19*%
X163374236Y-103391788D02*
X163318211Y-103447813D01*
X163150136Y-103503838D01*
X163038086Y-103503838D01*
X162870010Y-103447813D01*
X162757960Y-103335763D01*
X162701935Y-103223713D01*
X162645910Y-102999612D01*
X162645910Y-102831537D01*
X162701935Y-102607436D01*
X162757960Y-102495386D01*
X162870010Y-102383336D01*
X163038086Y-102327310D01*
X163150136Y-102327310D01*
X163318211Y-102383336D01*
X163374236Y-102439361D01*
X164494739Y-103503838D02*
X163822438Y-103503838D01*
X164158588Y-103503838D02*
X164158588Y-102327310D01*
X164046538Y-102495386D01*
X163934488Y-102607436D01*
X163822438Y-102663461D01*
X165054991Y-103503838D02*
X165279091Y-103503838D01*
X165391142Y-103447813D01*
X165447167Y-103391788D01*
X165559217Y-103223713D01*
X165615242Y-102999612D01*
X165615242Y-102551411D01*
X165559217Y-102439361D01*
X165503192Y-102383336D01*
X165391142Y-102327310D01*
X165167041Y-102327310D01*
X165054991Y-102383336D01*
X164998966Y-102439361D01*
X164942940Y-102551411D01*
X164942940Y-102831537D01*
X164998966Y-102943587D01*
X165054991Y-102999612D01*
X165167041Y-103055637D01*
X165391142Y-103055637D01*
X165503192Y-102999612D01*
X165559217Y-102943587D01*
X165615242Y-102831537D01*
%TO.C,C2*%
X155525288Y-94719415D02*
X155581313Y-94775440D01*
X155637338Y-94943516D01*
X155637338Y-95055566D01*
X155581313Y-95223642D01*
X155469263Y-95335692D01*
X155357213Y-95391717D01*
X155133112Y-95447742D01*
X154965037Y-95447742D01*
X154740936Y-95391717D01*
X154628886Y-95335692D01*
X154516836Y-95223642D01*
X154460810Y-95055566D01*
X154460810Y-94943516D01*
X154516836Y-94775440D01*
X154572861Y-94719415D01*
X154572861Y-94271214D02*
X154516836Y-94215189D01*
X154460810Y-94103139D01*
X154460810Y-93823013D01*
X154516836Y-93710963D01*
X154572861Y-93654938D01*
X154684911Y-93598912D01*
X154796961Y-93598912D01*
X154965037Y-93654938D01*
X155637338Y-94327239D01*
X155637338Y-93598912D01*
D18*
%TO.C,U$11*%
X152187100Y-120335600D02*
X149387100Y-120335600D01*
X152187100Y-119135600D02*
X152187100Y-120335600D01*
X149387100Y-120335600D02*
X149387100Y-119135600D01*
X149387100Y-119135600D02*
X152187100Y-119135600D01*
D19*
%TO.C,R35*%
X156832100Y-127050600D02*
X156832100Y-124079600D01*
X153886100Y-127050600D02*
X153886100Y-124079600D01*
%TO.C,PROG1*%
X152311100Y-94208600D02*
X152311100Y-95478600D01*
X147231100Y-95478600D02*
X146596100Y-96113600D01*
X154216100Y-93573600D02*
X154851100Y-94208600D01*
X152311100Y-95478600D02*
X151676100Y-96113600D01*
X145326100Y-93573600D02*
X146596100Y-93573600D01*
X154851100Y-95478600D02*
X154216100Y-96113600D01*
X144056100Y-93573600D02*
X144691100Y-94208600D01*
X149136100Y-96113600D02*
X147866100Y-96113600D01*
X142151100Y-94208600D02*
X142151100Y-95478600D01*
X147231100Y-94208600D02*
X147231100Y-95478600D01*
X149771100Y-94208600D02*
X149771100Y-95478600D01*
X146596100Y-96113600D02*
X145326100Y-96113600D01*
X142151100Y-95478600D02*
X142786100Y-96113600D01*
X154216100Y-96113600D02*
X152946100Y-96113600D01*
X147866100Y-96113600D02*
X147231100Y-95478600D01*
X154851100Y-94208600D02*
X154851100Y-95478600D01*
X150406100Y-93573600D02*
X149771100Y-94208600D01*
X146596100Y-93573600D02*
X147231100Y-94208600D01*
X151676100Y-96113600D02*
X150406100Y-96113600D01*
X152311100Y-95478600D02*
X152946100Y-96113600D01*
X150406100Y-93573600D02*
X151676100Y-93573600D01*
X145326100Y-96113600D02*
X144691100Y-95478600D01*
X144691100Y-94208600D02*
X144691100Y-95478600D01*
X149771100Y-95478600D02*
X150406100Y-96113600D01*
X142786100Y-93573600D02*
X144056100Y-93573600D01*
X147866100Y-93573600D02*
X149136100Y-93573600D01*
X152946100Y-93573600D02*
X152311100Y-94208600D01*
X144056100Y-96113600D02*
X142786100Y-96113600D01*
X149136100Y-93573600D02*
X149771100Y-94208600D01*
X144691100Y-94208600D02*
X145326100Y-93573600D01*
X149771100Y-95478600D02*
X149136100Y-96113600D01*
X152946100Y-93573600D02*
X154216100Y-93573600D01*
X151676100Y-93573600D02*
X152311100Y-94208600D01*
X147231100Y-94208600D02*
X147866100Y-93573600D01*
X142786100Y-93573600D02*
X142151100Y-94208600D01*
X144691100Y-95478600D02*
X144056100Y-96113600D01*
D20*
%TO.C,LD1*%
X163156900Y-88239600D02*
X162598100Y-88239600D01*
X160820100Y-88239600D02*
X160261300Y-88239600D01*
D19*
X162572700Y-88087200D02*
G75*
G03*
X162572700Y-83312000I-863600J2387600D01*
G01*
X160845500Y-83312000D02*
G75*
G03*
X160845500Y-88087200I863600J-2387600D01*
G01*
D20*
X163156898Y-88239601D02*
G75*
G03*
X162572500Y-82906300I-1447499J2540058D01*
G01*
X160845500Y-82905600D02*
G75*
G03*
X160260899Y-88240298I863800J-2794040D01*
G01*
D19*
%TO.C,IC2*%
X163219500Y-90439200D02*
X163219500Y-93152000D01*
X158674700Y-93152000D02*
X158674700Y-90439200D01*
X162210700Y-90439200D02*
X163219500Y-90439200D01*
X158674700Y-90439200D02*
X159733500Y-90439200D01*
X160369500Y-93160000D02*
X160010700Y-93160000D01*
X161869500Y-93160000D02*
X161510700Y-93160000D01*
D18*
%TO.C,U$13*%
X161331100Y-119135600D02*
X161331100Y-120335600D01*
X161331100Y-120335600D02*
X158531100Y-120335600D01*
X158531100Y-120335600D02*
X158531100Y-119135600D01*
X158531100Y-119135600D02*
X161331100Y-119135600D01*
D19*
%TO.C,R31*%
X135598100Y-127050600D02*
X135598100Y-124079600D01*
X138544100Y-127050600D02*
X138544100Y-124079600D01*
%TO.C,R30*%
X133972100Y-127050600D02*
X133972100Y-124079600D01*
X131026100Y-127050600D02*
X131026100Y-124079600D01*
D18*
%TO.C,U$9*%
X143043100Y-120335600D02*
X140243100Y-120335600D01*
X140243100Y-119135600D02*
X143043100Y-119135600D01*
X140243100Y-120335600D02*
X140243100Y-119135600D01*
X143043100Y-119135600D02*
X143043100Y-120335600D01*
%TO.C,U$17*%
X175047100Y-120335600D02*
X172247100Y-120335600D01*
X172247100Y-119135600D02*
X175047100Y-119135600D01*
X172247100Y-120335600D02*
X172247100Y-119135600D01*
X175047100Y-119135600D02*
X175047100Y-120335600D01*
%TO.C,U$3*%
X150993100Y-91358600D02*
X144493100Y-91358600D01*
X144493100Y-91358600D02*
X144493100Y-84358600D01*
X151493100Y-84358600D02*
X151493100Y-90858600D01*
X151493100Y-90858600D02*
X150993100Y-91358600D01*
X144493100Y-84358600D02*
X151493100Y-84358600D01*
X150893100Y-90358600D02*
G75*
G03*
X150893100Y-90358600I-400000J0D01*
G01*
D19*
%TO.C,R17*%
X121882100Y-127050600D02*
X121882100Y-124079600D01*
X124828100Y-127050600D02*
X124828100Y-124079600D01*
D18*
%TO.C,U$5*%
X129327100Y-119135600D02*
X129327100Y-120335600D01*
X129327100Y-120335600D02*
X126527100Y-120335600D01*
X126527100Y-120335600D02*
X126527100Y-119135600D01*
X126527100Y-119135600D02*
X129327100Y-119135600D01*
%TO.C,U$14*%
X129451100Y-94970600D02*
X139611100Y-94970600D01*
X139611100Y-102590600D02*
X129451100Y-102590600D01*
X129451100Y-102590600D02*
X129451100Y-94970600D01*
X139611100Y-94970600D02*
X139611100Y-102590600D01*
X138976100Y-96240600D02*
G75*
G03*
X138976100Y-96240600I-635000J0D01*
G01*
D19*
%TO.C,R36*%
X161404100Y-127050600D02*
X161404100Y-124079600D01*
X158458100Y-127050600D02*
X158458100Y-124079600D01*
D18*
%TO.C,U$2*%
X116371100Y-80517600D02*
X125571100Y-80517600D01*
X125571100Y-99517600D02*
X116371100Y-99517600D01*
X125571100Y-80517600D02*
X125571100Y-99517600D01*
X116371100Y-99517600D02*
X116371100Y-80517600D01*
%TO.C,U$12*%
X153959100Y-119135600D02*
X156759100Y-119135600D01*
X156759100Y-120335600D02*
X153959100Y-120335600D01*
X153959100Y-120335600D02*
X153959100Y-119135600D01*
X156759100Y-119135600D02*
X156759100Y-120335600D01*
%TO.C,U$10*%
X144815100Y-119135600D02*
X147615100Y-119135600D01*
X144815100Y-120335600D02*
X144815100Y-119135600D01*
X147615100Y-120335600D02*
X144815100Y-120335600D01*
X147615100Y-119135600D02*
X147615100Y-120335600D01*
%TO.C,U$16*%
X170475100Y-120335600D02*
X167675100Y-120335600D01*
X167675100Y-119135600D02*
X170475100Y-119135600D01*
X167675100Y-120335600D02*
X167675100Y-119135600D01*
X170475100Y-119135600D02*
X170475100Y-120335600D01*
D19*
%TO.C,R33*%
X147688100Y-127050600D02*
X147688100Y-124079600D01*
X144742100Y-127050600D02*
X144742100Y-124079600D01*
D18*
%TO.C,U$31*%
X130213100Y-90779600D02*
X130213100Y-81889600D01*
X131483100Y-80619600D02*
X140373100Y-80619600D01*
X140373100Y-80619600D02*
X140373100Y-90779600D01*
X140373100Y-90779600D02*
X130213100Y-90779600D01*
X130213100Y-81889600D02*
X131483100Y-80619600D01*
%TO.C,SN65*%
X153581100Y-83286600D02*
X153581100Y-79476600D01*
X158661100Y-83286600D02*
X158661100Y-79476600D01*
X154597100Y-82651600D02*
G75*
G03*
X154597100Y-82651600I-381000J0D01*
G01*
%TO.C,U$7*%
X133899100Y-120335600D02*
X131099100Y-120335600D01*
X133899100Y-119135600D02*
X133899100Y-120335600D01*
X131099100Y-120335600D02*
X131099100Y-119135600D01*
X131099100Y-119135600D02*
X133899100Y-119135600D01*
D19*
%TO.C,R37*%
X165976100Y-127050600D02*
X165976100Y-124079600D01*
X163030100Y-127050600D02*
X163030100Y-124079600D01*
D18*
%TO.C,U$4*%
X121955100Y-120335600D02*
X121955100Y-119135600D01*
X121955100Y-119135600D02*
X124755100Y-119135600D01*
X124755100Y-120335600D02*
X121955100Y-120335600D01*
X124755100Y-119135600D02*
X124755100Y-120335600D01*
D19*
%TO.C,R32*%
X143116100Y-127050600D02*
X143116100Y-124079600D01*
X140170100Y-127050600D02*
X140170100Y-124079600D01*
D18*
%TO.C,U$28*%
X166281100Y-93573600D02*
X166281100Y-90525600D01*
X167805100Y-90525600D02*
X167805100Y-93573600D01*
X166281100Y-90525600D02*
X167805100Y-90525600D01*
X167805100Y-93573600D02*
X166281100Y-93573600D01*
%TO.C,U$21*%
X116371100Y-99483600D02*
X125571100Y-99483600D01*
X125571100Y-107983600D02*
X116371100Y-107983600D01*
X116371100Y-107983600D02*
X116371100Y-99483600D01*
X125571100Y-99483600D02*
X125571100Y-107983600D01*
%TO.C,U$15*%
X163103100Y-119135600D02*
X165903100Y-119135600D01*
X165903100Y-119135600D02*
X165903100Y-120335600D01*
X165903100Y-120335600D02*
X163103100Y-120335600D01*
X163103100Y-120335600D02*
X163103100Y-119135600D01*
%TO.C,U$1*%
X142251100Y-102630600D02*
X154751100Y-102630600D01*
X142251100Y-107630600D02*
X142251100Y-102630600D01*
X154751100Y-102630600D02*
X154751100Y-107630600D01*
X154751100Y-107630600D02*
X142251100Y-107630600D01*
X143501100Y-106630600D02*
G75*
G03*
X143501100Y-106630600I-500000J0D01*
G01*
D19*
%TO.C,R39*%
X172174100Y-127050600D02*
X172174100Y-124079600D01*
X175120100Y-127050600D02*
X175120100Y-124079600D01*
D21*
%TO.C,Q1*%
X149877100Y-79557600D02*
X149877100Y-80157600D01*
X144077100Y-80157600D02*
X144077100Y-79557600D01*
X148027100Y-81507600D02*
X145927100Y-81507600D01*
X145927100Y-78207600D02*
X148027100Y-78207600D01*
D22*
X145018100Y-80057600D02*
G75*
G03*
X145018100Y-80057600I-91000J0D01*
G01*
D18*
%TO.C,U$20*%
X180631100Y-107983600D02*
X171431100Y-107983600D01*
X180631100Y-99483600D02*
X180631100Y-107983600D01*
X171431100Y-99483600D02*
X180631100Y-99483600D01*
X171431100Y-107983600D02*
X171431100Y-99483600D01*
%TO.C,U$8*%
X135671100Y-120335600D02*
X135671100Y-119135600D01*
X135671100Y-119135600D02*
X138471100Y-119135600D01*
X138471100Y-119135600D02*
X138471100Y-120335600D01*
X138471100Y-120335600D02*
X135671100Y-120335600D01*
D19*
%TO.C,R3*%
X126454100Y-127050600D02*
X126454100Y-124079600D01*
X129400100Y-127050600D02*
X129400100Y-124079600D01*
%TO.C,R34*%
X149314100Y-127050600D02*
X149314100Y-124079600D01*
X152260100Y-127050600D02*
X152260100Y-124079600D01*
%TO.C,R38*%
X167602100Y-127050600D02*
X167602100Y-124079600D01*
X170548100Y-127050600D02*
X170548100Y-124079600D01*
D18*
%TO.C,U$6*%
X128308100Y-106781600D02*
X128308100Y-109829600D01*
X126784100Y-109829600D02*
X126784100Y-106781600D01*
X128308100Y-109829600D02*
X126784100Y-109829600D01*
X126784100Y-106781600D02*
X128308100Y-106781600D01*
%TO.C,U$19*%
X171431100Y-99517600D02*
X171431100Y-80517600D01*
X180631100Y-80517600D02*
X180631100Y-99517600D01*
X171431100Y-80517600D02*
X180631100Y-80517600D01*
X180631100Y-99517600D02*
X171431100Y-99517600D01*
%TO.C,U$18*%
X125001100Y-140173600D02*
X125001100Y-130673600D01*
X125001100Y-130673600D02*
X172001100Y-130673600D01*
X172001100Y-140173600D02*
X125001100Y-140173600D01*
X172001100Y-130673600D02*
X172001100Y-140173600D01*
%TD*%
M02*
