%TF.GenerationSoftware,KiCad,Pcbnew,(6.0.10)*%
%TF.CreationDate,2023-01-23T12:48:01+01:00*%
%TF.ProjectId,BMS12v3,424d5331-3276-4332-9e6b-696361645f70,rev?*%
%TF.SameCoordinates,Original*%
%TF.FileFunction,Soldermask,Bot*%
%TF.FilePolarity,Negative*%
%FSLAX46Y46*%
G04 Gerber Fmt 4.6, Leading zero omitted, Abs format (unit mm)*
G04 Created by KiCad (PCBNEW (6.0.10)) date 2023-01-23 12:48:01*
%MOMM*%
%LPD*%
G01*
G04 APERTURE LIST*
G04 Aperture macros list*
%AMRoundRect*
0 Rectangle with rounded corners*
0 $1 Rounding radius*
0 $2 $3 $4 $5 $6 $7 $8 $9 X,Y pos of 4 corners*
0 Add a 4 corners polygon primitive as box body*
4,1,4,$2,$3,$4,$5,$6,$7,$8,$9,$2,$3,0*
0 Add four circle primitives for the rounded corners*
1,1,$1+$1,$2,$3*
1,1,$1+$1,$4,$5*
1,1,$1+$1,$6,$7*
1,1,$1+$1,$8,$9*
0 Add four rect primitives between the rounded corners*
20,1,$1+$1,$2,$3,$4,$5,0*
20,1,$1+$1,$4,$5,$6,$7,0*
20,1,$1+$1,$6,$7,$8,$9,0*
20,1,$1+$1,$8,$9,$2,$3,0*%
G04 Aperture macros list end*
%ADD10O,1.727200X3.251200*%
%ADD11C,3.000000*%
%ADD12O,2.844800X1.524000*%
%ADD13RoundRect,0.101600X0.975000X-0.975000X0.975000X0.975000X-0.975000X0.975000X-0.975000X-0.975000X0*%
%ADD14RoundRect,0.101600X-0.654000X-0.654000X0.654000X-0.654000X0.654000X0.654000X-0.654000X0.654000X0*%
%ADD15RoundRect,0.101600X-0.975000X0.975000X-0.975000X-0.975000X0.975000X-0.975000X0.975000X0.975000X0*%
%ADD16RoundRect,0.101600X-0.900000X-0.900000X0.900000X-0.900000X0.900000X0.900000X-0.900000X0.900000X0*%
G04 APERTURE END LIST*
D10*
%TO.C,PROG1*%
X143421100Y-94843600D03*
X145961100Y-94843600D03*
X148501100Y-94843600D03*
X151041100Y-94843600D03*
X153581100Y-94843600D03*
%TD*%
D11*
%TO.C,@HOLE0*%
X121500900Y-111353600D03*
%TD*%
D12*
%TO.C,LD1*%
X161709100Y-88239600D03*
X161709100Y-83159600D03*
X161709100Y-85699600D03*
%TD*%
D13*
%TO.C,U$2*%
X124371100Y-97017600D03*
X124371100Y-93517600D03*
X124371100Y-90017600D03*
X124371100Y-86517600D03*
X124371100Y-83017600D03*
%TD*%
D14*
%TO.C,U$31*%
X131483100Y-83159600D03*
X139103100Y-88239600D03*
X131483100Y-88239600D03*
X139103100Y-83159600D03*
X131483100Y-85699600D03*
X139103100Y-85699600D03*
%TD*%
D11*
%TO.C,@HOLE1*%
X175501300Y-111353600D03*
%TD*%
D13*
%TO.C,U$21*%
X124371100Y-105483600D03*
X124371100Y-101983600D03*
%TD*%
D15*
%TO.C,U$20*%
X172631100Y-101983600D03*
X172631100Y-105483600D03*
%TD*%
%TO.C,U$19*%
X172631100Y-83017600D03*
X172631100Y-86517600D03*
X172631100Y-90017600D03*
X172631100Y-93517600D03*
X172631100Y-97017600D03*
%TD*%
D16*
%TO.C,U$18*%
X127501100Y-131673600D03*
X131001100Y-131673600D03*
X134501100Y-131673600D03*
X138001100Y-131673600D03*
X141501100Y-131673600D03*
X145001100Y-131673600D03*
X148501100Y-131673600D03*
X152001100Y-131673600D03*
X155501100Y-131673600D03*
X159001100Y-131673600D03*
X162501100Y-131673600D03*
X166001100Y-131673600D03*
X169501100Y-131673600D03*
%TD*%
M02*
