%TF.GenerationSoftware,KiCad,Pcbnew,(6.0.10)*%
%TF.CreationDate,2023-01-23T12:48:01+01:00*%
%TF.ProjectId,BMS12v3,424d5331-3276-4332-9e6b-696361645f70,rev?*%
%TF.SameCoordinates,Original*%
%TF.FileFunction,Copper,L1,Top*%
%TF.FilePolarity,Positive*%
%FSLAX46Y46*%
G04 Gerber Fmt 4.6, Leading zero omitted, Abs format (unit mm)*
G04 Created by KiCad (PCBNEW (6.0.10)) date 2023-01-23 12:48:01*
%MOMM*%
%LPD*%
G01*
G04 APERTURE LIST*
%ADD10C,0.300000*%
%TA.AperFunction,NonConductor*%
%ADD11C,0.300000*%
%TD*%
%TA.AperFunction,NonConductor*%
%ADD12C,0.200000*%
%TD*%
%TA.AperFunction,SMDPad,CuDef*%
%ADD13R,1.500000X1.300000*%
%TD*%
%TA.AperFunction,SMDPad,CuDef*%
%ADD14R,0.635000X1.270000*%
%TD*%
%TA.AperFunction,SMDPad,CuDef*%
%ADD15R,3.200000X1.800000*%
%TD*%
%TA.AperFunction,SMDPad,CuDef*%
%ADD16R,1.300000X1.500000*%
%TD*%
%TA.AperFunction,ComponentPad*%
%ADD17O,1.524000X3.048000*%
%TD*%
%TA.AperFunction,ComponentPad*%
%ADD18O,2.641600X1.320800*%
%TD*%
%TA.AperFunction,SMDPad,CuDef*%
%ADD19R,0.700000X1.100000*%
%TD*%
%TA.AperFunction,SMDPad,CuDef*%
%ADD20R,0.700000X1.800000*%
%TD*%
%TA.AperFunction,SMDPad,CuDef*%
%ADD21R,2.000000X2.800000*%
%TD*%
%TA.AperFunction,SMDPad,CuDef*%
%ADD22R,1.200000X0.400000*%
%TD*%
%TA.AperFunction,SMDPad,CuDef*%
%ADD23R,0.400000X1.200000*%
%TD*%
%TA.AperFunction,SMDPad,CuDef*%
%ADD24R,0.711200X1.524000*%
%TD*%
%TA.AperFunction,ComponentPad*%
%ADD25R,1.950000X1.950000*%
%TD*%
%TA.AperFunction,ComponentPad*%
%ADD26R,1.308000X1.308000*%
%TD*%
%TA.AperFunction,SMDPad,CuDef*%
%ADD27R,1.600000X1.600000*%
%TD*%
%TA.AperFunction,SMDPad,CuDef*%
%ADD28R,1.400000X1.400000*%
%TD*%
%TA.AperFunction,SMDPad,CuDef*%
%ADD29R,0.250000X1.250000*%
%TD*%
%TA.AperFunction,SMDPad,CuDef*%
%ADD30R,1.900000X1.400000*%
%TD*%
%TA.AperFunction,SMDPad,CuDef*%
%ADD31R,1.800000X1.600000*%
%TD*%
%TA.AperFunction,ComponentPad*%
%ADD32R,1.800000X1.800000*%
%TD*%
%TA.AperFunction,ViaPad*%
%ADD33C,1.006400*%
%TD*%
%TA.AperFunction,Conductor*%
%ADD34C,0.609600*%
%TD*%
%TA.AperFunction,Conductor*%
%ADD35C,0.254000*%
%TD*%
%TA.AperFunction,Conductor*%
%ADD36C,0.304800*%
%TD*%
%TA.AperFunction,Conductor*%
%ADD37C,0.406400*%
%TD*%
G04 APERTURE END LIST*
D10*
D11*
X190418571Y-110354285D02*
X190418571Y-110640000D01*
X190490000Y-110782857D01*
X190561428Y-110854285D01*
X190775714Y-110997142D01*
X191061428Y-111068571D01*
X191632857Y-111068571D01*
X191775714Y-110997142D01*
X191847142Y-110925714D01*
X191918571Y-110782857D01*
X191918571Y-110497142D01*
X191847142Y-110354285D01*
X191775714Y-110282857D01*
X191632857Y-110211428D01*
X191275714Y-110211428D01*
X191132857Y-110282857D01*
X191061428Y-110354285D01*
X190990000Y-110497142D01*
X190990000Y-110782857D01*
X191061428Y-110925714D01*
X191132857Y-110997142D01*
X191275714Y-111068571D01*
X190418571Y-109282857D02*
X190418571Y-109140000D01*
X190490000Y-108997142D01*
X190561428Y-108925714D01*
X190704285Y-108854285D01*
X190990000Y-108782857D01*
X191347142Y-108782857D01*
X191632857Y-108854285D01*
X191775714Y-108925714D01*
X191847142Y-108997142D01*
X191918571Y-109140000D01*
X191918571Y-109282857D01*
X191847142Y-109425714D01*
X191775714Y-109497142D01*
X191632857Y-109568571D01*
X191347142Y-109640000D01*
X190990000Y-109640000D01*
X190704285Y-109568571D01*
X190561428Y-109497142D01*
X190490000Y-109425714D01*
X190418571Y-109282857D01*
X191847142Y-108068571D02*
X191918571Y-108068571D01*
X192061428Y-108140000D01*
X192132857Y-108211428D01*
X191918571Y-107354285D02*
X191918571Y-107068571D01*
X191847142Y-106925714D01*
X191775714Y-106854285D01*
X191561428Y-106711428D01*
X191275714Y-106640000D01*
X190704285Y-106640000D01*
X190561428Y-106711428D01*
X190490000Y-106782857D01*
X190418571Y-106925714D01*
X190418571Y-107211428D01*
X190490000Y-107354285D01*
X190561428Y-107425714D01*
X190704285Y-107497142D01*
X191061428Y-107497142D01*
X191204285Y-107425714D01*
X191275714Y-107354285D01*
X191347142Y-107211428D01*
X191347142Y-106925714D01*
X191275714Y-106782857D01*
X191204285Y-106711428D01*
X191061428Y-106640000D01*
X190418571Y-105354285D02*
X190418571Y-105640000D01*
X190490000Y-105782857D01*
X190561428Y-105854285D01*
X190775714Y-105997142D01*
X191061428Y-106068571D01*
X191632857Y-106068571D01*
X191775714Y-105997142D01*
X191847142Y-105925714D01*
X191918571Y-105782857D01*
X191918571Y-105497142D01*
X191847142Y-105354285D01*
X191775714Y-105282857D01*
X191632857Y-105211428D01*
X191275714Y-105211428D01*
X191132857Y-105282857D01*
X191061428Y-105354285D01*
X190990000Y-105497142D01*
X190990000Y-105782857D01*
X191061428Y-105925714D01*
X191132857Y-105997142D01*
X191275714Y-106068571D01*
X190418571Y-104282857D02*
X190418571Y-104140000D01*
X190490000Y-103997142D01*
X190561428Y-103925714D01*
X190704285Y-103854285D01*
X190990000Y-103782857D01*
X191347142Y-103782857D01*
X191632857Y-103854285D01*
X191775714Y-103925714D01*
X191847142Y-103997142D01*
X191918571Y-104140000D01*
X191918571Y-104282857D01*
X191847142Y-104425714D01*
X191775714Y-104497142D01*
X191632857Y-104568571D01*
X191347142Y-104640000D01*
X190990000Y-104640000D01*
X190704285Y-104568571D01*
X190561428Y-104497142D01*
X190490000Y-104425714D01*
X190418571Y-104282857D01*
X190418571Y-102854285D02*
X190418571Y-102711428D01*
X190490000Y-102568571D01*
X190561428Y-102497142D01*
X190704285Y-102425714D01*
X190990000Y-102354285D01*
X191347142Y-102354285D01*
X191632857Y-102425714D01*
X191775714Y-102497142D01*
X191847142Y-102568571D01*
X191918571Y-102711428D01*
X191918571Y-102854285D01*
X191847142Y-102997142D01*
X191775714Y-103068571D01*
X191632857Y-103140000D01*
X191347142Y-103211428D01*
X190990000Y-103211428D01*
X190704285Y-103140000D01*
X190561428Y-103068571D01*
X190490000Y-102997142D01*
X190418571Y-102854285D01*
X191918571Y-100568571D02*
X190918571Y-100568571D01*
X191061428Y-100568571D02*
X190990000Y-100497142D01*
X190918571Y-100354285D01*
X190918571Y-100140000D01*
X190990000Y-99997142D01*
X191132857Y-99925714D01*
X191918571Y-99925714D01*
X191132857Y-99925714D02*
X190990000Y-99854285D01*
X190918571Y-99711428D01*
X190918571Y-99497142D01*
X190990000Y-99354285D01*
X191132857Y-99282857D01*
X191918571Y-99282857D01*
X191918571Y-98568571D02*
X190918571Y-98568571D01*
X191061428Y-98568571D02*
X190990000Y-98497142D01*
X190918571Y-98354285D01*
X190918571Y-98140000D01*
X190990000Y-97997142D01*
X191132857Y-97925714D01*
X191918571Y-97925714D01*
X191132857Y-97925714D02*
X190990000Y-97854285D01*
X190918571Y-97711428D01*
X190918571Y-97497142D01*
X190990000Y-97354285D01*
X191132857Y-97282857D01*
X191918571Y-97282857D01*
D12*
X180840000Y-73660000D02*
X193626420Y-73660000D01*
X180840000Y-134620000D02*
X193626420Y-134620000D01*
X193040000Y-73660000D02*
X193040000Y-134620000D01*
X193040000Y-73660000D02*
X193040000Y-134620000D01*
X193040000Y-73660000D02*
X192453579Y-74786504D01*
X193040000Y-73660000D02*
X193626421Y-74786504D01*
X193040000Y-134620000D02*
X193626421Y-133493496D01*
X193040000Y-134620000D02*
X192453579Y-133493496D01*
D13*
%TO.P,R5,1,1*%
%TO.N,Net-(R30-Pad1)*%
X135928100Y-116902600D03*
%TO.P,R5,2,2*%
%TO.N,Net-(R5-Pad2)*%
X135928100Y-115202600D03*
%TD*%
D14*
%TO.P,U$11,P$1,G*%
%TO.N,Net-(R12-Pad1)*%
X151787100Y-118635600D03*
%TO.P,U$11,P$2,S*%
%TO.N,Net-(R11-Pad1)*%
X149787100Y-118635600D03*
%TO.P,U$11,P$3,D*%
%TO.N,Net-(R34-Pad2)*%
X150787100Y-120835600D03*
%TD*%
D13*
%TO.P,R9,1,1*%
%TO.N,Net-(R32-Pad1)*%
X145072100Y-116902600D03*
%TO.P,R9,2,2*%
%TO.N,Net-(R9-Pad2)*%
X145072100Y-115202600D03*
%TD*%
D15*
%TO.P,R35,1,1*%
%TO.N,Net-(R21-Pad1)*%
X155359100Y-128377600D03*
%TO.P,R35,2,2*%
%TO.N,Net-(R35-Pad2)*%
X155359100Y-122777600D03*
%TD*%
D16*
%TO.P,R14,1,1*%
%TO.N,Net-(R14-Pad1)*%
X155779100Y-87223600D03*
%TO.P,R14,2,2*%
%TO.N,Net-(LD1-PadAX)*%
X157479100Y-87223600D03*
%TD*%
D17*
%TO.P,PROG1,1,1*%
%TO.N,GND*%
X143421100Y-94843600D03*
%TO.P,PROG1,2,2*%
%TO.N,Net-(PROG1-Pad2)*%
X145961100Y-94843600D03*
%TO.P,PROG1,3,3*%
%TO.N,Net-(PROG1-Pad3)*%
X148501100Y-94843600D03*
%TO.P,PROG1,4,4*%
%TO.N,Net-(PROG1-Pad4)*%
X151041100Y-94843600D03*
%TO.P,PROG1,5,5*%
%TO.N,Net-(C2-Pad2)*%
X153581100Y-94843600D03*
%TD*%
D18*
%TO.P,LD1,AR,AR*%
%TO.N,Net-(LD1-PadAR)*%
X161709100Y-88239600D03*
%TO.P,LD1,AX,AG*%
%TO.N,Net-(LD1-PadAX)*%
X161709100Y-83159600D03*
%TO.P,LD1,C,C*%
%TO.N,GND*%
X161709100Y-85699600D03*
%TD*%
D19*
%TO.P,IC2,1,IN*%
%TO.N,Net-(C6-Pad1)*%
X162447100Y-93799600D03*
%TO.P,IC2,2,OUT*%
%TO.N,+5V*%
X159447100Y-93799600D03*
D20*
%TO.P,IC2,3*%
%TO.N,N/C*%
X160947100Y-93449600D03*
D21*
%TO.P,IC2,4,GND*%
%TO.N,GND*%
X160947100Y-91149600D03*
%TD*%
D13*
%TO.P,R4,1,1*%
%TO.N,Net-(R3-Pad1)*%
X131356100Y-116902600D03*
%TO.P,R4,2,2*%
%TO.N,Net-(R4-Pad2)*%
X131356100Y-115202600D03*
%TD*%
D16*
%TO.P,C14,1,1*%
%TO.N,Net-(C14-Pad1)*%
X156160100Y-103733600D03*
%TO.P,C14,2,2*%
%TO.N,AGND*%
X157860100Y-103733600D03*
%TD*%
%TO.P,R41,1,1*%
%TO.N,Net-(R15-Pad1)*%
X132587100Y-107289600D03*
%TO.P,R41,2,2*%
%TO.N,Net-(C3-Pad2)*%
X130887100Y-107289600D03*
%TD*%
D14*
%TO.P,U$13,P$1,G*%
%TO.N,Net-(R22-Pad1)*%
X160931100Y-118635600D03*
%TO.P,U$13,P$2,S*%
%TO.N,Net-(R21-Pad1)*%
X158931100Y-118635600D03*
%TO.P,U$13,P$3,D*%
%TO.N,Net-(R36-Pad2)*%
X159931100Y-120835600D03*
%TD*%
D15*
%TO.P,R31,1,1*%
%TO.N,Net-(R31-Pad1)*%
X137071100Y-128377600D03*
%TO.P,R31,2,2*%
%TO.N,Net-(R31-Pad2)*%
X137071100Y-122777600D03*
%TD*%
D13*
%TO.P,R24,1,1*%
%TO.N,Net-(R24-Pad1)*%
X165646100Y-116902600D03*
%TO.P,R24,2,2*%
%TO.N,Net-(R24-Pad2)*%
X165646100Y-115202600D03*
%TD*%
D15*
%TO.P,R30,1,1*%
%TO.N,Net-(R30-Pad1)*%
X132499100Y-128377600D03*
%TO.P,R30,2,2*%
%TO.N,Net-(R30-Pad2)*%
X132499100Y-122777600D03*
%TD*%
D14*
%TO.P,U$9,P$1,G*%
%TO.N,Net-(R8-Pad1)*%
X142643100Y-118635600D03*
%TO.P,U$9,P$2,S*%
%TO.N,Net-(R31-Pad1)*%
X140643100Y-118635600D03*
%TO.P,U$9,P$3,D*%
%TO.N,Net-(R32-Pad2)*%
X141643100Y-120835600D03*
%TD*%
D16*
%TO.P,R40,1,1*%
%TO.N,Net-(R40-Pad1)*%
X165861100Y-103987600D03*
%TO.P,R40,2,2*%
%TO.N,Net-(C19-Pad2)*%
X164161100Y-103987600D03*
%TD*%
%TO.P,R15,1,1*%
%TO.N,Net-(R15-Pad1)*%
X134443100Y-107289600D03*
%TO.P,R15,2,2*%
%TO.N,Net-(C14-Pad1)*%
X136143100Y-107289600D03*
%TD*%
D14*
%TO.P,U$17,P$1,G*%
%TO.N,Net-(R28-Pad1)*%
X174647100Y-118635600D03*
%TO.P,U$17,P$2,S*%
%TO.N,Net-(R27-Pad1)*%
X172647100Y-118635600D03*
%TO.P,U$17,P$3,D*%
%TO.N,Net-(R39-Pad2)*%
X173647100Y-120835600D03*
%TD*%
D13*
%TO.P,C5,1,1*%
%TO.N,Net-(C5-Pad1)*%
X142659100Y-80707600D03*
%TO.P,C5,2,2*%
%TO.N,GND*%
X142659100Y-79007600D03*
%TD*%
%TO.P,R1,1,1*%
%TO.N,Net-(R1-Pad1)*%
X126784100Y-116902600D03*
%TO.P,R1,2,2*%
%TO.N,Net-(R1-Pad2)*%
X126784100Y-115202600D03*
%TD*%
%TO.P,R8,1,1*%
%TO.N,Net-(R8-Pad1)*%
X142786100Y-116902600D03*
%TO.P,R8,2,2*%
%TO.N,Net-(R8-Pad2)*%
X142786100Y-115202600D03*
%TD*%
D22*
%TO.P,U$3,1,PD2(PSCIN2/OC1A/MISO_A)*%
%TO.N,Net-(PROG1-Pad3)*%
X152293100Y-90658600D03*
%TO.P,U$3,2,PD3(TXLIN/OC0A/SS/MOSI_A)*%
%TO.N,Net-(PROG1-Pad2)*%
X152293100Y-89858600D03*
%TO.P,U$3,3,PC1(PSCIN1/OC1B/SS_A)*%
%TO.N,Net-(R14-Pad1)*%
X152293100Y-89058600D03*
%TO.P,U$3,4,VCC*%
%TO.N,+5V*%
X152293100Y-88258600D03*
%TO.P,U$3,5,GND*%
%TO.N,GND*%
X152293100Y-87458600D03*
%TO.P,U$3,6,PC2(T0/TXCAN)*%
%TO.N,Net-(SN65-PadP$1)*%
X152293100Y-86658600D03*
%TO.P,U$3,7,PC3(T1/RXCAN/ICP1B)*%
%TO.N,Net-(SN65-PadP$4)*%
X152293100Y-85858600D03*
%TO.P,U$3,8,PB0(MISO/PSCOUT2A)*%
%TO.N,Net-(SN65-PadP$8)*%
X152293100Y-85058600D03*
D23*
%TO.P,U$3,9,PB1(MOSI/PSCOUT2B)*%
%TO.N,unconnected-(U$3-Pad9)*%
X150793100Y-83558600D03*
%TO.P,U$3,10,PE1(XTAL1/OC0B)*%
%TO.N,Net-(C4-Pad1)*%
X149993100Y-83558600D03*
%TO.P,U$3,11,PE2(XTAL2/ADC0)*%
%TO.N,Net-(C5-Pad1)*%
X149193100Y-83558600D03*
%TO.P,U$3,12,PD4(ADC1/RXD/RXLIN/ICP1A/SCK_A)*%
%TO.N,Net-(PROG1-Pad4)*%
X148393100Y-83558600D03*
%TO.P,U$3,13,PD5(ADC2/ACMP2)*%
%TO.N,unconnected-(U$3-Pad13)*%
X147593100Y-83558600D03*
%TO.P,U$3,14,PD6(ADC3/ACMPN2/INT0)*%
%TO.N,unconnected-(U$3-Pad14)*%
X146793100Y-83558600D03*
%TO.P,U$3,15,PD7(ACMP0)*%
%TO.N,Net-(U$3-Pad15)*%
X145993100Y-83558600D03*
%TO.P,U$3,16,PB2(ADC5/INT1/ACMPN0)*%
%TO.N,Net-(U$3-Pad16)*%
X145193100Y-83558600D03*
D22*
%TO.P,U$3,17,PC4(ADC8/ACMPN3/AMP1-)*%
%TO.N,Net-(U$3-Pad17)*%
X143693100Y-85058600D03*
%TO.P,U$3,18,PC5(ADC9/ACMP3/AMP1+)*%
%TO.N,Net-(U$3-Pad18)*%
X143693100Y-85858600D03*
%TO.P,U$3,19,AVCC*%
%TO.N,+5V*%
X143693100Y-86658600D03*
%TO.P,U$3,20,AGND*%
%TO.N,GND*%
X143693100Y-87458600D03*
%TO.P,U$3,21,AREF(ISRC)*%
%TO.N,unconnected-(U$3-Pad21)*%
X143693100Y-88258600D03*
%TO.P,U$3,22,PC6(ADC10/ACMP1)*%
%TO.N,/VOD*%
X143693100Y-89058600D03*
%TO.P,U$3,23,PB3(AMP0-)*%
%TO.N,/VIC*%
X143693100Y-89858600D03*
%TO.P,U$3,24,PB4(AMP0+)*%
%TO.N,/VIB*%
X143693100Y-90658600D03*
D23*
%TO.P,U$3,25,PC7(D2A/AMP2+)*%
%TO.N,/VIA*%
X145193100Y-92158600D03*
%TO.P,U$3,26,PB5(ADC6/INT2/ACMPN1/AMP2-)*%
%TO.N,unconnected-(U$3-Pad26)*%
X145993100Y-92158600D03*
%TO.P,U$3,27,PB6(ADC7/PSCOUT1B)*%
%TO.N,unconnected-(U$3-Pad27)*%
X146793100Y-92158600D03*
%TO.P,U$3,28,PB7(ADC4/PSCOUT0B/SCK)*%
%TO.N,unconnected-(U$3-Pad28)*%
X147593100Y-92158600D03*
%TO.P,U$3,29,PD0(PSCOUT0A)*%
%TO.N,unconnected-(U$3-Pad29)*%
X148393100Y-92158600D03*
%TO.P,U$3,30,PC0(INT3/PSCOUT1A)*%
%TO.N,unconnected-(U$3-Pad30)*%
X149193100Y-92158600D03*
%TO.P,U$3,31,PE0(/RESET)*%
%TO.N,Net-(C2-Pad2)*%
X149993100Y-92158600D03*
%TO.P,U$3,32,PD1(PSCIN0/CLK0)*%
X150793100Y-92158600D03*
%TD*%
D15*
%TO.P,R17,1,1*%
%TO.N,Net-(R1-Pad1)*%
X123355100Y-128377600D03*
%TO.P,R17,2,2*%
%TO.N,Net-(R17-Pad2)*%
X123355100Y-122777600D03*
%TD*%
D16*
%TO.P,R29,1,1*%
%TO.N,Net-(LD1-PadAR)*%
X157479100Y-89255600D03*
%TO.P,R29,2,2*%
%TO.N,Net-(PROG1-Pad2)*%
X155779100Y-89255600D03*
%TD*%
D14*
%TO.P,U$5,P$1,G*%
%TO.N,Net-(R2-Pad1)*%
X128927100Y-118635600D03*
%TO.P,U$5,P$2,S*%
%TO.N,Net-(R1-Pad1)*%
X126927100Y-118635600D03*
%TO.P,U$5,P$3,D*%
%TO.N,Net-(R3-Pad2)*%
X127927100Y-120835600D03*
%TD*%
D13*
%TO.P,R28,1,1*%
%TO.N,Net-(R28-Pad1)*%
X174790100Y-116902600D03*
%TO.P,R28,2,2*%
%TO.N,Net-(R28-Pad2)*%
X174790100Y-115202600D03*
%TD*%
D24*
%TO.P,U$14,1,VDD1*%
%TO.N,+5V*%
X138976100Y-94335600D03*
%TO.P,U$14,2,GND1*%
%TO.N,GND*%
X137706100Y-94335600D03*
%TO.P,U$14,3,VIA*%
%TO.N,/VIA*%
X136436100Y-94335600D03*
%TO.P,U$14,4,VIB*%
%TO.N,/VIB*%
X135166100Y-94335600D03*
%TO.P,U$14,5,VIC*%
%TO.N,/VIC*%
X133896100Y-94335600D03*
%TO.P,U$14,6,VOD*%
%TO.N,/VOD*%
X132626100Y-94335600D03*
%TO.P,U$14,7,CTRL1*%
%TO.N,unconnected-(U$14-Pad7)*%
X131356100Y-94335600D03*
%TO.P,U$14,8,GND1B*%
%TO.N,GND*%
X130086100Y-94335600D03*
%TO.P,U$14,9,GND2B*%
%TO.N,AGND*%
X130086100Y-103225600D03*
%TO.P,U$14,10,CTRL2*%
%TO.N,unconnected-(U$14-Pad10)*%
X131356100Y-103225600D03*
%TO.P,U$14,11,VID*%
%TO.N,Net-(R52-Pad2)*%
X132626100Y-103225600D03*
%TO.P,U$14,12,VOC*%
%TO.N,Net-(U$1-Pad44)*%
X133896100Y-103225600D03*
%TO.P,U$14,13,VOB*%
%TO.N,Net-(U$1-Pad42)*%
X135166100Y-103225600D03*
%TO.P,U$14,14,VOA*%
%TO.N,Net-(U$1-Pad41)*%
X136436100Y-103225600D03*
%TO.P,U$14,15,GND2*%
%TO.N,AGND*%
X137706100Y-103225600D03*
%TO.P,U$14,16,VDD2*%
%TO.N,Net-(C18-Pad1)*%
X138976100Y-103225600D03*
%TD*%
D15*
%TO.P,R36,1,1*%
%TO.N,Net-(R23-Pad1)*%
X159931100Y-128377600D03*
%TO.P,R36,2,2*%
%TO.N,Net-(R36-Pad2)*%
X159931100Y-122777600D03*
%TD*%
D25*
%TO.P,U$2,1,1*%
%TO.N,+12V*%
X124371100Y-97017600D03*
%TO.P,U$2,2,2*%
%TO.N,Net-(SN65-PadP$7)*%
X124371100Y-93517600D03*
%TO.P,U$2,3,3*%
%TO.N,Net-(SN65-PadP$6)*%
X124371100Y-90017600D03*
%TO.P,U$2,4,4*%
%TO.N,GND*%
X124371100Y-86517600D03*
%TO.P,U$2,5,5*%
%TO.N,Net-(U$19-Pad5)*%
X124371100Y-83017600D03*
%TD*%
D16*
%TO.P,C13,1,1*%
%TO.N,Net-(C13-Pad1)*%
X136143100Y-109321600D03*
%TO.P,C13,2,2*%
%TO.N,AGND*%
X134443100Y-109321600D03*
%TD*%
%TO.P,R52,1,1*%
%TO.N,Net-(C18-Pad1)*%
X140461100Y-107289600D03*
%TO.P,R52,2,2*%
%TO.N,Net-(R52-Pad2)*%
X138761100Y-107289600D03*
%TD*%
D14*
%TO.P,U$12,P$1,G*%
%TO.N,Net-(R19-Pad1)*%
X156359100Y-118635600D03*
%TO.P,U$12,P$2,S*%
%TO.N,Net-(R18-Pad1)*%
X154359100Y-118635600D03*
%TO.P,U$12,P$3,D*%
%TO.N,Net-(R35-Pad2)*%
X155359100Y-120835600D03*
%TD*%
%TO.P,U$10,P$1,G*%
%TO.N,Net-(R10-Pad1)*%
X147215100Y-118635600D03*
%TO.P,U$10,P$2,S*%
%TO.N,Net-(R32-Pad1)*%
X145215100Y-118635600D03*
%TO.P,U$10,P$3,D*%
%TO.N,Net-(R33-Pad2)*%
X146215100Y-120835600D03*
%TD*%
%TO.P,U$16,P$1,G*%
%TO.N,Net-(R26-Pad1)*%
X170075100Y-118635600D03*
%TO.P,U$16,P$2,S*%
%TO.N,Net-(R25-Pad1)*%
X168075100Y-118635600D03*
%TO.P,U$16,P$3,D*%
%TO.N,Net-(R38-Pad2)*%
X169075100Y-120835600D03*
%TD*%
D13*
%TO.P,R2,1,1*%
%TO.N,Net-(R2-Pad1)*%
X129070100Y-116902600D03*
%TO.P,R2,2,2*%
%TO.N,Net-(R2-Pad2)*%
X129070100Y-115202600D03*
%TD*%
D15*
%TO.P,R33,1,1*%
%TO.N,Net-(R11-Pad1)*%
X146215100Y-128377600D03*
%TO.P,R33,2,2*%
%TO.N,Net-(R33-Pad2)*%
X146215100Y-122777600D03*
%TD*%
D13*
%TO.P,R6,1,1*%
%TO.N,Net-(R6-Pad1)*%
X138214100Y-116902600D03*
%TO.P,R6,2,2*%
%TO.N,Net-(R6-Pad2)*%
X138214100Y-115202600D03*
%TD*%
%TO.P,R26,1,1*%
%TO.N,Net-(R26-Pad1)*%
X170218100Y-116902600D03*
%TO.P,R26,2,2*%
%TO.N,Net-(R26-Pad2)*%
X170218100Y-115202600D03*
%TD*%
%TO.P,R11,1,1*%
%TO.N,Net-(R11-Pad1)*%
X149644100Y-116902600D03*
%TO.P,R11,2,2*%
%TO.N,Net-(R11-Pad2)*%
X149644100Y-115202600D03*
%TD*%
D26*
%TO.P,U$31,1,1*%
%TO.N,Net-(U$3-Pad16)*%
X131483100Y-83159600D03*
%TO.P,U$31,2,2*%
%TO.N,Net-(U$3-Pad18)*%
X139103100Y-88239600D03*
%TO.P,U$31,4,4*%
%TO.N,Net-(U$3-Pad17)*%
X131483100Y-88239600D03*
%TO.P,U$31,8,8*%
%TO.N,Net-(U$3-Pad15)*%
X139103100Y-83159600D03*
%TO.P,U$31,C,C*%
%TO.N,GND*%
X131483100Y-85699600D03*
%TO.P,U$31,C2,C_*%
X139103100Y-85699600D03*
%TD*%
D13*
%TO.P,C1,1,1*%
%TO.N,GND*%
X140881100Y-95693600D03*
%TO.P,C1,2,2*%
%TO.N,+5V*%
X140881100Y-93993600D03*
%TD*%
D24*
%TO.P,SN65,P$1,TX0*%
%TO.N,Net-(SN65-PadP$1)*%
X154216100Y-84175600D03*
%TO.P,SN65,P$2,GND*%
%TO.N,GND*%
X155486100Y-84175600D03*
%TO.P,SN65,P$3,VS*%
%TO.N,+5V*%
X156756100Y-84175600D03*
%TO.P,SN65,P$4,RX0*%
%TO.N,Net-(SN65-PadP$4)*%
X158026100Y-84175600D03*
%TO.P,SN65,P$5,RX1*%
%TO.N,unconnected-(SN65-PadP$5)*%
X158026100Y-78587600D03*
%TO.P,SN65,P$6,C_L*%
%TO.N,Net-(SN65-PadP$6)*%
X156756100Y-78587600D03*
%TO.P,SN65,P$7,C_H*%
%TO.N,Net-(SN65-PadP$7)*%
X155486100Y-78587600D03*
%TO.P,SN65,P$8,ASC*%
%TO.N,Net-(SN65-PadP$8)*%
X154216100Y-78587600D03*
%TD*%
D13*
%TO.P,R20,1,1*%
%TO.N,Net-(R20-Pad1)*%
X133642100Y-116902600D03*
%TO.P,R20,2,2*%
%TO.N,Net-(R20-Pad2)*%
X133642100Y-115202600D03*
%TD*%
D14*
%TO.P,U$7,P$1,G*%
%TO.N,Net-(R20-Pad1)*%
X133499100Y-118635600D03*
%TO.P,U$7,P$2,S*%
%TO.N,Net-(R3-Pad1)*%
X131499100Y-118635600D03*
%TO.P,U$7,P$3,D*%
%TO.N,Net-(R30-Pad2)*%
X132499100Y-120835600D03*
%TD*%
D13*
%TO.P,R23,1,1*%
%TO.N,Net-(R23-Pad1)*%
X163360100Y-116902600D03*
%TO.P,R23,2,2*%
%TO.N,Net-(R23-Pad2)*%
X163360100Y-115202600D03*
%TD*%
D15*
%TO.P,R37,1,1*%
%TO.N,Net-(R25-Pad1)*%
X164503100Y-128377600D03*
%TO.P,R37,2,2*%
%TO.N,Net-(R37-Pad2)*%
X164503100Y-122777600D03*
%TD*%
D14*
%TO.P,U$4,P$1,G*%
%TO.N,Net-(R13-Pad1)*%
X124355100Y-118635600D03*
%TO.P,U$4,P$2,S*%
%TO.N,Net-(R16-Pad1)*%
X122355100Y-118635600D03*
%TO.P,U$4,P$3,D*%
%TO.N,Net-(R17-Pad2)*%
X123355100Y-120835600D03*
%TD*%
D15*
%TO.P,R32,1,1*%
%TO.N,Net-(R32-Pad1)*%
X141643100Y-128377600D03*
%TO.P,R32,2,2*%
%TO.N,Net-(R32-Pad2)*%
X141643100Y-122777600D03*
%TD*%
D16*
%TO.P,C18,1,1*%
%TO.N,Net-(C18-Pad1)*%
X156160100Y-106273600D03*
%TO.P,C18,2,2*%
%TO.N,AGND*%
X157860100Y-106273600D03*
%TD*%
D27*
%TO.P,U$28,P$1,P$1*%
%TO.N,Net-(D1-PadC)*%
X167043100Y-90349600D03*
%TO.P,U$28,P$2,P$2*%
%TO.N,Net-(C6-Pad1)*%
X167043100Y-93749600D03*
%TD*%
D16*
%TO.P,C3,1,1*%
%TO.N,AGND*%
X132587100Y-109321600D03*
%TO.P,C3,2,2*%
%TO.N,Net-(C3-Pad2)*%
X130887100Y-109321600D03*
%TD*%
D28*
%TO.P,D1,A,A*%
%TO.N,+12V*%
X167043100Y-84561600D03*
%TO.P,D1,C,C*%
%TO.N,Net-(D1-PadC)*%
X167043100Y-88361600D03*
%TD*%
D25*
%TO.P,U$21,1,1*%
%TO.N,AGND*%
X124371100Y-105483600D03*
%TO.P,U$21,2,2*%
%TO.N,Net-(R15-Pad1)*%
X124371100Y-101983600D03*
%TD*%
D14*
%TO.P,U$15,P$1,G*%
%TO.N,Net-(R24-Pad1)*%
X165503100Y-118635600D03*
%TO.P,U$15,P$2,S*%
%TO.N,Net-(R23-Pad1)*%
X163503100Y-118635600D03*
%TO.P,U$15,P$3,D*%
%TO.N,Net-(R37-Pad2)*%
X164503100Y-120835600D03*
%TD*%
D13*
%TO.P,R27,1,1*%
%TO.N,Net-(R27-Pad1)*%
X172504100Y-116902600D03*
%TO.P,R27,2,2*%
%TO.N,Net-(R27-Pad2)*%
X172504100Y-115202600D03*
%TD*%
%TO.P,R12,1,1*%
%TO.N,Net-(R12-Pad1)*%
X151930100Y-116902600D03*
%TO.P,R12,2,2*%
%TO.N,Net-(R12-Pad2)*%
X151930100Y-115202600D03*
%TD*%
%TO.P,R16,1,1*%
%TO.N,Net-(R16-Pad1)*%
X122212100Y-116902600D03*
%TO.P,R16,2,2*%
%TO.N,Net-(R16-Pad2)*%
X122212100Y-115202600D03*
%TD*%
D29*
%TO.P,U$1,1,V+*%
%TO.N,Net-(C13-Pad1)*%
X143251100Y-108505600D03*
%TO.P,U$1,2,C12*%
%TO.N,Net-(R16-Pad2)*%
X143751100Y-108505600D03*
%TO.P,U$1,3,S12*%
%TO.N,Net-(R13-Pad2)*%
X144251100Y-108505600D03*
%TO.P,U$1,4,C11*%
%TO.N,Net-(R1-Pad2)*%
X144751100Y-108505600D03*
%TO.P,U$1,5,S11*%
%TO.N,Net-(R2-Pad2)*%
X145251100Y-108505600D03*
%TO.P,U$1,6,C10*%
%TO.N,Net-(R4-Pad2)*%
X145751100Y-108505600D03*
%TO.P,U$1,7,S10*%
%TO.N,Net-(R20-Pad2)*%
X146251100Y-108505600D03*
%TO.P,U$1,8,C9*%
%TO.N,Net-(R5-Pad2)*%
X146751100Y-108505600D03*
%TO.P,U$1,9,S9*%
%TO.N,Net-(R6-Pad2)*%
X147251100Y-108505600D03*
%TO.P,U$1,10,C8*%
%TO.N,Net-(R7-Pad2)*%
X147751100Y-108505600D03*
%TO.P,U$1,11,S8*%
%TO.N,Net-(R8-Pad2)*%
X148251100Y-108505600D03*
%TO.P,U$1,12,C7*%
%TO.N,Net-(R9-Pad2)*%
X148751100Y-108505600D03*
%TO.P,U$1,13,S7*%
%TO.N,Net-(R10-Pad2)*%
X149251100Y-108505600D03*
%TO.P,U$1,14,C6*%
%TO.N,Net-(R11-Pad2)*%
X149751100Y-108505600D03*
%TO.P,U$1,15,S6*%
%TO.N,Net-(R12-Pad2)*%
X150251100Y-108505600D03*
%TO.P,U$1,16,C5*%
%TO.N,Net-(R18-Pad2)*%
X150751100Y-108505600D03*
%TO.P,U$1,17,S5*%
%TO.N,Net-(R19-Pad2)*%
X151251100Y-108505600D03*
%TO.P,U$1,18,C4*%
%TO.N,Net-(R21-Pad2)*%
X151751100Y-108505600D03*
%TO.P,U$1,19,S4*%
%TO.N,Net-(R22-Pad2)*%
X152251100Y-108505600D03*
%TO.P,U$1,20,C3*%
%TO.N,Net-(R23-Pad2)*%
X152751100Y-108505600D03*
%TO.P,U$1,21,S3*%
%TO.N,Net-(R24-Pad2)*%
X153251100Y-108505600D03*
%TO.P,U$1,22,C2*%
%TO.N,Net-(R25-Pad2)*%
X153751100Y-108505600D03*
%TO.P,U$1,23,S2*%
%TO.N,Net-(R26-Pad2)*%
X153751100Y-101755600D03*
%TO.P,U$1,24,C1*%
%TO.N,Net-(R27-Pad2)*%
X153251100Y-101755600D03*
%TO.P,U$1,25,S1*%
%TO.N,Net-(R28-Pad2)*%
X152751100Y-101755600D03*
%TO.P,U$1,26,V-*%
%TO.N,AGND*%
X152251100Y-101755600D03*
%TO.P,U$1,27,NC*%
X151751100Y-101755600D03*
%TO.P,U$1,28,VTEMP1*%
%TO.N,Net-(C19-Pad2)*%
X151251100Y-101755600D03*
%TO.P,U$1,29,VTEMP2*%
%TO.N,Net-(C3-Pad2)*%
X150751100Y-101755600D03*
%TO.P,U$1,30,VREF*%
%TO.N,Net-(C14-Pad1)*%
X150251100Y-101755600D03*
%TO.P,U$1,31,VREG*%
%TO.N,Net-(C18-Pad1)*%
X149751100Y-101755600D03*
%TO.P,U$1,32,TOS*%
X149251100Y-101755600D03*
%TO.P,U$1,33,MMB*%
X148751100Y-101755600D03*
%TO.P,U$1,34,WDTB*%
%TO.N,unconnected-(U$1-Pad34)*%
X148251100Y-101755600D03*
%TO.P,U$1,35,GPIO1*%
%TO.N,unconnected-(U$1-Pad35)*%
X147751100Y-101755600D03*
%TO.P,U$1,36,GPIO2*%
%TO.N,unconnected-(U$1-Pad36)*%
X147251100Y-101755600D03*
%TO.P,U$1,37,A0*%
%TO.N,AGND*%
X146751100Y-101755600D03*
%TO.P,U$1,38,A1*%
X146251100Y-101755600D03*
%TO.P,U$1,39,A2*%
X145751100Y-101755600D03*
%TO.P,U$1,40,A3*%
X145251100Y-101755600D03*
%TO.P,U$1,41,SCKI*%
%TO.N,Net-(U$1-Pad41)*%
X144751100Y-101755600D03*
%TO.P,U$1,42,SDI*%
%TO.N,Net-(U$1-Pad42)*%
X144251100Y-101755600D03*
%TO.P,U$1,43,SDO*%
%TO.N,Net-(R52-Pad2)*%
X143751100Y-101755600D03*
%TO.P,U$1,44,CSBI*%
%TO.N,Net-(U$1-Pad44)*%
X143251100Y-101755600D03*
%TD*%
D15*
%TO.P,R39,1,1*%
%TO.N,AGND*%
X173647100Y-128377600D03*
%TO.P,R39,2,2*%
%TO.N,Net-(R39-Pad2)*%
X173647100Y-122777600D03*
%TD*%
D30*
%TO.P,Q1,1,1*%
%TO.N,Net-(C5-Pad1)*%
X144777100Y-81057600D03*
%TO.P,Q1,2*%
%TO.N,N/C*%
X149177100Y-81057600D03*
%TO.P,Q1,3,2*%
%TO.N,Net-(C4-Pad1)*%
X149177100Y-78657600D03*
%TO.P,Q1,4*%
%TO.N,N/C*%
X144777100Y-78657600D03*
%TD*%
D13*
%TO.P,C4,1,1*%
%TO.N,Net-(C4-Pad1)*%
X151295100Y-79007600D03*
%TO.P,C4,2,2*%
%TO.N,GND*%
X151295100Y-80707600D03*
%TD*%
D25*
%TO.P,U$20,1,1*%
%TO.N,AGND*%
X172631100Y-101983600D03*
%TO.P,U$20,2,2*%
%TO.N,Net-(R40-Pad1)*%
X172631100Y-105483600D03*
%TD*%
D13*
%TO.P,R7,1,1*%
%TO.N,Net-(R31-Pad1)*%
X140500100Y-116902600D03*
%TO.P,R7,2,2*%
%TO.N,Net-(R7-Pad2)*%
X140500100Y-115202600D03*
%TD*%
D16*
%TO.P,C16,1,1*%
%TO.N,+5V*%
X155779100Y-91287600D03*
%TO.P,C16,2,2*%
%TO.N,GND*%
X157479100Y-91287600D03*
%TD*%
D13*
%TO.P,R25,1,1*%
%TO.N,Net-(R25-Pad1)*%
X167932100Y-116902600D03*
%TO.P,R25,2,2*%
%TO.N,Net-(R25-Pad2)*%
X167932100Y-115202600D03*
%TD*%
D14*
%TO.P,U$8,P$1,G*%
%TO.N,Net-(R6-Pad1)*%
X138071100Y-118635600D03*
%TO.P,U$8,P$2,S*%
%TO.N,Net-(R30-Pad1)*%
X136071100Y-118635600D03*
%TO.P,U$8,P$3,D*%
%TO.N,Net-(R31-Pad2)*%
X137071100Y-120835600D03*
%TD*%
D15*
%TO.P,R3,1,1*%
%TO.N,Net-(R3-Pad1)*%
X127927100Y-128377600D03*
%TO.P,R3,2,2*%
%TO.N,Net-(R3-Pad2)*%
X127927100Y-122777600D03*
%TD*%
D16*
%TO.P,R55,1,1*%
%TO.N,Net-(R40-Pad1)*%
X165861100Y-106019600D03*
%TO.P,R55,2,2*%
%TO.N,Net-(C14-Pad1)*%
X164161100Y-106019600D03*
%TD*%
D13*
%TO.P,R13,1,1*%
%TO.N,Net-(R13-Pad1)*%
X124498100Y-116902600D03*
%TO.P,R13,2,2*%
%TO.N,Net-(R13-Pad2)*%
X124498100Y-115202600D03*
%TD*%
D15*
%TO.P,R34,1,1*%
%TO.N,Net-(R18-Pad1)*%
X150787100Y-128377600D03*
%TO.P,R34,2,2*%
%TO.N,Net-(R34-Pad2)*%
X150787100Y-122777600D03*
%TD*%
%TO.P,R38,1,1*%
%TO.N,Net-(R27-Pad1)*%
X169075100Y-128377600D03*
%TO.P,R38,2,2*%
%TO.N,Net-(R38-Pad2)*%
X169075100Y-122777600D03*
%TD*%
D13*
%TO.P,R19,1,1*%
%TO.N,Net-(R19-Pad1)*%
X156502100Y-116902600D03*
%TO.P,R19,2,2*%
%TO.N,Net-(R19-Pad2)*%
X156502100Y-115202600D03*
%TD*%
%TO.P,R21,1,1*%
%TO.N,Net-(R21-Pad1)*%
X158788100Y-116902600D03*
%TO.P,R21,2,2*%
%TO.N,Net-(R21-Pad2)*%
X158788100Y-115202600D03*
%TD*%
%TO.P,R18,1,1*%
%TO.N,Net-(R18-Pad1)*%
X154216100Y-116902600D03*
%TO.P,R18,2,2*%
%TO.N,Net-(R18-Pad2)*%
X154216100Y-115202600D03*
%TD*%
D31*
%TO.P,C6,1,1*%
%TO.N,Net-(C6-Pad1)*%
X164757100Y-93703600D03*
%TO.P,C6,2,2*%
%TO.N,GND*%
X164757100Y-90903600D03*
%TD*%
D27*
%TO.P,U$6,P$1,P$1*%
%TO.N,Net-(R16-Pad1)*%
X127546100Y-106605600D03*
%TO.P,U$6,P$2,P$2*%
%TO.N,Net-(C13-Pad1)*%
X127546100Y-110005600D03*
%TD*%
D13*
%TO.P,R22,1,1*%
%TO.N,Net-(R22-Pad1)*%
X161074100Y-116902600D03*
%TO.P,R22,2,2*%
%TO.N,Net-(R22-Pad2)*%
X161074100Y-115202600D03*
%TD*%
%TO.P,R10,1,1*%
%TO.N,Net-(R10-Pad1)*%
X147358100Y-116902600D03*
%TO.P,R10,2,2*%
%TO.N,Net-(R10-Pad2)*%
X147358100Y-115202600D03*
%TD*%
D25*
%TO.P,U$19,1,1*%
%TO.N,+12V*%
X172631100Y-83017600D03*
%TO.P,U$19,2,2*%
%TO.N,Net-(SN65-PadP$7)*%
X172631100Y-86517600D03*
%TO.P,U$19,3,3*%
%TO.N,Net-(SN65-PadP$6)*%
X172631100Y-90017600D03*
%TO.P,U$19,4,4*%
%TO.N,GND*%
X172631100Y-93517600D03*
%TO.P,U$19,5,5*%
%TO.N,Net-(U$19-Pad5)*%
X172631100Y-97017600D03*
%TD*%
D16*
%TO.P,C19,1,1*%
%TO.N,AGND*%
X165861100Y-101955600D03*
%TO.P,C19,2,2*%
%TO.N,Net-(C19-Pad2)*%
X164161100Y-101955600D03*
%TD*%
D32*
%TO.P,U$18,1,1*%
%TO.N,Net-(R16-Pad1)*%
X127501100Y-131673600D03*
%TO.P,U$18,2,2*%
%TO.N,Net-(R1-Pad1)*%
X131001100Y-131673600D03*
%TO.P,U$18,3,3*%
%TO.N,Net-(R3-Pad1)*%
X134501100Y-131673600D03*
%TO.P,U$18,4,4*%
%TO.N,Net-(R30-Pad1)*%
X138001100Y-131673600D03*
%TO.P,U$18,5,5*%
%TO.N,Net-(R31-Pad1)*%
X141501100Y-131673600D03*
%TO.P,U$18,6,6*%
%TO.N,Net-(R32-Pad1)*%
X145001100Y-131673600D03*
%TO.P,U$18,7,7*%
%TO.N,Net-(R11-Pad1)*%
X148501100Y-131673600D03*
%TO.P,U$18,8,8*%
%TO.N,Net-(R18-Pad1)*%
X152001100Y-131673600D03*
%TO.P,U$18,9,9*%
%TO.N,Net-(R21-Pad1)*%
X155501100Y-131673600D03*
%TO.P,U$18,10,10*%
%TO.N,Net-(R23-Pad1)*%
X159001100Y-131673600D03*
%TO.P,U$18,11,11*%
%TO.N,Net-(R25-Pad1)*%
X162501100Y-131673600D03*
%TO.P,U$18,12,12*%
%TO.N,Net-(R27-Pad1)*%
X166001100Y-131673600D03*
%TO.P,U$18,13,13*%
%TO.N,AGND*%
X169501100Y-131673600D03*
%TD*%
D13*
%TO.P,C2,1,1*%
%TO.N,GND*%
X156121100Y-95693600D03*
%TO.P,C2,2,2*%
%TO.N,Net-(C2-Pad2)*%
X156121100Y-93993600D03*
%TD*%
D33*
%TO.N,AGND*%
X147231100Y-103860600D03*
X173647100Y-126466600D03*
X159423100Y-103479600D03*
X153581100Y-103860600D03*
X129197100Y-108305600D03*
X137713700Y-101574600D03*
X159423100Y-106527600D03*
X167297100Y-101193600D03*
X130086100Y-101574600D03*
%TO.N,GND*%
X142151100Y-88239600D03*
X155486100Y-82524600D03*
X157772100Y-94843600D03*
X160947100Y-95351600D03*
X150533100Y-86715600D03*
X130086100Y-92303600D03*
X146977100Y-79857600D03*
%TO.N,Net-(C14-Pad1)*%
X159423100Y-105003600D03*
X151803100Y-105003600D03*
X162471100Y-105003600D03*
X150279100Y-106527600D03*
%TO.N,+5V*%
X153073100Y-91795600D03*
X140881100Y-92430600D03*
X145453100Y-88239600D03*
X150533100Y-88239600D03*
%TO.N,+12V*%
X122339100Y-81635600D03*
%TO.N,Net-(PROG1-Pad2)*%
X145961100Y-90398600D03*
%TO.N,Net-(PROG1-Pad3)*%
X148501100Y-90398600D03*
%TO.N,Net-(PROG1-Pad4)*%
X148628100Y-87223600D03*
%TD*%
D34*
%TO.N,AGND*%
X172797100Y-128377600D02*
X173647100Y-128377600D01*
D35*
X151751100Y-103860600D02*
X151751100Y-101755600D01*
X133515100Y-110591600D02*
X133935100Y-110171600D01*
X145251100Y-103860600D02*
X145251100Y-101755600D01*
X165861100Y-101955600D02*
X166535100Y-101955600D01*
X157860100Y-106273600D02*
X159169100Y-106273600D01*
X157860100Y-103733600D02*
X159169100Y-103733600D01*
X129705100Y-110591600D02*
X129197100Y-110083600D01*
X166535100Y-101955600D02*
X167297100Y-101193600D01*
X134443100Y-109321600D02*
X132587100Y-109321600D01*
X152251100Y-103860600D02*
X151751100Y-103860600D01*
D34*
X173647100Y-128377600D02*
X173647100Y-126466600D01*
D35*
X129197100Y-110083600D02*
X129197100Y-108305600D01*
D34*
X169501100Y-131673600D02*
X172797100Y-128377600D01*
D35*
X147231100Y-103860600D02*
X146751100Y-103860600D01*
X152251100Y-103860600D02*
X152251100Y-101755600D01*
X152251100Y-103860600D02*
X153581100Y-103860600D01*
X130086100Y-103225600D02*
X130086100Y-101574600D01*
X145251100Y-103860600D02*
X147231100Y-103860600D01*
X147231100Y-103860600D02*
X146251100Y-103860600D01*
X146751100Y-103860600D02*
X146751100Y-101755600D01*
X137706100Y-103225600D02*
X137713700Y-103218000D01*
X159169100Y-103733600D02*
X159423100Y-103479600D01*
X133935100Y-110171600D02*
X134443100Y-109321600D01*
X147231100Y-103860600D02*
X145751100Y-103860600D01*
X137713700Y-103218000D02*
X137713700Y-101574600D01*
X145751100Y-103860600D02*
X145751100Y-101755600D01*
X129705100Y-110591600D02*
X133515100Y-110591600D01*
X146251100Y-103860600D02*
X146251100Y-101755600D01*
X159169100Y-106273600D02*
X159423100Y-106527600D01*
D36*
%TO.N,Net-(C2-Pad2)*%
X153581100Y-94843600D02*
X153581100Y-93993600D01*
X153581100Y-93993600D02*
X156121100Y-93993600D01*
X150793100Y-92158600D02*
X151531100Y-92158600D01*
X151531100Y-92158600D02*
X153581100Y-94208600D01*
X153581100Y-94208600D02*
X153581100Y-94843600D01*
X150793100Y-92158600D02*
X149993100Y-92158600D01*
D35*
%TO.N,Net-(C3-Pad2)*%
X150025100Y-100177600D02*
X150751100Y-100903600D01*
X123355100Y-103733600D02*
X127165100Y-103733600D01*
X150751100Y-100903600D02*
X150751100Y-101755600D01*
X140881100Y-100177600D02*
X141897100Y-99161600D01*
X144691100Y-99161600D02*
X145707100Y-100177600D01*
X127165100Y-103733600D02*
X130721100Y-107289600D01*
X145707100Y-100177600D02*
X150025100Y-100177600D01*
X141897100Y-99161600D02*
X144691100Y-99161600D01*
X122847100Y-103225600D02*
X123355100Y-103733600D01*
X123355100Y-100177600D02*
X140881100Y-100177600D01*
X122847100Y-100685600D02*
X123355100Y-100177600D01*
X130887100Y-107289600D02*
X130887100Y-109321600D01*
X122847100Y-103225600D02*
X122847100Y-100685600D01*
X130721100Y-107289600D02*
X130887100Y-107289600D01*
X130887100Y-107289600D02*
X130721100Y-107797600D01*
D36*
%TO.N,Net-(C4-Pad1)*%
X152565100Y-79603600D02*
X151969100Y-79007600D01*
X151803100Y-82397600D02*
X152565100Y-81635600D01*
X152565100Y-81635600D02*
X152565100Y-79603600D01*
X151072100Y-78657600D02*
X149177100Y-78657600D01*
X151969100Y-79007600D02*
X151295100Y-79007600D01*
X149993100Y-83558600D02*
X149993100Y-82937600D01*
X150533100Y-82397600D02*
X151803100Y-82397600D01*
X149993100Y-82937600D02*
X150533100Y-82397600D01*
X151295100Y-79007600D02*
X151072100Y-78657600D01*
%TO.N,Net-(C5-Pad1)*%
X143009100Y-81057600D02*
X144777100Y-81057600D01*
X145637100Y-81057600D02*
X146977100Y-82397600D01*
X149193100Y-82835600D02*
X149193100Y-83558600D01*
X144777100Y-81057600D02*
X145637100Y-81057600D01*
X142659100Y-80707600D02*
X143009100Y-81057600D01*
X148755100Y-82397600D02*
X149193100Y-82835600D01*
X146977100Y-82397600D02*
X148755100Y-82397600D01*
%TO.N,Net-(C6-Pad1)*%
X166997100Y-93703600D02*
X167043100Y-93749600D01*
X162447100Y-93799600D02*
X162543100Y-93703600D01*
X162543100Y-93703600D02*
X164757100Y-93703600D01*
X164757100Y-93703600D02*
X166997100Y-93703600D01*
D35*
%TO.N,Net-(C13-Pad1)*%
X143251100Y-109067600D02*
X143251100Y-108505600D01*
X136143100Y-109321600D02*
X135889100Y-109067600D01*
X135889100Y-109067600D02*
X143251100Y-109067600D01*
X128640100Y-111099600D02*
X134785100Y-111099600D01*
X127546100Y-110005600D02*
X128640100Y-111099600D01*
X134785100Y-111099600D02*
X135635100Y-110249600D01*
X135635100Y-110249600D02*
X136143100Y-109321600D01*
D36*
%TO.N,GND*%
X142932100Y-87458600D02*
X143693100Y-87458600D01*
D34*
X130086100Y-96113600D02*
X137706100Y-96113600D01*
X130086100Y-94335600D02*
X130086100Y-92303600D01*
D36*
X146977100Y-79857600D02*
X147827100Y-80707600D01*
X155486100Y-84175600D02*
X155486100Y-82524600D01*
D34*
X137706100Y-96113600D02*
X137706100Y-94335600D01*
D36*
X143421100Y-95693600D02*
X143421100Y-94843600D01*
X156121100Y-95693600D02*
X156922100Y-95693600D01*
X161193100Y-90903600D02*
X164757100Y-90903600D01*
X156922100Y-95693600D02*
X157772100Y-94843600D01*
X147827100Y-80707600D02*
X151295100Y-80707600D01*
X160947100Y-91149600D02*
X161193100Y-90903600D01*
D34*
X160947100Y-95351600D02*
X160947100Y-91149600D01*
D36*
X160947100Y-91149600D02*
X157479100Y-91149600D01*
X140881100Y-95693600D02*
X143421100Y-95693600D01*
X146127100Y-79007600D02*
X146977100Y-79857600D01*
X142151100Y-88239600D02*
X142932100Y-87458600D01*
D34*
X130086100Y-96113600D02*
X130086100Y-94335600D01*
D36*
X151276100Y-87458600D02*
X150533100Y-86715600D01*
X157479100Y-91149600D02*
X157479100Y-91287600D01*
X152293100Y-87458600D02*
X151276100Y-87458600D01*
X142659100Y-79007600D02*
X146127100Y-79007600D01*
D35*
%TO.N,Net-(C14-Pad1)*%
X151803100Y-105003600D02*
X156160100Y-105003600D01*
X137413100Y-108559600D02*
X136143100Y-107289600D01*
X162471100Y-105003600D02*
X163487100Y-106019600D01*
X150251100Y-104213600D02*
X150251100Y-101755600D01*
X151803100Y-105003600D02*
X151041100Y-105003600D01*
X141389100Y-108559600D02*
X142913100Y-107035600D01*
X137413100Y-108559600D02*
X141389100Y-108559600D01*
X163487100Y-106019600D02*
X164161100Y-106019600D01*
X149771100Y-107035600D02*
X150279100Y-106527600D01*
X156160100Y-105003600D02*
X159423100Y-105003600D01*
X156160100Y-105003600D02*
X156160100Y-103733600D01*
X151041100Y-105003600D02*
X150251100Y-104213600D01*
X142913100Y-107035600D02*
X149771100Y-107035600D01*
D36*
%TO.N,+5V*%
X145453100Y-88239600D02*
X145472100Y-88258600D01*
X152293100Y-88258600D02*
X153054100Y-88258600D01*
X150533100Y-88258600D02*
X152293100Y-88258600D01*
X155779100Y-92557600D02*
X155779100Y-91287600D01*
X156756100Y-85064600D02*
X156756100Y-84175600D01*
X140881100Y-93993600D02*
X140881100Y-92430600D01*
X144634100Y-86658600D02*
X143693100Y-86658600D01*
X145453100Y-88239600D02*
X145453100Y-87477600D01*
X158205100Y-92557600D02*
X159447100Y-93799600D01*
X138976100Y-94335600D02*
X140881100Y-94335600D01*
X140881100Y-94335600D02*
X140881100Y-93993600D01*
X156375100Y-85445600D02*
X156756100Y-85064600D01*
X153054100Y-88258600D02*
X153581100Y-87731600D01*
X153581100Y-87223600D02*
X155359100Y-85445600D01*
X145453100Y-87477600D02*
X144634100Y-86658600D01*
X155779100Y-92557600D02*
X158205100Y-92557600D01*
X155359100Y-85445600D02*
X156375100Y-85445600D01*
X153073100Y-91795600D02*
X153835100Y-92557600D01*
X150533100Y-88258600D02*
X150533100Y-88239600D01*
X153581100Y-87731600D02*
X153581100Y-87223600D01*
X154597100Y-92557600D02*
X155779100Y-92557600D01*
X145472100Y-88258600D02*
X150533100Y-88258600D01*
X153835100Y-92557600D02*
X154597100Y-92557600D01*
D35*
%TO.N,Net-(C18-Pad1)*%
X149251100Y-103098600D02*
X149251100Y-101755600D01*
X148501100Y-100685600D02*
X145453100Y-100685600D01*
X149251100Y-103098600D02*
X149751100Y-103098600D01*
X142659100Y-106527600D02*
X145961100Y-106527600D01*
X145453100Y-100685600D02*
X144437100Y-99669600D01*
X151549100Y-106273600D02*
X156160100Y-106273600D01*
X138976100Y-102844600D02*
X138976100Y-103225600D01*
X149751100Y-104475600D02*
X151549100Y-106273600D01*
X145961100Y-106527600D02*
X148751100Y-103737600D01*
X148751100Y-103098600D02*
X148751100Y-101755600D01*
X148751100Y-103098600D02*
X149251100Y-103098600D01*
X141897100Y-107289600D02*
X142659100Y-106527600D01*
X140461100Y-107289600D02*
X141897100Y-107289600D01*
X149751100Y-103098600D02*
X149751100Y-101755600D01*
X142151100Y-99669600D02*
X138976100Y-102844600D01*
X144437100Y-99669600D02*
X142151100Y-99669600D01*
X148751100Y-100935600D02*
X148501100Y-100685600D01*
X149751100Y-103098600D02*
X149751100Y-104475600D01*
X148751100Y-101755600D02*
X148751100Y-100935600D01*
X148751100Y-103737600D02*
X148751100Y-103098600D01*
%TO.N,Net-(C19-Pad2)*%
X151251100Y-100729600D02*
X152311100Y-99669600D01*
X162217100Y-101955600D02*
X164161100Y-101955600D01*
X159931100Y-99669600D02*
X162217100Y-101955600D01*
X152311100Y-99669600D02*
X159931100Y-99669600D01*
X151251100Y-101755600D02*
X151251100Y-100729600D01*
X164161100Y-101955600D02*
X164161100Y-103987600D01*
D34*
%TO.N,+12V*%
X122339100Y-94985600D02*
X122339100Y-81635600D01*
D37*
X168587100Y-83017600D02*
X167043100Y-84561600D01*
X172631100Y-83017600D02*
X168587100Y-83017600D01*
D34*
X122339100Y-94985600D02*
X124371100Y-97017600D01*
D36*
%TO.N,Net-(D1-PadC)*%
X167043100Y-90349600D02*
X167043100Y-88361600D01*
%TO.N,Net-(LD1-PadAR)*%
X158407100Y-89255600D02*
X159423100Y-88239600D01*
X157479100Y-89255600D02*
X158407100Y-89255600D01*
X159423100Y-88239600D02*
X161709100Y-88239600D01*
%TO.N,Net-(LD1-PadAX)*%
X157479100Y-87223600D02*
X161543100Y-83159600D01*
X161543100Y-83159600D02*
X161709100Y-83159600D01*
%TO.N,Net-(PROG1-Pad2)*%
X145961100Y-90398600D02*
X147231100Y-89128600D01*
X149263100Y-89128600D02*
X149993100Y-89858600D01*
X149993100Y-89858600D02*
X152293100Y-89858600D01*
X152293100Y-89858600D02*
X155176100Y-89858600D01*
X147231100Y-89128600D02*
X149263100Y-89128600D01*
X155176100Y-89858600D02*
X155779100Y-89255600D01*
%TO.N,Net-(PROG1-Pad3)*%
X148501100Y-90398600D02*
X148755100Y-90658600D01*
X148755100Y-90658600D02*
X152293100Y-90658600D01*
%TO.N,Net-(PROG1-Pad4)*%
X148628100Y-87223600D02*
X148393100Y-86988600D01*
X148393100Y-86988600D02*
X148393100Y-83558600D01*
D34*
%TO.N,Net-(R1-Pad1)*%
X125641100Y-119921600D02*
X126927100Y-118635600D01*
X126149100Y-130022600D02*
X129350100Y-130022600D01*
X123355100Y-128377600D02*
X125641100Y-128377600D01*
X125641100Y-129514600D02*
X126149100Y-130022600D01*
X129350100Y-130022600D02*
X131001100Y-131673600D01*
X126927100Y-117045600D02*
X126784100Y-116902600D01*
X126927100Y-118635600D02*
X126927100Y-117045600D01*
X125641100Y-128377600D02*
X125641100Y-129514600D01*
X125641100Y-128377600D02*
X125641100Y-119921600D01*
D35*
%TO.N,Net-(R1-Pad2)*%
X135547100Y-112623600D02*
X136563100Y-111607600D01*
X139357100Y-111607600D02*
X140373100Y-110591600D01*
X143929100Y-110591600D02*
X144751100Y-109769600D01*
X129363100Y-112623600D02*
X135547100Y-112623600D01*
X144751100Y-109769600D02*
X144751100Y-108505600D01*
X136563100Y-111607600D02*
X139357100Y-111607600D01*
X126784100Y-115202600D02*
X129363100Y-112623600D01*
X140373100Y-110591600D02*
X143929100Y-110591600D01*
D34*
%TO.N,Net-(R2-Pad1)*%
X128927100Y-118635600D02*
X128927100Y-117045600D01*
X128927100Y-117045600D02*
X129070100Y-116902600D01*
D35*
%TO.N,Net-(R2-Pad2)*%
X140627100Y-111099600D02*
X144183100Y-111099600D01*
X145251100Y-110031600D02*
X145251100Y-108505600D01*
X144183100Y-111099600D02*
X145251100Y-110031600D01*
X136817100Y-112115600D02*
X139611100Y-112115600D01*
X139611100Y-112115600D02*
X140627100Y-111099600D01*
X135801100Y-113131600D02*
X136817100Y-112115600D01*
X131141100Y-113131600D02*
X135801100Y-113131600D01*
X129070100Y-115202600D02*
X131141100Y-113131600D01*
D34*
%TO.N,Net-(R3-Pad1)*%
X130213100Y-119921600D02*
X131499100Y-118635600D01*
X130721100Y-130022600D02*
X133769100Y-130022600D01*
X130213100Y-129514600D02*
X130721100Y-130022600D01*
X131499100Y-117045600D02*
X131356100Y-116902600D01*
X133769100Y-130022600D02*
X134501100Y-130754600D01*
X134501100Y-130754600D02*
X134501100Y-131673600D01*
X130213100Y-128377600D02*
X130213100Y-119921600D01*
X127927100Y-128377600D02*
X130213100Y-128377600D01*
X130213100Y-128377600D02*
X130213100Y-129514600D01*
X131499100Y-118635600D02*
X131499100Y-117045600D01*
%TO.N,Net-(R3-Pad2)*%
X127927100Y-122777600D02*
X127927100Y-120835600D01*
D35*
%TO.N,Net-(R4-Pad2)*%
X136055100Y-113639600D02*
X137071100Y-112623600D01*
X137071100Y-112623600D02*
X139865100Y-112623600D01*
X145751100Y-110293600D02*
X145751100Y-108505600D01*
X139865100Y-112623600D02*
X140881100Y-111607600D01*
X144437100Y-111607600D02*
X145751100Y-110293600D01*
X132919100Y-113639600D02*
X136055100Y-113639600D01*
X131356100Y-115202600D02*
X132919100Y-113639600D01*
X140881100Y-111607600D02*
X144437100Y-111607600D01*
D34*
%TO.N,Net-(R30-Pad1)*%
X134785100Y-128377600D02*
X134785100Y-129641600D01*
X135166100Y-130022600D02*
X136350100Y-130022600D01*
X136071100Y-117045600D02*
X135928100Y-116902600D01*
X134785100Y-128377600D02*
X134785100Y-119921600D01*
X134785100Y-129641600D02*
X135166100Y-130022600D01*
X134785100Y-119921600D02*
X136071100Y-118635600D01*
X132499100Y-128377600D02*
X134785100Y-128377600D01*
X136071100Y-118635600D02*
X136071100Y-117045600D01*
X136350100Y-130022600D02*
X138001100Y-131673600D01*
D35*
%TO.N,Net-(R5-Pad2)*%
X137491100Y-113639600D02*
X140373100Y-113639600D01*
X144945100Y-112623600D02*
X146751100Y-110817600D01*
X135928100Y-115202600D02*
X137491100Y-113639600D01*
X146751100Y-110817600D02*
X146751100Y-108505600D01*
X141389100Y-112623600D02*
X144945100Y-112623600D01*
X140373100Y-113639600D02*
X141389100Y-112623600D01*
D34*
%TO.N,Net-(R6-Pad1)*%
X138071100Y-118635600D02*
X138071100Y-117045600D01*
X138071100Y-117045600D02*
X138214100Y-116902600D01*
D35*
%TO.N,Net-(R6-Pad2)*%
X139269100Y-114147600D02*
X140627100Y-114147600D01*
X147251100Y-111079600D02*
X147251100Y-108505600D01*
X141643100Y-113131600D02*
X145199100Y-113131600D01*
X138214100Y-115202600D02*
X139269100Y-114147600D01*
X145199100Y-113131600D02*
X147251100Y-111079600D01*
X140627100Y-114147600D02*
X141643100Y-113131600D01*
D34*
%TO.N,Net-(R31-Pad1)*%
X139357100Y-119921600D02*
X140643100Y-118635600D01*
X139357100Y-129529600D02*
X141501100Y-131673600D01*
X137071100Y-128377600D02*
X139357100Y-128377600D01*
X140643100Y-118635600D02*
X140643100Y-117045600D01*
X140643100Y-117045600D02*
X140500100Y-116902600D01*
X139357100Y-128377600D02*
X139357100Y-129529600D01*
X139357100Y-128377600D02*
X139357100Y-119921600D01*
D35*
%TO.N,Net-(R7-Pad2)*%
X140500100Y-115036600D02*
X141897100Y-113639600D01*
X140500100Y-115202600D02*
X140500100Y-115036600D01*
X141897100Y-113639600D02*
X145453100Y-113639600D01*
X145453100Y-113639600D02*
X147751100Y-111341600D01*
X147751100Y-111341600D02*
X147751100Y-108505600D01*
D34*
%TO.N,Net-(R8-Pad1)*%
X142643100Y-118635600D02*
X142643100Y-117045600D01*
X142643100Y-117045600D02*
X142786100Y-116902600D01*
D35*
%TO.N,Net-(R8-Pad2)*%
X148251100Y-111603600D02*
X148251100Y-108505600D01*
X142786100Y-115202600D02*
X143841100Y-114147600D01*
X143841100Y-114147600D02*
X145707100Y-114147600D01*
X145707100Y-114147600D02*
X148251100Y-111603600D01*
D34*
%TO.N,Net-(R32-Pad1)*%
X145001100Y-131673600D02*
X143929100Y-130601600D01*
X143929100Y-119921600D02*
X145215100Y-118635600D01*
X143929100Y-128377600D02*
X141643100Y-128377600D01*
X143929100Y-130601600D02*
X143929100Y-128377600D01*
X145215100Y-117045600D02*
X145072100Y-116902600D01*
X143929100Y-128377600D02*
X143929100Y-119921600D01*
X145215100Y-118635600D02*
X145215100Y-117045600D01*
D35*
%TO.N,Net-(R9-Pad2)*%
X145072100Y-115202600D02*
X145365100Y-114909600D01*
X145707100Y-114909600D02*
X148751100Y-111865600D01*
X148751100Y-111865600D02*
X148751100Y-108505600D01*
X145365100Y-114909600D02*
X145707100Y-114909600D01*
D34*
%TO.N,Net-(R10-Pad1)*%
X147231100Y-116433600D02*
X147231100Y-116775600D01*
X147231100Y-116775600D02*
X147358100Y-116902600D01*
X147215100Y-116449600D02*
X147231100Y-116433600D01*
X147215100Y-118635600D02*
X147215100Y-116449600D01*
D35*
%TO.N,Net-(R10-Pad2)*%
X147358100Y-115202600D02*
X147358100Y-114020600D01*
X149251100Y-112127600D02*
X149251100Y-108505600D01*
X147358100Y-114020600D02*
X149251100Y-112127600D01*
D34*
%TO.N,Net-(R11-Pad1)*%
X149787100Y-117045600D02*
X149644100Y-116902600D01*
X148501100Y-128377600D02*
X148501100Y-119921600D01*
X148501100Y-128377600D02*
X146215100Y-128377600D01*
X148501100Y-119921600D02*
X149787100Y-118635600D01*
X149787100Y-118635600D02*
X149787100Y-117045600D01*
X148501100Y-131673600D02*
X148501100Y-128377600D01*
D35*
%TO.N,Net-(R11-Pad2)*%
X149751100Y-115095600D02*
X149751100Y-108505600D01*
X149644100Y-115202600D02*
X149751100Y-115095600D01*
D34*
%TO.N,Net-(R12-Pad1)*%
X151787100Y-118635600D02*
X151787100Y-117045600D01*
X151787100Y-117045600D02*
X151930100Y-116902600D01*
D35*
%TO.N,Net-(R12-Pad2)*%
X150251100Y-113523600D02*
X150251100Y-108505600D01*
X151930100Y-115202600D02*
X150251100Y-113523600D01*
D34*
%TO.N,Net-(R13-Pad1)*%
X124355100Y-117045600D02*
X124498100Y-116902600D01*
X124355100Y-118635600D02*
X124355100Y-117045600D01*
D35*
%TO.N,Net-(R13-Pad2)*%
X124498100Y-115202600D02*
X127585100Y-112115600D01*
X140119100Y-110083600D02*
X143675100Y-110083600D01*
X144251100Y-109507600D02*
X144251100Y-108505600D01*
X139103100Y-111099600D02*
X140119100Y-110083600D01*
X135293100Y-112115600D02*
X136309100Y-111099600D01*
X136309100Y-111099600D02*
X139103100Y-111099600D01*
X143675100Y-110083600D02*
X144251100Y-109507600D01*
X127585100Y-112115600D02*
X135293100Y-112115600D01*
D36*
%TO.N,Net-(R14-Pad1)*%
X152293100Y-89058600D02*
X153270100Y-89058600D01*
X153270100Y-89058600D02*
X155105100Y-87223600D01*
X155105100Y-87223600D02*
X155779100Y-87223600D01*
D35*
%TO.N,Net-(R15-Pad1)*%
X132499100Y-107201600D02*
X132587100Y-107289600D01*
X124371100Y-101983600D02*
X126177100Y-101983600D01*
X131737100Y-106019600D02*
X132499100Y-106781600D01*
X130213100Y-106019600D02*
X131737100Y-106019600D01*
X132587100Y-107289600D02*
X134443100Y-107289600D01*
X126177100Y-101983600D02*
X130213100Y-106019600D01*
X132499100Y-106781600D02*
X132499100Y-107201600D01*
D34*
%TO.N,Net-(R16-Pad1)*%
X122355100Y-117045600D02*
X122212100Y-116902600D01*
D35*
X126149100Y-108002600D02*
X127546100Y-106605600D01*
X124625100Y-113639600D02*
X126149100Y-112115600D01*
X123355100Y-113639600D02*
X124625100Y-113639600D01*
X126149100Y-112115600D02*
X126149100Y-108002600D01*
D34*
X121069100Y-129895600D02*
X121069100Y-119921600D01*
D35*
X122212100Y-116902600D02*
X121538100Y-116902600D01*
D34*
X122847100Y-131673600D02*
X121069100Y-129895600D01*
D35*
X121069100Y-114147600D02*
X122847100Y-114147600D01*
D34*
X122355100Y-118635600D02*
X122355100Y-117045600D01*
X121069100Y-119921600D02*
X122355100Y-118635600D01*
D35*
X122847100Y-114147600D02*
X123355100Y-113639600D01*
X121069100Y-116433600D02*
X121069100Y-114147600D01*
D34*
X122847100Y-131673600D02*
X127501100Y-131673600D01*
D35*
X121538100Y-116902600D02*
X121069100Y-116433600D01*
%TO.N,Net-(R16-Pad2)*%
X135039100Y-111607600D02*
X136055100Y-110591600D01*
X122466100Y-115202600D02*
X123521100Y-114147600D01*
X136055100Y-110591600D02*
X138849100Y-110591600D01*
X143421100Y-109575600D02*
X143751100Y-109245600D01*
X138849100Y-110591600D02*
X139865100Y-109575600D01*
X124879100Y-114147600D02*
X127419100Y-111607600D01*
X127419100Y-111607600D02*
X135039100Y-111607600D01*
X123521100Y-114147600D02*
X124879100Y-114147600D01*
X139865100Y-109575600D02*
X143421100Y-109575600D01*
X143751100Y-109245600D02*
X143751100Y-108505600D01*
X122212100Y-115202600D02*
X122466100Y-115202600D01*
D34*
%TO.N,Net-(R17-Pad2)*%
X123355100Y-122777600D02*
X123355100Y-120835600D01*
%TO.N,Net-(R18-Pad1)*%
X153073100Y-119921600D02*
X154359100Y-118635600D01*
X154359100Y-117045600D02*
X154216100Y-116902600D01*
X153073100Y-128377600D02*
X150787100Y-128377600D01*
X152001100Y-131673600D02*
X153073100Y-130601600D01*
X154359100Y-118635600D02*
X154359100Y-117045600D01*
X153073100Y-130601600D02*
X153073100Y-128377600D01*
X153073100Y-128377600D02*
X153073100Y-119921600D01*
D35*
%TO.N,Net-(R18-Pad2)*%
X150751100Y-111737600D02*
X150751100Y-108505600D01*
X154216100Y-115202600D02*
X150751100Y-111737600D01*
D34*
%TO.N,Net-(R19-Pad1)*%
X156359100Y-117045600D02*
X156502100Y-116902600D01*
X156359100Y-118635600D02*
X156359100Y-117045600D01*
D35*
%TO.N,Net-(R19-Pad2)*%
X151251100Y-111563600D02*
X151251100Y-108505600D01*
X153835100Y-114147600D02*
X151251100Y-111563600D01*
X156502100Y-115202600D02*
X155447100Y-114147600D01*
X155447100Y-114147600D02*
X153835100Y-114147600D01*
D34*
%TO.N,Net-(R20-Pad1)*%
X133499100Y-118635600D02*
X133499100Y-117045600D01*
X133499100Y-117045600D02*
X133642100Y-116902600D01*
D35*
%TO.N,Net-(R20-Pad2)*%
X141135100Y-112115600D02*
X144691100Y-112115600D01*
X137325100Y-113131600D02*
X140119100Y-113131600D01*
X144691100Y-112115600D02*
X146251100Y-110555600D01*
X146251100Y-110555600D02*
X146251100Y-108505600D01*
X133642100Y-115202600D02*
X134697100Y-114147600D01*
X136309100Y-114147600D02*
X137325100Y-113131600D01*
X134697100Y-114147600D02*
X136309100Y-114147600D01*
X140119100Y-113131600D02*
X141135100Y-112115600D01*
D34*
%TO.N,Net-(R21-Pad1)*%
X158931100Y-117045600D02*
X158788100Y-116902600D01*
X157645100Y-128377600D02*
X155359100Y-128377600D01*
X155501100Y-131673600D02*
X157645100Y-129529600D01*
X158931100Y-118635600D02*
X158931100Y-117045600D01*
X157645100Y-128377600D02*
X157645100Y-119921600D01*
X157645100Y-129529600D02*
X157645100Y-128377600D01*
X157645100Y-119921600D02*
X158931100Y-118635600D01*
D35*
%TO.N,Net-(R21-Pad2)*%
X151751100Y-111301600D02*
X151751100Y-108505600D01*
X157225100Y-113639600D02*
X158788100Y-115202600D01*
X154089100Y-113639600D02*
X151751100Y-111301600D01*
X154089100Y-113639600D02*
X157225100Y-113639600D01*
D34*
%TO.N,Net-(R22-Pad1)*%
X160931100Y-117045600D02*
X161074100Y-116902600D01*
X160931100Y-118635600D02*
X160931100Y-117045600D01*
D35*
%TO.N,Net-(R22-Pad2)*%
X159003100Y-113131600D02*
X161074100Y-115202600D01*
X154343100Y-113131600D02*
X159003100Y-113131600D01*
X154343100Y-113131600D02*
X152251100Y-111039600D01*
X152251100Y-111039600D02*
X152251100Y-108505600D01*
D34*
%TO.N,Net-(R23-Pad1)*%
X159001100Y-131673600D02*
X159931100Y-130743600D01*
X159931100Y-130743600D02*
X159931100Y-128377600D01*
X163503100Y-117045600D02*
X163360100Y-116902600D01*
X162217100Y-119921600D02*
X163503100Y-118635600D01*
X159931100Y-128377600D02*
X162217100Y-128377600D01*
X162217100Y-128377600D02*
X162217100Y-119921600D01*
X163503100Y-118635600D02*
X163503100Y-117045600D01*
D35*
%TO.N,Net-(R23-Pad2)*%
X152751100Y-110777600D02*
X152751100Y-108505600D01*
X152751100Y-110777600D02*
X154597100Y-112623600D01*
X154597100Y-112623600D02*
X160781100Y-112623600D01*
X160781100Y-112623600D02*
X163360100Y-115202600D01*
D34*
%TO.N,Net-(R24-Pad1)*%
X165503100Y-117045600D02*
X165646100Y-116902600D01*
X165503100Y-118635600D02*
X165503100Y-117045600D01*
D35*
%TO.N,Net-(R24-Pad2)*%
X154851100Y-112115600D02*
X162559100Y-112115600D01*
X162559100Y-112115600D02*
X165646100Y-115202600D01*
X153251100Y-110515600D02*
X153251100Y-108505600D01*
X153251100Y-110515600D02*
X154851100Y-112115600D01*
D34*
%TO.N,Net-(R25-Pad1)*%
X168075100Y-118635600D02*
X168075100Y-117045600D01*
X166789100Y-128377600D02*
X166789100Y-119921600D01*
X168075100Y-117045600D02*
X167932100Y-116902600D01*
X166789100Y-119921600D02*
X168075100Y-118635600D01*
X164503100Y-128377600D02*
X166789100Y-128377600D01*
X162501100Y-131673600D02*
X164503100Y-129671600D01*
X164503100Y-129671600D02*
X164503100Y-128377600D01*
D35*
%TO.N,Net-(R25-Pad2)*%
X153751100Y-110253600D02*
X153751100Y-108505600D01*
X155105100Y-111607600D02*
X153751100Y-110253600D01*
X155105100Y-111607600D02*
X164337100Y-111607600D01*
X164337100Y-111607600D02*
X167932100Y-115202600D01*
D34*
%TO.N,Net-(R26-Pad1)*%
X170075100Y-118635600D02*
X170075100Y-117045600D01*
X170075100Y-117045600D02*
X170218100Y-116902600D01*
D35*
%TO.N,Net-(R26-Pad2)*%
X160439100Y-102463600D02*
X159731100Y-101755600D01*
X167805100Y-114147600D02*
X160439100Y-106781600D01*
X170218100Y-115202600D02*
X169163100Y-114147600D01*
X159731100Y-101755600D02*
X153751100Y-101755600D01*
X169163100Y-114147600D02*
X167805100Y-114147600D01*
X160439100Y-106781600D02*
X160439100Y-102463600D01*
D34*
%TO.N,Net-(R27-Pad1)*%
X166001100Y-131673600D02*
X169075100Y-128599600D01*
X171361100Y-128377600D02*
X171361100Y-119921600D01*
X169075100Y-128377600D02*
X171361100Y-128377600D01*
X169075100Y-128599600D02*
X169075100Y-128377600D01*
X172647100Y-117045600D02*
X172504100Y-116902600D01*
X171361100Y-119921600D02*
X172647100Y-118635600D01*
X172647100Y-118635600D02*
X172647100Y-117045600D01*
D35*
%TO.N,Net-(R27-Pad2)*%
X153251100Y-101015600D02*
X153581100Y-100685600D01*
X153251100Y-101755600D02*
X153251100Y-101015600D01*
X168059100Y-113639600D02*
X170941100Y-113639600D01*
X153581100Y-100685600D02*
X159423100Y-100685600D01*
X160947100Y-106527600D02*
X168059100Y-113639600D01*
X159423100Y-100685600D02*
X160947100Y-102209600D01*
X160947100Y-102209600D02*
X160947100Y-106527600D01*
X170941100Y-113639600D02*
X172504100Y-115202600D01*
D34*
%TO.N,Net-(R28-Pad1)*%
X174647100Y-118635600D02*
X174647100Y-117045600D01*
X174647100Y-117045600D02*
X174790100Y-116902600D01*
D35*
%TO.N,Net-(R28-Pad2)*%
X168313100Y-113131600D02*
X172719100Y-113131600D01*
X172719100Y-113131600D02*
X174790100Y-115202600D01*
X159677100Y-100177600D02*
X161455100Y-101955600D01*
X152751100Y-101755600D02*
X152751100Y-100753600D01*
X153327100Y-100177600D02*
X159677100Y-100177600D01*
X161455100Y-106273600D02*
X168313100Y-113131600D01*
X152751100Y-100753600D02*
X153327100Y-100177600D01*
X161455100Y-101955600D02*
X161455100Y-106273600D01*
D34*
%TO.N,Net-(R30-Pad2)*%
X132499100Y-122777600D02*
X132499100Y-120835600D01*
%TO.N,Net-(R31-Pad2)*%
X137071100Y-122777600D02*
X137071100Y-120835600D01*
%TO.N,Net-(R32-Pad2)*%
X141643100Y-120835600D02*
X141643100Y-122777600D01*
%TO.N,Net-(R33-Pad2)*%
X146215100Y-120835600D02*
X146215100Y-122777600D01*
%TO.N,Net-(R34-Pad2)*%
X150787100Y-120835600D02*
X150787100Y-122777600D01*
%TO.N,Net-(R35-Pad2)*%
X155359100Y-120835600D02*
X155359100Y-122777600D01*
%TO.N,Net-(R36-Pad2)*%
X159931100Y-120835600D02*
X159931100Y-122777600D01*
%TO.N,Net-(R37-Pad2)*%
X164503100Y-120835600D02*
X164503100Y-122777600D01*
%TO.N,Net-(R38-Pad2)*%
X169075100Y-120835600D02*
X169075100Y-122777600D01*
%TO.N,Net-(R39-Pad2)*%
X173647100Y-120835600D02*
X173647100Y-122777600D01*
D35*
%TO.N,Net-(R40-Pad1)*%
X165861100Y-103987600D02*
X171135100Y-103987600D01*
X165861100Y-106019600D02*
X165861100Y-103987600D01*
X171135100Y-103987600D02*
X172631100Y-105483600D01*
%TO.N,Net-(R52-Pad2)*%
X141135100Y-106019600D02*
X141897100Y-105257600D01*
X138761100Y-106019600D02*
X141135100Y-106019600D01*
X143751100Y-102971600D02*
X143751100Y-101755600D01*
X138761100Y-106019600D02*
X138761100Y-107289600D01*
X132626100Y-103758600D02*
X134887100Y-106019600D01*
X142151100Y-102971600D02*
X143751100Y-102971600D01*
X134887100Y-106019600D02*
X138761100Y-106019600D01*
X141897100Y-103225600D02*
X142151100Y-102971600D01*
X141897100Y-105257600D02*
X141897100Y-103225600D01*
X132626100Y-103225600D02*
X132626100Y-103758600D01*
D36*
%TO.N,Net-(SN65-PadP$1)*%
X154216100Y-85572600D02*
X154216100Y-84175600D01*
X153130100Y-86658600D02*
X154216100Y-85572600D01*
X152293100Y-86658600D02*
X153130100Y-86658600D01*
%TO.N,Net-(SN65-PadP$4)*%
X154724100Y-81508600D02*
X156375100Y-81508600D01*
X156375100Y-81508600D02*
X158026100Y-83159600D01*
X153327100Y-82905600D02*
X154724100Y-81508600D01*
X152914100Y-85858600D02*
X153327100Y-85445600D01*
X153327100Y-85445600D02*
X153327100Y-82905600D01*
X152293100Y-85858600D02*
X152914100Y-85858600D01*
X158026100Y-83159600D02*
X158026100Y-84175600D01*
D37*
%TO.N,Net-(SN65-PadP$6)*%
X170091100Y-76301600D02*
X175425100Y-81635600D01*
X128181100Y-77825600D02*
X129705100Y-76301600D01*
X128181100Y-88493600D02*
X128181100Y-77825600D01*
X175425100Y-81635600D02*
X175425100Y-87223600D01*
X175425100Y-87223600D02*
X172631100Y-90017600D01*
X126657100Y-90017600D02*
X128181100Y-88493600D01*
X124371100Y-90017600D02*
X126657100Y-90017600D01*
X156756100Y-76301600D02*
X156756100Y-78587600D01*
X156756100Y-76301600D02*
X170091100Y-76301600D01*
X129705100Y-76301600D02*
X156756100Y-76301600D01*
%TO.N,Net-(SN65-PadP$7)*%
X129197100Y-78079600D02*
X130213100Y-77063600D01*
X130213100Y-77063600D02*
X155486100Y-77063600D01*
X155486100Y-79857600D02*
X159677100Y-79857600D01*
X125443100Y-93517600D02*
X129197100Y-89763600D01*
X155486100Y-77063600D02*
X155486100Y-78587600D01*
X174409100Y-81889600D02*
X174409100Y-84739600D01*
X159677100Y-79857600D02*
X159677100Y-77063600D01*
X155486100Y-78587600D02*
X155486100Y-79857600D01*
X129197100Y-89763600D02*
X129197100Y-78079600D01*
X174409100Y-84739600D02*
X172631100Y-86517600D01*
X169583100Y-77063600D02*
X174409100Y-81889600D01*
X124371100Y-93517600D02*
X125443100Y-93517600D01*
X159677100Y-77063600D02*
X169583100Y-77063600D01*
D36*
%TO.N,Net-(SN65-PadP$8)*%
X152293100Y-82923600D02*
X154216100Y-81000600D01*
X152293100Y-85058600D02*
X152293100Y-82923600D01*
X154216100Y-81000600D02*
X154216100Y-78587600D01*
D35*
%TO.N,Net-(U$1-Pad41)*%
X140373100Y-102209600D02*
X142405100Y-100177600D01*
X136436100Y-104114600D02*
X136817100Y-104495600D01*
X140373100Y-104495600D02*
X140373100Y-102209600D01*
X144183100Y-100177600D02*
X144751100Y-100745600D01*
X136436100Y-103225600D02*
X136436100Y-104114600D01*
X142405100Y-100177600D02*
X144183100Y-100177600D01*
X136817100Y-104495600D02*
X140373100Y-104495600D01*
X144751100Y-100745600D02*
X144751100Y-101755600D01*
%TO.N,Net-(U$1-Pad42)*%
X135166100Y-103860600D02*
X136309100Y-105003600D01*
X140881100Y-102463600D02*
X142659100Y-100685600D01*
X142659100Y-100685600D02*
X143929100Y-100685600D01*
X143929100Y-100685600D02*
X144251100Y-101007600D01*
X144251100Y-101007600D02*
X144251100Y-101755600D01*
X136309100Y-105003600D02*
X140627100Y-105003600D01*
X140627100Y-105003600D02*
X140881100Y-104749600D01*
X140881100Y-104749600D02*
X140881100Y-102463600D01*
X135166100Y-103225600D02*
X135166100Y-103860600D01*
%TO.N,Net-(U$1-Pad44)*%
X140881100Y-105511600D02*
X141389100Y-105003600D01*
X141389100Y-105003600D02*
X141389100Y-102971600D01*
X135547100Y-105511600D02*
X140881100Y-105511600D01*
X141897100Y-102463600D02*
X143251100Y-102463600D01*
X133896100Y-103860600D02*
X133896100Y-103225600D01*
X135547100Y-105511600D02*
X133896100Y-103860600D01*
X143251100Y-102463600D02*
X143251100Y-101755600D01*
X141389100Y-102971600D02*
X141897100Y-102463600D01*
D36*
%TO.N,Net-(U$3-Pad15)*%
X143929100Y-83159600D02*
X144691100Y-82397600D01*
X145707100Y-82397600D02*
X145993100Y-82683600D01*
X145993100Y-82683600D02*
X145993100Y-83558600D01*
X144691100Y-82397600D02*
X145707100Y-82397600D01*
X139103100Y-83159600D02*
X143929100Y-83159600D01*
%TO.N,Net-(U$3-Pad16)*%
X132753100Y-84429600D02*
X141643100Y-84429600D01*
X142151100Y-83921600D02*
X145193100Y-83921600D01*
X141643100Y-84429600D02*
X142151100Y-83921600D01*
X131483100Y-83159600D02*
X132753100Y-84429600D01*
X145193100Y-83921600D02*
X145193100Y-83558600D01*
%TO.N,Net-(U$3-Pad17)*%
X142792100Y-85058600D02*
X143693100Y-85058600D01*
X137833100Y-86969600D02*
X140881100Y-86969600D01*
X136563100Y-88239600D02*
X137833100Y-86969600D01*
X131483100Y-88239600D02*
X136563100Y-88239600D01*
X140881100Y-86969600D02*
X142792100Y-85058600D01*
%TO.N,Net-(U$3-Pad18)*%
X139103100Y-88239600D02*
X140627100Y-88239600D01*
X140627100Y-88239600D02*
X143008100Y-85858600D01*
X143008100Y-85858600D02*
X143693100Y-85858600D01*
D37*
%TO.N,/VOD*%
X132626100Y-94335600D02*
X132753100Y-94208600D01*
D36*
X132626100Y-94335600D02*
X132626100Y-93573600D01*
X142151100Y-89509600D02*
X142532100Y-89128600D01*
X132626100Y-93573600D02*
X136690100Y-89509600D01*
X142532100Y-89128600D02*
X143693100Y-89128600D01*
X143693100Y-89128600D02*
X143693100Y-89058600D01*
X136690100Y-89509600D02*
X142151100Y-89509600D01*
%TO.N,/VIC*%
X133896100Y-94335600D02*
X133896100Y-93573600D01*
X137325100Y-90144600D02*
X142532100Y-90144600D01*
X142532100Y-90144600D02*
X142818100Y-89858600D01*
X133896100Y-93573600D02*
X137325100Y-90144600D01*
X142818100Y-89858600D02*
X143693100Y-89858600D01*
%TO.N,/VIB*%
X143572100Y-90779600D02*
X143693100Y-90658600D01*
X137960100Y-90779600D02*
X143572100Y-90779600D01*
X135166100Y-94335600D02*
X135166100Y-93573600D01*
X135166100Y-93573600D02*
X137960100Y-90779600D01*
%TO.N,/VIA*%
X144564100Y-91414600D02*
X145193100Y-92043600D01*
X136436100Y-94335600D02*
X136436100Y-93573600D01*
X145193100Y-92043600D02*
X145193100Y-92158600D01*
X136436100Y-93573600D02*
X138595100Y-91414600D01*
X138595100Y-91414600D02*
X144564100Y-91414600D01*
%TD*%
M02*
