M48
; DRILL file {KiCad (6.0.10)} date Mon Jan 23 12:47:46 2023
; FORMAT={-:-/ absolute / inch / decimal}
; #@! TF.CreationDate,2023-01-23T12:47:46+01:00
; #@! TF.GenerationSoftware,Kicad,Pcbnew,(6.0.10)
; #@! TF.FileFunction,Plated,1,2,PTH
FMAT,2
INCH
; #@! TA.AperFunction,Plated,PTH,ViaDrill
T1C0.0236
; #@! TA.AperFunction,Plated,PTH,ComponentDrill
T2C0.0315
; #@! TA.AperFunction,Plated,PTH,ComponentDrill
T3C0.0320
; #@! TA.AperFunction,Plated,PTH,ComponentDrill
T4C0.0400
; #@! TA.AperFunction,Plated,PTH,ComponentDrill
T5C0.0472
; #@! TA.AperFunction,Plated,PTH,ComponentDrill
T6C0.0512
%
G90
G05
T1
X4.8165Y-3.214
X5.0865Y-4.264
X5.1215Y-3.634
X5.1215Y-3.999
X5.4218Y-3.999
X5.5465Y-3.639
X5.5965Y-3.474
X5.7265Y-3.474
X5.7465Y-3.559
X5.7865Y-3.144
X5.7965Y-4.089
X5.8465Y-3.559
X5.8515Y-3.434
X5.9165Y-4.194
X5.9265Y-3.414
X5.9265Y-3.474
X5.9765Y-4.134
X6.0265Y-3.614
X6.0465Y-4.089
X6.1215Y-3.249
X6.2115Y-3.734
X6.2765Y-4.074
X6.2765Y-4.134
X6.2765Y-4.194
X6.3365Y-3.754
X6.3965Y-4.134
X6.5865Y-3.984
X6.8365Y-4.979
T2
X5.1765Y-3.274
X5.1765Y-3.374
X5.1765Y-3.474
X5.4765Y-3.274
X5.4765Y-3.374
X5.4765Y-3.474
T3
X6.3665Y-3.274
X6.3665Y-3.374
X6.3665Y-3.474
T4
X5.6465Y-3.734
X5.7465Y-3.734
X5.8465Y-3.734
X5.9465Y-3.734
X6.0465Y-3.734
T5
X5.0197Y-5.184
X5.1575Y-5.184
X5.2953Y-5.184
X5.4331Y-5.184
X5.5709Y-5.184
X5.7087Y-5.184
X5.8465Y-5.184
X5.9843Y-5.184
X6.1221Y-5.184
X6.2599Y-5.184
X6.3977Y-5.184
X6.5355Y-5.184
X6.6733Y-5.184
T6
X4.8965Y-3.2684
X4.8965Y-3.4062
X4.8965Y-3.544
X4.8965Y-3.6818
X4.8965Y-3.8196
X4.8965Y-4.0151
X4.8965Y-4.1529
X6.7965Y-3.2684
X6.7965Y-3.4062
X6.7965Y-3.544
X6.7965Y-3.6818
X6.7965Y-3.8196
X6.7965Y-4.0151
X6.7965Y-4.1529
T0
M30
