%TF.GenerationSoftware,KiCad,Pcbnew,(6.0.10)*%
%TF.CreationDate,2023-01-23T12:48:01+01:00*%
%TF.ProjectId,BMS12v3,424d5331-3276-4332-9e6b-696361645f70,rev?*%
%TF.SameCoordinates,Original*%
%TF.FileFunction,Copper,L2,Bot*%
%TF.FilePolarity,Positive*%
%FSLAX46Y46*%
G04 Gerber Fmt 4.6, Leading zero omitted, Abs format (unit mm)*
G04 Created by KiCad (PCBNEW (6.0.10)) date 2023-01-23 12:48:01*
%MOMM*%
%LPD*%
G01*
G04 APERTURE LIST*
%TA.AperFunction,ComponentPad*%
%ADD10O,1.524000X3.048000*%
%TD*%
%TA.AperFunction,ComponentPad*%
%ADD11O,2.641600X1.320800*%
%TD*%
%TA.AperFunction,ComponentPad*%
%ADD12R,1.950000X1.950000*%
%TD*%
%TA.AperFunction,ComponentPad*%
%ADD13R,1.308000X1.308000*%
%TD*%
%TA.AperFunction,ComponentPad*%
%ADD14R,1.800000X1.800000*%
%TD*%
%TA.AperFunction,ViaPad*%
%ADD15C,1.006400*%
%TD*%
%TA.AperFunction,Conductor*%
%ADD16C,0.609600*%
%TD*%
%TA.AperFunction,Conductor*%
%ADD17C,0.254000*%
%TD*%
%TA.AperFunction,Conductor*%
%ADD18C,0.304800*%
%TD*%
G04 APERTURE END LIST*
D10*
%TO.P,PROG1,1,1*%
%TO.N,GND*%
X143421100Y-94843600D03*
%TO.P,PROG1,2,2*%
%TO.N,Net-(PROG1-Pad2)*%
X145961100Y-94843600D03*
%TO.P,PROG1,3,3*%
%TO.N,Net-(PROG1-Pad3)*%
X148501100Y-94843600D03*
%TO.P,PROG1,4,4*%
%TO.N,Net-(PROG1-Pad4)*%
X151041100Y-94843600D03*
%TO.P,PROG1,5,5*%
%TO.N,Net-(C2-Pad2)*%
X153581100Y-94843600D03*
%TD*%
D11*
%TO.P,LD1,AR,AR*%
%TO.N,Net-(LD1-PadAR)*%
X161709100Y-88239600D03*
%TO.P,LD1,AX,AG*%
%TO.N,Net-(LD1-PadAX)*%
X161709100Y-83159600D03*
%TO.P,LD1,C,C*%
%TO.N,GND*%
X161709100Y-85699600D03*
%TD*%
D12*
%TO.P,U$2,1,1*%
%TO.N,+12V*%
X124371100Y-97017600D03*
%TO.P,U$2,2,2*%
%TO.N,Net-(SN65-PadP$7)*%
X124371100Y-93517600D03*
%TO.P,U$2,3,3*%
%TO.N,Net-(SN65-PadP$6)*%
X124371100Y-90017600D03*
%TO.P,U$2,4,4*%
%TO.N,GND*%
X124371100Y-86517600D03*
%TO.P,U$2,5,5*%
%TO.N,Net-(U$19-Pad5)*%
X124371100Y-83017600D03*
%TD*%
D13*
%TO.P,U$31,1,1*%
%TO.N,Net-(U$3-Pad16)*%
X131483100Y-83159600D03*
%TO.P,U$31,2,2*%
%TO.N,Net-(U$3-Pad18)*%
X139103100Y-88239600D03*
%TO.P,U$31,4,4*%
%TO.N,Net-(U$3-Pad17)*%
X131483100Y-88239600D03*
%TO.P,U$31,8,8*%
%TO.N,Net-(U$3-Pad15)*%
X139103100Y-83159600D03*
%TO.P,U$31,C,C*%
%TO.N,GND*%
X131483100Y-85699600D03*
%TO.P,U$31,C2,C_*%
X139103100Y-85699600D03*
%TD*%
D12*
%TO.P,U$21,1,1*%
%TO.N,AGND*%
X124371100Y-105483600D03*
%TO.P,U$21,2,2*%
%TO.N,Net-(R15-Pad1)*%
X124371100Y-101983600D03*
%TD*%
%TO.P,U$20,1,1*%
%TO.N,AGND*%
X172631100Y-101983600D03*
%TO.P,U$20,2,2*%
%TO.N,Net-(R40-Pad1)*%
X172631100Y-105483600D03*
%TD*%
%TO.P,U$19,1,1*%
%TO.N,+12V*%
X172631100Y-83017600D03*
%TO.P,U$19,2,2*%
%TO.N,Net-(SN65-PadP$7)*%
X172631100Y-86517600D03*
%TO.P,U$19,3,3*%
%TO.N,Net-(SN65-PadP$6)*%
X172631100Y-90017600D03*
%TO.P,U$19,4,4*%
%TO.N,GND*%
X172631100Y-93517600D03*
%TO.P,U$19,5,5*%
%TO.N,Net-(U$19-Pad5)*%
X172631100Y-97017600D03*
%TD*%
D14*
%TO.P,U$18,1,1*%
%TO.N,Net-(R16-Pad1)*%
X127501100Y-131673600D03*
%TO.P,U$18,2,2*%
%TO.N,Net-(R1-Pad1)*%
X131001100Y-131673600D03*
%TO.P,U$18,3,3*%
%TO.N,Net-(R3-Pad1)*%
X134501100Y-131673600D03*
%TO.P,U$18,4,4*%
%TO.N,Net-(R30-Pad1)*%
X138001100Y-131673600D03*
%TO.P,U$18,5,5*%
%TO.N,Net-(R31-Pad1)*%
X141501100Y-131673600D03*
%TO.P,U$18,6,6*%
%TO.N,Net-(R32-Pad1)*%
X145001100Y-131673600D03*
%TO.P,U$18,7,7*%
%TO.N,Net-(R11-Pad1)*%
X148501100Y-131673600D03*
%TO.P,U$18,8,8*%
%TO.N,Net-(R18-Pad1)*%
X152001100Y-131673600D03*
%TO.P,U$18,9,9*%
%TO.N,Net-(R21-Pad1)*%
X155501100Y-131673600D03*
%TO.P,U$18,10,10*%
%TO.N,Net-(R23-Pad1)*%
X159001100Y-131673600D03*
%TO.P,U$18,11,11*%
%TO.N,Net-(R25-Pad1)*%
X162501100Y-131673600D03*
%TO.P,U$18,12,12*%
%TO.N,Net-(R27-Pad1)*%
X166001100Y-131673600D03*
%TO.P,U$18,13,13*%
%TO.N,AGND*%
X169501100Y-131673600D03*
%TD*%
D15*
%TO.N,AGND*%
X147231100Y-103860600D03*
X173647100Y-126466600D03*
X159423100Y-103479600D03*
X153581100Y-103860600D03*
X129197100Y-108305600D03*
X137713700Y-101574600D03*
X159423100Y-106527600D03*
X167297100Y-101193600D03*
X130086100Y-101574600D03*
%TO.N,GND*%
X142151100Y-88239600D03*
X155486100Y-82524600D03*
X157772100Y-94843600D03*
X160947100Y-95351600D03*
X150533100Y-86715600D03*
X130086100Y-92303600D03*
X146977100Y-79857600D03*
%TO.N,Net-(C14-Pad1)*%
X159423100Y-105003600D03*
X151803100Y-105003600D03*
X162471100Y-105003600D03*
X150279100Y-106527600D03*
%TO.N,+5V*%
X153073100Y-91795600D03*
X140881100Y-92430600D03*
X145453100Y-88239600D03*
X150533100Y-88239600D03*
%TO.N,+12V*%
X122339100Y-81635600D03*
%TO.N,Net-(PROG1-Pad2)*%
X145961100Y-90398600D03*
%TO.N,Net-(PROG1-Pad3)*%
X148501100Y-90398600D03*
%TO.N,Net-(PROG1-Pad4)*%
X148628100Y-87223600D03*
%TD*%
D16*
%TO.N,AGND*%
X130086100Y-101574600D02*
X129832100Y-101574600D01*
D17*
%TO.N,Net-(C14-Pad1)*%
X150279100Y-106527600D02*
X151803100Y-105003600D01*
X159423100Y-105003600D02*
X162471100Y-105003600D01*
D18*
%TO.N,+5V*%
X140881100Y-92430600D02*
X145072100Y-88239600D01*
X145072100Y-88239600D02*
X145453100Y-88239600D01*
X150533100Y-88239600D02*
X150533100Y-89255600D01*
X150533100Y-89255600D02*
X153073100Y-91795600D01*
D16*
%TO.N,+12V*%
X122339100Y-81635600D02*
X127927100Y-76047600D01*
X169837100Y-76047600D02*
X172631100Y-78841600D01*
X172631100Y-78841600D02*
X172631100Y-83017600D01*
X127927100Y-76047600D02*
X169837100Y-76047600D01*
%TO.N,Net-(PROG1-Pad2)*%
X145961100Y-94843600D02*
X145961100Y-90398600D01*
%TO.N,Net-(PROG1-Pad3)*%
X148501100Y-94843600D02*
X148501100Y-90398600D01*
%TO.N,Net-(PROG1-Pad4)*%
X151041100Y-94843600D02*
X151041100Y-91287600D01*
X148628100Y-88874600D02*
X148628100Y-87223600D01*
X151041100Y-91287600D02*
X148628100Y-88874600D01*
%TO.N,Net-(U$19-Pad5)*%
X128069100Y-97017600D02*
X172631100Y-97017600D01*
X122339100Y-85049600D02*
X124371100Y-83017600D01*
X122847100Y-95351600D02*
X122339100Y-94843600D01*
X122847100Y-95351600D02*
X126403100Y-95351600D01*
X126403100Y-95351600D02*
X128069100Y-97017600D01*
X122339100Y-94843600D02*
X122339100Y-85049600D01*
%TD*%
%TA.AperFunction,Conductor*%
%TO.N,AGND*%
G36*
X171373649Y-100147084D02*
G01*
X171429065Y-100202500D01*
X171449349Y-100278200D01*
X171429065Y-100353900D01*
X171375019Y-100408516D01*
X171256809Y-100478426D01*
X171241880Y-100490006D01*
X171137506Y-100594380D01*
X171125924Y-100609312D01*
X171050786Y-100736362D01*
X171043281Y-100753706D01*
X171001601Y-100897167D01*
X170998836Y-100912308D01*
X170996734Y-100939025D01*
X170996500Y-100944964D01*
X170996500Y-101633867D01*
X171000712Y-101649588D01*
X171016433Y-101653800D01*
X174245767Y-101653800D01*
X174261488Y-101649588D01*
X174265700Y-101633867D01*
X174265700Y-100944964D01*
X174265466Y-100939025D01*
X174263364Y-100912308D01*
X174260599Y-100897167D01*
X174218919Y-100753706D01*
X174211414Y-100736362D01*
X174136276Y-100609312D01*
X174124694Y-100594380D01*
X174020320Y-100490006D01*
X174005391Y-100478426D01*
X173887181Y-100408516D01*
X173832349Y-100352522D01*
X173812859Y-100276614D01*
X173833935Y-100201130D01*
X173889929Y-100146298D01*
X173964251Y-100126800D01*
X178804200Y-100126800D01*
X178879900Y-100147084D01*
X178935316Y-100202500D01*
X178955600Y-100278200D01*
X178955600Y-128076428D01*
X178953499Y-128081500D01*
X178955349Y-128085967D01*
X178954407Y-128102742D01*
X178940267Y-128354539D01*
X178938367Y-128371400D01*
X178912622Y-128522934D01*
X178907962Y-128550360D01*
X178875285Y-128621593D01*
X178811369Y-128666944D01*
X178758701Y-128676400D01*
X118243501Y-128676400D01*
X118167801Y-128656116D01*
X118112385Y-128600700D01*
X118094240Y-128550360D01*
X118063835Y-128371407D01*
X118061935Y-128354541D01*
X118046853Y-128085963D01*
X118048701Y-128081500D01*
X118046600Y-128076428D01*
X118046600Y-111460765D01*
X119748766Y-111460765D01*
X119749524Y-111466332D01*
X119749524Y-111466338D01*
X119777223Y-111669863D01*
X119783852Y-111718570D01*
X119856658Y-111968357D01*
X119965586Y-112204639D01*
X120108241Y-112422225D01*
X120111974Y-112426408D01*
X120111976Y-112426410D01*
X120277748Y-112612142D01*
X120277752Y-112612146D01*
X120281491Y-112616335D01*
X120481529Y-112782705D01*
X120703961Y-112917680D01*
X120943901Y-113018295D01*
X120949340Y-113019676D01*
X120949342Y-113019677D01*
X121190630Y-113080956D01*
X121190635Y-113080957D01*
X121196077Y-113082339D01*
X121312157Y-113094028D01*
X121408408Y-113103720D01*
X121408416Y-113103720D01*
X121412186Y-113104100D01*
X121566944Y-113104100D01*
X121760366Y-113089726D01*
X121765844Y-113088486D01*
X121765847Y-113088486D01*
X121921545Y-113053255D01*
X122014132Y-113032305D01*
X122050159Y-113018295D01*
X122251382Y-112940043D01*
X122256623Y-112938005D01*
X122482512Y-112808899D01*
X122686836Y-112647823D01*
X122690680Y-112643736D01*
X122690684Y-112643733D01*
X122771354Y-112557978D01*
X122865108Y-112458314D01*
X123013411Y-112244537D01*
X123128486Y-112011187D01*
X123207806Y-111763392D01*
X123214229Y-111723957D01*
X123248724Y-111512145D01*
X123249628Y-111506594D01*
X123250228Y-111460765D01*
X173749166Y-111460765D01*
X173749924Y-111466332D01*
X173749924Y-111466338D01*
X173777623Y-111669863D01*
X173784252Y-111718570D01*
X173857058Y-111968357D01*
X173965986Y-112204639D01*
X174108641Y-112422225D01*
X174112374Y-112426408D01*
X174112376Y-112426410D01*
X174278148Y-112612142D01*
X174278152Y-112612146D01*
X174281891Y-112616335D01*
X174481929Y-112782705D01*
X174704361Y-112917680D01*
X174944301Y-113018295D01*
X174949740Y-113019676D01*
X174949742Y-113019677D01*
X175191030Y-113080956D01*
X175191035Y-113080957D01*
X175196477Y-113082339D01*
X175312557Y-113094028D01*
X175408808Y-113103720D01*
X175408816Y-113103720D01*
X175412586Y-113104100D01*
X175567344Y-113104100D01*
X175760766Y-113089726D01*
X175766244Y-113088486D01*
X175766247Y-113088486D01*
X175921945Y-113053255D01*
X176014532Y-113032305D01*
X176050559Y-113018295D01*
X176251782Y-112940043D01*
X176257023Y-112938005D01*
X176482912Y-112808899D01*
X176687236Y-112647823D01*
X176691080Y-112643736D01*
X176691084Y-112643733D01*
X176771754Y-112557978D01*
X176865508Y-112458314D01*
X177013811Y-112244537D01*
X177128886Y-112011187D01*
X177208206Y-111763392D01*
X177214629Y-111723957D01*
X177249124Y-111512145D01*
X177250028Y-111506594D01*
X177253434Y-111246435D01*
X177246442Y-111195055D01*
X177219105Y-110994193D01*
X177218348Y-110988630D01*
X177145542Y-110738843D01*
X177036614Y-110502561D01*
X176893959Y-110284975D01*
X176890224Y-110280790D01*
X176724452Y-110095058D01*
X176724448Y-110095054D01*
X176720709Y-110090865D01*
X176520671Y-109924495D01*
X176298239Y-109789520D01*
X176058299Y-109688905D01*
X176052860Y-109687524D01*
X176052858Y-109687523D01*
X175811570Y-109626244D01*
X175811565Y-109626243D01*
X175806123Y-109624861D01*
X175690043Y-109613172D01*
X175593792Y-109603480D01*
X175593784Y-109603480D01*
X175590014Y-109603100D01*
X175435256Y-109603100D01*
X175241834Y-109617474D01*
X175236356Y-109618714D01*
X175236353Y-109618714D01*
X175080655Y-109653945D01*
X174988068Y-109674895D01*
X174982828Y-109676933D01*
X174982827Y-109676933D01*
X174946456Y-109691077D01*
X174745577Y-109769195D01*
X174519688Y-109898301D01*
X174315364Y-110059377D01*
X174311520Y-110063464D01*
X174311516Y-110063467D01*
X174230846Y-110149222D01*
X174137092Y-110248886D01*
X173988789Y-110462663D01*
X173873714Y-110696013D01*
X173794394Y-110943808D01*
X173793491Y-110949350D01*
X173793490Y-110949356D01*
X173787094Y-110988630D01*
X173752572Y-111200606D01*
X173749166Y-111460765D01*
X123250228Y-111460765D01*
X123253034Y-111246435D01*
X123246042Y-111195055D01*
X123218705Y-110994193D01*
X123217948Y-110988630D01*
X123145142Y-110738843D01*
X123036214Y-110502561D01*
X122893559Y-110284975D01*
X122889824Y-110280790D01*
X122724052Y-110095058D01*
X122724048Y-110095054D01*
X122720309Y-110090865D01*
X122520271Y-109924495D01*
X122297839Y-109789520D01*
X122057899Y-109688905D01*
X122052460Y-109687524D01*
X122052458Y-109687523D01*
X121811170Y-109626244D01*
X121811165Y-109626243D01*
X121805723Y-109624861D01*
X121689643Y-109613172D01*
X121593392Y-109603480D01*
X121593384Y-109603480D01*
X121589614Y-109603100D01*
X121434856Y-109603100D01*
X121241434Y-109617474D01*
X121235956Y-109618714D01*
X121235953Y-109618714D01*
X121080255Y-109653945D01*
X120987668Y-109674895D01*
X120982428Y-109676933D01*
X120982427Y-109676933D01*
X120946056Y-109691077D01*
X120745177Y-109769195D01*
X120519288Y-109898301D01*
X120314964Y-110059377D01*
X120311120Y-110063464D01*
X120311116Y-110063467D01*
X120230446Y-110149222D01*
X120136692Y-110248886D01*
X119988389Y-110462663D01*
X119873314Y-110696013D01*
X119793994Y-110943808D01*
X119793091Y-110949350D01*
X119793090Y-110949356D01*
X119786694Y-110988630D01*
X119752172Y-111200606D01*
X119748766Y-111460765D01*
X118046600Y-111460765D01*
X118046600Y-106522236D01*
X122736500Y-106522236D01*
X122736734Y-106528175D01*
X122738836Y-106554892D01*
X122741601Y-106570033D01*
X122783281Y-106713494D01*
X122790786Y-106730838D01*
X122865924Y-106857888D01*
X122877506Y-106872820D01*
X122981880Y-106977194D01*
X122996812Y-106988776D01*
X123123862Y-107063914D01*
X123141206Y-107071419D01*
X123284667Y-107113099D01*
X123299808Y-107115864D01*
X123326525Y-107117966D01*
X123332464Y-107118200D01*
X124021367Y-107118200D01*
X124037088Y-107113988D01*
X124041300Y-107098267D01*
X124700900Y-107098267D01*
X124705112Y-107113988D01*
X124720833Y-107118200D01*
X125409736Y-107118200D01*
X125415675Y-107117966D01*
X125442392Y-107115864D01*
X125457533Y-107113099D01*
X125600994Y-107071419D01*
X125618338Y-107063914D01*
X125745388Y-106988776D01*
X125760320Y-106977194D01*
X125864694Y-106872820D01*
X125876276Y-106857888D01*
X125951414Y-106730838D01*
X125958919Y-106713494D01*
X126000599Y-106570033D01*
X126003364Y-106554892D01*
X126005466Y-106528175D01*
X126005700Y-106522236D01*
X126005700Y-106520143D01*
X149567047Y-106520143D01*
X149569517Y-106542513D01*
X149580522Y-106642196D01*
X149585822Y-106690207D01*
X149588959Y-106698778D01*
X149588959Y-106698780D01*
X149594344Y-106713494D01*
X149644621Y-106850883D01*
X149649711Y-106858457D01*
X149734957Y-106985318D01*
X149734961Y-106985322D01*
X149740050Y-106992896D01*
X149866599Y-107108046D01*
X149874619Y-107112400D01*
X149874621Y-107112402D01*
X149998757Y-107179802D01*
X150016961Y-107189686D01*
X150025786Y-107192001D01*
X150025788Y-107192002D01*
X150054872Y-107199632D01*
X150182458Y-107233104D01*
X150261483Y-107234345D01*
X150344404Y-107235648D01*
X150344407Y-107235648D01*
X150353534Y-107235791D01*
X150362432Y-107233753D01*
X150362433Y-107233753D01*
X150400066Y-107225134D01*
X150520313Y-107197594D01*
X150528468Y-107193492D01*
X150528472Y-107193491D01*
X150665008Y-107124820D01*
X150673166Y-107120717D01*
X150803269Y-107009598D01*
X150808595Y-107002187D01*
X150808597Y-107002184D01*
X150897783Y-106878068D01*
X150897784Y-106878067D01*
X150903111Y-106870653D01*
X150908243Y-106857888D01*
X150963523Y-106720372D01*
X150966928Y-106711903D01*
X150974195Y-106660849D01*
X150990339Y-106547413D01*
X150990339Y-106547407D01*
X150991036Y-106542513D01*
X150991192Y-106527600D01*
X150985270Y-106478664D01*
X171452400Y-106478664D01*
X171464219Y-106538080D01*
X171509240Y-106605460D01*
X171576620Y-106650481D01*
X171636036Y-106662300D01*
X173626164Y-106662300D01*
X173685580Y-106650481D01*
X173752960Y-106605460D01*
X173797981Y-106538080D01*
X173809800Y-106478664D01*
X173809800Y-104488536D01*
X173797981Y-104429120D01*
X173752960Y-104361740D01*
X173740559Y-104353454D01*
X173697980Y-104325004D01*
X173697979Y-104325004D01*
X173685580Y-104316719D01*
X173626164Y-104304900D01*
X171636036Y-104304900D01*
X171576620Y-104316719D01*
X171564221Y-104325004D01*
X171564220Y-104325004D01*
X171521641Y-104353454D01*
X171509240Y-104361740D01*
X171464219Y-104429120D01*
X171452400Y-104488536D01*
X171452400Y-106478664D01*
X150985270Y-106478664D01*
X150973659Y-106382717D01*
X150984701Y-106305131D01*
X151016906Y-106257474D01*
X151533182Y-105741198D01*
X151601053Y-105702013D01*
X151678655Y-105701810D01*
X151706458Y-105709104D01*
X151787213Y-105710372D01*
X151868404Y-105711648D01*
X151868407Y-105711648D01*
X151877534Y-105711791D01*
X151886432Y-105709753D01*
X151886433Y-105709753D01*
X151924066Y-105701134D01*
X152044313Y-105673594D01*
X152052468Y-105669492D01*
X152052472Y-105669491D01*
X152189008Y-105600820D01*
X152197166Y-105596717D01*
X152327269Y-105485598D01*
X152332595Y-105478187D01*
X152332597Y-105478184D01*
X152421783Y-105354068D01*
X152421784Y-105354067D01*
X152427111Y-105346653D01*
X152435059Y-105326883D01*
X152474752Y-105228142D01*
X152490928Y-105187903D01*
X152515036Y-105018513D01*
X152515192Y-105003600D01*
X152514290Y-104996143D01*
X158711047Y-104996143D01*
X158712970Y-105013563D01*
X158726252Y-105133867D01*
X158729822Y-105166207D01*
X158732959Y-105174778D01*
X158732959Y-105174780D01*
X158740861Y-105196372D01*
X158788621Y-105326883D01*
X158825731Y-105382108D01*
X158878957Y-105461318D01*
X158878961Y-105461322D01*
X158884050Y-105468896D01*
X159010599Y-105584046D01*
X159018619Y-105588400D01*
X159018621Y-105588402D01*
X159142757Y-105655802D01*
X159160961Y-105665686D01*
X159169786Y-105668001D01*
X159169788Y-105668002D01*
X159198872Y-105675632D01*
X159326458Y-105709104D01*
X159405483Y-105710345D01*
X159488404Y-105711648D01*
X159488407Y-105711648D01*
X159497534Y-105711791D01*
X159506432Y-105709753D01*
X159506433Y-105709753D01*
X159544066Y-105701134D01*
X159664313Y-105673594D01*
X159672468Y-105669492D01*
X159672472Y-105669491D01*
X159809008Y-105600820D01*
X159817166Y-105596717D01*
X159947269Y-105485598D01*
X160010682Y-105397350D01*
X160071326Y-105347714D01*
X160133629Y-105334300D01*
X161760934Y-105334300D01*
X161836634Y-105354584D01*
X161886597Y-105401257D01*
X161926953Y-105461312D01*
X161926956Y-105461316D01*
X161932050Y-105468896D01*
X162058599Y-105584046D01*
X162066619Y-105588400D01*
X162066621Y-105588402D01*
X162190757Y-105655802D01*
X162208961Y-105665686D01*
X162217786Y-105668001D01*
X162217788Y-105668002D01*
X162246872Y-105675632D01*
X162374458Y-105709104D01*
X162453483Y-105710345D01*
X162536404Y-105711648D01*
X162536407Y-105711648D01*
X162545534Y-105711791D01*
X162554432Y-105709753D01*
X162554433Y-105709753D01*
X162592066Y-105701134D01*
X162712313Y-105673594D01*
X162720468Y-105669492D01*
X162720472Y-105669491D01*
X162857008Y-105600820D01*
X162865166Y-105596717D01*
X162995269Y-105485598D01*
X163000595Y-105478187D01*
X163000597Y-105478184D01*
X163089783Y-105354068D01*
X163089784Y-105354067D01*
X163095111Y-105346653D01*
X163103059Y-105326883D01*
X163142752Y-105228142D01*
X163158928Y-105187903D01*
X163183036Y-105018513D01*
X163183192Y-105003600D01*
X163162637Y-104833742D01*
X163102158Y-104673691D01*
X163057392Y-104608556D01*
X163010418Y-104540207D01*
X163010417Y-104540205D01*
X163005248Y-104532685D01*
X162963961Y-104495899D01*
X162884314Y-104424936D01*
X162884313Y-104424935D01*
X162877501Y-104418866D01*
X162869437Y-104414596D01*
X162869435Y-104414595D01*
X162734359Y-104343077D01*
X162726291Y-104338805D01*
X162707317Y-104334039D01*
X162569196Y-104299345D01*
X162569194Y-104299345D01*
X162560349Y-104297123D01*
X162551228Y-104297075D01*
X162551226Y-104297075D01*
X162469045Y-104296645D01*
X162389254Y-104296227D01*
X162222885Y-104336169D01*
X162214779Y-104340353D01*
X162214776Y-104340354D01*
X162104704Y-104397167D01*
X162070845Y-104414643D01*
X161941913Y-104527117D01*
X161885592Y-104607254D01*
X161884677Y-104608556D01*
X161824554Y-104658826D01*
X161760809Y-104672900D01*
X160133270Y-104672900D01*
X160057570Y-104652616D01*
X160008497Y-104607254D01*
X159957248Y-104532685D01*
X159915961Y-104495899D01*
X159836314Y-104424936D01*
X159836313Y-104424935D01*
X159829501Y-104418866D01*
X159821437Y-104414596D01*
X159821435Y-104414595D01*
X159686359Y-104343077D01*
X159678291Y-104338805D01*
X159659317Y-104334039D01*
X159521196Y-104299345D01*
X159521194Y-104299345D01*
X159512349Y-104297123D01*
X159503228Y-104297075D01*
X159503226Y-104297075D01*
X159421045Y-104296645D01*
X159341254Y-104296227D01*
X159174885Y-104336169D01*
X159166779Y-104340353D01*
X159166776Y-104340354D01*
X159056704Y-104397167D01*
X159022845Y-104414643D01*
X158893913Y-104527117D01*
X158795531Y-104667100D01*
X158733380Y-104826510D01*
X158711047Y-104996143D01*
X152514290Y-104996143D01*
X152494637Y-104833742D01*
X152434158Y-104673691D01*
X152389392Y-104608556D01*
X152342418Y-104540207D01*
X152342417Y-104540205D01*
X152337248Y-104532685D01*
X152295961Y-104495899D01*
X152216314Y-104424936D01*
X152216313Y-104424935D01*
X152209501Y-104418866D01*
X152201437Y-104414596D01*
X152201435Y-104414595D01*
X152066359Y-104343077D01*
X152058291Y-104338805D01*
X152039317Y-104334039D01*
X151901196Y-104299345D01*
X151901194Y-104299345D01*
X151892349Y-104297123D01*
X151883228Y-104297075D01*
X151883226Y-104297075D01*
X151801045Y-104296645D01*
X151721254Y-104296227D01*
X151554885Y-104336169D01*
X151546779Y-104340353D01*
X151546776Y-104340354D01*
X151436704Y-104397167D01*
X151402845Y-104414643D01*
X151273913Y-104527117D01*
X151175531Y-104667100D01*
X151113380Y-104826510D01*
X151091047Y-104996143D01*
X151092970Y-105013563D01*
X151108107Y-105150673D01*
X151096252Y-105228142D01*
X151064677Y-105274343D01*
X150548567Y-105790453D01*
X150480696Y-105829638D01*
X150404625Y-105830235D01*
X150377198Y-105823345D01*
X150377192Y-105823344D01*
X150368349Y-105821123D01*
X150359228Y-105821075D01*
X150359226Y-105821075D01*
X150277045Y-105820645D01*
X150197254Y-105820227D01*
X150030885Y-105860169D01*
X150022779Y-105864353D01*
X150022776Y-105864354D01*
X149886953Y-105934458D01*
X149878845Y-105938643D01*
X149749913Y-106051117D01*
X149651531Y-106191100D01*
X149589380Y-106350510D01*
X149567047Y-106520143D01*
X126005700Y-106520143D01*
X126005700Y-105833333D01*
X126001488Y-105817612D01*
X125985767Y-105813400D01*
X124720833Y-105813400D01*
X124705112Y-105817612D01*
X124700900Y-105833333D01*
X124700900Y-107098267D01*
X124041300Y-107098267D01*
X124041300Y-105833333D01*
X124037088Y-105817612D01*
X124021367Y-105813400D01*
X122756433Y-105813400D01*
X122740712Y-105817612D01*
X122736500Y-105833333D01*
X122736500Y-106522236D01*
X118046600Y-106522236D01*
X118046600Y-105133867D01*
X122736500Y-105133867D01*
X122740712Y-105149588D01*
X122756433Y-105153800D01*
X124021367Y-105153800D01*
X124037088Y-105149588D01*
X124041300Y-105133867D01*
X124700900Y-105133867D01*
X124705112Y-105149588D01*
X124720833Y-105153800D01*
X125985767Y-105153800D01*
X126001488Y-105149588D01*
X126005700Y-105133867D01*
X126005700Y-104444964D01*
X126005466Y-104439025D01*
X126003364Y-104412308D01*
X126000599Y-104397167D01*
X125958919Y-104253706D01*
X125951414Y-104236362D01*
X125876276Y-104109312D01*
X125864694Y-104094380D01*
X125760320Y-103990006D01*
X125745388Y-103978424D01*
X125618338Y-103903286D01*
X125600994Y-103895781D01*
X125457533Y-103854101D01*
X125442392Y-103851336D01*
X125415675Y-103849234D01*
X125409736Y-103849000D01*
X124720833Y-103849000D01*
X124705112Y-103853212D01*
X124700900Y-103868933D01*
X124700900Y-105133867D01*
X124041300Y-105133867D01*
X124041300Y-103868933D01*
X124037088Y-103853212D01*
X124021367Y-103849000D01*
X123332464Y-103849000D01*
X123326525Y-103849234D01*
X123299808Y-103851336D01*
X123284667Y-103854101D01*
X123141206Y-103895781D01*
X123123862Y-103903286D01*
X122996812Y-103978424D01*
X122981880Y-103990006D01*
X122877506Y-104094380D01*
X122865924Y-104109312D01*
X122790786Y-104236362D01*
X122783281Y-104253706D01*
X122741601Y-104397167D01*
X122738836Y-104412308D01*
X122736734Y-104439025D01*
X122736500Y-104444964D01*
X122736500Y-105133867D01*
X118046600Y-105133867D01*
X118046600Y-102978664D01*
X123192400Y-102978664D01*
X123204219Y-103038080D01*
X123249240Y-103105460D01*
X123316620Y-103150481D01*
X123376036Y-103162300D01*
X125366164Y-103162300D01*
X125425580Y-103150481D01*
X125492960Y-103105460D01*
X125537981Y-103038080D01*
X125541133Y-103022236D01*
X170996500Y-103022236D01*
X170996734Y-103028175D01*
X170998836Y-103054892D01*
X171001601Y-103070033D01*
X171043281Y-103213494D01*
X171050786Y-103230838D01*
X171125924Y-103357888D01*
X171137506Y-103372820D01*
X171241880Y-103477194D01*
X171256812Y-103488776D01*
X171383862Y-103563914D01*
X171401206Y-103571419D01*
X171544667Y-103613099D01*
X171559808Y-103615864D01*
X171586525Y-103617966D01*
X171592464Y-103618200D01*
X172281367Y-103618200D01*
X172297088Y-103613988D01*
X172301300Y-103598267D01*
X172960900Y-103598267D01*
X172965112Y-103613988D01*
X172980833Y-103618200D01*
X173669736Y-103618200D01*
X173675675Y-103617966D01*
X173702392Y-103615864D01*
X173717533Y-103613099D01*
X173860994Y-103571419D01*
X173878338Y-103563914D01*
X174005388Y-103488776D01*
X174020320Y-103477194D01*
X174124694Y-103372820D01*
X174136276Y-103357888D01*
X174211414Y-103230838D01*
X174218919Y-103213494D01*
X174260599Y-103070033D01*
X174263364Y-103054892D01*
X174265466Y-103028175D01*
X174265700Y-103022236D01*
X174265700Y-102333333D01*
X174261488Y-102317612D01*
X174245767Y-102313400D01*
X172980833Y-102313400D01*
X172965112Y-102317612D01*
X172960900Y-102333333D01*
X172960900Y-103598267D01*
X172301300Y-103598267D01*
X172301300Y-102333333D01*
X172297088Y-102317612D01*
X172281367Y-102313400D01*
X171016433Y-102313400D01*
X171000712Y-102317612D01*
X170996500Y-102333333D01*
X170996500Y-103022236D01*
X125541133Y-103022236D01*
X125549800Y-102978664D01*
X125549800Y-100988536D01*
X125537981Y-100929120D01*
X125492960Y-100861740D01*
X125425580Y-100816719D01*
X125366164Y-100804900D01*
X123376036Y-100804900D01*
X123316620Y-100816719D01*
X123249240Y-100861740D01*
X123204219Y-100929120D01*
X123192400Y-100988536D01*
X123192400Y-102978664D01*
X118046600Y-102978664D01*
X118046600Y-100278200D01*
X118066884Y-100202500D01*
X118122300Y-100147084D01*
X118198000Y-100126800D01*
X171297949Y-100126800D01*
X171373649Y-100147084D01*
G37*
%TD.AperFunction*%
%TD*%
%TA.AperFunction,Conductor*%
%TO.N,GND*%
G36*
X171579000Y-74551201D02*
G01*
X171583467Y-74549351D01*
X171852047Y-74564434D01*
X171868902Y-74566333D01*
X172130133Y-74610716D01*
X172146677Y-74614492D01*
X172401287Y-74687841D01*
X172417310Y-74693447D01*
X172662111Y-74794843D01*
X172677401Y-74802205D01*
X172771648Y-74854292D01*
X172909311Y-74930373D01*
X172923686Y-74939405D01*
X173139790Y-75092731D01*
X173153057Y-75103312D01*
X173350011Y-75279313D01*
X173350013Y-75279314D01*
X173353632Y-75282548D01*
X173355484Y-75287017D01*
X173360554Y-75289117D01*
X178215583Y-80144146D01*
X178217683Y-80149216D01*
X178222148Y-80151066D01*
X178233295Y-80163540D01*
X178401386Y-80351644D01*
X178411971Y-80364918D01*
X178565293Y-80581015D01*
X178574324Y-80595388D01*
X178693404Y-80810854D01*
X178702491Y-80827297D01*
X178709855Y-80842591D01*
X178796859Y-81052643D01*
X178811250Y-81087388D01*
X178816856Y-81103409D01*
X178831177Y-81153119D01*
X178890205Y-81358019D01*
X178893982Y-81374567D01*
X178938364Y-81635790D01*
X178938364Y-81635791D01*
X178940264Y-81652653D01*
X178955347Y-81921237D01*
X178953499Y-81925700D01*
X178955600Y-81930772D01*
X178955600Y-96013000D01*
X178935316Y-96088700D01*
X178879900Y-96144116D01*
X178804200Y-96164400D01*
X173960261Y-96164400D01*
X173884561Y-96144116D01*
X173829145Y-96088700D01*
X173809800Y-96028494D01*
X173809800Y-96022536D01*
X173797981Y-95963120D01*
X173752960Y-95895740D01*
X173705665Y-95864139D01*
X173697980Y-95859004D01*
X173697979Y-95859004D01*
X173685580Y-95850719D01*
X173626164Y-95838900D01*
X171636036Y-95838900D01*
X171576620Y-95850719D01*
X171564221Y-95859004D01*
X171564220Y-95859004D01*
X171556535Y-95864139D01*
X171509240Y-95895740D01*
X171464219Y-95963120D01*
X171452400Y-96022536D01*
X171452400Y-96028398D01*
X171425004Y-96101187D01*
X171364423Y-96150905D01*
X171301939Y-96164400D01*
X154622024Y-96164400D01*
X154546324Y-96144116D01*
X154490908Y-96088700D01*
X154470624Y-96013000D01*
X154483075Y-95952873D01*
X154485519Y-95947225D01*
X154506343Y-95899104D01*
X154514721Y-95859004D01*
X154545274Y-95712756D01*
X154545274Y-95712754D01*
X154546463Y-95707064D01*
X154546800Y-95700633D01*
X154546800Y-94556236D01*
X170996500Y-94556236D01*
X170996734Y-94562175D01*
X170998836Y-94588892D01*
X171001601Y-94604033D01*
X171043281Y-94747494D01*
X171050786Y-94764838D01*
X171125924Y-94891888D01*
X171137506Y-94906820D01*
X171241880Y-95011194D01*
X171256812Y-95022776D01*
X171383862Y-95097914D01*
X171401206Y-95105419D01*
X171544667Y-95147099D01*
X171559808Y-95149864D01*
X171586525Y-95151966D01*
X171592464Y-95152200D01*
X172281367Y-95152200D01*
X172297088Y-95147988D01*
X172301300Y-95132267D01*
X172960900Y-95132267D01*
X172965112Y-95147988D01*
X172980833Y-95152200D01*
X173669736Y-95152200D01*
X173675675Y-95151966D01*
X173702392Y-95149864D01*
X173717533Y-95147099D01*
X173860994Y-95105419D01*
X173878338Y-95097914D01*
X174005388Y-95022776D01*
X174020320Y-95011194D01*
X174124694Y-94906820D01*
X174136276Y-94891888D01*
X174211414Y-94764838D01*
X174218919Y-94747494D01*
X174260599Y-94604033D01*
X174263364Y-94588892D01*
X174265466Y-94562175D01*
X174265700Y-94556236D01*
X174265700Y-93867333D01*
X174261488Y-93851612D01*
X174245767Y-93847400D01*
X172980833Y-93847400D01*
X172965112Y-93851612D01*
X172960900Y-93867333D01*
X172960900Y-95132267D01*
X172301300Y-95132267D01*
X172301300Y-93867333D01*
X172297088Y-93851612D01*
X172281367Y-93847400D01*
X171016433Y-93847400D01*
X171000712Y-93851612D01*
X170996500Y-93867333D01*
X170996500Y-94556236D01*
X154546800Y-94556236D01*
X154546800Y-94032573D01*
X154531954Y-93886418D01*
X154521047Y-93851612D01*
X154484532Y-93735095D01*
X154473286Y-93699208D01*
X154378173Y-93527620D01*
X154250500Y-93378661D01*
X154095482Y-93258417D01*
X153989994Y-93206510D01*
X153926332Y-93175184D01*
X153926329Y-93175183D01*
X153919452Y-93171799D01*
X153904357Y-93167867D01*
X170996500Y-93167867D01*
X171000712Y-93183588D01*
X171016433Y-93187800D01*
X172281367Y-93187800D01*
X172297088Y-93183588D01*
X172301300Y-93167867D01*
X172960900Y-93167867D01*
X172965112Y-93183588D01*
X172980833Y-93187800D01*
X174245767Y-93187800D01*
X174261488Y-93183588D01*
X174265700Y-93167867D01*
X174265700Y-92478964D01*
X174265466Y-92473025D01*
X174263364Y-92446308D01*
X174260599Y-92431167D01*
X174218919Y-92287706D01*
X174211414Y-92270362D01*
X174136276Y-92143312D01*
X174124694Y-92128380D01*
X174020320Y-92024006D01*
X174005388Y-92012424D01*
X173878338Y-91937286D01*
X173860994Y-91929781D01*
X173717533Y-91888101D01*
X173702392Y-91885336D01*
X173675675Y-91883234D01*
X173669736Y-91883000D01*
X172980833Y-91883000D01*
X172965112Y-91887212D01*
X172960900Y-91902933D01*
X172960900Y-93167867D01*
X172301300Y-93167867D01*
X172301300Y-91902933D01*
X172297088Y-91887212D01*
X172281367Y-91883000D01*
X171592464Y-91883000D01*
X171586525Y-91883234D01*
X171559808Y-91885336D01*
X171544667Y-91888101D01*
X171401206Y-91929781D01*
X171383862Y-91937286D01*
X171256812Y-92012424D01*
X171241880Y-92024006D01*
X171137506Y-92128380D01*
X171125924Y-92143312D01*
X171050786Y-92270362D01*
X171043281Y-92287706D01*
X171001601Y-92431167D01*
X170998836Y-92446308D01*
X170996734Y-92473025D01*
X170996500Y-92478964D01*
X170996500Y-93167867D01*
X153904357Y-93167867D01*
X153729600Y-93122346D01*
X153631641Y-93117212D01*
X153541336Y-93112480D01*
X153541335Y-93112480D01*
X153533683Y-93112079D01*
X153339702Y-93141416D01*
X153332509Y-93144062D01*
X153332507Y-93144063D01*
X153235693Y-93179684D01*
X153155582Y-93209159D01*
X153110858Y-93236889D01*
X152995361Y-93308499D01*
X152995359Y-93308501D01*
X152988844Y-93312540D01*
X152846300Y-93447338D01*
X152841900Y-93453622D01*
X152738173Y-93601758D01*
X152738171Y-93601762D01*
X152733772Y-93608044D01*
X152655857Y-93788096D01*
X152654288Y-93795608D01*
X152654287Y-93795610D01*
X152623614Y-93942432D01*
X152615737Y-93980136D01*
X152615400Y-93986567D01*
X152615400Y-95654627D01*
X152630246Y-95800782D01*
X152677909Y-95952873D01*
X152682563Y-95967725D01*
X152685845Y-96046027D01*
X152649536Y-96115479D01*
X152583366Y-96157472D01*
X152538091Y-96164400D01*
X152082024Y-96164400D01*
X152006324Y-96144116D01*
X151950908Y-96088700D01*
X151930624Y-96013000D01*
X151943075Y-95952873D01*
X151945519Y-95947225D01*
X151966343Y-95899104D01*
X151974721Y-95859004D01*
X152005274Y-95712756D01*
X152005274Y-95712754D01*
X152006463Y-95707064D01*
X152006800Y-95700633D01*
X152006800Y-94032573D01*
X151991954Y-93886418D01*
X151981047Y-93851612D01*
X151944532Y-93735095D01*
X151933286Y-93699208D01*
X151838173Y-93527620D01*
X151710500Y-93378661D01*
X151608206Y-93299314D01*
X151560823Y-93236889D01*
X151549600Y-93179684D01*
X151549600Y-91360227D01*
X151550088Y-91348084D01*
X151550793Y-91339322D01*
X151553174Y-91328800D01*
X151549891Y-91275880D01*
X151549600Y-91266506D01*
X151549600Y-91251087D01*
X151548838Y-91245762D01*
X151548837Y-91245754D01*
X151548260Y-91241727D01*
X151547023Y-91229645D01*
X151544823Y-91194191D01*
X151544155Y-91183422D01*
X151540491Y-91173274D01*
X151538304Y-91162713D01*
X151538435Y-91162686D01*
X151534924Y-91148607D01*
X151534571Y-91146146D01*
X151543901Y-91068333D01*
X151590887Y-91005610D01*
X151662941Y-90974784D01*
X151740754Y-90984114D01*
X151791493Y-91017594D01*
X152331636Y-91557737D01*
X152370821Y-91625608D01*
X152374685Y-91684555D01*
X152369476Y-91724123D01*
X152361047Y-91788143D01*
X152362970Y-91805563D01*
X152376684Y-91929781D01*
X152379822Y-91958207D01*
X152382959Y-91966778D01*
X152382959Y-91966780D01*
X152390861Y-91988372D01*
X152438621Y-92118883D01*
X152443711Y-92126457D01*
X152528957Y-92253318D01*
X152528961Y-92253322D01*
X152534050Y-92260896D01*
X152660599Y-92376046D01*
X152668619Y-92380400D01*
X152668621Y-92380402D01*
X152747341Y-92423143D01*
X152810961Y-92457686D01*
X152819786Y-92460001D01*
X152819788Y-92460002D01*
X152967630Y-92498788D01*
X152976458Y-92501104D01*
X153055483Y-92502345D01*
X153138404Y-92503648D01*
X153138407Y-92503648D01*
X153147534Y-92503791D01*
X153156432Y-92501753D01*
X153156433Y-92501753D01*
X153194066Y-92493134D01*
X153314313Y-92465594D01*
X153322468Y-92461492D01*
X153322472Y-92461491D01*
X153459008Y-92392820D01*
X153467166Y-92388717D01*
X153597269Y-92277598D01*
X153602595Y-92270187D01*
X153602597Y-92270184D01*
X153691783Y-92146068D01*
X153691784Y-92146067D01*
X153697111Y-92138653D01*
X153705059Y-92118883D01*
X153721408Y-92078212D01*
X153760928Y-91979903D01*
X153766994Y-91937286D01*
X153784339Y-91815413D01*
X153784339Y-91815407D01*
X153785036Y-91810513D01*
X153785192Y-91795600D01*
X153781774Y-91767354D01*
X153765734Y-91634804D01*
X153765733Y-91634801D01*
X153764637Y-91625742D01*
X153704158Y-91465691D01*
X153607248Y-91324685D01*
X153518658Y-91245754D01*
X153486314Y-91216936D01*
X153486313Y-91216935D01*
X153479501Y-91210866D01*
X153471437Y-91206596D01*
X153471435Y-91206595D01*
X153357265Y-91146146D01*
X153328291Y-91130805D01*
X153252757Y-91111832D01*
X153171196Y-91091345D01*
X153171194Y-91091345D01*
X153162349Y-91089123D01*
X153153228Y-91089075D01*
X153153226Y-91089075D01*
X153071045Y-91088645D01*
X152991254Y-91088227D01*
X152982376Y-91090358D01*
X152982371Y-91090359D01*
X152975376Y-91092038D01*
X152897033Y-91089986D01*
X152832979Y-91051877D01*
X152793766Y-91012664D01*
X171452400Y-91012664D01*
X171464219Y-91072080D01*
X171472504Y-91084479D01*
X171472504Y-91084480D01*
X171476183Y-91089986D01*
X171509240Y-91139460D01*
X171576620Y-91184481D01*
X171636036Y-91196300D01*
X173626164Y-91196300D01*
X173685580Y-91184481D01*
X173752960Y-91139460D01*
X173786017Y-91089986D01*
X173789696Y-91084480D01*
X173789696Y-91084479D01*
X173797981Y-91072080D01*
X173809800Y-91012664D01*
X173809800Y-89022536D01*
X173797981Y-88963120D01*
X173785944Y-88945104D01*
X173761246Y-88908141D01*
X173752960Y-88895740D01*
X173720275Y-88873901D01*
X173697980Y-88859004D01*
X173697979Y-88859004D01*
X173685580Y-88850719D01*
X173626164Y-88838900D01*
X171636036Y-88838900D01*
X171576620Y-88850719D01*
X171564221Y-88859004D01*
X171564220Y-88859004D01*
X171541925Y-88873901D01*
X171509240Y-88895740D01*
X171500954Y-88908141D01*
X171476257Y-88945104D01*
X171464219Y-88963120D01*
X171452400Y-89022536D01*
X171452400Y-91012664D01*
X152793766Y-91012664D01*
X150933544Y-89152442D01*
X150894359Y-89084571D01*
X150889200Y-89045386D01*
X150889200Y-88934939D01*
X150909484Y-88859239D01*
X150942273Y-88819814D01*
X150944860Y-88817605D01*
X151057269Y-88721598D01*
X151062595Y-88714187D01*
X151062597Y-88714184D01*
X151151783Y-88590068D01*
X151151784Y-88590067D01*
X151157111Y-88582653D01*
X151165059Y-88562883D01*
X151201053Y-88473344D01*
X151220928Y-88423903D01*
X151226256Y-88386473D01*
X151244339Y-88259413D01*
X151244339Y-88259407D01*
X151245036Y-88254513D01*
X151245192Y-88239600D01*
X151240311Y-88199267D01*
X151239320Y-88191080D01*
X160180860Y-88191080D01*
X160190686Y-88378568D01*
X160192862Y-88386469D01*
X160192863Y-88386473D01*
X160200685Y-88414870D01*
X160240543Y-88559572D01*
X160328105Y-88725648D01*
X160449286Y-88869047D01*
X160598434Y-88983078D01*
X160605865Y-88986543D01*
X160761156Y-89058958D01*
X160761161Y-89058960D01*
X160768588Y-89062423D01*
X160776587Y-89064211D01*
X160776590Y-89064212D01*
X160945752Y-89102024D01*
X160945759Y-89102025D01*
X160951812Y-89103378D01*
X160957571Y-89103700D01*
X162416401Y-89103700D01*
X162475350Y-89097296D01*
X162547995Y-89089405D01*
X162547999Y-89089404D01*
X162556147Y-89088519D01*
X162563916Y-89085904D01*
X162563918Y-89085904D01*
X162726313Y-89031252D01*
X162726314Y-89031252D01*
X162734086Y-89028636D01*
X162872026Y-88945753D01*
X162887982Y-88936166D01*
X162887983Y-88936165D01*
X162895015Y-88931940D01*
X163031425Y-88802943D01*
X163079701Y-88731907D01*
X163132348Y-88654440D01*
X163132349Y-88654438D01*
X163136954Y-88647662D01*
X163139995Y-88640058D01*
X163139998Y-88640053D01*
X163203631Y-88480956D01*
X163206676Y-88473344D01*
X163237340Y-88288120D01*
X163227514Y-88100632D01*
X163219506Y-88071557D01*
X163200829Y-88003752D01*
X163177657Y-87919628D01*
X163098074Y-87768685D01*
X163093916Y-87760799D01*
X163093916Y-87760798D01*
X163090095Y-87753552D01*
X162968914Y-87610153D01*
X162841402Y-87512664D01*
X171452400Y-87512664D01*
X171464219Y-87572080D01*
X171472504Y-87584479D01*
X171472504Y-87584480D01*
X171489658Y-87610153D01*
X171509240Y-87639460D01*
X171521641Y-87647746D01*
X171555877Y-87670621D01*
X171576620Y-87684481D01*
X171636036Y-87696300D01*
X173626164Y-87696300D01*
X173685580Y-87684481D01*
X173706324Y-87670621D01*
X173740559Y-87647746D01*
X173752960Y-87639460D01*
X173772542Y-87610153D01*
X173789696Y-87584480D01*
X173789696Y-87584479D01*
X173797981Y-87572080D01*
X173809800Y-87512664D01*
X173809800Y-85522536D01*
X173797981Y-85463120D01*
X173752960Y-85395740D01*
X173740559Y-85387454D01*
X173697980Y-85359004D01*
X173697979Y-85359004D01*
X173685580Y-85350719D01*
X173626164Y-85338900D01*
X171636036Y-85338900D01*
X171576620Y-85350719D01*
X171564221Y-85359004D01*
X171564220Y-85359004D01*
X171521641Y-85387454D01*
X171509240Y-85395740D01*
X171464219Y-85463120D01*
X171452400Y-85522536D01*
X171452400Y-87512664D01*
X162841402Y-87512664D01*
X162819766Y-87496122D01*
X162731126Y-87454788D01*
X162657044Y-87420242D01*
X162657039Y-87420240D01*
X162649612Y-87416777D01*
X162641613Y-87414989D01*
X162641610Y-87414988D01*
X162472448Y-87377176D01*
X162472441Y-87377175D01*
X162466388Y-87375822D01*
X162460629Y-87375500D01*
X161001799Y-87375500D01*
X160942885Y-87381900D01*
X160870205Y-87389795D01*
X160870201Y-87389796D01*
X160862053Y-87390681D01*
X160854284Y-87393296D01*
X160854282Y-87393296D01*
X160719248Y-87438740D01*
X160684114Y-87450564D01*
X160567313Y-87520745D01*
X160544658Y-87534358D01*
X160523185Y-87547260D01*
X160386775Y-87676257D01*
X160281246Y-87831538D01*
X160278205Y-87839142D01*
X160278202Y-87839147D01*
X160257108Y-87891888D01*
X160211524Y-88005856D01*
X160203553Y-88054007D01*
X160187297Y-88152200D01*
X160180860Y-88191080D01*
X151239320Y-88191080D01*
X151225734Y-88078804D01*
X151225733Y-88078801D01*
X151224637Y-88069742D01*
X151164158Y-87909691D01*
X151067248Y-87768685D01*
X150984377Y-87694849D01*
X150946314Y-87660936D01*
X150946313Y-87660935D01*
X150939501Y-87654866D01*
X150931437Y-87650596D01*
X150931435Y-87650595D01*
X150855052Y-87610153D01*
X150788291Y-87574805D01*
X150738009Y-87562175D01*
X150631196Y-87535345D01*
X150631194Y-87535345D01*
X150622349Y-87533123D01*
X150613228Y-87533075D01*
X150613226Y-87533075D01*
X150531045Y-87532645D01*
X150451254Y-87532227D01*
X150284885Y-87572169D01*
X150276779Y-87576353D01*
X150276776Y-87576354D01*
X150140953Y-87646458D01*
X150132845Y-87650643D01*
X150003913Y-87763117D01*
X149998668Y-87770580D01*
X149998667Y-87770581D01*
X149994713Y-87776207D01*
X149905531Y-87903100D01*
X149902217Y-87911601D01*
X149902215Y-87911604D01*
X149854749Y-88033350D01*
X149843380Y-88062510D01*
X149821047Y-88232143D01*
X149822970Y-88249563D01*
X149836309Y-88370383D01*
X149839822Y-88402207D01*
X149842959Y-88410778D01*
X149842959Y-88410780D01*
X149850861Y-88432372D01*
X149898621Y-88562883D01*
X149903711Y-88570457D01*
X149988957Y-88697318D01*
X149988961Y-88697322D01*
X149994050Y-88704896D01*
X150023735Y-88731907D01*
X150120599Y-88820046D01*
X150119607Y-88821136D01*
X150163258Y-88873901D01*
X150177000Y-88936926D01*
X150177000Y-89201468D01*
X150175681Y-89213860D01*
X150175700Y-89213861D01*
X150175111Y-89226357D01*
X150172476Y-89238593D01*
X150173947Y-89251022D01*
X150173947Y-89251023D01*
X150176105Y-89269260D01*
X150176640Y-89274582D01*
X150177000Y-89278939D01*
X150177000Y-89285184D01*
X150178025Y-89291341D01*
X150178026Y-89291356D01*
X150179842Y-89302266D01*
X150180846Y-89309321D01*
X150183080Y-89328193D01*
X150171836Y-89405753D01*
X150123319Y-89467299D01*
X150050528Y-89496341D01*
X149972968Y-89485097D01*
X149925674Y-89453047D01*
X149180944Y-88708317D01*
X149141759Y-88640446D01*
X149136600Y-88601261D01*
X149136600Y-87776158D01*
X149156884Y-87700458D01*
X149165041Y-87687823D01*
X149252111Y-87566653D01*
X149260059Y-87546883D01*
X149299830Y-87447948D01*
X149315928Y-87407903D01*
X149318506Y-87389795D01*
X149339339Y-87243413D01*
X149339339Y-87243407D01*
X149340036Y-87238513D01*
X149340192Y-87223600D01*
X149319637Y-87053742D01*
X149259158Y-86893691D01*
X149162248Y-86752685D01*
X149034501Y-86638866D01*
X149026437Y-86634596D01*
X149026435Y-86634595D01*
X148891359Y-86563077D01*
X148883291Y-86558805D01*
X148864317Y-86554039D01*
X148726196Y-86519345D01*
X148726194Y-86519345D01*
X148717349Y-86517123D01*
X148708228Y-86517075D01*
X148708226Y-86517075D01*
X148626045Y-86516645D01*
X148546254Y-86516227D01*
X148379885Y-86556169D01*
X148371779Y-86560353D01*
X148371776Y-86560354D01*
X148244904Y-86625838D01*
X148227845Y-86634643D01*
X148098913Y-86747117D01*
X148093668Y-86754580D01*
X148093667Y-86754581D01*
X148033030Y-86840859D01*
X148000531Y-86887100D01*
X147997217Y-86895601D01*
X147997215Y-86895604D01*
X147951458Y-87012966D01*
X147938380Y-87046510D01*
X147916047Y-87216143D01*
X147917970Y-87233563D01*
X147933689Y-87375943D01*
X147934822Y-87386207D01*
X147937959Y-87394778D01*
X147937959Y-87394780D01*
X147945354Y-87414988D01*
X147993621Y-87546883D01*
X148047497Y-87627059D01*
X148089050Y-87688896D01*
X148087589Y-87689878D01*
X148116918Y-87750546D01*
X148119600Y-87778916D01*
X148119600Y-88801964D01*
X148119112Y-88814104D01*
X148118406Y-88822882D01*
X148116026Y-88833400D01*
X148119167Y-88884033D01*
X148119309Y-88886318D01*
X148119600Y-88895693D01*
X148119600Y-88911113D01*
X148120362Y-88916438D01*
X148120363Y-88916446D01*
X148120940Y-88920473D01*
X148122177Y-88932555D01*
X148124074Y-88963120D01*
X148125045Y-88978777D01*
X148128708Y-88988922D01*
X148130713Y-88998605D01*
X148133490Y-89008103D01*
X148135020Y-89018787D01*
X148154199Y-89060969D01*
X148158772Y-89072202D01*
X148174504Y-89115781D01*
X148180869Y-89124494D01*
X148185511Y-89133224D01*
X148190841Y-89141558D01*
X148195308Y-89151382D01*
X148225551Y-89186481D01*
X148233095Y-89195982D01*
X148240525Y-89206152D01*
X148250828Y-89216455D01*
X148258468Y-89224683D01*
X148270454Y-89238593D01*
X148290387Y-89261727D01*
X148299438Y-89267594D01*
X148307564Y-89274682D01*
X148307315Y-89274967D01*
X148317923Y-89283550D01*
X148475129Y-89440756D01*
X148514314Y-89508627D01*
X148514314Y-89586997D01*
X148475129Y-89654868D01*
X148403417Y-89695029D01*
X148261759Y-89729038D01*
X148261755Y-89729039D01*
X148252885Y-89731169D01*
X148244779Y-89735353D01*
X148244776Y-89735354D01*
X148221862Y-89747181D01*
X148100845Y-89809643D01*
X147971913Y-89922117D01*
X147873531Y-90062100D01*
X147811380Y-90221510D01*
X147810189Y-90230557D01*
X147790601Y-90379343D01*
X147789047Y-90391143D01*
X147807822Y-90561207D01*
X147810959Y-90569778D01*
X147810959Y-90569780D01*
X147818861Y-90591372D01*
X147866621Y-90721883D01*
X147871711Y-90729457D01*
X147962050Y-90863896D01*
X147960589Y-90864878D01*
X147989918Y-90925546D01*
X147992600Y-90953916D01*
X147992600Y-93176341D01*
X147972316Y-93252041D01*
X147920984Y-93305013D01*
X147915361Y-93308499D01*
X147915359Y-93308501D01*
X147908844Y-93312540D01*
X147766300Y-93447338D01*
X147761900Y-93453622D01*
X147658173Y-93601758D01*
X147658171Y-93601762D01*
X147653772Y-93608044D01*
X147575857Y-93788096D01*
X147574288Y-93795608D01*
X147574287Y-93795610D01*
X147543614Y-93942432D01*
X147535737Y-93980136D01*
X147535400Y-93986567D01*
X147535400Y-95654627D01*
X147550246Y-95800782D01*
X147597909Y-95952873D01*
X147602563Y-95967725D01*
X147605845Y-96046027D01*
X147569536Y-96115479D01*
X147503366Y-96157472D01*
X147458091Y-96164400D01*
X147002024Y-96164400D01*
X146926324Y-96144116D01*
X146870908Y-96088700D01*
X146850624Y-96013000D01*
X146863075Y-95952873D01*
X146865519Y-95947225D01*
X146886343Y-95899104D01*
X146894721Y-95859004D01*
X146925274Y-95712756D01*
X146925274Y-95712754D01*
X146926463Y-95707064D01*
X146926800Y-95700633D01*
X146926800Y-94032573D01*
X146911954Y-93886418D01*
X146901047Y-93851612D01*
X146864532Y-93735095D01*
X146853286Y-93699208D01*
X146758173Y-93527620D01*
X146630500Y-93378661D01*
X146528206Y-93299314D01*
X146480823Y-93236889D01*
X146469600Y-93179684D01*
X146469600Y-90951158D01*
X146489884Y-90875458D01*
X146498041Y-90862823D01*
X146585111Y-90741653D01*
X146593059Y-90721883D01*
X146645523Y-90591372D01*
X146648928Y-90582903D01*
X146669863Y-90435812D01*
X146672339Y-90418413D01*
X146672339Y-90418407D01*
X146673036Y-90413513D01*
X146673192Y-90398600D01*
X146652637Y-90228742D01*
X146592158Y-90068691D01*
X146495248Y-89927685D01*
X146367501Y-89813866D01*
X146359437Y-89809596D01*
X146359435Y-89809595D01*
X146224359Y-89738077D01*
X146216291Y-89733805D01*
X146197313Y-89729038D01*
X146059196Y-89694345D01*
X146059194Y-89694345D01*
X146050349Y-89692123D01*
X146041228Y-89692075D01*
X146041226Y-89692075D01*
X145959045Y-89691645D01*
X145879254Y-89691227D01*
X145712885Y-89731169D01*
X145704779Y-89735353D01*
X145704776Y-89735354D01*
X145681862Y-89747181D01*
X145560845Y-89809643D01*
X145431913Y-89922117D01*
X145333531Y-90062100D01*
X145271380Y-90221510D01*
X145270189Y-90230557D01*
X145250601Y-90379343D01*
X145249047Y-90391143D01*
X145267822Y-90561207D01*
X145270959Y-90569778D01*
X145270959Y-90569780D01*
X145278861Y-90591372D01*
X145326621Y-90721883D01*
X145331711Y-90729457D01*
X145422050Y-90863896D01*
X145420589Y-90864878D01*
X145449918Y-90925546D01*
X145452600Y-90953916D01*
X145452600Y-93176341D01*
X145432316Y-93252041D01*
X145380984Y-93305013D01*
X145375361Y-93308499D01*
X145375359Y-93308501D01*
X145368844Y-93312540D01*
X145226300Y-93447338D01*
X145221900Y-93453622D01*
X145118173Y-93601758D01*
X145118171Y-93601762D01*
X145113772Y-93608044D01*
X145110725Y-93615086D01*
X145110723Y-93615089D01*
X145071836Y-93704953D01*
X145023157Y-93766372D01*
X144950290Y-93795223D01*
X144872761Y-93783774D01*
X144811342Y-93735095D01*
X144786344Y-93682863D01*
X144768444Y-93613900D01*
X144764199Y-93601844D01*
X144670381Y-93393575D01*
X144664162Y-93382402D01*
X144536592Y-93192916D01*
X144528588Y-93182961D01*
X144370917Y-93017679D01*
X144361339Y-93009205D01*
X144178074Y-92872852D01*
X144167210Y-92866116D01*
X143963596Y-92762594D01*
X143951746Y-92757782D01*
X143769935Y-92701328D01*
X143753675Y-92700689D01*
X143751249Y-92704533D01*
X143750900Y-92706836D01*
X143750900Y-95022000D01*
X143730616Y-95097700D01*
X143675200Y-95153116D01*
X143599500Y-95173400D01*
X142019433Y-95173400D01*
X142003712Y-95177612D01*
X141999500Y-95193333D01*
X141999500Y-95662985D01*
X141999770Y-95669359D01*
X142014215Y-95839604D01*
X142016368Y-95852197D01*
X142048232Y-95974964D01*
X142047617Y-96053332D01*
X142007900Y-96120893D01*
X141939724Y-96159544D01*
X141901688Y-96164400D01*
X127997739Y-96164400D01*
X127922039Y-96144116D01*
X127890683Y-96120056D01*
X126814026Y-95043399D01*
X126805785Y-95034468D01*
X126800079Y-95027763D01*
X126794324Y-95018642D01*
X126786242Y-95011504D01*
X126786240Y-95011502D01*
X126754574Y-94983536D01*
X126747740Y-94977113D01*
X126736845Y-94966218D01*
X126729285Y-94960552D01*
X126719875Y-94952891D01*
X126693232Y-94929360D01*
X126693229Y-94929358D01*
X126685149Y-94922222D01*
X126675386Y-94917638D01*
X126667115Y-94912206D01*
X126658440Y-94907456D01*
X126649805Y-94900984D01*
X126639708Y-94897199D01*
X126639701Y-94897195D01*
X126606419Y-94884719D01*
X126595229Y-94880004D01*
X126553300Y-94860319D01*
X126542647Y-94858660D01*
X126533180Y-94855766D01*
X126523515Y-94853641D01*
X126513416Y-94849855D01*
X126467221Y-94846423D01*
X126455150Y-94845037D01*
X126442714Y-94843100D01*
X126428134Y-94843100D01*
X126416915Y-94842684D01*
X126378912Y-94839860D01*
X126368159Y-94839061D01*
X126357612Y-94841312D01*
X126346853Y-94842046D01*
X126346827Y-94841668D01*
X126333261Y-94843100D01*
X125640141Y-94843100D01*
X125564441Y-94822816D01*
X125509025Y-94767400D01*
X125488741Y-94691700D01*
X125509025Y-94616000D01*
X125514245Y-94607605D01*
X125537981Y-94572080D01*
X125549800Y-94512664D01*
X125549800Y-94493867D01*
X141999500Y-94493867D01*
X142003712Y-94509588D01*
X142019433Y-94513800D01*
X143071367Y-94513800D01*
X143087088Y-94509588D01*
X143091300Y-94493867D01*
X143091300Y-92718144D01*
X143087088Y-92702423D01*
X143080121Y-92700557D01*
X143017382Y-92713720D01*
X143005151Y-92717390D01*
X142792688Y-92801296D01*
X142781235Y-92806981D01*
X142585950Y-92925483D01*
X142575631Y-92933008D01*
X142403094Y-93082728D01*
X142394192Y-93091883D01*
X142249349Y-93268531D01*
X142242114Y-93279058D01*
X142129110Y-93477578D01*
X142123752Y-93489173D01*
X142045809Y-93703902D01*
X142042481Y-93716237D01*
X142001578Y-93942432D01*
X142000457Y-93952308D01*
X141999584Y-93970830D01*
X141999500Y-93974390D01*
X141999500Y-94493867D01*
X125549800Y-94493867D01*
X125549800Y-92522536D01*
X125537981Y-92463120D01*
X125511270Y-92423143D01*
X140169047Y-92423143D01*
X140173734Y-92465594D01*
X140177951Y-92503791D01*
X140187822Y-92593207D01*
X140190959Y-92601778D01*
X140190959Y-92601780D01*
X140198861Y-92623372D01*
X140246621Y-92753883D01*
X140251711Y-92761457D01*
X140336957Y-92888318D01*
X140336961Y-92888322D01*
X140342050Y-92895896D01*
X140468599Y-93011046D01*
X140476619Y-93015400D01*
X140476621Y-93015402D01*
X140600621Y-93082728D01*
X140618961Y-93092686D01*
X140627786Y-93095001D01*
X140627788Y-93095002D01*
X140730488Y-93121945D01*
X140784458Y-93136104D01*
X140863483Y-93137345D01*
X140946404Y-93138648D01*
X140946407Y-93138648D01*
X140955534Y-93138791D01*
X140964432Y-93136753D01*
X140964433Y-93136753D01*
X141002066Y-93128134D01*
X141122313Y-93100594D01*
X141130468Y-93096492D01*
X141130472Y-93096491D01*
X141267008Y-93027820D01*
X141275166Y-93023717D01*
X141405269Y-92912598D01*
X141410595Y-92905187D01*
X141410597Y-92905184D01*
X141499783Y-92781068D01*
X141499784Y-92781067D01*
X141505111Y-92773653D01*
X141513059Y-92753883D01*
X141565523Y-92623372D01*
X141568928Y-92614903D01*
X141581016Y-92529973D01*
X141592339Y-92450413D01*
X141592339Y-92450407D01*
X141593036Y-92445513D01*
X141593192Y-92430600D01*
X141588974Y-92395740D01*
X141579537Y-92317762D01*
X141590579Y-92240173D01*
X141622784Y-92192517D01*
X144931269Y-88884033D01*
X144999140Y-88844848D01*
X145077510Y-88844848D01*
X145110566Y-88858036D01*
X145171296Y-88891009D01*
X145190961Y-88901686D01*
X145199786Y-88904001D01*
X145199788Y-88904002D01*
X145308625Y-88932555D01*
X145356458Y-88945104D01*
X145435483Y-88946345D01*
X145518404Y-88947648D01*
X145518407Y-88947648D01*
X145527534Y-88947791D01*
X145536432Y-88945753D01*
X145536433Y-88945753D01*
X145583649Y-88934939D01*
X145694313Y-88909594D01*
X145702468Y-88905492D01*
X145702472Y-88905491D01*
X145839008Y-88836820D01*
X145847166Y-88832717D01*
X145977269Y-88721598D01*
X145982595Y-88714187D01*
X145982597Y-88714184D01*
X146071783Y-88590068D01*
X146071784Y-88590067D01*
X146077111Y-88582653D01*
X146085059Y-88562883D01*
X146121053Y-88473344D01*
X146140928Y-88423903D01*
X146146256Y-88386473D01*
X146164339Y-88259413D01*
X146164339Y-88259407D01*
X146165036Y-88254513D01*
X146165192Y-88239600D01*
X146160311Y-88199267D01*
X146145734Y-88078804D01*
X146145733Y-88078801D01*
X146144637Y-88069742D01*
X146084158Y-87909691D01*
X145987248Y-87768685D01*
X145904377Y-87694849D01*
X145866314Y-87660936D01*
X145866313Y-87660935D01*
X145859501Y-87654866D01*
X145851437Y-87650596D01*
X145851435Y-87650595D01*
X145775052Y-87610153D01*
X145708291Y-87574805D01*
X145658009Y-87562175D01*
X145551196Y-87535345D01*
X145551194Y-87535345D01*
X145542349Y-87533123D01*
X145533228Y-87533075D01*
X145533226Y-87533075D01*
X145451045Y-87532645D01*
X145371254Y-87532227D01*
X145204885Y-87572169D01*
X145196779Y-87576353D01*
X145196776Y-87576354D01*
X145060953Y-87646458D01*
X145052845Y-87650643D01*
X144923913Y-87763117D01*
X144918668Y-87770580D01*
X144918667Y-87770581D01*
X144914713Y-87776207D01*
X144825531Y-87903100D01*
X144822217Y-87911601D01*
X144822215Y-87911604D01*
X144786289Y-88003752D01*
X144752287Y-88055812D01*
X141121857Y-91686241D01*
X141053986Y-91725426D01*
X140988453Y-91725942D01*
X140988257Y-91727490D01*
X140979197Y-91726345D01*
X140970349Y-91724123D01*
X140961227Y-91724075D01*
X140961225Y-91724075D01*
X140879943Y-91723650D01*
X140799254Y-91723227D01*
X140632885Y-91763169D01*
X140624779Y-91767353D01*
X140624776Y-91767354D01*
X140579595Y-91790674D01*
X140480845Y-91841643D01*
X140351913Y-91954117D01*
X140253531Y-92094100D01*
X140250217Y-92102601D01*
X140250215Y-92102604D01*
X140215160Y-92192517D01*
X140191380Y-92253510D01*
X140189185Y-92270184D01*
X140172655Y-92395740D01*
X140169047Y-92423143D01*
X125511270Y-92423143D01*
X125492960Y-92395740D01*
X125463485Y-92376046D01*
X125437980Y-92359004D01*
X125437979Y-92359004D01*
X125425580Y-92350719D01*
X125366164Y-92338900D01*
X123376036Y-92338900D01*
X123316620Y-92350719D01*
X123304221Y-92359004D01*
X123304220Y-92359004D01*
X123278715Y-92376046D01*
X123249240Y-92395740D01*
X123204219Y-92463120D01*
X123192400Y-92522536D01*
X123192400Y-94512664D01*
X123204219Y-94572080D01*
X123212502Y-94584476D01*
X123213543Y-94586988D01*
X123223774Y-94664688D01*
X123193785Y-94737093D01*
X123131610Y-94784803D01*
X123053910Y-94795034D01*
X122981505Y-94765045D01*
X122966614Y-94751986D01*
X122891945Y-94677318D01*
X122852759Y-94609447D01*
X122847600Y-94570261D01*
X122847600Y-91012664D01*
X123192400Y-91012664D01*
X123204219Y-91072080D01*
X123212504Y-91084479D01*
X123212504Y-91084480D01*
X123216183Y-91089986D01*
X123249240Y-91139460D01*
X123316620Y-91184481D01*
X123376036Y-91196300D01*
X125366164Y-91196300D01*
X125425580Y-91184481D01*
X125492960Y-91139460D01*
X125526017Y-91089986D01*
X125529696Y-91084480D01*
X125529696Y-91084479D01*
X125537981Y-91072080D01*
X125549800Y-91012664D01*
X125549800Y-89022536D01*
X125537981Y-88963120D01*
X125525944Y-88945104D01*
X125504936Y-88913664D01*
X130625400Y-88913664D01*
X130637219Y-88973080D01*
X130645504Y-88985479D01*
X130645504Y-88985480D01*
X130667759Y-89018787D01*
X130682240Y-89040460D01*
X130694641Y-89048746D01*
X130729754Y-89072207D01*
X130749620Y-89085481D01*
X130809036Y-89097300D01*
X132157164Y-89097300D01*
X132216580Y-89085481D01*
X132236447Y-89072207D01*
X132271559Y-89048746D01*
X132283960Y-89040460D01*
X132298441Y-89018787D01*
X132320696Y-88985480D01*
X132320696Y-88985479D01*
X132328981Y-88973080D01*
X132340800Y-88913664D01*
X138245400Y-88913664D01*
X138257219Y-88973080D01*
X138265504Y-88985479D01*
X138265504Y-88985480D01*
X138287759Y-89018787D01*
X138302240Y-89040460D01*
X138314641Y-89048746D01*
X138349754Y-89072207D01*
X138369620Y-89085481D01*
X138429036Y-89097300D01*
X139777164Y-89097300D01*
X139836580Y-89085481D01*
X139856447Y-89072207D01*
X139891559Y-89048746D01*
X139903960Y-89040460D01*
X139918441Y-89018787D01*
X139940696Y-88985480D01*
X139940696Y-88985479D01*
X139948981Y-88973080D01*
X139960800Y-88913664D01*
X139960800Y-87565536D01*
X139948981Y-87506120D01*
X139939986Y-87492657D01*
X139912246Y-87451141D01*
X139903960Y-87438740D01*
X139876275Y-87420242D01*
X139848980Y-87402004D01*
X139848979Y-87402004D01*
X139836580Y-87393719D01*
X139777164Y-87381900D01*
X138429036Y-87381900D01*
X138369620Y-87393719D01*
X138357221Y-87402004D01*
X138357220Y-87402004D01*
X138329925Y-87420242D01*
X138302240Y-87438740D01*
X138293954Y-87451141D01*
X138266215Y-87492657D01*
X138257219Y-87506120D01*
X138245400Y-87565536D01*
X138245400Y-88913664D01*
X132340800Y-88913664D01*
X132340800Y-87565536D01*
X132328981Y-87506120D01*
X132319986Y-87492657D01*
X132292246Y-87451141D01*
X132283960Y-87438740D01*
X132256275Y-87420242D01*
X132228980Y-87402004D01*
X132228979Y-87402004D01*
X132216580Y-87393719D01*
X132157164Y-87381900D01*
X130809036Y-87381900D01*
X130749620Y-87393719D01*
X130737221Y-87402004D01*
X130737220Y-87402004D01*
X130709925Y-87420242D01*
X130682240Y-87438740D01*
X130673954Y-87451141D01*
X130646215Y-87492657D01*
X130637219Y-87506120D01*
X130625400Y-87565536D01*
X130625400Y-88913664D01*
X125504936Y-88913664D01*
X125501246Y-88908141D01*
X125492960Y-88895740D01*
X125460275Y-88873901D01*
X125437980Y-88859004D01*
X125437979Y-88859004D01*
X125425580Y-88850719D01*
X125366164Y-88838900D01*
X123376036Y-88838900D01*
X123316620Y-88850719D01*
X123304221Y-88859004D01*
X123304220Y-88859004D01*
X123281925Y-88873901D01*
X123249240Y-88895740D01*
X123240954Y-88908141D01*
X123216257Y-88945104D01*
X123204219Y-88963120D01*
X123192400Y-89022536D01*
X123192400Y-91012664D01*
X122847600Y-91012664D01*
X122847600Y-88199965D01*
X122867884Y-88124265D01*
X122923300Y-88068849D01*
X122999000Y-88048565D01*
X123076070Y-88069649D01*
X123123866Y-88097916D01*
X123141206Y-88105419D01*
X123284667Y-88147099D01*
X123299808Y-88149864D01*
X123326525Y-88151966D01*
X123332464Y-88152200D01*
X124021367Y-88152200D01*
X124037088Y-88147988D01*
X124041300Y-88132267D01*
X124700900Y-88132267D01*
X124705112Y-88147988D01*
X124720833Y-88152200D01*
X125409736Y-88152200D01*
X125415675Y-88151966D01*
X125442392Y-88149864D01*
X125457533Y-88147099D01*
X125600994Y-88105419D01*
X125618338Y-88097914D01*
X125745388Y-88022776D01*
X125760320Y-88011194D01*
X125864694Y-87906820D01*
X125876276Y-87891888D01*
X125951414Y-87764838D01*
X125958919Y-87747494D01*
X126000599Y-87604033D01*
X126003364Y-87588892D01*
X126005466Y-87562175D01*
X126005700Y-87556236D01*
X126005700Y-86867333D01*
X126001488Y-86851612D01*
X125985767Y-86847400D01*
X124720833Y-86847400D01*
X124705112Y-86851612D01*
X124700900Y-86867333D01*
X124700900Y-88132267D01*
X124041300Y-88132267D01*
X124041300Y-86417236D01*
X130169500Y-86417236D01*
X130169734Y-86423175D01*
X130171836Y-86449892D01*
X130174601Y-86465033D01*
X130216281Y-86608494D01*
X130223786Y-86625838D01*
X130298924Y-86752888D01*
X130310506Y-86767820D01*
X130414880Y-86872194D01*
X130429812Y-86883776D01*
X130556862Y-86958914D01*
X130574206Y-86966419D01*
X130717667Y-87008099D01*
X130732808Y-87010864D01*
X130759525Y-87012966D01*
X130765464Y-87013200D01*
X131133367Y-87013200D01*
X131149088Y-87008988D01*
X131153300Y-86993267D01*
X131812900Y-86993267D01*
X131817112Y-87008988D01*
X131832833Y-87013200D01*
X132200736Y-87013200D01*
X132206675Y-87012966D01*
X132233392Y-87010864D01*
X132248533Y-87008099D01*
X132391994Y-86966419D01*
X132409338Y-86958914D01*
X132536388Y-86883776D01*
X132551320Y-86872194D01*
X132655694Y-86767820D01*
X132667276Y-86752888D01*
X132742414Y-86625838D01*
X132749919Y-86608494D01*
X132791599Y-86465033D01*
X132794364Y-86449892D01*
X132796466Y-86423175D01*
X132796700Y-86417236D01*
X137789500Y-86417236D01*
X137789734Y-86423175D01*
X137791836Y-86449892D01*
X137794601Y-86465033D01*
X137836281Y-86608494D01*
X137843786Y-86625838D01*
X137918924Y-86752888D01*
X137930506Y-86767820D01*
X138034880Y-86872194D01*
X138049812Y-86883776D01*
X138176862Y-86958914D01*
X138194206Y-86966419D01*
X138337667Y-87008099D01*
X138352808Y-87010864D01*
X138379525Y-87012966D01*
X138385464Y-87013200D01*
X138753367Y-87013200D01*
X138769088Y-87008988D01*
X138773300Y-86993267D01*
X139432900Y-86993267D01*
X139437112Y-87008988D01*
X139452833Y-87013200D01*
X139820736Y-87013200D01*
X139826675Y-87012966D01*
X139853392Y-87010864D01*
X139868533Y-87008099D01*
X140011994Y-86966419D01*
X140029338Y-86958914D01*
X140156388Y-86883776D01*
X140171320Y-86872194D01*
X140275694Y-86767820D01*
X140287276Y-86752888D01*
X140362414Y-86625838D01*
X140369919Y-86608494D01*
X140411599Y-86465033D01*
X140414364Y-86449892D01*
X140416466Y-86423175D01*
X140416700Y-86417236D01*
X140416700Y-86049333D01*
X140414030Y-86039366D01*
X159773175Y-86039366D01*
X159801857Y-86146407D01*
X159806362Y-86158782D01*
X159898385Y-86356127D01*
X159904972Y-86367537D01*
X160029868Y-86545907D01*
X160038332Y-86555994D01*
X160192306Y-86709968D01*
X160202393Y-86718432D01*
X160380763Y-86843328D01*
X160392173Y-86849915D01*
X160589518Y-86941938D01*
X160601893Y-86946443D01*
X160812222Y-87002800D01*
X160825196Y-87005088D01*
X160987778Y-87019312D01*
X160994373Y-87019600D01*
X161359367Y-87019600D01*
X161375088Y-87015388D01*
X161379300Y-86999667D01*
X162038900Y-86999667D01*
X162043112Y-87015388D01*
X162058833Y-87019600D01*
X162423827Y-87019600D01*
X162430422Y-87019312D01*
X162593004Y-87005088D01*
X162605978Y-87002800D01*
X162816307Y-86946443D01*
X162828682Y-86941938D01*
X163026027Y-86849915D01*
X163037437Y-86843328D01*
X163215807Y-86718432D01*
X163225894Y-86709968D01*
X163379868Y-86555994D01*
X163388332Y-86545907D01*
X163513228Y-86367537D01*
X163519815Y-86356127D01*
X163611838Y-86158782D01*
X163616343Y-86146407D01*
X163642536Y-86048653D01*
X163642536Y-86032378D01*
X163637378Y-86029400D01*
X162058833Y-86029400D01*
X162043112Y-86033612D01*
X162038900Y-86049333D01*
X162038900Y-86999667D01*
X161379300Y-86999667D01*
X161379300Y-86049333D01*
X161375088Y-86033612D01*
X161359367Y-86029400D01*
X159790438Y-86029400D01*
X159774717Y-86033612D01*
X159773175Y-86039366D01*
X140414030Y-86039366D01*
X140412488Y-86033612D01*
X140396767Y-86029400D01*
X139452833Y-86029400D01*
X139437112Y-86033612D01*
X139432900Y-86049333D01*
X139432900Y-86993267D01*
X138773300Y-86993267D01*
X138773300Y-86049333D01*
X138769088Y-86033612D01*
X138753367Y-86029400D01*
X137809433Y-86029400D01*
X137793712Y-86033612D01*
X137789500Y-86049333D01*
X137789500Y-86417236D01*
X132796700Y-86417236D01*
X132796700Y-86049333D01*
X132792488Y-86033612D01*
X132776767Y-86029400D01*
X131832833Y-86029400D01*
X131817112Y-86033612D01*
X131812900Y-86049333D01*
X131812900Y-86993267D01*
X131153300Y-86993267D01*
X131153300Y-86049333D01*
X131149088Y-86033612D01*
X131133367Y-86029400D01*
X130189433Y-86029400D01*
X130173712Y-86033612D01*
X130169500Y-86049333D01*
X130169500Y-86417236D01*
X124041300Y-86417236D01*
X124041300Y-86167867D01*
X124700900Y-86167867D01*
X124705112Y-86183588D01*
X124720833Y-86187800D01*
X125985767Y-86187800D01*
X126001488Y-86183588D01*
X126005700Y-86167867D01*
X126005700Y-85478964D01*
X126005466Y-85473025D01*
X126003364Y-85446308D01*
X126000599Y-85431167D01*
X125976979Y-85349867D01*
X130169500Y-85349867D01*
X130173712Y-85365588D01*
X130189433Y-85369800D01*
X131133367Y-85369800D01*
X131149088Y-85365588D01*
X131153300Y-85349867D01*
X131812900Y-85349867D01*
X131817112Y-85365588D01*
X131832833Y-85369800D01*
X132776767Y-85369800D01*
X132792488Y-85365588D01*
X132796700Y-85349867D01*
X137789500Y-85349867D01*
X137793712Y-85365588D01*
X137809433Y-85369800D01*
X138753367Y-85369800D01*
X138769088Y-85365588D01*
X138773300Y-85349867D01*
X139432900Y-85349867D01*
X139437112Y-85365588D01*
X139452833Y-85369800D01*
X140396767Y-85369800D01*
X140407882Y-85366822D01*
X159775664Y-85366822D01*
X159780822Y-85369800D01*
X161359367Y-85369800D01*
X161375088Y-85365588D01*
X161379300Y-85349867D01*
X162038900Y-85349867D01*
X162043112Y-85365588D01*
X162058833Y-85369800D01*
X163627762Y-85369800D01*
X163643483Y-85365588D01*
X163645025Y-85359834D01*
X163616343Y-85252793D01*
X163611838Y-85240418D01*
X163519815Y-85043073D01*
X163513228Y-85031663D01*
X163388332Y-84853293D01*
X163379868Y-84843206D01*
X163225894Y-84689232D01*
X163215807Y-84680768D01*
X163037437Y-84555872D01*
X163026027Y-84549285D01*
X162828682Y-84457262D01*
X162816307Y-84452757D01*
X162605978Y-84396400D01*
X162593004Y-84394112D01*
X162430422Y-84379888D01*
X162423827Y-84379600D01*
X162058833Y-84379600D01*
X162043112Y-84383812D01*
X162038900Y-84399533D01*
X162038900Y-85349867D01*
X161379300Y-85349867D01*
X161379300Y-84399533D01*
X161375088Y-84383812D01*
X161359367Y-84379600D01*
X160994373Y-84379600D01*
X160987778Y-84379888D01*
X160825196Y-84394112D01*
X160812222Y-84396400D01*
X160601893Y-84452757D01*
X160589518Y-84457262D01*
X160392173Y-84549285D01*
X160380763Y-84555872D01*
X160202393Y-84680768D01*
X160192306Y-84689232D01*
X160038332Y-84843206D01*
X160029868Y-84853293D01*
X159904972Y-85031663D01*
X159898385Y-85043073D01*
X159806362Y-85240418D01*
X159801857Y-85252793D01*
X159775664Y-85350547D01*
X159775664Y-85366822D01*
X140407882Y-85366822D01*
X140412488Y-85365588D01*
X140416700Y-85349867D01*
X140416700Y-84981964D01*
X140416466Y-84976025D01*
X140414364Y-84949308D01*
X140411599Y-84934167D01*
X140369919Y-84790706D01*
X140362414Y-84773362D01*
X140287276Y-84646312D01*
X140275694Y-84631380D01*
X140171320Y-84527006D01*
X140156388Y-84515424D01*
X140029338Y-84440286D01*
X140011994Y-84432781D01*
X139868533Y-84391101D01*
X139853392Y-84388336D01*
X139826675Y-84386234D01*
X139820736Y-84386000D01*
X139452833Y-84386000D01*
X139437112Y-84390212D01*
X139432900Y-84405933D01*
X139432900Y-85349867D01*
X138773300Y-85349867D01*
X138773300Y-84405933D01*
X138769088Y-84390212D01*
X138753367Y-84386000D01*
X138385464Y-84386000D01*
X138379525Y-84386234D01*
X138352808Y-84388336D01*
X138337667Y-84391101D01*
X138194206Y-84432781D01*
X138176862Y-84440286D01*
X138049812Y-84515424D01*
X138034880Y-84527006D01*
X137930506Y-84631380D01*
X137918924Y-84646312D01*
X137843786Y-84773362D01*
X137836281Y-84790706D01*
X137794601Y-84934167D01*
X137791836Y-84949308D01*
X137789734Y-84976025D01*
X137789500Y-84981964D01*
X137789500Y-85349867D01*
X132796700Y-85349867D01*
X132796700Y-84981964D01*
X132796466Y-84976025D01*
X132794364Y-84949308D01*
X132791599Y-84934167D01*
X132749919Y-84790706D01*
X132742414Y-84773362D01*
X132667276Y-84646312D01*
X132655694Y-84631380D01*
X132551320Y-84527006D01*
X132536388Y-84515424D01*
X132409338Y-84440286D01*
X132391994Y-84432781D01*
X132248533Y-84391101D01*
X132233392Y-84388336D01*
X132206675Y-84386234D01*
X132200736Y-84386000D01*
X131832833Y-84386000D01*
X131817112Y-84390212D01*
X131812900Y-84405933D01*
X131812900Y-85349867D01*
X131153300Y-85349867D01*
X131153300Y-84405933D01*
X131149088Y-84390212D01*
X131133367Y-84386000D01*
X130765464Y-84386000D01*
X130759525Y-84386234D01*
X130732808Y-84388336D01*
X130717667Y-84391101D01*
X130574206Y-84432781D01*
X130556862Y-84440286D01*
X130429812Y-84515424D01*
X130414880Y-84527006D01*
X130310506Y-84631380D01*
X130298924Y-84646312D01*
X130223786Y-84773362D01*
X130216281Y-84790706D01*
X130174601Y-84934167D01*
X130171836Y-84949308D01*
X130169734Y-84976025D01*
X130169500Y-84981964D01*
X130169500Y-85349867D01*
X125976979Y-85349867D01*
X125958919Y-85287706D01*
X125951414Y-85270362D01*
X125876276Y-85143312D01*
X125864694Y-85128380D01*
X125760320Y-85024006D01*
X125745388Y-85012424D01*
X125618338Y-84937286D01*
X125600994Y-84929781D01*
X125457533Y-84888101D01*
X125442392Y-84885336D01*
X125415675Y-84883234D01*
X125409736Y-84883000D01*
X124720833Y-84883000D01*
X124705112Y-84887212D01*
X124700900Y-84902933D01*
X124700900Y-86167867D01*
X124041300Y-86167867D01*
X124041300Y-84902933D01*
X124037088Y-84887212D01*
X124021367Y-84883000D01*
X123590339Y-84883000D01*
X123514639Y-84862716D01*
X123459223Y-84807300D01*
X123438939Y-84731600D01*
X123459223Y-84655900D01*
X123483283Y-84624544D01*
X123867183Y-84240644D01*
X123935054Y-84201459D01*
X123974239Y-84196300D01*
X125366164Y-84196300D01*
X125425580Y-84184481D01*
X125492960Y-84139460D01*
X125537981Y-84072080D01*
X125549800Y-84012664D01*
X125549800Y-83833664D01*
X130625400Y-83833664D01*
X130637219Y-83893080D01*
X130645504Y-83905479D01*
X130645504Y-83905480D01*
X130671517Y-83944412D01*
X130682240Y-83960460D01*
X130694641Y-83968746D01*
X130715111Y-83982423D01*
X130749620Y-84005481D01*
X130809036Y-84017300D01*
X132157164Y-84017300D01*
X132216580Y-84005481D01*
X132251090Y-83982423D01*
X132271559Y-83968746D01*
X132283960Y-83960460D01*
X132294683Y-83944412D01*
X132320696Y-83905480D01*
X132320696Y-83905479D01*
X132328981Y-83893080D01*
X132340800Y-83833664D01*
X138245400Y-83833664D01*
X138257219Y-83893080D01*
X138265504Y-83905479D01*
X138265504Y-83905480D01*
X138291517Y-83944412D01*
X138302240Y-83960460D01*
X138314641Y-83968746D01*
X138335111Y-83982423D01*
X138369620Y-84005481D01*
X138429036Y-84017300D01*
X139777164Y-84017300D01*
X139836580Y-84005481D01*
X139871090Y-83982423D01*
X139891559Y-83968746D01*
X139903960Y-83960460D01*
X139914683Y-83944412D01*
X139940696Y-83905480D01*
X139940696Y-83905479D01*
X139948981Y-83893080D01*
X139960800Y-83833664D01*
X139960800Y-83111080D01*
X160180860Y-83111080D01*
X160190686Y-83298568D01*
X160240543Y-83479572D01*
X160328105Y-83645648D01*
X160449286Y-83789047D01*
X160598434Y-83903078D01*
X160605865Y-83906543D01*
X160761156Y-83978958D01*
X160761161Y-83978960D01*
X160768588Y-83982423D01*
X160776587Y-83984211D01*
X160776590Y-83984212D01*
X160945752Y-84022024D01*
X160945759Y-84022025D01*
X160951812Y-84023378D01*
X160957571Y-84023700D01*
X162416401Y-84023700D01*
X162475350Y-84017296D01*
X162547995Y-84009405D01*
X162547999Y-84009404D01*
X162556147Y-84008519D01*
X162563916Y-84005904D01*
X162563918Y-84005904D01*
X162726313Y-83951252D01*
X162726314Y-83951252D01*
X162734086Y-83948636D01*
X162895015Y-83851940D01*
X163031425Y-83722943D01*
X163136954Y-83567662D01*
X163139995Y-83560058D01*
X163139998Y-83560053D01*
X163177849Y-83465417D01*
X163206676Y-83393344D01*
X163237340Y-83208120D01*
X163227514Y-83020632D01*
X163177657Y-82839628D01*
X163090095Y-82673552D01*
X162968914Y-82530153D01*
X162819766Y-82416122D01*
X162731126Y-82374788D01*
X162657044Y-82340242D01*
X162657039Y-82340240D01*
X162649612Y-82336777D01*
X162641613Y-82334989D01*
X162641610Y-82334988D01*
X162472448Y-82297176D01*
X162472441Y-82297175D01*
X162466388Y-82295822D01*
X162460629Y-82295500D01*
X161001799Y-82295500D01*
X160946650Y-82301491D01*
X160870205Y-82309795D01*
X160870201Y-82309796D01*
X160862053Y-82310681D01*
X160854284Y-82313296D01*
X160854282Y-82313296D01*
X160719248Y-82358740D01*
X160684114Y-82370564D01*
X160523185Y-82467260D01*
X160386775Y-82596257D01*
X160281246Y-82751538D01*
X160278205Y-82759142D01*
X160278202Y-82759147D01*
X160248913Y-82832377D01*
X160211524Y-82925856D01*
X160180860Y-83111080D01*
X139960800Y-83111080D01*
X139960800Y-82485536D01*
X139948981Y-82426120D01*
X139939986Y-82412657D01*
X139912246Y-82371141D01*
X139903960Y-82358740D01*
X139878537Y-82341753D01*
X139848980Y-82322004D01*
X139848979Y-82322004D01*
X139836580Y-82313719D01*
X139777164Y-82301900D01*
X138429036Y-82301900D01*
X138369620Y-82313719D01*
X138357221Y-82322004D01*
X138357220Y-82322004D01*
X138327663Y-82341753D01*
X138302240Y-82358740D01*
X138293954Y-82371141D01*
X138266215Y-82412657D01*
X138257219Y-82426120D01*
X138245400Y-82485536D01*
X138245400Y-83833664D01*
X132340800Y-83833664D01*
X132340800Y-82485536D01*
X132328981Y-82426120D01*
X132319986Y-82412657D01*
X132292246Y-82371141D01*
X132283960Y-82358740D01*
X132258537Y-82341753D01*
X132228980Y-82322004D01*
X132228979Y-82322004D01*
X132216580Y-82313719D01*
X132157164Y-82301900D01*
X130809036Y-82301900D01*
X130749620Y-82313719D01*
X130737221Y-82322004D01*
X130737220Y-82322004D01*
X130707663Y-82341753D01*
X130682240Y-82358740D01*
X130673954Y-82371141D01*
X130646215Y-82412657D01*
X130637219Y-82426120D01*
X130625400Y-82485536D01*
X130625400Y-83833664D01*
X125549800Y-83833664D01*
X125549800Y-82022536D01*
X125537981Y-81963120D01*
X125509922Y-81921125D01*
X125501246Y-81908141D01*
X125492960Y-81895740D01*
X125425580Y-81850719D01*
X125366164Y-81838900D01*
X123376036Y-81838900D01*
X123316620Y-81850719D01*
X123304221Y-81859004D01*
X123304220Y-81859004D01*
X123273385Y-81879607D01*
X123199173Y-81904798D01*
X123122309Y-81889508D01*
X123063388Y-81837834D01*
X123038197Y-81763622D01*
X123039383Y-81732390D01*
X123045200Y-81691517D01*
X123075948Y-81619430D01*
X123088034Y-81605793D01*
X128093383Y-76600444D01*
X128161254Y-76561259D01*
X128200439Y-76556100D01*
X169563761Y-76556100D01*
X169639461Y-76576384D01*
X169670817Y-76600444D01*
X172078256Y-79007884D01*
X172117441Y-79075755D01*
X172122600Y-79114940D01*
X172122600Y-81687500D01*
X172102316Y-81763200D01*
X172046900Y-81818616D01*
X171971200Y-81838900D01*
X171636036Y-81838900D01*
X171576620Y-81850719D01*
X171509240Y-81895740D01*
X171500954Y-81908141D01*
X171492279Y-81921125D01*
X171464219Y-81963120D01*
X171452400Y-82022536D01*
X171452400Y-84012664D01*
X171464219Y-84072080D01*
X171509240Y-84139460D01*
X171576620Y-84184481D01*
X171636036Y-84196300D01*
X173626164Y-84196300D01*
X173685580Y-84184481D01*
X173752960Y-84139460D01*
X173797981Y-84072080D01*
X173809800Y-84012664D01*
X173809800Y-82022536D01*
X173797981Y-81963120D01*
X173769922Y-81921125D01*
X173761246Y-81908141D01*
X173752960Y-81895740D01*
X173685580Y-81850719D01*
X173626164Y-81838900D01*
X173291000Y-81838900D01*
X173215300Y-81818616D01*
X173159884Y-81763200D01*
X173139600Y-81687500D01*
X173139600Y-78914237D01*
X173140088Y-78902097D01*
X173140794Y-78893319D01*
X173143174Y-78882801D01*
X173139891Y-78829881D01*
X173139600Y-78820507D01*
X173139600Y-78805087D01*
X173138838Y-78799762D01*
X173138837Y-78799754D01*
X173138260Y-78795727D01*
X173137023Y-78783645D01*
X173134823Y-78748192D01*
X173134155Y-78737423D01*
X173130491Y-78727275D01*
X173128484Y-78717583D01*
X173125709Y-78708093D01*
X173124180Y-78697413D01*
X173105000Y-78655229D01*
X173100425Y-78643991D01*
X173088358Y-78610565D01*
X173084696Y-78600420D01*
X173078332Y-78591708D01*
X173073686Y-78582970D01*
X173068358Y-78574639D01*
X173063892Y-78564818D01*
X173033648Y-78529718D01*
X173026095Y-78520205D01*
X173022121Y-78514765D01*
X173018675Y-78510048D01*
X173008372Y-78499745D01*
X173000732Y-78491517D01*
X172975852Y-78462642D01*
X172975851Y-78462641D01*
X172968813Y-78454473D01*
X172959762Y-78448606D01*
X172951636Y-78441518D01*
X172951885Y-78441233D01*
X172941277Y-78432650D01*
X170248026Y-75739399D01*
X170239785Y-75730468D01*
X170234079Y-75723763D01*
X170228324Y-75714642D01*
X170220242Y-75707504D01*
X170220240Y-75707502D01*
X170188574Y-75679536D01*
X170181740Y-75673113D01*
X170170845Y-75662218D01*
X170163285Y-75656552D01*
X170153875Y-75648891D01*
X170127232Y-75625360D01*
X170127229Y-75625358D01*
X170119149Y-75618222D01*
X170109386Y-75613638D01*
X170101115Y-75608206D01*
X170092440Y-75603456D01*
X170083805Y-75596984D01*
X170073708Y-75593199D01*
X170073701Y-75593195D01*
X170040419Y-75580719D01*
X170029229Y-75576004D01*
X169987300Y-75556319D01*
X169976647Y-75554660D01*
X169967180Y-75551766D01*
X169957515Y-75549641D01*
X169947416Y-75545855D01*
X169901221Y-75542423D01*
X169889150Y-75541037D01*
X169876714Y-75539100D01*
X169862134Y-75539100D01*
X169850915Y-75538684D01*
X169812912Y-75535860D01*
X169802159Y-75535061D01*
X169791612Y-75537312D01*
X169780853Y-75538046D01*
X169780827Y-75537668D01*
X169767261Y-75539100D01*
X127999727Y-75539100D01*
X127987584Y-75538612D01*
X127978822Y-75537907D01*
X127968300Y-75535526D01*
X127957532Y-75536194D01*
X127915381Y-75538809D01*
X127906006Y-75539100D01*
X127890587Y-75539100D01*
X127885262Y-75539862D01*
X127885254Y-75539863D01*
X127881227Y-75540440D01*
X127869145Y-75541677D01*
X127864391Y-75541972D01*
X127822922Y-75544545D01*
X127812774Y-75548209D01*
X127803087Y-75550215D01*
X127793595Y-75552990D01*
X127782913Y-75554520D01*
X127773093Y-75558985D01*
X127773086Y-75558987D01*
X127740728Y-75573699D01*
X127729481Y-75578278D01*
X127685919Y-75594005D01*
X127677213Y-75600365D01*
X127668473Y-75605012D01*
X127660134Y-75610345D01*
X127650318Y-75614808D01*
X127642151Y-75621845D01*
X127642148Y-75621847D01*
X127615231Y-75645041D01*
X127605719Y-75652594D01*
X127595547Y-75660025D01*
X127585238Y-75670334D01*
X127577010Y-75677974D01*
X127539973Y-75709887D01*
X127534109Y-75718934D01*
X127527015Y-75727066D01*
X127526730Y-75726817D01*
X127518149Y-75737423D01*
X122371654Y-80883919D01*
X122303783Y-80923104D01*
X122275395Y-80926767D01*
X122275448Y-80927226D01*
X122266383Y-80928275D01*
X122257254Y-80928227D01*
X122090885Y-80968169D01*
X122082779Y-80972353D01*
X122082776Y-80972354D01*
X121946953Y-81042458D01*
X121938845Y-81046643D01*
X121809913Y-81159117D01*
X121711531Y-81299100D01*
X121708217Y-81307601D01*
X121708215Y-81307604D01*
X121685374Y-81366190D01*
X121649380Y-81458510D01*
X121627047Y-81628143D01*
X121645822Y-81798207D01*
X121648959Y-81806778D01*
X121648959Y-81806780D01*
X121661244Y-81840351D01*
X121704621Y-81958883D01*
X121709711Y-81966457D01*
X121794957Y-82093318D01*
X121794961Y-82093322D01*
X121800050Y-82100896D01*
X121926599Y-82216046D01*
X121934619Y-82220400D01*
X121934621Y-82220402D01*
X122058757Y-82287802D01*
X122076961Y-82297686D01*
X122085786Y-82300001D01*
X122085788Y-82300002D01*
X122225965Y-82336777D01*
X122242458Y-82341104D01*
X122321483Y-82342345D01*
X122404404Y-82343648D01*
X122404407Y-82343648D01*
X122413534Y-82343791D01*
X122422432Y-82341753D01*
X122422433Y-82341753D01*
X122508662Y-82322004D01*
X122580313Y-82305594D01*
X122588468Y-82301492D01*
X122588472Y-82301491D01*
X122725008Y-82232820D01*
X122733166Y-82228717D01*
X122863269Y-82117598D01*
X122868595Y-82110187D01*
X122868597Y-82110184D01*
X122918051Y-82041361D01*
X122978697Y-81991722D01*
X123056037Y-81979058D01*
X123129348Y-82006760D01*
X123178987Y-82067406D01*
X123192400Y-82129709D01*
X123192400Y-83414461D01*
X123172116Y-83490161D01*
X123148056Y-83521517D01*
X122030899Y-84638674D01*
X122021968Y-84646915D01*
X122015263Y-84652621D01*
X122006142Y-84658376D01*
X121999004Y-84666458D01*
X121999002Y-84666460D01*
X121971036Y-84698126D01*
X121964613Y-84704960D01*
X121953718Y-84715855D01*
X121948052Y-84723415D01*
X121940391Y-84732825D01*
X121916860Y-84759468D01*
X121916858Y-84759471D01*
X121909722Y-84767551D01*
X121905138Y-84777314D01*
X121899706Y-84785585D01*
X121894956Y-84794260D01*
X121888484Y-84802895D01*
X121884699Y-84812992D01*
X121884695Y-84812999D01*
X121872219Y-84846281D01*
X121867504Y-84857471D01*
X121847819Y-84899400D01*
X121846160Y-84910053D01*
X121843266Y-84919520D01*
X121841141Y-84929185D01*
X121837355Y-84939284D01*
X121836556Y-84950037D01*
X121833923Y-84985476D01*
X121832537Y-84997550D01*
X121830600Y-85009986D01*
X121830600Y-85024566D01*
X121830184Y-85035785D01*
X121826561Y-85084541D01*
X121828812Y-85095088D01*
X121829546Y-85105847D01*
X121829168Y-85105873D01*
X121830600Y-85119439D01*
X121830600Y-94770964D01*
X121830112Y-94783104D01*
X121829406Y-94791882D01*
X121827026Y-94802400D01*
X121829970Y-94849855D01*
X121830309Y-94855318D01*
X121830600Y-94864693D01*
X121830600Y-94880113D01*
X121831362Y-94885438D01*
X121831363Y-94885446D01*
X121831940Y-94889473D01*
X121833177Y-94901555D01*
X121836045Y-94947777D01*
X121839708Y-94957922D01*
X121841713Y-94967605D01*
X121844490Y-94977103D01*
X121846020Y-94987787D01*
X121865199Y-95029969D01*
X121869772Y-95041202D01*
X121885504Y-95084781D01*
X121891869Y-95093494D01*
X121896511Y-95102224D01*
X121901841Y-95110558D01*
X121906308Y-95120382D01*
X121931711Y-95149864D01*
X121936551Y-95155481D01*
X121944095Y-95164982D01*
X121951525Y-95175152D01*
X121961828Y-95185455D01*
X121969468Y-95193683D01*
X122001387Y-95230727D01*
X122010438Y-95236594D01*
X122018564Y-95243682D01*
X122018315Y-95243967D01*
X122028923Y-95252550D01*
X122436174Y-95659802D01*
X122444415Y-95668733D01*
X122450123Y-95675440D01*
X122455876Y-95684558D01*
X122463955Y-95691693D01*
X122463960Y-95691699D01*
X122495626Y-95719665D01*
X122502460Y-95726088D01*
X122513354Y-95736982D01*
X122520923Y-95742655D01*
X122530330Y-95750314D01*
X122565051Y-95780978D01*
X122574812Y-95785560D01*
X122583085Y-95790995D01*
X122591766Y-95795748D01*
X122600395Y-95802215D01*
X122610492Y-95806000D01*
X122610499Y-95806004D01*
X122643774Y-95818478D01*
X122654969Y-95823195D01*
X122696900Y-95842881D01*
X122707557Y-95844540D01*
X122717009Y-95847430D01*
X122726681Y-95849557D01*
X122736784Y-95853344D01*
X122764318Y-95855390D01*
X122782977Y-95856777D01*
X122795046Y-95858163D01*
X122807486Y-95860100D01*
X122822070Y-95860100D01*
X122833288Y-95860516D01*
X122853475Y-95862016D01*
X122927463Y-95887855D01*
X122978620Y-95947225D01*
X122993238Y-96024221D01*
X122967399Y-96098209D01*
X122908029Y-96149366D01*
X122842254Y-96164400D01*
X118198000Y-96164400D01*
X118122300Y-96144116D01*
X118066884Y-96088700D01*
X118046600Y-96013000D01*
X118046600Y-81930769D01*
X118048700Y-81925699D01*
X118046850Y-81921232D01*
X118051534Y-81837834D01*
X118061932Y-81652660D01*
X118063833Y-81635790D01*
X118065133Y-81628143D01*
X118108214Y-81374571D01*
X118111992Y-81358019D01*
X118185342Y-81103409D01*
X118190949Y-81087385D01*
X118212304Y-81035828D01*
X118292343Y-80842590D01*
X118299707Y-80827296D01*
X118427873Y-80595388D01*
X118436905Y-80581013D01*
X118590227Y-80364916D01*
X118600812Y-80351642D01*
X118776853Y-80154642D01*
X118776854Y-80154640D01*
X118780046Y-80151068D01*
X118784517Y-80149216D01*
X118786617Y-80144146D01*
X123641646Y-75289117D01*
X123646716Y-75287017D01*
X123648566Y-75282552D01*
X123849144Y-75103314D01*
X123862418Y-75092729D01*
X124078515Y-74939407D01*
X124092890Y-74930375D01*
X124324797Y-74802209D01*
X124340091Y-74794845D01*
X124584890Y-74693449D01*
X124600913Y-74687843D01*
X124600920Y-74687841D01*
X124855523Y-74614494D01*
X124872067Y-74610718D01*
X125133298Y-74566335D01*
X125150153Y-74564436D01*
X125418737Y-74549353D01*
X125423200Y-74551201D01*
X125428272Y-74549100D01*
X171573928Y-74549100D01*
X171579000Y-74551201D01*
G37*
%TD.AperFunction*%
%TD*%
M02*
